<svg width="794" height="797" viewBox="0 0 794 797" fill="none" xmlns="http://www.w3.org/2000/svg">
<g clip-path="url(#clip0_9_1001)">
<path fill-rule="evenodd" clip-rule="evenodd" d="M201.175 14.2458H432.585V401.872H327.207V408.756H442.648V401.872H439.469V14.2458H660.29V115.919H636.461V156.694H643.345V401.872H504.074V408.756H507.252V449.532H514.134V408.756H643.345V551.735H636.461V558.089H514.134V497.189H507.252V558.089H411.933V585.625H636.461V592.509H677.237V588.801H779.438V782.617H351.036V558.089H344.152V782.617H14.246V677.237H0.475922V612.632H14.246V592.509H228.181V551.735H201.175V408.756H245.128V401.872H201.175V14.2458Z" fill="#FECC66" stroke="#2B2A29" stroke-width="0.755767" stroke-miterlimit="22.9256"/>
<path d="M588.802 401.872H579.269H588.802Z" stroke="#FECC66" stroke-width="0.288412" stroke-miterlimit="22.9256"/>
<path d="M588.802 401.872H643.345H588.802Z" stroke="#FECC66" stroke-width="0.288412" stroke-miterlimit="22.9256"/>
<path d="M579.269 401.872H588.802H507.252H579.269Z" stroke="#FECC66" stroke-width="0.288412" stroke-miterlimit="22.9256"/>
<path d="M507.252 428.88H514.134H507.252Z" stroke="#FECC66" stroke-width="0.288412" stroke-miterlimit="22.9256"/>
<path d="M670.353 435.764H793.206V575.564H677.235V551.735H670.353V435.764Z" fill="#FECC66" stroke="#FECC66" stroke-width="0.953656" stroke-miterlimit="10" stroke-linecap="round"/>
<path d="M657.113 575.033V581.917" stroke="#FF0000" stroke-width="0.288412" stroke-miterlimit="22.9256"/>
<path d="M187.407 0.47583H258.896" stroke="black" stroke-width="0.288412" stroke-miterlimit="22.9256"/>
<path d="M381.22 0.47583H490.306" stroke="black" stroke-width="0.288412" stroke-miterlimit="22.9256"/>
<path d="M612.63 0.47583H674.058" stroke="black" stroke-width="0.288412" stroke-miterlimit="22.9256"/>
<path d="M201.175 14.2458H258.896" stroke="black" stroke-width="0.288412" stroke-miterlimit="22.9256"/>
<path d="M381.22 14.2458H432.585" stroke="black" stroke-width="0.288412" stroke-miterlimit="22.9256"/>
<path d="M439.469 14.2458H490.305" stroke="black" stroke-width="0.288412" stroke-miterlimit="22.9256"/>
<path d="M612.63 14.2458H660.29" stroke="black" stroke-width="0.288412" stroke-miterlimit="22.9256"/>
<path d="M674.058 0.47583V119.626" stroke="black" stroke-width="0.288412" stroke-miterlimit="22.9256"/>
<path d="M660.29 14.2458V119.626" stroke="black" stroke-width="0.288412" stroke-miterlimit="22.9256"/>
<path d="M793.206 575.564V796.385" stroke="black" stroke-width="0.288412" stroke-miterlimit="22.9256"/>
<path d="M779.438 575.564V782.617" stroke="black" stroke-width="0.288412" stroke-miterlimit="22.9256"/>
<path d="M674.058 588.802H779.438" stroke="#00BFFF" stroke-width="0.288412" stroke-miterlimit="22.9256"/>
<path d="M674.058 575.564H779.438" stroke="#00BFFF" stroke-width="0.288412" stroke-miterlimit="22.9256"/>
<path d="M779.438 575.564H793.206" stroke="black" stroke-width="0.288412" stroke-miterlimit="22.9256"/>
<path d="M674.058 581.917H779.438" stroke="#00BFFF" stroke-width="0.288412" stroke-miterlimit="22.9256"/>
<path d="M612.63 14.2459V0.47583" stroke="black" stroke-width="0.288412" stroke-miterlimit="22.9256"/>
<path d="M490.306 14.2459V0.47583" stroke="black" stroke-width="0.288412" stroke-miterlimit="22.9256"/>
<path d="M381.22 14.2459V0.47583" stroke="black" stroke-width="0.288412" stroke-miterlimit="22.9256"/>
<path d="M258.896 14.2459V0.47583" stroke="black" stroke-width="0.288412" stroke-miterlimit="22.9256"/>
<path d="M258.896 0.47583H381.22" stroke="#00BFFF" stroke-width="0.288412" stroke-miterlimit="22.9256"/>
<path d="M381.22 7.36206H258.896" stroke="#00BFFF" stroke-width="0.288412" stroke-miterlimit="22.9256"/>
<path d="M258.896 14.2458H381.22" stroke="#00BFFF" stroke-width="0.288412" stroke-miterlimit="22.9256"/>
<path d="M490.306 0.47583H612.63" stroke="#00BFFF" stroke-width="0.288412" stroke-miterlimit="22.9256"/>
<path d="M612.63 7.36206H490.306" stroke="#00BFFF" stroke-width="0.288412" stroke-miterlimit="22.9256"/>
<path d="M490.306 14.2458H612.63" stroke="#00BFFF" stroke-width="0.288412" stroke-miterlimit="22.9256"/>
<path d="M205.411 568.149V575.033" stroke="#FF0000" stroke-width="0.288412" stroke-miterlimit="22.9256"/>
<path d="M0.475922 796.385H793.206" stroke="black" stroke-width="0.288412" stroke-miterlimit="22.9256"/>
<path d="M14.246 782.617H191.112" stroke="black" stroke-width="0.288412" stroke-miterlimit="22.9256"/>
<path d="M197.468 782.617H344.152" stroke="black" stroke-width="0.288412" stroke-miterlimit="22.9256"/>
<path d="M351.036 782.617H779.438" stroke="black" stroke-width="0.288412" stroke-miterlimit="22.9256"/>
<path d="M14.246 782.617H208.059" stroke="black" stroke-width="0.288412" stroke-miterlimit="22.9256"/>
<path d="M197.468 782.617H344.152" stroke="black" stroke-width="0.288412" stroke-miterlimit="22.9256"/>
<path d="M351.036 782.617H779.438" stroke="black" stroke-width="0.288412" stroke-miterlimit="22.9256"/>
<path d="M0.475922 691.005V796.385" stroke="black" stroke-width="0.288412" stroke-miterlimit="22.9256"/>
<path d="M14.246 691.005V782.617" stroke="black" stroke-width="0.288412" stroke-miterlimit="22.9256"/>
<path d="M201.175 119.626V14.2458" stroke="black" stroke-width="0.288412" stroke-miterlimit="22.9256"/>
<path d="M201.175 153.515V401.872" stroke="black" stroke-width="0.288412" stroke-miterlimit="22.9256"/>
<path d="M201.175 408.756V554.912" stroke="black" stroke-width="0.288412" stroke-miterlimit="22.9256"/>
<path d="M432.585 14.2458V401.872" stroke="black" stroke-width="0.288412" stroke-miterlimit="22.9256"/>
<path d="M439.469 14.2458V401.872" stroke="black" stroke-width="0.288412" stroke-miterlimit="22.9256"/>
<path d="M201.175 401.872H245.128" stroke="black" stroke-width="0.288412" stroke-miterlimit="22.9256"/>
<path d="M327.207 401.872H432.585" stroke="black" stroke-width="0.288412" stroke-miterlimit="22.9256"/>
<path d="M439.469 401.872H442.646" stroke="black" stroke-width="0.288412" stroke-miterlimit="22.9256"/>
<path d="M201.175 408.756H245.128" stroke="black" stroke-width="0.288412" stroke-miterlimit="22.9256"/>
<path d="M327.207 408.756H439.469" stroke="black" stroke-width="0.288412" stroke-miterlimit="22.9256"/>
<path d="M643.345 191.114V195.88" stroke="#008AB8" stroke-width="0.288412" stroke-miterlimit="22.9256"/>
<path d="M271.074 14.2458H265.78" stroke="#008AB8" stroke-width="0.288412" stroke-miterlimit="22.9256"/>
<path d="M581.918 558.089H580.328" stroke="#008AB8" stroke-width="0.288412" stroke-miterlimit="22.9256"/>
<path d="M602.57 585.625H597.275" stroke="#008AB8" stroke-width="0.288412" stroke-miterlimit="22.9256"/>
<path d="M602.57 585.625H597.275" stroke="#008AB8" stroke-width="0.288412" stroke-miterlimit="22.9256"/>
<path d="M351.036 714.833V720.13" stroke="#008AB8" stroke-width="0.288412" stroke-miterlimit="22.9256"/>
<path d="M351.036 714.833V720.13" stroke="#008AB8" stroke-width="0.288412" stroke-miterlimit="22.9256"/>
<path d="M344.152 717.482V720.13" stroke="#008AB8" stroke-width="0.288412" stroke-miterlimit="22.9256"/>
<path d="M327.207 401.872V408.756" stroke="black" stroke-width="0.288412" stroke-miterlimit="22.9256"/>
<path d="M245.128 401.872V408.756" stroke="black" stroke-width="0.288412" stroke-miterlimit="22.9256"/>
<path d="M177.875 638.051L169.401 658.703" stroke="black" stroke-width="0.288412" stroke-miterlimit="22.9256"/>
<path d="M169.401 638.051L177.875 658.703" stroke="black" stroke-width="0.288412" stroke-miterlimit="22.9256"/>
<path d="M183.7 638.051H185.818L186.877 639.109L188.464 641.227L188.995 643.345L189.525 645.993V650.76L188.995 653.936L188.464 655.526L186.877 657.641L185.818 658.703H183.7L182.641 657.641L181.052 655.526L180.521 653.936L179.993 650.76V645.993L180.521 643.345L181.052 641.227L182.641 639.109L183.7 638.051Z" stroke="black" stroke-width="0.288412" stroke-miterlimit="22.9256"/>
<path d="M200.645 658.703V638.051H194.291V654.995L193.23 656.585L192.702 657.641L191.643 658.703" stroke="black" stroke-width="0.288412" stroke-miterlimit="22.9256"/>
<path d="M212.295 658.703V638.051H205.939V654.995L205.411 656.585L204.352 657.641L203.293 658.703" stroke="black" stroke-width="0.288412" stroke-miterlimit="22.9256"/>
<path d="M156.692 676.178L157.751 675.117L159.341 672.471V692.592" stroke="black" stroke-width="0.288412" stroke-miterlimit="22.9256"/>
<path d="M171.521 692.592V672.471L165.694 685.708H174.698" stroke="black" stroke-width="0.288412" stroke-miterlimit="22.9256"/>
<path d="M178.403 691.535L177.875 692.592L177.344 691.535L177.875 690.474L178.403 691.535ZM178.403 691.535V693.651L177.875 695.771L177.344 696.299" stroke="black" stroke-width="0.288412" stroke-miterlimit="22.9256"/>
<path d="M188.995 692.592V672.471L183.169 685.708H192.173" stroke="black" stroke-width="0.288412" stroke-miterlimit="22.9256"/>
<path d="M195.879 672.471H202.763L199.055 679.883H200.645L201.704 680.942L202.763 682.003L203.293 684.649V686.769L202.763 689.946L201.175 691.535L199.586 692.592H197.996L195.879 691.535L195.35 690.474L194.82 688.887" stroke="black" stroke-width="0.288412" stroke-miterlimit="22.9256"/>
<path d="M217.061 692.592V678.826L212.825 689.946L209.118 678.826V692.592" stroke="black" stroke-width="0.288412" stroke-miterlimit="22.9256"/>
<path d="M220.238 677.237V676.178L220.768 674.06L221.297 672.999L222.356 672.471H224.476L226.063 672.999L226.591 674.06L227.122 676.178V678.296L226.591 679.883L225.534 683.06L219.179 692.592H227.652" stroke="black" stroke-width="0.288412" stroke-miterlimit="22.9256"/>
<path d="M344.152 716.951V720.13" stroke="#008AB8" stroke-width="0.288412" stroke-miterlimit="22.9256"/>
<path d="M187.407 578.741V0.47583" stroke="black" stroke-width="0.288412" stroke-miterlimit="22.9256"/>
<path d="M187.407 578.741H0.475922" stroke="black" stroke-width="0.288412" stroke-miterlimit="22.9256"/>
<path d="M187.407 592.509H14.246" stroke="black" stroke-width="0.288412" stroke-miterlimit="22.9256"/>
<path d="M14.246 592.509H143.455" stroke="black" stroke-width="0.288412" stroke-miterlimit="22.9256"/>
<path d="M643.345 218.12V212.825" stroke="#008AB8" stroke-width="0.288412" stroke-miterlimit="22.9256"/>
<path d="M670.353 218.12V212.825" stroke="#008AB8" stroke-width="0.288412" stroke-miterlimit="22.9256"/>
<path d="M643.345 159.34L649.17 153.515" stroke="#FF0000" stroke-width="0.288412" stroke-miterlimit="22.9256"/>
<path d="M643.345 190.056L670.353 162.52" stroke="#FF0000" stroke-width="0.288412" stroke-miterlimit="22.9256"/>
<path d="M643.345 220.238L670.353 193.232" stroke="#FF0000" stroke-width="0.288412" stroke-miterlimit="22.9256"/>
<path d="M643.345 250.953L670.353 223.945" stroke="#FF0000" stroke-width="0.288412" stroke-miterlimit="22.9256"/>
<path d="M643.345 281.665L670.353 254.129" stroke="#FF0000" stroke-width="0.288412" stroke-miterlimit="22.9256"/>
<path d="M643.345 311.85L670.353 284.844" stroke="#FF0000" stroke-width="0.288412" stroke-miterlimit="22.9256"/>
<path d="M643.345 342.562L670.353 315.557" stroke="#FF0000" stroke-width="0.288412" stroke-miterlimit="22.9256"/>
<path d="M643.345 373.277L670.353 345.741" stroke="#FF0000" stroke-width="0.288412" stroke-miterlimit="22.9256"/>
<path d="M643.345 403.992L670.353 376.454" stroke="#FF0000" stroke-width="0.288412" stroke-miterlimit="22.9256"/>
<path d="M643.345 434.174L670.353 407.169" stroke="#FF0000" stroke-width="0.288412" stroke-miterlimit="22.9256"/>
<path d="M643.345 464.889L670.353 437.882" stroke="#FF0000" stroke-width="0.288412" stroke-miterlimit="22.9256"/>
<path d="M643.345 495.602L670.353 468.066" stroke="#FF0000" stroke-width="0.288412" stroke-miterlimit="22.9256"/>
<path d="M643.345 525.786L670.353 498.779" stroke="#FF0000" stroke-width="0.288412" stroke-miterlimit="22.9256"/>
<path d="M644.935 554.912L670.353 529.494" stroke="#FF0000" stroke-width="0.288412" stroke-miterlimit="22.9256"/>
<path d="M644.404 174.696C644.404 174.113 643.928 173.637 643.345 173.637C642.762 173.637 642.286 174.113 642.286 174.696C642.286 175.281 642.762 175.755 643.345 175.755C643.928 175.755 644.404 175.279 644.404 174.696Z" fill="#FF0000"/>
<path d="M643.345 174.696H644.404M644.404 174.696C644.404 174.113 643.928 173.637 643.345 173.637C642.762 173.637 642.286 174.113 642.286 174.696C642.286 175.281 642.762 175.755 643.345 175.755C643.928 175.755 644.404 175.279 644.404 174.696Z" stroke="black" stroke-width="0.288412" stroke-miterlimit="22.9256"/>
<path d="M648.111 170.46C648.111 169.875 647.636 169.401 647.052 169.401C646.469 169.401 645.994 169.877 645.994 170.46C645.994 171.043 646.469 171.519 647.052 171.519C647.638 171.519 648.111 171.043 648.111 170.46Z" fill="#FF0000"/>
<path d="M647.052 170.46H648.111M648.111 170.46C648.111 169.875 647.636 169.401 647.052 169.401C646.469 169.401 645.994 169.877 645.994 170.46C645.994 171.043 646.469 171.519 647.052 171.519C647.638 171.519 648.111 171.043 648.111 170.46Z" stroke="black" stroke-width="0.288412" stroke-miterlimit="22.9256"/>
<path d="M651.288 166.755L664.526 153.515" stroke="#FF0000" stroke-width="0.288412" stroke-miterlimit="22.9256"/>
<path d="M643.345 205.411L658.701 189.525" stroke="#FF0000" stroke-width="0.288412" stroke-miterlimit="22.9256"/>
<path d="M663.469 185.816C663.469 185.232 662.993 184.757 662.41 184.757C661.827 184.757 661.351 185.232 661.351 185.816C661.351 186.401 661.827 186.874 662.41 186.874C662.993 186.874 663.469 186.399 663.469 185.816Z" fill="#FF0000"/>
<path d="M662.41 185.816H663.469M663.469 185.816C663.469 185.232 662.993 184.757 662.41 184.757C661.827 184.757 661.351 185.232 661.351 185.816C661.351 186.401 661.827 186.874 662.41 186.874C662.993 186.874 663.469 186.399 663.469 185.816Z" stroke="black" stroke-width="0.288412" stroke-miterlimit="22.9256"/>
<path d="M666.643 182.11L670.353 177.875" stroke="#FF0000" stroke-width="0.288412" stroke-miterlimit="22.9256"/>
<path d="M643.345 235.595L647.052 231.888" stroke="#FF0000" stroke-width="0.288412" stroke-miterlimit="22.9256"/>
<path d="M652.347 228.181C652.347 227.596 651.871 227.122 651.288 227.122C650.705 227.122 650.229 227.598 650.229 228.181C650.229 228.764 650.705 229.24 651.288 229.24C651.873 229.24 652.347 228.764 652.347 228.181Z" fill="#FF0000"/>
<path d="M651.288 228.181H652.347M652.347 228.181C652.347 227.596 651.871 227.122 651.288 227.122C650.705 227.122 650.229 227.598 650.229 228.181C650.229 228.764 650.705 229.24 651.288 229.24C651.873 229.24 652.347 228.764 652.347 228.181Z" stroke="black" stroke-width="0.288412" stroke-miterlimit="22.9256"/>
<path d="M654.995 223.945L670.353 208.59" stroke="#FF0000" stroke-width="0.288412" stroke-miterlimit="22.9256"/>
<path d="M643.345 266.308L662.41 247.245" stroke="#FF0000" stroke-width="0.288412" stroke-miterlimit="22.9256"/>
<path d="M667.702 243.008C667.702 242.422 667.227 241.949 666.643 241.949C666.06 241.949 665.585 242.424 665.585 243.008C665.585 243.593 666.06 244.067 666.643 244.067C667.229 244.067 667.702 243.591 667.702 243.008Z" fill="#FF0000"/>
<path d="M666.643 243.008H667.702M667.702 243.008C667.702 242.422 667.227 241.949 666.643 241.949C666.06 241.949 665.585 242.424 665.585 243.008C665.585 243.593 666.06 244.067 666.643 244.067C667.229 244.067 667.702 243.591 667.702 243.008Z" stroke="black" stroke-width="0.288412" stroke-miterlimit="22.9256"/>
<path d="M671.412 239.3C671.412 238.717 670.936 238.241 670.353 238.241C669.77 238.241 669.294 238.717 669.294 239.3C669.294 239.886 669.77 240.359 670.353 240.359C670.938 240.359 671.412 239.883 671.412 239.3Z" fill="#FF0000"/>
<path d="M670.353 239.3H671.412M671.412 239.3C671.412 238.717 670.936 238.241 670.353 238.241C669.77 238.241 669.294 238.717 669.294 239.3C669.294 239.886 669.77 240.359 670.353 240.359C670.938 240.359 671.412 239.883 671.412 239.3Z" stroke="black" stroke-width="0.288412" stroke-miterlimit="22.9256"/>
<path d="M643.345 297.023L651.288 289.08" stroke="#FF0000" stroke-width="0.288412" stroke-miterlimit="22.9256"/>
<path d="M656.054 285.37C656.054 284.787 655.579 284.312 654.995 284.312C654.412 284.312 653.937 284.787 653.937 285.37C653.937 285.956 654.412 286.429 654.995 286.429C655.581 286.429 656.054 285.954 656.054 285.37Z" fill="#FF0000"/>
<path d="M654.995 285.37H656.054M656.054 285.37C656.054 284.787 655.579 284.312 654.995 284.312C654.412 284.312 653.937 284.787 653.937 285.37C653.937 285.956 654.412 286.429 654.995 286.429C655.581 286.429 656.054 285.954 656.054 285.37Z" stroke="black" stroke-width="0.288412" stroke-miterlimit="22.9256"/>
<path d="M658.701 281.665L670.353 269.487" stroke="#FF0000" stroke-width="0.288412" stroke-miterlimit="22.9256"/>
<path d="M644.404 327.205C644.404 326.622 643.928 326.146 643.345 326.146C642.762 326.146 642.286 326.622 642.286 327.205C642.286 327.79 642.762 328.264 643.345 328.264C643.928 328.264 644.404 327.788 644.404 327.205Z" fill="#FF0000"/>
<path d="M643.345 327.205H644.404M644.404 327.205C644.404 326.622 643.928 326.146 643.345 326.146C642.762 326.146 642.286 326.622 642.286 327.205C642.286 327.79 642.762 328.264 643.345 328.264C643.928 328.264 644.404 327.788 644.404 327.205Z" stroke="black" stroke-width="0.288412" stroke-miterlimit="22.9256"/>
<path d="M647.052 323.5L666.643 304.437" stroke="#FF0000" stroke-width="0.288412" stroke-miterlimit="22.9256"/>
<path d="M671.412 300.728C671.412 300.143 670.936 299.669 670.353 299.669C669.77 299.669 669.294 300.145 669.294 300.728C669.294 301.313 669.77 301.787 670.353 301.787C670.938 301.787 671.412 301.311 671.412 300.728Z" fill="#FF0000"/>
<path d="M670.353 300.728H671.412M671.412 300.728C671.412 300.143 670.936 299.669 670.353 299.669C669.77 299.669 669.294 300.145 669.294 300.728C669.294 301.313 669.77 301.787 670.353 301.787C670.938 301.787 671.412 301.311 671.412 300.728Z" stroke="black" stroke-width="0.288412" stroke-miterlimit="22.9256"/>
<path d="M643.345 357.92L654.995 346.27" stroke="#FF0000" stroke-width="0.288412" stroke-miterlimit="22.9256"/>
<path d="M659.759 342.563C659.759 341.977 659.284 341.504 658.701 341.504C658.117 341.504 657.642 341.979 657.642 342.563C657.642 343.148 658.117 343.622 658.701 343.622C659.286 343.622 659.759 343.146 659.759 342.563Z" fill="#FF0000"/>
<path d="M658.701 342.563H659.759M659.759 342.563C659.759 341.977 659.284 341.504 658.701 341.504C658.117 341.504 657.642 341.979 657.642 342.563C657.642 343.148 658.117 343.622 658.701 343.622C659.286 343.622 659.759 343.146 659.759 342.563Z" stroke="black" stroke-width="0.288412" stroke-miterlimit="22.9256"/>
<path d="M662.41 338.857L670.353 330.915" stroke="#FF0000" stroke-width="0.288412" stroke-miterlimit="22.9256"/>
<path d="M643.345 388.635V388.104" stroke="#FF0000" stroke-width="0.288412" stroke-miterlimit="22.9256"/>
<path d="M648.111 384.395C648.111 383.812 647.636 383.336 647.052 383.336C646.469 383.336 645.994 383.812 645.994 384.395C645.994 384.98 646.469 385.454 647.052 385.454C647.638 385.454 648.111 384.978 648.111 384.395Z" fill="#FF0000"/>
<path d="M647.052 384.395H648.111M648.111 384.395C648.111 383.812 647.636 383.336 647.052 383.336C646.469 383.336 645.994 383.812 645.994 384.395C645.994 384.98 646.469 385.454 647.052 385.454C647.638 385.454 648.111 384.978 648.111 384.395Z" stroke="black" stroke-width="0.288412" stroke-miterlimit="22.9256"/>
<path d="M651.288 380.692L670.353 361.627" stroke="#FF0000" stroke-width="0.288412" stroke-miterlimit="22.9256"/>
<path d="M643.345 418.817L658.701 403.462" stroke="#FF0000" stroke-width="0.288412" stroke-miterlimit="22.9256"/>
<path d="M663.469 399.752C663.469 399.169 662.993 398.693 662.41 398.693C661.827 398.693 661.351 399.169 661.351 399.752C661.351 400.335 661.827 400.811 662.41 400.811C662.993 400.811 663.469 400.335 663.469 399.752Z" fill="#FF0000"/>
<path d="M662.41 399.752H663.469M663.469 399.752C663.469 399.169 662.993 398.693 662.41 398.693C661.827 398.693 661.351 399.169 661.351 399.752C661.351 400.335 661.827 400.811 662.41 400.811C662.993 400.811 663.469 400.335 663.469 399.752Z" stroke="black" stroke-width="0.288412" stroke-miterlimit="22.9256"/>
<path d="M666.643 396.047L670.353 391.812" stroke="#FF0000" stroke-width="0.288412" stroke-miterlimit="22.9256"/>
<path d="M643.345 449.532L647.052 445.825" stroke="#FF0000" stroke-width="0.288412" stroke-miterlimit="22.9256"/>
<path d="M652.347 441.587C652.347 441.004 651.871 440.528 651.288 440.528C650.705 440.528 650.229 441.004 650.229 441.587C650.229 442.172 650.705 442.646 651.288 442.646C651.873 442.646 652.347 442.17 652.347 441.587Z" fill="#FF0000"/>
<path d="M651.288 441.587H652.347M652.347 441.587C652.347 441.004 651.871 440.528 651.288 440.528C650.705 440.528 650.229 441.004 650.229 441.587C650.229 442.172 650.705 442.646 651.288 442.646C651.873 442.646 652.347 442.17 652.347 441.587Z" stroke="black" stroke-width="0.288412" stroke-miterlimit="22.9256"/>
<path d="M654.995 437.882L670.353 422.524" stroke="#FF0000" stroke-width="0.288412" stroke-miterlimit="22.9256"/>
<path d="M643.345 480.245L662.41 460.652" stroke="#FF0000" stroke-width="0.288412" stroke-miterlimit="22.9256"/>
<path d="M667.702 456.944C667.702 456.361 667.227 455.885 666.643 455.885C666.06 455.885 665.585 456.361 665.585 456.944C665.585 457.528 666.06 458.003 666.643 458.003C667.229 458.003 667.702 457.528 667.702 456.944Z" fill="#FF0000"/>
<path d="M666.643 456.944H667.702M667.702 456.944C667.702 456.361 667.227 455.885 666.643 455.885C666.06 455.885 665.585 456.361 665.585 456.944C665.585 457.528 666.06 458.003 666.643 458.003C667.229 458.003 667.702 457.528 667.702 456.944Z" stroke="black" stroke-width="0.288412" stroke-miterlimit="22.9256"/>
<path d="M670.353 453.239V452.709" stroke="#FF0000" stroke-width="0.288412" stroke-miterlimit="22.9256"/>
<path d="M643.345 510.429L651.288 503.017" stroke="#FF0000" stroke-width="0.288412" stroke-miterlimit="22.9256"/>
<path d="M656.054 499.307C656.054 498.724 655.579 498.248 654.995 498.248C654.412 498.248 653.937 498.724 653.937 499.307C653.937 499.892 654.412 500.366 654.995 500.366C655.581 500.366 656.054 499.89 656.054 499.307Z" fill="#FF0000"/>
<path d="M654.995 499.307H656.054M656.054 499.307C656.054 498.724 655.579 498.248 654.995 498.248C654.412 498.248 653.937 498.724 653.937 499.307C653.937 499.892 654.412 500.366 654.995 500.366C655.581 500.366 656.054 499.89 656.054 499.307Z" stroke="black" stroke-width="0.288412" stroke-miterlimit="22.9256"/>
<path d="M658.701 495.072L670.353 483.424" stroke="#FF0000" stroke-width="0.288412" stroke-miterlimit="22.9256"/>
<path d="M644.404 541.142C644.404 540.559 643.928 540.083 643.345 540.083C642.762 540.083 642.286 540.559 642.286 541.142C642.286 541.727 642.762 542.201 643.345 542.201C643.928 542.201 644.404 541.725 644.404 541.142Z" fill="#FF0000"/>
<path d="M643.345 541.142H644.404M644.404 541.142C644.404 540.559 643.928 540.083 643.345 540.083C642.762 540.083 642.286 540.559 642.286 541.142C642.286 541.727 642.762 542.201 643.345 542.201C643.928 542.201 644.404 541.725 644.404 541.142Z" stroke="black" stroke-width="0.288412" stroke-miterlimit="22.9256"/>
<path d="M647.052 537.437L666.643 518.374" stroke="#FF0000" stroke-width="0.288412" stroke-miterlimit="22.9256"/>
<path d="M671.412 514.134C671.412 513.551 670.936 513.075 670.353 513.075C669.77 513.075 669.294 513.551 669.294 514.134C669.294 514.719 669.77 515.193 670.353 515.193C670.938 515.193 671.412 514.717 671.412 514.134Z" fill="#FF0000"/>
<path d="M670.353 514.134H671.412M671.412 514.134C671.412 513.551 670.936 513.075 670.353 513.075C669.77 513.075 669.294 513.551 669.294 514.134C669.294 514.719 669.77 515.193 670.353 515.193C670.938 515.193 671.412 514.717 671.412 514.134Z" stroke="black" stroke-width="0.288412" stroke-miterlimit="22.9256"/>
<path d="M662.41 552.792L670.353 544.321" stroke="#FF0000" stroke-width="0.288412" stroke-miterlimit="22.9256"/>
<path d="M643.345 153.515H670.353V554.912H643.345V153.515Z" stroke="#FF0000" stroke-width="0.288412" stroke-miterlimit="22.9256"/>
<path d="M417.758 585.625L411.933 579.8" stroke="#FF0000" stroke-width="0.288412" stroke-miterlimit="22.9256"/>
<path d="M448.473 585.625L421.465 558.089" stroke="#FF0000" stroke-width="0.288412" stroke-miterlimit="22.9256"/>
<path d="M479.186 585.625L451.65 558.089" stroke="#FF0000" stroke-width="0.288412" stroke-miterlimit="22.9256"/>
<path d="M509.37 585.625L482.363 558.089" stroke="#FF0000" stroke-width="0.288412" stroke-miterlimit="22.9256"/>
<path d="M540.083 585.625L513.078 558.089" stroke="#FF0000" stroke-width="0.288412" stroke-miterlimit="22.9256"/>
<path d="M570.798 585.625L543.262 558.089" stroke="#FF0000" stroke-width="0.288412" stroke-miterlimit="22.9256"/>
<path d="M600.98 585.625L573.975 558.089" stroke="#FF0000" stroke-width="0.288412" stroke-miterlimit="22.9256"/>
<path d="M631.695 585.625L604.687 558.089" stroke="#FF0000" stroke-width="0.288412" stroke-miterlimit="22.9256"/>
<path d="M640.168 563.383L634.872 558.089" stroke="#FF0000" stroke-width="0.288412" stroke-miterlimit="22.9256"/>
<path d="M434.175 585.625C434.175 585.042 433.699 584.566 433.116 584.566C432.533 584.566 432.057 585.042 432.057 585.625C432.057 586.208 432.533 586.684 433.116 586.684C433.701 586.684 434.175 586.208 434.175 585.625Z" fill="#FF0000"/>
<path d="M433.116 585.625H434.175M434.175 585.625C434.175 585.042 433.699 584.566 433.116 584.566C432.533 584.566 432.057 585.042 432.057 585.625C432.057 586.208 432.533 586.684 433.116 586.684C433.701 586.684 434.175 586.208 434.175 585.625Z" stroke="black" stroke-width="0.288412" stroke-miterlimit="22.9256"/>
<path d="M430.467 581.387C430.467 580.804 429.992 580.328 429.408 580.328C428.825 580.328 428.349 580.804 428.349 581.387C428.349 581.97 428.825 582.446 429.408 582.446C429.992 582.446 430.467 581.97 430.467 581.387Z" fill="#FF0000"/>
<path d="M429.408 581.387H430.467M430.467 581.387C430.467 580.804 429.992 580.328 429.408 580.328C428.825 580.328 428.349 580.804 428.349 581.387C428.349 581.97 428.825 582.446 429.408 582.446C429.992 582.446 430.467 581.97 430.467 581.387Z" stroke="black" stroke-width="0.288412" stroke-miterlimit="22.9256"/>
<path d="M425.173 577.682L411.933 564.444" stroke="#FF0000" stroke-width="0.288412" stroke-miterlimit="22.9256"/>
<path d="M463.828 585.625L448.473 570.267" stroke="#FF0000" stroke-width="0.288412" stroke-miterlimit="22.9256"/>
<path d="M445.825 566.032C445.825 565.448 445.349 564.973 444.766 564.973C444.183 564.973 443.707 565.448 443.707 566.032C443.707 566.617 444.183 567.091 444.766 567.091C445.349 567.091 445.825 566.615 445.825 566.032Z" fill="#FF0000"/>
<path d="M444.766 566.032H445.825M445.825 566.032C445.825 565.448 445.349 564.973 444.766 564.973C444.183 564.973 443.707 565.448 443.707 566.032C443.707 566.617 444.183 567.091 444.766 567.091C445.349 567.091 445.825 566.615 445.825 566.032Z" stroke="black" stroke-width="0.288412" stroke-miterlimit="22.9256"/>
<path d="M440.528 562.324L436.292 558.089" stroke="#FF0000" stroke-width="0.288412" stroke-miterlimit="22.9256"/>
<path d="M494.013 585.625L490.306 581.387" stroke="#FF0000" stroke-width="0.288412" stroke-miterlimit="22.9256"/>
<path d="M487.659 577.68C487.659 577.097 487.184 576.621 486.6 576.621C486.017 576.621 485.541 577.097 485.541 577.68C485.541 578.265 486.017 578.739 486.6 578.739C487.184 578.739 487.659 578.263 487.659 577.68Z" fill="#FF0000"/>
<path d="M486.6 577.68H487.659M487.659 577.68C487.659 577.097 487.184 576.621 486.6 576.621C486.017 576.621 485.541 577.097 485.541 577.68C485.541 578.265 486.017 578.739 486.6 578.739C487.184 578.739 487.659 578.263 487.659 577.68Z" stroke="black" stroke-width="0.288412" stroke-miterlimit="22.9256"/>
<path d="M482.893 573.974L467.007 558.089" stroke="#FF0000" stroke-width="0.288412" stroke-miterlimit="22.9256"/>
<path d="M524.726 585.625L505.663 566.032" stroke="#FF0000" stroke-width="0.288412" stroke-miterlimit="22.9256"/>
<path d="M503.015 562.324C503.015 561.741 502.539 561.265 501.956 561.265C501.373 561.265 500.897 561.741 500.897 562.324C500.897 562.907 501.373 563.383 501.956 563.383C502.541 563.383 503.015 562.907 503.015 562.324Z" fill="#FF0000"/>
<path d="M501.956 562.324H503.015M503.015 562.324C503.015 561.741 502.539 561.265 501.956 561.265C501.373 561.265 500.897 561.741 500.897 562.324C500.897 562.907 501.373 563.383 501.956 563.383C502.541 563.383 503.015 562.907 503.015 562.324Z" stroke="black" stroke-width="0.288412" stroke-miterlimit="22.9256"/>
<path d="M497.72 558.617V558.089" stroke="#FF0000" stroke-width="0.288412" stroke-miterlimit="22.9256"/>
<path d="M555.44 585.625L547.498 577.682" stroke="#FF0000" stroke-width="0.288412" stroke-miterlimit="22.9256"/>
<path d="M544.849 573.974C544.849 573.391 544.373 572.916 543.79 572.916C543.207 572.916 542.731 573.391 542.731 573.974C542.731 574.558 543.207 575.033 543.79 575.033C544.375 575.033 544.849 574.558 544.849 573.974Z" fill="#FF0000"/>
<path d="M543.79 573.974H544.849M544.849 573.974C544.849 573.391 544.373 572.916 543.79 572.916C543.207 572.916 542.731 573.391 542.731 573.974C542.731 574.558 543.207 575.033 543.79 575.033C544.375 575.033 544.849 574.558 544.849 573.974Z" stroke="black" stroke-width="0.288412" stroke-miterlimit="22.9256"/>
<path d="M540.083 570.267L527.904 558.089" stroke="#FF0000" stroke-width="0.288412" stroke-miterlimit="22.9256"/>
<path d="M586.684 585.625C586.684 585.042 586.208 584.566 585.625 584.566C585.042 584.566 584.566 585.042 584.566 585.625C584.566 586.208 585.042 586.684 585.625 586.684C586.208 586.684 586.684 586.208 586.684 585.625Z" fill="#FF0000"/>
<path d="M585.625 585.625H586.684M586.684 585.625C586.684 585.042 586.208 584.566 585.625 584.566C585.042 584.566 584.566 585.042 584.566 585.625C584.566 586.208 585.042 586.684 585.625 586.684C586.208 586.684 586.684 586.208 586.684 585.625Z" stroke="black" stroke-width="0.288412" stroke-miterlimit="22.9256"/>
<path d="M581.918 581.387L562.855 562.324" stroke="#FF0000" stroke-width="0.288412" stroke-miterlimit="22.9256"/>
<path d="M560.207 558.617C560.207 558.034 559.731 557.558 559.148 557.558C558.565 557.558 558.089 558.034 558.089 558.617C558.089 559.202 558.565 559.676 559.148 559.676C559.733 559.676 560.207 559.2 560.207 558.617Z" fill="#FF0000"/>
<path d="M559.148 558.617H560.207M560.207 558.617C560.207 558.034 559.731 557.558 559.148 557.558C558.565 557.558 558.089 558.034 558.089 558.617C558.089 559.202 558.565 559.676 559.148 559.676C559.733 559.676 560.207 559.2 560.207 558.617Z" stroke="black" stroke-width="0.288412" stroke-miterlimit="22.9256"/>
<path d="M616.338 585.625L604.687 573.975" stroke="#FF0000" stroke-width="0.288412" stroke-miterlimit="22.9256"/>
<path d="M602.039 570.267C602.039 569.684 601.563 569.208 600.98 569.208C600.397 569.208 599.921 569.684 599.921 570.267C599.921 570.853 600.397 571.326 600.98 571.326C601.565 571.326 602.039 570.851 602.039 570.267Z" fill="#FF0000"/>
<path d="M600.98 570.267H602.039M602.039 570.267C602.039 569.684 601.563 569.208 600.98 569.208C600.397 569.208 599.921 569.684 599.921 570.267C599.921 570.853 600.397 571.326 600.98 571.326C601.565 571.326 602.039 570.851 602.039 570.267Z" stroke="black" stroke-width="0.288412" stroke-miterlimit="22.9256"/>
<path d="M597.275 566.032L589.332 558.089" stroke="#FF0000" stroke-width="0.288412" stroke-miterlimit="22.9256"/>
<path d="M639.11 577.682L620.045 558.617" stroke="#FF0000" stroke-width="0.288412" stroke-miterlimit="22.9256"/>
<path d="M411.933 585.625V558.089H640.168V585.625H411.933Z" stroke="#FF0000" stroke-width="0.288412" stroke-miterlimit="22.9256"/>
<path d="M351.036 782.617V650.229" stroke="black" stroke-width="0.288412" stroke-miterlimit="22.9256"/>
<path d="M344.152 782.617V663.997" stroke="black" stroke-width="0.288412" stroke-miterlimit="22.9256"/>
<path d="M344.152 657.113V650.229" stroke="black" stroke-width="0.288412" stroke-miterlimit="22.9256"/>
<path d="M351.036 660.29V782.617" stroke="black" stroke-width="0.288412" stroke-miterlimit="22.9256"/>
<path d="M344.152 650.229V782.617" stroke="black" stroke-width="0.288412" stroke-miterlimit="22.9256"/>
<path d="M344.152 558.089V657.113" stroke="black" stroke-width="0.288412" stroke-miterlimit="22.9256"/>
<path d="M344.152 592.509V564.973V558.089H351.036V782.617" stroke="black" stroke-width="0.288412" stroke-miterlimit="22.9256"/>
<path d="M351.036 592.509V564.973" stroke="black" stroke-width="0.288412" stroke-miterlimit="22.9256"/>
<path d="M576.623 401.872H580.328" stroke="#008AB8" stroke-width="0.288412" stroke-miterlimit="22.9256"/>
<path d="M439.469 401.872H442.646" stroke="black" stroke-width="0.288412" stroke-miterlimit="22.9256"/>
<path d="M504.073 401.872H643.345" stroke="black" stroke-width="0.288412" stroke-miterlimit="22.9256"/>
<path d="M439.469 408.756H442.646" stroke="black" stroke-width="0.288412" stroke-miterlimit="22.9256"/>
<path d="M504.073 408.756H507.252" stroke="black" stroke-width="0.288412" stroke-miterlimit="22.9256"/>
<path d="M514.134 408.756H643.345" stroke="black" stroke-width="0.288412" stroke-miterlimit="22.9256"/>
<path d="M442.646 401.872V408.756" stroke="black" stroke-width="0.288412" stroke-miterlimit="22.9256"/>
<path d="M504.073 401.872V408.756" stroke="black" stroke-width="0.288412" stroke-miterlimit="22.9256"/>
<path d="M507.252 408.756V449.532" stroke="black" stroke-width="0.288412" stroke-miterlimit="22.9256"/>
<path d="M507.252 497.189V558.089" stroke="black" stroke-width="0.288412" stroke-miterlimit="22.9256"/>
<path d="M514.134 408.756V449.532" stroke="black" stroke-width="0.288412" stroke-miterlimit="22.9256"/>
<path d="M507.252 497.189H514.134V558.089" stroke="black" stroke-width="0.288412" stroke-miterlimit="22.9256"/>
<path d="M507.252 449.532H514.134" stroke="black" stroke-width="0.288412" stroke-miterlimit="22.9256"/>
<path d="M588.802 408.756V421.996" stroke="#008AB8" stroke-width="0.288412" stroke-miterlimit="22.9256"/>
<path d="M588.802 408.756V401.872" stroke="#008AB8" stroke-width="0.288412" stroke-miterlimit="22.9256"/>
<path d="M14.246 691.005V677.237" stroke="black" stroke-width="0.288412" stroke-miterlimit="22.9256"/>
<path d="M14.246 612.632V592.509" stroke="black" stroke-width="0.288412" stroke-miterlimit="22.9256"/>
<path d="M0.475922 704.773V677.237" stroke="black" stroke-width="0.288412" stroke-miterlimit="22.9256"/>
<path d="M14.246 612.632H0.475922V578.741" stroke="black" stroke-width="0.288412" stroke-miterlimit="22.9256"/>
<path d="M14.246 677.237H0.475922" stroke="black" stroke-width="0.288412" stroke-miterlimit="22.9256"/>
<path d="M0.475922 609.454V677.237" stroke="black" stroke-width="0.288412" stroke-miterlimit="22.9256"/>
<path d="M793.206 575.564V435.764H670.353" stroke="#003FFF" stroke-width="0.288412" stroke-miterlimit="22.9256"/>
<path d="M187.407 592.509H228.181" stroke="black" stroke-width="0.288412" stroke-miterlimit="22.9256"/>
<path d="M228.181 551.735H187.407L228.181 592.509V551.735ZM187.407 551.735L228.181 592.509H187.407V551.735Z" fill="#0000FF"/>
<path d="M187.407 551.735H228.181V592.509M187.407 551.735L228.181 592.509M187.407 551.735V592.509H228.181" stroke="#0000FF" stroke-width="0.288412" stroke-miterlimit="22.9256"/>
<path d="M228.181 551.735H187.407V592.509H228.181V551.735Z" stroke="black" stroke-width="0.288412" stroke-miterlimit="22.9256"/>
<path d="M187.407 592.509L228.181 551.735" stroke="black" stroke-width="0.288412" stroke-miterlimit="22.9256"/>
<path d="M228.181 592.509L187.407 551.735" stroke="black" stroke-width="0.288412" stroke-miterlimit="22.9256"/>
<path d="M636.461 592.509H677.235" stroke="black" stroke-width="0.288412" stroke-miterlimit="22.9256"/>
<path d="M677.235 551.735H636.459L677.235 592.509V551.735ZM636.459 551.735L677.235 592.509H636.459V551.735Z" fill="#0000FF"/>
<path d="M636.459 551.735H677.235V592.509M636.459 551.735L677.235 592.509M636.459 551.735V592.509H677.235" stroke="#0000FF" stroke-width="0.288412" stroke-miterlimit="22.9256"/>
<path d="M677.235 551.735H636.461V592.509H677.235V551.735Z" stroke="black" stroke-width="0.288412" stroke-miterlimit="22.9256"/>
<path d="M636.461 592.509L677.235 551.735" stroke="black" stroke-width="0.288412" stroke-miterlimit="22.9256"/>
<path d="M677.235 592.509L636.461 551.735" stroke="black" stroke-width="0.288412" stroke-miterlimit="22.9256"/>
<path d="M187.407 156.694H228.181" stroke="black" stroke-width="0.288412" stroke-miterlimit="22.9256"/>
<path d="M228.181 115.919H187.407L228.181 156.694V115.919ZM187.407 115.919L228.181 156.694H187.407V115.919Z" fill="#0000FF"/>
<path d="M187.407 115.919H228.181V156.694M187.407 115.919L228.181 156.694M187.407 115.919V156.694H228.181" stroke="#0000FF" stroke-width="0.288412" stroke-miterlimit="22.9256"/>
<path d="M228.181 115.919H187.407V156.694H228.181V115.919Z" stroke="black" stroke-width="0.288412" stroke-miterlimit="22.9256"/>
<path d="M187.407 156.694L228.181 115.919" stroke="black" stroke-width="0.288412" stroke-miterlimit="22.9256"/>
<path d="M228.181 156.694L187.407 115.919" stroke="black" stroke-width="0.288412" stroke-miterlimit="22.9256"/>
<path d="M636.461 156.694H677.235" stroke="black" stroke-width="0.288412" stroke-miterlimit="22.9256"/>
<path d="M677.235 115.919H636.459L677.235 156.694V115.919ZM636.459 115.919L677.235 156.694H636.459V115.919Z" fill="#0000FF"/>
<path d="M636.459 115.919H677.235V156.694M636.459 115.919L677.235 156.694M636.459 115.919V156.694H677.235" stroke="#0000FF" stroke-width="0.288412" stroke-miterlimit="22.9256"/>
<path d="M677.235 115.919H636.461V156.694H677.235V115.919Z" stroke="black" stroke-width="0.288412" stroke-miterlimit="22.9256"/>
<path d="M636.461 156.694L677.235 115.919" stroke="black" stroke-width="0.288412" stroke-miterlimit="22.9256"/>
<path d="M677.235 156.694L636.461 115.919" stroke="black" stroke-width="0.288412" stroke-miterlimit="22.9256"/>
<path d="M507.252 428.88H588.802V401.872H507.252V428.88Z" stroke="#5CB800" stroke-width="0.288412" stroke-miterlimit="22.9256"/>
<path d="M580.859 408.756H569.737" stroke="#5CB800" stroke-width="0.288412" stroke-miterlimit="22.9256"/>
<path d="M568.68 409.815V420.937" stroke="#5CB800" stroke-width="0.288412" stroke-miterlimit="22.9256"/>
<path d="M569.737 421.996H580.859" stroke="#5CB800" stroke-width="0.288412" stroke-miterlimit="22.9256"/>
<path d="M581.918 420.937V409.815" stroke="#5CB800" stroke-width="0.288412" stroke-miterlimit="22.9256"/>
<path d="M582.446 409.552C582.446 408.82 581.852 408.228 581.122 408.228" stroke="#5CB800" stroke-width="0.288412" stroke-miterlimit="22.9256"/>
<path d="M570.002 408.228C569.27 408.228 568.678 408.822 568.678 409.552" stroke="#5CB800" stroke-width="0.288412" stroke-miterlimit="22.9256"/>
<path d="M581.124 421.996C581.854 421.996 582.448 421.402 582.448 420.672" stroke="#5CB800" stroke-width="0.288412" stroke-miterlimit="22.9256"/>
<path d="M568.678 420.672C568.678 421.402 569.272 421.996 570.002 421.996" stroke="#5CB800" stroke-width="0.288412" stroke-miterlimit="22.9256"/>
<path d="M527.904 420.937V409.815" stroke="#5CB800" stroke-width="0.288412" stroke-miterlimit="22.9256"/>
<path d="M526.315 408.756H515.195" stroke="#5CB800" stroke-width="0.288412" stroke-miterlimit="22.9256"/>
<path d="M514.134 409.815V420.937" stroke="#5CB800" stroke-width="0.288412" stroke-miterlimit="22.9256"/>
<path d="M515.195 421.996H526.315" stroke="#5CB800" stroke-width="0.288412" stroke-miterlimit="22.9256"/>
<path d="M527.905 409.552C527.905 408.82 527.311 408.228 526.58 408.228" stroke="#5CB800" stroke-width="0.288412" stroke-miterlimit="22.9256"/>
<path d="M515.461 408.228C514.728 408.228 514.136 408.822 514.136 409.552" stroke="#5CB800" stroke-width="0.288412" stroke-miterlimit="22.9256"/>
<path d="M526.58 421.996C527.311 421.996 527.905 421.402 527.905 420.672" stroke="#5CB800" stroke-width="0.288412" stroke-miterlimit="22.9256"/>
<path d="M514.134 420.672C514.134 421.402 514.728 421.996 515.458 421.996" stroke="#5CB800" stroke-width="0.288412" stroke-miterlimit="22.9256"/>
<path d="M561.794 409.552C561.794 408.82 561.2 408.228 560.47 408.228" stroke="#5CB800" stroke-width="0.288412" stroke-miterlimit="22.9256"/>
<path d="M560.472 421.996C561.202 421.996 561.796 421.402 561.796 420.672" stroke="#5CB800" stroke-width="0.288412" stroke-miterlimit="22.9256"/>
<path d="M536.113 408.228C535.38 408.228 534.788 408.822 534.788 409.552" stroke="#5CB800" stroke-width="0.288412" stroke-miterlimit="22.9256"/>
<path d="M534.788 420.672C534.788 421.402 535.382 421.996 536.113 421.996" stroke="#5CB800" stroke-width="0.288412" stroke-miterlimit="22.9256"/>
<path d="M561.794 420.937V409.815" stroke="#5CB800" stroke-width="0.288412" stroke-miterlimit="22.9256"/>
<path d="M560.207 408.756H535.847" stroke="#5CB800" stroke-width="0.288412" stroke-miterlimit="22.9256"/>
<path d="M534.258 409.815V420.937" stroke="#5CB800" stroke-width="0.288412" stroke-miterlimit="22.9256"/>
<path d="M535.847 421.996H560.207" stroke="#5CB800" stroke-width="0.288412" stroke-miterlimit="22.9256"/>
<path d="M580.859 408.756H569.737" stroke="#5CB800" stroke-width="0.288412" stroke-miterlimit="22.9256"/>
<path d="M568.68 409.815V420.937" stroke="#5CB800" stroke-width="0.288412" stroke-miterlimit="22.9256"/>
<path d="M569.737 421.996H580.859" stroke="#5CB800" stroke-width="0.288412" stroke-miterlimit="22.9256"/>
<path d="M581.918 420.937V409.815" stroke="#5CB800" stroke-width="0.288412" stroke-miterlimit="22.9256"/>
<path d="M582.446 409.552C582.446 408.82 581.852 408.228 581.122 408.228" stroke="#5CB800" stroke-width="0.288412" stroke-miterlimit="22.9256"/>
<path d="M570.002 408.228C569.27 408.228 568.678 408.822 568.678 409.552" stroke="#5CB800" stroke-width="0.288412" stroke-miterlimit="22.9256"/>
<path d="M581.124 421.996C581.854 421.996 582.448 421.402 582.448 420.672" stroke="#5CB800" stroke-width="0.288412" stroke-miterlimit="22.9256"/>
<path d="M568.678 420.672C568.678 421.402 569.272 421.996 570.002 421.996" stroke="#5CB800" stroke-width="0.288412" stroke-miterlimit="22.9256"/>
<path d="M527.904 420.937V409.815" stroke="#5CB800" stroke-width="0.288412" stroke-miterlimit="22.9256"/>
<path d="M526.315 408.756H515.195" stroke="#5CB800" stroke-width="0.288412" stroke-miterlimit="22.9256"/>
<path d="M514.134 409.815V420.937" stroke="#5CB800" stroke-width="0.288412" stroke-miterlimit="22.9256"/>
<path d="M515.195 421.996H526.315" stroke="#5CB800" stroke-width="0.288412" stroke-miterlimit="22.9256"/>
<path d="M527.905 409.552C527.905 408.82 527.311 408.228 526.58 408.228" stroke="#5CB800" stroke-width="0.288412" stroke-miterlimit="22.9256"/>
<path d="M515.461 408.228C514.728 408.228 514.136 408.822 514.136 409.552" stroke="#5CB800" stroke-width="0.288412" stroke-miterlimit="22.9256"/>
<path d="M526.58 421.996C527.311 421.996 527.905 421.402 527.905 420.672" stroke="#5CB800" stroke-width="0.288412" stroke-miterlimit="22.9256"/>
<path d="M514.134 420.672C514.134 421.402 514.728 421.996 515.458 421.996" stroke="#5CB800" stroke-width="0.288412" stroke-miterlimit="22.9256"/>
<path d="M561.794 409.552C561.794 408.82 561.2 408.228 560.47 408.228" stroke="#5CB800" stroke-width="0.288412" stroke-miterlimit="22.9256"/>
<path d="M560.472 421.996C561.202 421.996 561.796 421.402 561.796 420.672" stroke="#5CB800" stroke-width="0.288412" stroke-miterlimit="22.9256"/>
<path d="M536.113 408.228C535.38 408.228 534.788 408.822 534.788 409.552" stroke="#5CB800" stroke-width="0.288412" stroke-miterlimit="22.9256"/>
<path d="M534.788 420.672C534.788 421.402 535.382 421.996 536.113 421.996" stroke="#5CB800" stroke-width="0.288412" stroke-miterlimit="22.9256"/>
<path d="M561.794 420.937V409.815" stroke="#5CB800" stroke-width="0.288412" stroke-miterlimit="22.9256"/>
<path d="M560.207 408.756H535.847" stroke="#5CB800" stroke-width="0.288412" stroke-miterlimit="22.9256"/>
<path d="M534.258 409.815V420.937" stroke="#5CB800" stroke-width="0.288412" stroke-miterlimit="22.9256"/>
<path d="M535.847 421.996H560.207" stroke="#5CB800" stroke-width="0.288412" stroke-miterlimit="22.9256"/>
<path d="M514.134 420.937L517.844 411.405L526.315 408.756" stroke="#5CB800" stroke-width="0.288412" stroke-miterlimit="22.9256"/>
<path d="M534.258 420.937L539.024 411.405L560.207 408.756" stroke="#5CB800" stroke-width="0.288412" stroke-miterlimit="22.9256"/>
<path d="M568.68 420.937L572.385 411.405L580.859 408.756" stroke="#5CB800" stroke-width="0.288412" stroke-miterlimit="22.9256"/>
<path d="M786.322 762.493H704.771V789.499H786.322V762.493Z" stroke="#5CB800" stroke-width="0.288412" stroke-miterlimit="22.9256"/>
<path d="M712.716 782.617H723.836" stroke="#5CB800" stroke-width="0.288412" stroke-miterlimit="22.9256"/>
<path d="M724.894 781.556V770.436" stroke="#5CB800" stroke-width="0.288412" stroke-miterlimit="22.9256"/>
<path d="M723.836 769.377H712.716" stroke="#5CB800" stroke-width="0.288412" stroke-miterlimit="22.9256"/>
<path d="M711.126 770.436V781.556" stroke="#5CB800" stroke-width="0.288412" stroke-miterlimit="22.9256"/>
<path d="M711.655 781.292C711.655 782.023 712.248 782.617 712.979 782.617" stroke="#5CB800" stroke-width="0.288412" stroke-miterlimit="22.9256"/>
<path d="M724.101 782.617C724.831 782.617 725.425 782.023 725.425 781.292" stroke="#5CB800" stroke-width="0.288412" stroke-miterlimit="22.9256"/>
<path d="M712.981 768.847C712.248 768.847 711.657 769.44 711.657 770.171" stroke="#5CB800" stroke-width="0.288412" stroke-miterlimit="22.9256"/>
<path d="M725.423 770.171C725.423 769.438 724.829 768.847 724.099 768.847" stroke="#5CB800" stroke-width="0.288412" stroke-miterlimit="22.9256"/>
<path d="M765.67 770.436V781.556" stroke="#5CB800" stroke-width="0.288412" stroke-miterlimit="22.9256"/>
<path d="M767.259 782.617H777.849" stroke="#5CB800" stroke-width="0.288412" stroke-miterlimit="22.9256"/>
<path d="M779.438 781.556V770.436" stroke="#5CB800" stroke-width="0.288412" stroke-miterlimit="22.9256"/>
<path d="M777.849 769.377H767.259" stroke="#5CB800" stroke-width="0.288412" stroke-miterlimit="22.9256"/>
<path d="M766.201 781.292C766.201 782.023 766.794 782.617 767.525 782.617" stroke="#5CB800" stroke-width="0.288412" stroke-miterlimit="22.9256"/>
<path d="M778.114 782.617C778.844 782.617 779.438 782.023 779.438 781.292" stroke="#5CB800" stroke-width="0.288412" stroke-miterlimit="22.9256"/>
<path d="M767.523 768.847C766.792 768.847 766.198 769.44 766.198 770.171" stroke="#5CB800" stroke-width="0.288412" stroke-miterlimit="22.9256"/>
<path d="M779.438 770.171C779.438 769.438 778.844 768.847 778.114 768.847" stroke="#5CB800" stroke-width="0.288412" stroke-miterlimit="22.9256"/>
<path d="M732.307 781.292C732.307 782.023 732.9 782.617 733.631 782.617" stroke="#5CB800" stroke-width="0.288412" stroke-miterlimit="22.9256"/>
<path d="M733.633 768.847C732.9 768.847 732.309 769.44 732.309 770.171" stroke="#5CB800" stroke-width="0.288412" stroke-miterlimit="22.9256"/>
<path d="M757.99 782.617C758.723 782.617 759.314 782.023 759.314 781.292" stroke="#5CB800" stroke-width="0.288412" stroke-miterlimit="22.9256"/>
<path d="M759.314 770.171C759.314 769.438 758.723 768.847 757.99 768.847" stroke="#5CB800" stroke-width="0.288412" stroke-miterlimit="22.9256"/>
<path d="M731.778 770.436V781.556" stroke="#5CB800" stroke-width="0.288412" stroke-miterlimit="22.9256"/>
<path d="M733.368 782.617H757.727" stroke="#5CB800" stroke-width="0.288412" stroke-miterlimit="22.9256"/>
<path d="M758.786 781.556V770.436" stroke="#5CB800" stroke-width="0.288412" stroke-miterlimit="22.9256"/>
<path d="M757.727 769.377H733.368" stroke="#5CB800" stroke-width="0.288412" stroke-miterlimit="22.9256"/>
<path d="M786.322 762.493H704.771V789.499H786.322V762.493Z" stroke="#5CB800" stroke-width="0.288412" stroke-miterlimit="22.9256"/>
<path d="M712.716 782.617H723.836" stroke="#5CB800" stroke-width="0.288412" stroke-miterlimit="22.9256"/>
<path d="M724.894 781.556V770.436" stroke="#5CB800" stroke-width="0.288412" stroke-miterlimit="22.9256"/>
<path d="M723.836 769.377H712.716" stroke="#5CB800" stroke-width="0.288412" stroke-miterlimit="22.9256"/>
<path d="M711.126 770.436V781.556" stroke="#5CB800" stroke-width="0.288412" stroke-miterlimit="22.9256"/>
<path d="M711.655 781.292C711.655 782.023 712.248 782.617 712.979 782.617" stroke="#5CB800" stroke-width="0.288412" stroke-miterlimit="22.9256"/>
<path d="M724.101 782.617C724.831 782.617 725.425 782.023 725.425 781.292" stroke="#5CB800" stroke-width="0.288412" stroke-miterlimit="22.9256"/>
<path d="M712.981 768.847C712.248 768.847 711.657 769.44 711.657 770.171" stroke="#5CB800" stroke-width="0.288412" stroke-miterlimit="22.9256"/>
<path d="M725.423 770.171C725.423 769.438 724.829 768.847 724.099 768.847" stroke="#5CB800" stroke-width="0.288412" stroke-miterlimit="22.9256"/>
<path d="M765.67 770.436V781.556" stroke="#5CB800" stroke-width="0.288412" stroke-miterlimit="22.9256"/>
<path d="M767.259 782.617H777.849" stroke="#5CB800" stroke-width="0.288412" stroke-miterlimit="22.9256"/>
<path d="M779.438 781.556V770.436" stroke="#5CB800" stroke-width="0.288412" stroke-miterlimit="22.9256"/>
<path d="M777.849 769.377H767.259" stroke="#5CB800" stroke-width="0.288412" stroke-miterlimit="22.9256"/>
<path d="M766.201 781.292C766.201 782.023 766.794 782.617 767.525 782.617" stroke="#5CB800" stroke-width="0.288412" stroke-miterlimit="22.9256"/>
<path d="M778.114 782.617C778.844 782.617 779.438 782.023 779.438 781.292" stroke="#5CB800" stroke-width="0.288412" stroke-miterlimit="22.9256"/>
<path d="M767.523 768.847C766.792 768.847 766.198 769.44 766.198 770.171" stroke="#5CB800" stroke-width="0.288412" stroke-miterlimit="22.9256"/>
<path d="M779.438 770.171C779.438 769.438 778.844 768.847 778.114 768.847" stroke="#5CB800" stroke-width="0.288412" stroke-miterlimit="22.9256"/>
<path d="M732.307 781.292C732.307 782.023 732.9 782.617 733.631 782.617" stroke="#5CB800" stroke-width="0.288412" stroke-miterlimit="22.9256"/>
<path d="M733.633 768.847C732.9 768.847 732.309 769.44 732.309 770.171" stroke="#5CB800" stroke-width="0.288412" stroke-miterlimit="22.9256"/>
<path d="M757.99 782.617C758.723 782.617 759.314 782.023 759.314 781.292" stroke="#5CB800" stroke-width="0.288412" stroke-miterlimit="22.9256"/>
<path d="M759.314 770.171C759.314 769.438 758.723 768.847 757.99 768.847" stroke="#5CB800" stroke-width="0.288412" stroke-miterlimit="22.9256"/>
<path d="M731.778 770.436V781.556" stroke="#5CB800" stroke-width="0.288412" stroke-miterlimit="22.9256"/>
<path d="M733.368 782.617H757.727" stroke="#5CB800" stroke-width="0.288412" stroke-miterlimit="22.9256"/>
<path d="M758.786 781.556V770.436" stroke="#5CB800" stroke-width="0.288412" stroke-miterlimit="22.9256"/>
<path d="M757.727 769.377H733.368" stroke="#5CB800" stroke-width="0.288412" stroke-miterlimit="22.9256"/>
<path d="M779.438 770.436L775.202 780.497L767.259 782.617" stroke="#5CB800" stroke-width="0.288412" stroke-miterlimit="22.9256"/>
<path d="M758.786 770.436L754.55 779.968L733.368 782.617" stroke="#5CB800" stroke-width="0.288412" stroke-miterlimit="22.9256"/>
<path d="M724.894 770.436L721.189 780.497L712.716 782.617" stroke="#5CB800" stroke-width="0.288412" stroke-miterlimit="22.9256"/>
<path d="M702.124 479.716H695.771V500.368H701.066L702.655 499.309L703.714 498.251L704.242 496.661V493.484L703.714 491.367L702.655 490.836L701.066 489.777H695.771" stroke="black" stroke-width="0.288412" stroke-miterlimit="22.9256"/>
<path d="M707.95 493.484H713.775" stroke="black" stroke-width="0.288412" stroke-miterlimit="22.9256"/>
<path d="M706.36 500.368L711.126 479.716L715.893 500.368" stroke="black" stroke-width="0.288412" stroke-miterlimit="22.9256"/>
<path d="M725.423 500.368V479.716H719.069V496.661L718.541 498.251L718.01 499.309L716.951 500.368" stroke="black" stroke-width="0.288412" stroke-miterlimit="22.9256"/>
<path d="M738.664 500.368L733.368 488.718" stroke="black" stroke-width="0.288412" stroke-miterlimit="22.9256"/>
<path d="M738.665 479.716L730.189 493.484" stroke="black" stroke-width="0.288412" stroke-miterlimit="22.9256"/>
<path d="M730.189 479.716V500.368" stroke="black" stroke-width="0.288412" stroke-miterlimit="22.9256"/>
<path d="M745.018 479.716H747.136L748.195 480.775L749.784 482.893L750.313 485.011L750.843 487.659V492.425L750.313 495.602L749.784 497.189L748.195 499.309L747.136 500.368H745.018L743.959 499.309L742.37 497.189L741.841 495.602L741.311 492.425V487.659L741.841 485.011L742.37 482.893L743.959 480.775L745.018 479.716Z" stroke="black" stroke-width="0.288412" stroke-miterlimit="22.9256"/>
<path d="M754.55 479.716V500.368" stroke="black" stroke-width="0.288412" stroke-miterlimit="22.9256"/>
<path d="M754.55 489.777H763.022" stroke="black" stroke-width="0.288412" stroke-miterlimit="22.9256"/>
<path d="M763.022 500.368V479.716" stroke="black" stroke-width="0.288412" stroke-miterlimit="22.9256"/>
<path d="M701.066 514.136H707.419L703.714 521.551H705.301L706.891 522.608L707.419 523.669L707.95 526.317V528.435L707.419 531.612L705.832 533.199L704.242 534.26H702.655L701.066 533.199L700.007 532.14L699.476 530.55" stroke="black" stroke-width="0.288412" stroke-miterlimit="22.9256"/>
<path d="M712.716 533.199L711.657 534.26L711.126 533.199L711.657 532.14L712.716 533.199ZM712.716 533.199V535.317L711.657 537.437L711.126 537.965" stroke="black" stroke-width="0.288412" stroke-miterlimit="22.9256"/>
<path d="M724.366 516.785L723.835 514.665L721.718 514.136H720.659L719.069 514.665L717.48 517.841L716.951 522.608V527.374L717.48 531.612L719.069 533.199L720.659 534.26H721.189L722.776 533.199L724.366 531.612L724.894 528.435V527.374L724.366 524.728L722.776 522.608L721.189 521.551H720.659L719.069 522.608L717.48 524.728L716.951 527.374" stroke="black" stroke-width="0.288412" stroke-miterlimit="22.9256"/>
<path d="M736.016 514.136H730.189L729.66 522.608L730.189 521.551L731.778 520.49H733.368L735.486 521.551L736.544 523.669L737.075 526.317V528.435L736.544 531.612L735.486 533.199L733.368 534.26H731.778L730.189 533.199L729.66 532.14L728.602 530.55" stroke="black" stroke-width="0.288412" stroke-miterlimit="22.9256"/>
<path d="M750.843 534.26V520.49L747.136 531.612L742.898 520.49V534.26" stroke="black" stroke-width="0.288412" stroke-miterlimit="22.9256"/>
<path d="M754.02 518.902V517.841L754.55 515.726L755.079 514.665L756.138 514.136H758.786L759.845 514.665L760.373 515.726L760.904 517.841V519.961L760.373 521.551L759.316 524.728L753.489 534.26H761.434" stroke="black" stroke-width="0.288412" stroke-miterlimit="22.9256"/>
<path d="M275.84 245.656H268.956V266.308" stroke="black" stroke-width="0.288412" stroke-miterlimit="22.9256"/>
<path d="M281.665 245.656H284.314L285.373 246.717L286.432 248.835L286.96 250.953L287.49 253.601V258.365L286.96 261.544L286.432 263.131L285.373 265.249L284.314 266.308H281.665L280.606 265.249L279.548 263.131L279.017 261.544L278.489 258.365V253.601L279.017 250.953L279.548 248.835L280.606 246.717L281.665 245.656Z" stroke="black" stroke-width="0.288412" stroke-miterlimit="22.9256"/>
<path d="M299.669 250.953L299.141 248.835L298.612 247.774L298.082 246.717L297.023 245.656H294.374L293.316 246.717L292.785 247.774L292.257 248.835L291.726 250.953L291.198 253.601V258.365L291.726 261.544L292.257 263.131L293.316 265.249L294.374 266.308H297.023L298.082 265.249L299.141 263.131L299.669 261.544" stroke="black" stroke-width="0.288412" stroke-miterlimit="22.9256"/>
<path d="M305.494 245.656V266.308" stroke="black" stroke-width="0.288412" stroke-miterlimit="22.9256"/>
<path d="M301.789 245.656H309.732" stroke="black" stroke-width="0.288412" stroke-miterlimit="22.9256"/>
<path d="M312.909 245.656V266.308L320.852 245.656V266.308" stroke="black" stroke-width="0.288412" stroke-miterlimit="22.9256"/>
<path d="M325.618 245.656V266.308" stroke="black" stroke-width="0.288412" stroke-miterlimit="22.9256"/>
<path d="M325.618 255.717H333.561" stroke="black" stroke-width="0.288412" stroke-miterlimit="22.9256"/>
<path d="M333.561 266.308V245.656" stroke="black" stroke-width="0.288412" stroke-miterlimit="22.9256"/>
<path d="M338.327 259.426H344.152" stroke="black" stroke-width="0.288412" stroke-miterlimit="22.9256"/>
<path d="M336.737 266.308L340.975 245.656L345.739 266.308" stroke="black" stroke-width="0.288412" stroke-miterlimit="22.9256"/>
<path d="M347.859 266.308L351.564 255.717" stroke="black" stroke-width="0.288412" stroke-miterlimit="22.9256"/>
<path d="M355.802 266.308V245.656H350.505L348.918 246.717L348.388 247.774L347.859 249.894V251.483L348.388 253.601L348.918 254.66L350.505 255.717H355.802" stroke="black" stroke-width="0.288412" stroke-miterlimit="22.9256"/>
<path d="M277.958 283.783L279.017 282.724L280.606 280.078V300.2" stroke="black" stroke-width="0.288412" stroke-miterlimit="22.9256"/>
<path d="M294.903 286.432L294.374 289.608L293.316 291.728L291.198 292.257H290.667L289.08 291.728L288.021 289.608L287.49 286.432V285.901L288.021 282.724L289.08 280.607L290.667 280.078H291.198L293.316 280.607L294.374 282.724L294.903 286.432ZM294.903 286.432V291.728L294.374 296.492L293.316 299.141L291.198 300.2H290.137L288.549 299.141L288.021 297.553" stroke="black" stroke-width="0.288412" stroke-miterlimit="22.9256"/>
<path d="M300.2 299.141L299.669 300.2L299.141 299.141L299.669 298.61L300.2 299.141ZM300.2 299.141V301.258L299.669 303.376L299.141 304.437" stroke="black" stroke-width="0.288412" stroke-miterlimit="22.9256"/>
<path d="M308.143 280.078L306.555 280.607L305.494 283.783L304.966 288.549V291.728L305.494 296.492L306.555 299.141L308.143 300.2H309.201L311.321 299.141L312.378 296.492L312.909 291.728V288.549L312.378 283.783L311.321 280.607L309.201 280.078H308.143Z" stroke="black" stroke-width="0.288412" stroke-miterlimit="22.9256"/>
<path d="M323.5 282.724L322.969 280.607L320.852 280.078H319.793L318.203 280.607L317.144 283.783L316.616 288.549V293.316L317.144 297.553L318.203 299.141L319.793 300.2H320.321L322.441 299.141L323.5 297.553L324.03 294.375V293.316L323.5 290.667L322.441 288.549L320.321 287.491H319.793L318.203 288.549L317.144 290.667L316.616 293.316" stroke="black" stroke-width="0.288412" stroke-miterlimit="22.9256"/>
<path d="M338.855 300.2V286.432L334.62 297.553L330.384 286.432V300.2" stroke="black" stroke-width="0.288412" stroke-miterlimit="22.9256"/>
<path d="M341.504 284.844V283.783L342.034 281.665L342.563 280.607L343.621 280.078H346.27L347.329 280.607L347.859 281.665L348.388 283.783V285.901L347.859 287.491L346.8 290.667L340.975 300.2H348.918" stroke="black" stroke-width="0.288412" stroke-miterlimit="22.9256"/>
<path d="M493.482 256.778L492.954 255.188L492.425 254.129L491.364 253.07L490.306 252.011H488.188L487.129 253.07L486.07 254.129L485.539 255.188L485.011 256.778L484.483 259.954V264.721L485.011 267.897L485.539 269.487L487.129 271.605L488.188 272.663H490.306L491.364 271.605L492.954 269.487L493.482 267.897" stroke="black" stroke-width="0.288412" stroke-miterlimit="22.9256"/>
<path d="M496.661 272.663V252.011H505.135V272.663" stroke="black" stroke-width="0.288412" stroke-miterlimit="22.9256"/>
<path d="M509.901 265.78H515.724" stroke="black" stroke-width="0.288412" stroke-miterlimit="22.9256"/>
<path d="M507.781 272.663L512.547 252.011L517.313 272.663" stroke="black" stroke-width="0.288412" stroke-miterlimit="22.9256"/>
<path d="M527.374 272.663V252.011H520.49V268.428L519.961 270.546L519.431 271.605L518.372 272.663" stroke="black" stroke-width="0.288412" stroke-miterlimit="22.9256"/>
<path d="M531.61 252.011V272.663H537.435L539.024 271.605L539.555 270.546L540.083 268.428V264.721L539.555 262.603L539.024 262.072L537.435 261.013H531.61" stroke="black" stroke-width="0.288412" stroke-miterlimit="22.9256"/>
<path d="M543.262 252.011V272.663" stroke="black" stroke-width="0.288412" stroke-miterlimit="22.9256"/>
<path d="M543.262 262.072H551.733" stroke="black" stroke-width="0.288412" stroke-miterlimit="22.9256"/>
<path d="M551.733 272.663V252.011" stroke="black" stroke-width="0.288412" stroke-miterlimit="22.9256"/>
<path d="M554.91 272.664L559.148 262.072" stroke="black" stroke-width="0.288412" stroke-miterlimit="22.9256"/>
<path d="M563.383 272.663V252.011H558.089L556.499 253.07L555.971 254.129L554.91 256.249V257.837L555.971 259.954L556.499 261.013L558.089 262.072H563.383" stroke="black" stroke-width="0.288412" stroke-miterlimit="22.9256"/>
<path d="M490.836 290.139L491.895 289.08L493.482 285.901V306.553" stroke="black" stroke-width="0.288412" stroke-miterlimit="22.9256"/>
<path d="M499.838 285.901H508.311L502.486 306.553" stroke="black" stroke-width="0.288412" stroke-miterlimit="22.9256"/>
<path d="M513.077 305.496L512.019 306.553L511.488 305.496L512.019 304.437L513.077 305.496ZM513.077 305.496V307.614L512.019 309.732L511.488 310.262" stroke="black" stroke-width="0.288412" stroke-miterlimit="22.9256"/>
<path d="M523.138 306.553V285.901L517.313 299.671H526.315" stroke="black" stroke-width="0.288412" stroke-miterlimit="22.9256"/>
<path d="M528.963 290.139L530.553 289.08L532.14 285.901V306.553" stroke="black" stroke-width="0.288412" stroke-miterlimit="22.9256"/>
<path d="M549.085 306.553V292.787L544.849 303.907L540.614 292.787V306.553" stroke="black" stroke-width="0.288412" stroke-miterlimit="22.9256"/>
<path d="M551.733 291.198V290.139L552.264 288.021L553.323 286.962L554.382 285.901H556.499L557.558 286.962L558.089 288.021L559.148 290.139V291.728L558.089 293.846L557.028 297.023L551.205 306.553H559.676" stroke="black" stroke-width="0.288412" stroke-miterlimit="22.9256"/>
<path d="M488.718 656.585L483.422 644.932" stroke="black" stroke-width="0.288412" stroke-miterlimit="22.9256"/>
<path d="M488.718 636.461L480.245 650.229" stroke="black" stroke-width="0.288412" stroke-miterlimit="22.9256"/>
<path d="M480.245 636.461V656.585" stroke="black" stroke-width="0.288412" stroke-miterlimit="22.9256"/>
<path d="M498.779 636.461L494.543 652.878L494.013 654.995L493.482 656.054L492.425 656.585H491.364" stroke="black" stroke-width="0.288412" stroke-miterlimit="22.9256"/>
<path d="M490.306 636.461L494.543 652.878" stroke="black" stroke-width="0.288412" stroke-miterlimit="22.9256"/>
<path d="M507.781 636.461L499.838 656.585" stroke="black" stroke-width="0.288412" stroke-miterlimit="22.9256"/>
<path d="M499.838 636.461L507.781 656.585" stroke="black" stroke-width="0.288412" stroke-miterlimit="22.9256"/>
<path d="M510.958 636.461V656.585" stroke="black" stroke-width="0.288412" stroke-miterlimit="22.9256"/>
<path d="M510.958 645.993H518.9" stroke="black" stroke-width="0.288412" stroke-miterlimit="22.9256"/>
<path d="M518.901 656.585V636.461" stroke="black" stroke-width="0.288412" stroke-miterlimit="22.9256"/>
<path d="M522.61 656.585L526.315 645.993" stroke="black" stroke-width="0.288412" stroke-miterlimit="22.9256"/>
<path d="M530.553 656.585V636.461H525.256L523.667 637.52L523.138 638.579L522.61 640.168V642.286L523.138 644.404L523.667 644.933L525.256 645.994H530.553" stroke="black" stroke-width="0.288412" stroke-miterlimit="22.9256"/>
<path d="M471.243 674.06L472.302 673.529L473.889 670.351V691.005" stroke="black" stroke-width="0.288412" stroke-miterlimit="22.9256"/>
<path d="M480.245 670.351H488.718L482.893 691.005" stroke="black" stroke-width="0.288412" stroke-miterlimit="22.9256"/>
<path d="M493.482 689.946L492.954 691.005L492.425 689.946L492.954 688.887L493.482 689.946ZM493.482 689.946V691.535L492.954 693.651L492.425 694.712" stroke="black" stroke-width="0.288412" stroke-miterlimit="22.9256"/>
<path d="M500.897 670.351L499.309 671.412L498.779 673.529V675.117L499.309 677.237L500.368 678.296L502.486 679.355L504.604 679.883L505.663 682.003L506.191 684.121V686.769L505.663 688.887L505.135 689.946L503.015 691.005H500.897L499.309 689.946L498.779 688.887L498.248 686.769V684.121L498.779 682.003L499.838 679.883L501.425 679.355L504.073 678.296L505.135 677.237L505.663 675.117V673.529L505.135 671.412L503.015 670.351H500.897Z" stroke="black" stroke-width="0.288412" stroke-miterlimit="22.9256"/>
<path d="M513.077 670.351L511.488 671.412L510.429 674.06L509.901 679.355V682.003L510.429 686.769L511.488 689.946L513.077 691.005H514.134L516.254 689.946L517.313 686.769L517.844 682.003V679.355L517.313 674.06L516.254 671.412L514.134 670.351H513.077Z" stroke="black" stroke-width="0.288412" stroke-miterlimit="22.9256"/>
<path d="M531.61 691.005V677.237L527.904 687.826L523.667 677.237V691.005" stroke="black" stroke-width="0.288412" stroke-miterlimit="22.9256"/>
<path d="M534.788 675.117V674.06L535.319 672.471L535.847 671.412L536.906 670.351H539.555L540.614 671.412L541.142 672.471L541.672 674.06V676.178L541.142 678.296L540.083 680.942L534.258 691.005H542.201" stroke="black" stroke-width="0.288412" stroke-miterlimit="22.9256"/>
<path d="M535.319 442.648L534.788 440.53L533.73 439.471L533.199 438.41L532.14 437.882H530.022L528.963 438.41L527.905 439.471L527.374 440.53L526.843 442.648L526.315 445.296V450.063L526.843 453.239L527.374 455.357L528.963 456.944L530.022 458.005H532.14L533.199 456.944L534.788 455.357L535.319 453.239" stroke="black" stroke-width="0.288412" stroke-miterlimit="22.9256"/>
<path d="M546.967 433.644L536.376 464.889" stroke="black" stroke-width="0.288412" stroke-miterlimit="22.9256"/>
<path d="M558.089 437.882L553.851 454.296L553.323 455.886L552.792 456.944L551.205 458.005H550.674" stroke="black" stroke-width="0.288412" stroke-miterlimit="22.9256"/>
<path d="M549.615 437.882L553.851 454.296" stroke="black" stroke-width="0.288412" stroke-miterlimit="22.9256"/>
<path d="M512.547 471.771H518.9L515.724 479.186H517.313L518.372 480.245L518.9 481.304L519.431 484.482V486.07L518.9 489.247L517.844 490.836L516.254 491.895H514.667L512.547 490.836L512.019 490.308L511.488 488.19" stroke="black" stroke-width="0.288412" stroke-miterlimit="22.9256"/>
<path d="M524.197 490.836L523.667 491.895L523.138 490.836L523.667 490.308L524.197 490.836ZM524.197 490.836V492.954L523.667 495.072L523.138 496.133" stroke="black" stroke-width="0.288412" stroke-miterlimit="22.9256"/>
<path d="M532.14 471.771L530.022 472.832L529.492 474.42V476.537L530.022 478.657L531.081 479.186L533.73 480.245L535.319 481.304L536.376 483.424L536.906 485.011V488.19L536.376 490.308L535.847 490.836L534.258 491.895H532.14L530.022 490.836L529.492 490.308L528.963 488.19V485.011L529.492 483.424L530.553 481.304L532.671 480.245L534.789 479.186L535.847 478.657L536.376 476.537V474.42L535.847 472.832L534.258 471.771H532.14Z" stroke="black" stroke-width="0.288412" stroke-miterlimit="22.9256"/>
<path d="M546.439 491.895V471.771L540.614 485.011H549.615" stroke="black" stroke-width="0.288412" stroke-miterlimit="22.9256"/>
<path d="M562.855 491.895V478.657L558.617 489.247L554.91 478.657V491.895" stroke="black" stroke-width="0.288412" stroke-miterlimit="22.9256"/>
<path d="M565.501 476.537V475.481L566.56 473.361L567.091 472.832L568.15 471.771H570.267L571.326 472.832L572.385 473.361L572.916 475.481V477.596L572.385 479.186L570.798 482.363L564.971 491.895H573.446" stroke="black" stroke-width="0.288412" stroke-miterlimit="22.9256"/>
<path d="M328.264 454.296L322.969 442.648" stroke="black" stroke-width="0.288412" stroke-miterlimit="22.9256"/>
<path d="M328.264 433.644L320.321 447.414" stroke="black" stroke-width="0.288412" stroke-miterlimit="22.9256"/>
<path d="M320.321 433.644V454.296" stroke="black" stroke-width="0.288412" stroke-miterlimit="22.9256"/>
<path d="M334.62 433.644H337.268L338.327 434.705L339.386 436.823L339.916 438.41L340.445 441.589V446.353L339.916 449.001L339.386 451.119L338.327 453.239L337.268 454.296H334.62L333.561 453.239L332.502 451.119L331.973 449.001L331.443 446.353V441.589L331.973 438.41L332.502 436.823L333.561 434.705L334.62 433.644Z" stroke="black" stroke-width="0.288412" stroke-miterlimit="22.9256"/>
<path d="M344.682 454.296V433.644H349.977L351.564 434.705L352.095 435.764L352.625 437.353V440.53L352.095 442.648L351.564 443.176L349.977 444.237H344.682" stroke="black" stroke-width="0.288412" stroke-miterlimit="22.9256"/>
<path d="M356.331 433.644V454.296L364.804 433.644V454.296" stroke="black" stroke-width="0.288412" stroke-miterlimit="22.9256"/>
<path d="M379.631 458.005V454.296H367.981V458.005" stroke="black" stroke-width="0.288412" stroke-miterlimit="22.9256"/>
<path d="M369.04 454.296L371.158 451.119L371.688 449.001L372.219 445.296V433.644H378.572V454.296" stroke="black" stroke-width="0.288412" stroke-miterlimit="22.9256"/>
<path d="M385.987 433.644H388.633L389.692 434.705L390.753 436.823L391.281 438.41L391.81 441.589V446.353L391.281 449.001L390.753 451.119L389.692 453.239L388.633 454.296H385.987L384.928 453.239L383.867 451.119L383.338 449.001L382.81 446.353V441.589L383.338 438.41L383.867 436.823L384.928 434.705L385.987 433.644Z" stroke="black" stroke-width="0.288412" stroke-miterlimit="22.9256"/>
<path d="M396.047 454.296V433.644H401.342L402.931 434.705L403.462 435.764L403.99 437.353V440.53L403.462 442.648L402.931 443.176L401.342 444.237H396.047" stroke="black" stroke-width="0.288412" stroke-miterlimit="22.9256"/>
<path d="M339.386 474.42L338.855 477.596L337.796 479.186L336.209 480.245H335.15L333.561 479.186L332.502 477.596L331.973 474.42V473.361L332.502 470.715L333.561 468.595L335.15 467.538H336.209L337.796 468.595L338.855 470.715L339.386 474.42ZM339.386 474.42V479.186L338.855 483.952L337.796 487.129L336.209 488.19H334.62L333.03 487.129L332.502 485.011" stroke="black" stroke-width="0.288412" stroke-miterlimit="22.9256"/>
<path d="M344.682 487.129L344.152 488.19L343.621 487.129L344.152 486.07L344.682 487.129ZM344.682 487.129V489.247L344.152 490.836L343.621 491.895" stroke="black" stroke-width="0.288412" stroke-miterlimit="22.9256"/>
<path d="M352.095 467.538L350.505 468.595L349.977 470.715V472.302L350.505 474.42L351.564 475.481L354.213 476.538L355.802 477.596L356.861 479.186L357.392 481.304V483.952L356.861 486.07L356.331 487.129L354.743 488.19H352.095L350.505 487.129L349.977 486.07L349.447 483.952V481.304L349.977 479.186L351.036 477.596L352.625 476.538L355.272 475.481L356.331 474.42L356.861 472.302V470.715L356.331 468.595L354.743 467.538H352.095Z" stroke="black" stroke-width="0.288412" stroke-miterlimit="22.9256"/>
<path d="M367.981 470.715L367.452 468.595L365.863 467.538H364.804L362.686 468.595L361.627 471.771L361.097 476.538V481.304L361.627 485.011L362.686 487.129L364.804 488.19H365.335L366.922 487.129L367.981 485.011L368.511 482.363V481.304L367.981 478.127L366.922 476.538L365.335 475.481H364.804L362.686 476.538L361.627 478.127L361.097 481.304" stroke="black" stroke-width="0.288412" stroke-miterlimit="22.9256"/>
<path d="M383.338 488.19V474.42L379.1 485.011L374.867 474.42V488.19" stroke="black" stroke-width="0.288412" stroke-miterlimit="22.9256"/>
<path d="M385.987 472.302V471.771L386.515 469.654L387.043 468.595L388.633 467.538H390.753L391.81 468.595L392.34 469.654L392.871 471.771V473.361L392.34 475.481L391.281 478.127L385.456 488.19H393.929" stroke="black" stroke-width="0.288412" stroke-miterlimit="22.9256"/>
<path d="M609.454 115.919H657.113V68.259H609.454V115.919Z" stroke="black" stroke-width="0.288412" stroke-miterlimit="22.9256"/>
<path d="M609.454 68.259V75.1451H615.807L609.454 68.259ZM609.454 75.1451H615.807L609.454 115.919V75.1451Z" fill="black"/>
<path d="M609.454 75.1451V68.259L615.807 75.1451M609.454 75.1451H615.807M609.454 75.1451V115.919L615.807 75.1451" stroke="black" stroke-width="0.288412" stroke-miterlimit="22.9256"/>
<path d="M609.454 68.259H657.113L615.809 75.143L609.454 68.259Z" fill="black"/>
<path d="M609.454 68.259H657.113L615.809 75.143L609.454 68.259Z" stroke="black" stroke-width="0.288412" stroke-miterlimit="22.9256"/>
<path d="M609.454 68.259H657.113L615.809 75.143L609.454 115.919V68.259ZM609.454 68.259H657.113V115.919H609.454V68.259Z" stroke="black" stroke-width="0.288412" stroke-miterlimit="22.9256"/>
</g>
<defs>
<clipPath id="clip0_9_1001">
<rect width="793.682" height="796.86" fill="white"/>
</clipPath>
</defs>
</svg>
