<svg width="923" height="798" viewBox="0 0 923 798" fill="none" xmlns="http://www.w3.org/2000/svg">
<g clip-path="url(#clip0_9_1840)">
<path d="M922.414 221.856H799.56V361.127H922.414V221.856Z" fill="#58BA48" stroke="#2B2A29" stroke-width="0.755018" stroke-miterlimit="22.9256"/>
<path d="M636.461 395.549H708.479H633.284H636.461Z" stroke="#58BA48" stroke-width="0.287443" stroke-miterlimit="22.9256"/>
<path d="M718.011 395.549H772.554" stroke="#58BA48" stroke-width="0.287443" stroke-miterlimit="22.9256"/>
<path d="M333.561 680.973H357.39V640.198H330.384V395.549H378.044V388.664H330.384V204.913H143.455V109.595L13.6439 110.3L13.7167 14.2764H55.0204V0.507812H122.803V14.2764H473.36V238.802H480.245V14.2764H908.647V208.09H806.444V204.913H765.669V211.796H541.143V238.802H636.461V300.231H643.344V238.802H765.669V245.687H772.554V640.198H765.669V680.973H789.498V783.174H568.678V395.549H571.855L571.784 389.369L459.593 388.664V395.549H561.795V783.174H333.561V680.973Z" fill="#58BA48" stroke="#2B2A29" stroke-width="0.952396" stroke-miterlimit="10" stroke-linecap="round"/>
<path d="M786.321 650.258V657.142" stroke="#FF0000" stroke-width="0.287443" stroke-miterlimit="22.9256"/>
<path d="M803.266 677.795V796.943H745.548" stroke="black" stroke-width="0.287443" stroke-miterlimit="22.9256"/>
<path d="M619.515 796.943H504.076" stroke="black" stroke-width="0.287443" stroke-miterlimit="22.9256"/>
<path d="M320.323 755.637H316.617" stroke="black" stroke-width="0.287443" stroke-miterlimit="22.9256"/>
<path d="M789.498 677.795V783.174H745.548" stroke="black" stroke-width="0.287443" stroke-miterlimit="22.9256"/>
<path d="M619.515 783.174H568.678" stroke="black" stroke-width="0.287443" stroke-miterlimit="22.9256"/>
<path d="M561.795 783.174H504.076" stroke="black" stroke-width="0.287443" stroke-miterlimit="22.9256"/>
<path d="M381.221 796.943H323.5" stroke="black" stroke-width="0.287443" stroke-miterlimit="22.9256"/>
<path d="M908.647 14.2764V221.857" stroke="black" stroke-width="0.287443" stroke-miterlimit="22.9256"/>
<path d="M799.56 208.09H908.647" stroke="#00BFFF" stroke-width="0.287443" stroke-miterlimit="22.9256"/>
<path d="M799.56 221.856H908.647" stroke="#00BFFF" stroke-width="0.287443" stroke-miterlimit="22.9256"/>
<path d="M908.647 221.856H922.416" stroke="black" stroke-width="0.287443" stroke-miterlimit="22.9256"/>
<path d="M799.56 214.973H908.647" stroke="#00BFFF" stroke-width="0.287443" stroke-miterlimit="22.9256"/>
<path d="M741.84 783.174V796.943" stroke="black" stroke-width="0.287443" stroke-miterlimit="22.9256"/>
<path d="M619.515 783.174V796.943" stroke="black" stroke-width="0.287443" stroke-miterlimit="22.9256"/>
<path d="M504.076 783.174V796.943" stroke="black" stroke-width="0.287443" stroke-miterlimit="22.9256"/>
<path d="M381.221 783.174V796.943" stroke="black" stroke-width="0.287443" stroke-miterlimit="22.9256"/>
<path d="M381.221 783.174H504.076" stroke="#00BFFF" stroke-width="0.287443" stroke-miterlimit="22.9256"/>
<path d="M504.076 790.059H381.221" stroke="#00BFFF" stroke-width="0.287443" stroke-miterlimit="22.9256"/>
<path d="M381.221 796.943H504.076" stroke="#00BFFF" stroke-width="0.287443" stroke-miterlimit="22.9256"/>
<path d="M619.515 783.174H741.84" stroke="#00BFFF" stroke-width="0.287443" stroke-miterlimit="22.9256"/>
<path d="M741.84 790.059H619.515" stroke="#00BFFF" stroke-width="0.287443" stroke-miterlimit="22.9256"/>
<path d="M619.515 796.943H741.84" stroke="#00BFFF" stroke-width="0.287443" stroke-miterlimit="22.9256"/>
<path d="M381.221 783.174H340.446" stroke="black" stroke-width="0.287443" stroke-miterlimit="22.9256"/>
<path d="M336.209 643.375V650.258" stroke="#FF0000" stroke-width="0.287443" stroke-miterlimit="22.9256"/>
<path d="M143.455 14.2764H320.323" stroke="black" stroke-width="0.287443" stroke-miterlimit="22.9256"/>
<path d="M326.677 14.2764H473.36" stroke="black" stroke-width="0.287443" stroke-miterlimit="22.9256"/>
<path d="M480.245 14.2764H908.647" stroke="black" stroke-width="0.287443" stroke-miterlimit="22.9256"/>
<path d="M143.455 0.507812H326.678" stroke="black" stroke-width="0.287443" stroke-miterlimit="22.9256"/>
<path d="M326.677 0.507812H480.245" stroke="black" stroke-width="0.287443" stroke-miterlimit="22.9256"/>
<path d="M480.245 0.507812H922.416" stroke="black" stroke-width="0.287443" stroke-miterlimit="22.9256"/>
<path d="M803.266 677.795V796.943H741.84" stroke="black" stroke-width="0.287443" stroke-miterlimit="22.9256"/>
<path d="M619.515 796.943H504.076" stroke="black" stroke-width="0.287443" stroke-miterlimit="22.9256"/>
<path d="M789.498 677.795V783.174H741.84" stroke="black" stroke-width="0.287443" stroke-miterlimit="22.9256"/>
<path d="M619.515 783.174H568.678" stroke="black" stroke-width="0.287443" stroke-miterlimit="22.9256"/>
<path d="M561.795 783.174H504.076" stroke="black" stroke-width="0.287443" stroke-miterlimit="22.9256"/>
<path d="M381.221 796.943H320.323V755.637" stroke="black" stroke-width="0.287443" stroke-miterlimit="22.9256"/>
<path d="M333.561 742.399V680.973" stroke="black" stroke-width="0.287443" stroke-miterlimit="22.9256"/>
<path d="M803.266 208.09H908.647" stroke="#00BFFF" stroke-width="0.287443" stroke-miterlimit="22.9256"/>
<path d="M803.266 221.856H908.647" stroke="#00BFFF" stroke-width="0.287443" stroke-miterlimit="22.9256"/>
<path d="M908.647 221.856H922.416" stroke="black" stroke-width="0.287443" stroke-miterlimit="22.9256"/>
<path d="M803.266 214.973H908.647" stroke="#00BFFF" stroke-width="0.287443" stroke-miterlimit="22.9256"/>
<path d="M129.687 218.15H316.617H194.291" stroke="black" stroke-width="0.287443" stroke-miterlimit="22.9256"/>
<path d="M330.384 395.549H378.044" stroke="black" stroke-width="0.287443" stroke-miterlimit="22.9256"/>
<path d="M459.593 395.549H561.795" stroke="black" stroke-width="0.287443" stroke-miterlimit="22.9256"/>
<path d="M143.455 204.913H316.617" stroke="black" stroke-width="0.287443" stroke-miterlimit="22.9256"/>
<path d="M330.384 388.664H378.044" stroke="black" stroke-width="0.287443" stroke-miterlimit="22.9256"/>
<path d="M459.593 388.664H568.678" stroke="black" stroke-width="0.287443" stroke-miterlimit="22.9256"/>
<path d="M330.384 245.688V374.897" stroke="black" stroke-width="0.287443" stroke-miterlimit="22.9256"/>
<path d="M330.384 381.781V640.198" stroke="black" stroke-width="0.287443" stroke-miterlimit="22.9256"/>
<path d="M316.617 245.688V374.897" stroke="black" stroke-width="0.287443" stroke-miterlimit="22.9256"/>
<path d="M316.617 381.781V640.198" stroke="black" stroke-width="0.287443" stroke-miterlimit="22.9256"/>
<path d="M316.617 680.973V755.637" stroke="black" stroke-width="0.287443" stroke-miterlimit="22.9256"/>
<path d="M143.455 14.2764H473.36H326.678" stroke="black" stroke-width="0.287443" stroke-miterlimit="22.9256"/>
<path d="M480.245 14.2764H908.647" stroke="black" stroke-width="0.287443" stroke-miterlimit="22.9256"/>
<path d="M378.044 395.549V388.664" stroke="black" stroke-width="0.287443" stroke-miterlimit="22.9256"/>
<path d="M459.593 395.549V388.664" stroke="black" stroke-width="0.287443" stroke-miterlimit="22.9256"/>
<path d="M480.245 14.2764V147.192" stroke="black" stroke-width="0.287443" stroke-miterlimit="22.9256"/>
<path d="M473.36 14.2764V133.424" stroke="black" stroke-width="0.287443" stroke-miterlimit="22.9256"/>
<path d="M473.36 140.309V147.192" stroke="black" stroke-width="0.287443" stroke-miterlimit="22.9256"/>
<path d="M741.84 783.174V796.943" stroke="black" stroke-width="0.287443" stroke-miterlimit="22.9256"/>
<path d="M619.515 783.174V796.943" stroke="black" stroke-width="0.287443" stroke-miterlimit="22.9256"/>
<path d="M504.076 783.174V796.943" stroke="black" stroke-width="0.287443" stroke-miterlimit="22.9256"/>
<path d="M381.221 783.174V796.943" stroke="black" stroke-width="0.287443" stroke-miterlimit="22.9256"/>
<path d="M381.221 783.174H504.076" stroke="#00BFFF" stroke-width="0.287443" stroke-miterlimit="22.9256"/>
<path d="M504.076 790.059H381.221" stroke="#00BFFF" stroke-width="0.287443" stroke-miterlimit="22.9256"/>
<path d="M381.221 796.943H504.076" stroke="#00BFFF" stroke-width="0.287443" stroke-miterlimit="22.9256"/>
<path d="M619.515 783.174H741.84" stroke="#00BFFF" stroke-width="0.287443" stroke-miterlimit="22.9256"/>
<path d="M741.84 790.059H619.515" stroke="#00BFFF" stroke-width="0.287443" stroke-miterlimit="22.9256"/>
<path d="M619.515 796.943H741.84" stroke="#00BFFF" stroke-width="0.287443" stroke-miterlimit="22.9256"/>
<path d="M561.795 595.186V597.834" stroke="#008AB8" stroke-width="0.287443" stroke-miterlimit="22.9256"/>
<path d="M731.779 211.796H726.484" stroke="#008AB8" stroke-width="0.287443" stroke-miterlimit="22.9256"/>
<path d="M705.831 211.796H709.539" stroke="#008AB8" stroke-width="0.287443" stroke-miterlimit="22.9256"/>
<path d="M731.779 238.802H726.484" stroke="#008AB8" stroke-width="0.287443" stroke-miterlimit="22.9256"/>
<path d="M731.779 783.174H726.484" stroke="#008AB8" stroke-width="0.287443" stroke-miterlimit="22.9256"/>
<path d="M381.221 783.174H333.561" stroke="black" stroke-width="0.287443" stroke-miterlimit="22.9256"/>
<path d="M480.245 114.889V58.2283" stroke="#008AB8" stroke-width="0.287443" stroke-miterlimit="22.9256"/>
<path d="M661.879 796.943H726.484" stroke="#008AB8" stroke-width="0.287443" stroke-miterlimit="22.9256"/>
<path d="M665.056 783.174H726.484" stroke="#008AB8" stroke-width="0.287443" stroke-miterlimit="22.9256"/>
<path d="M561.795 783.174V395.549" stroke="black" stroke-width="0.287443" stroke-miterlimit="22.9256"/>
<path d="M568.678 783.174V395.549" stroke="black" stroke-width="0.287443" stroke-miterlimit="22.9256"/>
<path d="M772.554 595.186V597.834" stroke="#008AB8" stroke-width="0.287443" stroke-miterlimit="22.9256"/>
<path d="M772.554 248.336L778.378 241.979" stroke="#FF0000" stroke-width="0.287443" stroke-miterlimit="22.9256"/>
<path d="M772.554 278.519L799.56 251.513" stroke="#FF0000" stroke-width="0.287443" stroke-miterlimit="22.9256"/>
<path d="M772.554 309.232L799.56 282.225" stroke="#FF0000" stroke-width="0.287443" stroke-miterlimit="22.9256"/>
<path d="M772.554 339.946L799.56 312.409" stroke="#FF0000" stroke-width="0.287443" stroke-miterlimit="22.9256"/>
<path d="M772.554 370.131L799.56 343.123" stroke="#FF0000" stroke-width="0.287443" stroke-miterlimit="22.9256"/>
<path d="M772.554 400.844L799.56 373.837" stroke="#FF0000" stroke-width="0.287443" stroke-miterlimit="22.9256"/>
<path d="M772.554 431.556L799.56 404.021" stroke="#FF0000" stroke-width="0.287443" stroke-miterlimit="22.9256"/>
<path d="M772.554 461.742L799.56 434.733" stroke="#FF0000" stroke-width="0.287443" stroke-miterlimit="22.9256"/>
<path d="M772.554 492.456L799.56 465.448" stroke="#FF0000" stroke-width="0.287443" stroke-miterlimit="22.9256"/>
<path d="M772.554 523.168L799.56 495.633" stroke="#FF0000" stroke-width="0.287443" stroke-miterlimit="22.9256"/>
<path d="M772.554 553.352L799.56 526.345" stroke="#FF0000" stroke-width="0.287443" stroke-miterlimit="22.9256"/>
<path d="M772.554 584.066L799.56 557.06" stroke="#FF0000" stroke-width="0.287443" stroke-miterlimit="22.9256"/>
<path d="M772.554 614.78L799.56 587.243" stroke="#FF0000" stroke-width="0.287443" stroke-miterlimit="22.9256"/>
<path d="M774.143 643.375L799.56 617.958" stroke="#FF0000" stroke-width="0.287443" stroke-miterlimit="22.9256"/>
<path d="M773.614 263.16C773.614 262.578 773.138 262.101 772.554 262.101C771.971 262.101 771.494 262.578 771.494 263.16C771.494 263.745 771.971 264.22 772.554 264.22C773.138 264.22 773.614 263.745 773.614 263.16Z" fill="#FF0000"/>
<path d="M772.554 263.16H773.614M773.614 263.16C773.614 262.578 773.138 262.101 772.554 262.101C771.971 262.101 771.494 262.578 771.494 263.16C771.494 263.745 771.971 264.22 772.554 264.22C773.138 264.22 773.614 263.745 773.614 263.16Z" stroke="black" stroke-width="0.287443" stroke-miterlimit="22.9256"/>
<path d="M777.32 259.454C777.32 258.872 776.845 258.395 776.26 258.395C775.678 258.395 775.2 258.872 775.2 259.454C775.2 260.039 775.678 260.514 776.26 260.514C776.845 260.514 777.32 260.039 777.32 259.454Z" fill="#FF0000"/>
<path d="M776.26 259.454H777.32M777.32 259.454C777.32 258.872 776.845 258.395 776.26 258.395C775.678 258.395 775.2 258.872 775.2 259.454C775.2 260.039 775.678 260.514 776.26 260.514C776.845 260.514 777.32 260.039 777.32 259.454Z" stroke="black" stroke-width="0.287443" stroke-miterlimit="22.9256"/>
<path d="M780.497 255.748L793.735 241.979" stroke="#FF0000" stroke-width="0.287443" stroke-miterlimit="22.9256"/>
<path d="M772.554 293.876L787.909 278.519" stroke="#FF0000" stroke-width="0.287443" stroke-miterlimit="22.9256"/>
<path d="M792.677 274.811C792.677 274.229 792.202 273.751 791.617 273.751C791.035 273.751 790.558 274.229 790.558 274.811C790.558 275.396 791.035 275.871 791.617 275.871C792.202 275.871 792.677 275.396 792.677 274.811Z" fill="#FF0000"/>
<path d="M791.617 274.811H792.677M792.677 274.811C792.677 274.229 792.202 273.751 791.617 273.751C791.035 273.751 790.558 274.229 790.558 274.811C790.558 275.396 791.035 275.871 791.617 275.871C792.202 275.871 792.677 275.396 792.677 274.811Z" stroke="black" stroke-width="0.287443" stroke-miterlimit="22.9256"/>
<path d="M795.852 271.105L799.56 266.87" stroke="#FF0000" stroke-width="0.287443" stroke-miterlimit="22.9256"/>
<path d="M772.554 324.589L776.26 320.352" stroke="#FF0000" stroke-width="0.287443" stroke-miterlimit="22.9256"/>
<path d="M781.557 316.644C781.557 316.061 781.081 315.584 780.497 315.584C779.914 315.584 779.437 316.061 779.437 316.644C779.437 317.228 779.914 317.704 780.497 317.704C781.081 317.704 781.557 317.228 781.557 316.644Z" fill="#FF0000"/>
<path d="M780.497 316.644H781.557M781.557 316.644C781.557 316.061 781.081 315.584 780.497 315.584C779.914 315.584 779.437 316.061 779.437 316.644C779.437 317.228 779.914 317.704 780.497 317.704C781.081 317.704 781.557 317.228 781.557 316.644Z" stroke="black" stroke-width="0.287443" stroke-miterlimit="22.9256"/>
<path d="M784.203 312.94L799.56 297.054" stroke="#FF0000" stroke-width="0.287443" stroke-miterlimit="22.9256"/>
<path d="M772.554 354.772L791.617 335.709" stroke="#FF0000" stroke-width="0.287443" stroke-miterlimit="22.9256"/>
<path d="M796.912 332.003C796.912 331.42 796.437 330.943 795.852 330.943C795.27 330.943 794.792 331.42 794.792 332.003C794.792 332.587 795.27 333.063 795.852 333.063C796.437 333.063 796.912 332.587 796.912 332.003Z" fill="#FF0000"/>
<path d="M795.852 332.003H796.912M796.912 332.003C796.912 331.42 796.437 330.943 795.852 330.943C795.27 330.943 794.792 331.42 794.792 332.003C794.792 332.587 795.27 333.063 795.852 333.063C796.437 333.063 796.912 332.587 796.912 332.003Z" stroke="black" stroke-width="0.287443" stroke-miterlimit="22.9256"/>
<path d="M799.56 328.295V327.766" stroke="#FF0000" stroke-width="0.287443" stroke-miterlimit="22.9256"/>
<path d="M772.554 385.486L780.497 378.074" stroke="#FF0000" stroke-width="0.287443" stroke-miterlimit="22.9256"/>
<path d="M785.263 373.836C785.263 373.253 784.788 372.776 784.203 372.776C783.621 372.776 783.143 373.253 783.143 373.836C783.143 374.42 783.621 374.895 784.203 374.895C784.788 374.895 785.263 374.42 785.263 373.836Z" fill="#FF0000"/>
<path d="M784.203 373.836H785.263M785.263 373.836C785.263 373.253 784.788 372.776 784.203 372.776C783.621 372.776 783.143 373.253 783.143 373.836C783.143 374.42 783.621 374.895 784.203 374.895C784.788 374.895 785.263 374.42 785.263 373.836Z" stroke="black" stroke-width="0.287443" stroke-miterlimit="22.9256"/>
<path d="M787.909 370.131L799.56 358.48" stroke="#FF0000" stroke-width="0.287443" stroke-miterlimit="22.9256"/>
<path d="M773.614 416.199C773.614 415.616 773.138 415.139 772.554 415.139C771.971 415.139 771.494 415.616 771.494 416.199C771.494 416.783 771.971 417.259 772.554 417.259C773.138 417.259 773.614 416.783 773.614 416.199Z" fill="#FF0000"/>
<path d="M772.554 416.199H773.614M773.614 416.199C773.614 415.616 773.138 415.139 772.554 415.139C771.971 415.139 771.494 415.616 771.494 416.199C771.494 416.783 771.971 417.259 772.554 417.259C773.138 417.259 773.614 416.783 773.614 416.199Z" stroke="black" stroke-width="0.287443" stroke-miterlimit="22.9256"/>
<path d="M776.26 411.964L795.852 392.901" stroke="#FF0000" stroke-width="0.287443" stroke-miterlimit="22.9256"/>
<path d="M800.62 389.193C800.62 388.61 800.145 388.133 799.56 388.133C798.978 388.133 798.5 388.61 798.5 389.193C798.5 389.777 798.978 390.252 799.56 390.252C800.145 390.252 800.62 389.777 800.62 389.193Z" fill="#FF0000"/>
<path d="M799.56 389.193H800.62M800.62 389.193C800.62 388.61 800.145 388.133 799.56 388.133C798.978 388.133 798.5 388.61 798.5 389.193C798.5 389.777 798.978 390.252 799.56 390.252C800.145 390.252 800.62 389.777 800.62 389.193Z" stroke="black" stroke-width="0.287443" stroke-miterlimit="22.9256"/>
<path d="M772.554 446.913L784.203 435.264" stroke="#FF0000" stroke-width="0.287443" stroke-miterlimit="22.9256"/>
<path d="M788.969 431.027C788.969 430.445 788.494 429.968 787.909 429.968C787.327 429.968 786.85 430.445 786.85 431.027C786.85 431.612 787.327 432.087 787.909 432.087C788.494 432.087 788.969 431.612 788.969 431.027Z" fill="#FF0000"/>
<path d="M787.909 431.027H788.969M788.969 431.027C788.969 430.445 788.494 429.968 787.909 429.968C787.327 429.968 786.85 430.445 786.85 431.027C786.85 431.612 787.327 432.087 787.909 432.087C788.494 432.087 788.969 431.612 788.969 431.027Z" stroke="black" stroke-width="0.287443" stroke-miterlimit="22.9256"/>
<path d="M791.617 427.321L799.56 419.378" stroke="#FF0000" stroke-width="0.287443" stroke-miterlimit="22.9256"/>
<path d="M773.614 477.097C773.614 476.514 773.138 476.037 772.554 476.037C771.971 476.037 771.494 476.514 771.494 477.097C771.494 477.681 771.971 478.157 772.554 478.157C773.138 478.157 773.614 477.681 773.614 477.097Z" fill="#FF0000"/>
<path d="M772.554 477.097H773.614M773.614 477.097C773.614 476.514 773.138 476.037 772.554 476.037C771.971 476.037 771.494 476.514 771.494 477.097C771.494 477.681 771.971 478.157 772.554 478.157C773.138 478.157 773.614 477.681 773.614 477.097Z" stroke="black" stroke-width="0.287443" stroke-miterlimit="22.9256"/>
<path d="M777.32 473.391C777.32 472.808 776.845 472.331 776.26 472.331C775.678 472.331 775.2 472.808 775.2 473.391C775.2 473.975 775.678 474.45 776.26 474.45C776.845 474.45 777.32 473.975 777.32 473.391Z" fill="#FF0000"/>
<path d="M776.26 473.391H777.32M777.32 473.391C777.32 472.808 776.845 472.331 776.26 472.331C775.678 472.331 775.2 472.808 775.2 473.391C775.2 473.975 775.678 474.45 776.26 474.45C776.845 474.45 777.32 473.975 777.32 473.391Z" stroke="black" stroke-width="0.287443" stroke-miterlimit="22.9256"/>
<path d="M780.497 469.685L799.56 450.619" stroke="#FF0000" stroke-width="0.287443" stroke-miterlimit="22.9256"/>
<path d="M772.554 507.811L787.909 492.456" stroke="#FF0000" stroke-width="0.287443" stroke-miterlimit="22.9256"/>
<path d="M792.677 488.746C792.677 488.163 792.202 487.686 791.617 487.686C791.035 487.686 790.558 488.163 790.558 488.746C790.558 489.33 791.035 489.805 791.617 489.805C792.202 489.805 792.677 489.33 792.677 488.746Z" fill="#FF0000"/>
<path d="M791.617 488.746H792.677M792.677 488.746C792.677 488.163 792.202 487.686 791.617 487.686C791.035 487.686 790.558 488.163 790.558 488.746C790.558 489.33 791.035 489.805 791.617 489.805C792.202 489.805 792.677 489.33 792.677 488.746Z" stroke="black" stroke-width="0.287443" stroke-miterlimit="22.9256"/>
<path d="M795.852 484.513L799.56 480.805" stroke="#FF0000" stroke-width="0.287443" stroke-miterlimit="22.9256"/>
<path d="M772.554 538.525L776.26 534.288" stroke="#FF0000" stroke-width="0.287443" stroke-miterlimit="22.9256"/>
<path d="M781.557 530.58C781.557 529.998 781.081 529.521 780.497 529.521C779.914 529.521 779.437 529.998 779.437 530.58C779.437 531.165 779.914 531.64 780.497 531.64C781.081 531.64 781.557 531.165 781.557 530.58Z" fill="#FF0000"/>
<path d="M780.497 530.58H781.557M781.557 530.58C781.557 529.998 781.081 529.521 780.497 529.521C779.914 529.521 779.437 529.998 779.437 530.58C779.437 531.165 779.914 531.64 780.497 531.64C781.081 531.64 781.557 531.165 781.557 530.58Z" stroke="black" stroke-width="0.287443" stroke-miterlimit="22.9256"/>
<path d="M784.203 526.874L799.56 510.988" stroke="#FF0000" stroke-width="0.287443" stroke-miterlimit="22.9256"/>
<path d="M772.554 568.709L791.617 549.646" stroke="#FF0000" stroke-width="0.287443" stroke-miterlimit="22.9256"/>
<path d="M796.912 545.937C796.912 545.355 796.437 544.878 795.852 544.878C795.27 544.878 794.792 545.355 794.792 545.937C794.792 546.522 795.27 546.997 795.852 546.997C796.437 546.997 796.912 546.522 796.912 545.937Z" fill="#FF0000"/>
<path d="M795.852 545.937H796.912M796.912 545.937C796.912 545.355 796.437 544.878 795.852 544.878C795.27 544.878 794.792 545.355 794.792 545.937C794.792 546.522 795.27 546.997 795.852 546.997C796.437 546.997 796.912 546.522 796.912 545.937Z" stroke="black" stroke-width="0.287443" stroke-miterlimit="22.9256"/>
<path d="M799.56 542.232V541.703" stroke="#FF0000" stroke-width="0.287443" stroke-miterlimit="22.9256"/>
<path d="M772.554 599.423L780.497 591.48" stroke="#FF0000" stroke-width="0.287443" stroke-miterlimit="22.9256"/>
<path d="M785.263 587.772C785.263 587.19 784.788 586.712 784.203 586.712C783.621 586.712 783.143 587.19 783.143 587.772C783.143 588.357 783.621 588.832 784.203 588.832C784.788 588.832 785.263 588.357 785.263 587.772Z" fill="#FF0000"/>
<path d="M784.203 587.772H785.263M785.263 587.772C785.263 587.19 784.788 586.712 784.203 586.712C783.621 586.712 783.143 587.19 783.143 587.772C783.143 588.357 783.621 588.832 784.203 588.832C784.788 588.832 785.263 588.357 785.263 587.772Z" stroke="black" stroke-width="0.287443" stroke-miterlimit="22.9256"/>
<path d="M787.909 584.066L799.56 572.415" stroke="#FF0000" stroke-width="0.287443" stroke-miterlimit="22.9256"/>
<path d="M773.614 629.605C773.614 629.022 773.138 628.545 772.554 628.545C771.971 628.545 771.494 629.022 771.494 629.605C771.494 630.189 771.971 630.664 772.554 630.664C773.138 630.664 773.614 630.189 773.614 629.605Z" fill="#FF0000"/>
<path d="M772.554 629.605H773.614M773.614 629.605C773.614 629.022 773.138 628.545 772.554 628.545C771.971 628.545 771.494 629.022 771.494 629.605C771.494 630.189 771.971 630.664 772.554 630.664C773.138 630.664 773.614 630.189 773.614 629.605Z" stroke="black" stroke-width="0.287443" stroke-miterlimit="22.9256"/>
<path d="M776.26 625.9L795.852 606.837" stroke="#FF0000" stroke-width="0.287443" stroke-miterlimit="22.9256"/>
<path d="M800.62 603.127C800.62 602.545 800.145 602.068 799.56 602.068C798.978 602.068 798.5 602.545 798.5 603.127C798.5 603.712 798.978 604.187 799.56 604.187C800.145 604.187 800.62 603.712 800.62 603.127Z" fill="#FF0000"/>
<path d="M799.56 603.127H800.62M800.62 603.127C800.62 602.545 800.145 602.068 799.56 602.068C798.978 602.068 798.5 602.545 798.5 603.127C798.5 603.712 798.978 604.187 799.56 604.187C800.145 604.187 800.62 603.712 800.62 603.127Z" stroke="black" stroke-width="0.287443" stroke-miterlimit="22.9256"/>
<path d="M791.617 641.256L799.56 633.312" stroke="#FF0000" stroke-width="0.287443" stroke-miterlimit="22.9256"/>
<path d="M772.554 241.979H799.56V643.375H772.554V241.979Z" stroke="#FF0000" stroke-width="0.287443" stroke-miterlimit="22.9256"/>
<path d="M546.968 238.802L541.143 232.977" stroke="#FF0000" stroke-width="0.287443" stroke-miterlimit="22.9256"/>
<path d="M577.681 238.802L550.674 211.796" stroke="#FF0000" stroke-width="0.287443" stroke-miterlimit="22.9256"/>
<path d="M608.395 238.802L580.858 211.796" stroke="#FF0000" stroke-width="0.287443" stroke-miterlimit="22.9256"/>
<path d="M638.579 238.802L611.572 211.796" stroke="#FF0000" stroke-width="0.287443" stroke-miterlimit="22.9256"/>
<path d="M669.293 238.802L642.287 211.796" stroke="#FF0000" stroke-width="0.287443" stroke-miterlimit="22.9256"/>
<path d="M700.005 238.802L672.47 211.796" stroke="#FF0000" stroke-width="0.287443" stroke-miterlimit="22.9256"/>
<path d="M730.191 238.802L703.184 211.796" stroke="#FF0000" stroke-width="0.287443" stroke-miterlimit="22.9256"/>
<path d="M760.903 238.802L733.897 211.796" stroke="#FF0000" stroke-width="0.287443" stroke-miterlimit="22.9256"/>
<path d="M769.377 216.562L764.08 211.796" stroke="#FF0000" stroke-width="0.287443" stroke-miterlimit="22.9256"/>
<path d="M563.383 238.802C563.383 238.22 562.908 237.743 562.324 237.743C561.741 237.743 561.264 238.22 561.264 238.802C561.264 239.387 561.741 239.862 562.324 239.862C562.908 239.862 563.383 239.387 563.383 238.802Z" fill="#FF0000"/>
<path d="M562.324 238.802H563.383M563.383 238.802C563.383 238.22 562.908 237.743 562.324 237.743C561.741 237.743 561.264 238.22 561.264 238.802C561.264 239.387 561.741 239.862 562.324 239.862C562.908 239.862 563.383 239.387 563.383 238.802Z" stroke="black" stroke-width="0.287443" stroke-miterlimit="22.9256"/>
<path d="M559.677 235.096C559.677 234.514 559.202 234.036 558.618 234.036C558.035 234.036 557.558 234.514 557.558 235.096C557.558 235.681 558.035 236.156 558.618 236.156C559.202 236.156 559.677 235.681 559.677 235.096Z" fill="#FF0000"/>
<path d="M558.618 235.096H559.677M559.677 235.096C559.677 234.514 559.202 234.036 558.618 234.036C558.035 234.036 557.558 234.514 557.558 235.096C557.558 235.681 558.035 236.156 558.618 236.156C559.202 236.156 559.677 235.681 559.677 235.096Z" stroke="black" stroke-width="0.287443" stroke-miterlimit="22.9256"/>
<path d="M554.381 230.859L541.143 217.622" stroke="#FF0000" stroke-width="0.287443" stroke-miterlimit="22.9256"/>
<path d="M593.038 238.802L577.681 223.445" stroke="#FF0000" stroke-width="0.287443" stroke-miterlimit="22.9256"/>
<path d="M575.034 219.739C575.034 219.156 574.559 218.679 573.975 218.679C573.392 218.679 572.915 219.156 572.915 219.739C572.915 220.323 573.392 220.799 573.975 220.799C574.559 220.799 575.034 220.323 575.034 219.739Z" fill="#FF0000"/>
<path d="M573.975 219.739H575.034M575.034 219.739C575.034 219.156 574.559 218.679 573.975 218.679C573.392 218.679 572.915 219.156 572.915 219.739C572.915 220.323 573.392 220.799 573.975 220.799C574.559 220.799 575.034 220.323 575.034 219.739Z" stroke="black" stroke-width="0.287443" stroke-miterlimit="22.9256"/>
<path d="M569.738 216.033L565.501 211.796" stroke="#FF0000" stroke-width="0.287443" stroke-miterlimit="22.9256"/>
<path d="M623.223 238.802L619.515 235.096" stroke="#FF0000" stroke-width="0.287443" stroke-miterlimit="22.9256"/>
<path d="M616.869 230.859C616.869 230.277 616.394 229.8 615.809 229.8C615.227 229.8 614.75 230.277 614.75 230.859C614.75 231.444 615.227 231.919 615.809 231.919C616.394 231.919 616.869 231.444 616.869 230.859Z" fill="#FF0000"/>
<path d="M615.809 230.859H616.869M616.869 230.859C616.869 230.277 616.394 229.8 615.809 229.8C615.227 229.8 614.75 230.277 614.75 230.859C614.75 231.444 615.227 231.919 615.809 231.919C616.394 231.919 616.869 231.444 616.869 230.859Z" stroke="black" stroke-width="0.287443" stroke-miterlimit="22.9256"/>
<path d="M612.101 227.153L596.215 211.796" stroke="#FF0000" stroke-width="0.287443" stroke-miterlimit="22.9256"/>
<path d="M653.936 238.802L634.872 219.739" stroke="#FF0000" stroke-width="0.287443" stroke-miterlimit="22.9256"/>
<path d="M632.226 216.031C632.226 215.448 631.751 214.971 631.166 214.971C630.584 214.971 630.107 215.448 630.107 216.031C630.107 216.615 630.584 217.091 631.166 217.091C631.751 217.091 632.226 216.615 632.226 216.031Z" fill="#FF0000"/>
<path d="M631.166 216.031H632.226M632.226 216.031C632.226 215.448 631.751 214.971 631.166 214.971C630.584 214.971 630.107 215.448 630.107 216.031C630.107 216.615 630.584 217.091 631.166 217.091C631.751 217.091 632.226 216.615 632.226 216.031Z" stroke="black" stroke-width="0.287443" stroke-miterlimit="22.9256"/>
<path d="M627.989 211.794C627.989 211.212 627.514 210.734 626.929 210.734C626.347 210.734 625.87 211.212 625.87 211.794C625.87 212.379 626.347 212.854 626.929 212.854C627.514 212.854 627.989 212.379 627.989 211.794Z" fill="#FF0000"/>
<path d="M626.929 211.794H627.989M627.989 211.794C627.989 211.212 627.514 210.734 626.929 210.734C626.347 210.734 625.87 211.212 625.87 211.794C625.87 212.379 626.347 212.854 626.929 212.854C627.514 212.854 627.989 212.379 627.989 211.794Z" stroke="black" stroke-width="0.287443" stroke-miterlimit="22.9256"/>
<path d="M684.648 238.802L676.705 230.859" stroke="#FF0000" stroke-width="0.287443" stroke-miterlimit="22.9256"/>
<path d="M674.059 227.153C674.059 226.571 673.583 226.094 672.999 226.094C672.416 226.094 671.939 226.571 671.939 227.153C671.939 227.738 672.416 228.213 672.999 228.213C673.583 228.213 674.059 227.738 674.059 227.153Z" fill="#FF0000"/>
<path d="M672.999 227.153H674.059M674.059 227.153C674.059 226.571 673.583 226.094 672.999 226.094C672.416 226.094 671.939 226.571 671.939 227.153C671.939 227.738 672.416 228.213 672.999 228.213C673.583 228.213 674.059 227.738 674.059 227.153Z" stroke="black" stroke-width="0.287443" stroke-miterlimit="22.9256"/>
<path d="M669.293 223.445L657.113 211.796" stroke="#FF0000" stroke-width="0.287443" stroke-miterlimit="22.9256"/>
<path d="M715.893 238.802C715.893 238.22 715.418 237.743 714.833 237.743C714.251 237.743 713.774 238.22 713.774 238.802C713.774 239.387 714.251 239.862 714.833 239.862C715.418 239.862 715.893 239.387 715.893 238.802Z" fill="#FF0000"/>
<path d="M714.833 238.802H715.893M715.893 238.802C715.893 238.22 715.418 237.743 714.833 237.743C714.251 237.743 713.774 238.22 713.774 238.802C713.774 239.387 714.251 239.862 714.833 239.862C715.418 239.862 715.893 239.387 715.893 238.802Z" stroke="black" stroke-width="0.287443" stroke-miterlimit="22.9256"/>
<path d="M711.127 235.096L692.062 216.033" stroke="#FF0000" stroke-width="0.287443" stroke-miterlimit="22.9256"/>
<path d="M689.416 211.794C689.416 211.212 688.941 210.734 688.356 210.734C687.774 210.734 687.296 211.212 687.296 211.794C687.296 212.379 687.774 212.854 688.356 212.854C688.941 212.854 689.416 212.379 689.416 211.794Z" fill="#FF0000"/>
<path d="M688.356 211.794H689.416M689.416 211.794C689.416 211.212 688.941 210.734 688.356 210.734C687.774 210.734 687.296 211.212 687.296 211.794C687.296 212.379 687.774 212.854 688.356 212.854C688.941 212.854 689.416 212.379 689.416 211.794Z" stroke="black" stroke-width="0.287443" stroke-miterlimit="22.9256"/>
<path d="M745.548 238.802L733.897 227.153" stroke="#FF0000" stroke-width="0.287443" stroke-miterlimit="22.9256"/>
<path d="M731.25 223.445C731.25 222.863 730.775 222.385 730.191 222.385C729.608 222.385 729.131 222.863 729.131 223.445C729.131 224.03 729.608 224.505 730.191 224.505C730.775 224.505 731.25 224.03 731.25 223.445Z" fill="#FF0000"/>
<path d="M730.191 223.445H731.25M731.25 223.445C731.25 222.863 730.775 222.385 730.191 222.385C729.608 222.385 729.131 222.863 729.131 223.445C729.131 224.03 729.608 224.505 730.191 224.505C730.775 224.505 731.25 224.03 731.25 223.445Z" stroke="black" stroke-width="0.287443" stroke-miterlimit="22.9256"/>
<path d="M726.485 219.739L718.54 211.796" stroke="#FF0000" stroke-width="0.287443" stroke-miterlimit="22.9256"/>
<path d="M768.317 230.859L749.254 211.796" stroke="#FF0000" stroke-width="0.287443" stroke-miterlimit="22.9256"/>
<path d="M541.143 238.802V211.796H769.377V238.802H541.143Z" stroke="#FF0000" stroke-width="0.287443" stroke-miterlimit="22.9256"/>
<path d="M129.687 123.363V218.15" stroke="black" stroke-width="0.287443" stroke-miterlimit="22.9256"/>
<path d="M143.455 109.594V204.913" stroke="black" stroke-width="0.287443" stroke-miterlimit="22.9256"/>
<path d="M473.36 14.2764H326.677H473.36Z" stroke="black" stroke-width="0.287443" stroke-miterlimit="22.9256"/>
<path d="M480.245 136.601V14.2764" stroke="black" stroke-width="0.287443" stroke-miterlimit="22.9256"/>
<path d="M473.36 147.192V14.2764" stroke="black" stroke-width="0.287443" stroke-miterlimit="22.9256"/>
<path d="M473.36 238.802V140.309" stroke="black" stroke-width="0.287443" stroke-miterlimit="22.9256"/>
<path d="M480.245 238.802V14.2764" stroke="black" stroke-width="0.287443" stroke-miterlimit="22.9256"/>
<path d="M333.561 742.399V783.174" stroke="black" stroke-width="0.287443" stroke-miterlimit="22.9256"/>
<path d="M568.678 395.549H571.855" stroke="black" stroke-width="0.287443" stroke-miterlimit="22.9256"/>
<path d="M633.284 395.549H772.554" stroke="black" stroke-width="0.287443" stroke-miterlimit="22.9256"/>
<path d="M568.678 388.664H571.855" stroke="black" stroke-width="0.287443" stroke-miterlimit="22.9256"/>
<path d="M633.284 388.664H636.461" stroke="black" stroke-width="0.287443" stroke-miterlimit="22.9256"/>
<path d="M643.344 388.664H772.554" stroke="black" stroke-width="0.287443" stroke-miterlimit="22.9256"/>
<path d="M571.855 395.549V388.664" stroke="black" stroke-width="0.287443" stroke-miterlimit="22.9256"/>
<path d="M633.284 395.549V388.664" stroke="black" stroke-width="0.287443" stroke-miterlimit="22.9256"/>
<path d="M636.461 388.664V347.889" stroke="black" stroke-width="0.287443" stroke-miterlimit="22.9256"/>
<path d="M636.461 300.231V238.802" stroke="black" stroke-width="0.287443" stroke-miterlimit="22.9256"/>
<path d="M643.344 388.664V347.889" stroke="black" stroke-width="0.287443" stroke-miterlimit="22.9256"/>
<path d="M636.461 300.231H643.344V238.802" stroke="black" stroke-width="0.287443" stroke-miterlimit="22.9256"/>
<path d="M480.245 238.802H473.36V231.919V204.913" stroke="black" stroke-width="0.287443" stroke-miterlimit="22.9256"/>
<path d="M480.245 204.913V231.919" stroke="black" stroke-width="0.287443" stroke-miterlimit="22.9256"/>
<path d="M636.461 347.889H643.344" stroke="black" stroke-width="0.287443" stroke-miterlimit="22.9256"/>
<path d="M13.7167 109.595V14.2764" stroke="black" stroke-width="0.287443" stroke-miterlimit="22.9256"/>
<path d="M0.479004 123.363V0.507812" stroke="black" stroke-width="0.287443" stroke-miterlimit="22.9256"/>
<path d="M143.455 14.2764H129.687" stroke="black" stroke-width="0.287443" stroke-miterlimit="22.9256"/>
<path d="M0.479004 123.363H129.687" stroke="black" stroke-width="0.287443" stroke-miterlimit="22.9256"/>
<path d="M718.011 388.664V374.897" stroke="#008AB8" stroke-width="0.287443" stroke-miterlimit="22.9256"/>
<path d="M718.011 388.664V395.549" stroke="#008AB8" stroke-width="0.287443" stroke-miterlimit="22.9256"/>
<path d="M704.773 388.664H709.539" stroke="#008AB8" stroke-width="0.287443" stroke-miterlimit="22.9256"/>
<path d="M13.7167 109.594H143.455" stroke="black" stroke-width="0.287443" stroke-miterlimit="22.9256"/>
<path d="M922.416 221.856V361.129H799.56" stroke="#003FFF" stroke-width="0.287443" stroke-miterlimit="22.9256"/>
<path d="M831.334 258.927H824.98V279.048H830.275L831.863 278.519L832.923 277.46L833.452 275.342V272.694L832.923 270.576L831.863 269.517L830.275 268.459H824.98" stroke="black" stroke-width="0.287443" stroke-miterlimit="22.9256"/>
<path d="M837.158 272.694H842.983" stroke="black" stroke-width="0.287443" stroke-miterlimit="22.9256"/>
<path d="M835.569 279.048L840.335 258.927L845.101 279.048" stroke="black" stroke-width="0.287443" stroke-miterlimit="22.9256"/>
<path d="M854.633 279.048V258.927H848.278V275.342L847.749 277.46L847.22 278.519L846.161 279.048" stroke="black" stroke-width="0.287443" stroke-miterlimit="22.9256"/>
<path d="M867.872 279.048L862.576 267.399" stroke="black" stroke-width="0.287443" stroke-miterlimit="22.9256"/>
<path d="M867.872 258.927L859.398 272.694" stroke="black" stroke-width="0.287443" stroke-miterlimit="22.9256"/>
<path d="M859.398 258.927V279.048" stroke="black" stroke-width="0.287443" stroke-miterlimit="22.9256"/>
<path d="M874.227 258.927H876.344L877.404 259.985L878.992 261.574L879.521 263.693L880.05 266.87V271.636L879.521 274.282L878.992 276.402L877.404 278.519L876.344 279.048H874.227L873.167 278.519L871.578 276.402L871.049 274.282L870.519 271.636V266.87L871.049 263.693L871.578 261.574L873.167 259.985L874.227 258.927Z" stroke="black" stroke-width="0.287443" stroke-miterlimit="22.9256"/>
<path d="M883.758 258.927V279.048" stroke="black" stroke-width="0.287443" stroke-miterlimit="22.9256"/>
<path d="M883.758 268.459H892.23" stroke="black" stroke-width="0.287443" stroke-miterlimit="22.9256"/>
<path d="M892.23 279.048V258.927" stroke="black" stroke-width="0.287443" stroke-miterlimit="22.9256"/>
<path d="M830.275 292.817H836.629L832.923 300.76H834.511L836.1 301.819L836.629 302.877L837.158 305.525V307.643L836.629 310.291L835.04 312.409L833.452 313.469H831.863L830.275 312.409L829.215 311.351L828.686 309.232" stroke="black" stroke-width="0.287443" stroke-miterlimit="22.9256"/>
<path d="M841.924 312.409L840.866 313.469L840.335 312.409L840.866 311.351L841.924 312.409ZM841.924 312.409V314.528L840.866 316.117L840.335 317.175" stroke="black" stroke-width="0.287443" stroke-miterlimit="22.9256"/>
<path d="M853.575 295.994L853.044 293.876L850.926 292.817H849.867L848.278 293.876L846.69 297.054L846.161 301.819V306.585L846.69 310.291L848.278 312.409L849.867 313.469H850.398L851.986 312.409L853.575 310.291L854.104 307.643V306.585L853.575 303.408L851.986 301.819L850.398 300.76H849.867L848.278 301.819L846.69 303.408L846.161 306.585" stroke="black" stroke-width="0.287443" stroke-miterlimit="22.9256"/>
<path d="M865.224 292.817H859.398L858.869 301.819L859.398 300.76L860.987 299.7H862.576L864.695 300.76L865.753 302.877L866.284 305.525V307.643L865.753 310.291L864.695 312.409L862.576 313.469H860.987L859.398 312.409L858.869 311.351L857.81 309.232" stroke="black" stroke-width="0.287443" stroke-miterlimit="22.9256"/>
<path d="M880.05 313.469V299.7L876.344 310.291L872.107 299.7V313.469" stroke="black" stroke-width="0.287443" stroke-miterlimit="22.9256"/>
<path d="M883.227 297.582V297.054L883.758 294.934L884.287 293.876L885.347 292.817H887.993L889.053 293.876L889.582 294.934L890.113 297.054V298.642L889.582 300.76L888.524 303.408L882.698 313.469H890.642" stroke="black" stroke-width="0.287443" stroke-miterlimit="22.9256"/>
<path d="M0.479004 0.507812H55.0204V14.2764H13.7167" stroke="black" stroke-width="0.287443" stroke-miterlimit="22.9256"/>
<path d="M143.455 0.507812H122.803V14.2764H129.687" stroke="black" stroke-width="0.287443" stroke-miterlimit="22.9256"/>
<path d="M55.0204 0.507812H122.803" stroke="black" stroke-width="0.287443" stroke-miterlimit="22.9256"/>
<path d="M316.617 680.973H357.39" stroke="black" stroke-width="0.287443" stroke-miterlimit="22.9256"/>
<path d="M357.39 640.198H316.615L357.39 680.973V640.198ZM316.615 640.198L357.39 680.973H316.615V640.198Z" fill="#0000FF"/>
<path d="M316.615 640.198H357.39V680.973M316.615 640.198L357.39 680.973M316.615 640.198V680.973H357.39" stroke="#0000FF" stroke-width="0.287443" stroke-miterlimit="22.9256"/>
<path d="M357.39 640.198H316.617V680.973H357.39V640.198Z" stroke="black" stroke-width="0.287443" stroke-miterlimit="22.9256"/>
<path d="M316.617 680.973L357.39 640.198" stroke="black" stroke-width="0.287443" stroke-miterlimit="22.9256"/>
<path d="M357.39 680.973L316.617 640.198" stroke="black" stroke-width="0.287443" stroke-miterlimit="22.9256"/>
<path d="M765.669 680.973H806.444" stroke="black" stroke-width="0.287443" stroke-miterlimit="22.9256"/>
<path d="M806.444 640.198H765.669L806.444 680.973V640.198ZM765.669 640.198L806.444 680.973H765.669V640.198Z" fill="#0000FF"/>
<path d="M765.669 640.198H806.444V680.973M765.669 640.198L806.444 680.973M765.669 640.198V680.973H806.444" stroke="#0000FF" stroke-width="0.287443" stroke-miterlimit="22.9256"/>
<path d="M806.444 640.198H765.669V680.973H806.444V640.198Z" stroke="black" stroke-width="0.287443" stroke-miterlimit="22.9256"/>
<path d="M765.669 680.973L806.444 640.198" stroke="black" stroke-width="0.287443" stroke-miterlimit="22.9256"/>
<path d="M806.444 680.973L765.669 640.198" stroke="black" stroke-width="0.287443" stroke-miterlimit="22.9256"/>
<path d="M316.617 245.688H357.39" stroke="black" stroke-width="0.287443" stroke-miterlimit="22.9256"/>
<path d="M357.39 204.913H316.615L357.39 245.685V204.913ZM316.615 204.913L357.39 245.685H316.615V204.913Z" fill="#0000FF"/>
<path d="M316.615 204.913H357.39V245.685M316.615 204.913L357.39 245.685M316.615 204.913V245.685H357.39" stroke="#0000FF" stroke-width="0.287443" stroke-miterlimit="22.9256"/>
<path d="M357.39 204.913H316.617V245.687H357.39V204.913Z" stroke="black" stroke-width="0.287443" stroke-miterlimit="22.9256"/>
<path d="M316.617 245.687L357.39 204.913" stroke="black" stroke-width="0.287443" stroke-miterlimit="22.9256"/>
<path d="M357.39 245.687L316.617 204.913" stroke="black" stroke-width="0.287443" stroke-miterlimit="22.9256"/>
<path d="M765.669 245.688H806.444" stroke="black" stroke-width="0.287443" stroke-miterlimit="22.9256"/>
<path d="M806.444 204.913H765.669L806.444 245.685V204.913ZM765.669 204.913L806.444 245.685H765.669V204.913Z" fill="#0000FF"/>
<path d="M765.669 204.913H806.444V245.685M765.669 204.913L806.444 245.685M765.669 204.913V245.685H806.444" stroke="#0000FF" stroke-width="0.287443" stroke-miterlimit="22.9256"/>
<path d="M806.444 204.913H765.669V245.687H806.444V204.913Z" stroke="black" stroke-width="0.287443" stroke-miterlimit="22.9256"/>
<path d="M765.669 245.687L806.444 204.913" stroke="black" stroke-width="0.287443" stroke-miterlimit="22.9256"/>
<path d="M806.444 245.687L765.669 204.913" stroke="black" stroke-width="0.287443" stroke-miterlimit="22.9256"/>
<path d="M636.461 368.012H718.011V395.549H636.461V368.012Z" stroke="#5CB800" stroke-width="0.287443" stroke-miterlimit="22.9256"/>
<path d="M710.068 388.664H698.947" stroke="#5CB800" stroke-width="0.287443" stroke-miterlimit="22.9256"/>
<path d="M697.888 387.075V376.486" stroke="#5CB800" stroke-width="0.287443" stroke-miterlimit="22.9256"/>
<path d="M698.947 374.897H710.068" stroke="#5CB800" stroke-width="0.287443" stroke-miterlimit="22.9256"/>
<path d="M711.656 376.219C711.656 375.487 711.064 374.895 710.332 374.895" stroke="#5CB800" stroke-width="0.287443" stroke-miterlimit="22.9256"/>
<path d="M699.212 374.897C698.48 374.897 697.888 375.489 697.888 376.221" stroke="#5CB800" stroke-width="0.287443" stroke-miterlimit="22.9256"/>
<path d="M657.113 376.486V387.075" stroke="#5CB800" stroke-width="0.287443" stroke-miterlimit="22.9256"/>
<path d="M655.524 388.664H644.404" stroke="#5CB800" stroke-width="0.287443" stroke-miterlimit="22.9256"/>
<path d="M643.344 387.075V376.486" stroke="#5CB800" stroke-width="0.287443" stroke-miterlimit="22.9256"/>
<path d="M644.404 374.897H655.524" stroke="#5CB800" stroke-width="0.287443" stroke-miterlimit="22.9256"/>
<path d="M655.789 388.135C656.519 388.135 657.113 387.543 657.113 386.811" stroke="#5CB800" stroke-width="0.287443" stroke-miterlimit="22.9256"/>
<path d="M643.344 386.811C643.344 387.541 643.936 388.135 644.668 388.135" stroke="#5CB800" stroke-width="0.287443" stroke-miterlimit="22.9256"/>
<path d="M657.113 376.219C657.113 375.487 656.521 374.895 655.789 374.895" stroke="#5CB800" stroke-width="0.287443" stroke-miterlimit="22.9256"/>
<path d="M644.668 374.897C643.936 374.897 643.344 375.489 643.344 376.221" stroke="#5CB800" stroke-width="0.287443" stroke-miterlimit="22.9256"/>
<path d="M689.68 388.135C690.41 388.135 691.004 387.543 691.004 386.811" stroke="#5CB800" stroke-width="0.287443" stroke-miterlimit="22.9256"/>
<path d="M691.002 376.219C691.002 375.487 690.41 374.895 689.678 374.895" stroke="#5CB800" stroke-width="0.287443" stroke-miterlimit="22.9256"/>
<path d="M663.996 386.811C663.996 387.541 664.588 388.135 665.32 388.135" stroke="#5CB800" stroke-width="0.287443" stroke-miterlimit="22.9256"/>
<path d="M665.322 374.897C664.59 374.897 663.998 375.489 663.998 376.221" stroke="#5CB800" stroke-width="0.287443" stroke-miterlimit="22.9256"/>
<path d="M691.002 376.486V387.075" stroke="#5CB800" stroke-width="0.287443" stroke-miterlimit="22.9256"/>
<path d="M689.414 388.664H665.056" stroke="#5CB800" stroke-width="0.287443" stroke-miterlimit="22.9256"/>
<path d="M663.467 387.075V376.486" stroke="#5CB800" stroke-width="0.287443" stroke-miterlimit="22.9256"/>
<path d="M665.056 374.897H689.414" stroke="#5CB800" stroke-width="0.287443" stroke-miterlimit="22.9256"/>
<path d="M636.461 368.012H718.011V395.549H636.461V368.012Z" stroke="#FEFEFE" stroke-width="0.287443" stroke-miterlimit="22.9256"/>
<path d="M710.068 388.664H699.317" stroke="#FEFEFE" stroke-width="0.287443" stroke-miterlimit="22.9256"/>
<path d="M697.888 387.075V376.486" stroke="#FEFEFE" stroke-width="0.287443" stroke-miterlimit="22.9256"/>
<path d="M698.947 374.897H710.068" stroke="#FEFEFE" stroke-width="0.287443" stroke-miterlimit="22.9256"/>
<path d="M711.656 376.219V386.811" stroke="#FEFEFE" stroke-width="0.287443" stroke-miterlimit="22.9256"/>
<path d="M710.068 388.664C710.798 388.664 711.656 387.541 711.656 386.811" stroke="#FEFEFE" stroke-width="0.287443" stroke-miterlimit="22.9256"/>
<path d="M697.888 386.811C697.888 387.541 698.587 388.664 699.319 388.664" stroke="#FEFEFE" stroke-width="0.287443" stroke-miterlimit="22.9256"/>
<path d="M711.656 376.219C711.656 375.487 711.064 374.895 710.332 374.895" stroke="#FEFEFE" stroke-width="0.287443" stroke-miterlimit="22.9256"/>
<path d="M699.212 374.897C698.48 374.897 697.888 375.489 697.888 376.221" stroke="#FEFEFE" stroke-width="0.287443" stroke-miterlimit="22.9256"/>
<path d="M657.113 376.486V387.075" stroke="#FEFEFE" stroke-width="0.287443" stroke-miterlimit="22.9256"/>
<path d="M655.524 388.664H644.404" stroke="#FEFEFE" stroke-width="0.287443" stroke-miterlimit="22.9256"/>
<path d="M643.344 387.075V376.486" stroke="#FEFEFE" stroke-width="0.287443" stroke-miterlimit="22.9256"/>
<path d="M644.404 374.897H655.524" stroke="#FEFEFE" stroke-width="0.287443" stroke-miterlimit="22.9256"/>
<path d="M655.789 388.135C656.519 388.135 657.113 387.543 657.113 386.811" stroke="#FEFEFE" stroke-width="0.287443" stroke-miterlimit="22.9256"/>
<path d="M643.344 386.811C643.344 387.541 643.936 388.135 644.668 388.135" stroke="#FEFEFE" stroke-width="0.287443" stroke-miterlimit="22.9256"/>
<path d="M657.113 376.219C657.113 375.487 656.521 374.895 655.789 374.895" stroke="#FEFEFE" stroke-width="0.287443" stroke-miterlimit="22.9256"/>
<path d="M644.668 374.897C643.936 374.897 643.344 375.489 643.344 376.221" stroke="#FEFEFE" stroke-width="0.287443" stroke-miterlimit="22.9256"/>
<path d="M689.68 388.135C690.41 388.135 691.004 387.543 691.004 386.811" stroke="#FEFEFE" stroke-width="0.287443" stroke-miterlimit="22.9256"/>
<path d="M691.002 376.219C691.002 375.487 690.41 374.895 689.678 374.895" stroke="#FEFEFE" stroke-width="0.287443" stroke-miterlimit="22.9256"/>
<path d="M663.996 386.811C663.996 387.541 664.588 388.135 665.32 388.135" stroke="#FEFEFE" stroke-width="0.287443" stroke-miterlimit="22.9256"/>
<path d="M665.322 374.897C664.59 374.897 663.998 375.489 663.998 376.221" stroke="#FEFEFE" stroke-width="0.287443" stroke-miterlimit="22.9256"/>
<path d="M691.002 376.486V387.075" stroke="#FEFEFE" stroke-width="0.287443" stroke-miterlimit="22.9256"/>
<path d="M689.414 388.664H665.056" stroke="#FEFEFE" stroke-width="0.287443" stroke-miterlimit="22.9256"/>
<path d="M663.467 387.075V376.486" stroke="#FEFEFE" stroke-width="0.287443" stroke-miterlimit="22.9256"/>
<path d="M665.056 374.897H689.414" stroke="#FEFEFE" stroke-width="0.287443" stroke-miterlimit="22.9256"/>
<path d="M643.344 376.486L647.052 386.017L655.524 388.664" stroke="#FEFEFE" stroke-width="0.287443" stroke-miterlimit="22.9256"/>
<path d="M663.467 376.486L668.233 385.487L689.414 388.664" stroke="#FEFEFE" stroke-width="0.287443" stroke-miterlimit="22.9256"/>
<path d="M697.888 376.486L701.594 386.017L710.068 388.664" stroke="#FEFEFE" stroke-width="0.287443" stroke-miterlimit="22.9256"/>
<path d="M409.287 492.985H402.404V513.108" stroke="black" stroke-width="0.287443" stroke-miterlimit="22.9256"/>
<path d="M415.112 492.985H417.23L418.29 494.044L419.878 495.633L420.407 497.75L420.936 500.928V505.693L420.407 508.342L419.878 510.459L418.29 512.577L417.23 513.108H415.112L414.053 512.577L412.464 510.459L411.935 508.342L411.404 505.693V500.928L411.935 497.75L412.464 495.633L414.053 494.044L415.112 492.985Z" stroke="black" stroke-width="0.287443" stroke-miterlimit="22.9256"/>
<path d="M433.116 497.75L432.587 495.633L432.056 495.102L431.527 494.044L429.939 492.985H427.821L426.761 494.044L426.233 495.102L425.702 495.633L425.173 497.75L424.113 500.928V505.693L425.173 508.342L425.702 510.459L426.761 512.577L427.821 513.108H429.939L431.527 512.577L432.587 510.459L433.116 508.342" stroke="black" stroke-width="0.287443" stroke-miterlimit="22.9256"/>
<path d="M438.941 492.985V513.108" stroke="black" stroke-width="0.287443" stroke-miterlimit="22.9256"/>
<path d="M434.704 492.985H443.176" stroke="black" stroke-width="0.287443" stroke-miterlimit="22.9256"/>
<path d="M445.825 492.985V513.108L454.297 492.985V513.108" stroke="black" stroke-width="0.287443" stroke-miterlimit="22.9256"/>
<path d="M458.534 492.985V513.108" stroke="black" stroke-width="0.287443" stroke-miterlimit="22.9256"/>
<path d="M458.534 502.516H467.005" stroke="black" stroke-width="0.287443" stroke-miterlimit="22.9256"/>
<path d="M467.005 513.108V492.985" stroke="black" stroke-width="0.287443" stroke-miterlimit="22.9256"/>
<path d="M471.771 506.753H477.597" stroke="black" stroke-width="0.287443" stroke-miterlimit="22.9256"/>
<path d="M469.654 513.108L474.42 492.985L479.185 513.108" stroke="black" stroke-width="0.287443" stroke-miterlimit="22.9256"/>
<path d="M480.774 513.108L485.011 502.516" stroke="black" stroke-width="0.287443" stroke-miterlimit="22.9256"/>
<path d="M489.248 513.108V492.985H483.951L481.834 494.044L481.303 495.102L480.774 496.691V498.81L481.303 500.928L481.834 501.457L483.951 502.516H489.248" stroke="black" stroke-width="0.287443" stroke-miterlimit="22.9256"/>
<path d="M411.404 530.582L412.464 530.051L414.053 526.874V547.526" stroke="black" stroke-width="0.287443" stroke-miterlimit="22.9256"/>
<path d="M428.35 533.759L427.821 536.937L426.233 538.525L424.644 539.583H424.113L422.525 538.525L420.936 536.937L420.407 533.759V532.7L420.936 530.051L422.525 527.934L424.113 526.874H424.644L426.233 527.934L427.821 530.051L428.35 533.759ZM428.35 533.759V538.525L427.821 543.291L426.233 546.468L424.644 547.526H423.584L421.996 546.468L420.936 544.349" stroke="black" stroke-width="0.287443" stroke-miterlimit="22.9256"/>
<path d="M433.645 546.468L432.587 547.526L432.056 546.468L432.587 545.409L433.645 546.468ZM433.645 546.468V548.586L432.587 550.175L432.056 551.234" stroke="black" stroke-width="0.287443" stroke-miterlimit="22.9256"/>
<path d="M441.588 526.874L439.999 527.934L438.411 530.582L437.882 535.877V538.525L438.411 543.291L439.999 546.468L441.588 547.526H442.648L444.236 546.468L445.825 543.291L446.354 538.525V535.877L445.825 530.582L444.236 527.934L442.648 526.874H441.588Z" stroke="black" stroke-width="0.287443" stroke-miterlimit="22.9256"/>
<path d="M456.945 530.051L455.885 527.934L454.297 526.874H453.239L451.65 527.934L450.062 530.582L449.531 535.877V540.643L450.062 544.349L451.65 546.468L453.239 547.526H453.768L455.356 546.468L456.945 544.349L457.474 541.703V540.643L456.945 537.466L455.356 535.877L453.768 534.817H453.239L451.65 535.877L450.062 537.466L449.531 540.643" stroke="black" stroke-width="0.287443" stroke-miterlimit="22.9256"/>
<path d="M471.771 547.526V533.76L468.065 544.349L463.828 533.76V547.526" stroke="black" stroke-width="0.287443" stroke-miterlimit="22.9256"/>
<path d="M474.948 531.64V530.582L475.479 528.994L476.008 527.934L477.068 526.874H479.714L480.774 527.934L481.303 528.994L481.834 530.582V532.7L481.303 534.817L480.245 537.466L474.42 547.526H482.363" stroke="black" stroke-width="0.287443" stroke-miterlimit="22.9256"/>
<path d="M622.692 491.396L622.164 489.808L621.635 488.748L620.575 487.69L619.515 486.63H617.398L616.338 487.69L615.28 488.748L614.749 489.808L614.221 491.396L613.69 494.573V499.339L614.221 501.988L614.749 504.105L616.338 506.223L617.398 507.282H619.515L620.575 506.223L622.164 504.105L622.692 501.988" stroke="black" stroke-width="0.287443" stroke-miterlimit="22.9256"/>
<path d="M625.87 507.282V486.63H634.343V507.282" stroke="black" stroke-width="0.287443" stroke-miterlimit="22.9256"/>
<path d="M639.109 500.399H644.933" stroke="black" stroke-width="0.287443" stroke-miterlimit="22.9256"/>
<path d="M636.99 507.282L641.756 486.63L646.522 507.282" stroke="black" stroke-width="0.287443" stroke-miterlimit="22.9256"/>
<path d="M656.584 507.282V486.63H649.699V503.045L649.17 505.165L648.641 506.223L647.581 507.282" stroke="black" stroke-width="0.287443" stroke-miterlimit="22.9256"/>
<path d="M660.819 486.63V507.282H666.645L668.233 506.223L668.762 505.165L669.293 503.045V499.339L668.762 497.222L668.233 496.162L666.645 495.633H660.819" stroke="black" stroke-width="0.287443" stroke-miterlimit="22.9256"/>
<path d="M672.47 486.63V507.282" stroke="black" stroke-width="0.287443" stroke-miterlimit="22.9256"/>
<path d="M672.47 496.162H680.942" stroke="black" stroke-width="0.287443" stroke-miterlimit="22.9256"/>
<path d="M680.942 507.282V486.63" stroke="black" stroke-width="0.287443" stroke-miterlimit="22.9256"/>
<path d="M684.119 507.282L688.356 496.162" stroke="black" stroke-width="0.287443" stroke-miterlimit="22.9256"/>
<path d="M692.593 507.282V486.63H687.296L685.708 487.69L685.179 488.748L684.119 490.336V492.456L685.179 494.573L685.708 495.633L687.296 496.162H692.593" stroke="black" stroke-width="0.287443" stroke-miterlimit="22.9256"/>
<path d="M620.044 524.757L621.104 523.697L622.693 520.52V541.172" stroke="black" stroke-width="0.287443" stroke-miterlimit="22.9256"/>
<path d="M629.047 520.52H637.521L631.695 541.172" stroke="black" stroke-width="0.287443" stroke-miterlimit="22.9256"/>
<path d="M642.287 540.114L641.227 541.172L640.698 540.114L641.227 539.054L642.287 540.114ZM642.287 540.114V542.231L641.227 543.82L640.698 544.88" stroke="black" stroke-width="0.287443" stroke-miterlimit="22.9256"/>
<path d="M652.347 541.172V520.52L646.521 534.288H655.524" stroke="black" stroke-width="0.287443" stroke-miterlimit="22.9256"/>
<path d="M658.173 524.757L659.761 523.697L661.35 520.52V541.172" stroke="black" stroke-width="0.287443" stroke-miterlimit="22.9256"/>
<path d="M678.294 541.172V527.405L674.059 537.994L669.822 527.405V541.172" stroke="black" stroke-width="0.287443" stroke-miterlimit="22.9256"/>
<path d="M680.942 525.286V524.757L681.471 522.639L682.531 521.579L683.59 520.52H685.708L686.768 521.579L687.296 522.639L688.356 524.757V526.345L687.296 528.463L686.239 531.111L680.413 541.172H688.885" stroke="black" stroke-width="0.287443" stroke-miterlimit="22.9256"/>
<path d="M617.927 122.832L612.632 111.183" stroke="black" stroke-width="0.287443" stroke-miterlimit="22.9256"/>
<path d="M617.927 102.18L609.455 115.949" stroke="black" stroke-width="0.287443" stroke-miterlimit="22.9256"/>
<path d="M609.455 102.18V122.832" stroke="black" stroke-width="0.287443" stroke-miterlimit="22.9256"/>
<path d="M627.989 102.18L623.752 119.126L623.223 120.715L622.692 121.773L621.635 122.832H620.575" stroke="black" stroke-width="0.287443" stroke-miterlimit="22.9256"/>
<path d="M619.515 102.18L623.752 119.126" stroke="black" stroke-width="0.287443" stroke-miterlimit="22.9256"/>
<path d="M636.99 102.18L629.047 122.832" stroke="black" stroke-width="0.287443" stroke-miterlimit="22.9256"/>
<path d="M629.047 102.18L636.99 122.832" stroke="black" stroke-width="0.287443" stroke-miterlimit="22.9256"/>
<path d="M640.167 102.18V122.832" stroke="black" stroke-width="0.287443" stroke-miterlimit="22.9256"/>
<path d="M640.167 112.241H648.11" stroke="black" stroke-width="0.287443" stroke-miterlimit="22.9256"/>
<path d="M648.11 122.832V102.18" stroke="black" stroke-width="0.287443" stroke-miterlimit="22.9256"/>
<path d="M651.818 122.832L655.524 112.241" stroke="black" stroke-width="0.287443" stroke-miterlimit="22.9256"/>
<path d="M659.761 122.832V102.18H654.465L652.876 103.24L652.347 104.298L651.818 106.417V108.006L652.347 110.123L652.876 111.183L654.465 112.241H659.761" stroke="black" stroke-width="0.287443" stroke-miterlimit="22.9256"/>
<path d="M600.452 140.309L601.51 139.249L603.098 136.601V156.724" stroke="black" stroke-width="0.287443" stroke-miterlimit="22.9256"/>
<path d="M609.455 136.601H617.927L612.101 156.724" stroke="black" stroke-width="0.287443" stroke-miterlimit="22.9256"/>
<path d="M622.693 155.664L622.164 156.724L621.635 155.664L622.164 155.135L622.693 155.664ZM622.693 155.664V157.784L622.164 159.901L621.635 160.961" stroke="black" stroke-width="0.287443" stroke-miterlimit="22.9256"/>
<path d="M630.107 136.601L628.518 137.661L627.989 139.249V141.367L628.518 143.486L629.578 144.015L631.695 145.073L633.813 146.134L634.872 148.252L635.401 149.84V153.018L634.872 155.135L634.343 155.664L632.224 156.724H630.107L628.518 155.664L627.989 155.135L627.458 153.018V149.84L627.989 148.252L629.047 146.134L630.635 145.073L633.284 144.015L634.343 143.486L634.872 141.367V139.249L634.343 137.661L632.224 136.601H630.107Z" stroke="black" stroke-width="0.287443" stroke-miterlimit="22.9256"/>
<path d="M642.287 136.601L640.698 137.661L639.638 140.309L639.109 145.073V148.252L639.638 153.018L640.698 155.664L642.287 156.724H643.344L645.464 155.664L646.522 153.018L647.052 148.252V145.073L646.522 140.309L645.464 137.661L643.344 136.601H642.287Z" stroke="black" stroke-width="0.287443" stroke-miterlimit="22.9256"/>
<path d="M660.819 156.724V143.486L657.113 154.077L652.876 143.486V156.724" stroke="black" stroke-width="0.287443" stroke-miterlimit="22.9256"/>
<path d="M663.996 141.367V140.309L664.527 138.189L665.056 137.661L666.116 136.601H668.762L669.822 137.661L670.351 138.189L670.881 140.309V142.426L670.351 144.015L669.293 147.192L663.467 156.724H671.41" stroke="black" stroke-width="0.287443" stroke-miterlimit="22.9256"/>
<path d="M675.647 309.762L675.116 308.174L674.587 307.114L674.059 306.054L672.999 304.997H670.881L669.293 306.054L668.762 307.114L668.233 308.174L667.704 309.762L667.173 312.94V317.705L667.704 320.352L668.233 322.471L669.293 324.589L670.881 325.648H672.999L674.059 324.589L675.116 322.471L675.647 320.352" stroke="black" stroke-width="0.287443" stroke-miterlimit="22.9256"/>
<path d="M687.296 301.289L677.236 332.532" stroke="black" stroke-width="0.287443" stroke-miterlimit="22.9256"/>
<path d="M698.417 304.997L694.71 321.412L694.182 323.529L693.651 324.589L692.062 325.648H691.533" stroke="black" stroke-width="0.287443" stroke-miterlimit="22.9256"/>
<path d="M690.474 304.997L694.711 321.412" stroke="black" stroke-width="0.287443" stroke-miterlimit="22.9256"/>
<path d="M653.407 338.886H659.761L656.584 346.829H658.173L659.23 347.889L659.761 348.949L660.29 351.597V353.714L659.761 356.361L658.701 358.48L657.113 359.54H654.995L653.407 358.48L652.876 357.421L652.347 355.832" stroke="black" stroke-width="0.287443" stroke-miterlimit="22.9256"/>
<path d="M665.056 358.48L664.527 359.54L663.996 358.48L664.527 357.421L665.056 358.48ZM665.056 358.48V360.598L664.527 362.188L663.996 363.246" stroke="black" stroke-width="0.287443" stroke-miterlimit="22.9256"/>
<path d="M672.47 338.886L670.881 339.946L670.351 342.063V344.181L670.881 345.771L671.939 346.829L674.588 347.889L676.176 348.949L677.236 350.537L677.765 352.655V355.832L677.236 357.421L676.705 358.48L675.117 359.54H672.47L670.881 358.48L670.351 357.421L669.822 355.832V352.655L670.351 350.537L671.41 348.949L673.528 347.889L675.647 346.829L676.705 345.771L677.236 344.181V342.063L676.705 339.946L675.117 338.886H672.47Z" stroke="black" stroke-width="0.287443" stroke-miterlimit="22.9256"/>
<path d="M687.296 359.54V338.886L681.471 352.655H689.945" stroke="black" stroke-width="0.287443" stroke-miterlimit="22.9256"/>
<path d="M703.713 359.54V345.771L699.476 356.361L695.239 345.771V359.54" stroke="black" stroke-width="0.287443" stroke-miterlimit="22.9256"/>
<path d="M706.36 344.181V343.123L706.89 341.006L707.419 339.946L709.008 338.886H711.127L712.185 339.946L712.716 341.006L713.245 343.123V344.712L712.716 346.829L711.656 350.006L705.831 359.54H714.305" stroke="black" stroke-width="0.287443" stroke-miterlimit="22.9256"/>
<path d="M374.336 79.9399L366.393 100.592" stroke="black" stroke-width="0.287443" stroke-miterlimit="22.9256"/>
<path d="M366.393 79.9399L374.336 100.592" stroke="black" stroke-width="0.287443" stroke-miterlimit="22.9256"/>
<path d="M380.161 79.9399H382.281L383.869 80.9996L384.927 83.1171L385.456 84.7058L385.987 87.883V92.6488L385.456 95.2971L384.927 97.4146L383.869 99.5321L382.281 100.592H380.161L379.101 99.5321L378.044 97.4146L376.984 95.2971L376.455 92.6488V87.883L376.984 84.7058L378.044 83.1171L379.101 80.9996L380.161 79.9399Z" stroke="black" stroke-width="0.287443" stroke-miterlimit="22.9256"/>
<path d="M397.107 100.592V79.9399H390.753V96.3549L390.224 98.4743L389.693 99.5321L388.104 100.592" stroke="black" stroke-width="0.287443" stroke-miterlimit="22.9256"/>
<path d="M408.758 100.592V79.9399H402.404V96.3549L401.873 98.4743L401.344 99.5321L399.755 100.592" stroke="black" stroke-width="0.287443" stroke-miterlimit="22.9256"/>
<path d="M362.156 113.83H370.63L364.804 134.481" stroke="black" stroke-width="0.287443" stroke-miterlimit="22.9256"/>
<path d="M375.395 133.423L374.336 134.481L373.807 133.423L374.336 132.364L375.395 133.423ZM375.395 133.423V135.543L374.336 137.13L373.807 138.189" stroke="black" stroke-width="0.287443" stroke-miterlimit="22.9256"/>
<path d="M383.338 113.83L381.75 114.889L380.69 118.067L379.632 122.832V125.481L380.69 130.246L381.75 133.424L383.338 134.481H384.398L386.516 133.424L387.575 130.246L388.104 125.481V122.832L387.575 118.067L386.516 114.889L384.398 113.83H383.338Z" stroke="black" stroke-width="0.287443" stroke-miterlimit="22.9256"/>
<path d="M399.226 120.715L398.696 123.892L397.107 125.481L395.518 126.538H394.989L393.401 125.481L392.341 123.892L391.281 120.715V119.655L392.341 117.007L393.401 114.889L394.989 113.83H395.518L397.107 114.889L398.696 117.007L399.226 120.715ZM399.226 120.715V125.481L398.696 130.246L397.107 133.424L395.518 134.481H394.46L392.872 133.424L392.341 131.306" stroke="black" stroke-width="0.287443" stroke-miterlimit="22.9256"/>
<path d="M413.524 134.481V120.715L409.816 131.306L405.581 120.715V134.481" stroke="black" stroke-width="0.287443" stroke-miterlimit="22.9256"/>
<path d="M416.701 118.595V118.067L417.23 115.949L417.759 114.889L418.818 113.83H421.467L422.525 114.889L423.055 115.949L423.584 118.067V119.655L423.055 121.773L421.996 124.421L416.17 134.481H424.113" stroke="black" stroke-width="0.287443" stroke-miterlimit="22.9256"/>
<path d="M457.474 325.649L452.179 313.998" stroke="black" stroke-width="0.287443" stroke-miterlimit="22.9256"/>
<path d="M457.474 304.997L449.531 318.763" stroke="black" stroke-width="0.287443" stroke-miterlimit="22.9256"/>
<path d="M449.531 304.997V325.648" stroke="black" stroke-width="0.287443" stroke-miterlimit="22.9256"/>
<path d="M463.828 304.997H466.477L467.536 306.054L468.594 308.174L469.125 309.762L469.654 312.94V317.705L469.125 320.883L468.594 322.471L467.536 324.589L466.477 325.648H463.828L462.771 324.589L461.711 322.471L461.182 320.883L460.651 317.705V312.94L461.182 309.762L461.711 308.174L462.771 306.054L463.828 304.997Z" stroke="black" stroke-width="0.287443" stroke-miterlimit="22.9256"/>
<path d="M473.891 325.648V304.997H479.185L480.774 306.054L481.303 307.114L481.834 309.232V311.88L481.303 313.997L480.774 315.057L479.185 315.586H473.891" stroke="black" stroke-width="0.287443" stroke-miterlimit="22.9256"/>
<path d="M485.54 304.997V325.648L494.014 304.997V325.648" stroke="black" stroke-width="0.287443" stroke-miterlimit="22.9256"/>
<path d="M508.84 329.355V325.648H497.191V329.355" stroke="black" stroke-width="0.287443" stroke-miterlimit="22.9256"/>
<path d="M498.249 325.648L500.368 322.471L500.897 320.883L501.428 316.646V304.997H507.782V325.648" stroke="black" stroke-width="0.287443" stroke-miterlimit="22.9256"/>
<path d="M515.196 304.997H517.843L518.903 306.054L519.962 308.174L520.491 309.762L521.02 312.94V317.705L520.491 320.883L519.962 322.471L518.903 324.589L517.843 325.648H515.196L514.137 324.589L513.077 322.471L512.548 320.883L512.019 317.705V312.94L512.548 309.762L513.077 308.174L514.137 306.054L515.196 304.997Z" stroke="black" stroke-width="0.287443" stroke-miterlimit="22.9256"/>
<path d="M525.257 325.648V304.997H530.552L532.14 306.054L532.671 307.114L533.2 309.232V311.88L532.671 313.997L532.14 315.057L530.552 315.586H525.257" stroke="black" stroke-width="0.287443" stroke-miterlimit="22.9256"/>
<path d="M468.594 345.771L468.065 348.949L467.006 351.066L465.417 351.597H464.359L462.77 351.066L461.711 348.949L461.182 345.771V345.241L461.711 342.063L462.77 339.946L464.359 339.415H465.417L467.006 339.946L468.065 342.063L468.594 345.771ZM468.594 345.771V351.066L468.065 355.832L467.006 358.48L465.417 359.54H463.828L462.24 358.48L461.711 356.892" stroke="black" stroke-width="0.287443" stroke-miterlimit="22.9256"/>
<path d="M473.891 358.48L473.36 359.54L472.831 358.48L473.36 357.421L473.891 358.48ZM473.891 358.48V360.598L473.36 362.717L472.831 363.246" stroke="black" stroke-width="0.287443" stroke-miterlimit="22.9256"/>
<path d="M481.303 339.415L479.714 339.946L479.185 342.063V344.181L479.714 345.771L480.774 346.829L483.422 347.889L485.011 348.949L486.071 351.066L486.6 352.655V355.832L486.071 357.421L485.54 358.48L483.951 359.54H481.303L479.714 358.48L479.185 357.421L478.656 355.832V352.655L479.185 351.066L480.245 348.949L481.834 347.889L484.482 346.829L485.54 345.771L486.071 344.181V342.063L485.54 339.946L483.951 339.415H481.303Z" stroke="black" stroke-width="0.287443" stroke-miterlimit="22.9256"/>
<path d="M497.191 342.063L496.662 339.946L495.073 339.415H494.014L491.894 339.946L490.836 343.123L490.306 347.889V352.655L490.836 356.892L491.894 358.48L494.014 359.54H494.543L496.131 358.48L497.191 356.892L497.72 353.714V352.655L497.191 350.006L496.131 347.889L494.543 346.829H494.014L491.894 347.889L490.836 350.006L490.306 352.655" stroke="black" stroke-width="0.287443" stroke-miterlimit="22.9256"/>
<path d="M512.548 359.54V345.771L508.311 356.892L504.076 345.771V359.54" stroke="black" stroke-width="0.287443" stroke-miterlimit="22.9256"/>
<path d="M515.196 344.181V343.123L515.725 341.006L516.254 339.946L517.843 339.415H519.962L521.02 339.946L521.551 341.006L522.08 343.123V345.241L521.551 346.829L520.491 350.006L514.666 359.54H523.139" stroke="black" stroke-width="0.287443" stroke-miterlimit="22.9256"/>
<path d="M786.321 680.973H738.662V728.631H786.321V680.973Z" stroke="black" stroke-width="0.287443" stroke-miterlimit="22.9256"/>
<path d="M738.662 680.973V687.858H745.017L738.662 680.973ZM738.662 687.858H745.017L738.662 728.633V687.858Z" fill="black"/>
<path d="M738.662 687.858V680.973L745.017 687.858M738.662 687.858H745.017M738.662 687.858V728.633L745.017 687.858" stroke="black" stroke-width="0.287443" stroke-miterlimit="22.9256"/>
<path d="M738.662 680.973H786.321L745.017 687.856L738.662 680.973Z" fill="black"/>
<path d="M738.662 680.973H786.321L745.017 687.856L738.662 680.973Z" stroke="black" stroke-width="0.287443" stroke-miterlimit="22.9256"/>
<path d="M738.662 680.973H786.321L745.017 687.856L738.662 728.631V680.973ZM738.662 680.973H786.321V728.631H738.662V680.973Z" stroke="black" stroke-width="0.287443" stroke-miterlimit="22.9256"/>
<path d="M738.662 680.973H786.321V728.631H738.662V680.973Z" stroke="black" stroke-width="0.287443" stroke-miterlimit="22.9256"/>
<path d="M922.416 0.507812V221.857" stroke="black" stroke-width="0.287443" stroke-miterlimit="22.9256"/>
</g>
<defs>
<clipPath id="clip0_9_1840">
<rect width="922.893" height="797.42" fill="white"/>
</clipPath>
</defs>
</svg>
