<svg width="520" height="757" viewBox="0 0 520 757" fill="none" xmlns="http://www.w3.org/2000/svg">
<g clip-path="url(#clip0_9_3412)">
<path d="M35.5399 681.445H42.4241V640.668H35.5399V382.25H192.817L197.583 377.484L195.464 375.365H35.5399V246.156H42.4241V14.7472H49.3083V0.97876H117.091V14.7472H161.574V116.947H147.806V184.73H154.69V123.831H290.783V273.165H154.69V232.392H147.806V280.049H290.783V293.818H297.668V218.623H477.713V375.365H297.668V354.716H290.783V375.365L288.665 377.484L293.43 382.25H477.713V742.871H246.3V429.38L250.006 425.674L245.241 420.908L243.122 423.027L241.007 420.908L235.71 425.674L239.947 429.38V742.871H35.5399V681.445Z" fill="#9898CC" stroke="#2B2A29" stroke-width="0.2876" stroke-miterlimit="10" stroke-linecap="round"/>
<path d="M477.713 742.871H440.642" stroke="black" stroke-width="0.2876" stroke-miterlimit="22.9256"/>
<path d="M497.306 643.846V650.73" stroke="#FF0000" stroke-width="0.2876" stroke-miterlimit="22.9256"/>
<path d="M21.7715 643.846V650.73" stroke="#FF0000" stroke-width="0.2876" stroke-miterlimit="22.9256"/>
<path d="M494.656 756.108H440.642" stroke="black" stroke-width="0.2876" stroke-miterlimit="22.9256"/>
<path d="M494.656 756.108V681.445" stroke="black" stroke-width="0.2876" stroke-miterlimit="22.9256"/>
<path d="M477.713 742.871H440.642" stroke="black" stroke-width="0.2876" stroke-miterlimit="22.9256"/>
<path d="M42.4241 205.382V14.7471" stroke="black" stroke-width="0.2876" stroke-miterlimit="22.9256"/>
<path d="M28.6557 205.383V89.4141" stroke="black" stroke-width="0.2876" stroke-miterlimit="22.9256"/>
<path d="M28.6557 89.4141V0.97876" stroke="black" stroke-width="0.2876" stroke-miterlimit="22.9256"/>
<path d="M35.5399 681.445V742.871" stroke="black" stroke-width="0.2876" stroke-miterlimit="22.9256"/>
<path d="M21.7715 681.445V756.108" stroke="black" stroke-width="0.2876" stroke-miterlimit="22.9256"/>
<path d="M297.668 218.623H477.713H355.388" stroke="black" stroke-width="0.2876" stroke-miterlimit="22.9256"/>
<path d="M304.552 205.383H477.713" stroke="black" stroke-width="0.2876" stroke-miterlimit="22.9256"/>
<path d="M491.481 246.156V640.668" stroke="black" stroke-width="0.2876" stroke-miterlimit="22.9256"/>
<path d="M477.713 246.156V375.365" stroke="black" stroke-width="0.2876" stroke-miterlimit="22.9256"/>
<path d="M477.713 382.25V640.668" stroke="black" stroke-width="0.2876" stroke-miterlimit="22.9256"/>
<path d="M477.713 681.445V742.871" stroke="black" stroke-width="0.2876" stroke-miterlimit="22.9256"/>
<path d="M8.53461 620.546V615.25" stroke="#008AB8" stroke-width="0.2876" stroke-miterlimit="22.9256"/>
<path d="M35.5399 595.656V598.307" stroke="#008AB8" stroke-width="0.2876" stroke-miterlimit="22.9256"/>
<path d="M35.5399 620.546V615.25" stroke="#008AB8" stroke-width="0.2876" stroke-miterlimit="22.9256"/>
<path d="M8.53461 595.656V598.307" stroke="#008AB8" stroke-width="0.2876" stroke-miterlimit="22.9256"/>
<path d="M8.53461 248.807L14.3594 242.45" stroke="#FF0000" stroke-width="0.2876" stroke-miterlimit="22.9256"/>
<path d="M8.53461 278.99L35.5399 251.981" stroke="#FF0000" stroke-width="0.2876" stroke-miterlimit="22.9256"/>
<path d="M8.53461 309.702L35.5399 282.696" stroke="#FF0000" stroke-width="0.2876" stroke-miterlimit="22.9256"/>
<path d="M8.53461 340.416L35.5399 312.88" stroke="#FF0000" stroke-width="0.2876" stroke-miterlimit="22.9256"/>
<path d="M8.53461 370.6L35.5399 343.595" stroke="#FF0000" stroke-width="0.2876" stroke-miterlimit="22.9256"/>
<path d="M8.53461 401.315L35.5399 374.306" stroke="#FF0000" stroke-width="0.2876" stroke-miterlimit="22.9256"/>
<path d="M8.53461 432.026L35.5399 404.493" stroke="#FF0000" stroke-width="0.2876" stroke-miterlimit="22.9256"/>
<path d="M8.53461 462.21L35.5399 435.204" stroke="#FF0000" stroke-width="0.2876" stroke-miterlimit="22.9256"/>
<path d="M8.53461 492.925L35.5399 465.919" stroke="#FF0000" stroke-width="0.2876" stroke-miterlimit="22.9256"/>
<path d="M8.53461 523.64L35.5399 496.103" stroke="#FF0000" stroke-width="0.2876" stroke-miterlimit="22.9256"/>
<path d="M8.53461 553.823L35.5399 526.818" stroke="#FF0000" stroke-width="0.2876" stroke-miterlimit="22.9256"/>
<path d="M8.53461 584.535L35.5399 557.529" stroke="#FF0000" stroke-width="0.2876" stroke-miterlimit="22.9256"/>
<path d="M8.53461 615.25L35.5399 587.713" stroke="#FF0000" stroke-width="0.2876" stroke-miterlimit="22.9256"/>
<path d="M10.1219 643.846L35.5399 618.428" stroke="#FF0000" stroke-width="0.2876" stroke-miterlimit="22.9256"/>
<path d="M9.594 263.631C9.594 263.048 9.12073 262.571 8.53461 262.571C7.95213 262.571 7.47522 263.048 7.47522 263.631C7.47522 264.217 7.95213 264.69 8.53461 264.69C9.12073 264.69 9.594 264.217 9.594 263.631Z" fill="#FF0000"/>
<path d="M8.53461 263.631H9.594M9.594 263.631C9.594 263.048 9.12073 262.571 8.53461 262.571C7.95213 262.571 7.47522 263.048 7.47522 263.631C7.47522 264.217 7.95213 264.69 8.53461 264.69C9.12073 264.69 9.594 264.217 9.594 263.631Z" stroke="black" stroke-width="0.2876" stroke-miterlimit="22.9256"/>
<path d="M13.3001 259.925C13.3001 259.342 12.8231 258.865 12.2407 258.865C11.6545 258.865 11.1813 259.342 11.1813 259.925C11.1813 260.507 11.6582 260.984 12.2407 260.984C12.8231 260.984 13.3001 260.507 13.3001 259.925Z" fill="#FF0000"/>
<path d="M12.2407 259.925H13.3001M13.3001 259.925C13.3001 259.342 12.8231 258.865 12.2407 258.865C11.6545 258.865 11.1813 259.342 11.1813 259.925C11.1813 260.507 11.6582 260.984 12.2407 260.984C12.8231 260.984 13.3001 260.507 13.3001 259.925Z" stroke="black" stroke-width="0.2876" stroke-miterlimit="22.9256"/>
<path d="M15.9467 256.219L29.7151 242.45" stroke="#FF0000" stroke-width="0.2876" stroke-miterlimit="22.9256"/>
<path d="M8.53461 294.346L23.8903 278.99" stroke="#FF0000" stroke-width="0.2876" stroke-miterlimit="22.9256"/>
<path d="M28.6594 275.28C28.6594 274.698 28.1825 274.221 27.6 274.221C27.0175 274.221 26.5406 274.698 26.5406 275.28C26.5406 275.866 27.0175 276.34 27.6 276.34C28.1861 276.34 28.6594 275.863 28.6594 275.28Z" fill="#FF0000"/>
<path d="M27.6 275.28H28.6594M28.6594 275.28C28.6594 274.698 28.1825 274.221 27.6 274.221C27.0175 274.221 26.5406 274.698 26.5406 275.28C26.5406 275.866 27.0175 276.34 27.6 276.34C28.1861 276.34 28.6594 275.863 28.6594 275.28Z" stroke="black" stroke-width="0.2876" stroke-miterlimit="22.9256"/>
<path d="M31.306 271.574L35.5399 267.34" stroke="#FF0000" stroke-width="0.2876" stroke-miterlimit="22.9256"/>
<path d="M8.53461 325.061L12.2406 320.823" stroke="#FF0000" stroke-width="0.2876" stroke-miterlimit="22.9256"/>
<path d="M17.0097 317.114C17.0097 316.531 16.5328 316.054 15.9503 316.054C15.3642 316.054 14.8909 316.531 14.8909 317.114C14.8909 317.7 15.3678 318.173 15.9503 318.173C16.5328 318.173 17.0097 317.696 17.0097 317.114Z" fill="#FF0000"/>
<path d="M15.9503 317.114H17.0097M17.0097 317.114C17.0097 316.531 16.5328 316.054 15.9503 316.054C15.3642 316.054 14.8909 316.531 14.8909 317.114C14.8909 317.7 15.3678 318.173 15.9503 318.173C16.5328 318.173 17.0097 317.696 17.0097 317.114Z" stroke="black" stroke-width="0.2876" stroke-miterlimit="22.9256"/>
<path d="M20.1843 313.411L35.5399 297.524" stroke="#FF0000" stroke-width="0.2876" stroke-miterlimit="22.9256"/>
<path d="M8.53461 355.244L27.5963 336.179" stroke="#FF0000" stroke-width="0.2876" stroke-miterlimit="22.9256"/>
<path d="M32.3654 332.473C32.3654 331.89 31.8921 331.414 31.306 331.414C30.7198 331.414 30.2466 331.89 30.2466 332.473C30.2466 333.059 30.7198 333.532 31.306 333.532C31.8921 333.532 32.3654 333.059 32.3654 332.473Z" fill="#FF0000"/>
<path d="M31.306 332.473H32.3654M32.3654 332.473C32.3654 331.89 31.8921 331.414 31.306 331.414C30.7198 331.414 30.2466 331.89 30.2466 332.473C30.2466 333.059 30.7198 333.532 31.306 333.532C31.8921 333.532 32.3654 333.059 32.3654 332.473Z" stroke="black" stroke-width="0.2876" stroke-miterlimit="22.9256"/>
<path d="M35.012 328.767L35.5399 328.239" stroke="#FF0000" stroke-width="0.2876" stroke-miterlimit="22.9256"/>
<path d="M8.53461 385.956L15.9467 378.543" stroke="#FF0000" stroke-width="0.2876" stroke-miterlimit="22.9256"/>
<path d="M21.2437 374.306C21.2437 373.724 20.7704 373.247 20.1843 373.247C19.5981 373.247 19.1249 373.724 19.1249 374.306C19.1249 374.892 19.5981 375.365 20.1843 375.365C20.7704 375.365 21.2437 374.892 21.2437 374.306Z" fill="#FF0000"/>
<path d="M20.1843 374.306H21.2437M21.2437 374.306C21.2437 373.724 20.7704 373.247 20.1843 373.247C19.5981 373.247 19.1249 373.724 19.1249 374.306C19.1249 374.892 19.5981 375.365 20.1843 375.365C20.7704 375.365 21.2437 374.892 21.2437 374.306Z" stroke="black" stroke-width="0.2876" stroke-miterlimit="22.9256"/>
<path d="M23.8903 370.6L35.5399 358.95" stroke="#FF0000" stroke-width="0.2876" stroke-miterlimit="22.9256"/>
<path d="M9.594 416.671C9.594 416.088 9.12073 415.611 8.53461 415.611C7.95213 415.611 7.47522 416.088 7.47522 416.671C7.47522 417.257 7.95213 417.73 8.53461 417.73C9.12073 417.73 9.594 417.253 9.594 416.671Z" fill="#FF0000"/>
<path d="M8.53461 416.671H9.594M9.594 416.671C9.594 416.088 9.12073 415.611 8.53461 415.611C7.95213 415.611 7.47522 416.088 7.47522 416.671C7.47522 417.257 7.95213 417.73 8.53461 417.73C9.12073 417.73 9.594 417.253 9.594 416.671Z" stroke="black" stroke-width="0.2876" stroke-miterlimit="22.9256"/>
<path d="M12.2407 412.433L31.306 393.371" stroke="#FF0000" stroke-width="0.2876" stroke-miterlimit="22.9256"/>
<path d="M36.0714 389.665C36.0714 389.083 35.5945 388.606 35.012 388.606C34.4259 388.606 33.9526 389.083 33.9526 389.665C33.9526 390.248 34.4259 390.725 35.012 390.725C35.5945 390.725 36.0714 390.248 36.0714 389.665Z" fill="#FF0000"/>
<path d="M35.012 389.665H36.0714M36.0714 389.665C36.0714 389.083 35.5945 388.606 35.012 388.606C34.4259 388.606 33.9526 389.083 33.9526 389.665C33.9526 390.248 34.4259 390.725 35.012 390.725C35.5945 390.725 36.0714 390.248 36.0714 389.665Z" stroke="black" stroke-width="0.2876" stroke-miterlimit="22.9256"/>
<path d="M8.53461 447.386L20.1842 435.736" stroke="#FF0000" stroke-width="0.2876" stroke-miterlimit="22.9256"/>
<path d="M24.9533 431.498C24.9533 430.916 24.4764 430.439 23.8939 430.439C23.3078 430.439 22.8345 430.916 22.8345 431.498C22.8345 432.084 23.3078 432.558 23.8939 432.558C24.4764 432.558 24.9533 432.084 24.9533 431.498Z" fill="#FF0000"/>
<path d="M23.8939 431.498H24.9533M24.9533 431.498C24.9533 430.916 24.4764 430.439 23.8939 430.439C23.3078 430.439 22.8345 430.916 22.8345 431.498C22.8345 432.084 23.3078 432.558 23.8939 432.558C24.4764 432.558 24.9533 432.084 24.9533 431.498Z" stroke="black" stroke-width="0.2876" stroke-miterlimit="22.9256"/>
<path d="M27.5963 427.792L35.5399 419.849" stroke="#FF0000" stroke-width="0.2876" stroke-miterlimit="22.9256"/>
<path d="M9.594 477.569C9.594 476.987 9.12073 476.51 8.53461 476.51C7.95213 476.51 7.47522 476.987 7.47522 477.569C7.47522 478.152 7.95213 478.629 8.53461 478.629C9.12073 478.629 9.594 478.152 9.594 477.569Z" fill="#FF0000"/>
<path d="M8.53461 477.569H9.594M9.594 477.569C9.594 476.987 9.12073 476.51 8.53461 476.51C7.95213 476.51 7.47522 476.987 7.47522 477.569C7.47522 478.152 7.95213 478.629 8.53461 478.629C9.12073 478.629 9.594 478.152 9.594 477.569Z" stroke="black" stroke-width="0.2876" stroke-miterlimit="22.9256"/>
<path d="M13.3001 473.859C13.3001 473.277 12.8231 472.8 12.2407 472.8C11.6545 472.8 11.1813 473.277 11.1813 473.859C11.1813 474.446 11.6582 474.919 12.2407 474.919C12.8231 474.919 13.3001 474.442 13.3001 473.859Z" fill="#FF0000"/>
<path d="M12.2407 473.859H13.3001M13.3001 473.859C13.3001 473.277 12.8231 472.8 12.2407 472.8C11.6545 472.8 11.1813 473.277 11.1813 473.859C11.1813 474.446 11.6582 474.919 12.2407 474.919C12.8231 474.919 13.3001 474.442 13.3001 473.859Z" stroke="black" stroke-width="0.2876" stroke-miterlimit="22.9256"/>
<path d="M15.9467 470.153L35.012 451.092" stroke="#FF0000" stroke-width="0.2876" stroke-miterlimit="22.9256"/>
<path d="M8.53461 508.281L23.8903 492.925" stroke="#FF0000" stroke-width="0.2876" stroke-miterlimit="22.9256"/>
<path d="M28.6594 489.219C28.6594 488.636 28.1825 488.159 27.6 488.159C27.0175 488.159 26.5406 488.636 26.5406 489.219C26.5406 489.801 27.0175 490.278 27.6 490.278C28.1861 490.278 28.6594 489.801 28.6594 489.219Z" fill="#FF0000"/>
<path d="M27.6 489.219H28.6594M28.6594 489.219C28.6594 488.636 28.1825 488.159 27.6 488.159C27.0175 488.159 26.5406 488.636 26.5406 489.219C26.5406 489.801 27.0175 490.278 27.6 490.278C28.1861 490.278 28.6594 489.801 28.6594 489.219Z" stroke="black" stroke-width="0.2876" stroke-miterlimit="22.9256"/>
<path d="M31.306 484.981L35.5399 481.275" stroke="#FF0000" stroke-width="0.2876" stroke-miterlimit="22.9256"/>
<path d="M8.53461 538.995L12.2406 534.758" stroke="#FF0000" stroke-width="0.2876" stroke-miterlimit="22.9256"/>
<path d="M17.0097 531.052C17.0097 530.469 16.5328 529.992 15.9503 529.992C15.3642 529.992 14.8909 530.469 14.8909 531.052C14.8909 531.638 15.3678 532.111 15.9503 532.111C16.5328 532.111 17.0097 531.638 17.0097 531.052Z" fill="#FF0000"/>
<path d="M15.9503 531.052H17.0097M17.0097 531.052C17.0097 530.469 16.5328 529.992 15.9503 529.992C15.3642 529.992 14.8909 530.469 14.8909 531.052C14.8909 531.638 15.3678 532.111 15.9503 532.111C16.5328 532.111 17.0097 531.638 17.0097 531.052Z" stroke="black" stroke-width="0.2876" stroke-miterlimit="22.9256"/>
<path d="M20.1843 527.346L35.5399 511.459" stroke="#FF0000" stroke-width="0.2876" stroke-miterlimit="22.9256"/>
<path d="M8.53461 569.179L27.5963 550.117" stroke="#FF0000" stroke-width="0.2876" stroke-miterlimit="22.9256"/>
<path d="M32.3654 546.408C32.3654 545.825 31.8921 545.348 31.306 545.348C30.7198 545.348 30.2466 545.825 30.2466 546.408C30.2466 546.994 30.7198 547.467 31.306 547.467C31.8921 547.467 32.3654 546.99 32.3654 546.408Z" fill="#FF0000"/>
<path d="M31.306 546.408H32.3654M32.3654 546.408C32.3654 545.825 31.8921 545.348 31.306 545.348C30.7198 545.348 30.2466 545.825 30.2466 546.408C30.2466 546.994 30.7198 547.467 31.306 547.467C31.8921 547.467 32.3654 546.99 32.3654 546.408Z" stroke="black" stroke-width="0.2876" stroke-miterlimit="22.9256"/>
<path d="M35.012 542.701L35.5399 542.174" stroke="#FF0000" stroke-width="0.2876" stroke-miterlimit="22.9256"/>
<path d="M8.53461 599.894L15.9467 591.95" stroke="#FF0000" stroke-width="0.2876" stroke-miterlimit="22.9256"/>
<path d="M21.2437 588.244C21.2437 587.662 20.7704 587.185 20.1843 587.185C19.5981 587.185 19.1249 587.662 19.1249 588.244C19.1249 588.827 19.5981 589.304 20.1843 589.304C20.7704 589.304 21.2437 588.827 21.2437 588.244Z" fill="#FF0000"/>
<path d="M20.1843 588.244H21.2437M21.2437 588.244C21.2437 587.662 20.7704 587.185 20.1843 587.185C19.5981 587.185 19.1249 587.662 19.1249 588.244C19.1249 588.827 19.5981 589.304 20.1843 589.304C20.7704 589.304 21.2437 588.827 21.2437 588.244Z" stroke="black" stroke-width="0.2876" stroke-miterlimit="22.9256"/>
<path d="M23.8903 584.535L35.5399 572.885" stroke="#FF0000" stroke-width="0.2876" stroke-miterlimit="22.9256"/>
<path d="M9.594 630.077C9.594 629.495 9.12073 629.018 8.53461 629.018C7.95213 629.018 7.47522 629.495 7.47522 630.077C7.47522 630.66 7.95213 631.137 8.53461 631.137C9.12073 631.137 9.594 630.66 9.594 630.077Z" fill="#FF0000"/>
<path d="M8.53461 630.077H9.594M9.594 630.077C9.594 629.495 9.12073 629.018 8.53461 629.018C7.95213 629.018 7.47522 629.495 7.47522 630.077C7.47522 630.66 7.95213 631.137 8.53461 631.137C9.12073 631.137 9.594 630.66 9.594 630.077Z" stroke="black" stroke-width="0.2876" stroke-miterlimit="22.9256"/>
<path d="M12.2407 626.372L31.306 607.306" stroke="#FF0000" stroke-width="0.2876" stroke-miterlimit="22.9256"/>
<path d="M36.0714 603.6C36.0714 603.017 35.5945 602.541 35.012 602.541C34.4259 602.541 33.9526 603.017 33.9526 603.6C33.9526 604.186 34.4259 604.659 35.012 604.659C35.5945 604.659 36.0714 604.182 36.0714 603.6Z" fill="#FF0000"/>
<path d="M35.012 603.6H36.0714M36.0714 603.6C36.0714 603.017 35.5945 602.541 35.012 602.541C34.4259 602.541 33.9526 603.017 33.9526 603.6C33.9526 604.186 34.4259 604.659 35.012 604.659C35.5945 604.659 36.0714 604.182 36.0714 603.6Z" stroke="black" stroke-width="0.2876" stroke-miterlimit="22.9256"/>
<path d="M27.5963 641.727L35.5399 633.783" stroke="#FF0000" stroke-width="0.2876" stroke-miterlimit="22.9256"/>
<path d="M35.5399 246.156V643.846H8.53461V246.156" stroke="#FF0000" stroke-width="0.2876" stroke-miterlimit="22.9256"/>
<path d="M290.784 123.832V218.623" stroke="black" stroke-width="0.2876" stroke-miterlimit="22.9256"/>
<path d="M304.552 110.063V205.383" stroke="black" stroke-width="0.2876" stroke-miterlimit="22.9256"/>
<path d="M174.811 110.063L174.331 0.97876" stroke="black" stroke-width="0.2876" stroke-miterlimit="22.9256"/>
<path d="M161.574 116.947V14.7471" stroke="black" stroke-width="0.2876" stroke-miterlimit="22.9256"/>
<path d="M174.331 0.97876H117.091" stroke="black" stroke-width="0.2876" stroke-miterlimit="22.9256"/>
<path d="M161.574 14.7471H117.091" stroke="black" stroke-width="0.2876" stroke-miterlimit="22.9256"/>
<path d="M49.3083 14.7471H42.4241" stroke="black" stroke-width="0.2876" stroke-miterlimit="22.9256"/>
<path d="M154.69 123.832H290.783" stroke="black" stroke-width="0.2876" stroke-miterlimit="22.9256"/>
<path d="M147.806 116.947H161.574" stroke="black" stroke-width="0.2876" stroke-miterlimit="22.9256"/>
<path d="M174.811 110.063H304.552" stroke="black" stroke-width="0.2876" stroke-miterlimit="22.9256"/>
<path d="M117.091 14.7472V0.97876" stroke="black" stroke-width="0.2876" stroke-miterlimit="22.9256"/>
<path d="M49.3083 14.7472V0.97876" stroke="black" stroke-width="0.2876" stroke-miterlimit="22.9256"/>
<path d="M246.3 429.38V742.871" stroke="black" stroke-width="0.2876" stroke-miterlimit="22.9256"/>
<path d="M239.947 429.38V742.871" stroke="black" stroke-width="0.2876" stroke-miterlimit="22.9256"/>
<path d="M436.935 375.365H477.713H436.935Z" stroke="black" stroke-width="0.2876" stroke-miterlimit="22.9256"/>
<path d="M317.789 375.365H297.668" stroke="black" stroke-width="0.2876" stroke-miterlimit="22.9256"/>
<path d="M195.464 375.365H35.5399" stroke="black" stroke-width="0.2876" stroke-miterlimit="22.9256"/>
<path d="M436.935 382.25H477.713H436.935Z" stroke="black" stroke-width="0.2876" stroke-miterlimit="22.9256"/>
<path d="M317.789 382.25H293.43" stroke="black" stroke-width="0.2876" stroke-miterlimit="22.9256"/>
<path d="M192.817 382.25H35.5399" stroke="black" stroke-width="0.2876" stroke-miterlimit="22.9256"/>
<path d="M290.784 218.623V273.165" stroke="black" stroke-width="0.2876" stroke-miterlimit="22.9256"/>
<path d="M297.668 218.623V273.165" stroke="black" stroke-width="0.2876" stroke-miterlimit="22.9256"/>
<path d="M436.935 382.25H432.17" stroke="#008AB8" stroke-width="0.2876" stroke-miterlimit="22.9256"/>
<path d="M103.854 742.871H98.5572" stroke="#008AB8" stroke-width="0.2876" stroke-miterlimit="22.9256"/>
<path d="M436.935 382.25H432.17" stroke="#008AB8" stroke-width="0.2876" stroke-miterlimit="22.9256"/>
<path d="M436.935 375.365H432.17" stroke="#008AB8" stroke-width="0.2876" stroke-miterlimit="22.9256"/>
<path d="M436.935 375.365H432.17" stroke="#008AB8" stroke-width="0.2876" stroke-miterlimit="22.9256"/>
<path d="M225.12 280.05H219.823" stroke="#008AB8" stroke-width="0.2876" stroke-miterlimit="22.9256"/>
<path d="M147.806 116.947V184.73" stroke="black" stroke-width="0.2876" stroke-miterlimit="22.9256"/>
<path d="M147.806 232.392V280.05" stroke="black" stroke-width="0.2876" stroke-miterlimit="22.9256"/>
<path d="M154.69 123.832V184.73" stroke="black" stroke-width="0.2876" stroke-miterlimit="22.9256"/>
<path d="M154.69 232.392V273.165" stroke="black" stroke-width="0.2876" stroke-miterlimit="22.9256"/>
<path d="M290.783 280.05H147.806" stroke="black" stroke-width="0.2876" stroke-miterlimit="22.9256"/>
<path d="M290.783 273.165H154.69" stroke="black" stroke-width="0.2876" stroke-miterlimit="22.9256"/>
<path d="M290.784 375.365V354.716" stroke="black" stroke-width="0.2876" stroke-miterlimit="22.9256"/>
<path d="M290.784 293.818V280.05" stroke="black" stroke-width="0.2876" stroke-miterlimit="22.9256"/>
<path d="M297.668 375.365V354.716" stroke="black" stroke-width="0.2876" stroke-miterlimit="22.9256"/>
<path d="M297.668 293.818V273.165" stroke="black" stroke-width="0.2876" stroke-miterlimit="22.9256"/>
<path d="M154.69 232.392H147.806" stroke="black" stroke-width="0.2876" stroke-miterlimit="22.9256"/>
<path d="M154.69 184.73H147.806" stroke="black" stroke-width="0.2876" stroke-miterlimit="22.9256"/>
<path d="M436.935 375.365V382.249" stroke="black" stroke-width="0.2876" stroke-miterlimit="22.9256"/>
<path d="M317.789 375.365V382.249" stroke="black" stroke-width="0.2876" stroke-miterlimit="22.9256"/>
<path d="M317.789 382.25H436.935" stroke="#00BFFF" stroke-width="0.2876" stroke-miterlimit="22.9256"/>
<path d="M436.935 375.365H317.789" stroke="#00BFFF" stroke-width="0.2876" stroke-miterlimit="22.9256"/>
<path d="M317.789 378.543H436.935" stroke="#00BFFF" stroke-width="0.2876" stroke-miterlimit="22.9256"/>
<path d="M250.006 425.674L246.3 429.38" stroke="black" stroke-width="0.2876" stroke-miterlimit="22.9256"/>
<path d="M290.783 375.365L288.665 377.484" stroke="black" stroke-width="0.2876" stroke-miterlimit="22.9256"/>
<path d="M245.241 420.908L243.122 423.027" stroke="black" stroke-width="0.2876" stroke-miterlimit="22.9256"/>
<path d="M293.43 382.25L288.665 377.484" stroke="black" stroke-width="0.2876" stroke-miterlimit="22.9256"/>
<path d="M250.006 425.674L245.241 420.908" stroke="black" stroke-width="0.2876" stroke-miterlimit="22.9256"/>
<path d="M235.71 425.674L239.947 429.38" stroke="black" stroke-width="0.2876" stroke-miterlimit="22.9256"/>
<path d="M195.464 375.365L197.583 377.484" stroke="black" stroke-width="0.2876" stroke-miterlimit="22.9256"/>
<path d="M241.007 420.908L243.122 423.027" stroke="black" stroke-width="0.2876" stroke-miterlimit="22.9256"/>
<path d="M192.817 382.25L197.583 377.484" stroke="black" stroke-width="0.2876" stroke-miterlimit="22.9256"/>
<path d="M235.71 425.674L241.007 420.908" stroke="black" stroke-width="0.2876" stroke-miterlimit="22.9256"/>
<path d="M297.668 354.716H290.784" stroke="black" stroke-width="0.2876" stroke-miterlimit="22.9256"/>
<path d="M297.668 293.818H290.784" stroke="black" stroke-width="0.2876" stroke-miterlimit="22.9256"/>
<path d="M86.376 756.108H21.7715" stroke="black" stroke-width="0.2876" stroke-miterlimit="22.9256"/>
<path d="M86.376 742.871H35.5399" stroke="black" stroke-width="0.2876" stroke-miterlimit="22.9256"/>
<path d="M317.789 756.108H209.232" stroke="black" stroke-width="0.2876" stroke-miterlimit="22.9256"/>
<path d="M317.789 742.871H283.899" stroke="black" stroke-width="0.2876" stroke-miterlimit="22.9256"/>
<path d="M256.89 742.871H246.3" stroke="black" stroke-width="0.2876" stroke-miterlimit="22.9256"/>
<path d="M239.947 742.871H209.232" stroke="black" stroke-width="0.2876" stroke-miterlimit="22.9256"/>
<path d="M86.376 742.871V756.108" stroke="black" stroke-width="0.2876" stroke-miterlimit="22.9256"/>
<path d="M209.232 742.871V756.108" stroke="black" stroke-width="0.2876" stroke-miterlimit="22.9256"/>
<path d="M209.232 749.756H86.376" stroke="#00BFFF" stroke-width="0.2876" stroke-miterlimit="22.9256"/>
<path d="M317.789 742.871V756.108" stroke="black" stroke-width="0.2876" stroke-miterlimit="22.9256"/>
<path d="M440.642 742.871V756.108" stroke="black" stroke-width="0.2876" stroke-miterlimit="22.9256"/>
<path d="M317.789 742.871H440.642" stroke="#00BFFF" stroke-width="0.2876" stroke-miterlimit="22.9256"/>
<path d="M440.642 749.756H317.789" stroke="#00BFFF" stroke-width="0.2876" stroke-miterlimit="22.9256"/>
<path d="M317.789 756.108H440.642" stroke="#00BFFF" stroke-width="0.2876" stroke-miterlimit="22.9256"/>
<path d="M317.789 756.108H209.232" stroke="black" stroke-width="0.2876" stroke-miterlimit="22.9256"/>
<path d="M246.3 742.871H317.789H270.131" stroke="black" stroke-width="0.2876" stroke-miterlimit="22.9256"/>
<path d="M239.947 742.871H209.232" stroke="black" stroke-width="0.2876" stroke-miterlimit="22.9256"/>
<path d="M86.376 742.871V756.108" stroke="black" stroke-width="0.2876" stroke-miterlimit="22.9256"/>
<path d="M209.232 742.871V756.108" stroke="black" stroke-width="0.2876" stroke-miterlimit="22.9256"/>
<path d="M209.232 749.756H86.376" stroke="#00BFFF" stroke-width="0.2876" stroke-miterlimit="22.9256"/>
<path d="M317.789 742.871V756.108" stroke="black" stroke-width="0.2876" stroke-miterlimit="22.9256"/>
<path d="M440.642 742.871V756.108" stroke="black" stroke-width="0.2876" stroke-miterlimit="22.9256"/>
<path d="M317.789 742.871H440.642" stroke="#00BFFF" stroke-width="0.2876" stroke-miterlimit="22.9256"/>
<path d="M440.642 749.756H317.789" stroke="#00BFFF" stroke-width="0.2876" stroke-miterlimit="22.9256"/>
<path d="M317.789 756.108H440.642" stroke="#00BFFF" stroke-width="0.2876" stroke-miterlimit="22.9256"/>
<path d="M209.232 742.871H86.376" stroke="#00BFFF" stroke-width="0.2876" stroke-miterlimit="22.9256"/>
<path d="M209.232 756.108H86.376" stroke="#00BFFF" stroke-width="0.2876" stroke-miterlimit="22.9256"/>
<path d="M1.65039 681.445H42.4241" stroke="black" stroke-width="0.2876" stroke-miterlimit="22.9256"/>
<path d="M42.4241 640.668H1.65039L42.4241 681.441V640.668ZM1.65039 640.668L42.4241 681.441H1.65039V640.668Z" fill="#0000FF"/>
<path d="M1.65039 640.668H42.4241V681.441M1.65039 640.668L42.4241 681.441M1.65039 640.668V681.441H42.4241" stroke="#0000FF" stroke-width="0.2876" stroke-miterlimit="22.9256"/>
<path d="M42.4241 640.668H1.65039V681.445H42.4241V640.668Z" stroke="black" stroke-width="0.2876" stroke-miterlimit="22.9256"/>
<path d="M1.65039 681.445L42.4241 640.668" stroke="black" stroke-width="0.2876" stroke-miterlimit="22.9256"/>
<path d="M42.4241 681.445L1.65039 640.668" stroke="black" stroke-width="0.2876" stroke-miterlimit="22.9256"/>
<path d="M477.713 681.445H518.487" stroke="black" stroke-width="0.2876" stroke-miterlimit="22.9256"/>
<path d="M518.487 640.668H477.713L518.487 681.441V640.668ZM477.713 640.668L518.487 681.441H477.713V640.668Z" fill="#0000FF"/>
<path d="M477.713 640.668H518.487V681.441M477.713 640.668L518.487 681.441M477.713 640.668V681.441H518.487" stroke="#0000FF" stroke-width="0.2876" stroke-miterlimit="22.9256"/>
<path d="M518.487 640.668H477.713V681.445H518.487V640.668Z" stroke="black" stroke-width="0.2876" stroke-miterlimit="22.9256"/>
<path d="M477.713 681.445L518.487 640.668" stroke="black" stroke-width="0.2876" stroke-miterlimit="22.9256"/>
<path d="M518.487 681.445L477.713 640.668" stroke="black" stroke-width="0.2876" stroke-miterlimit="22.9256"/>
<path d="M1.65039 246.156H42.4241" stroke="black" stroke-width="0.2876" stroke-miterlimit="22.9256"/>
<path d="M42.4241 205.383H1.65039L42.4241 246.156V205.383ZM1.65039 205.383L42.4241 246.156H1.65039V205.383Z" fill="#0000FF"/>
<path d="M1.65039 205.383H42.4241V246.156M1.65039 205.383L42.4241 246.156M1.65039 205.383V246.156H42.4241" stroke="#0000FF" stroke-width="0.2876" stroke-miterlimit="22.9256"/>
<path d="M42.4241 205.383H1.65039V246.156H42.4241V205.383Z" stroke="black" stroke-width="0.2876" stroke-miterlimit="22.9256"/>
<path d="M1.65039 246.156L42.4241 205.383" stroke="black" stroke-width="0.2876" stroke-miterlimit="22.9256"/>
<path d="M42.4241 246.156L1.65039 205.383" stroke="black" stroke-width="0.2876" stroke-miterlimit="22.9256"/>
<path d="M477.713 246.156H518.487" stroke="black" stroke-width="0.2876" stroke-miterlimit="22.9256"/>
<path d="M518.487 205.383H477.713L518.487 246.156V205.383ZM477.713 205.383L518.487 246.156H477.713V205.383Z" fill="#0000FF"/>
<path d="M477.713 205.383H518.487V246.156M477.713 205.383L518.487 246.156M477.713 205.383V246.156H518.487" stroke="#0000FF" stroke-width="0.2876" stroke-miterlimit="22.9256"/>
<path d="M518.487 205.383H477.713V246.156H518.487V205.383Z" stroke="black" stroke-width="0.2876" stroke-miterlimit="22.9256"/>
<path d="M477.713 246.156L518.487 205.383" stroke="black" stroke-width="0.2876" stroke-miterlimit="22.9256"/>
<path d="M518.487 246.156L477.713 205.383" stroke="black" stroke-width="0.2876" stroke-miterlimit="22.9256"/>
<path d="M28.6557 0.97876H117.091" stroke="black" stroke-width="0.2876" stroke-miterlimit="22.9256"/>
<path d="M229.353 253.041H147.806V280.049H229.353V253.041Z" stroke="#5CB800" stroke-width="0.2876" stroke-miterlimit="22.9256"/>
<path d="M156.277 273.165H166.868" stroke="#5CB800" stroke-width="0.2876" stroke-miterlimit="22.9256"/>
<path d="M168.459 272.106V260.984" stroke="#5CB800" stroke-width="0.2876" stroke-miterlimit="22.9256"/>
<path d="M166.868 259.925H156.277" stroke="#5CB800" stroke-width="0.2876" stroke-miterlimit="22.9256"/>
<path d="M154.69 260.984V272.106" stroke="#5CB800" stroke-width="0.2876" stroke-miterlimit="22.9256"/>
<path d="M155.218 271.84C155.218 272.572 155.811 273.165 156.543 273.165" stroke="#5CB800" stroke-width="0.2876" stroke-miterlimit="22.9256"/>
<path d="M167.133 273.165C167.865 273.165 168.455 272.572 168.455 271.84" stroke="#5CB800" stroke-width="0.2876" stroke-miterlimit="22.9256"/>
<path d="M156.543 259.397C155.811 259.397 155.218 259.987 155.218 260.722" stroke="#5CB800" stroke-width="0.2876" stroke-miterlimit="22.9256"/>
<path d="M168.459 260.722C168.459 259.99 167.865 259.397 167.137 259.397" stroke="#5CB800" stroke-width="0.2876" stroke-miterlimit="22.9256"/>
<path d="M209.232 260.984V272.106" stroke="#5CB800" stroke-width="0.2876" stroke-miterlimit="22.9256"/>
<path d="M210.292 273.165H221.41" stroke="#5CB800" stroke-width="0.2876" stroke-miterlimit="22.9256"/>
<path d="M222.473 272.106V260.984" stroke="#5CB800" stroke-width="0.2876" stroke-miterlimit="22.9256"/>
<path d="M221.41 259.925H210.292" stroke="#5CB800" stroke-width="0.2876" stroke-miterlimit="22.9256"/>
<path d="M209.232 271.84C209.232 272.572 209.826 273.165 210.558 273.165" stroke="#5CB800" stroke-width="0.2876" stroke-miterlimit="22.9256"/>
<path d="M221.676 273.165C222.407 273.165 223.001 272.572 223.001 271.84" stroke="#5CB800" stroke-width="0.2876" stroke-miterlimit="22.9256"/>
<path d="M210.558 259.397C209.826 259.397 209.232 259.987 209.232 260.722" stroke="#5CB800" stroke-width="0.2876" stroke-miterlimit="22.9256"/>
<path d="M223.001 260.722C223.001 259.99 222.407 259.397 221.676 259.397" stroke="#5CB800" stroke-width="0.2876" stroke-miterlimit="22.9256"/>
<path d="M175.339 271.84C175.339 272.572 175.933 273.165 176.664 273.165" stroke="#5CB800" stroke-width="0.2876" stroke-miterlimit="22.9256"/>
<path d="M176.664 259.397C175.933 259.397 175.339 259.987 175.339 260.722" stroke="#5CB800" stroke-width="0.2876" stroke-miterlimit="22.9256"/>
<path d="M201.023 273.165C201.755 273.165 202.348 272.572 202.348 271.84" stroke="#5CB800" stroke-width="0.2876" stroke-miterlimit="22.9256"/>
<path d="M202.348 260.722C202.348 259.99 201.755 259.397 201.023 259.397" stroke="#5CB800" stroke-width="0.2876" stroke-miterlimit="22.9256"/>
<path d="M174.811 260.984V272.106" stroke="#5CB800" stroke-width="0.2876" stroke-miterlimit="22.9256"/>
<path d="M176.402 273.165H200.761" stroke="#5CB800" stroke-width="0.2876" stroke-miterlimit="22.9256"/>
<path d="M202.348 272.106V260.984" stroke="#5CB800" stroke-width="0.2876" stroke-miterlimit="22.9256"/>
<path d="M200.761 259.925H176.402" stroke="#5CB800" stroke-width="0.2876" stroke-miterlimit="22.9256"/>
<path d="M229.353 253.041H147.806V280.049H229.353V253.041Z" stroke="#5CB800" stroke-width="0.2876" stroke-miterlimit="22.9256"/>
<path d="M156.277 273.165H166.868" stroke="#5CB800" stroke-width="0.2876" stroke-miterlimit="22.9256"/>
<path d="M168.459 272.106V260.984" stroke="#5CB800" stroke-width="0.2876" stroke-miterlimit="22.9256"/>
<path d="M166.868 259.925H156.277" stroke="#5CB800" stroke-width="0.2876" stroke-miterlimit="22.9256"/>
<path d="M154.69 260.984V272.106" stroke="#5CB800" stroke-width="0.2876" stroke-miterlimit="22.9256"/>
<path d="M155.218 271.84C155.218 272.572 155.811 273.165 156.543 273.165" stroke="#5CB800" stroke-width="0.2876" stroke-miterlimit="22.9256"/>
<path d="M167.133 273.165C167.865 273.165 168.455 272.572 168.455 271.84" stroke="#5CB800" stroke-width="0.2876" stroke-miterlimit="22.9256"/>
<path d="M156.543 259.397C155.811 259.397 155.218 259.987 155.218 260.722" stroke="#5CB800" stroke-width="0.2876" stroke-miterlimit="22.9256"/>
<path d="M168.459 260.722C168.459 259.99 167.865 259.397 167.137 259.397" stroke="#5CB800" stroke-width="0.2876" stroke-miterlimit="22.9256"/>
<path d="M209.232 260.984V272.106" stroke="#5CB800" stroke-width="0.2876" stroke-miterlimit="22.9256"/>
<path d="M210.292 273.165H221.41" stroke="#5CB800" stroke-width="0.2876" stroke-miterlimit="22.9256"/>
<path d="M222.473 272.106V260.984" stroke="#5CB800" stroke-width="0.2876" stroke-miterlimit="22.9256"/>
<path d="M221.41 259.925H210.292" stroke="#5CB800" stroke-width="0.2876" stroke-miterlimit="22.9256"/>
<path d="M209.232 271.84C209.232 272.572 209.826 273.165 210.558 273.165" stroke="#5CB800" stroke-width="0.2876" stroke-miterlimit="22.9256"/>
<path d="M221.676 273.165C222.407 273.165 223.001 272.572 223.001 271.84" stroke="#5CB800" stroke-width="0.2876" stroke-miterlimit="22.9256"/>
<path d="M210.558 259.397C209.826 259.397 209.232 259.987 209.232 260.722" stroke="#5CB800" stroke-width="0.2876" stroke-miterlimit="22.9256"/>
<path d="M223.001 260.722C223.001 259.99 222.407 259.397 221.676 259.397" stroke="#5CB800" stroke-width="0.2876" stroke-miterlimit="22.9256"/>
<path d="M175.339 271.84C175.339 272.572 175.933 273.165 176.664 273.165" stroke="#5CB800" stroke-width="0.2876" stroke-miterlimit="22.9256"/>
<path d="M176.664 259.397C175.933 259.397 175.339 259.987 175.339 260.722" stroke="#5CB800" stroke-width="0.2876" stroke-miterlimit="22.9256"/>
<path d="M201.023 273.165C201.755 273.165 202.348 272.572 202.348 271.84" stroke="#5CB800" stroke-width="0.2876" stroke-miterlimit="22.9256"/>
<path d="M202.348 260.722C202.348 259.99 201.755 259.397 201.023 259.397" stroke="#5CB800" stroke-width="0.2876" stroke-miterlimit="22.9256"/>
<path d="M174.811 260.984V272.106" stroke="#5CB800" stroke-width="0.2876" stroke-miterlimit="22.9256"/>
<path d="M176.402 273.165H200.761" stroke="#5CB800" stroke-width="0.2876" stroke-miterlimit="22.9256"/>
<path d="M202.348 272.106V260.984" stroke="#5CB800" stroke-width="0.2876" stroke-miterlimit="22.9256"/>
<path d="M200.761 259.925H176.402" stroke="#5CB800" stroke-width="0.2876" stroke-miterlimit="22.9256"/>
<path d="M222.473 260.984L218.763 270.519L210.292 273.165" stroke="#5CB800" stroke-width="0.2876" stroke-miterlimit="22.9256"/>
<path d="M202.348 260.984L198.114 270.519L176.402 273.165" stroke="#5CB800" stroke-width="0.2876" stroke-miterlimit="22.9256"/>
<path d="M168.459 260.984L164.221 270.519L156.277 273.165" stroke="#5CB800" stroke-width="0.2876" stroke-miterlimit="22.9256"/>
<path d="M457.588 300.702V382.25H484.597V300.702H457.588Z" stroke="#5CB800" stroke-width="0.2876" stroke-miterlimit="22.9256"/>
<path d="M477.713 373.778V363.188" stroke="#5CB800" stroke-width="0.2876" stroke-miterlimit="22.9256"/>
<path d="M476.653 361.597H465.532" stroke="#5CB800" stroke-width="0.2876" stroke-miterlimit="22.9256"/>
<path d="M464.472 363.188V373.778" stroke="#5CB800" stroke-width="0.2876" stroke-miterlimit="22.9256"/>
<path d="M465.532 375.365H476.653" stroke="#5CB800" stroke-width="0.2876" stroke-miterlimit="22.9256"/>
<path d="M476.919 374.838C477.651 374.838 478.241 374.244 478.241 373.516" stroke="#5CB800" stroke-width="0.2876" stroke-miterlimit="22.9256"/>
<path d="M478.241 362.922C478.241 362.19 477.647 361.597 476.919 361.597" stroke="#5CB800" stroke-width="0.2876" stroke-miterlimit="22.9256"/>
<path d="M464.472 373.512C464.472 374.244 465.066 374.834 465.797 374.834" stroke="#5CB800" stroke-width="0.2876" stroke-miterlimit="22.9256"/>
<path d="M465.797 361.597C465.066 361.597 464.472 362.19 464.472 362.922" stroke="#5CB800" stroke-width="0.2876" stroke-miterlimit="22.9256"/>
<path d="M465.532 320.823H476.653" stroke="#5CB800" stroke-width="0.2876" stroke-miterlimit="22.9256"/>
<path d="M477.713 319.764V308.646" stroke="#5CB800" stroke-width="0.2876" stroke-miterlimit="22.9256"/>
<path d="M476.653 307.586H465.532" stroke="#5CB800" stroke-width="0.2876" stroke-miterlimit="22.9256"/>
<path d="M464.472 308.646V319.764" stroke="#5CB800" stroke-width="0.2876" stroke-miterlimit="22.9256"/>
<path d="M476.919 320.823C477.651 320.823 478.241 320.23 478.241 319.502" stroke="#5CB800" stroke-width="0.2876" stroke-miterlimit="22.9256"/>
<path d="M478.241 308.38C478.241 307.648 477.647 307.055 476.919 307.055" stroke="#5CB800" stroke-width="0.2876" stroke-miterlimit="22.9256"/>
<path d="M464.472 319.498C464.472 320.23 465.066 320.82 465.797 320.82" stroke="#5CB800" stroke-width="0.2876" stroke-miterlimit="22.9256"/>
<path d="M465.797 307.055C465.066 307.055 464.472 307.648 464.472 308.38" stroke="#5CB800" stroke-width="0.2876" stroke-miterlimit="22.9256"/>
<path d="M476.919 354.716C477.651 354.716 478.241 354.123 478.241 353.391" stroke="#5CB800" stroke-width="0.2876" stroke-miterlimit="22.9256"/>
<path d="M464.472 353.391C464.472 354.123 465.066 354.716 465.797 354.716" stroke="#5CB800" stroke-width="0.2876" stroke-miterlimit="22.9256"/>
<path d="M478.241 329.032C478.241 328.301 477.647 327.711 476.919 327.711" stroke="#5CB800" stroke-width="0.2876" stroke-miterlimit="22.9256"/>
<path d="M465.797 327.708C465.066 327.708 464.472 328.297 464.472 329.029" stroke="#5CB800" stroke-width="0.2876" stroke-miterlimit="22.9256"/>
<path d="M465.532 354.716H476.653" stroke="#5CB800" stroke-width="0.2876" stroke-miterlimit="22.9256"/>
<path d="M477.713 353.657V329.298" stroke="#5CB800" stroke-width="0.2876" stroke-miterlimit="22.9256"/>
<path d="M476.653 327.708H465.532" stroke="#5CB800" stroke-width="0.2876" stroke-miterlimit="22.9256"/>
<path d="M464.472 329.298V353.657" stroke="#5CB800" stroke-width="0.2876" stroke-miterlimit="22.9256"/>
<path d="M457.588 300.702V382.25H484.597V300.702H457.588Z" stroke="#5CB800" stroke-width="0.2876" stroke-miterlimit="22.9256"/>
<path d="M477.713 373.778V363.188" stroke="#5CB800" stroke-width="0.2876" stroke-miterlimit="22.9256"/>
<path d="M476.653 361.597H465.532" stroke="#5CB800" stroke-width="0.2876" stroke-miterlimit="22.9256"/>
<path d="M464.472 363.188V373.778" stroke="#5CB800" stroke-width="0.2876" stroke-miterlimit="22.9256"/>
<path d="M465.532 375.365H476.653" stroke="#5CB800" stroke-width="0.2876" stroke-miterlimit="22.9256"/>
<path d="M476.919 374.838C477.651 374.838 478.241 374.244 478.241 373.516" stroke="#5CB800" stroke-width="0.2876" stroke-miterlimit="22.9256"/>
<path d="M478.241 362.922C478.241 362.19 477.647 361.597 476.919 361.597" stroke="#5CB800" stroke-width="0.2876" stroke-miterlimit="22.9256"/>
<path d="M464.472 373.512C464.472 374.244 465.066 374.834 465.797 374.834" stroke="#5CB800" stroke-width="0.2876" stroke-miterlimit="22.9256"/>
<path d="M465.797 361.597C465.066 361.597 464.472 362.19 464.472 362.922" stroke="#5CB800" stroke-width="0.2876" stroke-miterlimit="22.9256"/>
<path d="M465.532 320.823H476.653" stroke="#5CB800" stroke-width="0.2876" stroke-miterlimit="22.9256"/>
<path d="M477.713 319.764V308.646" stroke="#5CB800" stroke-width="0.2876" stroke-miterlimit="22.9256"/>
<path d="M476.653 307.586H465.532" stroke="#5CB800" stroke-width="0.2876" stroke-miterlimit="22.9256"/>
<path d="M464.472 308.646V319.764" stroke="#5CB800" stroke-width="0.2876" stroke-miterlimit="22.9256"/>
<path d="M476.919 320.823C477.651 320.823 478.241 320.23 478.241 319.502" stroke="#5CB800" stroke-width="0.2876" stroke-miterlimit="22.9256"/>
<path d="M478.241 308.38C478.241 307.648 477.647 307.055 476.919 307.055" stroke="#5CB800" stroke-width="0.2876" stroke-miterlimit="22.9256"/>
<path d="M464.472 319.498C464.472 320.23 465.066 320.82 465.797 320.82" stroke="#5CB800" stroke-width="0.2876" stroke-miterlimit="22.9256"/>
<path d="M465.797 307.055C465.066 307.055 464.472 307.648 464.472 308.38" stroke="#5CB800" stroke-width="0.2876" stroke-miterlimit="22.9256"/>
<path d="M476.919 354.716C477.651 354.716 478.241 354.123 478.241 353.391" stroke="#5CB800" stroke-width="0.2876" stroke-miterlimit="22.9256"/>
<path d="M464.472 353.391C464.472 354.123 465.066 354.716 465.797 354.716" stroke="#5CB800" stroke-width="0.2876" stroke-miterlimit="22.9256"/>
<path d="M478.241 329.032C478.241 328.301 477.647 327.711 476.919 327.711" stroke="#5CB800" stroke-width="0.2876" stroke-miterlimit="22.9256"/>
<path d="M465.797 327.708C465.066 327.708 464.472 328.297 464.472 329.029" stroke="#5CB800" stroke-width="0.2876" stroke-miterlimit="22.9256"/>
<path d="M465.532 354.716H476.653" stroke="#5CB800" stroke-width="0.2876" stroke-miterlimit="22.9256"/>
<path d="M477.713 353.657V329.298" stroke="#5CB800" stroke-width="0.2876" stroke-miterlimit="22.9256"/>
<path d="M476.653 327.708H465.532" stroke="#5CB800" stroke-width="0.2876" stroke-miterlimit="22.9256"/>
<path d="M464.472 329.298V353.657" stroke="#5CB800" stroke-width="0.2876" stroke-miterlimit="22.9256"/>
<path d="M465.532 307.586L475.063 311.292L477.713 319.764" stroke="#5CB800" stroke-width="0.2876" stroke-miterlimit="22.9256"/>
<path d="M465.532 327.708L475.063 331.945L477.713 353.657" stroke="#5CB800" stroke-width="0.2876" stroke-miterlimit="22.9256"/>
<path d="M465.532 361.597L475.063 365.834L477.713 373.778" stroke="#5CB800" stroke-width="0.2876" stroke-miterlimit="22.9256"/>
<path d="M329.97 477.569H323.086V498.222" stroke="black" stroke-width="0.2876" stroke-miterlimit="22.9256"/>
<path d="M335.795 477.569H338.441L339.501 478.628L340.56 480.747L341.088 482.862L341.62 485.513V490.278L341.088 493.456L340.56 495.044L339.501 497.162L338.441 498.222H335.795L334.735 497.162L333.676 495.044L333.148 493.456L332.617 490.278V485.513L333.148 482.862L333.676 480.747L334.735 478.628L335.795 477.569Z" stroke="black" stroke-width="0.2876" stroke-miterlimit="22.9256"/>
<path d="M353.797 482.862L353.269 480.747L352.738 479.688L352.21 478.628L351.15 477.569H349.032L347.444 478.628L346.913 479.688L346.385 480.747L345.857 482.862L345.326 485.513V490.278L345.857 493.456L346.385 495.044L347.444 497.162L349.032 498.222H351.15L352.21 497.162L353.269 495.044L353.797 493.456" stroke="black" stroke-width="0.2876" stroke-miterlimit="22.9256"/>
<path d="M359.622 477.569V498.222" stroke="black" stroke-width="0.2876" stroke-miterlimit="22.9256"/>
<path d="M355.916 477.569H363.86" stroke="black" stroke-width="0.2876" stroke-miterlimit="22.9256"/>
<path d="M367.038 477.569V498.222L374.981 477.569V498.222" stroke="black" stroke-width="0.2876" stroke-miterlimit="22.9256"/>
<path d="M379.747 477.569V498.222" stroke="black" stroke-width="0.2876" stroke-miterlimit="22.9256"/>
<path d="M379.747 487.631H387.69" stroke="black" stroke-width="0.2876" stroke-miterlimit="22.9256"/>
<path d="M387.69 498.222V477.569" stroke="black" stroke-width="0.2876" stroke-miterlimit="22.9256"/>
<path d="M392.456 491.337H398.281" stroke="black" stroke-width="0.2876" stroke-miterlimit="22.9256"/>
<path d="M390.865 498.222L395.634 477.569L399.868 498.222" stroke="black" stroke-width="0.2876" stroke-miterlimit="22.9256"/>
<path d="M401.987 498.222L405.693 487.631" stroke="black" stroke-width="0.2876" stroke-miterlimit="22.9256"/>
<path d="M409.93 498.222V477.569H404.633L403.046 478.628L402.514 479.688L401.987 481.807V483.394L402.514 485.513L403.046 486.572L404.633 487.631H409.93" stroke="black" stroke-width="0.2876" stroke-miterlimit="22.9256"/>
<path d="M332.085 515.696L333.148 514.637L335.263 511.99V532.111" stroke="black" stroke-width="0.2876" stroke-miterlimit="22.9256"/>
<path d="M341.62 511.99H349.563L343.735 532.111" stroke="black" stroke-width="0.2876" stroke-miterlimit="22.9256"/>
<path d="M354.329 531.052L353.797 532.111L353.269 531.052L353.797 529.992L354.329 531.052ZM354.329 531.052V533.171L353.797 535.289L353.269 535.821" stroke="black" stroke-width="0.2876" stroke-miterlimit="22.9256"/>
<path d="M359.094 511.99H367.038L361.213 532.111" stroke="black" stroke-width="0.2876" stroke-miterlimit="22.9256"/>
<path d="M373.39 511.99L371.803 512.518L371.275 514.637V516.756L371.803 518.343L372.862 519.402L375.509 520.462L377.096 521.521L378.156 523.64L378.687 525.227V528.405L378.156 529.993L377.628 531.052L376.041 532.111H373.39L371.803 531.052L371.275 529.993L370.744 528.405V525.227L371.275 523.64L372.331 521.521L373.922 520.462L376.569 519.402L377.628 518.343L378.156 516.756V514.637L377.628 512.518L376.041 511.99H373.39Z" stroke="black" stroke-width="0.2876" stroke-miterlimit="22.9256"/>
<path d="M392.984 532.111V518.343L388.75 529.465L384.512 518.343V532.111" stroke="black" stroke-width="0.2876" stroke-miterlimit="22.9256"/>
<path d="M395.634 516.756V515.696L396.162 513.577L396.693 512.518L398.281 511.99H400.399L401.459 512.518L401.987 513.577L402.514 515.696V517.815L401.987 519.402L400.927 522.58L395.102 532.111H403.574" stroke="black" stroke-width="0.2876" stroke-miterlimit="22.9256"/>
<path d="M108.088 492.925L107.56 490.806L107.029 489.75L106.501 488.691L104.914 488.159H102.795L101.735 488.691L101.204 489.75L100.676 490.806L100.148 492.925L99.0851 495.572V500.341L100.148 503.515L100.676 505.634L101.735 507.225L102.795 508.281H104.914L106.501 507.225L107.56 505.634L108.088 503.515" stroke="black" stroke-width="0.2876" stroke-miterlimit="22.9256"/>
<path d="M111.798 508.281V488.159H119.738V508.281" stroke="black" stroke-width="0.2876" stroke-miterlimit="22.9256"/>
<path d="M124.503 501.4H130.332" stroke="black" stroke-width="0.2876" stroke-miterlimit="22.9256"/>
<path d="M122.388 508.281L127.153 488.159L131.919 508.281" stroke="black" stroke-width="0.2876" stroke-miterlimit="22.9256"/>
<path d="M141.981 508.281V488.159H135.625V504.574L135.097 506.693L134.038 507.225L132.978 508.281" stroke="black" stroke-width="0.2876" stroke-miterlimit="22.9256"/>
<path d="M146.747 488.159V508.281H152.571L153.631 507.225L154.159 506.693L154.69 504.574V500.341L154.159 498.75L153.631 497.694L152.571 496.631H146.747" stroke="black" stroke-width="0.2876" stroke-miterlimit="22.9256"/>
<path d="M158.396 488.159V508.281" stroke="black" stroke-width="0.2876" stroke-miterlimit="22.9256"/>
<path d="M158.396 497.694H166.34" stroke="black" stroke-width="0.2876" stroke-miterlimit="22.9256"/>
<path d="M166.34 508.281V488.159" stroke="black" stroke-width="0.2876" stroke-miterlimit="22.9256"/>
<path d="M170.046 508.28L173.752 497.694" stroke="black" stroke-width="0.2876" stroke-miterlimit="22.9256"/>
<path d="M177.989 508.281V488.159H172.693L171.105 488.691L170.574 489.75L170.046 491.865V493.984L170.574 495.572L171.105 496.631L172.693 497.694H177.989" stroke="black" stroke-width="0.2876" stroke-miterlimit="22.9256"/>
<path d="M104.382 525.759L105.441 524.699L107.029 522.052V542.174" stroke="black" stroke-width="0.2876" stroke-miterlimit="22.9256"/>
<path d="M120.797 522.052H114.972L113.917 530.524L114.972 529.992L116.563 528.933H118.15L120.269 529.992L121.329 531.583L121.856 534.758V536.349L121.329 539.527L120.269 541.642L118.15 542.174H116.563L114.972 541.642L113.917 540.586L113.385 538.468" stroke="black" stroke-width="0.2876" stroke-miterlimit="22.9256"/>
<path d="M126.626 541.642L126.094 542.174L125.035 541.642L126.094 540.586L126.626 541.642ZM126.626 541.642V543.233L126.094 545.352L125.035 546.408" stroke="black" stroke-width="0.2876" stroke-miterlimit="22.9256"/>
<path d="M138.272 524.699L137.744 523.112L135.625 522.052H134.565L132.978 523.112L131.919 525.759L130.859 530.524V535.821L131.919 539.527L132.978 541.642L134.565 542.174H135.097L136.684 541.642L138.272 539.527L138.803 536.349V535.821L138.272 532.643L136.684 530.524L135.097 529.992H134.565L132.978 530.524L131.919 532.643L130.859 535.821" stroke="black" stroke-width="0.2876" stroke-miterlimit="22.9256"/>
<path d="M146.215 522.052L144.628 523.112L143.568 525.759L142.509 530.524V533.698L143.568 538.468L144.628 541.642L146.215 542.174H147.274L149.393 541.642L150.453 538.468L150.981 533.698V530.524L150.453 525.759L149.393 523.112L147.274 522.052H146.215Z" stroke="black" stroke-width="0.2876" stroke-miterlimit="22.9256"/>
<path d="M164.753 542.174V528.933L161.043 539.527L156.809 528.933V542.174" stroke="black" stroke-width="0.2876" stroke-miterlimit="22.9256"/>
<path d="M167.927 526.818V525.759L168.459 524.168L168.987 523.112L170.046 522.052H172.693L173.752 523.112L174.283 524.168L174.811 525.759V527.877L174.283 529.992L173.224 532.643L167.399 542.174H175.339" stroke="black" stroke-width="0.2876" stroke-miterlimit="22.9256"/>
<path d="M123.447 295.937L114.972 316.589" stroke="black" stroke-width="0.2876" stroke-miterlimit="22.9256"/>
<path d="M114.972 295.937L123.447 316.589" stroke="black" stroke-width="0.2876" stroke-miterlimit="22.9256"/>
<path d="M129.272 295.937H131.391L132.447 296.993L133.506 299.111L134.038 300.702L135.097 303.88V308.646L134.038 311.82L133.506 313.411L132.447 315.526L131.391 316.589H129.272L127.681 315.526L126.626 313.411L126.094 311.82L125.562 308.646V303.88L126.094 300.702L126.626 299.111L127.681 296.993L129.272 295.937Z" stroke="black" stroke-width="0.2876" stroke-miterlimit="22.9256"/>
<path d="M146.215 316.589V295.937H139.331V312.88L138.803 314.467L138.272 315.526L137.212 316.589" stroke="black" stroke-width="0.2876" stroke-miterlimit="22.9256"/>
<path d="M157.865 316.589V295.937H150.981V312.88L150.453 314.467L149.921 315.526L148.865 316.589" stroke="black" stroke-width="0.2876" stroke-miterlimit="22.9256"/>
<path d="M103.323 334.064L104.382 333.004L105.969 330.354V350.479" stroke="black" stroke-width="0.2876" stroke-miterlimit="22.9256"/>
<path d="M112.857 335.119V334.064L113.385 331.945L113.917 330.886L115.504 330.354H117.623L118.682 330.886L119.21 331.945L120.269 334.064V336.179L119.21 337.77L118.15 340.948L112.326 350.479H120.797" stroke="black" stroke-width="0.2876" stroke-miterlimit="22.9256"/>
<path d="M125.035 349.419L124.503 350.479L123.975 349.419L124.503 348.36L125.035 349.419ZM125.035 349.419V351.538L124.503 353.657L123.975 354.185" stroke="black" stroke-width="0.2876" stroke-miterlimit="22.9256"/>
<path d="M129.8 334.064L130.859 333.004L132.978 330.354V350.479" stroke="black" stroke-width="0.2876" stroke-miterlimit="22.9256"/>
<path d="M140.39 330.354H146.747L143.568 337.77H145.156L146.215 338.829L146.747 339.885L147.275 342.535V344.654L146.747 347.828L145.687 349.419L144.1 350.479H141.981L140.39 349.419L139.862 348.36L139.331 346.773" stroke="black" stroke-width="0.2876" stroke-miterlimit="22.9256"/>
<path d="M161.574 350.479V336.71L157.337 347.829L153.099 336.71V350.479" stroke="black" stroke-width="0.2876" stroke-miterlimit="22.9256"/>
<path d="M164.221 335.119V334.064L164.753 331.945L165.281 330.886L166.868 330.354H168.987L170.046 330.886L170.574 331.945L171.105 334.064V336.179L170.574 337.77L169.518 340.948L163.693 350.479H172.165" stroke="black" stroke-width="0.2876" stroke-miterlimit="22.9256"/>
<path d="M250.006 199.03L249.478 196.911L248.95 195.852L248.419 194.792L246.832 193.733H244.713L243.653 194.792L243.122 195.852L242.594 196.911L241.535 199.03L241.007 201.676V206.442L241.535 209.62L242.594 211.207L243.653 213.326L244.713 214.386H246.832L248.419 213.326L249.478 211.207L250.006 209.62" stroke="black" stroke-width="0.2876" stroke-miterlimit="22.9256"/>
<path d="M261.659 190.027L251.065 221.27" stroke="black" stroke-width="0.2876" stroke-miterlimit="22.9256"/>
<path d="M272.778 193.733L268.54 210.679L268.012 212.267L267.481 213.326L266.425 214.386H265.893" stroke="black" stroke-width="0.2876" stroke-miterlimit="22.9256"/>
<path d="M264.306 193.733L268.54 210.679" stroke="black" stroke-width="0.2876" stroke-miterlimit="22.9256"/>
<path d="M232.004 248.275V228.154L226.179 241.391H235.182" stroke="black" stroke-width="0.2876" stroke-miterlimit="22.9256"/>
<path d="M239.416 247.216L238.356 248.275L237.829 247.216L238.356 246.688L239.416 247.216ZM239.416 247.216V249.334L238.356 251.453L237.829 252.513" stroke="black" stroke-width="0.2876" stroke-miterlimit="22.9256"/>
<path d="M247.36 228.154L245.772 228.682L244.181 231.86L243.653 236.626V239.804L244.181 244.569L245.772 247.216L247.36 248.275H248.419L250.006 247.216L251.597 244.569L252.125 239.804V236.626L251.597 231.86L250.006 228.682L248.419 228.154H247.36Z" stroke="black" stroke-width="0.2876" stroke-miterlimit="22.9256"/>
<path d="M255.303 228.154H263.775L257.95 248.275" stroke="black" stroke-width="0.2876" stroke-miterlimit="22.9256"/>
<path d="M277.543 248.275V235.038L273.309 245.628L269.599 235.038V248.275" stroke="black" stroke-width="0.2876" stroke-miterlimit="22.9256"/>
<path d="M280.721 232.919V231.86L281.249 229.741L281.781 228.682L282.84 228.154H285.487L286.546 228.682L287.077 229.741L287.605 231.86V233.979L287.077 235.566L286.018 238.744L280.19 248.275H288.133" stroke="black" stroke-width="0.2876" stroke-miterlimit="22.9256"/>
<path d="M352.738 336.179L347.444 324.529" stroke="black" stroke-width="0.2876" stroke-miterlimit="22.9256"/>
<path d="M352.738 316.058L344.798 329.298" stroke="black" stroke-width="0.2876" stroke-miterlimit="22.9256"/>
<path d="M344.798 316.058V336.179" stroke="black" stroke-width="0.2876" stroke-miterlimit="22.9256"/>
<path d="M362.8 316.058L358.566 332.473L358.035 334.064L357.507 335.12L356.444 336.179H355.916" stroke="black" stroke-width="0.2876" stroke-miterlimit="22.9256"/>
<path d="M354.857 316.058L358.566 332.473" stroke="black" stroke-width="0.2876" stroke-miterlimit="22.9256"/>
<path d="M372.331 316.058L363.859 336.179" stroke="black" stroke-width="0.2876" stroke-miterlimit="22.9256"/>
<path d="M363.859 316.058L372.331 336.179" stroke="black" stroke-width="0.2876" stroke-miterlimit="22.9256"/>
<path d="M374.981 316.058V336.179" stroke="black" stroke-width="0.2876" stroke-miterlimit="22.9256"/>
<path d="M374.981 325.589H383.453" stroke="black" stroke-width="0.2876" stroke-miterlimit="22.9256"/>
<path d="M383.453 336.179V316.058" stroke="black" stroke-width="0.2876" stroke-miterlimit="22.9256"/>
<path d="M386.631 336.179L390.865 325.589" stroke="black" stroke-width="0.2876" stroke-miterlimit="22.9256"/>
<path d="M395.102 336.179V316.058H389.805L387.69 316.589L387.159 317.645L386.631 319.764V321.883L387.159 323.47L387.69 324.529L389.805 325.589H395.102" stroke="black" stroke-width="0.2876" stroke-miterlimit="22.9256"/>
<path d="M346.913 349.947H341.088L340.56 358.422L341.088 357.363L343.207 356.831H344.798L346.385 357.363L347.444 359.482L347.972 362.656V364.247L347.444 367.425L346.385 369.541L344.798 370.072H343.207L341.088 369.541L340.56 368.481L340.029 366.366" stroke="black" stroke-width="0.2876" stroke-miterlimit="22.9256"/>
<path d="M352.738 369.541L352.21 370.072L351.678 369.541L352.21 368.481L352.738 369.541ZM352.738 369.541V371.132L352.21 373.247L351.678 374.306" stroke="black" stroke-width="0.2876" stroke-miterlimit="22.9256"/>
<path d="M357.507 349.947H365.447L359.622 370.072" stroke="black" stroke-width="0.2876" stroke-miterlimit="22.9256"/>
<path d="M376.041 352.598L375.509 351.007L373.922 349.947H372.863L370.744 351.007L369.684 353.657L369.156 358.422V363.716L369.684 367.425L370.744 369.541L372.863 370.072H373.39L374.981 369.541L376.041 367.425L376.569 364.247V363.716L376.041 360.538L374.981 358.422L373.39 357.363H372.863L370.744 358.422L369.684 360.538L369.156 363.716" stroke="black" stroke-width="0.2876" stroke-miterlimit="22.9256"/>
<path d="M391.396 370.072V356.832L387.159 367.425L383.453 356.832V370.072" stroke="black" stroke-width="0.2876" stroke-miterlimit="22.9256"/>
<path d="M394.043 354.716V353.657L395.102 351.538L395.634 351.007L396.693 349.947H398.808L399.868 351.007L400.927 351.538L401.459 353.657V355.772L400.927 357.363L399.34 360.538L393.515 370.072H401.987" stroke="black" stroke-width="0.2876" stroke-miterlimit="22.9256"/>
<path d="M90.0857 681.445H42.4241V729.103H90.0857V681.445Z" stroke="black" stroke-width="0.2876" stroke-miterlimit="22.9256"/>
<path d="M42.4241 681.445V688.329H49.3083L42.4241 681.445ZM42.4241 688.329H49.3083L42.4241 729.103V688.329Z" fill="black"/>
<path d="M42.4241 688.329V681.445L49.3083 688.329M42.4241 688.329H49.3083M42.4241 688.329V729.103L49.3083 688.329" stroke="black" stroke-width="0.2876" stroke-miterlimit="22.9256"/>
<path d="M42.4241 681.445H90.0857L49.3083 688.329L42.4241 681.445Z" fill="black"/>
<path d="M42.4241 681.445H90.0857L49.3083 688.329L42.4241 681.445Z" stroke="black" stroke-width="0.2876" stroke-miterlimit="22.9256"/>
<path d="M42.4241 681.445H90.0857L49.3083 688.329L42.4241 729.103V681.445ZM42.4241 681.445H90.0857V729.103H42.4241V681.445Z" stroke="black" stroke-width="0.2876" stroke-miterlimit="22.9256"/>
</g>
<defs>
<clipPath id="clip0_9_3412">
<rect width="519.137" height="756.087" fill="white" transform="translate(0.5 0.5)"/>
</clipPath>
</defs>
</svg>
