<svg width="520" height="798" viewBox="0 0 520 798" fill="none" xmlns="http://www.w3.org/2000/svg">
<g clip-path="url(#clip0_9_2610)">
<path fill-rule="evenodd" clip-rule="evenodd" d="M28.6562 14.7449H184.873V133.891H191.759V14.7449H229.354V0.976807H297.137V14.7449H361.743V123.832H368.625V14.7449H504.72V205.379H477.713V212.266H368.625V171.49H361.743V280.045H368.625V239.273H477.713V246.155H484.595V334.588H368.625V327.706H361.743V334.588H348.504V341.475H484.595V640.404L477.847 640.612L477.713 681.439H497.834L497.968 742.813L280.261 743.077L280.192 341.475H287.074V334.588H266.953V341.475L273.379 341.683L273.306 783.645H28.6562V341.475H198.641V334.588H191.759V195.321H184.873V334.588H28.6562V14.7449Z" fill="#7F9FFF" stroke="#2B2A29" stroke-width="0.754061" stroke-miterlimit="22.9256"/>
<path d="M327.85 756.109H287.074" stroke="black" stroke-width="0.286023" stroke-miterlimit="22.9256"/>
<path d="M327.85 742.869H280.192" stroke="black" stroke-width="0.286023" stroke-miterlimit="22.9256"/>
<path d="M90.0862 783.645V797.413" stroke="black" stroke-width="0.286023" stroke-miterlimit="22.9256"/>
<path d="M212.409 783.645V797.413" stroke="black" stroke-width="0.286023" stroke-miterlimit="22.9256"/>
<path d="M14.888 797.413H90.0862" stroke="black" stroke-width="0.286023" stroke-miterlimit="22.9256"/>
<path d="M212.409 797.413H287.074V756.109" stroke="black" stroke-width="0.286023" stroke-miterlimit="22.9256"/>
<path d="M28.6562 783.645H90.0862" stroke="black" stroke-width="0.286023" stroke-miterlimit="22.9256"/>
<path d="M212.409 783.645H273.306V742.869" stroke="black" stroke-width="0.286023" stroke-miterlimit="22.9256"/>
<path d="M90.0862 783.645H212.409" stroke="#00BFFF" stroke-width="0.286023" stroke-miterlimit="22.9256"/>
<path d="M212.409 790.527H90.0862" stroke="#00BFFF" stroke-width="0.286023" stroke-miterlimit="22.9256"/>
<path d="M212.409 797.413H90.0862" stroke="#00BFFF" stroke-width="0.286023" stroke-miterlimit="22.9256"/>
<path d="M42.4243 239.273H62.5499H42.4243Z" stroke="#7F9FFF" stroke-width="0.286023" stroke-miterlimit="22.9256"/>
<path d="M28.6562 320.82H35.5381" stroke="#7F9FFF" stroke-width="0.286023" stroke-miterlimit="22.9256"/>
<path d="M497.834 643.844V650.726" stroke="#FF0000" stroke-width="0.286023" stroke-miterlimit="22.9256"/>
<path d="M497.834 660.789V728.573" stroke="#FF0000" stroke-width="0.286023" stroke-miterlimit="22.9256"/>
<path d="M28.6562 14.7449H184.873" stroke="black" stroke-width="0.286023" stroke-miterlimit="22.9256"/>
<path d="M191.759 14.7449H229.354" stroke="black" stroke-width="0.286023" stroke-miterlimit="22.9256"/>
<path d="M297.137 14.7449H361.743H334.736" stroke="black" stroke-width="0.286023" stroke-miterlimit="22.9256"/>
<path d="M368.625 14.7449H504.72" stroke="black" stroke-width="0.286023" stroke-miterlimit="22.9256"/>
<path d="M14.888 0.976807H229.353" stroke="black" stroke-width="0.286023" stroke-miterlimit="22.9256"/>
<path d="M297.137 0.976807H518.488" stroke="black" stroke-width="0.286023" stroke-miterlimit="22.9256"/>
<path d="M327.85 756.109H287.074" stroke="black" stroke-width="0.286023" stroke-miterlimit="22.9256"/>
<path d="M327.85 742.869H280.192" stroke="black" stroke-width="0.286023" stroke-miterlimit="22.9256"/>
<path d="M518.488 205.379V0.976807" stroke="black" stroke-width="0.286023" stroke-miterlimit="22.9256"/>
<path d="M504.72 205.379V89.4099" stroke="black" stroke-width="0.286023" stroke-miterlimit="22.9256"/>
<path d="M504.72 83.0568V14.7449" stroke="black" stroke-width="0.286023" stroke-miterlimit="22.9256"/>
<path d="M511.602 681.439V756.109" stroke="black" stroke-width="0.286023" stroke-miterlimit="22.9256"/>
<path d="M497.834 681.439V742.869" stroke="black" stroke-width="0.286023" stroke-miterlimit="22.9256"/>
<path d="M90.0862 783.645V797.413" stroke="black" stroke-width="0.286023" stroke-miterlimit="22.9256"/>
<path d="M212.409 783.645V797.413" stroke="black" stroke-width="0.286023" stroke-miterlimit="22.9256"/>
<path d="M484.595 620.542V615.247" stroke="#008AB8" stroke-width="0.286023" stroke-miterlimit="22.9256"/>
<path d="M511.602 595.654V598.302" stroke="#008AB8" stroke-width="0.286023" stroke-miterlimit="22.9256"/>
<path d="M511.602 620.542V615.247" stroke="#008AB8" stroke-width="0.286023" stroke-miterlimit="22.9256"/>
<path d="M212.409 797.413H287.074V756.109" stroke="black" stroke-width="0.286023" stroke-miterlimit="22.9256"/>
<path d="M28.6562 783.645H90.0862" stroke="black" stroke-width="0.286023" stroke-miterlimit="22.9256"/>
<path d="M212.409 783.645H273.306V742.869" stroke="black" stroke-width="0.286023" stroke-miterlimit="22.9256"/>
<path d="M90.0862 783.645H212.409" stroke="#00BFFF" stroke-width="0.286023" stroke-miterlimit="22.9256"/>
<path d="M212.409 790.527H90.0862" stroke="#00BFFF" stroke-width="0.286023" stroke-miterlimit="22.9256"/>
<path d="M212.409 797.413H90.0862" stroke="#00BFFF" stroke-width="0.286023" stroke-miterlimit="22.9256"/>
<path d="M28.6562 205.379V14.7449" stroke="black" stroke-width="0.286023" stroke-miterlimit="22.9256"/>
<path d="M28.6562 242.45V334.588" stroke="black" stroke-width="0.286023" stroke-miterlimit="22.9256"/>
<path d="M28.6562 341.475V382.25" stroke="black" stroke-width="0.286023" stroke-miterlimit="22.9256"/>
<path d="M28.6562 246.155V334.588" stroke="black" stroke-width="0.286023" stroke-miterlimit="22.9256"/>
<path d="M28.6562 341.475V640.668" stroke="black" stroke-width="0.286023" stroke-miterlimit="22.9256"/>
<path d="M28.6562 681.439V783.645" stroke="black" stroke-width="0.286023" stroke-miterlimit="22.9256"/>
<path d="M273.306 742.869V382.25V341.475V348.357" stroke="black" stroke-width="0.286023" stroke-miterlimit="22.9256"/>
<path d="M273.306 341.475H266.953" stroke="black" stroke-width="0.286023" stroke-miterlimit="22.9256"/>
<path d="M198.641 341.475H164.751" stroke="black" stroke-width="0.286023" stroke-miterlimit="22.9256"/>
<path d="M83.1999 341.475H28.6562" stroke="black" stroke-width="0.286023" stroke-miterlimit="22.9256"/>
<path d="M273.306 334.588H266.953" stroke="black" stroke-width="0.286023" stroke-miterlimit="22.9256"/>
<path d="M198.641 334.588H191.759" stroke="black" stroke-width="0.286023" stroke-miterlimit="22.9256"/>
<path d="M184.873 334.588H164.751" stroke="black" stroke-width="0.286023" stroke-miterlimit="22.9256"/>
<path d="M83.1999 334.588H28.6562" stroke="black" stroke-width="0.286023" stroke-miterlimit="22.9256"/>
<path d="M280.192 742.869V341.475V382.25" stroke="black" stroke-width="0.286023" stroke-miterlimit="22.9256"/>
<path d="M280.192 351.537V344.651" stroke="black" stroke-width="0.286023" stroke-miterlimit="22.9256"/>
<path d="M484.595 595.654V598.302" stroke="#008AB8" stroke-width="0.286023" stroke-miterlimit="22.9256"/>
<path d="M184.873 334.588V195.321" stroke="black" stroke-width="0.286023" stroke-miterlimit="22.9256"/>
<path d="M184.873 133.891V14.7449" stroke="black" stroke-width="0.286023" stroke-miterlimit="22.9256"/>
<path d="M191.759 334.588V195.321" stroke="black" stroke-width="0.286023" stroke-miterlimit="22.9256"/>
<path d="M191.759 133.891V14.7449" stroke="black" stroke-width="0.286023" stroke-miterlimit="22.9256"/>
<path d="M184.873 195.321H191.759" stroke="black" stroke-width="0.286023" stroke-miterlimit="22.9256"/>
<path d="M184.873 133.891H191.759" stroke="black" stroke-width="0.286023" stroke-miterlimit="22.9256"/>
<path d="M229.354 14.7449V0.976807" stroke="black" stroke-width="0.286023" stroke-miterlimit="22.9256"/>
<path d="M297.137 14.7449V0.976807" stroke="black" stroke-width="0.286023" stroke-miterlimit="22.9256"/>
<path d="M14.888 53.4014V58.6971" stroke="#008AB8" stroke-width="0.286023" stroke-miterlimit="22.9256"/>
<path d="M96.4393 783.645H91.6723" stroke="#008AB8" stroke-width="0.286023" stroke-miterlimit="22.9256"/>
<path d="M441.175 742.869H438.523" stroke="#008AB8" stroke-width="0.286023" stroke-miterlimit="22.9256"/>
<path d="M229.354 0.976807H297.137" stroke="black" stroke-width="0.286023" stroke-miterlimit="22.9256"/>
<path d="M21.7743 648.612V655.493" stroke="#FF0000" stroke-width="0.286023" stroke-miterlimit="22.9256"/>
<path d="M368.625 14.7449V123.832V89.41" stroke="black" stroke-width="0.286023" stroke-miterlimit="22.9256"/>
<path d="M368.625 171.49V212.266" stroke="black" stroke-width="0.286023" stroke-miterlimit="22.9256"/>
<path d="M361.743 14.7449V123.832V69.2886" stroke="black" stroke-width="0.286023" stroke-miterlimit="22.9256"/>
<path d="M361.743 171.49V212.266" stroke="black" stroke-width="0.286023" stroke-miterlimit="22.9256"/>
<path d="M361.743 123.833H368.625" stroke="black" stroke-width="0.286023" stroke-miterlimit="22.9256"/>
<path d="M361.743 171.49H368.625" stroke="black" stroke-width="0.286023" stroke-miterlimit="22.9256"/>
<path d="M443.819 212.266H438.523" stroke="#008AB8" stroke-width="0.286023" stroke-miterlimit="22.9256"/>
<path d="M164.751 334.588V341.475" stroke="black" stroke-width="0.286023" stroke-miterlimit="22.9256"/>
<path d="M14.888 53.4014V58.6971" stroke="#008AB8" stroke-width="0.286023" stroke-miterlimit="22.9256"/>
<path d="M484.595 248.803L490.419 242.45" stroke="#FF0000" stroke-width="0.286023" stroke-miterlimit="22.9256"/>
<path d="M484.595 278.987L511.602 251.979" stroke="#FF0000" stroke-width="0.286023" stroke-miterlimit="22.9256"/>
<path d="M484.595 309.7L511.602 282.692" stroke="#FF0000" stroke-width="0.286023" stroke-miterlimit="22.9256"/>
<path d="M484.595 340.417L511.602 312.876" stroke="#FF0000" stroke-width="0.286023" stroke-miterlimit="22.9256"/>
<path d="M484.595 370.597L511.602 343.594" stroke="#FF0000" stroke-width="0.286023" stroke-miterlimit="22.9256"/>
<path d="M484.595 401.314L511.602 374.307" stroke="#FF0000" stroke-width="0.286023" stroke-miterlimit="22.9256"/>
<path d="M484.595 432.027L511.602 404.491" stroke="#FF0000" stroke-width="0.286023" stroke-miterlimit="22.9256"/>
<path d="M484.595 462.211L511.602 435.204" stroke="#FF0000" stroke-width="0.286023" stroke-miterlimit="22.9256"/>
<path d="M484.595 492.924L511.602 465.916" stroke="#FF0000" stroke-width="0.286023" stroke-miterlimit="22.9256"/>
<path d="M484.595 523.637L511.602 496.1" stroke="#FF0000" stroke-width="0.286023" stroke-miterlimit="22.9256"/>
<path d="M484.595 553.821L511.602 526.813" stroke="#FF0000" stroke-width="0.286023" stroke-miterlimit="22.9256"/>
<path d="M484.595 584.534L511.602 557.526" stroke="#FF0000" stroke-width="0.286023" stroke-miterlimit="22.9256"/>
<path d="M484.595 615.246L511.602 587.71" stroke="#FF0000" stroke-width="0.286023" stroke-miterlimit="22.9256"/>
<path d="M486.185 643.845L511.602 618.427" stroke="#FF0000" stroke-width="0.286023" stroke-miterlimit="22.9256"/>
<path d="M485.656 263.628C485.656 263.048 485.18 262.571 484.599 262.571C484.014 262.571 483.542 263.048 483.542 263.628C483.542 264.214 484.018 264.686 484.599 264.686C485.184 264.686 485.656 264.209 485.656 263.628Z" fill="#FF0000"/>
<path d="M484.599 263.628H485.656M485.656 263.628C485.656 263.048 485.18 262.571 484.599 262.571C484.014 262.571 483.542 263.048 483.542 263.628C483.542 264.214 484.018 264.686 484.599 264.686C485.184 264.686 485.656 264.209 485.656 263.628Z" stroke="black" stroke-width="0.286023" stroke-miterlimit="22.9256"/>
<path d="M489.362 259.923C489.362 259.338 488.885 258.861 488.304 258.861C487.719 258.861 487.243 259.338 487.243 259.923C487.243 260.508 487.719 260.981 488.304 260.981C488.889 260.981 489.362 260.504 489.362 259.923Z" fill="#FF0000"/>
<path d="M488.304 259.923H489.362M489.362 259.923C489.362 259.338 488.885 258.861 488.304 258.861C487.719 258.861 487.243 259.338 487.243 259.923C487.243 260.508 487.719 260.981 488.304 260.981C488.889 260.981 489.362 260.504 489.362 259.923Z" stroke="black" stroke-width="0.286023" stroke-miterlimit="22.9256"/>
<path d="M492.01 256.218L505.778 242.45" stroke="#FF0000" stroke-width="0.286023" stroke-miterlimit="22.9256"/>
<path d="M484.595 294.346L499.953 278.987" stroke="#FF0000" stroke-width="0.286023" stroke-miterlimit="22.9256"/>
<path d="M504.72 275.277C504.72 274.697 504.244 274.22 503.659 274.22C503.073 274.22 502.601 274.697 502.601 275.277C502.601 275.862 503.078 276.339 503.659 276.339C504.244 276.339 504.72 275.862 504.72 275.277Z" fill="#FF0000"/>
<path d="M503.659 275.277H504.72M504.72 275.277C504.72 274.697 504.244 274.22 503.659 274.22C503.073 274.22 502.601 274.697 502.601 275.277C502.601 275.862 503.078 276.339 503.659 276.339C504.244 276.339 504.72 275.862 504.72 275.277Z" stroke="black" stroke-width="0.286023" stroke-miterlimit="22.9256"/>
<path d="M507.364 271.572L511.602 267.338" stroke="#FF0000" stroke-width="0.286023" stroke-miterlimit="22.9256"/>
<path d="M484.595 325.059L488.3 320.82" stroke="#FF0000" stroke-width="0.286023" stroke-miterlimit="22.9256"/>
<path d="M493.067 317.115C493.067 316.534 492.59 316.057 492.01 316.057C491.425 316.057 490.948 316.534 490.948 317.115C490.948 317.7 491.425 318.177 492.01 318.177C492.595 318.177 493.067 317.7 493.067 317.115Z" fill="#FF0000"/>
<path d="M492.01 317.115H493.067M493.067 317.115C493.067 316.534 492.59 316.057 492.01 316.057C491.425 316.057 490.948 316.534 490.948 317.115C490.948 317.7 491.425 318.177 492.01 318.177C492.595 318.177 493.067 317.7 493.067 317.115Z" stroke="black" stroke-width="0.286023" stroke-miterlimit="22.9256"/>
<path d="M496.244 313.409L511.602 297.522" stroke="#FF0000" stroke-width="0.286023" stroke-miterlimit="22.9256"/>
<path d="M484.595 355.243L503.659 336.179" stroke="#FF0000" stroke-width="0.286023" stroke-miterlimit="22.9256"/>
<path d="M508.426 332.469C508.426 331.888 507.949 331.412 507.368 331.412C506.783 331.412 506.311 331.888 506.311 332.469C506.311 333.054 506.787 333.526 507.368 333.526C507.953 333.526 508.426 333.05 508.426 332.469Z" fill="#FF0000"/>
<path d="M507.368 332.469H508.426M508.426 332.469C508.426 331.888 507.949 331.412 507.368 331.412C506.783 331.412 506.311 331.888 506.311 332.469C506.311 333.054 506.787 333.526 507.368 333.526C507.953 333.526 508.426 333.05 508.426 332.469Z" stroke="black" stroke-width="0.286023" stroke-miterlimit="22.9256"/>
<path d="M511.073 328.764L511.602 328.235" stroke="#FF0000" stroke-width="0.286023" stroke-miterlimit="22.9256"/>
<path d="M484.595 385.955L492.01 378.541" stroke="#FF0000" stroke-width="0.286023" stroke-miterlimit="22.9256"/>
<path d="M497.305 374.302C497.305 373.722 496.829 373.245 496.248 373.245C495.663 373.245 495.19 373.722 495.19 374.302C495.19 374.887 495.667 375.36 496.248 375.36C496.833 375.36 497.305 374.883 497.305 374.302Z" fill="#FF0000"/>
<path d="M496.248 374.302H497.305M497.305 374.302C497.305 373.722 496.829 373.245 496.248 373.245C495.663 373.245 495.19 373.722 495.19 374.302C495.19 374.887 495.667 375.36 496.248 375.36C496.833 375.36 497.305 374.883 497.305 374.302Z" stroke="black" stroke-width="0.286023" stroke-miterlimit="22.9256"/>
<path d="M499.953 370.597L511.602 358.948" stroke="#FF0000" stroke-width="0.286023" stroke-miterlimit="22.9256"/>
<path d="M485.656 416.668C485.656 416.088 485.18 415.611 484.599 415.611C484.014 415.611 483.542 416.088 483.542 416.668C483.542 417.253 484.018 417.73 484.599 417.73C485.184 417.73 485.656 417.253 485.656 416.668Z" fill="#FF0000"/>
<path d="M484.599 416.668H485.656M485.656 416.668C485.656 416.088 485.18 415.611 484.599 415.611C484.014 415.611 483.542 416.088 483.542 416.668C483.542 417.253 484.018 417.73 484.599 417.73C485.184 417.73 485.656 417.253 485.656 416.668Z" stroke="black" stroke-width="0.286023" stroke-miterlimit="22.9256"/>
<path d="M488.3 412.434L507.364 393.37" stroke="#FF0000" stroke-width="0.286023" stroke-miterlimit="22.9256"/>
<path d="M512.131 389.661C512.131 389.08 511.654 388.603 511.073 388.603C510.488 388.603 510.016 389.08 510.016 389.661C510.016 390.246 510.493 390.718 511.073 390.718C511.659 390.718 512.131 390.241 512.131 389.661Z" fill="#FF0000"/>
<path d="M511.073 389.661H512.131M512.131 389.661C512.131 389.08 511.654 388.603 511.073 388.603C510.488 388.603 510.016 389.08 510.016 389.661C510.016 390.246 510.493 390.718 511.073 390.718C511.659 390.718 512.131 390.241 512.131 389.661Z" stroke="black" stroke-width="0.286023" stroke-miterlimit="22.9256"/>
<path d="M484.595 447.381L496.244 435.732" stroke="#FF0000" stroke-width="0.286023" stroke-miterlimit="22.9256"/>
<path d="M501.011 431.494C501.011 430.913 500.534 430.437 499.953 430.437C499.368 430.437 498.896 430.913 498.896 431.494C498.896 432.079 499.372 432.551 499.953 432.551C500.538 432.551 501.011 432.075 501.011 431.494Z" fill="#FF0000"/>
<path d="M499.953 431.494H501.011M501.011 431.494C501.011 430.913 500.534 430.437 499.953 430.437C499.368 430.437 498.896 430.913 498.896 431.494C498.896 432.079 499.372 432.551 499.953 432.551C500.538 432.551 501.011 432.075 501.011 431.494Z" stroke="black" stroke-width="0.286023" stroke-miterlimit="22.9256"/>
<path d="M503.659 427.789L511.602 419.845" stroke="#FF0000" stroke-width="0.286023" stroke-miterlimit="22.9256"/>
<path d="M485.656 477.565C485.656 476.98 485.18 476.508 484.599 476.508C484.014 476.508 483.542 476.984 483.542 477.565C483.542 478.15 484.018 478.623 484.599 478.623C485.184 478.623 485.656 478.146 485.656 477.565Z" fill="#FF0000"/>
<path d="M484.599 477.565H485.656M485.656 477.565C485.656 476.98 485.18 476.508 484.599 476.508C484.014 476.508 483.542 476.984 483.542 477.565C483.542 478.15 484.018 478.623 484.599 478.623C485.184 478.623 485.656 478.146 485.656 477.565Z" stroke="black" stroke-width="0.286023" stroke-miterlimit="22.9256"/>
<path d="M489.362 473.86C489.362 473.279 488.885 472.802 488.304 472.802C487.719 472.802 487.243 473.279 487.243 473.86C487.243 474.445 487.719 474.922 488.304 474.922C488.889 474.922 489.362 474.445 489.362 473.86Z" fill="#FF0000"/>
<path d="M488.304 473.86H489.362M489.362 473.86C489.362 473.279 488.885 472.802 488.304 472.802C487.719 472.802 487.243 473.279 487.243 473.86C487.243 474.445 487.719 474.922 488.304 474.922C488.889 474.922 489.362 474.445 489.362 473.86Z" stroke="black" stroke-width="0.286023" stroke-miterlimit="22.9256"/>
<path d="M492.01 470.155L511.073 451.091" stroke="#FF0000" stroke-width="0.286023" stroke-miterlimit="22.9256"/>
<path d="M484.595 508.278L499.953 492.924" stroke="#FF0000" stroke-width="0.286023" stroke-miterlimit="22.9256"/>
<path d="M504.72 489.214C504.72 488.629 504.244 488.152 503.659 488.152C503.073 488.152 502.601 488.629 502.601 489.214C502.601 489.799 503.078 490.272 503.659 490.272C504.244 490.272 504.72 489.795 504.72 489.214Z" fill="#FF0000"/>
<path d="M503.659 489.214H504.72M504.72 489.214C504.72 488.629 504.244 488.152 503.659 488.152C503.073 488.152 502.601 488.629 502.601 489.214C502.601 489.799 503.078 490.272 503.659 490.272C504.244 490.272 504.72 489.795 504.72 489.214Z" stroke="black" stroke-width="0.286023" stroke-miterlimit="22.9256"/>
<path d="M507.364 484.98L511.602 481.275" stroke="#FF0000" stroke-width="0.286023" stroke-miterlimit="22.9256"/>
<path d="M484.595 538.995L488.3 534.757" stroke="#FF0000" stroke-width="0.286023" stroke-miterlimit="22.9256"/>
<path d="M493.067 531.052C493.067 530.471 492.59 529.994 492.01 529.994C491.425 529.994 490.948 530.471 490.948 531.052C490.948 531.637 491.425 532.109 492.01 532.109C492.595 532.109 493.067 531.632 493.067 531.052Z" fill="#FF0000"/>
<path d="M492.01 531.052H493.067M493.067 531.052C493.067 530.471 492.59 529.994 492.01 529.994C491.425 529.994 490.948 530.471 490.948 531.052C490.948 531.637 491.425 532.109 492.01 532.109C492.595 532.109 493.067 531.632 493.067 531.052Z" stroke="black" stroke-width="0.286023" stroke-miterlimit="22.9256"/>
<path d="M496.244 527.342L511.602 511.459" stroke="#FF0000" stroke-width="0.286023" stroke-miterlimit="22.9256"/>
<path d="M484.595 569.179L503.659 550.115" stroke="#FF0000" stroke-width="0.286023" stroke-miterlimit="22.9256"/>
<path d="M508.426 546.406C508.426 545.825 507.949 545.349 507.368 545.349C506.783 545.349 506.311 545.825 506.311 546.406C506.311 546.991 506.787 547.468 507.368 547.468C507.953 547.468 508.426 546.991 508.426 546.406Z" fill="#FF0000"/>
<path d="M507.368 546.406H508.426M508.426 546.406C508.426 545.825 507.949 545.349 507.368 545.349C506.783 545.349 506.311 545.825 506.311 546.406C506.311 546.991 506.787 547.468 507.368 547.468C507.953 547.468 508.426 546.991 508.426 546.406Z" stroke="black" stroke-width="0.286023" stroke-miterlimit="22.9256"/>
<path d="M511.073 542.701L511.602 542.172" stroke="#FF0000" stroke-width="0.286023" stroke-miterlimit="22.9256"/>
<path d="M484.595 599.892L492.01 591.949" stroke="#FF0000" stroke-width="0.286023" stroke-miterlimit="22.9256"/>
<path d="M497.305 588.239C497.305 587.658 496.829 587.182 496.248 587.182C495.663 587.182 495.19 587.658 495.19 588.239C495.19 588.824 495.667 589.296 496.248 589.296C496.833 589.296 497.305 588.82 497.305 588.239Z" fill="#FF0000"/>
<path d="M496.248 588.239H497.305M497.305 588.239C497.305 587.658 496.829 587.182 496.248 587.182C495.663 587.182 495.19 587.658 495.19 588.239C495.19 588.824 495.667 589.296 496.248 589.296C496.833 589.296 497.305 588.82 497.305 588.239Z" stroke="black" stroke-width="0.286023" stroke-miterlimit="22.9256"/>
<path d="M499.953 584.534L511.602 572.885" stroke="#FF0000" stroke-width="0.286023" stroke-miterlimit="22.9256"/>
<path d="M485.656 630.072C485.656 629.491 485.18 629.015 484.599 629.015C484.014 629.015 483.542 629.491 483.542 630.072C483.542 630.657 484.018 631.129 484.599 631.129C485.184 631.129 485.656 630.653 485.656 630.072Z" fill="#FF0000"/>
<path d="M484.599 630.072H485.656M485.656 630.072C485.656 629.491 485.18 629.015 484.599 629.015C484.014 629.015 483.542 629.491 483.542 630.072C483.542 630.657 484.018 631.129 484.599 631.129C485.184 631.129 485.656 630.653 485.656 630.072Z" stroke="black" stroke-width="0.286023" stroke-miterlimit="22.9256"/>
<path d="M488.3 626.371L507.364 607.307" stroke="#FF0000" stroke-width="0.286023" stroke-miterlimit="22.9256"/>
<path d="M512.131 603.597C512.131 603.017 511.654 602.54 511.073 602.54C510.488 602.54 510.016 603.017 510.016 603.597C510.016 604.183 510.493 604.659 511.073 604.659C511.659 604.659 512.131 604.183 512.131 603.597Z" fill="#FF0000"/>
<path d="M511.073 603.597H512.131M512.131 603.597C512.131 603.017 511.654 602.54 511.073 602.54C510.488 602.54 510.016 603.017 510.016 603.597C510.016 604.183 510.493 604.659 511.073 604.659C511.659 604.659 512.131 604.183 512.131 603.597Z" stroke="black" stroke-width="0.286023" stroke-miterlimit="22.9256"/>
<path d="M503.659 641.725L511.602 633.782" stroke="#FF0000" stroke-width="0.286023" stroke-miterlimit="22.9256"/>
<path d="M511.602 246.155V643.844H484.595V246.155" stroke="#FF0000" stroke-width="0.286023" stroke-miterlimit="22.9256"/>
<path d="M364.387 239.273L361.743 237.154" stroke="#FF0000" stroke-width="0.286023" stroke-miterlimit="22.9256"/>
<path d="M394.571 239.273L367.568 212.266" stroke="#FF0000" stroke-width="0.286023" stroke-miterlimit="22.9256"/>
<path d="M425.288 239.273L398.281 212.266" stroke="#FF0000" stroke-width="0.286023" stroke-miterlimit="22.9256"/>
<path d="M456.001 239.273L428.465 212.266" stroke="#FF0000" stroke-width="0.286023" stroke-miterlimit="22.9256"/>
<path d="M480.889 233.977L459.178 212.266" stroke="#FF0000" stroke-width="0.286023" stroke-miterlimit="22.9256"/>
<path d="M379.217 239.273L371.802 231.33" stroke="#FF0000" stroke-width="0.286023" stroke-miterlimit="22.9256"/>
<path d="M369.158 227.62C369.158 227.039 368.682 226.562 368.096 226.562C367.511 226.562 367.039 227.039 367.039 227.62C367.039 228.205 367.516 228.677 368.096 228.677C368.682 228.677 369.158 228.201 369.158 227.62Z" fill="#FF0000"/>
<path d="M368.096 227.62H369.158M369.158 227.62C369.158 227.039 368.682 226.562 368.096 226.562C367.511 226.562 367.039 227.039 367.039 227.62C367.039 228.205 367.516 228.677 368.096 228.677C368.682 228.677 369.158 228.201 369.158 227.62Z" stroke="black" stroke-width="0.286023" stroke-miterlimit="22.9256"/>
<path d="M363.858 223.915L361.743 221.795" stroke="#FF0000" stroke-width="0.286023" stroke-miterlimit="22.9256"/>
<path d="M410.991 239.269C410.991 238.688 410.515 238.211 409.93 238.211C409.345 238.211 408.872 238.688 408.872 239.269C408.872 239.854 409.349 240.326 409.93 240.326C410.515 240.326 410.991 239.85 410.991 239.269Z" fill="#FF0000"/>
<path d="M409.93 239.269H410.991M410.991 239.269C410.991 238.688 410.515 238.211 409.93 238.211C409.345 238.211 408.872 238.688 408.872 239.269C408.872 239.854 409.349 240.326 409.93 240.326C410.515 240.326 410.991 239.85 410.991 239.269Z" stroke="black" stroke-width="0.286023" stroke-miterlimit="22.9256"/>
<path d="M406.224 235.564L387.16 216.5" stroke="#FF0000" stroke-width="0.286023" stroke-miterlimit="22.9256"/>
<path d="M383.984 212.261C383.984 211.681 383.507 211.204 382.926 211.204C382.341 211.204 381.865 211.681 381.865 212.261C381.865 212.846 382.341 213.323 382.926 213.323C383.511 213.323 383.984 212.846 383.984 212.261Z" fill="#FF0000"/>
<path d="M382.926 212.261H383.984M383.984 212.261C383.984 211.681 383.507 211.204 382.926 211.204C382.341 211.204 381.865 211.681 381.865 212.261C381.865 212.846 382.341 213.323 382.926 213.323C383.511 213.323 383.984 212.846 383.984 212.261Z" stroke="black" stroke-width="0.286023" stroke-miterlimit="22.9256"/>
<path d="M440.642 239.273L428.993 227.62" stroke="#FF0000" stroke-width="0.286023" stroke-miterlimit="22.9256"/>
<path d="M426.346 223.915C426.346 223.334 425.869 222.857 425.288 222.857C424.703 222.857 424.231 223.334 424.231 223.915C424.231 224.5 424.707 224.976 425.288 224.976C425.873 224.976 426.346 224.5 426.346 223.915Z" fill="#FF0000"/>
<path d="M425.288 223.915H426.346M426.346 223.915C426.346 223.334 425.869 222.857 425.288 222.857C424.703 222.857 424.231 223.334 424.231 223.915C424.231 224.5 424.707 224.976 425.288 224.976C425.873 224.976 426.346 224.5 426.346 223.915Z" stroke="black" stroke-width="0.286023" stroke-miterlimit="22.9256"/>
<path d="M421.578 220.209L413.106 212.266" stroke="#FF0000" stroke-width="0.286023" stroke-miterlimit="22.9256"/>
<path d="M471.36 239.273H470.827" stroke="#FF0000" stroke-width="0.286023" stroke-miterlimit="22.9256"/>
<path d="M468.179 235.564C468.179 234.979 467.702 234.502 467.121 234.502C466.536 234.502 466.064 234.979 466.064 235.564C466.064 236.149 466.54 236.621 467.121 236.621C467.706 236.621 468.179 236.144 468.179 235.564Z" fill="#FF0000"/>
<path d="M467.121 235.564H468.179M468.179 235.564C468.179 234.979 467.702 234.502 467.121 234.502C466.536 234.502 466.064 234.979 466.064 235.564C466.064 236.149 466.54 236.621 467.121 236.621C467.706 236.621 468.179 236.144 468.179 235.564Z" stroke="black" stroke-width="0.286023" stroke-miterlimit="22.9256"/>
<path d="M463.416 231.33L444.352 212.266" stroke="#FF0000" stroke-width="0.286023" stroke-miterlimit="22.9256"/>
<path d="M478.77 216.5L474.536 212.266" stroke="#FF0000" stroke-width="0.286023" stroke-miterlimit="22.9256"/>
<path d="M361.743 239.273V212.266H480.889V239.273H361.743Z" stroke="#FF0000" stroke-width="0.286023" stroke-miterlimit="22.9256"/>
<path d="M83.1999 341.475H164.751" stroke="#00BFFF" stroke-width="0.286023" stroke-miterlimit="22.9256"/>
<path d="M164.751 334.588H83.1999" stroke="#00BFFF" stroke-width="0.286023" stroke-miterlimit="22.9256"/>
<path d="M83.1999 337.765H164.751" stroke="#00BFFF" stroke-width="0.286023" stroke-miterlimit="22.9256"/>
<path d="M273.306 334.588H287.074V341.475H280.192" stroke="black" stroke-width="0.286023" stroke-miterlimit="22.9256"/>
<path d="M361.743 334.588H348.504V341.475H484.595" stroke="black" stroke-width="0.286023" stroke-miterlimit="22.9256"/>
<path d="M368.625 334.588H484.595" stroke="black" stroke-width="0.286023" stroke-miterlimit="22.9256"/>
<path d="M443.819 212.266H438.523" stroke="#008AB8" stroke-width="0.286023" stroke-miterlimit="22.9256"/>
<path d="M443.819 239.273H438.523" stroke="#008AB8" stroke-width="0.286023" stroke-miterlimit="22.9256"/>
<path d="M497.834 742.869H450.176" stroke="black" stroke-width="0.286023" stroke-miterlimit="22.9256"/>
<path d="M327.85 742.869V756.109" stroke="black" stroke-width="0.286023" stroke-miterlimit="22.9256"/>
<path d="M450.176 742.869V756.109" stroke="black" stroke-width="0.286023" stroke-miterlimit="22.9256"/>
<path d="M327.85 742.869H450.176" stroke="#00BFFF" stroke-width="0.286023" stroke-miterlimit="22.9256"/>
<path d="M450.176 749.751H327.85" stroke="#00BFFF" stroke-width="0.286023" stroke-miterlimit="22.9256"/>
<path d="M327.85 756.109H450.176" stroke="#00BFFF" stroke-width="0.286023" stroke-miterlimit="22.9256"/>
<path d="M511.602 756.109H450.176" stroke="black" stroke-width="0.286023" stroke-miterlimit="22.9256"/>
<path d="M497.834 742.869H450.176" stroke="black" stroke-width="0.286023" stroke-miterlimit="22.9256"/>
<path d="M327.85 742.869V756.109" stroke="black" stroke-width="0.286023" stroke-miterlimit="22.9256"/>
<path d="M450.176 742.869V756.109" stroke="black" stroke-width="0.286023" stroke-miterlimit="22.9256"/>
<path d="M327.85 742.869H450.176" stroke="#00BFFF" stroke-width="0.286023" stroke-miterlimit="22.9256"/>
<path d="M450.176 749.751H327.85" stroke="#00BFFF" stroke-width="0.286023" stroke-miterlimit="22.9256"/>
<path d="M327.85 756.109H450.176" stroke="#00BFFF" stroke-width="0.286023" stroke-miterlimit="22.9256"/>
<path d="M443.819 756.109H438.523" stroke="#008AB8" stroke-width="0.286023" stroke-miterlimit="22.9256"/>
<path d="M198.641 334.588V341.475" stroke="black" stroke-width="0.286023" stroke-miterlimit="22.9256"/>
<path d="M266.953 334.588V341.475" stroke="black" stroke-width="0.286023" stroke-miterlimit="22.9256"/>
<path d="M361.743 239.273V280.045" stroke="black" stroke-width="0.286023" stroke-miterlimit="22.9256"/>
<path d="M361.743 327.707V334.588" stroke="black" stroke-width="0.286023" stroke-miterlimit="22.9256"/>
<path d="M368.625 239.273V280.045" stroke="black" stroke-width="0.286023" stroke-miterlimit="22.9256"/>
<path d="M361.743 327.707H368.625V334.588" stroke="black" stroke-width="0.286023" stroke-miterlimit="22.9256"/>
<path d="M361.743 280.044H368.625" stroke="black" stroke-width="0.286023" stroke-miterlimit="22.9256"/>
<path d="M14.888 205.379V0.976807" stroke="black" stroke-width="0.286023" stroke-miterlimit="22.9256"/>
<path d="M14.888 246.155V640.668" stroke="black" stroke-width="0.286023" stroke-miterlimit="22.9256"/>
<path d="M14.888 681.439V797.413" stroke="black" stroke-width="0.286023" stroke-miterlimit="22.9256"/>
<path d="M1.65295 681.439H42.4243" stroke="black" stroke-width="0.286023" stroke-miterlimit="22.9256"/>
<path d="M42.4243 640.668H1.64862L42.4243 681.444V640.668ZM1.64862 640.668L42.4243 681.444H1.64862V640.668Z" fill="#0000FF"/>
<path d="M1.64862 640.668H42.4243V681.444M1.64862 640.668L42.4243 681.444M1.64862 640.668V681.444H42.4243" stroke="#0000FF" stroke-width="0.286023" stroke-miterlimit="22.9256"/>
<path d="M42.4243 640.668H1.65295V681.439H42.4243V640.668Z" stroke="black" stroke-width="0.286023" stroke-miterlimit="22.9256"/>
<path d="M1.65295 681.439L42.4243 640.668" stroke="black" stroke-width="0.286023" stroke-miterlimit="22.9256"/>
<path d="M42.4243 681.439L1.65295 640.668" stroke="black" stroke-width="0.286023" stroke-miterlimit="22.9256"/>
<path d="M477.713 681.439H518.488" stroke="black" stroke-width="0.286023" stroke-miterlimit="22.9256"/>
<path d="M518.488 640.668H477.713L518.488 681.444V640.668ZM477.713 640.668L518.488 681.444H477.713V640.668Z" fill="#0000FF"/>
<path d="M477.713 640.668H518.488V681.444M477.713 640.668L518.488 681.444M477.713 640.668V681.444H518.488" stroke="#0000FF" stroke-width="0.286023" stroke-miterlimit="22.9256"/>
<path d="M518.488 640.668H477.713V681.439H518.488V640.668Z" stroke="black" stroke-width="0.286023" stroke-miterlimit="22.9256"/>
<path d="M477.713 681.439L518.488 640.668" stroke="black" stroke-width="0.286023" stroke-miterlimit="22.9256"/>
<path d="M518.488 681.439L477.713 640.668" stroke="black" stroke-width="0.286023" stroke-miterlimit="22.9256"/>
<path d="M1.65295 246.155H42.4243" stroke="black" stroke-width="0.286023" stroke-miterlimit="22.9256"/>
<path d="M42.4243 205.379H1.64862L42.4243 246.155V205.379ZM1.64862 205.379L42.4243 246.155H1.64862V205.379Z" fill="#0000FF"/>
<path d="M1.64862 205.379H42.4243V246.155M1.64862 205.379L42.4243 246.155M1.64862 205.379V246.155H42.4243" stroke="#0000FF" stroke-width="0.286023" stroke-miterlimit="22.9256"/>
<path d="M42.4243 205.379H1.65295V246.155H42.4243V205.379Z" stroke="black" stroke-width="0.286023" stroke-miterlimit="22.9256"/>
<path d="M1.65295 246.155L42.4243 205.379" stroke="black" stroke-width="0.286023" stroke-miterlimit="22.9256"/>
<path d="M42.4243 246.155L1.65295 205.379" stroke="black" stroke-width="0.286023" stroke-miterlimit="22.9256"/>
<path d="M477.713 246.155H518.488" stroke="black" stroke-width="0.286023" stroke-miterlimit="22.9256"/>
<path d="M518.488 205.379H477.713L518.488 246.155V205.379ZM477.713 205.379L518.488 246.155H477.713V205.379Z" fill="#0000FF"/>
<path d="M477.713 205.379H518.488V246.155M477.713 205.379L518.488 246.155M477.713 205.379V246.155H518.488" stroke="#0000FF" stroke-width="0.286023" stroke-miterlimit="22.9256"/>
<path d="M518.488 205.379H477.713V246.155H518.488V205.379Z" stroke="black" stroke-width="0.286023" stroke-miterlimit="22.9256"/>
<path d="M477.713 246.155L518.488 205.379" stroke="black" stroke-width="0.286023" stroke-miterlimit="22.9256"/>
<path d="M518.488 246.155L477.713 205.379" stroke="black" stroke-width="0.286023" stroke-miterlimit="22.9256"/>
<path d="M443.819 184.729H361.743V212.266H443.819V184.729Z" stroke="#5CB800" stroke-width="0.286023" stroke-miterlimit="22.9256"/>
<path d="M370.216 205.379H380.807" stroke="#5CB800" stroke-width="0.286023" stroke-miterlimit="22.9256"/>
<path d="M382.393 203.793V193.202" stroke="#5CB800" stroke-width="0.286023" stroke-miterlimit="22.9256"/>
<path d="M380.807 191.611H370.216" stroke="#5CB800" stroke-width="0.286023" stroke-miterlimit="22.9256"/>
<path d="M368.625 193.202V203.793" stroke="#5CB800" stroke-width="0.286023" stroke-miterlimit="22.9256"/>
<path d="M369.154 203.529C369.154 204.261 369.748 204.851 370.48 204.851" stroke="#5CB800" stroke-width="0.286023" stroke-miterlimit="22.9256"/>
<path d="M381.067 204.851C381.8 204.851 382.393 204.257 382.393 203.529" stroke="#5CB800" stroke-width="0.286023" stroke-miterlimit="22.9256"/>
<path d="M370.48 191.611C369.748 191.611 369.154 192.205 369.154 192.933" stroke="#5CB800" stroke-width="0.286023" stroke-miterlimit="22.9256"/>
<path d="M382.393 192.937C382.393 192.205 381.8 191.616 381.067 191.616" stroke="#5CB800" stroke-width="0.286023" stroke-miterlimit="22.9256"/>
<path d="M423.169 193.202V203.793" stroke="#5CB800" stroke-width="0.286023" stroke-miterlimit="22.9256"/>
<path d="M424.755 205.379H435.347" stroke="#5CB800" stroke-width="0.286023" stroke-miterlimit="22.9256"/>
<path d="M436.937 203.793V193.202" stroke="#5CB800" stroke-width="0.286023" stroke-miterlimit="22.9256"/>
<path d="M435.347 191.611H424.755" stroke="#5CB800" stroke-width="0.286023" stroke-miterlimit="22.9256"/>
<path d="M423.698 203.529C423.698 204.261 424.291 204.851 425.019 204.851" stroke="#5CB800" stroke-width="0.286023" stroke-miterlimit="22.9256"/>
<path d="M435.615 204.851C436.348 204.851 436.937 204.257 436.937 203.529" stroke="#5CB800" stroke-width="0.286023" stroke-miterlimit="22.9256"/>
<path d="M425.024 191.611C424.291 191.611 423.702 192.205 423.702 192.933" stroke="#5CB800" stroke-width="0.286023" stroke-miterlimit="22.9256"/>
<path d="M436.937 192.937C436.937 192.205 436.343 191.616 435.615 191.616" stroke="#5CB800" stroke-width="0.286023" stroke-miterlimit="22.9256"/>
<path d="M389.28 203.529C389.28 204.261 389.873 204.851 390.601 204.851" stroke="#5CB800" stroke-width="0.286023" stroke-miterlimit="22.9256"/>
<path d="M390.601 191.611C389.869 191.611 389.28 192.205 389.28 192.933" stroke="#5CB800" stroke-width="0.286023" stroke-miterlimit="22.9256"/>
<path d="M415.49 204.851C416.222 204.851 416.811 204.257 416.811 203.529" stroke="#5CB800" stroke-width="0.286023" stroke-miterlimit="22.9256"/>
<path d="M416.811 192.937C416.811 192.205 416.222 191.616 415.49 191.616" stroke="#5CB800" stroke-width="0.286023" stroke-miterlimit="22.9256"/>
<path d="M389.28 193.202V203.793" stroke="#5CB800" stroke-width="0.286023" stroke-miterlimit="22.9256"/>
<path d="M390.337 205.379H415.225" stroke="#5CB800" stroke-width="0.286023" stroke-miterlimit="22.9256"/>
<path d="M416.283 203.793V193.202" stroke="#5CB800" stroke-width="0.286023" stroke-miterlimit="22.9256"/>
<path d="M415.225 191.611H390.337" stroke="#5CB800" stroke-width="0.286023" stroke-miterlimit="22.9256"/>
<path d="M443.819 184.729H361.743V212.266H443.819V184.729Z" stroke="#5CB800" stroke-width="0.286023" stroke-miterlimit="22.9256"/>
<path d="M370.216 205.379H380.807" stroke="#5CB800" stroke-width="0.286023" stroke-miterlimit="22.9256"/>
<path d="M382.393 203.793V193.202" stroke="#5CB800" stroke-width="0.286023" stroke-miterlimit="22.9256"/>
<path d="M380.807 191.611H370.216" stroke="#5CB800" stroke-width="0.286023" stroke-miterlimit="22.9256"/>
<path d="M368.625 193.202V203.793" stroke="#5CB800" stroke-width="0.286023" stroke-miterlimit="22.9256"/>
<path d="M369.154 203.529C369.154 204.261 369.748 204.851 370.48 204.851" stroke="#5CB800" stroke-width="0.286023" stroke-miterlimit="22.9256"/>
<path d="M381.067 204.851C381.8 204.851 382.393 204.257 382.393 203.529" stroke="#5CB800" stroke-width="0.286023" stroke-miterlimit="22.9256"/>
<path d="M370.48 191.611C369.748 191.611 369.154 192.205 369.154 192.933" stroke="#5CB800" stroke-width="0.286023" stroke-miterlimit="22.9256"/>
<path d="M382.393 192.937C382.393 192.205 381.8 191.616 381.067 191.616" stroke="#5CB800" stroke-width="0.286023" stroke-miterlimit="22.9256"/>
<path d="M423.169 193.202V203.793" stroke="#5CB800" stroke-width="0.286023" stroke-miterlimit="22.9256"/>
<path d="M424.755 205.379H435.347" stroke="#5CB800" stroke-width="0.286023" stroke-miterlimit="22.9256"/>
<path d="M436.937 203.793V193.202" stroke="#5CB800" stroke-width="0.286023" stroke-miterlimit="22.9256"/>
<path d="M435.347 191.611H424.755" stroke="#5CB800" stroke-width="0.286023" stroke-miterlimit="22.9256"/>
<path d="M423.698 203.529C423.698 204.261 424.291 204.851 425.019 204.851" stroke="#5CB800" stroke-width="0.286023" stroke-miterlimit="22.9256"/>
<path d="M435.615 204.851C436.348 204.851 436.937 204.257 436.937 203.529" stroke="#5CB800" stroke-width="0.286023" stroke-miterlimit="22.9256"/>
<path d="M425.024 191.611C424.291 191.611 423.702 192.205 423.702 192.933" stroke="#5CB800" stroke-width="0.286023" stroke-miterlimit="22.9256"/>
<path d="M436.937 192.937C436.937 192.205 436.343 191.616 435.615 191.616" stroke="#5CB800" stroke-width="0.286023" stroke-miterlimit="22.9256"/>
<path d="M389.28 203.529C389.28 204.261 389.873 204.851 390.601 204.851" stroke="#5CB800" stroke-width="0.286023" stroke-miterlimit="22.9256"/>
<path d="M390.601 191.611C389.869 191.611 389.28 192.205 389.28 192.933" stroke="#5CB800" stroke-width="0.286023" stroke-miterlimit="22.9256"/>
<path d="M415.49 204.851C416.222 204.851 416.811 204.257 416.811 203.529" stroke="#5CB800" stroke-width="0.286023" stroke-miterlimit="22.9256"/>
<path d="M416.811 192.937C416.811 192.205 416.222 191.616 415.49 191.616" stroke="#5CB800" stroke-width="0.286023" stroke-miterlimit="22.9256"/>
<path d="M389.28 193.202V203.793" stroke="#5CB800" stroke-width="0.286023" stroke-miterlimit="22.9256"/>
<path d="M390.337 205.379H415.225" stroke="#5CB800" stroke-width="0.286023" stroke-miterlimit="22.9256"/>
<path d="M416.283 203.793V193.202" stroke="#5CB800" stroke-width="0.286023" stroke-miterlimit="22.9256"/>
<path d="M415.225 191.611H390.337" stroke="#5CB800" stroke-width="0.286023" stroke-miterlimit="22.9256"/>
<path d="M436.937 193.202L432.699 202.731L424.755 205.379" stroke="#5CB800" stroke-width="0.286023" stroke-miterlimit="22.9256"/>
<path d="M416.283 193.202L412.049 202.731L390.337 205.379" stroke="#5CB800" stroke-width="0.286023" stroke-miterlimit="22.9256"/>
<path d="M382.393 193.202L378.688 202.731L370.216 205.379" stroke="#5CB800" stroke-width="0.286023" stroke-miterlimit="22.9256"/>
<path d="M35.5424 239.273V320.82H62.5499V239.273H35.5424Z" stroke="#5CB800" stroke-width="0.286023" stroke-miterlimit="22.9256"/>
<path d="M55.6637 312.877V301.756" stroke="#5CB800" stroke-width="0.286023" stroke-miterlimit="22.9256"/>
<path d="M54.6063 300.699H43.486" stroke="#5CB800" stroke-width="0.286023" stroke-miterlimit="22.9256"/>
<path d="M42.4243 301.756V312.877" stroke="#5CB800" stroke-width="0.286023" stroke-miterlimit="22.9256"/>
<path d="M43.486 313.938H54.6063" stroke="#5CB800" stroke-width="0.286023" stroke-miterlimit="22.9256"/>
<path d="M54.8706 313.938C55.603 313.938 56.1924 313.345 56.1924 312.616" stroke="#5CB800" stroke-width="0.286023" stroke-miterlimit="22.9256"/>
<path d="M56.1924 301.492C56.1924 300.759 55.603 300.166 54.8706 300.166" stroke="#5CB800" stroke-width="0.286023" stroke-miterlimit="22.9256"/>
<path d="M42.4243 312.612C42.4243 313.34 43.018 313.934 43.746 313.934" stroke="#5CB800" stroke-width="0.286023" stroke-miterlimit="22.9256"/>
<path d="M43.7504 300.17C43.018 300.17 42.4286 300.764 42.4286 301.496" stroke="#5CB800" stroke-width="0.286023" stroke-miterlimit="22.9256"/>
<path d="M43.486 259.923H54.6063" stroke="#5CB800" stroke-width="0.286023" stroke-miterlimit="22.9256"/>
<path d="M55.6637 258.337V247.217" stroke="#5CB800" stroke-width="0.286023" stroke-miterlimit="22.9256"/>
<path d="M54.6063 246.155H43.486" stroke="#5CB800" stroke-width="0.286023" stroke-miterlimit="22.9256"/>
<path d="M42.4243 247.217V258.337" stroke="#5CB800" stroke-width="0.286023" stroke-miterlimit="22.9256"/>
<path d="M54.8706 259.394C55.603 259.394 56.1924 258.801 56.1924 258.068" stroke="#5CB800" stroke-width="0.286023" stroke-miterlimit="22.9256"/>
<path d="M56.1924 246.948C56.1924 246.216 55.603 245.626 54.8706 245.626" stroke="#5CB800" stroke-width="0.286023" stroke-miterlimit="22.9256"/>
<path d="M42.4243 258.068C42.4243 258.801 43.018 259.394 43.746 259.394" stroke="#5CB800" stroke-width="0.286023" stroke-miterlimit="22.9256"/>
<path d="M43.7504 245.626C43.018 245.626 42.4286 246.22 42.4286 246.948" stroke="#5CB800" stroke-width="0.286023" stroke-miterlimit="22.9256"/>
<path d="M54.8706 293.284C55.603 293.284 56.1924 292.69 56.1924 291.962" stroke="#5CB800" stroke-width="0.286023" stroke-miterlimit="22.9256"/>
<path d="M42.4243 291.962C42.4243 292.695 43.018 293.284 43.746 293.284" stroke="#5CB800" stroke-width="0.286023" stroke-miterlimit="22.9256"/>
<path d="M56.1924 267.603C56.1924 266.87 55.603 266.281 54.8706 266.281" stroke="#5CB800" stroke-width="0.286023" stroke-miterlimit="22.9256"/>
<path d="M43.7504 266.276C43.018 266.276 42.4286 266.87 42.4286 267.598" stroke="#5CB800" stroke-width="0.286023" stroke-miterlimit="22.9256"/>
<path d="M43.486 293.813H54.6063" stroke="#5CB800" stroke-width="0.286023" stroke-miterlimit="22.9256"/>
<path d="M55.6637 292.227V267.867" stroke="#5CB800" stroke-width="0.286023" stroke-miterlimit="22.9256"/>
<path d="M54.6063 266.276H43.486" stroke="#5CB800" stroke-width="0.286023" stroke-miterlimit="22.9256"/>
<path d="M42.4243 267.867V292.227" stroke="#5CB800" stroke-width="0.286023" stroke-miterlimit="22.9256"/>
<path d="M35.5424 239.273V320.82H62.5499V239.273H35.5424Z" stroke="#5CB800" stroke-width="0.286023" stroke-miterlimit="22.9256"/>
<path d="M55.6637 312.877V301.756" stroke="#5CB800" stroke-width="0.286023" stroke-miterlimit="22.9256"/>
<path d="M54.6063 300.699H43.486" stroke="#5CB800" stroke-width="0.286023" stroke-miterlimit="22.9256"/>
<path d="M42.4243 301.756V312.877" stroke="#5CB800" stroke-width="0.286023" stroke-miterlimit="22.9256"/>
<path d="M43.486 313.938H54.6063" stroke="#5CB800" stroke-width="0.286023" stroke-miterlimit="22.9256"/>
<path d="M54.8706 313.938C55.603 313.938 56.1924 313.345 56.1924 312.616" stroke="#5CB800" stroke-width="0.286023" stroke-miterlimit="22.9256"/>
<path d="M56.1924 301.492C56.1924 300.759 55.603 300.166 54.8706 300.166" stroke="#5CB800" stroke-width="0.286023" stroke-miterlimit="22.9256"/>
<path d="M42.4243 312.612C42.4243 313.34 43.018 313.934 43.746 313.934" stroke="#5CB800" stroke-width="0.286023" stroke-miterlimit="22.9256"/>
<path d="M43.7504 300.17C43.018 300.17 42.4286 300.764 42.4286 301.496" stroke="#5CB800" stroke-width="0.286023" stroke-miterlimit="22.9256"/>
<path d="M43.486 259.923H54.6063" stroke="#5CB800" stroke-width="0.286023" stroke-miterlimit="22.9256"/>
<path d="M55.6637 258.337V247.217" stroke="#5CB800" stroke-width="0.286023" stroke-miterlimit="22.9256"/>
<path d="M54.6063 246.155H43.486" stroke="#5CB800" stroke-width="0.286023" stroke-miterlimit="22.9256"/>
<path d="M42.4243 247.217V258.337" stroke="#5CB800" stroke-width="0.286023" stroke-miterlimit="22.9256"/>
<path d="M54.8706 259.394C55.603 259.394 56.1924 258.801 56.1924 258.068" stroke="#5CB800" stroke-width="0.286023" stroke-miterlimit="22.9256"/>
<path d="M56.1924 246.948C56.1924 246.216 55.603 245.626 54.8706 245.626" stroke="#5CB800" stroke-width="0.286023" stroke-miterlimit="22.9256"/>
<path d="M42.4243 258.068C42.4243 258.801 43.018 259.394 43.746 259.394" stroke="#5CB800" stroke-width="0.286023" stroke-miterlimit="22.9256"/>
<path d="M43.7504 245.626C43.018 245.626 42.4286 246.22 42.4286 246.948" stroke="#5CB800" stroke-width="0.286023" stroke-miterlimit="22.9256"/>
<path d="M54.8706 293.284C55.603 293.284 56.1924 292.69 56.1924 291.962" stroke="#5CB800" stroke-width="0.286023" stroke-miterlimit="22.9256"/>
<path d="M42.4243 291.962C42.4243 292.695 43.018 293.284 43.746 293.284" stroke="#5CB800" stroke-width="0.286023" stroke-miterlimit="22.9256"/>
<path d="M56.1924 267.603C56.1924 266.87 55.603 266.281 54.8706 266.281" stroke="#5CB800" stroke-width="0.286023" stroke-miterlimit="22.9256"/>
<path d="M43.7504 266.276C43.018 266.276 42.4286 266.87 42.4286 267.598" stroke="#5CB800" stroke-width="0.286023" stroke-miterlimit="22.9256"/>
<path d="M43.486 293.813H54.6063" stroke="#5CB800" stroke-width="0.286023" stroke-miterlimit="22.9256"/>
<path d="M55.6637 292.227V267.867" stroke="#5CB800" stroke-width="0.286023" stroke-miterlimit="22.9256"/>
<path d="M54.6063 266.276H43.486" stroke="#5CB800" stroke-width="0.286023" stroke-miterlimit="22.9256"/>
<path d="M42.4243 267.867V292.227" stroke="#5CB800" stroke-width="0.286023" stroke-miterlimit="22.9256"/>
<path d="M43.486 246.155L53.0158 249.865L55.6637 258.337" stroke="#5CB800" stroke-width="0.286023" stroke-miterlimit="22.9256"/>
<path d="M43.486 266.276L53.0158 271.043L55.6637 292.226" stroke="#5CB800" stroke-width="0.286023" stroke-miterlimit="22.9256"/>
<path d="M43.486 300.699L53.0158 304.404L55.6637 312.877" stroke="#5CB800" stroke-width="0.286023" stroke-miterlimit="22.9256"/>
<path d="M109.15 105.826L103.854 94.177" stroke="black" stroke-width="0.286023" stroke-miterlimit="22.9256"/>
<path d="M109.15 85.176L101.206 98.9441" stroke="black" stroke-width="0.286023" stroke-miterlimit="22.9256"/>
<path d="M101.206 85.176V105.826" stroke="black" stroke-width="0.286023" stroke-miterlimit="22.9256"/>
<path d="M119.209 85.176L114.975 101.588L114.446 103.707L113.913 104.769L112.855 105.826H112.327" stroke="black" stroke-width="0.286023" stroke-miterlimit="22.9256"/>
<path d="M111.265 85.176L114.975 101.588" stroke="black" stroke-width="0.286023" stroke-miterlimit="22.9256"/>
<path d="M128.743 85.176L120.27 105.826" stroke="black" stroke-width="0.286023" stroke-miterlimit="22.9256"/>
<path d="M120.27 85.176L128.743 105.826" stroke="black" stroke-width="0.286023" stroke-miterlimit="22.9256"/>
<path d="M131.391 85.176V105.826" stroke="black" stroke-width="0.286023" stroke-miterlimit="22.9256"/>
<path d="M131.391 94.7058H139.863" stroke="black" stroke-width="0.286023" stroke-miterlimit="22.9256"/>
<path d="M139.863 105.826V85.176" stroke="black" stroke-width="0.286023" stroke-miterlimit="22.9256"/>
<path d="M143.039 105.826L147.278 94.7058" stroke="black" stroke-width="0.286023" stroke-miterlimit="22.9256"/>
<path d="M151.512 105.826V85.176H146.216L144.101 86.2334L143.568 87.2909L143.039 88.8813V91.0005L143.568 93.1153L144.101 94.1771L146.216 94.7058H151.512" stroke="black" stroke-width="0.286023" stroke-miterlimit="22.9256"/>
<path d="M91.6723 123.299L92.734 122.242L94.8532 119.065V139.715" stroke="black" stroke-width="0.286023" stroke-miterlimit="22.9256"/>
<path d="M104.912 119.065L102.793 120.123L101.735 123.299L101.206 128.066V130.714L101.735 135.481L102.793 138.658L104.912 139.715H105.973L107.56 138.658L108.617 135.481L109.15 130.714V128.066L108.617 123.299L107.56 120.123L105.973 119.065H104.912Z" stroke="black" stroke-width="0.286023" stroke-miterlimit="22.9256"/>
<path d="M113.913 138.658L113.384 139.715L112.855 138.658L113.384 137.601L113.913 138.658ZM113.913 138.658V140.777L113.384 142.363L112.855 143.425" stroke="black" stroke-width="0.286023" stroke-miterlimit="22.9256"/>
<path d="M119.209 123.832V123.299L119.737 121.185L120.27 120.123L121.328 119.065H123.976L125.037 120.123L125.566 121.185L126.095 123.299V124.89L125.566 127.009L124.504 129.657L118.68 139.715H126.623" stroke="black" stroke-width="0.286023" stroke-miterlimit="22.9256"/>
<path d="M130.857 123.832V123.299L131.391 121.185L131.919 120.123L132.977 119.065H135.625L136.686 120.123L137.215 121.185L137.744 123.299V124.89L137.215 127.009L136.158 129.657L130.329 139.715H138.272" stroke="black" stroke-width="0.286023" stroke-miterlimit="22.9256"/>
<path d="M152.569 139.715V125.947L148.335 136.539L144.101 125.947V139.715" stroke="black" stroke-width="0.286023" stroke-miterlimit="22.9256"/>
<path d="M155.217 123.832V123.299L155.75 121.185L156.808 120.123L157.865 119.065H159.984L161.042 120.123L161.575 121.185L162.632 123.299V124.89L161.575 127.009L160.513 129.657L154.688 139.715H163.161" stroke="black" stroke-width="0.286023" stroke-miterlimit="22.9256"/>
<path d="M282.84 83.0569L274.896 103.707" stroke="black" stroke-width="0.286023" stroke-miterlimit="22.9256"/>
<path d="M274.896 83.0569L282.84 103.707" stroke="black" stroke-width="0.286023" stroke-miterlimit="22.9256"/>
<path d="M288.664 83.0569H290.784L292.37 84.1143L293.431 86.2335L293.96 87.8239L294.489 91.0005V95.7676L293.96 98.9442L293.431 100.53L292.37 102.649L290.784 103.707H288.664L287.607 102.649L286.545 100.53L285.488 98.9442L284.959 95.7676V91.0005L285.488 87.8239L286.545 86.2335L287.607 84.1143L288.664 83.0569Z" stroke="black" stroke-width="0.286023" stroke-miterlimit="22.9256"/>
<path d="M305.609 103.707V83.0569H299.256V99.4729L298.727 101.588L298.198 102.649L296.608 103.707" stroke="black" stroke-width="0.286023" stroke-miterlimit="22.9256"/>
<path d="M317.258 103.707V83.0569H310.905V99.4729L310.376 101.588L309.847 102.649L308.257 103.707" stroke="black" stroke-width="0.286023" stroke-miterlimit="22.9256"/>
<path d="M262.714 121.185L263.776 120.123L265.362 116.946V137.601" stroke="black" stroke-width="0.286023" stroke-miterlimit="22.9256"/>
<path d="M272.248 121.185L273.306 120.123L274.896 116.946V137.601" stroke="black" stroke-width="0.286023" stroke-miterlimit="22.9256"/>
<path d="M282.311 136.539L281.778 137.601L281.249 136.539L281.778 135.481L282.311 136.539ZM282.311 136.539V138.658L281.778 140.249L281.249 141.306" stroke="black" stroke-width="0.286023" stroke-miterlimit="22.9256"/>
<path d="M287.074 116.946H295.546L289.722 137.601" stroke="black" stroke-width="0.286023" stroke-miterlimit="22.9256"/>
<path d="M305.609 116.946H299.785L299.256 125.947L299.785 124.89L301.904 123.833H303.49L305.08 124.89L306.666 127.009L307.2 129.657V131.772L306.666 134.42L305.08 136.539L303.49 137.601H301.904L299.785 136.539L299.256 135.481L298.727 133.891" stroke="black" stroke-width="0.286023" stroke-miterlimit="22.9256"/>
<path d="M320.968 137.601V123.833L316.729 134.42L313.024 123.833V137.601" stroke="black" stroke-width="0.286023" stroke-miterlimit="22.9256"/>
<path d="M324.144 122.242V121.185L324.673 119.065L325.202 118.008L326.263 116.946H328.378L329.969 118.008L330.497 119.065L331.026 121.185V122.771L330.497 124.89L329.44 128.067L323.082 137.601H331.559" stroke="black" stroke-width="0.286023" stroke-miterlimit="22.9256"/>
<path d="M117.094 489.747H110.207V510.397" stroke="black" stroke-width="0.286023" stroke-miterlimit="22.9256"/>
<path d="M122.918 489.747H125.037L126.095 490.805L127.681 492.924L128.214 495.043L128.743 497.691V502.454L128.214 505.635L127.681 507.749L126.095 509.34L125.037 510.397H122.918L121.856 509.34L120.27 507.749L119.737 505.635L119.209 502.454V497.691L119.737 495.043L120.27 492.924L121.856 490.805L122.918 489.747Z" stroke="black" stroke-width="0.286023" stroke-miterlimit="22.9256"/>
<path d="M140.92 495.043L140.392 492.924L139.863 491.866L139.334 490.805L137.744 489.747H135.625L134.567 490.805L134.038 491.866L133.51 492.924L132.977 495.043L131.919 497.691V502.454L132.977 505.635L133.51 507.749L134.567 509.34L135.625 510.397H137.744L139.334 509.34L140.392 507.749L140.92 505.635" stroke="black" stroke-width="0.286023" stroke-miterlimit="22.9256"/>
<path d="M146.745 489.747V510.397" stroke="black" stroke-width="0.286023" stroke-miterlimit="22.9256"/>
<path d="M142.511 489.747H150.983" stroke="black" stroke-width="0.286023" stroke-miterlimit="22.9256"/>
<path d="M153.631 489.747V510.397L162.103 489.747V510.397" stroke="black" stroke-width="0.286023" stroke-miterlimit="22.9256"/>
<path d="M166.342 489.747V510.397" stroke="black" stroke-width="0.286023" stroke-miterlimit="22.9256"/>
<path d="M166.342 499.806H174.814" stroke="black" stroke-width="0.286023" stroke-miterlimit="22.9256"/>
<path d="M174.814 510.397V489.747" stroke="black" stroke-width="0.286023" stroke-miterlimit="22.9256"/>
<path d="M179.577 503.515H185.406" stroke="black" stroke-width="0.286023" stroke-miterlimit="22.9256"/>
<path d="M177.462 510.397L182.225 489.747L186.992 510.397" stroke="black" stroke-width="0.286023" stroke-miterlimit="22.9256"/>
<path d="M188.582 510.397L192.816 499.806" stroke="black" stroke-width="0.286023" stroke-miterlimit="22.9256"/>
<path d="M197.055 510.397V489.747H191.759L189.64 490.805L189.111 491.866L188.582 493.981V495.572L189.111 497.691L189.64 498.748L191.759 499.806H197.055" stroke="black" stroke-width="0.286023" stroke-miterlimit="22.9256"/>
<path d="M118.68 528.933V527.875L119.209 525.756L119.737 525.227L120.799 524.166H122.918L124.504 525.227L125.037 525.756L125.566 527.875V529.99L125.037 531.58L123.976 534.757L117.622 544.291H126.095" stroke="black" stroke-width="0.286023" stroke-miterlimit="22.9256"/>
<path d="M130.857 524.166H137.215L133.51 531.58H135.625L136.686 532.638L137.215 533.7L137.744 536.876V538.462L137.215 541.639L136.158 543.229L134.038 544.291H132.448L130.857 543.229L130.329 542.701L129.8 540.582" stroke="black" stroke-width="0.286023" stroke-miterlimit="22.9256"/>
<path d="M142.511 543.229L141.982 544.291L141.449 543.229L141.982 542.701L142.511 543.229ZM142.511 543.229V545.349L141.982 547.468L141.449 548.525" stroke="black" stroke-width="0.286023" stroke-miterlimit="22.9256"/>
<path d="M147.807 528.933V527.875L148.335 525.756L148.864 525.227L149.921 524.166H152.041L153.631 525.227L154.16 525.756L154.688 527.875V529.99L154.16 531.58L153.102 534.757L147.278 544.291H155.217" stroke="black" stroke-width="0.286023" stroke-miterlimit="22.9256"/>
<path d="M161.575 524.166L159.984 525.227L159.455 526.813V528.933L159.984 531.052L161.042 531.58L163.161 532.638L165.28 533.7L166.342 535.819L166.87 537.405V540.582L166.342 542.701L165.809 543.229L163.694 544.291H161.575L159.984 543.229L159.455 542.701L158.927 540.582V537.405L159.455 535.819L160.513 533.7L162.103 532.638L164.751 531.58L165.809 531.052L166.342 528.933V526.813L165.809 525.227L163.694 524.166H161.575Z" stroke="black" stroke-width="0.286023" stroke-miterlimit="22.9256"/>
<path d="M180.639 544.291V531.052L176.929 541.639L172.695 531.052V544.291" stroke="black" stroke-width="0.286023" stroke-miterlimit="22.9256"/>
<path d="M183.815 528.933V527.875L184.344 525.756L184.873 525.227L185.934 524.166H188.582L189.64 525.227L190.168 525.756L190.697 527.875V529.99L190.168 531.58L189.111 534.757L183.286 544.291H191.226" stroke="black" stroke-width="0.286023" stroke-miterlimit="22.9256"/>
<path d="M395.633 100.001L395.104 97.8823L394.571 97.3535L394.042 96.2961L392.985 95.2344H390.337L389.28 96.2961L388.751 97.3535L388.218 97.8823L387.689 100.001L387.16 103.178V107.945L387.689 110.593L388.218 112.712L389.28 114.827L390.337 115.36H392.985L394.042 114.827L395.104 112.712L395.633 110.593" stroke="black" stroke-width="0.286023" stroke-miterlimit="22.9256"/>
<path d="M407.282 91.5293L396.69 122.242" stroke="black" stroke-width="0.286023" stroke-miterlimit="22.9256"/>
<path d="M418.402 95.2344L414.168 111.65L413.635 113.77L413.106 114.827L412.049 115.36H411.52" stroke="black" stroke-width="0.286023" stroke-miterlimit="22.9256"/>
<path d="M410.458 95.2344L414.168 111.65" stroke="black" stroke-width="0.286023" stroke-miterlimit="22.9256"/>
<path d="M380.274 129.128H374.45L373.921 138.129L374.45 137.072L376.04 136.01H377.626L379.745 137.072L380.807 138.658L381.336 141.835V143.954L380.807 146.602L379.745 148.721L377.626 149.778H376.04L374.45 148.721L373.921 147.659L373.392 145.54" stroke="black" stroke-width="0.286023" stroke-miterlimit="22.9256"/>
<path d="M386.099 148.721L385.57 149.778L385.041 148.721L385.57 147.659L386.099 148.721ZM386.099 148.721V150.307L385.57 152.426L385.041 153.484" stroke="black" stroke-width="0.286023" stroke-miterlimit="22.9256"/>
<path d="M391.927 129.128H398.281L394.571 137.072H396.69L397.752 138.129L398.281 138.658L398.809 141.835V143.954L398.281 146.602L397.219 148.721L395.104 149.778H393.514L391.927 148.721L391.394 147.659L390.866 145.54" stroke="black" stroke-width="0.286023" stroke-miterlimit="22.9256"/>
<path d="M402.515 132.833L403.576 132.305L405.162 129.128V149.778" stroke="black" stroke-width="0.286023" stroke-miterlimit="22.9256"/>
<path d="M422.112 149.778V136.01L417.873 146.602L414.168 136.01V149.778" stroke="black" stroke-width="0.286023" stroke-miterlimit="22.9256"/>
<path d="M425.288 133.891V132.833L425.817 131.243L426.346 130.186L427.403 129.128H429.522L431.113 130.186L431.641 131.243L432.17 132.833V134.953L431.641 137.072L430.584 139.715L424.755 149.778H432.699" stroke="black" stroke-width="0.286023" stroke-miterlimit="22.9256"/>
<path d="M347.442 457.973L346.913 456.387L346.385 455.325L345.856 454.267L344.266 453.21H342.146L341.089 454.267L340.56 455.325L340.031 456.387L338.97 457.973L338.441 461.149V465.916L338.97 468.564L340.031 470.683L341.089 472.803L342.146 473.86H344.266L345.856 472.803L346.913 470.683L347.442 468.564" stroke="black" stroke-width="0.286023" stroke-miterlimit="22.9256"/>
<path d="M350.623 473.86V453.21H359.095V473.86" stroke="black" stroke-width="0.286023" stroke-miterlimit="22.9256"/>
<path d="M363.858 466.974H369.687" stroke="black" stroke-width="0.286023" stroke-miterlimit="22.9256"/>
<path d="M361.743 473.86L366.506 453.21L371.273 473.86" stroke="black" stroke-width="0.286023" stroke-miterlimit="22.9256"/>
<path d="M381.336 473.86V453.21H374.978V469.622L373.921 471.741L373.392 472.803L372.33 473.86" stroke="black" stroke-width="0.286023" stroke-miterlimit="22.9256"/>
<path d="M386.099 453.21V473.86H391.927L392.985 472.803L393.514 471.741L394.042 469.622V465.916L393.514 463.797L392.985 462.74L391.927 462.211H386.099" stroke="black" stroke-width="0.286023" stroke-miterlimit="22.9256"/>
<path d="M397.752 453.21V473.86" stroke="black" stroke-width="0.286023" stroke-miterlimit="22.9256"/>
<path d="M397.752 462.74H405.691" stroke="black" stroke-width="0.286023" stroke-miterlimit="22.9256"/>
<path d="M405.691 473.86V453.21" stroke="black" stroke-width="0.286023" stroke-miterlimit="22.9256"/>
<path d="M409.401 473.86L413.106 462.74" stroke="black" stroke-width="0.286023" stroke-miterlimit="22.9256"/>
<path d="M417.344 473.86V453.21H412.049L410.458 454.267L409.93 455.325L409.401 456.915V459.03L409.93 461.149L410.458 462.211L412.049 462.74H417.344" stroke="black" stroke-width="0.286023" stroke-miterlimit="22.9256"/>
<path d="M343.737 491.333L344.794 490.276L346.385 487.099V507.749" stroke="black" stroke-width="0.286023" stroke-miterlimit="22.9256"/>
<path d="M352.738 487.099H361.21L355.386 507.749" stroke="black" stroke-width="0.286023" stroke-miterlimit="22.9256"/>
<path d="M365.977 506.692L364.92 507.749L364.387 506.692L364.92 505.635L365.977 506.692ZM365.977 506.692V508.811L364.92 510.397L364.387 511.459" stroke="black" stroke-width="0.286023" stroke-miterlimit="22.9256"/>
<path d="M373.392 487.099L371.802 488.157L370.744 490.276V492.395L371.802 493.981L372.864 495.043L374.978 496.1L376.569 497.158L378.159 498.748L378.688 500.867V504.044L378.159 505.635L377.626 506.692L375.507 507.749H373.392L371.802 506.692L370.744 505.635L370.216 504.044V500.867L370.744 498.748L372.33 497.158L373.921 496.1L376.04 495.043L377.626 493.981L378.159 492.395V490.276L377.626 488.157L375.507 487.099H373.392Z" stroke="black" stroke-width="0.286023" stroke-miterlimit="22.9256"/>
<path d="M382.393 492.395V491.333L383.451 489.214L383.984 488.157L385.041 487.099H387.16L388.218 488.157L389.28 489.214L389.808 491.333V492.924L389.28 495.043L387.689 498.22L381.865 507.749H390.337" stroke="black" stroke-width="0.286023" stroke-miterlimit="22.9256"/>
<path d="M404.105 507.749V493.981L399.867 504.573L396.161 493.981V507.749" stroke="black" stroke-width="0.286023" stroke-miterlimit="22.9256"/>
<path d="M407.282 492.395V491.333L407.81 489.214L408.343 488.157L409.401 487.099H412.049L413.106 488.157L413.635 489.214L414.168 491.333V492.924L413.635 495.043L412.577 498.22L406.753 507.749H414.697" stroke="black" stroke-width="0.286023" stroke-miterlimit="22.9256"/>
<path d="M383.451 248.274H376.569V268.929" stroke="black" stroke-width="0.286023" stroke-miterlimit="22.9256"/>
<path d="M386.099 262.042H391.927" stroke="black" stroke-width="0.286023" stroke-miterlimit="22.9256"/>
<path d="M384.512 268.929L389.28 248.274L394.042 268.929" stroke="black" stroke-width="0.286023" stroke-miterlimit="22.9256"/>
<path d="M396.69 268.929V248.274H401.986L403.576 249.332L404.634 250.393L405.162 252.508V255.156L404.634 257.275L403.576 258.337L401.986 259.394H396.69" stroke="black" stroke-width="0.286023" stroke-miterlimit="22.9256"/>
<path d="M418.931 272.634V268.929H407.282V272.634" stroke="black" stroke-width="0.286023" stroke-miterlimit="22.9256"/>
<path d="M408.343 268.929L410.458 265.748L410.991 264.161L411.52 259.923V248.274H417.873V268.929" stroke="black" stroke-width="0.286023" stroke-miterlimit="22.9256"/>
<path d="M420.521 266.81L419.992 267.867L420.521 268.929L421.578 267.867" stroke="black" stroke-width="0.286023" stroke-miterlimit="22.9256"/>
<path d="M368.625 287.459V286.402L369.154 284.283L369.687 283.225L370.744 282.692H373.392L374.45 283.225L374.978 284.283L375.507 286.402V288.521L374.978 290.107L373.921 293.284L368.096 302.818H376.04" stroke="black" stroke-width="0.286023" stroke-miterlimit="22.9256"/>
<path d="M380.807 301.756L380.274 302.818L379.745 301.756L380.274 300.699L380.807 301.756ZM380.807 301.756V303.876L380.274 305.995L379.745 307.052" stroke="black" stroke-width="0.286023" stroke-miterlimit="22.9256"/>
<path d="M386.632 282.692H392.985L389.28 290.107H391.394L392.456 291.169L392.985 292.226L393.514 294.874V296.989L392.985 300.17L391.927 301.756L390.337 302.818H388.218L386.632 301.756L386.099 300.699L385.57 299.108" stroke="black" stroke-width="0.286023" stroke-miterlimit="22.9256"/>
<path d="M404.105 285.34L403.576 283.225L401.986 282.692H400.4L398.809 283.225L397.752 286.402L397.219 291.169V295.932L397.752 300.17L398.809 301.756L400.4 302.818H401.457L403.048 301.756L404.105 300.17L404.634 296.989V295.932L404.105 293.284L403.048 291.169L401.457 290.107H400.4L398.809 291.169L397.752 293.284L397.219 295.932" stroke="black" stroke-width="0.286023" stroke-miterlimit="22.9256"/>
<path d="M419.464 302.818V289.05L415.225 300.17L410.991 289.05V302.818" stroke="black" stroke-width="0.286023" stroke-miterlimit="22.9256"/>
<path d="M422.112 287.459V286.402L422.64 284.283L423.169 283.225L424.755 282.692H426.874L427.936 283.225L428.465 284.283L428.993 286.402V288.521L428.465 290.107L427.403 293.284L421.578 302.818H429.522" stroke="black" stroke-width="0.286023" stroke-miterlimit="22.9256"/>
<path d="M494.657 681.439H446.996V729.101H494.657V681.439Z" stroke="black" stroke-width="0.286023" stroke-miterlimit="22.9256"/>
<path d="M446.996 681.439V688.325H453.882L446.996 681.439ZM446.996 688.325H453.882L446.996 729.101V688.325Z" fill="black"/>
<path d="M446.996 688.325V681.439L453.882 688.325M446.996 688.325H453.882M446.996 688.325V729.101L453.882 688.325" stroke="black" stroke-width="0.286023" stroke-miterlimit="22.9256"/>
<path d="M446.996 681.439H494.657L453.882 688.325L446.996 681.439Z" fill="black"/>
<path d="M446.996 681.439H494.657L453.882 688.325L446.996 681.439Z" stroke="black" stroke-width="0.286023" stroke-miterlimit="22.9256"/>
<path d="M446.996 681.439H494.657L453.882 688.325L446.996 729.101V681.439ZM446.996 681.439H494.657V729.101H446.996V681.439Z" stroke="black" stroke-width="0.286023" stroke-miterlimit="22.9256"/>
</g>
<defs>
<clipPath id="clip0_9_2610">
<rect width="519.137" height="797.39" fill="white" transform="translate(0.5 0.5)"/>
</clipPath>
</defs>
</svg>
