<svg width="521" height="798" viewBox="0 0 521 798" fill="none" xmlns="http://www.w3.org/2000/svg">
<g clip-path="url(#clip0_9_5531)">
<path d="M76.315 184.731H151.512H76.315Z" stroke="#CECCE6" stroke-width="0.286283" stroke-miterlimit="22.9256"/>
<path d="M22.3029 184.731H76.315" stroke="#CECCE6" stroke-width="0.286283" stroke-miterlimit="22.9256"/>
<path d="M478.242 239.27H458.117H457.589H478.242Z" stroke="#CECCE6" stroke-width="0.286283" stroke-miterlimit="22.9256"/>
<path d="M95.3805 516.222H92.2012L95.3805 516.754V516.222ZM92.2012 516.222L95.3805 516.754H92.2012V516.222Z" fill="#CECCE6"/>
<path d="M92.2012 516.222H95.3805V516.754M92.2012 516.222L95.3805 516.754M92.2012 516.222V516.754H95.3805" stroke="#CECCE6" stroke-width="0.286283" stroke-miterlimit="22.9256"/>
<path d="M25.4821 681.443H22.3029L25.4821 729.101V681.443ZM22.3029 681.443L25.4821 729.101H22.3029V681.443Z" fill="#CECCE6"/>
<path d="M22.3029 681.443H25.4821V729.101M22.3029 681.443L25.4821 729.101M22.3029 681.443V729.101H25.4821" stroke="#CECCE6" stroke-width="0.286283" stroke-miterlimit="22.9256"/>
<path d="M22.3029 681.443H42.4281V640.67H35.5422V341.473H171.637V334.588H158.398V327.707H151.512V334.588H35.5422V246.156H42.4281V239.27H151.512V280.048H158.398V171.491H151.512V212.264H42.4281V205.383H15.422V14.7438H151.512V123.833H158.398V14.7438H223.003V0.977051H290.781V14.7438H328.38V133.893H335.266V14.7438H491.481V334.588H335.266V195.318H328.38V334.588H321.494V341.473H491.481V783.646H246.829V341.473H253.715V334.588H233.063V341.473H239.949V742.868H22.3029V681.443Z" fill="#CECCE6"/>
<path d="M22.3029 681.443H42.4281V640.67H35.5422V341.473H171.637V334.588H158.398V327.707H151.512V334.588H35.5422V246.156H42.4281V239.27H151.512V280.048H158.398V171.491H151.512V212.264H42.4281V205.383H15.422V14.7438H151.512V123.833H158.398V14.7438H223.003V0.977051H290.781V14.7438H328.38V133.893H335.266V14.7438H491.481V334.588H335.266V195.318H328.38V334.588H321.494V341.473H491.481V783.646H246.829V341.473H253.715V334.588H233.063V341.473H239.949V742.868H22.3029V681.443Z" stroke="#CECCE6" stroke-width="0.286283" stroke-miterlimit="22.9256"/>
<path d="M22.3029 648.61V655.496" stroke="#FF0000" stroke-width="0.286283" stroke-miterlimit="22.9256"/>
<path d="M22.3029 666.084V733.868" stroke="#FF0000" stroke-width="0.286283" stroke-miterlimit="22.9256"/>
<path d="M290.781 0.977051H505.248" stroke="black" stroke-width="0.286283" stroke-miterlimit="22.9256"/>
<path d="M505.248 205.383V0.977051" stroke="black" stroke-width="0.286283" stroke-miterlimit="22.9256"/>
<path d="M505.248 246.156V640.67" stroke="black" stroke-width="0.286283" stroke-miterlimit="22.9256"/>
<path d="M505.248 681.443V797.413" stroke="black" stroke-width="0.286283" stroke-miterlimit="22.9256"/>
<path d="M491.481 53.4021V58.6958" stroke="#008AB8" stroke-width="0.286283" stroke-miterlimit="22.9256"/>
<path d="M498.367 648.61V655.496" stroke="#FF0000" stroke-width="0.286283" stroke-miterlimit="22.9256"/>
<path d="M430.583 797.413H505.248H430.583Z" stroke="black" stroke-width="0.286283" stroke-miterlimit="22.9256"/>
<path d="M491.481 53.4021V58.6958" stroke="#008AB8" stroke-width="0.286283" stroke-miterlimit="22.9256"/>
<path d="M335.266 56.5764V58.6959" stroke="#008AB8" stroke-width="0.286283" stroke-miterlimit="22.9256"/>
<path d="M192.29 756.107H233.063" stroke="black" stroke-width="0.286283" stroke-miterlimit="22.9256"/>
<path d="M192.29 742.868H239.949" stroke="black" stroke-width="0.286283" stroke-miterlimit="22.9256"/>
<path d="M430.583 783.646V797.412" stroke="black" stroke-width="0.286283" stroke-miterlimit="22.9256"/>
<path d="M307.727 783.646V797.412" stroke="black" stroke-width="0.286283" stroke-miterlimit="22.9256"/>
<path d="M307.727 797.412H233.063V756.107" stroke="black" stroke-width="0.286283" stroke-miterlimit="22.9256"/>
<path d="M491.481 783.646H430.583" stroke="black" stroke-width="0.286283" stroke-miterlimit="22.9256"/>
<path d="M307.727 783.646H246.829V742.868" stroke="black" stroke-width="0.286283" stroke-miterlimit="22.9256"/>
<path d="M430.583 783.646H307.727" stroke="#00BFFF" stroke-width="0.286283" stroke-miterlimit="22.9256"/>
<path d="M307.727 790.527H430.583" stroke="#00BFFF" stroke-width="0.286283" stroke-miterlimit="22.9256"/>
<path d="M307.727 797.413H430.583" stroke="#00BFFF" stroke-width="0.286283" stroke-miterlimit="22.9256"/>
<path d="M491.481 14.7437H335.266" stroke="black" stroke-width="0.286283" stroke-miterlimit="22.9256"/>
<path d="M328.38 14.7437H290.781" stroke="black" stroke-width="0.286283" stroke-miterlimit="22.9256"/>
<path d="M223.003 14.7437H158.398H185.404" stroke="black" stroke-width="0.286283" stroke-miterlimit="22.9256"/>
<path d="M151.512 14.7437H15.422" stroke="black" stroke-width="0.286283" stroke-miterlimit="22.9256"/>
<path d="M1.6503 205.383V0.977051" stroke="black" stroke-width="0.286283" stroke-miterlimit="22.9256"/>
<path d="M15.422 205.383V14.7437V83.0549" stroke="black" stroke-width="0.286283" stroke-miterlimit="22.9256"/>
<path d="M8.53616 681.443V756.107" stroke="black" stroke-width="0.286283" stroke-miterlimit="22.9256"/>
<path d="M22.3029 681.443V742.868" stroke="black" stroke-width="0.286283" stroke-miterlimit="22.9256"/>
<path d="M430.583 783.646V797.412" stroke="black" stroke-width="0.286283" stroke-miterlimit="22.9256"/>
<path d="M307.727 783.646V797.412" stroke="black" stroke-width="0.286283" stroke-miterlimit="22.9256"/>
<path d="M35.5422 620.544V615.251" stroke="#008AB8" stroke-width="0.286283" stroke-miterlimit="22.9256"/>
<path d="M8.53616 595.653V598.305" stroke="#008AB8" stroke-width="0.286283" stroke-miterlimit="22.9256"/>
<path d="M8.53616 620.544V615.251" stroke="#008AB8" stroke-width="0.286283" stroke-miterlimit="22.9256"/>
<path d="M430.583 783.646H307.727" stroke="#00BFFF" stroke-width="0.286283" stroke-miterlimit="22.9256"/>
<path d="M307.727 790.527H430.583" stroke="#00BFFF" stroke-width="0.286283" stroke-miterlimit="22.9256"/>
<path d="M307.727 797.413H430.583" stroke="#00BFFF" stroke-width="0.286283" stroke-miterlimit="22.9256"/>
<path d="M491.481 205.383V14.7437" stroke="black" stroke-width="0.286283" stroke-miterlimit="22.9256"/>
<path d="M491.481 242.449V334.588" stroke="black" stroke-width="0.286283" stroke-miterlimit="22.9256"/>
<path d="M491.481 341.473V640.67" stroke="black" stroke-width="0.286283" stroke-miterlimit="22.9256"/>
<path d="M491.481 681.443V783.646" stroke="black" stroke-width="0.286283" stroke-miterlimit="22.9256"/>
<path d="M246.829 742.868V382.251V341.473V348.359" stroke="black" stroke-width="0.286283" stroke-miterlimit="22.9256"/>
<path d="M246.829 341.473H253.715" stroke="black" stroke-width="0.286283" stroke-miterlimit="22.9256"/>
<path d="M321.494 341.473H355.386" stroke="black" stroke-width="0.286283" stroke-miterlimit="22.9256"/>
<path d="M436.937 341.473H491.481" stroke="black" stroke-width="0.286283" stroke-miterlimit="22.9256"/>
<path d="M246.829 334.588H253.715" stroke="black" stroke-width="0.286283" stroke-miterlimit="22.9256"/>
<path d="M321.494 334.588H328.38" stroke="black" stroke-width="0.286283" stroke-miterlimit="22.9256"/>
<path d="M335.266 334.588H355.386" stroke="black" stroke-width="0.286283" stroke-miterlimit="22.9256"/>
<path d="M436.937 334.588H491.481" stroke="black" stroke-width="0.286283" stroke-miterlimit="22.9256"/>
<path d="M239.949 742.868V341.473V382.251" stroke="black" stroke-width="0.286283" stroke-miterlimit="22.9256"/>
<path d="M239.949 351.534V344.653" stroke="black" stroke-width="0.286283" stroke-miterlimit="22.9256"/>
<path d="M35.5422 595.653V598.305" stroke="#008AB8" stroke-width="0.286283" stroke-miterlimit="22.9256"/>
<path d="M335.266 334.588V195.318" stroke="black" stroke-width="0.286283" stroke-miterlimit="22.9256"/>
<path d="M335.266 133.893V14.7437" stroke="black" stroke-width="0.286283" stroke-miterlimit="22.9256"/>
<path d="M328.38 334.588V195.318" stroke="black" stroke-width="0.286283" stroke-miterlimit="22.9256"/>
<path d="M328.38 133.893V14.7437" stroke="black" stroke-width="0.286283" stroke-miterlimit="22.9256"/>
<path d="M335.266 195.318H328.38" stroke="black" stroke-width="0.286283" stroke-miterlimit="22.9256"/>
<path d="M335.266 133.893H328.38" stroke="black" stroke-width="0.286283" stroke-miterlimit="22.9256"/>
<path d="M290.781 14.7438V0.977051" stroke="black" stroke-width="0.286283" stroke-miterlimit="22.9256"/>
<path d="M223.003 14.7438V0.977051" stroke="black" stroke-width="0.286283" stroke-miterlimit="22.9256"/>
<path d="M158.398 53.4021V58.6958" stroke="#008AB8" stroke-width="0.286283" stroke-miterlimit="22.9256"/>
<path d="M151.512 53.4021V58.6958" stroke="#008AB8" stroke-width="0.286283" stroke-miterlimit="22.9256"/>
<path d="M158.398 53.4021V58.6958" stroke="#008AB8" stroke-width="0.286283" stroke-miterlimit="22.9256"/>
<path d="M423.697 783.646H428.464" stroke="#008AB8" stroke-width="0.286283" stroke-miterlimit="22.9256"/>
<path d="M374.979 105.827L369.685 94.1748" stroke="black" stroke-width="0.286283" stroke-miterlimit="22.9256"/>
<path d="M374.979 85.1746L366.506 98.9413" stroke="black" stroke-width="0.286283" stroke-miterlimit="22.9256"/>
<path d="M366.506 85.1746V105.827" stroke="black" stroke-width="0.286283" stroke-miterlimit="22.9256"/>
<path d="M384.512 85.1746L380.805 101.588L379.745 103.708L379.218 104.767L378.158 105.827H377.631" stroke="black" stroke-width="0.286283" stroke-miterlimit="22.9256"/>
<path d="M376.571 85.1746L380.805 101.588" stroke="black" stroke-width="0.286283" stroke-miterlimit="22.9256"/>
<path d="M394.044 85.1746L385.571 105.827" stroke="black" stroke-width="0.286283" stroke-miterlimit="22.9256"/>
<path d="M385.571 85.1746L394.044 105.827" stroke="black" stroke-width="0.286283" stroke-miterlimit="22.9256"/>
<path d="M396.691 85.1746V105.827" stroke="black" stroke-width="0.286283" stroke-miterlimit="22.9256"/>
<path d="M396.691 94.7073H405.164" stroke="black" stroke-width="0.286283" stroke-miterlimit="22.9256"/>
<path d="M405.164 105.827V85.1746" stroke="black" stroke-width="0.286283" stroke-miterlimit="22.9256"/>
<path d="M408.344 105.827L412.577 94.7073" stroke="black" stroke-width="0.286283" stroke-miterlimit="22.9256"/>
<path d="M416.816 105.827V85.1746H411.518L409.931 86.2343L408.871 87.2941L408.344 88.8812V91.0007L408.871 93.1152L409.931 94.1749L411.518 94.7073H416.816" stroke="black" stroke-width="0.286283" stroke-miterlimit="22.9256"/>
<path d="M356.978 123.3L358.565 122.241L360.152 119.066V139.719" stroke="black" stroke-width="0.286283" stroke-miterlimit="22.9256"/>
<path d="M370.213 119.066L368.098 120.126L367.038 123.3L366.506 128.067V130.714L367.038 135.48L368.098 138.659L370.213 139.719H371.272L372.864 138.659L373.919 135.48L374.979 130.714V128.067L373.919 123.3L372.864 120.126L371.272 119.066H370.213Z" stroke="black" stroke-width="0.286283" stroke-miterlimit="22.9256"/>
<path d="M379.218 138.659L378.686 139.719L378.158 138.659L378.686 137.6L379.218 138.659ZM379.218 138.659V140.779L378.686 142.366L378.158 143.426" stroke="black" stroke-width="0.286283" stroke-miterlimit="22.9256"/>
<path d="M384.512 123.833V123.3L385.044 121.186L385.571 120.126L387.158 119.066H389.278L390.338 120.126L390.865 121.186L391.397 123.3V124.888L390.865 127.007L389.805 129.654L383.984 139.719H392.457" stroke="black" stroke-width="0.286283" stroke-miterlimit="22.9256"/>
<path d="M396.164 123.833V123.3L396.691 121.186L397.224 120.126L398.811 119.066H400.93L401.985 120.126L402.517 121.186L403.045 123.3V124.888L402.517 127.007L401.458 129.654L395.631 139.719H404.104" stroke="black" stroke-width="0.286283" stroke-miterlimit="22.9256"/>
<path d="M417.876 139.719V125.947L413.637 136.54L409.931 125.947V139.719" stroke="black" stroke-width="0.286283" stroke-miterlimit="22.9256"/>
<path d="M421.05 123.833V123.3L421.578 121.186L422.11 120.126L423.17 119.066H425.289L426.877 120.126L427.404 121.186L427.936 123.3V124.888L427.404 127.007L425.817 129.654L419.991 139.719H428.464" stroke="black" stroke-width="0.286283" stroke-miterlimit="22.9256"/>
<path d="M208.703 83.0549L200.758 103.708" stroke="black" stroke-width="0.286283" stroke-miterlimit="22.9256"/>
<path d="M200.758 83.0549L208.703 103.708" stroke="black" stroke-width="0.286283" stroke-miterlimit="22.9256"/>
<path d="M214.53 83.0549H217.176L218.236 84.1147L219.296 86.2342L219.823 87.8213L220.356 91.0006V95.7669L219.823 98.9412L219.296 100.533L218.236 102.648L217.176 103.708H214.53L213.47 102.648L212.41 100.533L211.878 98.9412L211.35 95.7669V91.0006L211.878 87.8213L212.41 86.2342L213.47 84.1147L214.53 83.0549Z" stroke="black" stroke-width="0.286283" stroke-miterlimit="22.9256"/>
<path d="M231.476 103.708V83.0549H225.122V99.4735L224.59 101.588L224.062 102.648L223.003 103.708" stroke="black" stroke-width="0.286283" stroke-miterlimit="22.9256"/>
<path d="M243.123 103.708V83.0549H236.769V99.4735L236.242 101.588L235.71 102.648L234.65 103.708" stroke="black" stroke-width="0.286283" stroke-miterlimit="22.9256"/>
<path d="M188.583 121.186L189.638 120.126L191.758 116.947V137.6" stroke="black" stroke-width="0.286283" stroke-miterlimit="22.9256"/>
<path d="M198.111 121.186L199.171 120.126L200.758 116.947V137.6" stroke="black" stroke-width="0.286283" stroke-miterlimit="22.9256"/>
<path d="M208.704 136.54L208.176 137.599L207.116 136.54L208.176 135.48L208.704 136.54ZM208.704 136.54V138.659L208.176 140.246L207.116 141.306" stroke="black" stroke-width="0.286283" stroke-miterlimit="22.9256"/>
<path d="M212.938 116.947H221.41L215.589 137.6" stroke="black" stroke-width="0.286283" stroke-miterlimit="22.9256"/>
<path d="M232.003 116.947H226.177L225.649 125.947L226.177 124.888L227.769 123.833H229.356L231.476 124.888L232.53 127.007L233.063 129.654V131.773L232.53 134.42L231.476 136.54L229.356 137.6H227.769L226.177 136.54L225.649 135.48L225.122 133.893" stroke="black" stroke-width="0.286283" stroke-miterlimit="22.9256"/>
<path d="M246.829 137.599V123.833L243.123 134.42L238.889 123.833V137.599" stroke="black" stroke-width="0.286283" stroke-miterlimit="22.9256"/>
<path d="M250.009 122.241V121.186L250.536 119.067L251.068 118.007L252.128 116.947H254.775L255.835 118.007L256.362 119.067L256.895 121.186V122.773L256.362 124.888L255.302 128.067L249.476 137.6H257.422" stroke="black" stroke-width="0.286283" stroke-miterlimit="22.9256"/>
<path d="M290.781 0.977051H1.6503" stroke="black" stroke-width="0.286283" stroke-miterlimit="22.9256"/>
<path d="M327.853 489.748H320.967V510.401" stroke="black" stroke-width="0.286283" stroke-miterlimit="22.9256"/>
<path d="M333.674 489.748H336.326L337.38 490.803L338.44 492.922L338.972 495.042L339.5 497.689V502.455L338.972 505.634L338.44 507.749L337.38 509.341L336.326 510.401H333.674L332.619 509.341L331.559 507.749L331.027 505.634L330.5 502.455V497.689L331.027 495.042L331.559 492.922L332.619 490.803L333.674 489.748Z" stroke="black" stroke-width="0.286283" stroke-miterlimit="22.9256"/>
<path d="M351.679 495.042L351.152 492.922L350.62 491.863L350.092 490.803L349.033 489.748H346.386L345.326 490.803L344.799 491.863L344.266 492.922L343.739 495.042L343.206 497.689V502.455L343.739 505.634L344.266 507.749L345.326 509.341L346.386 510.401H349.033L350.092 509.341L351.152 507.749L351.679 505.634" stroke="black" stroke-width="0.286283" stroke-miterlimit="22.9256"/>
<path d="M357.506 489.748V510.401" stroke="black" stroke-width="0.286283" stroke-miterlimit="22.9256"/>
<path d="M353.799 489.748H361.745" stroke="black" stroke-width="0.286283" stroke-miterlimit="22.9256"/>
<path d="M364.919 489.748V510.401L372.864 489.748V510.401" stroke="black" stroke-width="0.286283" stroke-miterlimit="22.9256"/>
<path d="M377.631 489.748V510.401" stroke="black" stroke-width="0.286283" stroke-miterlimit="22.9256"/>
<path d="M377.631 499.808H385.571" stroke="black" stroke-width="0.286283" stroke-miterlimit="22.9256"/>
<path d="M385.571 510.401V489.748" stroke="black" stroke-width="0.286283" stroke-miterlimit="22.9256"/>
<path d="M390.338 503.515H396.164" stroke="black" stroke-width="0.286283" stroke-miterlimit="22.9256"/>
<path d="M388.751 510.401L393.517 489.748L397.751 510.401" stroke="black" stroke-width="0.286283" stroke-miterlimit="22.9256"/>
<path d="M399.87 510.401L403.577 499.808" stroke="black" stroke-width="0.286283" stroke-miterlimit="22.9256"/>
<path d="M407.811 510.401V489.748H402.517L400.93 490.803L400.398 491.863L399.87 493.982V495.569L400.398 497.689L400.93 498.748L402.517 499.808H407.811" stroke="black" stroke-width="0.286283" stroke-miterlimit="22.9256"/>
<path d="M329.44 528.934V527.874L329.972 525.755L330.499 525.227L331.559 524.167H334.206L335.266 525.227L335.793 525.755L336.326 527.874V529.994L335.793 531.581L334.733 534.76L328.912 544.288H336.853" stroke="black" stroke-width="0.286283" stroke-miterlimit="22.9256"/>
<path d="M341.619 524.167H347.973L344.799 531.581H346.386L347.445 532.64L347.973 533.7L348.505 536.874V538.467L347.973 541.641L346.913 543.228L345.326 544.288H343.206L341.619 543.228L341.092 542.701L340.56 540.581" stroke="black" stroke-width="0.286283" stroke-miterlimit="22.9256"/>
<path d="M353.267 543.228L352.739 544.288L352.212 543.228L352.739 542.701L353.267 543.228ZM353.267 543.228V545.348L352.739 547.467L352.212 548.527" stroke="black" stroke-width="0.286283" stroke-miterlimit="22.9256"/>
<path d="M358.565 528.934V527.874L359.093 525.755L359.625 525.227L360.685 524.167H363.332L364.391 525.227L364.919 525.755L365.451 527.874V529.994L364.919 531.581L363.859 534.76L358.033 544.288H365.979" stroke="black" stroke-width="0.286283" stroke-miterlimit="22.9256"/>
<path d="M372.332 524.167L370.745 525.227L370.213 526.814V528.934L370.745 531.053L371.805 531.581L374.452 532.64L376.039 533.7L377.098 535.82L377.631 537.407V540.581L377.098 542.701L376.571 543.228L374.979 544.288H372.332L370.745 543.228L370.213 542.701L369.685 540.581V537.407L370.213 535.82L371.272 533.7L373.392 532.64L375.511 531.581L376.571 531.053L377.098 528.934V526.814L376.571 525.227L374.979 524.167H372.332Z" stroke="black" stroke-width="0.286283" stroke-miterlimit="22.9256"/>
<path d="M391.925 544.288V531.053L387.691 541.641L383.452 531.053V544.288" stroke="black" stroke-width="0.286283" stroke-miterlimit="22.9256"/>
<path d="M394.572 528.934V527.874L395.104 525.755L396.164 525.227L397.224 524.167H399.338L400.398 525.227L400.93 525.755L401.985 527.874V529.994L400.93 531.581L399.87 534.76L394.044 544.288H402.517" stroke="black" stroke-width="0.286283" stroke-miterlimit="22.9256"/>
<path d="M151.512 14.7437V91.0005" stroke="black" stroke-width="0.286283" stroke-miterlimit="22.9256"/>
<path d="M151.512 89.4084V123.833" stroke="black" stroke-width="0.286283" stroke-miterlimit="22.9256"/>
<path d="M151.512 171.491V212.264" stroke="black" stroke-width="0.286283" stroke-miterlimit="22.9256"/>
<path d="M158.398 14.7437V91.0005" stroke="black" stroke-width="0.286283" stroke-miterlimit="22.9256"/>
<path d="M158.398 69.2883V123.833" stroke="black" stroke-width="0.286283" stroke-miterlimit="22.9256"/>
<path d="M158.398 171.491V212.264" stroke="black" stroke-width="0.286283" stroke-miterlimit="22.9256"/>
<path d="M110.207 100.001L109.147 97.8815L108.62 97.3541L108.087 96.2944L107.028 95.2346H104.913L103.326 96.2944L102.794 97.3541L102.266 97.8815L101.734 100.001L101.207 103.18V107.947L101.734 110.593L102.266 112.708L103.326 114.827L104.913 115.36H107.028L108.087 114.827L109.147 112.708L110.207 110.593" stroke="black" stroke-width="0.286283" stroke-miterlimit="22.9256"/>
<path d="M121.859 91.5281L111.267 122.241" stroke="black" stroke-width="0.286283" stroke-miterlimit="22.9256"/>
<path d="M132.979 95.2346L128.74 111.653L128.213 113.768L127.68 114.827L126.093 115.36H125.566" stroke="black" stroke-width="0.286283" stroke-miterlimit="22.9256"/>
<path d="M124.506 95.2346L128.74 111.653" stroke="black" stroke-width="0.286283" stroke-miterlimit="22.9256"/>
<path d="M94.3207 129.126H88.4946L87.9672 138.127L88.4946 137.072L90.6141 136.012H92.2012L93.7934 137.072L94.8531 138.659L95.9078 141.833V143.953L94.8531 146.6L93.7934 148.719L92.2012 149.779H90.6141L88.4946 148.719L87.9672 147.66L87.4399 145.54" stroke="black" stroke-width="0.286283" stroke-miterlimit="22.9256"/>
<path d="M100.147 148.719L99.6195 149.779L99.0871 148.719L99.6195 147.66L100.147 148.719ZM100.147 148.719V150.307L99.6195 152.426L99.0871 153.486" stroke="black" stroke-width="0.286283" stroke-miterlimit="22.9256"/>
<path d="M105.973 129.126H112.854L109.147 137.072H110.739L111.794 138.127L112.854 138.659L113.386 141.833V143.953L112.854 146.6L111.267 148.719L109.68 149.779H108.087L105.973 148.719L105.441 147.66L104.913 145.54" stroke="black" stroke-width="0.286283" stroke-miterlimit="22.9256"/>
<path d="M116.56 132.833L117.62 132.306L119.74 129.126V149.779" stroke="black" stroke-width="0.286283" stroke-miterlimit="22.9256"/>
<path d="M136.686 149.779V136.012L132.447 146.6L128.213 136.012V149.779" stroke="black" stroke-width="0.286283" stroke-miterlimit="22.9256"/>
<path d="M139.333 133.893V132.833L139.865 131.246L140.392 130.186L141.979 129.126H144.099L145.159 130.186L145.686 131.246L146.218 132.833V134.953L145.686 137.072L144.626 139.719L138.805 149.779H146.746" stroke="black" stroke-width="0.286283" stroke-miterlimit="22.9256"/>
<path d="M158.398 123.833H151.512" stroke="black" stroke-width="0.286283" stroke-miterlimit="22.9256"/>
<path d="M158.398 171.491H151.512" stroke="black" stroke-width="0.286283" stroke-miterlimit="22.9256"/>
<path d="M109.147 457.976L108.62 456.384L108.087 455.324L107.56 454.269L106.5 453.209H103.853L102.794 454.269L102.266 455.324L101.734 456.384L101.207 457.976L100.674 461.15V465.916L101.207 468.563L101.734 470.683L102.794 472.802L103.853 473.862H106.5L107.56 472.802L108.62 470.683L109.147 468.563" stroke="black" stroke-width="0.286283" stroke-miterlimit="22.9256"/>
<path d="M112.854 473.862V453.209H120.799V473.862" stroke="black" stroke-width="0.286283" stroke-miterlimit="22.9256"/>
<path d="M125.566 466.976H131.392" stroke="black" stroke-width="0.286283" stroke-miterlimit="22.9256"/>
<path d="M123.974 473.862L128.74 453.209L132.979 473.862" stroke="black" stroke-width="0.286283" stroke-miterlimit="22.9256"/>
<path d="M143.039 473.862V453.209H136.686V469.623L136.158 471.743L135.626 472.802L134.566 473.862" stroke="black" stroke-width="0.286283" stroke-miterlimit="22.9256"/>
<path d="M147.805 453.209V473.862H153.632L154.691 472.802L155.219 471.743L155.751 469.623V465.916L155.219 463.797L154.691 462.742L153.632 462.21H147.805" stroke="black" stroke-width="0.286283" stroke-miterlimit="22.9256"/>
<path d="M159.453 453.209V473.862" stroke="black" stroke-width="0.286283" stroke-miterlimit="22.9256"/>
<path d="M159.453 462.742H167.398" stroke="black" stroke-width="0.286283" stroke-miterlimit="22.9256"/>
<path d="M167.398 473.862V453.209" stroke="black" stroke-width="0.286283" stroke-miterlimit="22.9256"/>
<path d="M171.105 473.862L175.344 462.742" stroke="black" stroke-width="0.286283" stroke-miterlimit="22.9256"/>
<path d="M179.051 473.862V453.209H174.284L172.165 454.269L171.637 455.324L171.105 456.916V459.031L171.637 461.15L172.165 462.21L174.284 462.742H179.051" stroke="black" stroke-width="0.286283" stroke-miterlimit="22.9256"/>
<path d="M105.441 491.335L106.5 490.276L108.62 487.101V507.749" stroke="black" stroke-width="0.286283" stroke-miterlimit="22.9256"/>
<path d="M114.973 487.101H122.919L117.093 507.749" stroke="black" stroke-width="0.286283" stroke-miterlimit="22.9256"/>
<path d="M127.68 506.689L127.153 507.749L126.626 506.689L127.153 505.634L127.68 506.689ZM127.68 506.689V508.809L127.153 510.401L126.626 511.455" stroke="black" stroke-width="0.286283" stroke-miterlimit="22.9256"/>
<path d="M135.099 487.101L133.506 488.156L132.979 490.276V492.395L133.506 493.982L134.566 495.042L137.213 496.102L138.805 497.161L139.865 498.749L140.392 500.868V504.047L139.865 505.634L139.333 506.689L137.745 507.749H135.099L133.506 506.689L132.979 505.634L132.447 504.047V500.868L132.979 498.749L134.039 497.161L135.626 496.102L138.273 495.042L139.333 493.982L139.865 492.395V490.276L139.333 488.156L137.745 487.101H135.099Z" stroke="black" stroke-width="0.286283" stroke-miterlimit="22.9256"/>
<path d="M144.626 492.395V491.335L145.159 489.216L145.686 488.156L146.746 487.101H149.393L150.452 488.156L150.985 489.216L151.512 491.335V492.922L150.985 495.042L149.925 498.221L144.099 507.749H152.045" stroke="black" stroke-width="0.286283" stroke-miterlimit="22.9256"/>
<path d="M166.339 507.749V493.982L162.105 504.575L157.866 493.982V507.749" stroke="black" stroke-width="0.286283" stroke-miterlimit="22.9256"/>
<path d="M168.985 492.395V491.335L169.518 489.216L170.045 488.156L171.637 487.101H173.752L174.812 488.156L175.344 489.216L175.871 491.335V492.922L175.344 495.042L174.284 498.221L168.458 507.749H176.399" stroke="black" stroke-width="0.286283" stroke-miterlimit="22.9256"/>
<path d="M76.315 212.264H81.6138" stroke="#008AB8" stroke-width="0.286283" stroke-miterlimit="22.9256"/>
<path d="M436.937 341.474V334.588" stroke="black" stroke-width="0.286283" stroke-miterlimit="22.9256"/>
<path d="M355.386 334.588V341.474" stroke="black" stroke-width="0.286283" stroke-miterlimit="22.9256"/>
<path d="M8.53616 254.097L19.656 242.449" stroke="#FF0000" stroke-width="0.286283" stroke-miterlimit="22.9256"/>
<path d="M8.53616 284.815L35.5422 257.276" stroke="#FF0000" stroke-width="0.286283" stroke-miterlimit="22.9256"/>
<path d="M8.53616 314.995L35.5422 287.989" stroke="#FF0000" stroke-width="0.286283" stroke-miterlimit="22.9256"/>
<path d="M8.53616 345.713L35.5422 318.701" stroke="#FF0000" stroke-width="0.286283" stroke-miterlimit="22.9256"/>
<path d="M8.53616 376.425L35.5422 348.887" stroke="#FF0000" stroke-width="0.286283" stroke-miterlimit="22.9256"/>
<path d="M8.53616 406.605L35.5422 379.599" stroke="#FF0000" stroke-width="0.286283" stroke-miterlimit="22.9256"/>
<path d="M8.53616 437.323L35.5422 410.317" stroke="#FF0000" stroke-width="0.286283" stroke-miterlimit="22.9256"/>
<path d="M8.53616 468.036L35.5422 440.497" stroke="#FF0000" stroke-width="0.286283" stroke-miterlimit="22.9256"/>
<path d="M8.53616 498.221L35.5422 471.21" stroke="#FF0000" stroke-width="0.286283" stroke-miterlimit="22.9256"/>
<path d="M8.53616 528.934L35.5422 501.928" stroke="#FF0000" stroke-width="0.286283" stroke-miterlimit="22.9256"/>
<path d="M8.53616 559.646L35.5422 532.108" stroke="#FF0000" stroke-width="0.286283" stroke-miterlimit="22.9256"/>
<path d="M8.53616 590.359L35.5422 562.826" stroke="#FF0000" stroke-width="0.286283" stroke-miterlimit="22.9256"/>
<path d="M8.53616 620.545L35.5422 593.539" stroke="#FF0000" stroke-width="0.286283" stroke-miterlimit="22.9256"/>
<path d="M15.422 643.844L35.5422 623.724" stroke="#FF0000" stroke-width="0.286283" stroke-miterlimit="22.9256"/>
<path d="M11.183 267.336C11.183 266.754 10.7059 266.276 10.1233 266.276C9.54068 266.276 9.06354 266.754 9.06354 267.336C9.06354 267.919 9.54068 268.396 10.1233 268.396C10.7059 268.396 11.183 267.919 11.183 267.336Z" fill="#FF0000"/>
<path d="M10.1233 267.336H11.183M11.183 267.336C11.183 266.754 10.7059 266.276 10.1233 266.276C9.54068 266.276 9.06354 266.754 9.06354 267.336C9.06354 267.919 9.54068 268.396 10.1233 268.396C10.7059 268.396 11.183 267.919 11.183 267.336Z" stroke="black" stroke-width="0.286283" stroke-miterlimit="22.9256"/>
<path d="M14.3623 263.63L33.4227 244.569" stroke="#FF0000" stroke-width="0.286283" stroke-miterlimit="22.9256"/>
<path d="M8.53616 299.641L21.7755 286.402" stroke="#FF0000" stroke-width="0.286283" stroke-miterlimit="22.9256"/>
<path d="M26.5419 282.695C26.5419 282.112 26.0648 281.635 25.4821 281.635C24.8995 281.635 24.4224 282.112 24.4224 282.695C24.4224 283.278 24.8995 283.755 25.4821 283.755C26.0648 283.755 26.5419 283.278 26.5419 282.695Z" fill="#FF0000"/>
<path d="M25.4821 282.695H26.5419M26.5419 282.695C26.5419 282.112 26.0648 281.635 25.4821 281.635C24.8995 281.635 24.4224 282.112 24.4224 282.695C24.4224 283.278 24.8995 283.755 25.4821 283.755C26.0648 283.755 26.5419 283.278 26.5419 282.695Z" stroke="black" stroke-width="0.286283" stroke-miterlimit="22.9256"/>
<path d="M29.1888 278.988L35.5422 272.635" stroke="#FF0000" stroke-width="0.286283" stroke-miterlimit="22.9256"/>
<path d="M8.53616 330.354L10.1233 328.767" stroke="#FF0000" stroke-width="0.286283" stroke-miterlimit="22.9256"/>
<path d="M15.4221 325.055C15.4221 324.472 14.9449 323.995 14.3623 323.995C13.7797 323.995 13.3026 324.472 13.3026 325.055C13.3026 325.637 13.7797 326.115 14.3623 326.115C14.9449 326.115 15.4221 325.637 15.4221 325.055Z" fill="#FF0000"/>
<path d="M14.3623 325.055H15.4221M15.4221 325.055C15.4221 324.472 14.9449 323.995 14.3623 323.995C13.7797 323.995 13.3026 324.472 13.3026 325.055C13.3026 325.637 13.7797 326.115 14.3623 326.115C14.9449 326.115 15.4221 325.637 15.4221 325.055Z" stroke="black" stroke-width="0.286283" stroke-miterlimit="22.9256"/>
<path d="M18.0689 320.821L35.5422 303.348" stroke="#FF0000" stroke-width="0.286283" stroke-miterlimit="22.9256"/>
<path d="M8.53616 361.066L25.4821 344.12" stroke="#FF0000" stroke-width="0.286283" stroke-miterlimit="22.9256"/>
<path d="M30.2485 339.881C30.2485 339.299 29.7714 338.822 29.1887 338.822C28.6061 338.822 28.129 339.299 28.129 339.881C28.129 340.464 28.6061 340.941 29.1887 340.941C29.7714 340.941 30.2485 340.464 30.2485 339.881Z" fill="#FF0000"/>
<path d="M29.1887 339.881H30.2485M30.2485 339.881C30.2485 339.299 29.7714 338.822 29.1887 338.822C28.6061 338.822 28.129 339.299 28.129 339.881C28.129 340.464 28.6061 340.941 29.1887 340.941C29.7714 340.941 30.2485 340.464 30.2485 339.881Z" stroke="black" stroke-width="0.286283" stroke-miterlimit="22.9256"/>
<path d="M33.4227 336.18L35.5422 333.528" stroke="#FF0000" stroke-width="0.286283" stroke-miterlimit="22.9256"/>
<path d="M8.53616 391.779L14.3623 385.953" stroke="#FF0000" stroke-width="0.286283" stroke-miterlimit="22.9256"/>
<path d="M19.1287 382.246C19.1287 381.664 18.6515 381.187 18.0689 381.187C17.4863 381.187 17.0092 381.664 17.0092 382.246C17.0092 382.829 17.4863 383.306 18.0689 383.306C18.6515 383.306 19.1287 382.829 19.1287 382.246Z" fill="#FF0000"/>
<path d="M18.0689 382.246H19.1287M19.1287 382.246C19.1287 381.664 18.6515 381.187 18.0689 381.187C17.4863 381.187 17.0092 381.664 17.0092 382.246C17.0092 382.829 17.4863 383.306 18.0689 383.306C18.6515 383.306 19.1287 382.829 19.1287 382.246Z" stroke="black" stroke-width="0.286283" stroke-miterlimit="22.9256"/>
<path d="M21.7755 378.545L35.5422 364.246" stroke="#FF0000" stroke-width="0.286283" stroke-miterlimit="22.9256"/>
<path d="M10.1233 420.377L29.1888 401.312" stroke="#FF0000" stroke-width="0.286283" stroke-miterlimit="22.9256"/>
<path d="M34.4825 397.605C34.4825 397.023 34.0053 396.545 33.4227 396.545C32.8401 396.545 32.363 397.023 32.363 397.605C32.363 398.188 32.8401 398.665 33.4227 398.665C34.0053 398.665 34.4825 398.188 34.4825 397.605Z" fill="#FF0000"/>
<path d="M33.4227 397.605H34.4825M34.4825 397.605C34.4825 397.023 34.0053 396.545 33.4227 396.545C32.8401 396.545 32.363 397.023 32.363 397.605C32.363 398.188 32.8401 398.665 33.4227 398.665C34.0053 398.665 34.4825 398.188 34.4825 397.605Z" stroke="black" stroke-width="0.286283" stroke-miterlimit="22.9256"/>
<path d="M8.53616 452.677L18.0689 443.144" stroke="#FF0000" stroke-width="0.286283" stroke-miterlimit="22.9256"/>
<path d="M22.8353 439.438C22.8353 438.855 22.3581 438.378 21.7755 438.378C21.1929 438.378 20.7158 438.855 20.7158 439.438C20.7158 440.02 21.1929 440.497 21.7755 440.497C22.3581 440.497 22.8353 440.02 22.8353 439.438Z" fill="#FF0000"/>
<path d="M21.7755 439.438H22.8353M22.8353 439.438C22.8353 438.855 22.3581 438.378 21.7755 438.378C21.1929 438.378 20.7158 438.855 20.7158 439.438C20.7158 440.02 21.1929 440.497 21.7755 440.497C22.3581 440.497 22.8353 440.02 22.8353 439.438Z" stroke="black" stroke-width="0.286283" stroke-miterlimit="22.9256"/>
<path d="M25.4821 435.731L35.5422 425.671" stroke="#FF0000" stroke-width="0.286283" stroke-miterlimit="22.9256"/>
<path d="M11.183 481.27C11.183 480.688 10.7059 480.21 10.1233 480.21C9.54068 480.21 9.06354 480.688 9.06354 481.27C9.06354 481.853 9.54068 482.33 10.1233 482.33C10.7059 482.33 11.183 481.853 11.183 481.27Z" fill="#FF0000"/>
<path d="M10.1233 481.27H11.183M11.183 481.27C11.183 480.688 10.7059 480.21 10.1233 480.21C9.54068 480.21 9.06354 480.688 9.06354 481.27C9.06354 481.853 9.54068 482.33 10.1233 482.33C10.7059 482.33 11.183 481.853 11.183 481.27Z" stroke="black" stroke-width="0.286283" stroke-miterlimit="22.9256"/>
<path d="M14.3623 477.569L33.4227 458.503" stroke="#FF0000" stroke-width="0.286283" stroke-miterlimit="22.9256"/>
<path d="M8.53616 513.575L21.7755 500.336" stroke="#FF0000" stroke-width="0.286283" stroke-miterlimit="22.9256"/>
<path d="M26.5419 496.629C26.5419 496.046 26.0648 495.569 25.4821 495.569C24.8995 495.569 24.4224 496.046 24.4224 496.629C24.4224 497.212 24.8995 497.689 25.4821 497.689C26.0648 497.689 26.5419 497.212 26.5419 496.629Z" fill="#FF0000"/>
<path d="M25.4821 496.629H26.5419M26.5419 496.629C26.5419 496.046 26.0648 495.569 25.4821 495.569C24.8995 495.569 24.4224 496.046 24.4224 496.629C24.4224 497.212 24.8995 497.689 25.4821 497.689C26.0648 497.689 26.5419 497.212 26.5419 496.629Z" stroke="black" stroke-width="0.286283" stroke-miterlimit="22.9256"/>
<path d="M29.1888 492.922L35.5422 486.569" stroke="#FF0000" stroke-width="0.286283" stroke-miterlimit="22.9256"/>
<path d="M8.53616 544.288L10.1233 542.701" stroke="#FF0000" stroke-width="0.286283" stroke-miterlimit="22.9256"/>
<path d="M15.4221 538.462C15.4221 537.879 14.9449 537.402 14.3623 537.402C13.7797 537.402 13.3026 537.879 13.3026 538.462C13.3026 539.044 13.7797 539.521 14.3623 539.521C14.9449 539.521 15.4221 539.044 15.4221 538.462Z" fill="#FF0000"/>
<path d="M14.3623 538.462H15.4221M15.4221 538.462C15.4221 537.879 14.9449 537.402 14.3623 537.402C13.7797 537.402 13.3026 537.879 13.3026 538.462C13.3026 539.044 13.7797 539.521 14.3623 539.521C14.9449 539.521 15.4221 539.044 15.4221 538.462Z" stroke="black" stroke-width="0.286283" stroke-miterlimit="22.9256"/>
<path d="M18.0689 534.76L35.5422 517.282" stroke="#FF0000" stroke-width="0.286283" stroke-miterlimit="22.9256"/>
<path d="M8.53616 575.005L25.4821 557.527" stroke="#FF0000" stroke-width="0.286283" stroke-miterlimit="22.9256"/>
<path d="M30.2485 553.821C30.2485 553.238 29.7714 552.761 29.1887 552.761C28.6061 552.761 28.129 553.238 28.129 553.821C28.129 554.403 28.6061 554.88 29.1887 554.88C29.7714 554.88 30.2485 554.403 30.2485 553.821Z" fill="#FF0000"/>
<path d="M29.1887 553.821H30.2485M30.2485 553.821C30.2485 553.238 29.7714 552.761 29.1887 552.761C28.6061 552.761 28.129 553.238 28.129 553.821C28.129 554.403 28.6061 554.88 29.1887 554.88C29.7714 554.88 30.2485 554.403 30.2485 553.821Z" stroke="black" stroke-width="0.286283" stroke-miterlimit="22.9256"/>
<path d="M33.4227 550.114L35.5422 547.467" stroke="#FF0000" stroke-width="0.286283" stroke-miterlimit="22.9256"/>
<path d="M8.53616 605.186L14.3623 599.892" stroke="#FF0000" stroke-width="0.286283" stroke-miterlimit="22.9256"/>
<path d="M19.1287 596.185C19.1287 595.603 18.6515 595.125 18.0689 595.125C17.4863 595.125 17.0092 595.603 17.0092 596.185C17.0092 596.768 17.4863 597.245 18.0689 597.245C18.6515 597.245 19.1287 596.768 19.1287 596.185Z" fill="#FF0000"/>
<path d="M18.0689 596.185H19.1287M19.1287 596.185C19.1287 595.603 18.6515 595.125 18.0689 595.125C17.4863 595.125 17.0092 595.603 17.0092 596.185C17.0092 596.768 17.4863 597.245 18.0689 597.245C18.6515 597.245 19.1287 596.768 19.1287 596.185Z" stroke="black" stroke-width="0.286283" stroke-miterlimit="22.9256"/>
<path d="M21.7755 591.951L35.5422 578.18" stroke="#FF0000" stroke-width="0.286283" stroke-miterlimit="22.9256"/>
<path d="M10.1233 634.311L29.1888 615.251" stroke="#FF0000" stroke-width="0.286283" stroke-miterlimit="22.9256"/>
<path d="M34.4825 611.012C34.4825 610.429 34.0053 609.952 33.4227 609.952C32.8401 609.952 32.363 610.429 32.363 611.012C32.363 611.595 32.8401 612.072 33.4227 612.072C34.0053 612.072 34.4825 611.595 34.4825 611.012Z" fill="#FF0000"/>
<path d="M33.4227 611.012H34.4825M34.4825 611.012C34.4825 610.429 34.0053 609.952 33.4227 609.952C32.8401 609.952 32.363 610.429 32.363 611.012C32.363 611.595 32.8401 612.072 33.4227 612.072C34.0053 612.072 34.4825 611.595 34.4825 611.012Z" stroke="black" stroke-width="0.286283" stroke-miterlimit="22.9256"/>
<path d="M30.7759 643.844L35.5422 639.078" stroke="#FF0000" stroke-width="0.286283" stroke-miterlimit="22.9256"/>
<path d="M8.53616 246.156V643.844H35.5422V246.156" stroke="#FF0000" stroke-width="0.286283" stroke-miterlimit="22.9256"/>
<path d="M46.6621 239.27L39.2488 231.857" stroke="#FF0000" stroke-width="0.286283" stroke-miterlimit="22.9256"/>
<path d="M76.8474 239.27L49.8413 212.264" stroke="#FF0000" stroke-width="0.286283" stroke-miterlimit="22.9256"/>
<path d="M107.56 239.27L80.554 212.264" stroke="#FF0000" stroke-width="0.286283" stroke-miterlimit="22.9256"/>
<path d="M138.273 239.27L110.739 212.264" stroke="#FF0000" stroke-width="0.286283" stroke-miterlimit="22.9256"/>
<path d="M158.398 228.678L141.452 212.264" stroke="#FF0000" stroke-width="0.286283" stroke-miterlimit="22.9256"/>
<path d="M62.0209 239.27L50.3687 227.623" stroke="#FF0000" stroke-width="0.286283" stroke-miterlimit="22.9256"/>
<path d="M47.1945 223.912C47.1945 223.329 46.7173 222.852 46.1347 222.852C45.5521 222.852 45.075 223.329 45.075 223.912C45.075 224.494 45.5521 224.971 46.1347 224.971C46.7173 224.971 47.1945 224.494 47.1945 223.912Z" fill="#FF0000"/>
<path d="M46.1347 223.912H47.1945M47.1945 223.912C47.1945 223.329 46.7173 222.852 46.1347 222.852C45.5521 222.852 45.075 223.329 45.075 223.912C45.075 224.494 45.5521 224.971 46.1347 224.971C46.7173 224.971 47.1945 224.494 47.1945 223.912Z" stroke="black" stroke-width="0.286283" stroke-miterlimit="22.9256"/>
<path d="M42.4281 220.21L39.2488 216.503" stroke="#FF0000" stroke-width="0.286283" stroke-miterlimit="22.9256"/>
<path d="M93.266 239.27C93.266 238.688 92.7889 238.21 92.2063 238.21C91.6237 238.21 91.1465 238.688 91.1465 239.27C91.1465 239.853 91.6237 240.33 92.2063 240.33C92.7889 240.33 93.266 239.853 93.266 239.27Z" fill="#FF0000"/>
<path d="M92.2063 239.27H93.266M93.266 239.27C93.266 238.688 92.7889 238.21 92.2063 238.21C91.6237 238.21 91.1465 238.688 91.1465 239.27C91.1465 239.853 91.6237 240.33 92.2063 240.33C92.7889 240.33 93.266 239.853 93.266 239.27Z" stroke="black" stroke-width="0.286283" stroke-miterlimit="22.9256"/>
<path d="M89.5594 235.564C89.5594 234.981 89.0822 234.504 88.4996 234.504C87.917 234.504 87.4399 234.981 87.4399 235.564C87.4399 236.146 87.917 236.623 88.4996 236.623C89.0822 236.623 89.5594 236.146 89.5594 235.564Z" fill="#FF0000"/>
<path d="M88.4996 235.564H89.5594M89.5594 235.564C89.5594 234.981 89.0822 234.504 88.4996 234.504C87.917 234.504 87.4399 234.981 87.4399 235.564C87.4399 236.146 87.917 236.623 88.4996 236.623C89.0822 236.623 89.5594 236.146 89.5594 235.564Z" stroke="black" stroke-width="0.286283" stroke-miterlimit="22.9256"/>
<path d="M84.788 231.33L65.7275 212.264" stroke="#FF0000" stroke-width="0.286283" stroke-miterlimit="22.9256"/>
<path d="M122.919 239.27L107.56 223.917" stroke="#FF0000" stroke-width="0.286283" stroke-miterlimit="22.9256"/>
<path d="M104.913 220.205C104.913 219.622 104.436 219.145 103.853 219.145C103.271 219.145 102.794 219.622 102.794 220.205C102.794 220.787 103.271 221.265 103.853 221.265C104.436 221.265 104.913 220.787 104.913 220.205Z" fill="#FF0000"/>
<path d="M103.853 220.205H104.913M104.913 220.205C104.913 219.622 104.436 219.145 103.853 219.145C103.271 219.145 102.794 219.622 102.794 220.205C102.794 220.787 103.271 221.265 103.853 221.265C104.436 221.265 104.913 220.787 104.913 220.205Z" stroke="black" stroke-width="0.286283" stroke-miterlimit="22.9256"/>
<path d="M99.6195 216.503L95.9078 212.264" stroke="#FF0000" stroke-width="0.286283" stroke-miterlimit="22.9256"/>
<path d="M153.632 239.27L149.393 235.564" stroke="#FF0000" stroke-width="0.286283" stroke-miterlimit="22.9256"/>
<path d="M146.751 231.33C146.751 230.747 146.274 230.27 145.691 230.27C145.108 230.27 144.631 230.747 144.631 231.33C144.631 231.912 145.108 232.39 145.691 232.39C146.274 232.39 146.751 231.912 146.751 231.33Z" fill="#FF0000"/>
<path d="M145.691 231.33H146.751M146.751 231.33C146.751 230.747 146.274 230.27 145.691 230.27C145.108 230.27 144.631 230.747 144.631 231.33C144.631 231.912 145.108 232.39 145.691 232.39C146.274 232.39 146.751 231.912 146.751 231.33Z" stroke="black" stroke-width="0.286283" stroke-miterlimit="22.9256"/>
<path d="M141.979 227.623L126.093 212.264" stroke="#FF0000" stroke-width="0.286283" stroke-miterlimit="22.9256"/>
<path d="M157.338 212.264H156.806" stroke="#FF0000" stroke-width="0.286283" stroke-miterlimit="22.9256"/>
<path d="M158.398 239.27V212.264H39.2488V239.27H158.398Z" stroke="#FF0000" stroke-width="0.286283" stroke-miterlimit="22.9256"/>
<path d="M436.937 341.473H355.386" stroke="#00BFFF" stroke-width="0.286283" stroke-miterlimit="22.9256"/>
<path d="M355.386 334.588H436.937" stroke="#00BFFF" stroke-width="0.286283" stroke-miterlimit="22.9256"/>
<path d="M436.937 337.767H355.386" stroke="#00BFFF" stroke-width="0.286283" stroke-miterlimit="22.9256"/>
<path d="M246.829 334.588H233.063V341.474H239.949" stroke="black" stroke-width="0.286283" stroke-miterlimit="22.9256"/>
<path d="M158.398 334.588H171.637V341.474H35.5422" stroke="black" stroke-width="0.286283" stroke-miterlimit="22.9256"/>
<path d="M151.512 334.588H35.5422" stroke="black" stroke-width="0.286283" stroke-miterlimit="22.9256"/>
<path d="M103.853 212.264H98.5598" stroke="#008AB8" stroke-width="0.286283" stroke-miterlimit="22.9256"/>
<path d="M8.53616 756.107H69.9615" stroke="black" stroke-width="0.286283" stroke-miterlimit="22.9256"/>
<path d="M22.3029 742.868H69.9615" stroke="black" stroke-width="0.286283" stroke-miterlimit="22.9256"/>
<path d="M192.29 742.868V756.107" stroke="black" stroke-width="0.286283" stroke-miterlimit="22.9256"/>
<path d="M69.9615 742.868V756.107" stroke="black" stroke-width="0.286283" stroke-miterlimit="22.9256"/>
<path d="M192.29 742.868H69.9615" stroke="#00BFFF" stroke-width="0.286283" stroke-miterlimit="22.9256"/>
<path d="M69.9615 749.754H192.29" stroke="#00BFFF" stroke-width="0.286283" stroke-miterlimit="22.9256"/>
<path d="M192.29 756.107H69.9615" stroke="#00BFFF" stroke-width="0.286283" stroke-miterlimit="22.9256"/>
<path d="M22.3029 742.868H69.9615" stroke="black" stroke-width="0.286283" stroke-miterlimit="22.9256"/>
<path d="M192.29 742.868V756.107" stroke="black" stroke-width="0.286283" stroke-miterlimit="22.9256"/>
<path d="M69.9615 742.868V756.107" stroke="black" stroke-width="0.286283" stroke-miterlimit="22.9256"/>
<path d="M192.29 742.868H69.9615" stroke="#00BFFF" stroke-width="0.286283" stroke-miterlimit="22.9256"/>
<path d="M69.9615 749.754H192.29" stroke="#00BFFF" stroke-width="0.286283" stroke-miterlimit="22.9256"/>
<path d="M192.29 756.107H69.9615" stroke="#00BFFF" stroke-width="0.286283" stroke-miterlimit="22.9256"/>
<path d="M321.494 334.588V341.474" stroke="black" stroke-width="0.286283" stroke-miterlimit="22.9256"/>
<path d="M253.715 334.588V341.474" stroke="black" stroke-width="0.286283" stroke-miterlimit="22.9256"/>
<path d="M158.398 239.27V280.048" stroke="black" stroke-width="0.286283" stroke-miterlimit="22.9256"/>
<path d="M158.398 327.707V334.588" stroke="black" stroke-width="0.286283" stroke-miterlimit="22.9256"/>
<path d="M151.512 239.27V280.048" stroke="black" stroke-width="0.286283" stroke-miterlimit="22.9256"/>
<path d="M158.398 327.707H151.512V334.588" stroke="black" stroke-width="0.286283" stroke-miterlimit="22.9256"/>
<path d="M158.398 280.048H151.512" stroke="black" stroke-width="0.286283" stroke-miterlimit="22.9256"/>
<path d="M105.973 248.276H99.0871V268.928" stroke="black" stroke-width="0.286283" stroke-miterlimit="22.9256"/>
<path d="M108.62 262.042H114.446" stroke="black" stroke-width="0.286283" stroke-miterlimit="22.9256"/>
<path d="M107.028 268.928L111.794 248.276L116.56 268.928" stroke="black" stroke-width="0.286283" stroke-miterlimit="22.9256"/>
<path d="M119.212 268.928V248.276H124.506L126.093 249.33L126.626 250.39L127.68 252.51V255.156L126.626 257.276L126.093 258.336L124.506 259.395H119.212" stroke="black" stroke-width="0.286283" stroke-miterlimit="22.9256"/>
<path d="M141.452 272.635V268.928H129.8V272.635" stroke="black" stroke-width="0.286283" stroke-miterlimit="22.9256"/>
<path d="M130.86 268.928L132.979 265.749L133.506 264.162L134.039 259.923V248.276H140.392V268.928" stroke="black" stroke-width="0.286283" stroke-miterlimit="22.9256"/>
<path d="M143.039 266.809L142.512 267.869L143.039 268.928L143.572 267.869" stroke="black" stroke-width="0.286283" stroke-miterlimit="22.9256"/>
<path d="M91.1465 287.461V286.402L91.6739 284.282L92.2013 283.222L93.261 282.695H95.9079L96.9676 283.222L97.5 284.282L98.0274 286.402V288.521L97.5 290.108L96.4403 293.288L90.6141 302.815H98.5598" stroke="black" stroke-width="0.286283" stroke-miterlimit="22.9256"/>
<path d="M103.326 301.755L102.794 302.815L102.266 301.755L102.794 300.701L103.326 301.755ZM103.326 301.755V303.875L102.794 305.994L102.266 307.054" stroke="black" stroke-width="0.286283" stroke-miterlimit="22.9256"/>
<path d="M109.147 282.695H115.506L111.794 290.108H113.914L114.973 291.168L115.506 292.228L116.033 294.875V296.994L115.506 300.168L114.446 301.756L112.854 302.815H110.739L109.147 301.756L108.62 300.701L108.087 299.109" stroke="black" stroke-width="0.286283" stroke-miterlimit="22.9256"/>
<path d="M126.626 285.342L126.093 283.222L124.506 282.695H122.919L121.327 283.222L120.272 286.402L119.74 291.168V295.934L120.272 300.168L121.327 301.756L122.919 302.815H123.446L125.566 301.756L126.626 300.168L127.153 296.994V295.934L126.626 293.288L125.566 291.168L123.446 290.108H122.919L121.327 291.168L120.272 293.288L119.74 295.934" stroke="black" stroke-width="0.286283" stroke-miterlimit="22.9256"/>
<path d="M141.979 302.815V289.048L137.745 300.168L133.506 289.048V302.815" stroke="black" stroke-width="0.286283" stroke-miterlimit="22.9256"/>
<path d="M144.626 287.461V286.402L145.159 284.282L145.686 283.222L146.746 282.695H149.393L150.452 283.222L150.985 284.282L151.512 286.402V288.521L150.985 290.108L149.925 293.288L144.099 302.815H152.045" stroke="black" stroke-width="0.286283" stroke-miterlimit="22.9256"/>
<path d="M1.6503 681.443H42.4281" stroke="black" stroke-width="0.286283" stroke-miterlimit="22.9256"/>
<path d="M42.4281 640.67H1.6503L42.4281 681.442V640.67ZM1.6503 640.67L42.4281 681.442H1.6503V640.67Z" fill="#0000FF"/>
<path d="M1.6503 640.67H42.4281V681.442M1.6503 640.67L42.4281 681.442M1.6503 640.67V681.442H42.4281" stroke="#0000FF" stroke-width="0.286283" stroke-miterlimit="22.9256"/>
<path d="M42.4281 640.67H1.6503V681.442H42.4281V640.67Z" stroke="black" stroke-width="0.286283" stroke-miterlimit="22.9256"/>
<path d="M1.6503 681.442L42.4281 640.67" stroke="black" stroke-width="0.286283" stroke-miterlimit="22.9256"/>
<path d="M42.4281 681.442L1.6503 640.67" stroke="black" stroke-width="0.286283" stroke-miterlimit="22.9256"/>
<path d="M478.242 681.443H519.02" stroke="black" stroke-width="0.286283" stroke-miterlimit="22.9256"/>
<path d="M519.02 640.67H478.242L519.02 681.442V640.67ZM478.242 640.67L519.02 681.442H478.242V640.67Z" fill="#0000FF"/>
<path d="M478.242 640.67H519.02V681.442M478.242 640.67L519.02 681.442M478.242 640.67V681.442H519.02" stroke="#0000FF" stroke-width="0.286283" stroke-miterlimit="22.9256"/>
<path d="M519.02 640.67H478.242V681.442H519.02V640.67Z" stroke="black" stroke-width="0.286283" stroke-miterlimit="22.9256"/>
<path d="M478.242 681.442L519.02 640.67" stroke="black" stroke-width="0.286283" stroke-miterlimit="22.9256"/>
<path d="M519.02 681.442L478.242 640.67" stroke="black" stroke-width="0.286283" stroke-miterlimit="22.9256"/>
<path d="M1.6503 246.156H42.4281" stroke="black" stroke-width="0.286283" stroke-miterlimit="22.9256"/>
<path d="M42.4281 205.383H1.6503L42.4281 246.156V205.383ZM1.6503 205.383L42.4281 246.156H1.6503V205.383Z" fill="#0000FF"/>
<path d="M1.6503 205.383H42.4281V246.156M1.6503 205.383L42.4281 246.156M1.6503 205.383V246.156H42.4281" stroke="#0000FF" stroke-width="0.286283" stroke-miterlimit="22.9256"/>
<path d="M42.4281 205.383H1.6503V246.156H42.4281V205.383Z" stroke="black" stroke-width="0.286283" stroke-miterlimit="22.9256"/>
<path d="M1.6503 246.156L42.4281 205.383" stroke="black" stroke-width="0.286283" stroke-miterlimit="22.9256"/>
<path d="M42.4281 246.156L1.6503 205.383" stroke="black" stroke-width="0.286283" stroke-miterlimit="22.9256"/>
<path d="M478.242 246.156H519.02" stroke="black" stroke-width="0.286283" stroke-miterlimit="22.9256"/>
<path d="M519.02 205.383H478.242L519.02 246.156V205.383ZM478.242 205.383L519.02 246.156H478.242V205.383Z" fill="#0000FF"/>
<path d="M478.242 205.383H519.02V246.156M478.242 205.383L519.02 246.156M478.242 205.383V246.156H519.02" stroke="#0000FF" stroke-width="0.286283" stroke-miterlimit="22.9256"/>
<path d="M519.02 205.383H478.242V246.156H519.02V205.383Z" stroke="black" stroke-width="0.286283" stroke-miterlimit="22.9256"/>
<path d="M478.242 246.156L519.02 205.383" stroke="black" stroke-width="0.286283" stroke-miterlimit="22.9256"/>
<path d="M519.02 246.156L478.242 205.383" stroke="black" stroke-width="0.286283" stroke-miterlimit="22.9256"/>
<path d="M76.315 184.731H158.398V212.264H76.315V184.731Z" stroke="#5CB800" stroke-width="0.286283" stroke-miterlimit="22.9256"/>
<path d="M149.925 205.383H139.333" stroke="#5CB800" stroke-width="0.286283" stroke-miterlimit="22.9256"/>
<path d="M137.745 203.791V193.199" stroke="#5CB800" stroke-width="0.286283" stroke-miterlimit="22.9256"/>
<path d="M139.333 191.612H149.925" stroke="#5CB800" stroke-width="0.286283" stroke-miterlimit="22.9256"/>
<path d="M151.512 193.199V203.791" stroke="#5CB800" stroke-width="0.286283" stroke-miterlimit="22.9256"/>
<path d="M150.186 204.851C150.919 204.851 151.512 204.258 151.512 203.53" stroke="#5CB800" stroke-width="0.286283" stroke-miterlimit="22.9256"/>
<path d="M138.273 203.525C138.273 204.253 138.865 204.846 139.594 204.846" stroke="#5CB800" stroke-width="0.286283" stroke-miterlimit="22.9256"/>
<path d="M151.512 192.938C151.512 192.209 150.919 191.612 150.186 191.612" stroke="#5CB800" stroke-width="0.286283" stroke-miterlimit="22.9256"/>
<path d="M139.599 191.612C138.87 191.612 138.278 192.204 138.278 192.938" stroke="#5CB800" stroke-width="0.286283" stroke-miterlimit="22.9256"/>
<path d="M96.9676 193.199V203.791" stroke="#5CB800" stroke-width="0.286283" stroke-miterlimit="22.9256"/>
<path d="M95.3805 205.383H84.788" stroke="#5CB800" stroke-width="0.286283" stroke-miterlimit="22.9256"/>
<path d="M83.2009 203.791V193.199" stroke="#5CB800" stroke-width="0.286283" stroke-miterlimit="22.9256"/>
<path d="M84.788 191.612H95.3805" stroke="#5CB800" stroke-width="0.286283" stroke-miterlimit="22.9256"/>
<path d="M95.6467 204.851C96.3749 204.851 96.9726 204.258 96.9726 203.53" stroke="#5CB800" stroke-width="0.286283" stroke-miterlimit="22.9256"/>
<path d="M83.7333 203.525C83.7333 204.253 84.3259 204.846 85.0542 204.846" stroke="#5CB800" stroke-width="0.286283" stroke-miterlimit="22.9256"/>
<path d="M96.9676 192.938C96.9676 192.209 96.3749 191.612 95.6417 191.612" stroke="#5CB800" stroke-width="0.286283" stroke-miterlimit="22.9256"/>
<path d="M85.0542 191.612C84.3259 191.612 83.7333 192.204 83.7333 192.938" stroke="#5CB800" stroke-width="0.286283" stroke-miterlimit="22.9256"/>
<path d="M130.066 204.851C130.799 204.851 131.392 204.258 131.392 203.53" stroke="#5CB800" stroke-width="0.286283" stroke-miterlimit="22.9256"/>
<path d="M131.392 192.938C131.392 192.209 130.799 191.612 130.066 191.612" stroke="#5CB800" stroke-width="0.286283" stroke-miterlimit="22.9256"/>
<path d="M103.853 203.525C103.853 204.253 104.446 204.846 105.179 204.846" stroke="#5CB800" stroke-width="0.286283" stroke-miterlimit="22.9256"/>
<path d="M105.179 191.612C104.446 191.612 103.853 192.204 103.853 192.938" stroke="#5CB800" stroke-width="0.286283" stroke-miterlimit="22.9256"/>
<path d="M130.86 193.199V203.791" stroke="#5CB800" stroke-width="0.286283" stroke-miterlimit="22.9256"/>
<path d="M129.8 205.383H104.913" stroke="#5CB800" stroke-width="0.286283" stroke-miterlimit="22.9256"/>
<path d="M103.853 203.791V193.199" stroke="#5CB800" stroke-width="0.286283" stroke-miterlimit="22.9256"/>
<path d="M104.913 191.612H129.8" stroke="#5CB800" stroke-width="0.286283" stroke-miterlimit="22.9256"/>
<path d="M76.315 184.731H158.398V212.264H76.315V184.731Z" stroke="#5CB800" stroke-width="0.286283" stroke-miterlimit="22.9256"/>
<path d="M149.925 205.383H139.333" stroke="#5CB800" stroke-width="0.286283" stroke-miterlimit="22.9256"/>
<path d="M137.745 203.791V193.199" stroke="#5CB800" stroke-width="0.286283" stroke-miterlimit="22.9256"/>
<path d="M139.333 191.612H149.925" stroke="#5CB800" stroke-width="0.286283" stroke-miterlimit="22.9256"/>
<path d="M151.512 193.199V203.791" stroke="#5CB800" stroke-width="0.286283" stroke-miterlimit="22.9256"/>
<path d="M150.186 204.851C150.919 204.851 151.512 204.258 151.512 203.53" stroke="#5CB800" stroke-width="0.286283" stroke-miterlimit="22.9256"/>
<path d="M138.273 203.525C138.273 204.253 138.865 204.846 139.594 204.846" stroke="#5CB800" stroke-width="0.286283" stroke-miterlimit="22.9256"/>
<path d="M151.512 192.938C151.512 192.209 150.919 191.612 150.186 191.612" stroke="#5CB800" stroke-width="0.286283" stroke-miterlimit="22.9256"/>
<path d="M139.599 191.612C138.87 191.612 138.278 192.204 138.278 192.938" stroke="#5CB800" stroke-width="0.286283" stroke-miterlimit="22.9256"/>
<path d="M96.9676 193.199V203.791" stroke="#5CB800" stroke-width="0.286283" stroke-miterlimit="22.9256"/>
<path d="M95.3805 205.383H84.788" stroke="#5CB800" stroke-width="0.286283" stroke-miterlimit="22.9256"/>
<path d="M83.2009 203.791V193.199" stroke="#5CB800" stroke-width="0.286283" stroke-miterlimit="22.9256"/>
<path d="M84.788 191.612H95.3805" stroke="#5CB800" stroke-width="0.286283" stroke-miterlimit="22.9256"/>
<path d="M95.6467 204.851C96.3749 204.851 96.9726 204.258 96.9726 203.53" stroke="#5CB800" stroke-width="0.286283" stroke-miterlimit="22.9256"/>
<path d="M83.7333 203.525C83.7333 204.253 84.3259 204.846 85.0542 204.846" stroke="#5CB800" stroke-width="0.286283" stroke-miterlimit="22.9256"/>
<path d="M96.9676 192.938C96.9676 192.209 96.3749 191.612 95.6417 191.612" stroke="#5CB800" stroke-width="0.286283" stroke-miterlimit="22.9256"/>
<path d="M85.0542 191.612C84.3259 191.612 83.7333 192.204 83.7333 192.938" stroke="#5CB800" stroke-width="0.286283" stroke-miterlimit="22.9256"/>
<path d="M130.066 204.851C130.799 204.851 131.392 204.258 131.392 203.53" stroke="#5CB800" stroke-width="0.286283" stroke-miterlimit="22.9256"/>
<path d="M131.392 192.938C131.392 192.209 130.799 191.612 130.066 191.612" stroke="#5CB800" stroke-width="0.286283" stroke-miterlimit="22.9256"/>
<path d="M103.853 203.525C103.853 204.253 104.446 204.846 105.179 204.846" stroke="#5CB800" stroke-width="0.286283" stroke-miterlimit="22.9256"/>
<path d="M105.179 191.612C104.446 191.612 103.853 192.204 103.853 192.938" stroke="#5CB800" stroke-width="0.286283" stroke-miterlimit="22.9256"/>
<path d="M130.86 193.199V203.791" stroke="#5CB800" stroke-width="0.286283" stroke-miterlimit="22.9256"/>
<path d="M129.8 205.383H104.913" stroke="#5CB800" stroke-width="0.286283" stroke-miterlimit="22.9256"/>
<path d="M103.853 203.791V193.199" stroke="#5CB800" stroke-width="0.286283" stroke-miterlimit="22.9256"/>
<path d="M104.913 191.612H129.8" stroke="#5CB800" stroke-width="0.286283" stroke-miterlimit="22.9256"/>
<path d="M83.2009 193.199L87.4399 202.731L95.3805 205.383" stroke="#5CB800" stroke-width="0.286283" stroke-miterlimit="22.9256"/>
<path d="M103.853 193.199L108.087 202.731L129.8 205.383" stroke="#5CB800" stroke-width="0.286283" stroke-miterlimit="22.9256"/>
<path d="M137.745 193.199L141.979 202.731L149.925 205.383" stroke="#5CB800" stroke-width="0.286283" stroke-miterlimit="22.9256"/>
<path d="M484.595 239.27V320.821H457.589V239.27H484.595Z" stroke="#5CB800" stroke-width="0.286283" stroke-miterlimit="22.9256"/>
<path d="M464.475 312.88V301.755" stroke="#5CB800" stroke-width="0.286283" stroke-miterlimit="22.9256"/>
<path d="M465.535 300.701H476.655" stroke="#5CB800" stroke-width="0.286283" stroke-miterlimit="22.9256"/>
<path d="M478.242 301.755V312.88" stroke="#5CB800" stroke-width="0.286283" stroke-miterlimit="22.9256"/>
<path d="M476.655 313.935H465.535" stroke="#5CB800" stroke-width="0.286283" stroke-miterlimit="22.9256"/>
<path d="M465.796 300.168C465.063 300.168 464.47 300.761 464.47 301.494" stroke="#5CB800" stroke-width="0.286283" stroke-miterlimit="22.9256"/>
<path d="M476.916 313.935C477.644 313.935 478.242 313.342 478.242 312.614" stroke="#5CB800" stroke-width="0.286283" stroke-miterlimit="22.9256"/>
<path d="M478.242 301.494C478.242 300.761 477.649 300.168 476.916 300.168" stroke="#5CB800" stroke-width="0.286283" stroke-miterlimit="22.9256"/>
<path d="M476.655 259.923H465.535" stroke="#5CB800" stroke-width="0.286283" stroke-miterlimit="22.9256"/>
<path d="M464.475 258.336V247.216" stroke="#5CB800" stroke-width="0.286283" stroke-miterlimit="22.9256"/>
<path d="M465.535 246.156H476.655" stroke="#5CB800" stroke-width="0.286283" stroke-miterlimit="22.9256"/>
<path d="M478.242 247.216V258.336" stroke="#5CB800" stroke-width="0.286283" stroke-miterlimit="22.9256"/>
<path d="M464.475 258.07C464.475 258.803 465.068 259.396 465.801 259.396" stroke="#5CB800" stroke-width="0.286283" stroke-miterlimit="22.9256"/>
<path d="M465.796 245.624C465.063 245.624 464.47 246.216 464.47 246.95" stroke="#5CB800" stroke-width="0.286283" stroke-miterlimit="22.9256"/>
<path d="M476.916 259.396C477.644 259.396 478.242 258.803 478.242 258.07" stroke="#5CB800" stroke-width="0.286283" stroke-miterlimit="22.9256"/>
<path d="M478.242 246.95C478.242 246.221 477.649 245.624 476.916 245.624" stroke="#5CB800" stroke-width="0.286283" stroke-miterlimit="22.9256"/>
<path d="M464.475 291.961C464.475 292.69 465.068 293.287 465.801 293.287" stroke="#5CB800" stroke-width="0.286283" stroke-miterlimit="22.9256"/>
<path d="M476.916 293.287C477.644 293.287 478.242 292.695 478.242 291.961" stroke="#5CB800" stroke-width="0.286283" stroke-miterlimit="22.9256"/>
<path d="M465.796 266.276C465.063 266.276 464.47 266.869 464.47 267.602" stroke="#5CB800" stroke-width="0.286283" stroke-miterlimit="22.9256"/>
<path d="M478.242 267.602C478.242 266.874 477.649 266.276 476.916 266.276" stroke="#5CB800" stroke-width="0.286283" stroke-miterlimit="22.9256"/>
<path d="M476.655 293.815H465.535" stroke="#5CB800" stroke-width="0.286283" stroke-miterlimit="22.9256"/>
<path d="M464.475 292.228V267.869" stroke="#5CB800" stroke-width="0.286283" stroke-miterlimit="22.9256"/>
<path d="M465.535 266.276H476.655" stroke="#5CB800" stroke-width="0.286283" stroke-miterlimit="22.9256"/>
<path d="M478.242 267.869V292.228" stroke="#5CB800" stroke-width="0.286283" stroke-miterlimit="22.9256"/>
<path d="M484.595 239.27V320.821H457.589V239.27H484.595Z" stroke="#5CB800" stroke-width="0.286283" stroke-miterlimit="22.9256"/>
<path d="M464.475 312.88V301.755" stroke="#5CB800" stroke-width="0.286283" stroke-miterlimit="22.9256"/>
<path d="M465.535 300.701H476.655" stroke="#5CB800" stroke-width="0.286283" stroke-miterlimit="22.9256"/>
<path d="M478.242 301.755V312.88" stroke="#5CB800" stroke-width="0.286283" stroke-miterlimit="22.9256"/>
<path d="M476.655 313.935H465.535" stroke="#5CB800" stroke-width="0.286283" stroke-miterlimit="22.9256"/>
<path d="M465.796 300.168C465.063 300.168 464.47 300.761 464.47 301.494" stroke="#5CB800" stroke-width="0.286283" stroke-miterlimit="22.9256"/>
<path d="M476.916 313.935C477.644 313.935 478.242 313.342 478.242 312.614" stroke="#5CB800" stroke-width="0.286283" stroke-miterlimit="22.9256"/>
<path d="M478.242 301.494C478.242 300.761 477.649 300.168 476.916 300.168" stroke="#5CB800" stroke-width="0.286283" stroke-miterlimit="22.9256"/>
<path d="M476.655 259.923H465.535" stroke="#5CB800" stroke-width="0.286283" stroke-miterlimit="22.9256"/>
<path d="M464.475 258.336V247.216" stroke="#5CB800" stroke-width="0.286283" stroke-miterlimit="22.9256"/>
<path d="M465.535 246.156H476.655" stroke="#5CB800" stroke-width="0.286283" stroke-miterlimit="22.9256"/>
<path d="M478.242 247.216V258.336" stroke="#5CB800" stroke-width="0.286283" stroke-miterlimit="22.9256"/>
<path d="M464.475 258.07C464.475 258.803 465.068 259.396 465.801 259.396" stroke="#5CB800" stroke-width="0.286283" stroke-miterlimit="22.9256"/>
<path d="M465.796 245.624C465.063 245.624 464.47 246.216 464.47 246.95" stroke="#5CB800" stroke-width="0.286283" stroke-miterlimit="22.9256"/>
<path d="M476.916 259.396C477.644 259.396 478.242 258.803 478.242 258.07" stroke="#5CB800" stroke-width="0.286283" stroke-miterlimit="22.9256"/>
<path d="M478.242 246.95C478.242 246.221 477.649 245.624 476.916 245.624" stroke="#5CB800" stroke-width="0.286283" stroke-miterlimit="22.9256"/>
<path d="M464.475 291.961C464.475 292.69 465.068 293.287 465.801 293.287" stroke="#5CB800" stroke-width="0.286283" stroke-miterlimit="22.9256"/>
<path d="M476.916 293.287C477.644 293.287 478.242 292.695 478.242 291.961" stroke="#5CB800" stroke-width="0.286283" stroke-miterlimit="22.9256"/>
<path d="M465.796 266.276C465.063 266.276 464.47 266.869 464.47 267.602" stroke="#5CB800" stroke-width="0.286283" stroke-miterlimit="22.9256"/>
<path d="M478.242 267.602C478.242 266.874 477.649 266.276 476.916 266.276" stroke="#5CB800" stroke-width="0.286283" stroke-miterlimit="22.9256"/>
<path d="M476.655 293.815H465.535" stroke="#5CB800" stroke-width="0.286283" stroke-miterlimit="22.9256"/>
<path d="M464.475 292.228V267.869" stroke="#5CB800" stroke-width="0.286283" stroke-miterlimit="22.9256"/>
<path d="M465.535 266.276H476.655" stroke="#5CB800" stroke-width="0.286283" stroke-miterlimit="22.9256"/>
<path d="M478.242 267.869V292.228" stroke="#5CB800" stroke-width="0.286283" stroke-miterlimit="22.9256"/>
<path d="M476.655 246.156L467.122 249.863L464.475 258.336" stroke="#5CB800" stroke-width="0.286283" stroke-miterlimit="22.9256"/>
<path d="M476.655 266.276L467.122 271.043L464.475 292.228" stroke="#5CB800" stroke-width="0.286283" stroke-miterlimit="22.9256"/>
<path d="M476.655 300.701L467.122 304.407L464.475 312.88" stroke="#5CB800" stroke-width="0.286283" stroke-miterlimit="22.9256"/>
<path d="M25.4821 681.443V688.328H32.368L25.4821 681.443ZM25.4821 688.328H32.368L25.4821 729.101V688.328Z" fill="black"/>
<path d="M25.4821 688.328V681.443L32.368 688.328M25.4821 688.328H32.368M25.4821 688.328V729.101L32.368 688.328" stroke="black" stroke-width="0.286283" stroke-miterlimit="22.9256"/>
<path d="M25.4821 681.443H73.1408L32.363 688.328L25.4821 681.443Z" fill="black"/>
<path d="M25.4821 681.443H73.1408L32.363 688.328L25.4821 681.443Z" stroke="black" stroke-width="0.286283" stroke-miterlimit="22.9256"/>
<path d="M25.4821 681.443H73.1408L32.363 688.328L25.4821 729.101V681.443ZM25.4821 681.443H73.1408V729.101H25.4821V681.443Z" stroke="black" stroke-width="0.286283" stroke-miterlimit="22.9256"/>
<path d="M25.4821 681.443H73.1408V729.101H25.4821V681.443Z" stroke="black" stroke-width="0.286283" stroke-miterlimit="22.9256"/>
</g>
<defs>
<clipPath id="clip0_9_5531">
<rect width="519.67" height="797.39" fill="white" transform="translate(0.5 0.5)"/>
</clipPath>
</defs>
</svg>
