<svg width="520" height="757" viewBox="0 0 520 757" fill="none" xmlns="http://www.w3.org/2000/svg">
<g clip-path="url(#clip0_9_6326)">
<path d="M298.729 253.04H372.333H298.729Z" stroke="#E5E878" stroke-width="0.286041" stroke-miterlimit="22.9256"/>
<path d="M290.783 280.048H372.333H331.555H290.777H290.783Z" stroke="#E5E878" stroke-width="0.286041" stroke-miterlimit="22.9256"/>
<path d="M372.333 280.048H229.358H331.561H372.339H372.333Z" stroke="#E5E878" stroke-width="0.286041" stroke-miterlimit="22.9256"/>
<path d="M42.4302 382.25H49.3124H42.4302Z" stroke="#E5E878" stroke-width="0.286041" stroke-miterlimit="22.9256"/>
<path d="M62.5504 382.25H42.4302H49.3124H62.5504Z" stroke="#E5E878" stroke-width="0.286041" stroke-miterlimit="22.9256"/>
<path d="M274.902 420.906H279.667L277.018 423.023L274.902 420.906Z" fill="#E5E878"/>
<path d="M274.902 420.906H279.667L277.018 423.023L274.902 420.906Z" stroke="#E5E878" stroke-width="0.286041" stroke-miterlimit="22.9256"/>
<path d="M42.4302 218.618H222.476V293.812H229.358V280.048H372.339V232.388H365.451V272.102L229.358 273.16V123.83H365.451V184.728H372.339V116.947H358.569V14.7449H477.716V246.158H484.598V375.368H324.678L322.556 377.485L327.322 382.251H484.598V742.868H280.725V429.379L284.433 425.672L279.667 420.906L277.018 423.023L274.896 420.906L270.13 425.672L273.843 429.379V742.868H42.4302V382.251H226.709L231.475 377.485L229.358 375.368V354.71H222.476V375.368H42.4302V218.618Z" fill="#E5E878" stroke="#E5E878" stroke-width="0.955377" stroke-miterlimit="10" stroke-linecap="round"/>
<path d="M21.7781 648.612V655.494" stroke="#FF0000" stroke-width="0.286041" stroke-miterlimit="22.9256"/>
<path d="M110.211 0.974854H105.445" stroke="#008AB8" stroke-width="0.286041" stroke-miterlimit="22.9256"/>
<path d="M28.6602 756.106H80.0275" stroke="black" stroke-width="0.286041" stroke-miterlimit="22.9256"/>
<path d="M42.4302 742.868H80.0275" stroke="black" stroke-width="0.286041" stroke-miterlimit="22.9256"/>
<path d="M42.4302 742.868H80.0275" stroke="black" stroke-width="0.286041" stroke-miterlimit="22.9256"/>
<path d="M477.716 205.38V14.7449" stroke="black" stroke-width="0.286041" stroke-miterlimit="22.9256"/>
<path d="M491.486 205.38V0.974854V83.0572" stroke="black" stroke-width="0.286041" stroke-miterlimit="22.9256"/>
<path d="M484.598 681.444V742.868" stroke="black" stroke-width="0.286041" stroke-miterlimit="22.9256"/>
<path d="M498.368 681.444V756.106" stroke="black" stroke-width="0.286041" stroke-miterlimit="22.9256"/>
<path d="M222.476 218.618H42.4302H164.753" stroke="black" stroke-width="0.286041" stroke-miterlimit="22.9256"/>
<path d="M216.12 205.38H42.4302" stroke="black" stroke-width="0.286041" stroke-miterlimit="22.9256"/>
<path d="M28.6602 246.158V756.106" stroke="black" stroke-width="0.286041" stroke-miterlimit="22.9256"/>
<path d="M42.4302 246.158V375.368" stroke="black" stroke-width="0.286041" stroke-miterlimit="22.9256"/>
<path d="M42.4302 382.25V642.256" stroke="black" stroke-width="0.286041" stroke-miterlimit="22.9256"/>
<path d="M42.4302 683.029V742.868" stroke="black" stroke-width="0.286041" stroke-miterlimit="22.9256"/>
<path d="M511.606 620.546V615.248" stroke="#008AB8" stroke-width="0.286041" stroke-miterlimit="22.9256"/>
<path d="M484.598 595.654V598.303" stroke="#008AB8" stroke-width="0.286041" stroke-miterlimit="22.9256"/>
<path d="M484.598 620.546V615.248" stroke="#008AB8" stroke-width="0.286041" stroke-miterlimit="22.9256"/>
<path d="M280.725 593.011V598.303" stroke="#008AB8" stroke-width="0.286041" stroke-miterlimit="22.9256"/>
<path d="M280.725 593.011V598.303" stroke="#008AB8" stroke-width="0.286041" stroke-miterlimit="22.9256"/>
<path d="M273.843 595.654V598.303" stroke="#008AB8" stroke-width="0.286041" stroke-miterlimit="22.9256"/>
<path d="M273.843 620.546V615.248" stroke="#008AB8" stroke-width="0.286041" stroke-miterlimit="22.9256"/>
<path d="M511.606 595.654V598.303" stroke="#008AB8" stroke-width="0.286041" stroke-miterlimit="22.9256"/>
<path d="M484.598 254.098L495.72 242.451" stroke="#FF0000" stroke-width="0.286041" stroke-miterlimit="22.9256"/>
<path d="M484.598 284.813L511.606 257.273" stroke="#FF0000" stroke-width="0.286041" stroke-miterlimit="22.9256"/>
<path d="M484.598 314.997L511.606 287.989" stroke="#FF0000" stroke-width="0.286041" stroke-miterlimit="22.9256"/>
<path d="M484.598 345.712L511.606 318.704" stroke="#FF0000" stroke-width="0.286041" stroke-miterlimit="22.9256"/>
<path d="M484.598 376.427L511.606 348.887" stroke="#FF0000" stroke-width="0.286041" stroke-miterlimit="22.9256"/>
<path d="M484.598 406.61L511.606 379.602" stroke="#FF0000" stroke-width="0.286041" stroke-miterlimit="22.9256"/>
<path d="M484.598 437.325L511.606 410.317" stroke="#FF0000" stroke-width="0.286041" stroke-miterlimit="22.9256"/>
<path d="M484.598 468.034L511.606 440.5" stroke="#FF0000" stroke-width="0.286041" stroke-miterlimit="22.9256"/>
<path d="M484.598 498.217L511.606 471.215" stroke="#FF0000" stroke-width="0.286041" stroke-miterlimit="22.9256"/>
<path d="M484.598 528.933L511.606 501.925" stroke="#FF0000" stroke-width="0.286041" stroke-miterlimit="22.9256"/>
<path d="M484.598 559.647L511.606 532.107" stroke="#FF0000" stroke-width="0.286041" stroke-miterlimit="22.9256"/>
<path d="M484.598 590.363L511.606 562.823" stroke="#FF0000" stroke-width="0.286041" stroke-miterlimit="22.9256"/>
<path d="M484.598 620.546L511.606 593.538" stroke="#FF0000" stroke-width="0.286041" stroke-miterlimit="22.9256"/>
<path d="M491.486 643.847L511.606 623.721" stroke="#FF0000" stroke-width="0.286041" stroke-miterlimit="22.9256"/>
<path d="M487.247 267.336C487.247 266.753 486.772 266.278 486.189 266.278C485.605 266.278 485.13 266.753 485.13 267.336C485.13 267.92 485.605 268.395 486.189 268.395C486.772 268.395 487.247 267.92 487.247 267.336Z" fill="#FF0000"/>
<path d="M486.189 267.336H487.247M487.247 267.336C487.247 266.753 486.772 266.278 486.189 266.278C485.605 266.278 485.13 266.753 485.13 267.336C485.13 267.92 485.605 268.395 486.189 268.395C486.772 268.395 487.247 267.92 487.247 267.336Z" stroke="black" stroke-width="0.286041" stroke-miterlimit="22.9256"/>
<path d="M490.422 263.629L509.49 244.568" stroke="#FF0000" stroke-width="0.286041" stroke-miterlimit="22.9256"/>
<path d="M484.598 299.642L497.836 286.404" stroke="#FF0000" stroke-width="0.286041" stroke-miterlimit="22.9256"/>
<path d="M502.602 282.691C502.602 282.108 502.127 281.633 501.543 281.633C500.96 281.633 500.485 282.108 500.485 282.691C500.485 283.275 500.96 283.75 501.543 283.75C502.127 283.75 502.602 283.275 502.602 282.691Z" fill="#FF0000"/>
<path d="M501.543 282.691H502.602M502.602 282.691C502.602 282.108 502.127 281.633 501.543 281.633C500.96 281.633 500.485 282.108 500.485 282.691C500.485 283.275 500.96 283.75 501.543 283.75C502.127 283.75 502.602 283.275 502.602 282.691Z" stroke="black" stroke-width="0.286041" stroke-miterlimit="22.9256"/>
<path d="M505.251 278.99L511.606 272.634" stroke="#FF0000" stroke-width="0.286041" stroke-miterlimit="22.9256"/>
<path d="M484.598 330.351L486.189 328.767" stroke="#FF0000" stroke-width="0.286041" stroke-miterlimit="22.9256"/>
<path d="M491.486 325.06C491.486 324.476 491.012 324.001 490.428 324.001C489.844 324.001 489.37 324.476 489.37 325.06C489.37 325.643 489.844 326.118 490.428 326.118C491.012 326.118 491.486 325.643 491.486 325.06Z" fill="#FF0000"/>
<path d="M490.428 325.06H491.486M491.486 325.06C491.486 324.476 491.012 324.001 490.428 324.001C489.844 324.001 489.37 324.476 489.37 325.06C489.37 325.643 489.844 326.118 490.428 326.118C491.012 326.118 491.486 325.643 491.486 325.06Z" stroke="black" stroke-width="0.286041" stroke-miterlimit="22.9256"/>
<path d="M494.129 320.82L511.606 303.349" stroke="#FF0000" stroke-width="0.286041" stroke-miterlimit="22.9256"/>
<path d="M484.598 361.066L501.543 344.121" stroke="#FF0000" stroke-width="0.286041" stroke-miterlimit="22.9256"/>
<path d="M506.309 339.882C506.309 339.299 505.834 338.824 505.251 338.824C504.667 338.824 504.192 339.299 504.192 339.882C504.192 340.466 504.667 340.94 505.251 340.94C505.834 340.94 506.309 340.466 506.309 339.882Z" fill="#FF0000"/>
<path d="M505.251 339.882H506.309M506.309 339.882C506.309 339.299 505.834 338.824 505.251 338.824C504.667 338.824 504.192 339.299 504.192 339.882C504.192 340.466 504.667 340.94 505.251 340.94C505.834 340.94 506.309 340.466 506.309 339.882Z" stroke="black" stroke-width="0.286041" stroke-miterlimit="22.9256"/>
<path d="M509.49 336.181L511.606 333.532" stroke="#FF0000" stroke-width="0.286041" stroke-miterlimit="22.9256"/>
<path d="M484.598 391.782L490.422 385.958" stroke="#FF0000" stroke-width="0.286041" stroke-miterlimit="22.9256"/>
<path d="M495.188 382.25C495.188 381.667 494.713 381.192 494.129 381.192C493.546 381.192 493.071 381.667 493.071 382.25C493.071 382.834 493.546 383.309 494.129 383.309C494.713 383.309 495.188 382.834 495.188 382.25Z" fill="#FF0000"/>
<path d="M494.129 382.25H495.188M495.188 382.25C495.188 381.667 494.713 381.192 494.129 381.192C493.546 381.192 493.071 381.667 493.071 382.25C493.071 382.834 493.546 383.309 494.129 383.309C494.713 383.309 495.188 382.834 495.188 382.25Z" stroke="black" stroke-width="0.286041" stroke-miterlimit="22.9256"/>
<path d="M497.836 378.543L511.606 364.247" stroke="#FF0000" stroke-width="0.286041" stroke-miterlimit="22.9256"/>
<path d="M486.189 420.374L505.251 401.312" stroke="#FF0000" stroke-width="0.286041" stroke-miterlimit="22.9256"/>
<path d="M510.548 397.605C510.548 397.022 510.073 396.547 509.49 396.547C508.906 396.547 508.431 397.022 508.431 397.605C508.431 398.189 508.906 398.664 509.49 398.664C510.073 398.664 510.548 398.189 510.548 397.605Z" fill="#FF0000"/>
<path d="M509.49 397.605H510.548M510.548 397.605C510.548 397.022 510.073 396.547 509.49 396.547C508.906 396.547 508.431 397.022 508.431 397.605C508.431 398.189 508.906 398.664 509.49 398.664C510.073 398.664 510.548 398.189 510.548 397.605Z" stroke="black" stroke-width="0.286041" stroke-miterlimit="22.9256"/>
<path d="M484.598 452.68L494.129 443.149" stroke="#FF0000" stroke-width="0.286041" stroke-miterlimit="22.9256"/>
<path d="M498.901 439.442C498.901 438.858 498.426 438.383 497.842 438.383C497.259 438.383 496.784 438.858 496.784 439.442C496.784 440.025 497.259 440.5 497.842 440.5C498.426 440.5 498.901 440.025 498.901 439.442Z" fill="#FF0000"/>
<path d="M497.842 439.442H498.901M498.901 439.442C498.901 438.858 498.426 438.383 497.842 438.383C497.259 438.383 496.784 438.858 496.784 439.442C496.784 440.025 497.259 440.5 497.842 440.5C498.426 440.5 498.901 440.025 498.901 439.442Z" stroke="black" stroke-width="0.286041" stroke-miterlimit="22.9256"/>
<path d="M501.543 435.735L511.606 425.672" stroke="#FF0000" stroke-width="0.286041" stroke-miterlimit="22.9256"/>
<path d="M487.247 481.272C487.247 480.689 486.772 480.214 486.189 480.214C485.605 480.214 485.13 480.689 485.13 481.272C485.13 481.856 485.605 482.331 486.189 482.331C486.772 482.331 487.247 481.856 487.247 481.272Z" fill="#FF0000"/>
<path d="M486.189 481.272H487.247M487.247 481.272C487.247 480.689 486.772 480.214 486.189 480.214C485.605 480.214 485.13 480.689 485.13 481.272C485.13 481.856 485.605 482.331 486.189 482.331C486.772 482.331 487.247 481.856 487.247 481.272Z" stroke="black" stroke-width="0.286041" stroke-miterlimit="22.9256"/>
<path d="M490.422 477.565L509.49 458.503" stroke="#FF0000" stroke-width="0.286041" stroke-miterlimit="22.9256"/>
<path d="M484.598 513.578L497.836 500.34" stroke="#FF0000" stroke-width="0.286041" stroke-miterlimit="22.9256"/>
<path d="M502.602 496.633C502.602 496.049 502.127 495.574 501.543 495.574C500.96 495.574 500.485 496.049 500.485 496.633C500.485 497.216 500.96 497.691 501.543 497.691C502.127 497.691 502.602 497.216 502.602 496.633Z" fill="#FF0000"/>
<path d="M501.543 496.633H502.602M502.602 496.633C502.602 496.049 502.127 495.574 501.543 495.574C500.96 495.574 500.485 496.049 500.485 496.633C500.485 497.216 500.96 497.691 501.543 497.691C502.127 497.691 502.602 497.216 502.602 496.633Z" stroke="black" stroke-width="0.286041" stroke-miterlimit="22.9256"/>
<path d="M505.251 492.926L511.606 486.57" stroke="#FF0000" stroke-width="0.286041" stroke-miterlimit="22.9256"/>
<path d="M484.598 544.293L486.189 542.703" stroke="#FF0000" stroke-width="0.286041" stroke-miterlimit="22.9256"/>
<path d="M491.486 538.463C491.486 537.88 491.012 537.405 490.428 537.405C489.844 537.405 489.37 537.88 489.37 538.463C489.37 539.047 489.844 539.522 490.428 539.522C491.012 539.522 491.486 539.047 491.486 538.463Z" fill="#FF0000"/>
<path d="M490.428 538.463H491.486M491.486 538.463C491.486 537.88 491.012 537.405 490.428 537.405C489.844 537.405 489.37 537.88 489.37 538.463C489.37 539.047 489.844 539.522 490.428 539.522C491.012 539.522 491.486 539.047 491.486 538.463Z" stroke="black" stroke-width="0.286041" stroke-miterlimit="22.9256"/>
<path d="M494.129 534.756L511.606 517.285" stroke="#FF0000" stroke-width="0.286041" stroke-miterlimit="22.9256"/>
<path d="M484.598 575.002L501.543 557.531" stroke="#FF0000" stroke-width="0.286041" stroke-miterlimit="22.9256"/>
<path d="M506.309 553.818C506.309 553.235 505.834 552.76 505.251 552.76C504.667 552.76 504.192 553.235 504.192 553.818C504.192 554.402 504.667 554.876 505.251 554.876C505.834 554.876 506.309 554.402 506.309 553.818Z" fill="#FF0000"/>
<path d="M505.251 553.818H506.309M506.309 553.818C506.309 553.235 505.834 552.76 505.251 552.76C504.667 552.76 504.192 553.235 504.192 553.818C504.192 554.402 504.667 554.876 505.251 554.876C505.834 554.876 506.309 554.402 506.309 553.818Z" stroke="black" stroke-width="0.286041" stroke-miterlimit="22.9256"/>
<path d="M509.49 550.117L511.606 547.468" stroke="#FF0000" stroke-width="0.286041" stroke-miterlimit="22.9256"/>
<path d="M484.598 605.185L490.422 599.894" stroke="#FF0000" stroke-width="0.286041" stroke-miterlimit="22.9256"/>
<path d="M495.188 596.187C495.188 595.603 494.713 595.128 494.129 595.128C493.546 595.128 493.071 595.603 493.071 596.187C493.071 596.77 493.546 597.245 494.129 597.245C494.713 597.245 495.188 596.77 495.188 596.187Z" fill="#FF0000"/>
<path d="M494.129 596.187H495.188M495.188 596.187C495.188 595.603 494.713 595.128 494.129 595.128C493.546 595.128 493.071 595.603 493.071 596.187C493.071 596.77 493.546 597.245 494.129 597.245C494.713 597.245 495.188 596.77 495.188 596.187Z" stroke="black" stroke-width="0.286041" stroke-miterlimit="22.9256"/>
<path d="M497.836 591.947L511.606 578.183" stroke="#FF0000" stroke-width="0.286041" stroke-miterlimit="22.9256"/>
<path d="M486.189 634.316L505.251 615.248" stroke="#FF0000" stroke-width="0.286041" stroke-miterlimit="22.9256"/>
<path d="M510.548 611.009C510.548 610.426 510.073 609.951 509.49 609.951C508.906 609.951 508.431 610.426 508.431 611.009C508.431 611.593 508.906 612.067 509.49 612.067C510.073 612.067 510.548 611.593 510.548 611.009Z" fill="#FF0000"/>
<path d="M509.49 611.009H510.548M510.548 611.009C510.548 610.426 510.073 609.951 509.49 609.951C508.906 609.951 508.431 610.426 508.431 611.009C508.431 611.593 508.906 612.067 509.49 612.067C510.073 612.067 510.548 611.593 510.548 611.009Z" stroke="black" stroke-width="0.286041" stroke-miterlimit="22.9256"/>
<path d="M506.841 643.846L511.606 639.081" stroke="#FF0000" stroke-width="0.286041" stroke-miterlimit="22.9256"/>
<path d="M484.598 246.158V643.847H511.606V246.158" stroke="#FF0000" stroke-width="0.286041" stroke-miterlimit="22.9256"/>
<path d="M229.358 123.83V218.618" stroke="black" stroke-width="0.286041" stroke-miterlimit="22.9256"/>
<path d="M216.12 110.065V205.38" stroke="black" stroke-width="0.286041" stroke-miterlimit="22.9256"/>
<path d="M345.331 110.065V0.974854" stroke="black" stroke-width="0.286041" stroke-miterlimit="22.9256"/>
<path d="M358.569 116.947V14.7449" stroke="black" stroke-width="0.286041" stroke-miterlimit="22.9256"/>
<path d="M345.331 0.974854H403.048" stroke="black" stroke-width="0.286041" stroke-miterlimit="22.9256"/>
<path d="M358.569 14.7449H403.048" stroke="black" stroke-width="0.286041" stroke-miterlimit="22.9256"/>
<path d="M470.828 14.7449H477.716" stroke="black" stroke-width="0.286041" stroke-miterlimit="22.9256"/>
<path d="M365.451 123.83H229.358" stroke="black" stroke-width="0.286041" stroke-miterlimit="22.9256"/>
<path d="M372.333 116.947H358.569" stroke="black" stroke-width="0.286041" stroke-miterlimit="22.9256"/>
<path d="M345.331 110.065H216.12" stroke="black" stroke-width="0.286041" stroke-miterlimit="22.9256"/>
<path d="M403.048 14.7449V0.974854" stroke="black" stroke-width="0.286041" stroke-miterlimit="22.9256"/>
<path d="M470.828 14.7449V0.974854" stroke="black" stroke-width="0.286041" stroke-miterlimit="22.9256"/>
<path d="M114.976 477.565H108.094V498.217" stroke="black" stroke-width="0.286041" stroke-miterlimit="22.9256"/>
<path d="M120.8 477.565H122.922L123.981 478.629L125.565 480.746L126.097 482.863L126.624 485.511V490.277L126.097 493.452L125.565 495.042L123.981 497.159L122.922 498.217H120.8L119.742 497.159L118.157 495.042L117.625 493.452L117.093 490.277V485.511L117.625 482.863L118.157 480.746L119.742 478.629L120.8 477.565Z" stroke="black" stroke-width="0.286041" stroke-miterlimit="22.9256"/>
<path d="M138.803 482.863L138.277 480.746L137.745 479.688L137.219 478.629L135.628 477.565H133.512L132.453 478.629L131.921 479.688L131.395 480.746L130.331 482.863L129.804 485.511V490.277L130.331 493.452L131.395 495.042L132.453 497.159L133.512 498.217H135.628L137.219 497.159L138.277 495.042L138.803 493.452" stroke="black" stroke-width="0.286041" stroke-miterlimit="22.9256"/>
<path d="M144.633 477.565V498.217" stroke="black" stroke-width="0.286041" stroke-miterlimit="22.9256"/>
<path d="M140.394 477.565H148.866" stroke="black" stroke-width="0.286041" stroke-miterlimit="22.9256"/>
<path d="M151.515 477.565V498.217L159.987 477.565V498.217" stroke="black" stroke-width="0.286041" stroke-miterlimit="22.9256"/>
<path d="M164.227 477.565V498.217" stroke="black" stroke-width="0.286041" stroke-miterlimit="22.9256"/>
<path d="M164.227 487.628H172.699" stroke="black" stroke-width="0.286041" stroke-miterlimit="22.9256"/>
<path d="M172.699 498.217V477.565" stroke="black" stroke-width="0.286041" stroke-miterlimit="22.9256"/>
<path d="M177.465 491.335H183.288" stroke="black" stroke-width="0.286041" stroke-miterlimit="22.9256"/>
<path d="M175.348 498.217L180.113 477.565L184.879 498.217" stroke="black" stroke-width="0.286041" stroke-miterlimit="22.9256"/>
<path d="M186.463 498.217L190.703 487.628" stroke="black" stroke-width="0.286041" stroke-miterlimit="22.9256"/>
<path d="M194.936 498.217V477.565H189.644L187.522 478.629L186.995 479.688L186.463 481.804V483.395L186.995 485.511L187.522 486.57L189.644 487.628H194.936" stroke="black" stroke-width="0.286041" stroke-miterlimit="22.9256"/>
<path d="M117.093 515.694L118.157 514.636L119.742 511.987V532.107" stroke="black" stroke-width="0.286041" stroke-miterlimit="22.9256"/>
<path d="M126.097 511.987H134.57L128.746 532.107" stroke="black" stroke-width="0.286041" stroke-miterlimit="22.9256"/>
<path d="M138.803 531.049L138.277 532.107L137.745 531.049L138.277 529.991L138.803 531.049ZM138.803 531.049V533.171L138.277 535.288L137.745 535.82" stroke="black" stroke-width="0.286041" stroke-miterlimit="22.9256"/>
<path d="M143.574 511.987H152.047L146.217 532.107" stroke="black" stroke-width="0.286041" stroke-miterlimit="22.9256"/>
<path d="M158.397 511.987L156.28 512.519L155.748 514.636V516.753L156.28 518.343L157.871 519.401L159.987 520.46L161.578 521.518L163.163 523.641L163.695 525.225V528.406L163.163 529.991L162.636 531.049L160.52 532.107H158.397L156.28 531.049L155.748 529.991L155.222 528.406V525.225L155.748 523.641L157.339 521.518L158.929 520.46L161.046 519.401L162.636 518.343L163.163 516.753V514.636L162.636 512.519L160.52 511.987H158.397Z" stroke="black" stroke-width="0.286041" stroke-miterlimit="22.9256"/>
<path d="M177.465 532.108V518.343L173.225 529.465L169.518 518.343V532.108" stroke="black" stroke-width="0.286041" stroke-miterlimit="22.9256"/>
<path d="M180.64 516.753V515.694L181.172 513.578L181.698 512.519L182.756 511.987H184.879L186.463 512.519L186.995 513.578L187.522 515.694V517.811L186.995 519.401L185.937 522.577L180.113 532.107H188.054" stroke="black" stroke-width="0.286041" stroke-miterlimit="22.9256"/>
<path d="M348.506 492.926L347.974 490.803L347.447 489.745L346.915 488.686L345.857 488.16H343.208L342.15 488.686L341.624 489.745L341.092 490.803L340.565 492.926L340.033 495.574V500.34L340.565 503.515L341.092 505.632L342.15 507.222L343.208 508.28H345.857L346.915 507.222L347.974 505.632L348.506 503.515" stroke="black" stroke-width="0.286041" stroke-miterlimit="22.9256"/>
<path d="M352.213 508.28V488.16H360.153V508.28" stroke="black" stroke-width="0.286041" stroke-miterlimit="22.9256"/>
<path d="M364.925 501.398H370.748" stroke="black" stroke-width="0.286041" stroke-miterlimit="22.9256"/>
<path d="M363.334 508.28L368.1 488.16L372.333 508.28" stroke="black" stroke-width="0.286041" stroke-miterlimit="22.9256"/>
<path d="M382.396 508.28V488.16H376.04V504.573L375.514 506.69L374.982 507.222L373.923 508.28" stroke="black" stroke-width="0.286041" stroke-miterlimit="22.9256"/>
<path d="M387.161 488.16V508.28H392.991L394.049 507.222L394.576 506.69L395.108 504.573V500.34L394.576 498.749L394.049 497.691L392.991 496.633H387.161" stroke="black" stroke-width="0.286041" stroke-miterlimit="22.9256"/>
<path d="M398.815 488.16V508.28" stroke="black" stroke-width="0.286041" stroke-miterlimit="22.9256"/>
<path d="M398.815 497.691H406.755" stroke="black" stroke-width="0.286041" stroke-miterlimit="22.9256"/>
<path d="M406.755 508.28V488.16" stroke="black" stroke-width="0.286041" stroke-miterlimit="22.9256"/>
<path d="M410.462 508.28L414.696 497.691" stroke="black" stroke-width="0.286041" stroke-miterlimit="22.9256"/>
<path d="M418.409 508.28V488.16H413.111L411.521 488.686L410.994 489.745L410.462 491.867V493.984L410.994 495.574L411.521 496.633L413.111 497.691H418.409" stroke="black" stroke-width="0.286041" stroke-miterlimit="22.9256"/>
<path d="M344.799 525.757L345.857 524.699L347.974 522.05V542.17" stroke="black" stroke-width="0.286041" stroke-miterlimit="22.9256"/>
<path d="M361.217 522.05H355.388L354.862 530.523L355.388 529.991L356.978 528.932H358.569L360.685 529.991L361.744 531.581L362.276 534.756V536.347L361.744 539.522L360.685 541.644L358.569 542.17H356.978L355.388 541.644L354.862 540.586L354.33 538.463" stroke="black" stroke-width="0.286041" stroke-miterlimit="22.9256"/>
<path d="M367.041 541.644L366.509 542.17L365.983 541.644L366.509 540.586L367.041 541.644ZM367.041 541.644V543.229L366.509 545.351L365.983 546.409" stroke="black" stroke-width="0.286041" stroke-miterlimit="22.9256"/>
<path d="M378.689 524.699L378.163 523.109L376.04 522.05H374.982L373.391 523.109L372.333 525.757L371.807 530.523V535.82L372.333 539.522L373.391 541.644L374.982 542.17H375.514L377.63 541.644L378.689 539.522L379.221 536.347V535.82L378.689 532.64L377.63 530.523L375.514 529.991H374.982L373.391 530.523L372.333 532.64L371.807 535.82" stroke="black" stroke-width="0.286041" stroke-miterlimit="22.9256"/>
<path d="M386.635 522.05L385.045 523.109L383.986 525.757L383.454 530.523V533.698L383.986 538.463L385.045 541.644L386.635 542.17H388.22L389.81 541.644L390.869 538.463L391.401 533.698V530.523L390.869 525.757L389.81 523.109L388.22 522.05H386.635Z" stroke="black" stroke-width="0.286041" stroke-miterlimit="22.9256"/>
<path d="M405.697 542.171V528.933L401.458 539.522L397.224 528.933V542.171" stroke="black" stroke-width="0.286041" stroke-miterlimit="22.9256"/>
<path d="M408.346 526.816V525.757L408.872 524.167L409.404 523.109L410.462 522.05H413.111L414.169 523.109L414.696 524.167L415.228 525.757V527.874L414.696 529.991L413.643 532.64L407.813 542.17H415.76" stroke="black" stroke-width="0.286041" stroke-miterlimit="22.9256"/>
<path d="M273.843 429.379V742.868" stroke="black" stroke-width="0.286041" stroke-miterlimit="22.9256"/>
<path d="M280.725 429.379V742.868" stroke="black" stroke-width="0.286041" stroke-miterlimit="22.9256"/>
<path d="M83.2025 375.368H42.4302H83.2025Z" stroke="black" stroke-width="0.286041" stroke-miterlimit="22.9256"/>
<path d="M202.35 375.368H222.476" stroke="black" stroke-width="0.286041" stroke-miterlimit="22.9256"/>
<path d="M324.678 375.368H484.598" stroke="black" stroke-width="0.286041" stroke-miterlimit="22.9256"/>
<path d="M83.2025 382.25H42.4302H83.2025Z" stroke="black" stroke-width="0.286041" stroke-miterlimit="22.9256"/>
<path d="M202.35 382.25H226.709" stroke="black" stroke-width="0.286041" stroke-miterlimit="22.9256"/>
<path d="M327.322 382.25H484.598" stroke="black" stroke-width="0.286041" stroke-miterlimit="22.9256"/>
<path d="M229.358 218.618V273.16" stroke="black" stroke-width="0.286041" stroke-miterlimit="22.9256"/>
<path d="M222.476 218.618V273.16" stroke="black" stroke-width="0.286041" stroke-miterlimit="22.9256"/>
<path d="M89.0264 742.868H88.5001" stroke="#008AB8" stroke-width="0.286041" stroke-miterlimit="22.9256"/>
<path d="M83.2026 382.25H88.5001" stroke="#008AB8" stroke-width="0.286041" stroke-miterlimit="22.9256"/>
<path d="M416.818 742.868H421.584" stroke="#008AB8" stroke-width="0.286041" stroke-miterlimit="22.9256"/>
<path d="M83.2026 382.25H88.5001" stroke="#008AB8" stroke-width="0.286041" stroke-miterlimit="22.9256"/>
<path d="M83.2026 375.368H88.5001" stroke="#008AB8" stroke-width="0.286041" stroke-miterlimit="22.9256"/>
<path d="M83.2026 375.368H88.5001" stroke="#008AB8" stroke-width="0.286041" stroke-miterlimit="22.9256"/>
<path d="M368.626 295.935L360.153 316.587" stroke="black" stroke-width="0.286041" stroke-miterlimit="22.9256"/>
<path d="M360.153 295.935L368.626 316.587" stroke="black" stroke-width="0.286041" stroke-miterlimit="22.9256"/>
<path d="M374.455 295.935H376.572L377.63 296.993L378.689 299.11L379.747 300.7L380.279 303.875V308.641L379.747 311.822L378.689 313.406L377.63 315.529L376.572 316.587H374.455L372.865 315.529L371.807 313.406L371.275 311.822L370.748 308.641V303.875L371.275 300.7L371.807 299.11L372.865 296.993L374.455 295.935Z" stroke="black" stroke-width="0.286041" stroke-miterlimit="22.9256"/>
<path d="M391.4 316.587V295.935H384.513V312.88L383.986 314.465L383.454 315.529L382.396 316.587" stroke="black" stroke-width="0.286041" stroke-miterlimit="22.9256"/>
<path d="M403.048 316.587V295.935H396.166V312.88L395.634 314.465L395.108 315.529L394.049 316.587" stroke="black" stroke-width="0.286041" stroke-miterlimit="22.9256"/>
<path d="M348.506 334.058L349.564 333L351.154 330.351V350.477" stroke="black" stroke-width="0.286041" stroke-miterlimit="22.9256"/>
<path d="M358.037 335.117V334.058L358.569 331.942L359.627 330.883L360.685 330.351H362.802L363.86 330.883L364.392 331.942L365.451 334.058V336.181L364.392 337.765L363.334 340.946L357.51 350.477H365.983" stroke="black" stroke-width="0.286041" stroke-miterlimit="22.9256"/>
<path d="M370.216 349.419L369.69 350.477L369.158 349.419L369.69 348.36L370.216 349.419ZM370.216 349.419V351.535L369.69 353.652L369.158 354.184" stroke="black" stroke-width="0.286041" stroke-miterlimit="22.9256"/>
<path d="M374.982 334.058L376.04 333L378.162 330.351V350.477" stroke="black" stroke-width="0.286041" stroke-miterlimit="22.9256"/>
<path d="M385.577 330.351H391.927L388.752 337.765H390.342L391.401 338.83L391.927 339.888L392.459 342.531V344.653L391.927 347.828L390.869 349.419L389.278 350.477H387.161L385.577 349.419L385.045 348.36L384.513 346.77" stroke="black" stroke-width="0.286041" stroke-miterlimit="22.9256"/>
<path d="M406.755 350.477V336.707L402.522 347.828L398.283 336.707V350.477" stroke="black" stroke-width="0.286041" stroke-miterlimit="22.9256"/>
<path d="M409.404 335.117V334.058L409.93 331.942L410.462 330.883L412.053 330.351H414.169L415.228 330.883L415.76 331.942L416.286 334.058V336.181L415.76 337.765L414.696 340.946L408.872 350.477H417.344" stroke="black" stroke-width="0.286041" stroke-miterlimit="22.9256"/>
<path d="M295.022 280.048H300.319" stroke="#008AB8" stroke-width="0.286041" stroke-miterlimit="22.9256"/>
<path d="M372.333 116.947V184.728" stroke="black" stroke-width="0.286041" stroke-miterlimit="22.9256"/>
<path d="M372.333 232.388V280.048" stroke="black" stroke-width="0.286041" stroke-miterlimit="22.9256"/>
<path d="M365.451 123.83V184.728" stroke="black" stroke-width="0.286041" stroke-miterlimit="22.9256"/>
<path d="M365.451 232.388V273.16" stroke="black" stroke-width="0.286041" stroke-miterlimit="22.9256"/>
<path d="M229.358 280.048H372.333" stroke="black" stroke-width="0.286041" stroke-miterlimit="22.9256"/>
<path d="M229.358 273.16H365.451" stroke="black" stroke-width="0.286041" stroke-miterlimit="22.9256"/>
<path d="M229.358 375.368V354.71" stroke="black" stroke-width="0.286041" stroke-miterlimit="22.9256"/>
<path d="M229.358 293.812V280.048" stroke="black" stroke-width="0.286041" stroke-miterlimit="22.9256"/>
<path d="M222.476 375.368V354.71" stroke="black" stroke-width="0.286041" stroke-miterlimit="22.9256"/>
<path d="M222.476 293.812V273.16" stroke="black" stroke-width="0.286041" stroke-miterlimit="22.9256"/>
<path d="M365.451 232.388H372.333" stroke="black" stroke-width="0.286041" stroke-miterlimit="22.9256"/>
<path d="M365.451 184.728H372.333" stroke="black" stroke-width="0.286041" stroke-miterlimit="22.9256"/>
<path d="M255.834 199.03L255.308 196.907L254.776 195.849L253.717 194.791L252.659 193.732H250.542L249.478 194.791L248.42 195.849L247.894 196.907L247.362 199.03L246.835 201.673V206.438L247.362 209.619L247.894 211.204L249.478 213.326L250.542 214.384H252.659L253.717 213.326L255.308 211.204L255.834 209.619" stroke="black" stroke-width="0.286041" stroke-miterlimit="22.9256"/>
<path d="M267.487 190.025L256.892 221.267" stroke="black" stroke-width="0.286041" stroke-miterlimit="22.9256"/>
<path d="M278.609 193.732L274.37 210.677L273.843 212.268L273.311 213.326L272.253 214.384H271.195" stroke="black" stroke-width="0.286041" stroke-miterlimit="22.9256"/>
<path d="M270.13 193.732L274.37 210.677" stroke="black" stroke-width="0.286041" stroke-miterlimit="22.9256"/>
<path d="M237.831 248.275V228.149L232.007 241.392H241.006" stroke="black" stroke-width="0.286041" stroke-miterlimit="22.9256"/>
<path d="M244.713 247.216L244.187 248.275L243.655 247.216L244.187 246.684L244.713 247.216ZM244.713 247.216V249.333L244.187 251.45L243.655 252.508" stroke="black" stroke-width="0.286041" stroke-miterlimit="22.9256"/>
<path d="M253.185 228.149L251.069 228.681L250.01 231.856L249.478 236.621V239.802L250.01 244.567L251.069 247.216L253.185 248.275H254.244L255.834 247.216L256.892 244.567L257.957 239.802V236.621L256.892 231.856L255.834 228.681L254.244 228.149H253.185Z" stroke="black" stroke-width="0.286041" stroke-miterlimit="22.9256"/>
<path d="M261.132 228.149H269.604L263.78 248.275" stroke="black" stroke-width="0.286041" stroke-miterlimit="22.9256"/>
<path d="M283.374 248.275V235.037L279.135 245.626L275.428 235.037V248.275" stroke="black" stroke-width="0.286041" stroke-miterlimit="22.9256"/>
<path d="M286.549 232.92V231.856L287.081 229.739L287.608 228.681L288.666 228.149H290.783L292.373 228.681L292.905 229.739L293.431 231.856V233.978L292.905 235.563L291.315 238.744L285.491 248.275H293.963" stroke="black" stroke-width="0.286041" stroke-miterlimit="22.9256"/>
<path d="M131.395 336.181L126.097 324.528" stroke="black" stroke-width="0.286041" stroke-miterlimit="22.9256"/>
<path d="M131.395 316.055L122.922 329.293" stroke="black" stroke-width="0.286041" stroke-miterlimit="22.9256"/>
<path d="M122.922 316.055V336.181" stroke="black" stroke-width="0.286041" stroke-miterlimit="22.9256"/>
<path d="M140.926 316.055L137.219 332.474L136.687 334.058L135.628 335.117L134.57 336.181H134.038" stroke="black" stroke-width="0.286041" stroke-miterlimit="22.9256"/>
<path d="M132.979 316.055L137.219 332.474" stroke="black" stroke-width="0.286041" stroke-miterlimit="22.9256"/>
<path d="M150.457 316.055L142.51 336.181" stroke="black" stroke-width="0.286041" stroke-miterlimit="22.9256"/>
<path d="M142.51 316.055L150.457 336.181" stroke="black" stroke-width="0.286041" stroke-miterlimit="22.9256"/>
<path d="M153.105 316.055V336.181" stroke="black" stroke-width="0.286041" stroke-miterlimit="22.9256"/>
<path d="M153.105 325.586H161.578" stroke="black" stroke-width="0.286041" stroke-miterlimit="22.9256"/>
<path d="M161.578 336.181V316.055" stroke="black" stroke-width="0.286041" stroke-miterlimit="22.9256"/>
<path d="M164.753 336.181L168.992 325.586" stroke="black" stroke-width="0.286041" stroke-miterlimit="22.9256"/>
<path d="M173.225 336.181V316.055H167.928L166.343 316.587L165.811 317.645L164.753 319.762V321.879L165.811 323.469L166.343 324.527L167.928 325.586H173.225" stroke="black" stroke-width="0.286041" stroke-miterlimit="22.9256"/>
<path d="M125.565 349.945H119.741L118.683 358.418L119.741 357.359L121.332 356.833H122.922L124.507 357.359L126.097 359.482L126.624 362.657V364.247L126.097 367.422L124.507 369.539L122.922 370.071H121.332L119.741 369.539L118.683 368.481L118.157 366.364" stroke="black" stroke-width="0.286041" stroke-miterlimit="22.9256"/>
<path d="M131.395 369.539L130.331 370.071L129.804 369.539L130.331 368.48L131.395 369.539ZM131.395 369.539V371.129L130.331 373.246L129.804 374.304" stroke="black" stroke-width="0.286041" stroke-miterlimit="22.9256"/>
<path d="M135.628 349.945H144.101L138.277 370.071" stroke="black" stroke-width="0.286041" stroke-miterlimit="22.9256"/>
<path d="M154.69 352.594L154.164 351.003L152.047 349.945H150.983L149.398 351.003L148.34 353.652L147.281 358.418V363.715L148.34 367.422L149.398 369.539L150.983 370.071H151.515L153.105 369.539L154.69 367.422L155.222 364.247V363.715L154.69 360.54L153.105 358.418L151.515 357.359H150.983L149.398 358.418L148.34 360.54L147.281 363.715" stroke="black" stroke-width="0.286041" stroke-miterlimit="22.9256"/>
<path d="M169.518 370.071V356.833L165.811 367.422L161.578 356.833V370.071" stroke="black" stroke-width="0.286041" stroke-miterlimit="22.9256"/>
<path d="M172.699 354.71V353.652L173.225 351.535L173.758 351.003L174.816 349.945H177.465L178.523 351.003L179.049 351.535L179.581 353.652V355.769L179.049 357.359L177.991 360.54L172.167 370.071H180.113" stroke="black" stroke-width="0.286041" stroke-miterlimit="22.9256"/>
<path d="M83.2026 375.368V382.251" stroke="black" stroke-width="0.286041" stroke-miterlimit="22.9256"/>
<path d="M202.35 375.368V382.251" stroke="black" stroke-width="0.286041" stroke-miterlimit="22.9256"/>
<path d="M202.35 382.25H83.2026" stroke="#00BFFF" stroke-width="0.286041" stroke-miterlimit="22.9256"/>
<path d="M83.2026 375.368H202.35" stroke="#00BFFF" stroke-width="0.286041" stroke-miterlimit="22.9256"/>
<path d="M202.35 378.543H83.2026" stroke="#00BFFF" stroke-width="0.286041" stroke-miterlimit="22.9256"/>
<path d="M270.13 425.672L273.843 429.379" stroke="black" stroke-width="0.286041" stroke-miterlimit="22.9256"/>
<path d="M229.358 375.368L231.475 377.485" stroke="black" stroke-width="0.286041" stroke-miterlimit="22.9256"/>
<path d="M274.902 420.906L277.018 423.023" stroke="black" stroke-width="0.286041" stroke-miterlimit="22.9256"/>
<path d="M226.709 382.251L231.475 377.485" stroke="black" stroke-width="0.286041" stroke-miterlimit="22.9256"/>
<path d="M270.13 425.672L274.902 420.906" stroke="black" stroke-width="0.286041" stroke-miterlimit="22.9256"/>
<path d="M284.433 425.672L280.725 429.379" stroke="black" stroke-width="0.286041" stroke-miterlimit="22.9256"/>
<path d="M324.679 375.368L322.556 377.485" stroke="black" stroke-width="0.286041" stroke-miterlimit="22.9256"/>
<path d="M279.667 420.906L277.018 423.023" stroke="black" stroke-width="0.286041" stroke-miterlimit="22.9256"/>
<path d="M327.322 382.251L322.556 377.485" stroke="black" stroke-width="0.286041" stroke-miterlimit="22.9256"/>
<path d="M284.433 425.672L279.667 420.906" stroke="black" stroke-width="0.286041" stroke-miterlimit="22.9256"/>
<path d="M222.476 354.71H229.358" stroke="black" stroke-width="0.286041" stroke-miterlimit="22.9256"/>
<path d="M222.476 293.812H229.358" stroke="black" stroke-width="0.286041" stroke-miterlimit="22.9256"/>
<path d="M433.763 756.106H498.368" stroke="black" stroke-width="0.286041" stroke-miterlimit="22.9256"/>
<path d="M433.763 742.868H484.598" stroke="black" stroke-width="0.286041" stroke-miterlimit="22.9256"/>
<path d="M202.35 756.106H310.908" stroke="black" stroke-width="0.286041" stroke-miterlimit="22.9256"/>
<path d="M202.35 742.868H236.24" stroke="black" stroke-width="0.286041" stroke-miterlimit="22.9256"/>
<path d="M263.248 742.868H273.843" stroke="black" stroke-width="0.286041" stroke-miterlimit="22.9256"/>
<path d="M280.725 742.868H310.909" stroke="black" stroke-width="0.286041" stroke-miterlimit="22.9256"/>
<path d="M433.763 742.868V756.106" stroke="black" stroke-width="0.286041" stroke-miterlimit="22.9256"/>
<path d="M310.908 742.868V756.106" stroke="black" stroke-width="0.286041" stroke-miterlimit="22.9256"/>
<path d="M310.908 749.756H433.763" stroke="#00BFFF" stroke-width="0.286041" stroke-miterlimit="22.9256"/>
<path d="M202.35 742.868V756.106" stroke="black" stroke-width="0.286041" stroke-miterlimit="22.9256"/>
<path d="M80.0275 742.868V756.106" stroke="black" stroke-width="0.286041" stroke-miterlimit="22.9256"/>
<path d="M202.35 742.868H80.0275" stroke="#00BFFF" stroke-width="0.286041" stroke-miterlimit="22.9256"/>
<path d="M80.0275 749.756H202.35" stroke="#00BFFF" stroke-width="0.286041" stroke-miterlimit="22.9256"/>
<path d="M202.35 756.106H80.0275" stroke="#00BFFF" stroke-width="0.286041" stroke-miterlimit="22.9256"/>
<path d="M202.35 756.106H310.908" stroke="black" stroke-width="0.286041" stroke-miterlimit="22.9256"/>
<path d="M273.843 742.868H202.35H250.01" stroke="black" stroke-width="0.286041" stroke-miterlimit="22.9256"/>
<path d="M280.725 742.868H310.909" stroke="black" stroke-width="0.286041" stroke-miterlimit="22.9256"/>
<path d="M433.763 742.868V756.106" stroke="black" stroke-width="0.286041" stroke-miterlimit="22.9256"/>
<path d="M310.908 742.868V756.106" stroke="black" stroke-width="0.286041" stroke-miterlimit="22.9256"/>
<path d="M310.908 749.756H433.763" stroke="#00BFFF" stroke-width="0.286041" stroke-miterlimit="22.9256"/>
<path d="M202.35 742.868V756.106" stroke="black" stroke-width="0.286041" stroke-miterlimit="22.9256"/>
<path d="M80.0275 742.868V756.106" stroke="black" stroke-width="0.286041" stroke-miterlimit="22.9256"/>
<path d="M202.35 742.868H80.0275" stroke="#00BFFF" stroke-width="0.286041" stroke-miterlimit="22.9256"/>
<path d="M80.0275 749.756H202.35" stroke="#00BFFF" stroke-width="0.286041" stroke-miterlimit="22.9256"/>
<path d="M202.35 756.106H80.0275" stroke="#00BFFF" stroke-width="0.286041" stroke-miterlimit="22.9256"/>
<path d="M310.908 742.868H433.763" stroke="#00BFFF" stroke-width="0.286041" stroke-miterlimit="22.9256"/>
<path d="M310.908 756.106H433.763" stroke="#00BFFF" stroke-width="0.286041" stroke-miterlimit="22.9256"/>
<path d="M1.65222 683.029H42.4303" stroke="black" stroke-width="0.286041" stroke-miterlimit="22.9256"/>
<path d="M42.4303 642.256H1.65222L42.4303 683.029V642.256ZM1.65222 642.256L42.4303 683.029H1.65222V642.256Z" fill="#0000FF"/>
<path d="M1.65222 642.256H42.4303V683.029M1.65222 642.256L42.4303 683.029M1.65222 642.256V683.029H42.4303" stroke="#0000FF" stroke-width="0.286041" stroke-miterlimit="22.9256"/>
<path d="M42.4303 642.256H1.65222V683.029H42.4303V642.256Z" stroke="black" stroke-width="0.286041" stroke-miterlimit="22.9256"/>
<path d="M1.65222 683.029L42.4303 642.256" stroke="black" stroke-width="0.286041" stroke-miterlimit="22.9256"/>
<path d="M42.4303 683.029L1.65222 642.256" stroke="black" stroke-width="0.286041" stroke-miterlimit="22.9256"/>
<path d="M477.716 681.444H518.489" stroke="black" stroke-width="0.286041" stroke-miterlimit="22.9256"/>
<path d="M518.489 640.666H477.711L518.489 681.438V640.666ZM477.711 640.666L518.489 681.438H477.711V640.666Z" fill="#0000FF"/>
<path d="M477.711 640.666H518.489V681.438M477.711 640.666L518.489 681.438M477.711 640.666V681.438H518.489" stroke="#0000FF" stroke-width="0.286041" stroke-miterlimit="22.9256"/>
<path d="M518.489 640.666H477.716V681.444H518.489V640.666Z" stroke="black" stroke-width="0.286041" stroke-miterlimit="22.9256"/>
<path d="M477.716 681.444L518.489 640.666" stroke="black" stroke-width="0.286041" stroke-miterlimit="22.9256"/>
<path d="M518.489 681.444L477.716 640.666" stroke="black" stroke-width="0.286041" stroke-miterlimit="22.9256"/>
<path d="M1.65222 246.158H42.4303" stroke="black" stroke-width="0.286041" stroke-miterlimit="22.9256"/>
<path d="M42.4303 205.38H1.65222L42.4303 246.152V205.38ZM1.65222 205.38L42.4303 246.152H1.65222V205.38Z" fill="#0000FF"/>
<path d="M1.65222 205.38H42.4303V246.152M1.65222 205.38L42.4303 246.152M1.65222 205.38V246.152H42.4303" stroke="#0000FF" stroke-width="0.286041" stroke-miterlimit="22.9256"/>
<path d="M42.4303 205.38H1.65222V246.158H42.4303V205.38Z" stroke="black" stroke-width="0.286041" stroke-miterlimit="22.9256"/>
<path d="M1.65222 246.158L42.4303 205.38" stroke="black" stroke-width="0.286041" stroke-miterlimit="22.9256"/>
<path d="M42.4303 246.158L1.65222 205.38" stroke="black" stroke-width="0.286041" stroke-miterlimit="22.9256"/>
<path d="M477.716 246.158H518.489" stroke="black" stroke-width="0.286041" stroke-miterlimit="22.9256"/>
<path d="M518.489 205.38H477.711L518.489 246.152V205.38ZM477.711 205.38L518.489 246.152H477.711V205.38Z" fill="#0000FF"/>
<path d="M477.711 205.38H518.489V246.152M477.711 205.38L518.489 246.152M477.711 205.38V246.152H518.489" stroke="#0000FF" stroke-width="0.286041" stroke-miterlimit="22.9256"/>
<path d="M518.489 205.38H477.716V246.158H518.489V205.38Z" stroke="black" stroke-width="0.286041" stroke-miterlimit="22.9256"/>
<path d="M477.716 246.158L518.489 205.38" stroke="black" stroke-width="0.286041" stroke-miterlimit="22.9256"/>
<path d="M518.489 246.158L477.716 205.38" stroke="black" stroke-width="0.286041" stroke-miterlimit="22.9256"/>
<path d="M403.048 0.974854H491.486" stroke="black" stroke-width="0.286041" stroke-miterlimit="22.9256"/>
<path d="M290.783 253.04H372.333V280.048H290.783V253.04Z" stroke="#5CB800" stroke-width="0.286041" stroke-miterlimit="22.9256"/>
<path d="M364.393 273.16H353.271" stroke="#5CB800" stroke-width="0.286041" stroke-miterlimit="22.9256"/>
<path d="M352.213 272.102V260.986" stroke="#5CB800" stroke-width="0.286041" stroke-miterlimit="22.9256"/>
<path d="M353.271 259.922H364.393" stroke="#5CB800" stroke-width="0.286041" stroke-miterlimit="22.9256"/>
<path d="M365.451 260.986V272.102" stroke="#5CB800" stroke-width="0.286041" stroke-miterlimit="22.9256"/>
<path d="M364.656 273.16C365.388 273.16 365.983 272.565 365.983 271.839" stroke="#5CB800" stroke-width="0.286041" stroke-miterlimit="22.9256"/>
<path d="M352.213 271.839C352.213 272.571 352.808 273.16 353.534 273.16" stroke="#5CB800" stroke-width="0.286041" stroke-miterlimit="22.9256"/>
<path d="M365.983 260.718C365.983 259.985 365.388 259.396 364.656 259.396" stroke="#5CB800" stroke-width="0.286041" stroke-miterlimit="22.9256"/>
<path d="M353.534 259.396C352.802 259.396 352.213 259.985 352.213 260.718" stroke="#5CB800" stroke-width="0.286041" stroke-miterlimit="22.9256"/>
<path d="M310.908 260.986V272.102" stroke="#5CB800" stroke-width="0.286041" stroke-miterlimit="22.9256"/>
<path d="M309.85 273.16H298.729" stroke="#5CB800" stroke-width="0.286041" stroke-miterlimit="22.9256"/>
<path d="M297.671 272.102V260.986" stroke="#5CB800" stroke-width="0.286041" stroke-miterlimit="22.9256"/>
<path d="M298.729 259.922H309.85" stroke="#5CB800" stroke-width="0.286041" stroke-miterlimit="22.9256"/>
<path d="M310.113 273.16C310.846 273.16 311.435 272.565 311.435 271.839" stroke="#5CB800" stroke-width="0.286041" stroke-miterlimit="22.9256"/>
<path d="M297.671 271.839C297.671 272.571 298.265 273.16 298.992 273.16" stroke="#5CB800" stroke-width="0.286041" stroke-miterlimit="22.9256"/>
<path d="M311.435 260.718C311.435 259.985 310.846 259.396 310.113 259.396" stroke="#5CB800" stroke-width="0.286041" stroke-miterlimit="22.9256"/>
<path d="M298.992 259.396C298.26 259.396 297.671 259.985 297.671 260.718" stroke="#5CB800" stroke-width="0.286041" stroke-miterlimit="22.9256"/>
<path d="M344.003 273.16C344.736 273.16 345.331 272.565 345.331 271.839" stroke="#5CB800" stroke-width="0.286041" stroke-miterlimit="22.9256"/>
<path d="M345.331 260.718C345.331 259.985 344.736 259.396 344.003 259.396" stroke="#5CB800" stroke-width="0.286041" stroke-miterlimit="22.9256"/>
<path d="M318.323 271.839C318.323 272.571 318.918 273.16 319.644 273.16" stroke="#5CB800" stroke-width="0.286041" stroke-miterlimit="22.9256"/>
<path d="M319.644 259.396C318.912 259.396 318.323 259.985 318.323 260.718" stroke="#5CB800" stroke-width="0.286041" stroke-miterlimit="22.9256"/>
<path d="M345.331 260.986V272.102" stroke="#5CB800" stroke-width="0.286041" stroke-miterlimit="22.9256"/>
<path d="M343.74 273.16H319.381" stroke="#5CB800" stroke-width="0.286041" stroke-miterlimit="22.9256"/>
<path d="M317.791 272.102V260.986" stroke="#5CB800" stroke-width="0.286041" stroke-miterlimit="22.9256"/>
<path d="M319.381 259.922H343.74" stroke="#5CB800" stroke-width="0.286041" stroke-miterlimit="22.9256"/>
<path d="M364.393 273.16H353.271" stroke="#5CB800" stroke-width="0.286041" stroke-miterlimit="22.9256"/>
<path d="M352.213 272.102V260.986" stroke="#5CB800" stroke-width="0.286041" stroke-miterlimit="22.9256"/>
<path d="M353.271 259.922H364.393" stroke="#5CB800" stroke-width="0.286041" stroke-miterlimit="22.9256"/>
<path d="M365.451 260.986V272.102" stroke="#5CB800" stroke-width="0.286041" stroke-miterlimit="22.9256"/>
<path d="M364.656 273.16C365.388 273.16 365.983 272.565 365.983 271.839" stroke="#5CB800" stroke-width="0.286041" stroke-miterlimit="22.9256"/>
<path d="M352.213 271.839C352.213 272.571 352.808 273.16 353.534 273.16" stroke="#5CB800" stroke-width="0.286041" stroke-miterlimit="22.9256"/>
<path d="M365.983 260.718C365.983 259.985 365.388 259.396 364.656 259.396" stroke="#5CB800" stroke-width="0.286041" stroke-miterlimit="22.9256"/>
<path d="M353.534 259.396C352.802 259.396 352.213 259.985 352.213 260.718" stroke="#5CB800" stroke-width="0.286041" stroke-miterlimit="22.9256"/>
<path d="M310.908 260.986V272.102" stroke="#5CB800" stroke-width="0.286041" stroke-miterlimit="22.9256"/>
<path d="M309.85 273.16H298.729" stroke="#5CB800" stroke-width="0.286041" stroke-miterlimit="22.9256"/>
<path d="M297.671 272.102V260.986" stroke="#5CB800" stroke-width="0.286041" stroke-miterlimit="22.9256"/>
<path d="M298.729 259.922H309.85" stroke="#5CB800" stroke-width="0.286041" stroke-miterlimit="22.9256"/>
<path d="M310.113 273.16C310.846 273.16 311.435 272.565 311.435 271.839" stroke="#5CB800" stroke-width="0.286041" stroke-miterlimit="22.9256"/>
<path d="M297.671 271.839C297.671 272.571 298.265 273.16 298.992 273.16" stroke="#5CB800" stroke-width="0.286041" stroke-miterlimit="22.9256"/>
<path d="M311.435 260.718C311.435 259.985 310.846 259.396 310.113 259.396" stroke="#5CB800" stroke-width="0.286041" stroke-miterlimit="22.9256"/>
<path d="M298.992 259.396C298.26 259.396 297.671 259.985 297.671 260.718" stroke="#5CB800" stroke-width="0.286041" stroke-miterlimit="22.9256"/>
<path d="M344.003 273.16C344.736 273.16 345.331 272.565 345.331 271.839" stroke="#5CB800" stroke-width="0.286041" stroke-miterlimit="22.9256"/>
<path d="M345.331 260.718C345.331 259.985 344.736 259.396 344.003 259.396" stroke="#5CB800" stroke-width="0.286041" stroke-miterlimit="22.9256"/>
<path d="M318.323 271.839C318.323 272.571 318.918 273.16 319.644 273.16" stroke="#5CB800" stroke-width="0.286041" stroke-miterlimit="22.9256"/>
<path d="M319.644 259.396C318.912 259.396 318.323 259.985 318.323 260.718" stroke="#5CB800" stroke-width="0.286041" stroke-miterlimit="22.9256"/>
<path d="M345.331 260.986V272.102" stroke="#5CB800" stroke-width="0.286041" stroke-miterlimit="22.9256"/>
<path d="M343.74 273.16H319.381" stroke="#5CB800" stroke-width="0.286041" stroke-miterlimit="22.9256"/>
<path d="M317.791 272.102V260.986" stroke="#5CB800" stroke-width="0.286041" stroke-miterlimit="22.9256"/>
<path d="M319.381 259.922H343.74" stroke="#5CB800" stroke-width="0.286041" stroke-miterlimit="22.9256"/>
<path d="M297.671 260.986L301.378 270.517L309.85 273.16" stroke="#5CB800" stroke-width="0.286041" stroke-miterlimit="22.9256"/>
<path d="M317.791 260.986L322.556 270.517L343.74 273.16" stroke="#5CB800" stroke-width="0.286041" stroke-miterlimit="22.9256"/>
<path d="M352.213 260.986L355.92 270.517L364.393 273.16" stroke="#5CB800" stroke-width="0.286041" stroke-miterlimit="22.9256"/>
<path d="M62.5504 300.7V382.251H35.5424V300.7H62.5504Z" stroke="#5CB800" stroke-width="0.286041" stroke-miterlimit="22.9256"/>
<path d="M42.4302 373.778V363.183" stroke="#5CB800" stroke-width="0.286041" stroke-miterlimit="22.9256"/>
<path d="M44.0149 361.598H54.6099" stroke="#5CB800" stroke-width="0.286041" stroke-miterlimit="22.9256"/>
<path d="M56.1946 363.183V373.778" stroke="#5CB800" stroke-width="0.286041" stroke-miterlimit="22.9256"/>
<path d="M54.6099 375.368H44.0149" stroke="#5CB800" stroke-width="0.286041" stroke-miterlimit="22.9256"/>
<path d="M42.9565 373.509C42.9565 374.242 43.5515 374.831 44.2838 374.831" stroke="#5CB800" stroke-width="0.286041" stroke-miterlimit="22.9256"/>
<path d="M44.2838 361.598C43.5515 361.598 42.9565 362.193 42.9565 362.92" stroke="#5CB800" stroke-width="0.286041" stroke-miterlimit="22.9256"/>
<path d="M54.873 374.836C55.6053 374.836 56.2003 374.241 56.2003 373.515" stroke="#5CB800" stroke-width="0.286041" stroke-miterlimit="22.9256"/>
<path d="M56.1945 362.92C56.1945 362.188 55.5996 361.598 54.8673 361.598" stroke="#5CB800" stroke-width="0.286041" stroke-miterlimit="22.9256"/>
<path d="M54.6099 320.82H44.0149" stroke="#5CB800" stroke-width="0.286041" stroke-miterlimit="22.9256"/>
<path d="M42.4302 319.762V308.641" stroke="#5CB800" stroke-width="0.286041" stroke-miterlimit="22.9256"/>
<path d="M44.0149 307.583H54.6099" stroke="#5CB800" stroke-width="0.286041" stroke-miterlimit="22.9256"/>
<path d="M56.1946 308.641V319.762" stroke="#5CB800" stroke-width="0.286041" stroke-miterlimit="22.9256"/>
<path d="M42.9565 319.499C42.9565 320.231 43.5515 320.82 44.2838 320.82" stroke="#5CB800" stroke-width="0.286041" stroke-miterlimit="22.9256"/>
<path d="M44.2838 307.056C43.5515 307.056 42.9565 307.645 42.9565 308.378" stroke="#5CB800" stroke-width="0.286041" stroke-miterlimit="22.9256"/>
<path d="M54.873 320.82C55.6053 320.82 56.2003 320.225 56.2003 319.499" stroke="#5CB800" stroke-width="0.286041" stroke-miterlimit="22.9256"/>
<path d="M56.1945 308.378C56.1945 307.645 55.5996 307.056 54.8673 307.056" stroke="#5CB800" stroke-width="0.286041" stroke-miterlimit="22.9256"/>
<path d="M42.9565 353.389C42.9565 354.121 43.5515 354.716 44.2838 354.716" stroke="#5CB800" stroke-width="0.286041" stroke-miterlimit="22.9256"/>
<path d="M54.873 354.711C55.6053 354.711 56.2003 354.116 56.2003 353.383" stroke="#5CB800" stroke-width="0.286041" stroke-miterlimit="22.9256"/>
<path d="M44.2838 327.708C43.5515 327.708 42.9565 328.297 42.9565 329.03" stroke="#5CB800" stroke-width="0.286041" stroke-miterlimit="22.9256"/>
<path d="M56.1945 329.03C56.1945 328.297 55.5996 327.708 54.8673 327.708" stroke="#5CB800" stroke-width="0.286041" stroke-miterlimit="22.9256"/>
<path d="M54.6099 354.71H44.0149" stroke="#5CB800" stroke-width="0.286041" stroke-miterlimit="22.9256"/>
<path d="M42.4302 353.652V329.293" stroke="#5CB800" stroke-width="0.286041" stroke-miterlimit="22.9256"/>
<path d="M44.0149 327.708H54.6099" stroke="#5CB800" stroke-width="0.286041" stroke-miterlimit="22.9256"/>
<path d="M56.1946 329.293V353.652" stroke="#5CB800" stroke-width="0.286041" stroke-miterlimit="22.9256"/>
<path d="M62.5504 300.7V382.251H35.5424V300.7H62.5504Z" stroke="#5CB800" stroke-width="0.286041" stroke-miterlimit="22.9256"/>
<path d="M42.4302 373.778V363.183" stroke="#5CB800" stroke-width="0.286041" stroke-miterlimit="22.9256"/>
<path d="M44.0149 361.598H54.6099" stroke="#5CB800" stroke-width="0.286041" stroke-miterlimit="22.9256"/>
<path d="M56.1946 363.183V373.778" stroke="#5CB800" stroke-width="0.286041" stroke-miterlimit="22.9256"/>
<path d="M54.6099 375.368H44.0149" stroke="#5CB800" stroke-width="0.286041" stroke-miterlimit="22.9256"/>
<path d="M42.9565 373.509C42.9565 374.242 43.5515 374.831 44.2838 374.831" stroke="#5CB800" stroke-width="0.286041" stroke-miterlimit="22.9256"/>
<path d="M44.2838 361.598C43.5515 361.598 42.9565 362.193 42.9565 362.92" stroke="#5CB800" stroke-width="0.286041" stroke-miterlimit="22.9256"/>
<path d="M54.873 374.836C55.6053 374.836 56.2003 374.241 56.2003 373.515" stroke="#5CB800" stroke-width="0.286041" stroke-miterlimit="22.9256"/>
<path d="M56.1945 362.92C56.1945 362.188 55.5996 361.598 54.8673 361.598" stroke="#5CB800" stroke-width="0.286041" stroke-miterlimit="22.9256"/>
<path d="M54.6099 320.82H44.0149" stroke="#5CB800" stroke-width="0.286041" stroke-miterlimit="22.9256"/>
<path d="M42.4302 319.762V308.641" stroke="#5CB800" stroke-width="0.286041" stroke-miterlimit="22.9256"/>
<path d="M44.0149 307.583H54.6099" stroke="#5CB800" stroke-width="0.286041" stroke-miterlimit="22.9256"/>
<path d="M56.1946 308.641V319.762" stroke="#5CB800" stroke-width="0.286041" stroke-miterlimit="22.9256"/>
<path d="M42.9565 319.499C42.9565 320.231 43.5515 320.82 44.2838 320.82" stroke="#5CB800" stroke-width="0.286041" stroke-miterlimit="22.9256"/>
<path d="M44.2838 307.056C43.5515 307.056 42.9565 307.645 42.9565 308.378" stroke="#5CB800" stroke-width="0.286041" stroke-miterlimit="22.9256"/>
<path d="M54.873 320.82C55.6053 320.82 56.2003 320.225 56.2003 319.499" stroke="#5CB800" stroke-width="0.286041" stroke-miterlimit="22.9256"/>
<path d="M56.1945 308.378C56.1945 307.645 55.5996 307.056 54.8673 307.056" stroke="#5CB800" stroke-width="0.286041" stroke-miterlimit="22.9256"/>
<path d="M42.9565 353.389C42.9565 354.121 43.5515 354.716 44.2838 354.716" stroke="#5CB800" stroke-width="0.286041" stroke-miterlimit="22.9256"/>
<path d="M54.873 354.711C55.6053 354.711 56.2003 354.116 56.2003 353.383" stroke="#5CB800" stroke-width="0.286041" stroke-miterlimit="22.9256"/>
<path d="M44.2838 327.708C43.5515 327.708 42.9565 328.297 42.9565 329.03" stroke="#5CB800" stroke-width="0.286041" stroke-miterlimit="22.9256"/>
<path d="M56.1945 329.03C56.1945 328.297 55.5996 327.708 54.8673 327.708" stroke="#5CB800" stroke-width="0.286041" stroke-miterlimit="22.9256"/>
<path d="M54.6099 354.71H44.0149" stroke="#5CB800" stroke-width="0.286041" stroke-miterlimit="22.9256"/>
<path d="M42.4302 353.652V329.293" stroke="#5CB800" stroke-width="0.286041" stroke-miterlimit="22.9256"/>
<path d="M44.0149 327.708H54.6099" stroke="#5CB800" stroke-width="0.286041" stroke-miterlimit="22.9256"/>
<path d="M56.1946 329.293V353.652" stroke="#5CB800" stroke-width="0.286041" stroke-miterlimit="22.9256"/>
<path d="M54.6099 307.583L45.079 311.29L42.4302 319.762" stroke="#5CB800" stroke-width="0.286041" stroke-miterlimit="22.9256"/>
<path d="M54.6099 327.708L45.079 331.942L42.4302 353.652" stroke="#5CB800" stroke-width="0.286041" stroke-miterlimit="22.9256"/>
<path d="M54.6099 361.598L45.079 365.832L42.4302 373.778" stroke="#5CB800" stroke-width="0.286041" stroke-miterlimit="22.9256"/>
<path d="M430.056 681.444V688.326H436.938L430.056 681.444ZM430.056 688.326H436.938L430.056 729.098V688.326Z" fill="black"/>
<path d="M430.056 688.326V681.444L436.938 688.326M430.056 688.326H436.938M430.056 688.326V729.098L436.938 688.326" stroke="black" stroke-width="0.286041" stroke-miterlimit="22.9256"/>
<path d="M430.056 681.444H477.716L436.938 688.326L430.056 681.444Z" fill="black"/>
<path d="M430.056 681.444H477.716L436.938 688.326L430.056 681.444Z" stroke="black" stroke-width="0.286041" stroke-miterlimit="22.9256"/>
<path d="M430.056 681.444H477.716L436.938 688.326L430.056 729.098V681.444ZM430.056 681.444H477.716V729.098H430.056V681.444Z" stroke="black" stroke-width="0.286041" stroke-miterlimit="22.9256"/>
<path d="M430.056 681.444H477.716V729.098H430.056V681.444Z" stroke="black" stroke-width="0.286041" stroke-miterlimit="22.9256"/>
</g>
<defs>
<clipPath id="clip0_9_6326">
<rect width="519.141" height="756.087" fill="white" transform="translate(0.5 0.5)"/>
</clipPath>
</defs>
</svg>
