<svg width="924" height="798" viewBox="0 0 924 798" fill="none" xmlns="http://www.w3.org/2000/svg">
<g clip-path="url(#clip0_9_7838)">
<path d="M123.834 222.325H0.979492V361.597H123.834V222.325Z" fill="#D7EBD2" stroke="#2B2A29" stroke-width="0.754456" stroke-miterlimit="22.9256"/>
<path d="M14.7437 35.3965H89.9427H14.7437Z" stroke="#D7EBD2" stroke-width="0.287061" stroke-miterlimit="22.9256"/>
<path d="M286.933 368.479H280.047H286.933Z" stroke="#D7EBD2" stroke-width="0.287061" stroke-miterlimit="22.9256"/>
<path d="M150.84 368.479H280.047" stroke="#D7EBD2" stroke-width="0.287061" stroke-miterlimit="22.9256"/>
<path d="M205.382 368.479H150.84H280.047H205.382Z" stroke="#D7EBD2" stroke-width="0.287061" stroke-miterlimit="22.9256"/>
<path d="M286.933 396.019H214.914H286.933Z" stroke="#D7EBD2" stroke-width="0.287061" stroke-miterlimit="22.9256"/>
<path d="M214.914 396.019H205.382H286.933H214.914Z" stroke="#D7EBD2" stroke-width="0.287061" stroke-miterlimit="22.9256"/>
<path d="M214.914 396.019H205.382H355.242H214.914Z" stroke="#D7EBD2" stroke-width="0.287061" stroke-miterlimit="22.9256"/>
<path d="M214.914 396.019H355.242H214.914Z" stroke="#D7EBD2" stroke-width="0.287061" stroke-miterlimit="22.9256"/>
<path d="M150.84 396.019H205.382" stroke="#D7EBD2" stroke-width="0.287061" stroke-miterlimit="22.9256"/>
<path d="M589.83 783.643H361.598V396.019H463.799V389.133H351.536V396.019H355.242V783.643H133.892V681.442H157.722V640.668H150.84V396.019H290.639V389.133H286.933V348.359H280.047V389.133H150.84V246.154H157.722V239.272H280.047V300.7H286.933V239.272L382.933 239.302L382.252 212.267H157.722V205.381H116.949V208.561H14.7437V14.7464H443.676V239.272H450.031V14.7464H800.592V0.978516H868.902V14.7464H909.675V110.062H780.468V205.381H566V246.154H593.006V389.133H545.35V396.019H593.006V642.255H566V683.028H589.83V783.643Z" fill="#D7EBD2" stroke="#D7EBD2" stroke-width="0.95319" stroke-miterlimit="10" stroke-linecap="round"/>
<path d="M127.01 661.318H133.892" stroke="#FF0000" stroke-width="0.287061" stroke-miterlimit="22.9256"/>
<path d="M137.069 657.612V663.968" stroke="#FF0000" stroke-width="0.287061" stroke-miterlimit="22.9256"/>
<path d="M586.124 648.61V655.496" stroke="#FF0000" stroke-width="0.287061" stroke-miterlimit="22.9256"/>
<path d="M0.979492 0.978516V222.325" stroke="black" stroke-width="0.287061" stroke-miterlimit="22.9256"/>
<path d="M127.01 225.504H133.892" stroke="#FF0000" stroke-width="0.287061" stroke-miterlimit="22.9256"/>
<path d="M120.125 678.263V797.412H178.376" stroke="black" stroke-width="0.287061" stroke-miterlimit="22.9256"/>
<path d="M303.877 797.411H419.846" stroke="black" stroke-width="0.287061" stroke-miterlimit="22.9256"/>
<path d="M133.892 678.263V783.644H178.376" stroke="black" stroke-width="0.287061" stroke-miterlimit="22.9256"/>
<path d="M303.877 783.644H355.242" stroke="black" stroke-width="0.287061" stroke-miterlimit="22.9256"/>
<path d="M361.598 783.644H419.846" stroke="black" stroke-width="0.287061" stroke-miterlimit="22.9256"/>
<path d="M542.171 797.411H599.892" stroke="black" stroke-width="0.287061" stroke-miterlimit="22.9256"/>
<path d="M14.7437 14.7463V222.325" stroke="black" stroke-width="0.287061" stroke-miterlimit="22.9256"/>
<path d="M123.831 208.561H14.7437" stroke="#00BFFF" stroke-width="0.287061" stroke-miterlimit="22.9256"/>
<path d="M123.831 222.325H14.7437" stroke="#00BFFF" stroke-width="0.287061" stroke-miterlimit="22.9256"/>
<path d="M14.7437 222.325H0.979492" stroke="black" stroke-width="0.287061" stroke-miterlimit="22.9256"/>
<path d="M123.831 215.442H14.7437" stroke="#00BFFF" stroke-width="0.287061" stroke-miterlimit="22.9256"/>
<path d="M181.552 783.644V797.412" stroke="black" stroke-width="0.287061" stroke-miterlimit="22.9256"/>
<path d="M303.877 783.644V797.412" stroke="black" stroke-width="0.287061" stroke-miterlimit="22.9256"/>
<path d="M419.846 783.644V797.412" stroke="black" stroke-width="0.287061" stroke-miterlimit="22.9256"/>
<path d="M542.171 783.644V797.412" stroke="black" stroke-width="0.287061" stroke-miterlimit="22.9256"/>
<path d="M542.171 783.644H419.846" stroke="#00BFFF" stroke-width="0.287061" stroke-miterlimit="22.9256"/>
<path d="M419.846 790.529H542.171" stroke="#00BFFF" stroke-width="0.287061" stroke-miterlimit="22.9256"/>
<path d="M542.171 797.411H419.846" stroke="#00BFFF" stroke-width="0.287061" stroke-miterlimit="22.9256"/>
<path d="M303.877 783.644H181.552" stroke="#00BFFF" stroke-width="0.287061" stroke-miterlimit="22.9256"/>
<path d="M181.552 790.529H303.877" stroke="#00BFFF" stroke-width="0.287061" stroke-miterlimit="22.9256"/>
<path d="M303.877 797.411H181.552" stroke="#00BFFF" stroke-width="0.287061" stroke-miterlimit="22.9256"/>
<path d="M542.171 783.644H582.948" stroke="black" stroke-width="0.287061" stroke-miterlimit="22.9256"/>
<path d="M780.468 14.7463H603.598" stroke="black" stroke-width="0.287061" stroke-miterlimit="22.9256"/>
<path d="M443.676 14.7463H14.7437" stroke="black" stroke-width="0.287061" stroke-miterlimit="22.9256"/>
<path d="M922.917 0.978516H0.979492" stroke="black" stroke-width="0.287061" stroke-miterlimit="22.9256"/>
<path d="M120.125 678.263V797.412H181.552" stroke="black" stroke-width="0.287061" stroke-miterlimit="22.9256"/>
<path d="M303.877 797.411H419.846" stroke="black" stroke-width="0.287061" stroke-miterlimit="22.9256"/>
<path d="M603.598 756.107H606.778" stroke="black" stroke-width="0.287061" stroke-miterlimit="22.9256"/>
<path d="M133.892 678.263V783.644H181.552" stroke="black" stroke-width="0.287061" stroke-miterlimit="22.9256"/>
<path d="M303.877 783.644H355.242" stroke="black" stroke-width="0.287061" stroke-miterlimit="22.9256"/>
<path d="M361.598 783.644H419.846" stroke="black" stroke-width="0.287061" stroke-miterlimit="22.9256"/>
<path d="M542.171 797.411H603.598V756.107" stroke="black" stroke-width="0.287061" stroke-miterlimit="22.9256"/>
<path d="M589.83 742.87V683.028" stroke="black" stroke-width="0.287061" stroke-miterlimit="22.9256"/>
<path d="M14.7437 14.7463V222.325" stroke="black" stroke-width="0.287061" stroke-miterlimit="22.9256"/>
<path d="M120.125 208.561H14.7437" stroke="#00BFFF" stroke-width="0.287061" stroke-miterlimit="22.9256"/>
<path d="M120.125 222.325H14.7437" stroke="#00BFFF" stroke-width="0.287061" stroke-miterlimit="22.9256"/>
<path d="M14.7437 222.325H0.979492" stroke="black" stroke-width="0.287061" stroke-miterlimit="22.9256"/>
<path d="M120.125 215.442H14.7437" stroke="#00BFFF" stroke-width="0.287061" stroke-miterlimit="22.9256"/>
<path d="M793.706 218.619H606.778H729.103" stroke="black" stroke-width="0.287061" stroke-miterlimit="22.9256"/>
<path d="M593.006 396.019H545.35" stroke="black" stroke-width="0.287061" stroke-miterlimit="22.9256"/>
<path d="M463.799 396.019H361.598" stroke="black" stroke-width="0.287061" stroke-miterlimit="22.9256"/>
<path d="M780.468 205.381H606.778" stroke="black" stroke-width="0.287061" stroke-miterlimit="22.9256"/>
<path d="M593.006 389.133H545.35" stroke="black" stroke-width="0.287061" stroke-miterlimit="22.9256"/>
<path d="M463.799 389.133H355.242" stroke="black" stroke-width="0.287061" stroke-miterlimit="22.9256"/>
<path d="M593.006 246.154V389.133V382.251" stroke="black" stroke-width="0.287061" stroke-miterlimit="22.9256"/>
<path d="M593.006 396.019V642.254" stroke="black" stroke-width="0.287061" stroke-miterlimit="22.9256"/>
<path d="M606.778 246.154V382.251" stroke="black" stroke-width="0.287061" stroke-miterlimit="22.9256"/>
<path d="M606.778 382.251V642.255" stroke="black" stroke-width="0.287061" stroke-miterlimit="22.9256"/>
<path d="M606.778 683.028V756.107" stroke="black" stroke-width="0.287061" stroke-miterlimit="22.9256"/>
<path d="M780.468 14.7463H450.031H596.716" stroke="black" stroke-width="0.287061" stroke-miterlimit="22.9256"/>
<path d="M545.35 396.019V389.133" stroke="black" stroke-width="0.287061" stroke-miterlimit="22.9256"/>
<path d="M463.799 396.019V389.133" stroke="black" stroke-width="0.287061" stroke-miterlimit="22.9256"/>
<path d="M443.676 14.7463V147.659" stroke="black" stroke-width="0.287061" stroke-miterlimit="22.9256"/>
<path d="M450.031 14.7463V133.891" stroke="black" stroke-width="0.287061" stroke-miterlimit="22.9256"/>
<path d="M450.031 140.777V147.659" stroke="black" stroke-width="0.287061" stroke-miterlimit="22.9256"/>
<path d="M181.552 783.644V797.412" stroke="black" stroke-width="0.287061" stroke-miterlimit="22.9256"/>
<path d="M303.877 783.644V797.412" stroke="black" stroke-width="0.287061" stroke-miterlimit="22.9256"/>
<path d="M419.846 783.644V797.412" stroke="black" stroke-width="0.287061" stroke-miterlimit="22.9256"/>
<path d="M542.171 783.644V797.412" stroke="black" stroke-width="0.287061" stroke-miterlimit="22.9256"/>
<path d="M542.171 783.644H419.846" stroke="#00BFFF" stroke-width="0.287061" stroke-miterlimit="22.9256"/>
<path d="M419.846 790.529H542.171" stroke="#00BFFF" stroke-width="0.287061" stroke-miterlimit="22.9256"/>
<path d="M542.171 797.411H419.846" stroke="#00BFFF" stroke-width="0.287061" stroke-miterlimit="22.9256"/>
<path d="M303.877 783.644H181.552" stroke="#00BFFF" stroke-width="0.287061" stroke-miterlimit="22.9256"/>
<path d="M181.552 790.529H303.877" stroke="#00BFFF" stroke-width="0.287061" stroke-miterlimit="22.9256"/>
<path d="M303.877 797.411H181.552" stroke="#00BFFF" stroke-width="0.287061" stroke-miterlimit="22.9256"/>
<path d="M219.15 212.267H213.854" stroke="#008AB8" stroke-width="0.287061" stroke-miterlimit="22.9256"/>
<path d="M217.56 212.267H213.854" stroke="#008AB8" stroke-width="0.287061" stroke-miterlimit="22.9256"/>
<path d="M191.614 239.272H196.91" stroke="#008AB8" stroke-width="0.287061" stroke-miterlimit="22.9256"/>
<path d="M191.614 396.019H196.91" stroke="#008AB8" stroke-width="0.287061" stroke-miterlimit="22.9256"/>
<path d="M542.171 783.644H589.83" stroke="black" stroke-width="0.287061" stroke-miterlimit="22.9256"/>
<path d="M443.676 115.358V58.6963" stroke="#008AB8" stroke-width="0.287061" stroke-miterlimit="22.9256"/>
<path d="M361.598 783.643V396.019" stroke="black" stroke-width="0.287061" stroke-miterlimit="22.9256"/>
<path d="M355.242 783.643V396.019" stroke="black" stroke-width="0.287061" stroke-miterlimit="22.9256"/>
<path d="M150.84 595.655V598.305" stroke="#008AB8" stroke-width="0.287061" stroke-miterlimit="22.9256"/>
<path d="M443.146 493.454H436.264V513.578" stroke="black" stroke-width="0.287061" stroke-miterlimit="22.9256"/>
<path d="M448.972 493.454H451.091L452.678 494.514L453.737 496.1L454.267 498.22L454.797 501.396V506.162L454.267 508.812L453.737 510.928L452.678 513.048L451.091 513.578H448.972L447.912 513.048L446.855 510.928L445.795 508.812L445.266 506.162V501.396L445.795 498.22L446.855 496.1L447.912 494.514L448.972 493.454Z" stroke="black" stroke-width="0.287061" stroke-miterlimit="22.9256"/>
<path d="M466.975 498.22L466.449 496.1L465.919 495.57L465.389 494.514L464.329 493.454H461.683L460.623 494.514L460.093 495.57L459.563 496.1L459.033 498.22L458.503 501.396V506.162L459.033 508.812L459.563 510.928L460.623 513.048L461.683 513.578H464.329L465.389 513.048L466.449 510.928L466.975 508.812" stroke="black" stroke-width="0.287061" stroke-miterlimit="22.9256"/>
<path d="M472.801 493.454V513.578" stroke="black" stroke-width="0.287061" stroke-miterlimit="22.9256"/>
<path d="M468.565 493.454H477.037" stroke="black" stroke-width="0.287061" stroke-miterlimit="22.9256"/>
<path d="M479.687 493.454V513.578L488.159 493.454V513.578" stroke="black" stroke-width="0.287061" stroke-miterlimit="22.9256"/>
<path d="M492.925 493.454V513.578" stroke="black" stroke-width="0.287061" stroke-miterlimit="22.9256"/>
<path d="M492.925 502.986H500.867" stroke="black" stroke-width="0.287061" stroke-miterlimit="22.9256"/>
<path d="M500.867 513.578V493.454" stroke="black" stroke-width="0.287061" stroke-miterlimit="22.9256"/>
<path d="M505.633 507.222H511.459" stroke="black" stroke-width="0.287061" stroke-miterlimit="22.9256"/>
<path d="M503.517 513.578L508.283 493.454L513.049 513.578" stroke="black" stroke-width="0.287061" stroke-miterlimit="22.9256"/>
<path d="M514.635 513.578L518.871 502.986" stroke="black" stroke-width="0.287061" stroke-miterlimit="22.9256"/>
<path d="M523.107 513.578V493.454H517.815L516.225 494.514L515.165 495.57L514.635 497.16V499.28L515.165 501.396L516.225 501.926L517.815 502.986H523.107" stroke="black" stroke-width="0.287061" stroke-miterlimit="22.9256"/>
<path d="M445.266 531.052L446.325 530.522L447.912 527.346V547.996" stroke="black" stroke-width="0.287061" stroke-miterlimit="22.9256"/>
<path d="M462.209 534.228L461.683 537.408L460.093 538.994L458.503 540.054H457.973L456.387 538.994L455.327 537.408L454.267 534.228V533.172L455.327 530.522L456.387 528.406L457.973 527.346H458.503L460.093 528.406L461.683 530.522L462.209 534.228ZM462.209 534.228V538.994L461.683 543.76L460.093 546.939L458.503 547.996H457.444L455.857 546.939L455.327 544.82" stroke="black" stroke-width="0.287061" stroke-miterlimit="22.9256"/>
<path d="M467.505 546.939L466.975 547.996L465.919 546.939L466.975 545.879L467.505 546.939ZM467.505 546.939V549.055L466.975 550.645L465.919 551.705" stroke="black" stroke-width="0.287061" stroke-miterlimit="22.9256"/>
<path d="M475.447 527.346L473.861 528.406L472.801 531.052L471.741 536.348V538.994L472.801 543.76L473.861 546.939L475.447 547.996H476.507L478.627 546.939L479.687 543.76L480.213 538.994V536.348L479.687 531.052L478.627 528.406L476.507 527.346H475.447Z" stroke="black" stroke-width="0.287061" stroke-miterlimit="22.9256"/>
<path d="M490.805 530.522L490.279 528.406L488.159 527.346H487.099L485.513 528.406L484.453 531.052L483.393 536.348V541.114L484.453 544.82L485.513 546.939L487.099 547.996H487.629L489.219 546.939L490.805 544.82L491.335 542.173V541.114L490.805 537.934L489.219 536.348L487.629 535.288H487.099L485.513 536.348L484.453 537.934L483.393 541.114" stroke="black" stroke-width="0.287061" stroke-miterlimit="22.9256"/>
<path d="M505.633 547.995V534.228L501.927 544.819L497.691 534.228V547.995" stroke="black" stroke-width="0.287061" stroke-miterlimit="22.9256"/>
<path d="M508.809 532.112V531.052L509.339 529.462L509.869 528.406L510.929 527.346H513.575L514.635 528.406L515.165 529.462L515.695 531.052V533.172L515.165 535.288L514.105 537.934L508.283 547.996H516.225" stroke="black" stroke-width="0.287061" stroke-miterlimit="22.9256"/>
<path d="M222.856 491.864L222.326 490.278L221.799 489.218L221.269 488.158L220.21 487.098H218.09L216.504 488.158L215.974 489.218L215.444 490.278L214.914 491.864L214.384 495.044V499.81L214.914 502.456L215.444 504.576L216.504 506.692L218.09 507.752H220.21L221.269 506.692L222.326 504.576L222.856 502.456" stroke="black" stroke-width="0.287061" stroke-miterlimit="22.9256"/>
<path d="M226.565 507.752V487.098H234.507V507.752" stroke="black" stroke-width="0.287061" stroke-miterlimit="22.9256"/>
<path d="M239.273 500.866H245.096" stroke="black" stroke-width="0.287061" stroke-miterlimit="22.9256"/>
<path d="M237.683 507.752L242.449 487.098L247.215 507.752" stroke="black" stroke-width="0.287061" stroke-miterlimit="22.9256"/>
<path d="M256.747 507.752V487.098H250.395V503.516L249.861 505.632L249.335 506.692L248.275 507.752" stroke="black" stroke-width="0.287061" stroke-miterlimit="22.9256"/>
<path d="M261.513 487.098V507.752H267.339L268.399 506.692L268.925 505.632L269.985 503.516V499.81L268.925 497.69L268.399 496.63L267.339 496.1H261.513" stroke="black" stroke-width="0.287061" stroke-miterlimit="22.9256"/>
<path d="M273.165 487.098V507.752" stroke="black" stroke-width="0.287061" stroke-miterlimit="22.9256"/>
<path d="M273.165 496.63H281.637" stroke="black" stroke-width="0.287061" stroke-miterlimit="22.9256"/>
<path d="M281.637 507.752V487.098" stroke="black" stroke-width="0.287061" stroke-miterlimit="22.9256"/>
<path d="M284.813 507.752L289.049 496.63" stroke="black" stroke-width="0.287061" stroke-miterlimit="22.9256"/>
<path d="M293.285 507.752V487.098H287.989L285.873 488.158L285.343 489.218L284.813 490.804V492.924L285.343 495.044L285.873 496.1L287.989 496.63H293.285" stroke="black" stroke-width="0.287061" stroke-miterlimit="22.9256"/>
<path d="M220.21 525.226L221.799 524.166L223.386 520.99V541.643" stroke="black" stroke-width="0.287061" stroke-miterlimit="22.9256"/>
<path d="M229.741 520.99H237.683L231.858 541.643" stroke="black" stroke-width="0.287061" stroke-miterlimit="22.9256"/>
<path d="M242.449 540.583L241.919 541.643L241.39 540.583L241.919 539.523L242.449 540.583ZM242.449 540.583V542.7L241.919 544.289L241.39 545.349" stroke="black" stroke-width="0.287061" stroke-miterlimit="22.9256"/>
<path d="M253.041 541.643V520.99L247.215 534.758H256.217" stroke="black" stroke-width="0.287061" stroke-miterlimit="22.9256"/>
<path d="M258.867 525.226L259.923 524.166L262.043 520.99V541.643" stroke="black" stroke-width="0.287061" stroke-miterlimit="22.9256"/>
<path d="M278.987 541.643V527.875L274.751 538.464L270.515 527.875V541.643" stroke="black" stroke-width="0.287061" stroke-miterlimit="22.9256"/>
<path d="M281.637 525.756V525.226L282.167 523.11L282.697 522.05L283.753 520.99H286.403L287.463 522.05L287.989 523.11L288.519 525.226V526.816L287.989 528.932L286.933 531.582L281.107 541.643H289.049" stroke="black" stroke-width="0.287061" stroke-miterlimit="22.9256"/>
<path d="M123.831 271.574L150.84 244.568" stroke="#FF0000" stroke-width="0.287061" stroke-miterlimit="22.9256"/>
<path d="M123.831 302.29L150.84 275.28" stroke="#FF0000" stroke-width="0.287061" stroke-miterlimit="22.9256"/>
<path d="M123.831 333.002L150.84 305.466" stroke="#FF0000" stroke-width="0.287061" stroke-miterlimit="22.9256"/>
<path d="M123.831 363.187L150.84 336.178" stroke="#FF0000" stroke-width="0.287061" stroke-miterlimit="22.9256"/>
<path d="M123.831 393.899L150.84 366.893" stroke="#FF0000" stroke-width="0.287061" stroke-miterlimit="22.9256"/>
<path d="M123.831 424.615L150.84 397.075" stroke="#FF0000" stroke-width="0.287061" stroke-miterlimit="22.9256"/>
<path d="M123.831 454.796L150.84 427.791" stroke="#FF0000" stroke-width="0.287061" stroke-miterlimit="22.9256"/>
<path d="M123.831 485.512L150.84 458.502" stroke="#FF0000" stroke-width="0.287061" stroke-miterlimit="22.9256"/>
<path d="M123.831 516.224L150.84 488.688" stroke="#FF0000" stroke-width="0.287061" stroke-miterlimit="22.9256"/>
<path d="M123.831 546.409L150.84 519.4" stroke="#FF0000" stroke-width="0.287061" stroke-miterlimit="22.9256"/>
<path d="M123.831 577.121L150.84 550.115" stroke="#FF0000" stroke-width="0.287061" stroke-miterlimit="22.9256"/>
<path d="M123.831 607.837L150.84 580.301" stroke="#FF0000" stroke-width="0.287061" stroke-miterlimit="22.9256"/>
<path d="M123.831 638.019L150.84 611.013" stroke="#FF0000" stroke-width="0.287061" stroke-miterlimit="22.9256"/>
<path d="M148.19 643.844L150.84 641.725" stroke="#FF0000" stroke-width="0.287061" stroke-miterlimit="22.9256"/>
<path d="M123.831 256.216L131.776 248.274" stroke="#FF0000" stroke-width="0.287061" stroke-miterlimit="22.9256"/>
<path d="M136.542 244.565C136.542 243.983 136.067 243.505 135.482 243.505C134.897 243.505 134.422 243.983 134.422 244.565C134.422 245.15 134.897 245.625 135.482 245.625C136.064 245.625 136.542 245.15 136.542 244.565Z" fill="#FF0000"/>
<path d="M135.482 244.565H136.542M136.542 244.565C136.542 243.983 136.067 243.505 135.482 243.505C134.897 243.505 134.422 243.983 134.422 244.565C134.422 245.15 134.897 245.625 135.482 245.625C136.064 245.625 136.542 245.15 136.542 244.565Z" stroke="black" stroke-width="0.287061" stroke-miterlimit="22.9256"/>
<path d="M124.894 286.402C124.894 285.82 124.416 285.342 123.834 285.342C123.249 285.342 122.774 285.82 122.774 286.402C122.774 286.987 123.249 287.462 123.834 287.462C124.416 287.462 124.894 286.987 124.894 286.402Z" fill="#FF0000"/>
<path d="M123.834 286.402H124.894M124.894 286.402C124.894 285.82 124.416 285.342 123.834 285.342C123.249 285.342 122.774 285.82 122.774 286.402C122.774 286.987 123.249 287.462 123.834 287.462C124.416 287.462 124.894 286.987 124.894 286.402Z" stroke="black" stroke-width="0.287061" stroke-miterlimit="22.9256"/>
<path d="M128.07 282.696L147.13 263.632" stroke="#FF0000" stroke-width="0.287061" stroke-miterlimit="22.9256"/>
<path d="M151.9 259.922C151.9 259.341 151.422 258.862 150.84 258.862C150.255 258.862 149.78 259.341 149.78 259.922C149.78 260.507 150.255 260.982 150.84 260.982C151.422 260.982 151.9 260.507 151.9 259.922Z" fill="#FF0000"/>
<path d="M150.84 259.922H151.9M151.9 259.922C151.9 259.341 151.422 258.862 150.84 258.862C150.255 258.862 149.78 259.341 149.78 259.922C149.78 260.507 150.255 260.982 150.84 260.982C151.422 260.982 151.9 260.507 151.9 259.922Z" stroke="black" stroke-width="0.287061" stroke-miterlimit="22.9256"/>
<path d="M123.831 317.644L135.482 305.466" stroke="#FF0000" stroke-width="0.287061" stroke-miterlimit="22.9256"/>
<path d="M140.248 301.756C140.248 301.175 139.77 300.696 139.188 300.696C138.603 300.696 138.128 301.175 138.128 301.756C138.128 302.341 138.603 302.816 139.188 302.816C139.77 302.816 140.248 302.341 140.248 301.756Z" fill="#FF0000"/>
<path d="M139.188 301.756H140.248M140.248 301.756C140.248 301.175 139.77 300.696 139.188 300.696C138.603 300.696 138.128 301.175 138.128 301.756C138.128 302.341 138.603 302.816 139.188 302.816C139.77 302.816 140.248 302.341 140.248 301.756Z" stroke="black" stroke-width="0.287061" stroke-miterlimit="22.9256"/>
<path d="M142.894 298.05L150.84 290.108" stroke="#FF0000" stroke-width="0.287061" stroke-miterlimit="22.9256"/>
<path d="M124.894 347.826C124.894 347.244 124.416 346.766 123.834 346.766C123.249 346.766 122.774 347.244 122.774 347.826C122.774 348.411 123.249 348.885 123.834 348.885C124.416 348.885 124.894 348.411 124.894 347.826Z" fill="#FF0000"/>
<path d="M123.834 347.826H124.894M124.894 347.826C124.894 347.244 124.416 346.766 123.834 346.766C123.249 346.766 122.774 347.244 122.774 347.826C122.774 348.411 123.249 348.885 123.834 348.885C124.416 348.885 124.894 348.411 124.894 347.826Z" stroke="black" stroke-width="0.287061" stroke-miterlimit="22.9256"/>
<path d="M129.13 344.119C129.13 343.538 128.652 343.06 128.07 343.06C127.485 343.06 127.01 343.538 127.01 344.119C127.01 344.705 127.485 345.179 128.07 345.179C128.652 345.179 129.13 344.705 129.13 344.119Z" fill="#FF0000"/>
<path d="M128.07 344.119H129.13M129.13 344.119C129.13 343.538 128.652 343.06 128.07 343.06C127.485 343.06 127.01 343.538 127.01 344.119C127.01 344.705 127.485 345.179 128.07 345.179C128.652 345.179 129.13 344.705 129.13 344.119Z" stroke="black" stroke-width="0.287061" stroke-miterlimit="22.9256"/>
<path d="M131.776 339.884L150.84 320.82" stroke="#FF0000" stroke-width="0.287061" stroke-miterlimit="22.9256"/>
<path d="M123.831 378.541L139.188 363.187" stroke="#FF0000" stroke-width="0.287061" stroke-miterlimit="22.9256"/>
<path d="M143.958 358.948C143.958 358.366 143.48 357.888 142.898 357.888C142.313 357.888 141.838 358.366 141.838 358.948C141.838 359.533 142.313 360.008 142.898 360.008C143.48 360.008 143.958 359.533 143.958 358.948Z" fill="#FF0000"/>
<path d="M142.898 358.948H143.958M143.958 358.948C143.958 358.366 143.48 357.888 142.898 357.888C142.313 357.888 141.838 358.366 141.838 358.948C141.838 359.533 142.313 360.008 142.898 360.008C143.48 360.008 143.958 359.533 143.958 358.948Z" stroke="black" stroke-width="0.287061" stroke-miterlimit="22.9256"/>
<path d="M147.13 355.241L150.84 351.535" stroke="#FF0000" stroke-width="0.287061" stroke-miterlimit="22.9256"/>
<path d="M123.831 409.257L128.07 405.021" stroke="#FF0000" stroke-width="0.287061" stroke-miterlimit="22.9256"/>
<path d="M132.836 401.311C132.836 400.729 132.358 400.251 131.776 400.251C131.191 400.251 130.716 400.729 130.716 401.311C130.716 401.896 131.191 402.371 131.776 402.371C132.358 402.371 132.836 401.896 132.836 401.311Z" fill="#FF0000"/>
<path d="M131.776 401.311H132.836M132.836 401.311C132.836 400.729 132.358 400.251 131.776 400.251C131.191 400.251 130.716 400.729 130.716 401.311C130.716 401.896 131.191 402.371 131.776 402.371C132.358 402.371 132.836 401.896 132.836 401.311Z" stroke="black" stroke-width="0.287061" stroke-miterlimit="22.9256"/>
<path d="M135.482 397.605L150.84 381.721" stroke="#FF0000" stroke-width="0.287061" stroke-miterlimit="22.9256"/>
<path d="M123.831 439.439L142.894 420.375" stroke="#FF0000" stroke-width="0.287061" stroke-miterlimit="22.9256"/>
<path d="M148.194 416.669C148.194 416.087 147.716 415.609 147.134 415.609C146.549 415.609 146.074 416.087 146.074 416.669C146.074 417.254 146.549 417.729 147.134 417.729C147.716 417.729 148.194 417.254 148.194 416.669Z" fill="#FF0000"/>
<path d="M147.134 416.669H148.194M148.194 416.669C148.194 416.087 147.716 415.609 147.134 415.609C146.549 415.609 146.074 416.087 146.074 416.669C146.074 417.254 146.549 417.729 147.134 417.729C147.716 417.729 148.194 417.254 148.194 416.669Z" stroke="black" stroke-width="0.287061" stroke-miterlimit="22.9256"/>
<path d="M151.9 412.433C151.9 411.851 151.422 411.373 150.84 411.373C150.255 411.373 149.78 411.851 149.78 412.433C149.78 413.018 150.255 413.493 150.84 413.493C151.422 413.493 151.9 413.018 151.9 412.433Z" fill="#FF0000"/>
<path d="M150.84 412.433H151.9M151.9 412.433C151.9 411.851 151.422 411.373 150.84 411.373C150.255 411.373 149.78 411.851 149.78 412.433C149.78 413.018 150.255 413.493 150.84 413.493C151.422 413.493 151.9 413.018 151.9 412.433Z" stroke="black" stroke-width="0.287061" stroke-miterlimit="22.9256"/>
<path d="M123.831 470.154L131.776 462.208" stroke="#FF0000" stroke-width="0.287061" stroke-miterlimit="22.9256"/>
<path d="M136.542 458.502C136.542 457.921 136.067 457.442 135.482 457.442C134.897 457.442 134.422 457.921 134.422 458.502C134.422 459.087 134.897 459.562 135.482 459.562C136.064 459.562 136.542 459.087 136.542 458.502Z" fill="#FF0000"/>
<path d="M135.482 458.502H136.542M136.542 458.502C136.542 457.921 136.067 457.442 135.482 457.442C134.897 457.442 134.422 457.921 134.422 458.502C134.422 459.087 134.897 459.562 135.482 459.562C136.064 459.562 136.542 459.087 136.542 458.502Z" stroke="black" stroke-width="0.287061" stroke-miterlimit="22.9256"/>
<path d="M139.188 454.796L150.84 443.145" stroke="#FF0000" stroke-width="0.287061" stroke-miterlimit="22.9256"/>
<path d="M124.894 500.336C124.894 499.755 124.416 499.276 123.834 499.276C123.249 499.276 122.774 499.755 122.774 500.336C122.774 500.921 123.249 501.396 123.834 501.396C124.416 501.396 124.894 500.921 124.894 500.336Z" fill="#FF0000"/>
<path d="M123.834 500.336H124.894M124.894 500.336C124.894 499.755 124.416 499.276 123.834 499.276C123.249 499.276 122.774 499.755 122.774 500.336C122.774 500.921 123.249 501.396 123.834 501.396C124.416 501.396 124.894 500.921 124.894 500.336Z" stroke="black" stroke-width="0.287061" stroke-miterlimit="22.9256"/>
<path d="M128.07 496.63L147.13 477.566" stroke="#FF0000" stroke-width="0.287061" stroke-miterlimit="22.9256"/>
<path d="M151.9 473.86C151.9 473.279 151.422 472.8 150.84 472.8C150.255 472.8 149.78 473.279 149.78 473.86C149.78 474.445 150.255 474.92 150.84 474.92C151.422 474.92 151.9 474.445 151.9 473.86Z" fill="#FF0000"/>
<path d="M150.84 473.86H151.9M151.9 473.86C151.9 473.279 151.422 472.8 150.84 472.8C150.255 472.8 149.78 473.279 149.78 473.86C149.78 474.445 150.255 474.92 150.84 474.92C151.422 474.92 151.9 474.445 151.9 473.86Z" stroke="black" stroke-width="0.287061" stroke-miterlimit="22.9256"/>
<path d="M123.831 531.582L135.482 519.4" stroke="#FF0000" stroke-width="0.287061" stroke-miterlimit="22.9256"/>
<path d="M140.248 515.694C140.248 515.112 139.77 514.634 139.188 514.634C138.603 514.634 138.128 515.112 138.128 515.694C138.128 516.279 138.603 516.754 139.188 516.754C139.77 516.754 140.248 516.279 140.248 515.694Z" fill="#FF0000"/>
<path d="M139.188 515.694H140.248M140.248 515.694C140.248 515.112 139.77 514.634 139.188 514.634C138.603 514.634 138.128 515.112 138.128 515.694C138.128 516.279 138.603 516.754 139.188 516.754C139.77 516.754 140.248 516.279 140.248 515.694Z" stroke="black" stroke-width="0.287061" stroke-miterlimit="22.9256"/>
<path d="M142.894 511.988L150.84 504.046" stroke="#FF0000" stroke-width="0.287061" stroke-miterlimit="22.9256"/>
<path d="M124.894 561.764C124.894 561.182 124.416 560.704 123.834 560.704C123.249 560.704 122.774 561.182 122.774 561.764C122.774 562.349 123.249 562.823 123.834 562.823C124.416 562.823 124.894 562.349 124.894 561.764Z" fill="#FF0000"/>
<path d="M123.834 561.764H124.894M124.894 561.764C124.894 561.182 124.416 560.704 123.834 560.704C123.249 560.704 122.774 561.182 122.774 561.764C122.774 562.349 123.249 562.823 123.834 562.823C124.416 562.823 124.894 562.349 124.894 561.764Z" stroke="black" stroke-width="0.287061" stroke-miterlimit="22.9256"/>
<path d="M129.13 557.528C129.13 556.946 128.652 556.468 128.07 556.468C127.485 556.468 127.01 556.946 127.01 557.528C127.01 558.113 127.485 558.588 128.07 558.588C128.652 558.588 129.13 558.113 129.13 557.528Z" fill="#FF0000"/>
<path d="M128.07 557.528H129.13M129.13 557.528C129.13 556.946 128.652 556.468 128.07 556.468C127.485 556.468 127.01 556.946 127.01 557.528C127.01 558.113 127.485 558.588 128.07 558.588C128.652 558.588 129.13 558.113 129.13 557.528Z" stroke="black" stroke-width="0.287061" stroke-miterlimit="22.9256"/>
<path d="M131.776 553.822L150.84 534.758" stroke="#FF0000" stroke-width="0.287061" stroke-miterlimit="22.9256"/>
<path d="M123.831 592.479L139.188 576.591" stroke="#FF0000" stroke-width="0.287061" stroke-miterlimit="22.9256"/>
<path d="M143.958 572.885C143.958 572.304 143.48 571.825 142.898 571.825C142.313 571.825 141.838 572.304 141.838 572.885C141.838 573.47 142.313 573.945 142.898 573.945C143.48 573.945 143.958 573.47 143.958 572.885Z" fill="#FF0000"/>
<path d="M142.898 572.885H143.958M143.958 572.885C143.958 572.304 143.48 571.825 142.898 571.825C142.313 571.825 141.838 572.304 141.838 572.885C141.838 573.47 142.313 573.945 142.898 573.945C143.48 573.945 143.958 573.47 143.958 572.885Z" stroke="black" stroke-width="0.287061" stroke-miterlimit="22.9256"/>
<path d="M147.13 569.179L150.84 565.47" stroke="#FF0000" stroke-width="0.287061" stroke-miterlimit="22.9256"/>
<path d="M123.831 623.191L128.07 618.955" stroke="#FF0000" stroke-width="0.287061" stroke-miterlimit="22.9256"/>
<path d="M132.836 615.249C132.836 614.667 132.358 614.189 131.776 614.189C131.191 614.189 130.716 614.667 130.716 615.249C130.716 615.834 131.191 616.309 131.776 616.309C132.358 616.309 132.836 615.834 132.836 615.249Z" fill="#FF0000"/>
<path d="M131.776 615.249H132.836M132.836 615.249C132.836 614.667 132.358 614.189 131.776 614.189C131.191 614.189 130.716 614.667 130.716 615.249C130.716 615.834 131.191 616.309 131.776 616.309C132.358 616.309 132.836 615.834 132.836 615.249Z" stroke="black" stroke-width="0.287061" stroke-miterlimit="22.9256"/>
<path d="M135.482 611.013L150.84 595.655" stroke="#FF0000" stroke-width="0.287061" stroke-miterlimit="22.9256"/>
<path d="M133.363 643.844L142.894 634.312" stroke="#FF0000" stroke-width="0.287061" stroke-miterlimit="22.9256"/>
<path d="M148.194 630.077C148.194 629.495 147.716 629.017 147.134 629.017C146.549 629.017 146.074 629.495 146.074 630.077C146.074 630.662 146.549 631.136 147.134 631.136C147.716 631.136 148.194 630.662 148.194 630.077Z" fill="#FF0000"/>
<path d="M147.134 630.077H148.194M148.194 630.077C148.194 629.495 147.716 629.017 147.134 629.017C146.549 629.017 146.074 629.495 146.074 630.077C146.074 630.662 146.549 631.136 147.134 631.136C147.716 631.136 148.194 630.662 148.194 630.077Z" stroke="black" stroke-width="0.287061" stroke-miterlimit="22.9256"/>
<path d="M151.9 626.367C151.9 625.786 151.422 625.307 150.84 625.307C150.255 625.307 149.78 625.786 149.78 626.367C149.78 626.952 150.255 627.427 150.84 627.427C151.422 627.427 151.9 626.952 151.9 626.367Z" fill="#FF0000"/>
<path d="M150.84 626.367H151.9M151.9 626.367C151.9 625.786 151.422 625.307 150.84 625.307C150.255 625.307 149.78 625.786 149.78 626.367C149.78 626.952 150.255 627.427 150.84 627.427C151.422 627.427 151.9 626.952 151.9 626.367Z" stroke="black" stroke-width="0.287061" stroke-miterlimit="22.9256"/>
<path d="M150.84 242.448H123.831V643.844H150.84V242.448Z" stroke="#FF0000" stroke-width="0.287061" stroke-miterlimit="22.9256"/>
<path d="M165.664 239.272L154.546 227.621" stroke="#FF0000" stroke-width="0.287061" stroke-miterlimit="22.9256"/>
<path d="M196.38 239.272L168.844 212.267" stroke="#FF0000" stroke-width="0.287061" stroke-miterlimit="22.9256"/>
<path d="M227.092 239.272L199.556 212.267" stroke="#FF0000" stroke-width="0.287061" stroke-miterlimit="22.9256"/>
<path d="M257.277 239.272L230.271 212.267" stroke="#FF0000" stroke-width="0.287061" stroke-miterlimit="22.9256"/>
<path d="M287.989 239.272L260.983 212.267" stroke="#FF0000" stroke-width="0.287061" stroke-miterlimit="22.9256"/>
<path d="M318.705 239.272L291.169 212.267" stroke="#FF0000" stroke-width="0.287061" stroke-miterlimit="22.9256"/>
<path d="M348.89 239.272L321.881 212.267" stroke="#FF0000" stroke-width="0.287061" stroke-miterlimit="22.9256"/>
<path d="M379.602 239.272L352.596 212.267" stroke="#FF0000" stroke-width="0.287061" stroke-miterlimit="22.9256"/>
<path d="M181.022 239.272L165.664 223.915" stroke="#FF0000" stroke-width="0.287061" stroke-miterlimit="22.9256"/>
<path d="M163.022 220.208C163.022 219.627 162.543 219.148 161.962 219.148C161.377 219.148 160.902 219.623 160.902 220.208C160.902 220.794 161.377 221.268 161.962 221.268C162.543 221.268 163.022 220.794 163.022 220.208Z" fill="#FF0000"/>
<path d="M161.962 220.208H163.022M163.022 220.208C163.022 219.627 162.543 219.148 161.962 219.148C161.377 219.148 160.902 219.623 160.902 220.208C160.902 220.794 161.377 221.268 161.962 221.268C162.543 221.268 163.022 220.794 163.022 220.208Z" stroke="black" stroke-width="0.287061" stroke-miterlimit="22.9256"/>
<path d="M158.252 216.503L154.546 212.793" stroke="#FF0000" stroke-width="0.287061" stroke-miterlimit="22.9256"/>
<path d="M211.738 239.272L207.502 235.566" stroke="#FF0000" stroke-width="0.287061" stroke-miterlimit="22.9256"/>
<path d="M204.855 231.327C204.855 230.745 204.377 230.267 203.796 230.267C203.21 230.267 202.736 230.745 202.736 231.327C202.736 231.912 203.21 232.386 203.796 232.386C204.377 232.386 204.855 231.912 204.855 231.327Z" fill="#FF0000"/>
<path d="M203.796 231.327H204.855M204.855 231.327C204.855 230.745 204.377 230.267 203.796 230.267C203.21 230.267 202.736 230.745 202.736 231.327C202.736 231.912 203.21 232.386 203.796 232.386C204.377 232.386 204.855 231.912 204.855 231.327Z" stroke="black" stroke-width="0.287061" stroke-miterlimit="22.9256"/>
<path d="M200.086 227.621L184.198 212.267" stroke="#FF0000" stroke-width="0.287061" stroke-miterlimit="22.9256"/>
<path d="M241.919 239.272L222.856 220.208" stroke="#FF0000" stroke-width="0.287061" stroke-miterlimit="22.9256"/>
<path d="M220.21 216.502C220.21 215.921 219.731 215.442 219.15 215.442C218.564 215.442 218.09 215.921 218.09 216.502C218.09 217.087 218.564 217.562 219.15 217.562C219.731 217.562 220.21 217.087 220.21 216.502Z" fill="#FF0000"/>
<path d="M219.15 216.502H220.21M220.21 216.502C220.21 215.921 219.731 215.442 219.15 215.442C218.564 215.442 218.09 215.921 218.09 216.502C218.09 217.087 218.564 217.562 219.15 217.562C219.731 217.562 220.21 217.087 220.21 216.502Z" stroke="black" stroke-width="0.287061" stroke-miterlimit="22.9256"/>
<path d="M215.444 212.267H214.914" stroke="#FF0000" stroke-width="0.287061" stroke-miterlimit="22.9256"/>
<path d="M272.635 239.273L264.689 231.331" stroke="#FF0000" stroke-width="0.287061" stroke-miterlimit="22.9256"/>
<path d="M262.043 227.62C262.043 227.039 261.565 226.561 260.983 226.561C260.398 226.561 259.923 227.039 259.923 227.62C259.923 228.206 260.398 228.68 260.983 228.68C261.565 228.68 262.043 228.206 262.043 227.62Z" fill="#FF0000"/>
<path d="M260.983 227.62H262.043M262.043 227.62C262.043 227.039 261.565 226.561 260.983 226.561C260.398 226.561 259.923 227.039 259.923 227.62C259.923 228.206 260.398 228.68 260.983 228.68C261.565 228.68 262.043 228.206 262.043 227.62Z" stroke="black" stroke-width="0.287061" stroke-miterlimit="22.9256"/>
<path d="M257.277 223.915L245.629 212.267" stroke="#FF0000" stroke-width="0.287061" stroke-miterlimit="22.9256"/>
<path d="M304.407 239.272C304.407 238.691 303.928 238.212 303.347 238.212C302.762 238.212 302.287 238.691 302.287 239.272C302.287 239.857 302.762 240.332 303.347 240.332C303.928 240.332 304.407 239.857 304.407 239.272Z" fill="#FF0000"/>
<path d="M303.347 239.272H304.407M304.407 239.272C304.407 238.691 303.928 238.212 303.347 238.212C302.762 238.212 302.287 238.691 302.287 239.272C302.287 239.857 302.762 240.332 303.347 240.332C303.928 240.332 304.407 239.857 304.407 239.272Z" stroke="black" stroke-width="0.287061" stroke-miterlimit="22.9256"/>
<path d="M299.111 235.566L280.047 216.502" stroke="#FF0000" stroke-width="0.287061" stroke-miterlimit="22.9256"/>
<path d="M277.401 212.263C277.401 211.682 276.923 211.203 276.341 211.203C275.756 211.203 275.281 211.682 275.281 212.263C275.281 212.848 275.756 213.323 276.341 213.323C276.923 213.323 277.401 212.848 277.401 212.263Z" fill="#FF0000"/>
<path d="M276.341 212.263H277.401M277.401 212.263C277.401 211.682 276.923 211.203 276.341 211.203C275.756 211.203 275.281 211.682 275.281 212.263C275.281 212.848 275.756 213.323 276.341 213.323C276.923 213.323 277.401 212.848 277.401 212.263Z" stroke="black" stroke-width="0.287061" stroke-miterlimit="22.9256"/>
<path d="M333.532 239.272L322.411 227.621" stroke="#FF0000" stroke-width="0.287061" stroke-miterlimit="22.9256"/>
<path d="M319.235 223.914C319.235 223.333 318.756 222.854 318.175 222.854C317.59 222.854 317.115 223.333 317.115 223.914C317.115 224.5 317.59 224.974 318.175 224.974C318.756 224.974 319.235 224.5 319.235 223.914Z" fill="#FF0000"/>
<path d="M318.175 223.914H319.235M319.235 223.914C319.235 223.333 318.756 222.854 318.175 222.854C317.59 222.854 317.115 223.333 317.115 223.914C317.115 224.5 317.59 224.974 318.175 224.974C318.756 224.974 319.235 224.5 319.235 223.914Z" stroke="black" stroke-width="0.287061" stroke-miterlimit="22.9256"/>
<path d="M314.469 220.209L306.523 212.267" stroke="#FF0000" stroke-width="0.287061" stroke-miterlimit="22.9256"/>
<path d="M365.304 239.272C365.304 238.691 364.826 238.212 364.244 238.212C363.659 238.212 363.184 238.691 363.184 239.272C363.184 239.857 363.659 240.332 364.244 240.332C364.826 240.332 365.304 239.857 365.304 239.272Z" fill="#FF0000"/>
<path d="M364.244 239.272H365.304M365.304 239.272C365.304 238.691 364.826 238.212 364.244 238.212C363.659 238.212 363.184 238.691 363.184 239.272C363.184 239.857 363.659 240.332 364.244 240.332C364.826 240.332 365.304 239.857 365.304 239.272Z" stroke="black" stroke-width="0.287061" stroke-miterlimit="22.9256"/>
<path d="M361.598 235.566C361.598 234.985 361.12 234.506 360.538 234.506C359.953 234.506 359.478 234.985 359.478 235.566C359.478 236.151 359.953 236.626 360.538 236.626C361.12 236.626 361.598 236.151 361.598 235.566Z" fill="#FF0000"/>
<path d="M360.538 235.566H361.598M361.598 235.566C361.598 234.985 361.12 234.506 360.538 234.506C359.953 234.506 359.478 234.985 359.478 235.566C359.478 236.151 359.953 236.626 360.538 236.626C361.12 236.626 361.598 236.151 361.598 235.566Z" stroke="black" stroke-width="0.287061" stroke-miterlimit="22.9256"/>
<path d="M356.302 231.33L337.238 212.267" stroke="#FF0000" stroke-width="0.287061" stroke-miterlimit="22.9256"/>
<path d="M382.248 226.564L379.602 223.915" stroke="#FF0000" stroke-width="0.287061" stroke-miterlimit="22.9256"/>
<path d="M376.956 220.208C376.956 219.627 376.478 219.148 375.896 219.148C375.311 219.148 374.836 219.623 374.836 220.208C374.836 220.794 375.311 221.268 375.896 221.268C376.478 221.268 376.956 220.794 376.956 220.208Z" fill="#FF0000"/>
<path d="M375.896 220.208H376.956M376.956 220.208C376.956 219.627 376.478 219.148 375.896 219.148C375.311 219.148 374.836 219.623 374.836 220.208C374.836 220.794 375.311 221.268 375.896 221.268C376.478 221.268 376.956 220.794 376.956 220.208Z" stroke="black" stroke-width="0.287061" stroke-miterlimit="22.9256"/>
<path d="M371.66 216.503L367.42 212.267" stroke="#FF0000" stroke-width="0.287061" stroke-miterlimit="22.9256"/>
<path d="M382.248 239.272V212.267H154.546V239.272H282.163H382.248Z" stroke="#FF0000" stroke-width="0.287061" stroke-miterlimit="22.9256"/>
<path d="M793.706 123.83V218.619" stroke="black" stroke-width="0.287061" stroke-miterlimit="22.9256"/>
<path d="M780.468 110.062V205.381" stroke="black" stroke-width="0.287061" stroke-miterlimit="22.9256"/>
<path d="M443.676 137.071V14.7463" stroke="black" stroke-width="0.287061" stroke-miterlimit="22.9256"/>
<path d="M450.031 147.659V14.7463" stroke="black" stroke-width="0.287061" stroke-miterlimit="22.9256"/>
<path d="M450.031 239.272V140.777" stroke="black" stroke-width="0.287061" stroke-miterlimit="22.9256"/>
<path d="M443.676 239.272V14.7463" stroke="black" stroke-width="0.287061" stroke-miterlimit="22.9256"/>
<path d="M589.83 742.87V783.643" stroke="black" stroke-width="0.287061" stroke-miterlimit="22.9256"/>
<path d="M355.242 396.019H351.536" stroke="black" stroke-width="0.287061" stroke-miterlimit="22.9256"/>
<path d="M290.639 396.019H150.84" stroke="black" stroke-width="0.287061" stroke-miterlimit="22.9256"/>
<path d="M355.242 389.133H351.536" stroke="black" stroke-width="0.287061" stroke-miterlimit="22.9256"/>
<path d="M290.639 389.133H286.933" stroke="black" stroke-width="0.287061" stroke-miterlimit="22.9256"/>
<path d="M280.047 389.133H150.84" stroke="black" stroke-width="0.287061" stroke-miterlimit="22.9256"/>
<path d="M351.536 396.019V389.133" stroke="black" stroke-width="0.287061" stroke-miterlimit="22.9256"/>
<path d="M290.639 396.019V389.133" stroke="black" stroke-width="0.287061" stroke-miterlimit="22.9256"/>
<path d="M286.933 389.133V348.359" stroke="black" stroke-width="0.287061" stroke-miterlimit="22.9256"/>
<path d="M286.933 300.7V239.272" stroke="black" stroke-width="0.287061" stroke-miterlimit="22.9256"/>
<path d="M280.047 389.133V348.359" stroke="black" stroke-width="0.287061" stroke-miterlimit="22.9256"/>
<path d="M286.933 300.7H280.047V239.272" stroke="black" stroke-width="0.287061" stroke-miterlimit="22.9256"/>
<path d="M443.676 239.272H450.031V232.387V205.381" stroke="black" stroke-width="0.287061" stroke-miterlimit="22.9256"/>
<path d="M443.676 205.381V232.387" stroke="black" stroke-width="0.287061" stroke-miterlimit="22.9256"/>
<path d="M286.933 348.359H280.047" stroke="black" stroke-width="0.287061" stroke-miterlimit="22.9256"/>
<path d="M269.455 123.304L264.159 111.652" stroke="black" stroke-width="0.287061" stroke-miterlimit="22.9256"/>
<path d="M269.455 102.65L261.513 116.418" stroke="black" stroke-width="0.287061" stroke-miterlimit="22.9256"/>
<path d="M261.513 102.65V123.303" stroke="black" stroke-width="0.287061" stroke-miterlimit="22.9256"/>
<path d="M279.517 102.65L275.281 119.594L274.751 121.184L274.221 122.243L273.165 123.303H272.105" stroke="black" stroke-width="0.287061" stroke-miterlimit="22.9256"/>
<path d="M271.045 102.65L275.281 119.594" stroke="black" stroke-width="0.287061" stroke-miterlimit="22.9256"/>
<path d="M288.519 102.65L280.577 123.303" stroke="black" stroke-width="0.287061" stroke-miterlimit="22.9256"/>
<path d="M280.577 102.65L288.519 123.303" stroke="black" stroke-width="0.287061" stroke-miterlimit="22.9256"/>
<path d="M291.699 102.65V123.303" stroke="black" stroke-width="0.287061" stroke-miterlimit="22.9256"/>
<path d="M291.699 112.711H299.641" stroke="black" stroke-width="0.287061" stroke-miterlimit="22.9256"/>
<path d="M299.641 123.303V102.65" stroke="black" stroke-width="0.287061" stroke-miterlimit="22.9256"/>
<path d="M303.347 123.303L307.583 112.711" stroke="black" stroke-width="0.287061" stroke-miterlimit="22.9256"/>
<path d="M311.289 123.303V102.65H305.997L304.407 103.71L303.877 104.766L303.347 106.886V108.476L303.877 110.592L304.407 111.652L305.997 112.712H311.289" stroke="black" stroke-width="0.287061" stroke-miterlimit="22.9256"/>
<path d="M251.981 140.777L253.041 139.717L254.627 137.071V157.191" stroke="black" stroke-width="0.287061" stroke-miterlimit="22.9256"/>
<path d="M261.513 137.071H269.455L263.633 157.191" stroke="black" stroke-width="0.287061" stroke-miterlimit="22.9256"/>
<path d="M274.221 156.135L273.691 157.191L273.165 156.135L273.691 155.605L274.221 156.135ZM274.221 156.135V158.251L273.691 160.371L273.165 161.427" stroke="black" stroke-width="0.287061" stroke-miterlimit="22.9256"/>
<path d="M281.637 137.071L280.047 138.128L279.517 139.717V141.837L280.047 143.953L281.107 144.483L283.223 145.543L285.343 146.603L286.403 148.719L286.933 150.309V153.485L286.403 155.605L285.873 156.135L283.753 157.191H281.637L280.047 156.135L279.517 155.605L278.987 153.485V150.309L279.517 148.719L280.577 146.603L282.167 145.543L284.813 144.483L285.873 143.953L286.403 141.837V139.717L285.873 138.128L283.753 137.071H281.637Z" stroke="black" stroke-width="0.287061" stroke-miterlimit="22.9256"/>
<path d="M293.815 137.071L292.229 138.128L291.169 140.777L290.639 145.543V148.719L291.169 153.485L292.229 156.135L293.815 157.191H294.875L296.995 156.135L298.051 153.485L298.581 148.719V145.543L298.051 140.777L296.995 138.128L294.875 137.071H293.815Z" stroke="black" stroke-width="0.287061" stroke-miterlimit="22.9256"/>
<path d="M312.349 157.191V143.953L308.643 154.545L304.407 143.953V157.191" stroke="black" stroke-width="0.287061" stroke-miterlimit="22.9256"/>
<path d="M315.529 141.837V140.777L316.055 138.657L316.585 138.128L317.645 137.071H320.295L321.351 138.128L321.881 138.657L322.411 140.777V142.893L321.881 144.483L320.821 147.659L314.999 157.191H322.941" stroke="black" stroke-width="0.287061" stroke-miterlimit="22.9256"/>
<path d="M232.918 310.232L232.388 308.642L231.858 307.582L231.331 306.526L230.271 305.466H227.622L226.565 306.526L226.032 307.582L225.505 308.642L224.976 310.232L224.446 313.408V318.174L224.976 320.82L225.505 322.94L226.565 325.06L227.622 326.119H230.271L231.331 325.06L232.388 322.94L232.918 320.82" stroke="black" stroke-width="0.287061" stroke-miterlimit="22.9256"/>
<path d="M244.569 301.76L233.977 333.002" stroke="black" stroke-width="0.287061" stroke-miterlimit="22.9256"/>
<path d="M255.687 305.466L251.451 321.88L250.921 324L250.395 325.06L249.335 326.119H248.805" stroke="black" stroke-width="0.287061" stroke-miterlimit="22.9256"/>
<path d="M247.745 305.466L251.451 321.88" stroke="black" stroke-width="0.287061" stroke-miterlimit="22.9256"/>
<path d="M210.678 339.357H217.033L213.324 347.299H215.444L216.504 348.359L217.033 349.416L217.56 352.065V354.182L217.033 356.831L215.974 358.947L213.854 360.007H212.268L210.678 358.947L210.148 357.891L209.618 356.301" stroke="black" stroke-width="0.287061" stroke-miterlimit="22.9256"/>
<path d="M222.326 358.947L221.799 360.007L221.269 358.947L221.799 357.891L222.326 358.947ZM222.326 358.947V361.067L221.799 362.657L221.269 363.713" stroke="black" stroke-width="0.287061" stroke-miterlimit="22.9256"/>
<path d="M229.741 339.357L228.152 340.417L227.622 342.533V344.65L228.152 346.24L229.212 347.299L231.331 348.359L233.448 349.416L234.507 351.005L235.037 353.125V356.301L234.507 357.891L233.977 358.947L231.858 360.007H229.741L228.152 358.947L227.622 357.891L227.092 356.301V353.125L227.622 351.005L228.682 349.416L230.271 348.359L232.918 347.299L233.977 346.24L234.507 344.65V342.533L233.977 340.417L231.858 339.357H229.741Z" stroke="black" stroke-width="0.287061" stroke-miterlimit="22.9256"/>
<path d="M244.569 360.007V339.357L238.743 353.125H247.215" stroke="black" stroke-width="0.287061" stroke-miterlimit="22.9256"/>
<path d="M260.453 360.007V346.239L256.747 356.831L252.511 346.239V360.007" stroke="black" stroke-width="0.287061" stroke-miterlimit="22.9256"/>
<path d="M263.633 344.65V343.593L264.159 341.474L264.689 340.417L265.749 339.357H268.399L269.455 340.417L269.985 341.474L270.515 343.593V345.183L269.985 347.299L268.925 350.476L263.103 360.007H271.045" stroke="black" stroke-width="0.287061" stroke-miterlimit="22.9256"/>
<path d="M909.675 110.062V14.7463" stroke="black" stroke-width="0.287061" stroke-miterlimit="22.9256"/>
<path d="M922.917 123.83V0.978516" stroke="black" stroke-width="0.287061" stroke-miterlimit="22.9256"/>
<path d="M780.468 14.7463H793.706" stroke="black" stroke-width="0.287061" stroke-miterlimit="22.9256"/>
<path d="M922.917 123.83H793.706" stroke="black" stroke-width="0.287061" stroke-miterlimit="22.9256"/>
<path d="M219.15 389.133H213.854" stroke="#008AB8" stroke-width="0.287061" stroke-miterlimit="22.9256"/>
<path d="M219.15 396.019H213.854" stroke="#008AB8" stroke-width="0.287061" stroke-miterlimit="22.9256"/>
<path d="M205.382 389.133V375.365" stroke="#008AB8" stroke-width="0.287061" stroke-miterlimit="22.9256"/>
<path d="M205.382 389.133V396.019" stroke="#008AB8" stroke-width="0.287061" stroke-miterlimit="22.9256"/>
<path d="M219.15 389.133H213.854" stroke="#008AB8" stroke-width="0.287061" stroke-miterlimit="22.9256"/>
<path d="M520.461 80.4099L512.519 101.06" stroke="black" stroke-width="0.287061" stroke-miterlimit="22.9256"/>
<path d="M512.519 80.4099L520.461 101.06" stroke="black" stroke-width="0.287061" stroke-miterlimit="22.9256"/>
<path d="M526.287 80.4099H528.933L529.993 81.4698L531.053 83.586L531.583 85.1759L532.112 88.3519V93.1179L531.583 95.7677L531.053 97.8838L529.993 100L528.933 101.06H526.287L525.227 100L524.167 97.8838L523.637 95.7677L523.107 93.1179V88.3519L523.637 85.1759L524.167 83.586L525.227 81.4698L526.287 80.4099Z" stroke="black" stroke-width="0.287061" stroke-miterlimit="22.9256"/>
<path d="M543.231 101.06V80.4099H536.878V96.8239L536.348 98.9438L535.819 100L534.759 101.06" stroke="black" stroke-width="0.287061" stroke-miterlimit="22.9256"/>
<path d="M554.882 101.06V80.4099H548.526V96.8239L547.997 98.9438L547.467 100L546.407 101.06" stroke="black" stroke-width="0.287061" stroke-miterlimit="22.9256"/>
<path d="M499.277 118.538L500.337 117.478L502.457 114.298V134.952" stroke="black" stroke-width="0.287061" stroke-miterlimit="22.9256"/>
<path d="M508.809 114.298H516.755L510.929 134.952" stroke="black" stroke-width="0.287061" stroke-miterlimit="22.9256"/>
<path d="M521.521 133.892L520.991 134.952L520.461 133.892L520.991 132.835L521.521 133.892ZM521.521 133.892V136.012L520.991 137.601L520.461 138.658" stroke="black" stroke-width="0.287061" stroke-miterlimit="22.9256"/>
<path d="M529.463 114.298L527.873 115.358L526.817 118.538L526.287 123.303V125.95L526.817 130.716L527.873 133.892L529.463 134.952H530.523L532.639 133.892L533.699 130.716L534.229 125.95V123.303L533.699 118.538L532.639 115.358L530.523 114.298H529.463Z" stroke="black" stroke-width="0.287061" stroke-miterlimit="22.9256"/>
<path d="M545.35 121.184L544.82 124.36L543.761 125.95L541.644 127.01H541.114L539.525 125.95L538.465 124.36L537.935 121.184V120.124L538.465 117.478L539.525 115.358L541.114 114.298H541.644L543.761 115.358L544.82 117.478L545.35 121.184ZM545.35 121.184V125.95L544.82 130.716L543.761 133.892L541.644 134.952H540.584L538.995 133.892L538.465 131.775" stroke="black" stroke-width="0.287061" stroke-miterlimit="22.9256"/>
<path d="M560.178 134.951V121.184L555.939 131.775L551.703 121.184V134.951" stroke="black" stroke-width="0.287061" stroke-miterlimit="22.9256"/>
<path d="M562.824 119.064V118.538L563.354 116.418L563.884 115.358L564.944 114.298H567.59L568.65 115.358L569.18 116.418L569.71 118.538V120.124L569.18 122.244L568.12 124.89L562.294 134.952H570.236" stroke="black" stroke-width="0.287061" stroke-miterlimit="22.9256"/>
<path d="M403.432 326.12L398.136 314.468" stroke="black" stroke-width="0.287061" stroke-miterlimit="22.9256"/>
<path d="M403.432 305.466L394.96 319.234" stroke="black" stroke-width="0.287061" stroke-miterlimit="22.9256"/>
<path d="M394.96 305.466V326.119" stroke="black" stroke-width="0.287061" stroke-miterlimit="22.9256"/>
<path d="M409.788 305.466H411.904L412.964 306.526L414.024 308.642L415.08 310.232L415.61 313.408V318.174L415.08 321.354L414.024 322.94L412.964 325.06L411.904 326.119H409.788L408.198 325.06L407.138 322.94L406.608 321.354L406.078 318.174V313.408L406.608 310.232L407.138 308.642L408.198 306.526L409.788 305.466Z" stroke="black" stroke-width="0.287061" stroke-miterlimit="22.9256"/>
<path d="M419.32 326.119V305.466H424.612L426.732 306.526L427.262 307.582L427.792 309.702V312.348L427.262 314.468L426.732 315.528L424.612 316.054H419.32" stroke="black" stroke-width="0.287061" stroke-miterlimit="22.9256"/>
<path d="M430.968 305.466V326.119L439.44 305.466V326.119" stroke="black" stroke-width="0.287061" stroke-miterlimit="22.9256"/>
<path d="M454.267 329.826V326.12H442.619V329.826" stroke="black" stroke-width="0.287061" stroke-miterlimit="22.9256"/>
<path d="M444.206 326.119L445.795 322.94L446.325 321.354L446.855 317.114V305.466H453.207V326.119" stroke="black" stroke-width="0.287061" stroke-miterlimit="22.9256"/>
<path d="M461.153 305.466H463.269L464.329 306.526L465.389 308.642L465.919 310.232L466.975 313.408V318.174L465.919 321.354L465.389 322.94L464.329 325.06L463.269 326.119H461.153L459.563 325.06L458.503 322.94L457.973 321.354L457.443 318.174V313.408L457.973 310.232L458.503 308.642L459.563 306.526L461.153 305.466Z" stroke="black" stroke-width="0.287061" stroke-miterlimit="22.9256"/>
<path d="M470.681 326.119V305.466H475.981L477.567 306.526L478.627 307.582L479.157 309.702V312.348L478.627 314.468L477.567 315.528L475.981 316.054H470.681" stroke="black" stroke-width="0.287061" stroke-miterlimit="22.9256"/>
<path d="M414.024 346.24L413.494 349.416L412.434 351.536L410.844 352.065H410.314L408.198 351.536L407.138 349.416L406.608 346.24V345.71L407.138 342.534L408.198 340.417L410.314 339.884H410.844L412.434 340.417L413.494 342.534L414.024 346.24ZM414.024 346.24V351.536L413.494 356.301L412.434 358.948L410.844 360.008H409.788L407.668 358.948L407.138 357.361" stroke="black" stroke-width="0.287061" stroke-miterlimit="22.9256"/>
<path d="M419.32 358.947L418.79 360.007L418.26 358.947L418.79 357.891L419.32 358.947ZM419.32 358.947V361.067L418.79 363.187L418.26 363.713" stroke="black" stroke-width="0.287061" stroke-miterlimit="22.9256"/>
<path d="M427.262 339.884L425.142 340.417L424.612 342.534V344.65L425.142 346.24L426.732 347.3L428.848 348.359L430.438 349.416L431.498 351.536L432.557 353.125V356.301L431.498 357.891L430.968 358.948L429.378 360.008H427.262L425.142 358.948L424.612 357.891L424.082 356.301V353.125L424.612 351.536L425.672 349.416L427.792 348.359L429.908 347.3L430.968 346.24L431.498 344.65V342.534L430.968 340.417L429.378 339.884H427.262Z" stroke="black" stroke-width="0.287061" stroke-miterlimit="22.9256"/>
<path d="M442.619 342.534L442.089 340.417L440.5 339.884H439.44L437.323 340.417L436.264 343.594L435.734 348.359V353.125L436.264 357.361L437.323 358.948L439.44 360.008H439.97L441.559 358.948L442.619 357.361L443.146 354.182V353.125L442.619 350.476L441.559 348.359L439.97 347.3H439.44L437.323 348.359L436.264 350.476L435.734 353.125" stroke="black" stroke-width="0.287061" stroke-miterlimit="22.9256"/>
<path d="M457.973 360.007V346.239L453.737 357.361L450.031 346.239V360.007" stroke="black" stroke-width="0.287061" stroke-miterlimit="22.9256"/>
<path d="M461.153 344.65V343.594L461.683 341.474L462.209 340.417L463.269 339.884H465.389L466.975 340.417L467.505 341.474L468.035 343.594V345.71L467.505 347.3L465.919 350.476L460.093 360.008H468.565" stroke="black" stroke-width="0.287061" stroke-miterlimit="22.9256"/>
<path d="M909.675 110.062H780.468" stroke="black" stroke-width="0.287061" stroke-miterlimit="22.9256"/>
<path d="M0.979492 222.325V361.597H123.831" stroke="#003FFF" stroke-width="0.287061" stroke-miterlimit="22.9256"/>
<path d="M35.3974 259.396H29.0416V279.516H34.3375L35.9274 278.986L36.4573 277.93L36.9873 275.81V273.164L36.4573 271.044L35.9274 269.984L34.3375 268.928H29.0416" stroke="black" stroke-width="0.287061" stroke-miterlimit="22.9256"/>
<path d="M41.2233 273.164H47.0491" stroke="black" stroke-width="0.287061" stroke-miterlimit="22.9256"/>
<path d="M39.6334 279.516L44.3993 259.396L48.6353 279.516" stroke="black" stroke-width="0.287061" stroke-miterlimit="22.9256"/>
<path d="M58.6972 279.516V259.396H52.3451V275.81L51.8151 277.93L51.2851 278.986L50.2252 279.516" stroke="black" stroke-width="0.287061" stroke-miterlimit="22.9256"/>
<path d="M71.4051 279.516L66.1129 267.868" stroke="black" stroke-width="0.287061" stroke-miterlimit="22.9256"/>
<path d="M71.4052 259.396L63.4631 273.164" stroke="black" stroke-width="0.287061" stroke-miterlimit="22.9256"/>
<path d="M63.4631 259.396V279.516" stroke="black" stroke-width="0.287061" stroke-miterlimit="22.9256"/>
<path d="M77.761 259.396H80.4108L81.467 260.452L82.5269 262.042L83.0569 264.162L83.5868 267.338V272.104L83.0569 274.75L82.5269 276.87L81.467 278.986L80.4108 279.516H77.761L76.7011 278.986L75.6448 276.87L75.1149 274.75L74.5849 272.104V267.338L75.1149 264.162L75.6448 262.042L76.7011 260.452L77.761 259.396Z" stroke="black" stroke-width="0.287061" stroke-miterlimit="22.9256"/>
<path d="M87.8229 259.396V279.516" stroke="black" stroke-width="0.287061" stroke-miterlimit="22.9256"/>
<path d="M87.8229 268.928H96.2949" stroke="black" stroke-width="0.287061" stroke-miterlimit="22.9256"/>
<path d="M96.2949 279.516V259.396" stroke="black" stroke-width="0.287061" stroke-miterlimit="22.9256"/>
<path d="M33.8075 293.284H40.1633L36.9873 301.23H38.5735L39.6334 302.29L40.1633 303.346L40.6933 305.996V308.112L40.1633 310.762L39.1034 312.878L37.5172 313.938H35.9274L33.8075 312.878L33.2776 311.822L32.7513 309.702" stroke="black" stroke-width="0.287061" stroke-miterlimit="22.9256"/>
<path d="M45.4593 312.878L44.9293 313.938L44.3994 312.878L44.9293 311.822L45.4593 312.878ZM45.4593 312.878V314.998L44.9293 316.588L44.3994 317.644" stroke="black" stroke-width="0.287061" stroke-miterlimit="22.9256"/>
<path d="M57.111 296.464L56.581 294.344L54.9912 293.284H53.9312L51.8151 294.344L50.7552 297.524L50.2252 302.29V307.056L50.7552 310.762L51.8151 312.878L53.9312 313.938H54.4612L56.0511 312.878L57.111 310.762L57.6373 308.112V307.056L57.111 303.876L56.0511 302.29L54.4612 301.23H53.9312L51.8151 302.29L50.7552 303.876L50.2252 307.056" stroke="black" stroke-width="0.287061" stroke-miterlimit="22.9256"/>
<path d="M68.759 293.284H62.9331L62.4032 302.29L62.9331 301.23L65.053 300.17H66.6392L68.2291 301.23L69.289 303.346L70.3489 305.996V308.112L69.289 310.762L68.2291 312.878L66.6392 313.938H65.053L62.9331 312.878L62.4032 311.822L61.8732 309.702" stroke="black" stroke-width="0.287061" stroke-miterlimit="22.9256"/>
<path d="M84.1168 313.938V300.17L79.8772 310.762L76.1711 300.17V313.938" stroke="black" stroke-width="0.287061" stroke-miterlimit="22.9256"/>
<path d="M86.7629 298.05V297.524L87.8229 295.404L88.3528 294.344L89.409 293.284H91.5289L92.5888 294.344L93.6487 295.404L94.175 297.524V299.11L93.6487 301.23L92.0588 303.876L86.233 313.938H94.7086" stroke="black" stroke-width="0.287061" stroke-miterlimit="22.9256"/>
<path d="M780.468 14.7463H793.706" stroke="black" stroke-width="0.287061" stroke-miterlimit="22.9256"/>
<path d="M922.917 0.978516H868.901V14.7464H909.675" stroke="black" stroke-width="0.287061" stroke-miterlimit="22.9256"/>
<path d="M793.706 0.978516H800.592V14.7464H793.706" stroke="black" stroke-width="0.287061" stroke-miterlimit="22.9256"/>
<path d="M116.948 681.442H157.722" stroke="black" stroke-width="0.287061" stroke-miterlimit="22.9256"/>
<path d="M157.722 640.668H116.948L157.722 681.442V640.668ZM116.948 640.668L157.722 681.442H116.948V640.668Z" fill="#0000FF"/>
<path d="M116.948 640.668H157.722V681.442M116.948 640.668L157.722 681.442M116.948 640.668V681.442H157.722" stroke="#0000FF" stroke-width="0.287061" stroke-miterlimit="22.9256"/>
<path d="M157.722 640.668H116.948V681.442H157.722V640.668Z" stroke="black" stroke-width="0.287061" stroke-miterlimit="22.9256"/>
<path d="M116.948 681.442L157.722 640.668" stroke="black" stroke-width="0.287061" stroke-miterlimit="22.9256"/>
<path d="M157.722 681.442L116.948 640.668" stroke="black" stroke-width="0.287061" stroke-miterlimit="22.9256"/>
<path d="M566 683.028H606.778" stroke="black" stroke-width="0.287061" stroke-miterlimit="22.9256"/>
<path d="M606.778 642.255H566.004L606.778 683.029V642.255ZM566.004 642.255L606.778 683.029H566.004V642.255Z" fill="#0000FF"/>
<path d="M566.004 642.255H606.778V683.029M566.004 642.255L606.778 683.029M566.004 642.255V683.029H606.778" stroke="#0000FF" stroke-width="0.287061" stroke-miterlimit="22.9256"/>
<path d="M606.778 642.255H566V683.029H606.778V642.255Z" stroke="black" stroke-width="0.287061" stroke-miterlimit="22.9256"/>
<path d="M566 683.029L606.778 642.255" stroke="black" stroke-width="0.287061" stroke-miterlimit="22.9256"/>
<path d="M606.778 683.029L566 642.255" stroke="black" stroke-width="0.287061" stroke-miterlimit="22.9256"/>
<path d="M116.948 246.154H157.722" stroke="black" stroke-width="0.287061" stroke-miterlimit="22.9256"/>
<path d="M157.722 205.381H116.948L157.722 246.155V205.381ZM116.948 205.381L157.722 246.155H116.948V205.381Z" fill="#0000FF"/>
<path d="M116.948 205.381H157.722V246.155M116.948 205.381L157.722 246.155M116.948 205.381V246.155H157.722" stroke="#0000FF" stroke-width="0.287061" stroke-miterlimit="22.9256"/>
<path d="M157.722 205.381H116.948V246.155H157.722V205.381Z" stroke="black" stroke-width="0.287061" stroke-miterlimit="22.9256"/>
<path d="M116.948 246.155L157.722 205.381" stroke="black" stroke-width="0.287061" stroke-miterlimit="22.9256"/>
<path d="M157.722 246.155L116.948 205.381" stroke="black" stroke-width="0.287061" stroke-miterlimit="22.9256"/>
<path d="M566 246.154H606.778" stroke="black" stroke-width="0.287061" stroke-miterlimit="22.9256"/>
<path d="M606.778 205.381H566.004L606.778 246.155V205.381ZM566.004 205.381L606.778 246.155H566.004V205.381Z" fill="#0000FF"/>
<path d="M566.004 205.381H606.778V246.155M566.004 205.381L606.778 246.155M566.004 205.381V246.155H606.778" stroke="#0000FF" stroke-width="0.287061" stroke-miterlimit="22.9256"/>
<path d="M606.778 205.381H566V246.155H606.778V205.381Z" stroke="black" stroke-width="0.287061" stroke-miterlimit="22.9256"/>
<path d="M566 246.155L606.778 205.381" stroke="black" stroke-width="0.287061" stroke-miterlimit="22.9256"/>
<path d="M606.778 246.155L566 205.381" stroke="black" stroke-width="0.287061" stroke-miterlimit="22.9256"/>
<path d="M286.933 368.479H205.382V396.019H286.933V368.479Z" stroke="#5CB800" stroke-width="0.287061" stroke-miterlimit="22.9256"/>
<path d="M213.324 389.133H224.446" stroke="#5CB800" stroke-width="0.287061" stroke-miterlimit="22.9256"/>
<path d="M225.505 387.543V376.955" stroke="#5CB800" stroke-width="0.287061" stroke-miterlimit="22.9256"/>
<path d="M224.446 375.365H213.324" stroke="#5CB800" stroke-width="0.287061" stroke-miterlimit="22.9256"/>
<path d="M212.268 376.955V387.543" stroke="#5CB800" stroke-width="0.287061" stroke-miterlimit="22.9256"/>
<path d="M212.268 387.282C212.268 388.014 212.86 388.607 213.592 388.607" stroke="#5CB800" stroke-width="0.287061" stroke-miterlimit="22.9256"/>
<path d="M224.711 388.603C225.443 388.603 226.035 388.011 226.035 387.278" stroke="#5CB800" stroke-width="0.287061" stroke-miterlimit="22.9256"/>
<path d="M213.589 375.365C212.856 375.365 212.264 375.958 212.264 376.69" stroke="#5CB800" stroke-width="0.287061" stroke-miterlimit="22.9256"/>
<path d="M226.032 376.69C226.032 375.958 225.439 375.365 224.707 375.365" stroke="#5CB800" stroke-width="0.287061" stroke-miterlimit="22.9256"/>
<path d="M266.809 376.955V387.543" stroke="#5CB800" stroke-width="0.287061" stroke-miterlimit="22.9256"/>
<path d="M267.869 389.133H278.987" stroke="#5CB800" stroke-width="0.287061" stroke-miterlimit="22.9256"/>
<path d="M280.047 387.543V376.955" stroke="#5CB800" stroke-width="0.287061" stroke-miterlimit="22.9256"/>
<path d="M278.987 375.365H267.869" stroke="#5CB800" stroke-width="0.287061" stroke-miterlimit="22.9256"/>
<path d="M266.809 387.282C266.809 388.014 267.402 388.607 268.134 388.607" stroke="#5CB800" stroke-width="0.287061" stroke-miterlimit="22.9256"/>
<path d="M279.252 388.603C279.985 388.603 280.577 388.011 280.577 387.278" stroke="#5CB800" stroke-width="0.287061" stroke-miterlimit="22.9256"/>
<path d="M268.134 375.365C267.402 375.365 266.809 375.958 266.809 376.69" stroke="#5CB800" stroke-width="0.287061" stroke-miterlimit="22.9256"/>
<path d="M280.577 376.69C280.577 375.958 279.985 375.365 279.252 375.365" stroke="#5CB800" stroke-width="0.287061" stroke-miterlimit="22.9256"/>
<path d="M232.918 387.282C232.918 388.014 233.51 388.607 234.242 388.607" stroke="#5CB800" stroke-width="0.287061" stroke-miterlimit="22.9256"/>
<path d="M234.242 375.365C233.514 375.365 232.918 375.958 232.918 376.69" stroke="#5CB800" stroke-width="0.287061" stroke-miterlimit="22.9256"/>
<path d="M258.602 388.603C259.335 388.603 259.927 388.011 259.927 387.278" stroke="#5CB800" stroke-width="0.287061" stroke-miterlimit="22.9256"/>
<path d="M259.923 376.69C259.923 375.958 259.331 375.365 258.598 375.365" stroke="#5CB800" stroke-width="0.287061" stroke-miterlimit="22.9256"/>
<path d="M232.388 376.955V387.543" stroke="#5CB800" stroke-width="0.287061" stroke-miterlimit="22.9256"/>
<path d="M233.977 389.133H258.337" stroke="#5CB800" stroke-width="0.287061" stroke-miterlimit="22.9256"/>
<path d="M259.923 387.543V376.955" stroke="#5CB800" stroke-width="0.287061" stroke-miterlimit="22.9256"/>
<path d="M258.337 375.365H233.977" stroke="#5CB800" stroke-width="0.287061" stroke-miterlimit="22.9256"/>
<path d="M286.933 368.479H205.382V396.019H286.933V368.479Z" stroke="#5CB800" stroke-width="0.287061" stroke-miterlimit="22.9256"/>
<path d="M213.324 389.133H224.446" stroke="#5CB800" stroke-width="0.287061" stroke-miterlimit="22.9256"/>
<path d="M225.505 387.543V376.955" stroke="#5CB800" stroke-width="0.287061" stroke-miterlimit="22.9256"/>
<path d="M224.446 375.365H213.324" stroke="#5CB800" stroke-width="0.287061" stroke-miterlimit="22.9256"/>
<path d="M212.268 376.955V387.543" stroke="#5CB800" stroke-width="0.287061" stroke-miterlimit="22.9256"/>
<path d="M212.268 387.282C212.268 388.014 212.86 388.607 213.592 388.607" stroke="#5CB800" stroke-width="0.287061" stroke-miterlimit="22.9256"/>
<path d="M224.711 388.603C225.443 388.603 226.035 388.011 226.035 387.278" stroke="#5CB800" stroke-width="0.287061" stroke-miterlimit="22.9256"/>
<path d="M213.589 375.365C212.856 375.365 212.264 375.958 212.264 376.69" stroke="#5CB800" stroke-width="0.287061" stroke-miterlimit="22.9256"/>
<path d="M226.032 376.69C226.032 375.958 225.439 375.365 224.707 375.365" stroke="#5CB800" stroke-width="0.287061" stroke-miterlimit="22.9256"/>
<path d="M266.809 376.955V387.543" stroke="#5CB800" stroke-width="0.287061" stroke-miterlimit="22.9256"/>
<path d="M267.869 389.133H278.987" stroke="#5CB800" stroke-width="0.287061" stroke-miterlimit="22.9256"/>
<path d="M280.047 387.543V376.955" stroke="#5CB800" stroke-width="0.287061" stroke-miterlimit="22.9256"/>
<path d="M278.987 375.365H267.869" stroke="#5CB800" stroke-width="0.287061" stroke-miterlimit="22.9256"/>
<path d="M266.809 387.282C266.809 388.014 267.402 388.607 268.134 388.607" stroke="#5CB800" stroke-width="0.287061" stroke-miterlimit="22.9256"/>
<path d="M279.252 388.603C279.985 388.603 280.577 388.011 280.577 387.278" stroke="#5CB800" stroke-width="0.287061" stroke-miterlimit="22.9256"/>
<path d="M268.134 375.365C267.402 375.365 266.809 375.958 266.809 376.69" stroke="#5CB800" stroke-width="0.287061" stroke-miterlimit="22.9256"/>
<path d="M280.577 376.69C280.577 375.958 279.985 375.365 279.252 375.365" stroke="#5CB800" stroke-width="0.287061" stroke-miterlimit="22.9256"/>
<path d="M232.918 387.282C232.918 388.014 233.51 388.607 234.242 388.607" stroke="#5CB800" stroke-width="0.287061" stroke-miterlimit="22.9256"/>
<path d="M234.242 375.365C233.514 375.365 232.918 375.958 232.918 376.69" stroke="#5CB800" stroke-width="0.287061" stroke-miterlimit="22.9256"/>
<path d="M258.602 388.603C259.335 388.603 259.927 388.011 259.927 387.278" stroke="#5CB800" stroke-width="0.287061" stroke-miterlimit="22.9256"/>
<path d="M259.923 376.69C259.923 375.958 259.331 375.365 258.598 375.365" stroke="#5CB800" stroke-width="0.287061" stroke-miterlimit="22.9256"/>
<path d="M232.388 376.955V387.543" stroke="#5CB800" stroke-width="0.287061" stroke-miterlimit="22.9256"/>
<path d="M233.977 389.133H258.337" stroke="#5CB800" stroke-width="0.287061" stroke-miterlimit="22.9256"/>
<path d="M259.923 387.543V376.955" stroke="#5CB800" stroke-width="0.287061" stroke-miterlimit="22.9256"/>
<path d="M258.337 375.365H233.977" stroke="#5CB800" stroke-width="0.287061" stroke-miterlimit="22.9256"/>
<path d="M280.047 376.955L276.341 386.487L267.869 389.133" stroke="#5CB800" stroke-width="0.287061" stroke-miterlimit="22.9256"/>
<path d="M259.923 376.955L255.161 385.957L233.977 389.133" stroke="#5CB800" stroke-width="0.287061" stroke-miterlimit="22.9256"/>
<path d="M225.505 376.955L221.799 386.487L213.324 389.133" stroke="#5CB800" stroke-width="0.287061" stroke-miterlimit="22.9256"/>
<path d="M7.86157 7.8606H89.9427V35.3964H7.86157V7.8606Z" stroke="#5CB800" stroke-width="0.287061" stroke-miterlimit="22.9256"/>
<path d="M81.467 28.5144H70.8789" stroke="#5CB800" stroke-width="0.287061" stroke-miterlimit="22.9256"/>
<path d="M69.289 26.9243V16.3325" stroke="#5CB800" stroke-width="0.287061" stroke-miterlimit="22.9256"/>
<path d="M70.8789 14.7463H81.467" stroke="#5CB800" stroke-width="0.287061" stroke-miterlimit="22.9256"/>
<path d="M83.0569 16.3325V26.9243" stroke="#5CB800" stroke-width="0.287061" stroke-miterlimit="22.9256"/>
<path d="M81.732 27.9843C82.4644 27.9843 83.0569 27.3918 83.0569 26.6594" stroke="#5CB800" stroke-width="0.287061" stroke-miterlimit="22.9256"/>
<path d="M69.819 26.6594C69.819 27.3881 70.4115 27.9843 71.1439 27.9843" stroke="#5CB800" stroke-width="0.287061" stroke-miterlimit="22.9256"/>
<path d="M83.0569 16.0676C83.0569 15.3352 82.4644 14.7427 81.732 14.7427" stroke="#5CB800" stroke-width="0.287061" stroke-miterlimit="22.9256"/>
<path d="M71.1402 14.7463C70.4115 14.7463 69.8153 15.3389 69.8153 16.0712" stroke="#5CB800" stroke-width="0.287061" stroke-miterlimit="22.9256"/>
<path d="M28.5153 16.3325V26.9243" stroke="#5CB800" stroke-width="0.287061" stroke-miterlimit="22.9256"/>
<path d="M26.9254 28.5144H16.3336" stroke="#5CB800" stroke-width="0.287061" stroke-miterlimit="22.9256"/>
<path d="M14.7437 26.9243V16.3325" stroke="#5CB800" stroke-width="0.287061" stroke-miterlimit="22.9256"/>
<path d="M16.3336 14.7463H26.9254" stroke="#5CB800" stroke-width="0.287061" stroke-miterlimit="22.9256"/>
<path d="M27.1904 27.9843C27.9227 27.9843 28.5153 27.3918 28.5153 26.6594" stroke="#5CB800" stroke-width="0.287061" stroke-miterlimit="22.9256"/>
<path d="M15.2773 26.6594C15.2773 27.3881 15.8699 27.9843 16.6022 27.9843" stroke="#5CB800" stroke-width="0.287061" stroke-miterlimit="22.9256"/>
<path d="M28.5153 16.0676C28.5153 15.3352 27.9227 14.7427 27.1904 14.7427" stroke="#5CB800" stroke-width="0.287061" stroke-miterlimit="22.9256"/>
<path d="M16.5986 14.7463C15.8662 14.7463 15.2737 15.3389 15.2737 16.0712" stroke="#5CB800" stroke-width="0.287061" stroke-miterlimit="22.9256"/>
<path d="M61.6083 27.9843C62.3407 27.9843 62.9332 27.3918 62.9332 26.6594" stroke="#5CB800" stroke-width="0.287061" stroke-miterlimit="22.9256"/>
<path d="M62.9332 16.0676C62.9332 15.3352 62.3407 14.7427 61.6083 14.7427" stroke="#5CB800" stroke-width="0.287061" stroke-miterlimit="22.9256"/>
<path d="M35.3974 26.6594C35.3974 27.3881 35.9899 27.9843 36.7223 27.9843" stroke="#5CB800" stroke-width="0.287061" stroke-miterlimit="22.9256"/>
<path d="M36.7223 14.7463C35.9899 14.7463 35.3974 15.3389 35.3974 16.0712" stroke="#5CB800" stroke-width="0.287061" stroke-miterlimit="22.9256"/>
<path d="M62.4032 16.3325V26.9243" stroke="#5CB800" stroke-width="0.287061" stroke-miterlimit="22.9256"/>
<path d="M61.3469 28.5144H36.4573" stroke="#5CB800" stroke-width="0.287061" stroke-miterlimit="22.9256"/>
<path d="M35.3974 26.9243V16.3325" stroke="#5CB800" stroke-width="0.287061" stroke-miterlimit="22.9256"/>
<path d="M36.4573 14.7463H61.3469" stroke="#5CB800" stroke-width="0.287061" stroke-miterlimit="22.9256"/>
<path d="M7.86157 7.8606H89.9427V35.3964H7.86157V7.8606Z" stroke="#5CB800" stroke-width="0.287061" stroke-miterlimit="22.9256"/>
<path d="M81.467 28.5144H70.8789" stroke="#5CB800" stroke-width="0.287061" stroke-miterlimit="22.9256"/>
<path d="M69.289 26.9243V16.3325" stroke="#5CB800" stroke-width="0.287061" stroke-miterlimit="22.9256"/>
<path d="M70.8789 14.7463H81.467" stroke="#5CB800" stroke-width="0.287061" stroke-miterlimit="22.9256"/>
<path d="M83.0569 16.3325V26.9243" stroke="#5CB800" stroke-width="0.287061" stroke-miterlimit="22.9256"/>
<path d="M81.732 27.9843C82.4644 27.9843 83.0569 27.3918 83.0569 26.6594" stroke="#5CB800" stroke-width="0.287061" stroke-miterlimit="22.9256"/>
<path d="M69.819 26.6594C69.819 27.3881 70.4115 27.9843 71.1439 27.9843" stroke="#5CB800" stroke-width="0.287061" stroke-miterlimit="22.9256"/>
<path d="M83.0569 16.0676C83.0569 15.3352 82.4644 14.7427 81.732 14.7427" stroke="#5CB800" stroke-width="0.287061" stroke-miterlimit="22.9256"/>
<path d="M71.1402 14.7463C70.4115 14.7463 69.8153 15.3389 69.8153 16.0712" stroke="#5CB800" stroke-width="0.287061" stroke-miterlimit="22.9256"/>
<path d="M28.5153 16.3325V26.9243" stroke="#5CB800" stroke-width="0.287061" stroke-miterlimit="22.9256"/>
<path d="M26.9254 28.5144H16.3336" stroke="#5CB800" stroke-width="0.287061" stroke-miterlimit="22.9256"/>
<path d="M14.7437 26.9243V16.3325" stroke="#5CB800" stroke-width="0.287061" stroke-miterlimit="22.9256"/>
<path d="M16.3336 14.7463H26.9254" stroke="#5CB800" stroke-width="0.287061" stroke-miterlimit="22.9256"/>
<path d="M27.1904 27.9843C27.9227 27.9843 28.5153 27.3918 28.5153 26.6594" stroke="#5CB800" stroke-width="0.287061" stroke-miterlimit="22.9256"/>
<path d="M15.2773 26.6594C15.2773 27.3881 15.8699 27.9843 16.6022 27.9843" stroke="#5CB800" stroke-width="0.287061" stroke-miterlimit="22.9256"/>
<path d="M28.5153 16.0676C28.5153 15.3352 27.9227 14.7427 27.1904 14.7427" stroke="#5CB800" stroke-width="0.287061" stroke-miterlimit="22.9256"/>
<path d="M16.5986 14.7463C15.8662 14.7463 15.2737 15.3389 15.2737 16.0712" stroke="#5CB800" stroke-width="0.287061" stroke-miterlimit="22.9256"/>
<path d="M61.6083 27.9843C62.3407 27.9843 62.9332 27.3918 62.9332 26.6594" stroke="#5CB800" stroke-width="0.287061" stroke-miterlimit="22.9256"/>
<path d="M62.9332 16.0676C62.9332 15.3352 62.3407 14.7427 61.6083 14.7427" stroke="#5CB800" stroke-width="0.287061" stroke-miterlimit="22.9256"/>
<path d="M35.3974 26.6594C35.3974 27.3881 35.9899 27.9843 36.7223 27.9843" stroke="#5CB800" stroke-width="0.287061" stroke-miterlimit="22.9256"/>
<path d="M36.7223 14.7463C35.9899 14.7463 35.3974 15.3389 35.3974 16.0712" stroke="#5CB800" stroke-width="0.287061" stroke-miterlimit="22.9256"/>
<path d="M62.4032 16.3325V26.9243" stroke="#5CB800" stroke-width="0.287061" stroke-miterlimit="22.9256"/>
<path d="M61.3469 28.5144H36.4573" stroke="#5CB800" stroke-width="0.287061" stroke-miterlimit="22.9256"/>
<path d="M35.3974 26.9243V16.3325" stroke="#5CB800" stroke-width="0.287061" stroke-miterlimit="22.9256"/>
<path d="M36.4573 14.7463H61.3469" stroke="#5CB800" stroke-width="0.287061" stroke-miterlimit="22.9256"/>
<path d="M14.7437 16.3325L18.9834 25.8644L26.9254 28.5142" stroke="#5CB800" stroke-width="0.287061" stroke-miterlimit="22.9256"/>
<path d="M35.3974 16.3325L39.6334 25.8644L61.347 28.5142" stroke="#5CB800" stroke-width="0.287061" stroke-miterlimit="22.9256"/>
<path d="M69.289 16.3325L72.995 25.8644L81.467 28.5142" stroke="#5CB800" stroke-width="0.287061" stroke-miterlimit="22.9256"/>
<path d="M137.069 681.442V688.328H143.954L137.069 681.442ZM137.069 688.328H143.954L137.069 729.102V688.328Z" fill="black"/>
<path d="M137.069 688.328V681.442L143.954 688.328M137.069 688.328H143.954M137.069 688.328V729.102L143.954 688.328" stroke="black" stroke-width="0.287061" stroke-miterlimit="22.9256"/>
<path d="M137.069 681.442H184.728L143.954 688.328L137.069 681.442Z" fill="black"/>
<path d="M137.069 681.442H184.728L143.954 688.328L137.069 681.442Z" stroke="black" stroke-width="0.287061" stroke-miterlimit="22.9256"/>
<path d="M137.069 681.442H184.728L143.954 688.328L137.069 729.102V681.442ZM137.069 681.442H184.728V729.102H137.069V681.442Z" stroke="black" stroke-width="0.287061" stroke-miterlimit="22.9256"/>
<path d="M137.069 681.442H184.728V729.102H137.069V681.442Z" stroke="black" stroke-width="0.287061" stroke-miterlimit="22.9256"/>
</g>
<defs>
<clipPath id="clip0_9_7838">
<rect width="922.893" height="797.39" fill="white" transform="translate(0.5 0.5)"/>
</clipPath>
</defs>
</svg>
