<svg width="1084" height="683" viewBox="0 0 1084 683" fill="none" xmlns="http://www.w3.org/2000/svg">
<g clip-path="url(#clip0_9_9870)">
<path d="M123.832 321.499H0.976471V461.298H123.832V321.499Z" fill="#AFD9AA" stroke="#2B2A29" stroke-width="0.755481" stroke-miterlimit="22.9256"/>
<path d="M1021.94 42.4287H1042.06H1021.94Z" stroke="#AFD9AA" stroke-width="0.288399" stroke-miterlimit="22.9256"/>
<path d="M157.722 18.5983H375.366V321.499H382.25V297.669H681.442V290.785H382.25V18.5983H824.42V83.2029H831.304V18.5983H1042.06V42.4289H1048.95V290.785H912.855V297.669H1048.95V437.467H1042.06V464.473H984.343V478.241H916.56V464.473H739.16V471.357H780.464L780.668 668.469L606.772 668.347V471.354H685.145V464.47H443.673V539.137H450.027V471.354H599.888V668.347H450.027V586.799H443.673V668.347H14.7413V474.533H116.944V478.238H157.718V471.354H382.247V382.919H375.363V443.818H157.718V437.464L151.041 437.586L150.838 42.4226H157.722V18.592V18.5983ZM762.994 297.669H851.429V290.785H831.307V233.064H824.423V290.785H762.994V297.669Z" fill="#AFD9AA" stroke="#AFD9AA" stroke-width="0.952972" stroke-miterlimit="10" stroke-linecap="round"/>
<path d="M606.775 498.366H677.737H606.775Z" stroke="#AFD9AA" stroke-width="0.288399" stroke-miterlimit="22.9256"/>
<path d="M681.442 498.366H606.775H677.734H681.439H681.442Z" stroke="#AFD9AA" stroke-width="0.288399" stroke-miterlimit="22.9256"/>
<path d="M137.07 467.652V474.536" stroke="#FF0000" stroke-width="0.288399" stroke-miterlimit="22.9256"/>
<path d="M586.123 459.179V465.533" stroke="#FF0000" stroke-width="0.288399" stroke-miterlimit="22.9256"/>
<path d="M127.007 457.589H133.891" stroke="#FF0000" stroke-width="0.288399" stroke-miterlimit="22.9256"/>
<path d="M0.976471 461.298V682.118" stroke="black" stroke-width="0.288399" stroke-miterlimit="22.9256"/>
<path d="M14.7444 461.298V668.35" stroke="black" stroke-width="0.288399" stroke-miterlimit="22.9256"/>
<path d="M120.123 474.536H14.7444" stroke="#00BFFF" stroke-width="0.288399" stroke-miterlimit="22.9256"/>
<path d="M120.123 461.298H14.7444" stroke="#00BFFF" stroke-width="0.288399" stroke-miterlimit="22.9256"/>
<path d="M14.7444 461.298H0.976471" stroke="black" stroke-width="0.288399" stroke-miterlimit="22.9256"/>
<path d="M120.123 467.652H14.7444" stroke="#00BFFF" stroke-width="0.288399" stroke-miterlimit="22.9256"/>
<path d="M337.767 5.36011H426.199H399.193" stroke="black" stroke-width="0.288399" stroke-miterlimit="22.9256"/>
<path d="M549.058 5.36011H569.177" stroke="black" stroke-width="0.288399" stroke-miterlimit="22.9256"/>
<path d="M337.767 18.5981H375.366" stroke="black" stroke-width="0.288399" stroke-miterlimit="22.9256"/>
<path d="M382.25 18.5981H426.2" stroke="black" stroke-width="0.288399" stroke-miterlimit="22.9256"/>
<path d="M549.058 18.5981H569.177" stroke="black" stroke-width="0.288399" stroke-miterlimit="22.9256"/>
<path d="M599.894 5.36011H1045.77" stroke="black" stroke-width="0.288399" stroke-miterlimit="22.9256"/>
<path d="M599.894 18.5981H824.42" stroke="black" stroke-width="0.288399" stroke-miterlimit="22.9256"/>
<path d="M831.304 18.5981H1045.77" stroke="black" stroke-width="0.288399" stroke-miterlimit="22.9256"/>
<path d="M215.442 5.36011V18.5983" stroke="black" stroke-width="0.288399" stroke-miterlimit="22.9256"/>
<path d="M337.767 5.36011V18.5983" stroke="black" stroke-width="0.288399" stroke-miterlimit="22.9256"/>
<path d="M337.767 5.36011H215.442" stroke="#00BFFF" stroke-width="0.288399" stroke-miterlimit="22.9256"/>
<path d="M215.442 12.2441H337.767" stroke="#00BFFF" stroke-width="0.288399" stroke-miterlimit="22.9256"/>
<path d="M337.767 18.5981H215.442" stroke="#00BFFF" stroke-width="0.288399" stroke-miterlimit="22.9256"/>
<path d="M549.058 5.36011V18.5983" stroke="black" stroke-width="0.288399" stroke-miterlimit="22.9256"/>
<path d="M426.2 5.36011V18.5983" stroke="black" stroke-width="0.288399" stroke-miterlimit="22.9256"/>
<path d="M549.058 5.36011H426.2" stroke="#00BFFF" stroke-width="0.288399" stroke-miterlimit="22.9256"/>
<path d="M426.2 12.2441H549.058" stroke="#00BFFF" stroke-width="0.288399" stroke-miterlimit="22.9256"/>
<path d="M549.058 18.5981H426.2" stroke="#00BFFF" stroke-width="0.288399" stroke-miterlimit="22.9256"/>
<path d="M1062.72 459.179V465.533" stroke="#FF0000" stroke-width="0.288399" stroke-miterlimit="22.9256"/>
<path d="M453.739 464.477H566.001" stroke="black" stroke-width="0.288399" stroke-miterlimit="22.9256"/>
<path d="M450.03 471.36H566.001" stroke="black" stroke-width="0.288399" stroke-miterlimit="22.9256"/>
<path d="M219.148 471.36H213.853" stroke="#008AB8" stroke-width="0.288399" stroke-miterlimit="22.9256"/>
<path d="M375.366 18.5981V321.499" stroke="black" stroke-width="0.288399" stroke-miterlimit="22.9256"/>
<path d="M375.366 382.925V443.825" stroke="black" stroke-width="0.288399" stroke-miterlimit="22.9256"/>
<path d="M382.25 18.5981V290.785" stroke="black" stroke-width="0.288399" stroke-miterlimit="22.9256"/>
<path d="M382.25 297.668V321.499" stroke="black" stroke-width="0.288399" stroke-miterlimit="22.9256"/>
<path d="M382.25 382.925V443.825" stroke="black" stroke-width="0.288399" stroke-miterlimit="22.9256"/>
<path d="M382.25 290.785H681.442" stroke="black" stroke-width="0.288399" stroke-miterlimit="22.9256"/>
<path d="M762.99 297.669H851.426V290.785H831.304V233.064H824.42V290.785H762.99V297.669Z" stroke="black" stroke-width="0.952972" stroke-miterlimit="10" stroke-linecap="round" stroke-linejoin="round"/>
<path d="M912.855 290.785H1048.94" stroke="black" stroke-width="0.288399" stroke-miterlimit="22.9256"/>
<path d="M382.25 297.668H681.442" stroke="black" stroke-width="0.288399" stroke-miterlimit="22.9256"/>
<path d="M919.739 297.668H912.855H919.739Z" stroke="black" stroke-width="0.288399" stroke-miterlimit="22.9256"/>
<path d="M912.855 297.668H1048.94" stroke="black" stroke-width="0.288399" stroke-miterlimit="22.9256"/>
<path d="M831.304 18.5981V83.2028" stroke="black" stroke-width="0.288399" stroke-miterlimit="22.9256"/>
<path d="M824.42 18.5981V83.2028" stroke="black" stroke-width="0.288399" stroke-miterlimit="22.9256"/>
<path d="M912.855 297.669V290.785" stroke="black" stroke-width="0.288399" stroke-miterlimit="22.9256"/>
<path d="M1048.94 76.8486V81.6135" stroke="#008AB8" stroke-width="0.288399" stroke-miterlimit="22.9256"/>
<path d="M824.42 83.2029H831.304" stroke="black" stroke-width="0.288399" stroke-miterlimit="22.9256"/>
<path d="M681.442 290.785V297.669" stroke="black" stroke-width="0.288399" stroke-miterlimit="22.9256"/>
<path d="M219.148 443.824H213.853" stroke="#008AB8" stroke-width="0.288399" stroke-miterlimit="22.9256"/>
<path d="M150.838 103.855V98.5601" stroke="#008AB8" stroke-width="0.288399" stroke-miterlimit="22.9256"/>
<path d="M382.25 321.499H375.366" stroke="black" stroke-width="0.288399" stroke-miterlimit="22.9256"/>
<path d="M382.25 382.925H375.366" stroke="black" stroke-width="0.288399" stroke-miterlimit="22.9256"/>
<path d="M443.676 604.275V609.043" stroke="#008AB8" stroke-width="0.288399" stroke-miterlimit="22.9256"/>
<path d="M450.03 471.36V539.14" stroke="black" stroke-width="0.288399" stroke-miterlimit="22.9256"/>
<path d="M450.03 586.802V668.35" stroke="black" stroke-width="0.288399" stroke-miterlimit="22.9256"/>
<path d="M443.676 464.477V539.141" stroke="black" stroke-width="0.288399" stroke-miterlimit="22.9256"/>
<path d="M443.676 586.802V668.35" stroke="black" stroke-width="0.288399" stroke-miterlimit="22.9256"/>
<path d="M123.831 103.855V98.5601" stroke="#008AB8" stroke-width="0.288399" stroke-miterlimit="22.9256"/>
<path d="M150.838 103.855V98.5601" stroke="#008AB8" stroke-width="0.288399" stroke-miterlimit="22.9256"/>
<path d="M219.148 471.36H213.853" stroke="#008AB8" stroke-width="0.288399" stroke-miterlimit="22.9256"/>
<path d="M219.148 443.824H213.853" stroke="#008AB8" stroke-width="0.288399" stroke-miterlimit="22.9256"/>
<path d="M219.148 18.5981H213.853" stroke="#008AB8" stroke-width="0.288399" stroke-miterlimit="22.9256"/>
<path d="M217.561 5.36011H213.853" stroke="#008AB8" stroke-width="0.288399" stroke-miterlimit="22.9256"/>
<path d="M917.62 155.221L912.325 143.572" stroke="black" stroke-width="0.288399" stroke-miterlimit="22.9256"/>
<path d="M917.62 134.569L909.676 148.337" stroke="black" stroke-width="0.288399" stroke-miterlimit="22.9256"/>
<path d="M909.676 134.569V155.221" stroke="black" stroke-width="0.288399" stroke-miterlimit="22.9256"/>
<path d="M927.682 134.569L923.444 151.513L922.914 153.102L922.385 154.162L921.328 155.221H920.798" stroke="black" stroke-width="0.288399" stroke-miterlimit="22.9256"/>
<path d="M919.739 134.569L923.444 151.513" stroke="black" stroke-width="0.288399" stroke-miterlimit="22.9256"/>
<path d="M937.212 134.569L928.742 155.221" stroke="black" stroke-width="0.288399" stroke-miterlimit="22.9256"/>
<path d="M928.742 134.569L937.212 155.221" stroke="black" stroke-width="0.288399" stroke-miterlimit="22.9256"/>
<path d="M939.861 134.569V155.221" stroke="black" stroke-width="0.288399" stroke-miterlimit="22.9256"/>
<path d="M939.861 144.629H948.334" stroke="black" stroke-width="0.288399" stroke-miterlimit="22.9256"/>
<path d="M948.334 155.221V134.569" stroke="black" stroke-width="0.288399" stroke-miterlimit="22.9256"/>
<path d="M951.51 155.221L955.748 144.629" stroke="black" stroke-width="0.288399" stroke-miterlimit="22.9256"/>
<path d="M959.983 155.221V134.569H954.688L952.569 135.629L952.039 136.685L951.51 138.804V140.394L952.039 142.513L952.569 143.572L954.688 144.629H959.983" stroke="black" stroke-width="0.288399" stroke-miterlimit="22.9256"/>
<path d="M900.146 172.695L901.203 171.635L903.322 168.989V189.111" stroke="black" stroke-width="0.288399" stroke-miterlimit="22.9256"/>
<path d="M910.206 173.754V172.695L910.736 170.579L911.266 169.519L912.325 168.989H914.971L916.03 169.519L916.56 170.579L917.09 172.695V174.814L916.56 176.403L915.501 179.579L909.676 189.111H917.62" stroke="black" stroke-width="0.288399" stroke-miterlimit="22.9256"/>
<path d="M922.384 188.052L921.855 189.111L921.328 188.052L921.855 186.992L922.384 188.052ZM922.384 188.052V190.171L921.855 192.287L921.328 192.82" stroke="black" stroke-width="0.288399" stroke-miterlimit="22.9256"/>
<path d="M927.682 173.754V172.695L928.209 170.579L928.742 169.519L929.798 168.989H932.447L933.507 169.519L934.036 170.579L934.566 172.695V174.814L934.036 176.403L932.977 179.579L927.152 189.111H935.096" stroke="black" stroke-width="0.288399" stroke-miterlimit="22.9256"/>
<path d="M941.45 168.989L939.861 169.519L939.331 171.635V173.754L939.861 175.343L940.92 176.403L943.566 177.463L945.155 178.522L946.215 180.638L946.745 182.227V185.406L946.215 186.992L945.685 188.052L944.096 189.111H941.45L939.861 188.052L939.331 186.992L938.801 185.406V182.227L939.331 180.638L940.391 178.522L942.507 177.463L944.626 176.403L945.685 175.343L946.215 173.754V171.635L945.685 169.519L944.096 168.989H941.45Z" stroke="black" stroke-width="0.288399" stroke-miterlimit="22.9256"/>
<path d="M961.043 189.111V175.343L956.804 186.465L952.569 175.343V189.111" stroke="black" stroke-width="0.288399" stroke-miterlimit="22.9256"/>
<path d="M963.691 173.754V172.695L964.221 170.579L965.278 169.519L966.337 168.989H968.456L969.516 169.519L970.046 170.579L971.102 172.695V174.814L970.046 176.403L968.986 179.579L963.162 189.111H971.635" stroke="black" stroke-width="0.288399" stroke-miterlimit="22.9256"/>
<path d="M254.1 520.608L253.571 518.489L252.511 517.429L251.981 516.899L250.922 515.84H248.806L247.743 516.899L246.683 517.429L246.157 518.489L245.627 520.608L245.097 523.257V528.551L245.627 531.197L246.157 533.316L247.743 534.906L248.806 535.965H250.922L251.981 534.906L253.571 533.316L254.1 531.197" stroke="black" stroke-width="0.288399" stroke-miterlimit="22.9256"/>
<path d="M257.276 535.965V515.84H265.749V535.965" stroke="black" stroke-width="0.288399" stroke-miterlimit="22.9256"/>
<path d="M269.984 529.078H275.812" stroke="black" stroke-width="0.288399" stroke-miterlimit="22.9256"/>
<path d="M268.398 535.965L273.163 515.84L277.928 535.965" stroke="black" stroke-width="0.288399" stroke-miterlimit="22.9256"/>
<path d="M287.461 535.965V515.84H281.106V532.257L280.577 534.376L280.047 534.906L278.987 535.965" stroke="black" stroke-width="0.288399" stroke-miterlimit="22.9256"/>
<path d="M292.225 515.84V535.965H298.053L299.639 534.906L300.169 534.376L300.699 532.257V528.551L300.169 526.432L299.639 525.373L298.053 524.313H292.225" stroke="black" stroke-width="0.288399" stroke-miterlimit="22.9256"/>
<path d="M303.877 515.84V535.965" stroke="black" stroke-width="0.288399" stroke-miterlimit="22.9256"/>
<path d="M303.877 525.373H312.351" stroke="black" stroke-width="0.288399" stroke-miterlimit="22.9256"/>
<path d="M312.351 535.965V515.84" stroke="black" stroke-width="0.288399" stroke-miterlimit="22.9256"/>
<path d="M315.526 535.965L319.761 525.373" stroke="black" stroke-width="0.288399" stroke-miterlimit="22.9256"/>
<path d="M324 535.965V515.84H318.705L317.116 516.899L316.056 517.429L315.526 519.548V521.667L316.056 523.257L317.116 524.313L318.705 525.373H324" stroke="black" stroke-width="0.288399" stroke-miterlimit="22.9256"/>
<path d="M251.451 553.438L252.511 552.379L254.1 549.733V570.385" stroke="black" stroke-width="0.288399" stroke-miterlimit="22.9256"/>
<path d="M263.63 549.733L261.514 550.792L260.981 552.379V554.498L261.514 556.617L263.1 557.676L265.219 558.206L266.809 559.263L268.398 561.382L268.925 563.501V566.15L268.398 568.266L267.338 569.325L265.749 570.385H263.63L261.514 569.325L260.981 568.266L260.454 566.15V563.501L260.981 561.382L262.57 559.263L264.16 558.206L266.279 557.676L267.338 556.617L268.398 554.498V552.379L267.338 550.792L265.749 549.733H263.63Z" stroke="black" stroke-width="0.288399" stroke-miterlimit="22.9256"/>
<path d="M273.693 569.325L272.633 570.385L272.103 569.325L272.633 568.266L273.693 569.325ZM273.693 569.325V570.914L272.633 573.03L272.103 574.09" stroke="black" stroke-width="0.288399" stroke-miterlimit="22.9256"/>
<path d="M277.928 553.438L279.517 552.379L281.106 549.733V570.385" stroke="black" stroke-width="0.288399" stroke-miterlimit="22.9256"/>
<path d="M288.52 549.733H294.874L291.696 557.676H293.285L294.345 558.206L294.874 559.263L295.404 562.441V564.56L294.874 567.206L293.815 569.325L292.225 570.385H290.109L288.52 569.325L287.99 568.266L287.461 566.15" stroke="black" stroke-width="0.288399" stroke-miterlimit="22.9256"/>
<path d="M309.702 570.385V556.617L305.464 567.206L301.229 556.617V570.385" stroke="black" stroke-width="0.288399" stroke-miterlimit="22.9256"/>
<path d="M312.351 554.498V553.438L312.877 551.852L313.407 550.792L314.996 549.733H317.116L318.172 550.792L318.705 551.852L319.761 553.438V555.557L318.705 557.676L317.645 560.322L311.818 570.385H320.294" stroke="black" stroke-width="0.288399" stroke-miterlimit="22.9256"/>
<path d="M255.16 211.352L254.1 209.233L253.571 208.703L253.041 207.644L251.981 206.587H249.862L248.273 207.644L247.743 208.703L247.216 209.233L246.683 211.352L246.157 214.528V219.296L246.683 221.942L247.216 224.061L248.273 226.18L249.862 227.239H251.981L253.041 226.18L254.1 224.061L255.16 221.942" stroke="black" stroke-width="0.288399" stroke-miterlimit="22.9256"/>
<path d="M258.335 227.239V206.587H266.809V227.239" stroke="black" stroke-width="0.288399" stroke-miterlimit="22.9256"/>
<path d="M271.044 220.355H276.868" stroke="black" stroke-width="0.288399" stroke-miterlimit="22.9256"/>
<path d="M269.458 227.239L274.222 206.587L278.987 227.239" stroke="black" stroke-width="0.288399" stroke-miterlimit="22.9256"/>
<path d="M288.52 227.239V206.587H282.166V223.001L281.636 225.12L281.106 226.18L280.047 227.239" stroke="black" stroke-width="0.288399" stroke-miterlimit="22.9256"/>
<path d="M293.285 206.587V227.239H299.109L300.169 226.18L301.229 225.12L301.758 223.001V219.296L301.229 217.177L300.169 216.117L299.109 215.061H293.285" stroke="black" stroke-width="0.288399" stroke-miterlimit="22.9256"/>
<path d="M304.934 206.587V227.239" stroke="black" stroke-width="0.288399" stroke-miterlimit="22.9256"/>
<path d="M304.934 216.117H313.407" stroke="black" stroke-width="0.288399" stroke-miterlimit="22.9256"/>
<path d="M313.407 227.239V206.587" stroke="black" stroke-width="0.288399" stroke-miterlimit="22.9256"/>
<path d="M316.586 227.239L320.821 216.117" stroke="black" stroke-width="0.288399" stroke-miterlimit="22.9256"/>
<path d="M325.059 227.239V206.587H319.761L317.645 207.644L317.116 208.703L316.586 210.293V212.412L317.116 214.528L317.645 215.061L319.761 216.117H325.059" stroke="black" stroke-width="0.288399" stroke-miterlimit="22.9256"/>
<path d="M250.392 245.242V244.713L250.922 242.597L251.451 241.537L253.041 240.478H255.16L256.216 241.537L256.746 242.597L257.276 244.713V246.302L256.746 248.421L255.686 251.067L249.862 261.129H258.335" stroke="black" stroke-width="0.288399" stroke-miterlimit="22.9256"/>
<path d="M265.219 240.478L263.63 241.537L262.044 244.713L261.514 249.477V252.126L262.044 256.894L263.63 260.07L265.219 261.129H266.279L267.868 260.07L269.458 256.894L269.984 252.126V249.477L269.458 244.713L267.868 241.537L266.279 240.478H265.219Z" stroke="black" stroke-width="0.288399" stroke-miterlimit="22.9256"/>
<path d="M274.222 260.07L273.693 261.13L273.163 260.07L273.693 259.011L274.222 260.07ZM274.222 260.07V262.189L273.693 263.776L273.163 264.838" stroke="black" stroke-width="0.288399" stroke-miterlimit="22.9256"/>
<path d="M285.871 240.478H280.047L279.517 249.477L280.047 248.421L282.166 247.361H283.755L285.342 248.421L286.931 250.537L287.461 253.186V255.305L286.931 257.954L285.342 260.07L283.755 261.129H282.166L280.047 260.07L279.517 259.01L278.987 256.894" stroke="black" stroke-width="0.288399" stroke-miterlimit="22.9256"/>
<path d="M293.815 240.478L291.696 241.537L291.166 243.656V245.242L291.696 247.361L293.285 248.421L295.404 249.477L296.993 250.537L298.58 252.126L299.109 254.245V256.894L298.58 259.01L297.52 260.07L295.934 261.129H293.815L291.696 260.07L291.166 259.01L290.639 256.894V254.245L291.166 252.126L292.755 250.537L294.345 249.477L296.464 248.421L297.52 247.361L298.58 245.242V243.656L297.52 241.537L295.934 240.478H293.815Z" stroke="black" stroke-width="0.288399" stroke-miterlimit="22.9256"/>
<path d="M312.877 261.13V247.362L308.642 257.954L304.934 247.362V261.13" stroke="black" stroke-width="0.288399" stroke-miterlimit="22.9256"/>
<path d="M316.056 245.242V244.713L316.586 242.597L317.116 241.537L318.172 240.478H320.294L321.88 241.537L322.41 242.597L322.94 244.713V246.302L322.41 248.421L321.351 251.067L315.526 261.129H323.47" stroke="black" stroke-width="0.288399" stroke-miterlimit="22.9256"/>
<path d="M496.632 132.98H489.748V153.102" stroke="black" stroke-width="0.288399" stroke-miterlimit="22.9256"/>
<path d="M502.456 132.98H505.105L506.165 133.51L507.221 135.629L507.751 137.745L508.281 140.394V145.159L507.751 148.337L507.221 150.453L506.165 152.043L505.105 153.102H502.456L501.397 152.043L500.337 150.453L499.807 148.337L499.277 145.159V140.394L499.807 137.745L500.337 135.629L501.397 133.51L502.456 132.98Z" stroke="black" stroke-width="0.288399" stroke-miterlimit="22.9256"/>
<path d="M520.462 137.745L519.929 135.629L519.403 134.569L518.873 133.51L517.813 132.98H515.165L514.105 133.51L513.575 134.569L513.045 135.629L512.519 137.745L511.986 140.394V145.159L512.519 148.337L513.045 150.453L514.105 152.043L515.165 153.102H517.813L518.873 152.043L519.929 150.453L520.462 148.337" stroke="black" stroke-width="0.288399" stroke-miterlimit="22.9256"/>
<path d="M526.284 132.98V153.102" stroke="black" stroke-width="0.288399" stroke-miterlimit="22.9256"/>
<path d="M522.578 132.98H530.522" stroke="black" stroke-width="0.288399" stroke-miterlimit="22.9256"/>
<path d="M533.7 132.98V153.102L541.644 132.98V153.102" stroke="black" stroke-width="0.288399" stroke-miterlimit="22.9256"/>
<path d="M546.409 132.98V153.102" stroke="black" stroke-width="0.288399" stroke-miterlimit="22.9256"/>
<path d="M546.409 142.513H554.352" stroke="black" stroke-width="0.288399" stroke-miterlimit="22.9256"/>
<path d="M554.352 153.102V132.98" stroke="black" stroke-width="0.288399" stroke-miterlimit="22.9256"/>
<path d="M559.117 146.218H564.942" stroke="black" stroke-width="0.288399" stroke-miterlimit="22.9256"/>
<path d="M557.528 153.102L562.296 132.98L566.531 153.102" stroke="black" stroke-width="0.288399" stroke-miterlimit="22.9256"/>
<path d="M568.65 153.102L572.355 142.513" stroke="black" stroke-width="0.288399" stroke-miterlimit="22.9256"/>
<path d="M576.594 153.102V132.98H571.296L569.71 133.51L569.177 134.569L568.65 136.685V138.804L569.177 140.394L569.71 141.453L571.296 142.513H576.594" stroke="black" stroke-width="0.288399" stroke-miterlimit="22.9256"/>
<path d="M498.221 171.635V170.579L498.748 168.459L499.277 167.93L500.337 166.87H502.986L504.045 167.93L504.575 168.459L505.105 170.579V172.695L504.575 174.814L503.516 177.463L497.688 186.992H505.632" stroke="black" stroke-width="0.288399" stroke-miterlimit="22.9256"/>
<path d="M516.224 166.87H510.4L509.87 175.343L510.4 174.814L511.986 173.754H514.105L515.694 174.814L516.754 176.403L517.284 179.579V181.168L516.754 184.346L515.694 186.466L514.105 186.992H511.986L510.4 186.466L509.87 185.406L509.34 183.287" stroke="black" stroke-width="0.288399" stroke-miterlimit="22.9256"/>
<path d="M522.048 186.465L521.519 186.992L520.989 186.465L521.519 185.406L522.048 186.465ZM522.048 186.465V188.052L521.519 190.171L520.989 191.23" stroke="black" stroke-width="0.288399" stroke-miterlimit="22.9256"/>
<path d="M529.462 166.87L527.873 167.93L527.343 169.519V171.635L527.873 173.754L528.932 174.814L531.581 175.343L533.171 176.403L534.227 178.522L534.76 180.638V183.287L534.227 185.406L533.7 186.466L532.111 186.992H529.462L527.873 186.466L527.343 185.406L526.816 183.287V180.638L527.343 178.522L528.403 176.403L530.522 175.343L532.641 174.814L533.7 173.754L534.227 171.635V169.519L533.7 167.93L532.111 166.87H529.462Z" stroke="black" stroke-width="0.288399" stroke-miterlimit="22.9256"/>
<path d="M542.17 166.87L540.055 167.93L538.995 170.579L538.465 175.343V178.522L538.995 183.287L540.055 186.466L542.17 186.992H543.23L544.819 186.466L545.879 183.287L546.409 178.522V175.343L545.879 170.579L544.819 167.93L543.23 166.87H542.17Z" stroke="black" stroke-width="0.288399" stroke-miterlimit="22.9256"/>
<path d="M560.706 186.992V173.754L556.468 184.346L552.233 173.754V186.992" stroke="black" stroke-width="0.288399" stroke-miterlimit="22.9256"/>
<path d="M563.355 171.635V170.579L563.882 168.459L564.942 167.93L566.001 166.87H568.12L569.177 167.93L569.71 168.459L570.766 170.579V172.695L569.71 174.814L568.65 177.463L562.823 186.992H571.296" stroke="black" stroke-width="0.288399" stroke-miterlimit="22.9256"/>
<path d="M789.47 352.74L780.997 372.862" stroke="black" stroke-width="0.288399" stroke-miterlimit="22.9256"/>
<path d="M780.997 352.74L789.47 372.862" stroke="black" stroke-width="0.288399" stroke-miterlimit="22.9256"/>
<path d="M795.294 352.74H797.413L798.473 353.27L799.529 355.389L800.062 357.505L801.119 360.154V364.922L800.062 368.098L799.529 370.217L798.473 371.803L797.413 372.862H795.294L793.705 371.803L792.645 370.217L792.119 368.098L791.586 364.922V360.154L792.119 357.505L792.645 355.389L793.705 353.27L795.294 352.74Z" stroke="black" stroke-width="0.288399" stroke-miterlimit="22.9256"/>
<path d="M811.711 372.862V352.74H805.357V369.157L804.827 370.746L804.297 371.803L803.238 372.862" stroke="black" stroke-width="0.288399" stroke-miterlimit="22.9256"/>
<path d="M823.36 372.862V352.74H817.006V369.157L816.476 370.746L815.946 371.803L814.887 372.862" stroke="black" stroke-width="0.288399" stroke-miterlimit="22.9256"/>
<path d="M767.229 391.399V390.339L767.759 388.22L768.288 387.69L769.878 386.634H771.994L773.053 387.69L773.583 388.22L774.113 390.339V392.455L773.583 394.044L772.523 397.223L766.699 406.756H775.172" stroke="black" stroke-width="0.288399" stroke-miterlimit="22.9256"/>
<path d="M779.407 386.634H785.765L782.586 394.044H784.175L785.232 395.104L785.765 396.164L786.821 399.342V400.932L785.765 404.107L784.705 406.226L783.116 406.756H781.526L779.407 406.226L778.878 405.167L778.348 403.047" stroke="black" stroke-width="0.288399" stroke-miterlimit="22.9256"/>
<path d="M791.059 406.226L790.53 406.756L790 406.226L790.53 405.167L791.059 406.226ZM791.059 406.226V407.815L790.53 409.931L790 410.991" stroke="black" stroke-width="0.288399" stroke-miterlimit="22.9256"/>
<path d="M795.824 386.634H804.297L798.473 406.756" stroke="black" stroke-width="0.288399" stroke-miterlimit="22.9256"/>
<path d="M808.533 386.634H815.417L811.711 394.044H813.301L814.357 395.104L815.417 396.164L815.946 399.342V400.932L815.417 404.107L813.827 406.226L812.241 406.756H810.652L808.533 406.226L808.003 405.167L807.473 403.047" stroke="black" stroke-width="0.288399" stroke-miterlimit="22.9256"/>
<path d="M829.714 406.756V393.518L825.479 404.107L821.771 393.518V406.756" stroke="black" stroke-width="0.288399" stroke-miterlimit="22.9256"/>
<path d="M832.893 391.399V390.339L833.423 388.22L833.952 387.69L835.012 386.634H837.128L838.717 387.69L839.247 388.22L839.777 390.339V392.455L839.247 394.044L837.658 397.223L831.833 406.756H840.307" stroke="black" stroke-width="0.288399" stroke-miterlimit="22.9256"/>
<path d="M123.831 45.0744L129.656 39.25" stroke="#FF0000" stroke-width="0.288399" stroke-miterlimit="22.9256"/>
<path d="M123.831 75.7891L150.838 48.2532" stroke="#FF0000" stroke-width="0.288399" stroke-miterlimit="22.9256"/>
<path d="M123.831 105.974L150.838 78.9646" stroke="#FF0000" stroke-width="0.288399" stroke-miterlimit="22.9256"/>
<path d="M123.831 136.685L150.838 109.679" stroke="#FF0000" stroke-width="0.288399" stroke-miterlimit="22.9256"/>
<path d="M123.831 167.4L150.838 139.864" stroke="#FF0000" stroke-width="0.288399" stroke-miterlimit="22.9256"/>
<path d="M123.831 197.585L150.838 170.579" stroke="#FF0000" stroke-width="0.288399" stroke-miterlimit="22.9256"/>
<path d="M123.831 228.299L150.838 201.29" stroke="#FF0000" stroke-width="0.288399" stroke-miterlimit="22.9256"/>
<path d="M123.831 259.01L150.838 231.475" stroke="#FF0000" stroke-width="0.288399" stroke-miterlimit="22.9256"/>
<path d="M123.831 289.725L150.838 262.189" stroke="#FF0000" stroke-width="0.288399" stroke-miterlimit="22.9256"/>
<path d="M123.831 319.91L150.838 292.904" stroke="#FF0000" stroke-width="0.288399" stroke-miterlimit="22.9256"/>
<path d="M123.831 350.621L150.838 323.615" stroke="#FF0000" stroke-width="0.288399" stroke-miterlimit="22.9256"/>
<path d="M123.831 381.336L150.838 353.8" stroke="#FF0000" stroke-width="0.288399" stroke-miterlimit="22.9256"/>
<path d="M123.831 411.521L150.838 384.515" stroke="#FF0000" stroke-width="0.288399" stroke-miterlimit="22.9256"/>
<path d="M125.421 440.646L150.838 415.229" stroke="#FF0000" stroke-width="0.288399" stroke-miterlimit="22.9256"/>
<path d="M124.891 60.4287C124.891 59.8456 124.415 59.3691 123.831 59.3691C123.248 59.3691 122.772 59.8456 122.772 60.4287C122.772 61.0118 123.248 61.4883 123.831 61.4883C124.415 61.4883 124.891 61.0118 124.891 60.4287Z" fill="#FF0000"/>
<path d="M123.831 60.4287H124.891M124.891 60.4287C124.891 59.8456 124.415 59.3691 123.831 59.3691C123.248 59.3691 122.772 59.8456 122.772 60.4287C122.772 61.0118 123.248 61.4883 123.831 61.4883C124.415 61.4883 124.891 61.0118 124.891 60.4287Z" stroke="black" stroke-width="0.288399" stroke-miterlimit="22.9256"/>
<path d="M128.6 56.1936C128.6 55.6105 128.123 55.134 127.54 55.134C126.957 55.134 126.48 55.6105 126.48 56.1936C126.48 56.7767 126.957 57.2531 127.54 57.2531C128.123 57.2531 128.6 56.7767 128.6 56.1936Z" fill="#FF0000"/>
<path d="M127.54 56.1936H128.6M128.6 56.1936C128.6 55.6105 128.123 55.134 127.54 55.134C126.957 55.134 126.48 55.6105 126.48 56.1936C126.48 56.7767 126.957 57.2531 127.54 57.2531C128.123 57.2531 128.6 56.7767 128.6 56.1936Z" stroke="black" stroke-width="0.288399" stroke-miterlimit="22.9256"/>
<path d="M131.245 52.4882L145.013 39.25" stroke="#FF0000" stroke-width="0.288399" stroke-miterlimit="22.9256"/>
<path d="M123.831 91.1463L139.189 75.2593" stroke="#FF0000" stroke-width="0.288399" stroke-miterlimit="22.9256"/>
<path d="M143.957 71.5508C143.957 70.9677 143.48 70.4912 142.897 70.4912C142.314 70.4912 141.838 70.9677 141.838 71.5508C141.838 72.1338 142.314 72.6103 142.897 72.6103C143.48 72.6103 143.957 72.1338 143.957 71.5508Z" fill="#FF0000"/>
<path d="M142.897 71.5508H143.957M143.957 71.5508C143.957 70.9677 143.48 70.4912 142.897 70.4912C142.314 70.4912 141.838 70.9677 141.838 71.5508C141.838 72.1338 142.314 72.6103 142.897 72.6103C143.48 72.6103 143.957 72.1338 143.957 71.5508Z" stroke="black" stroke-width="0.288399" stroke-miterlimit="22.9256"/>
<path d="M146.599 67.8456L150.838 63.6074" stroke="#FF0000" stroke-width="0.288399" stroke-miterlimit="22.9256"/>
<path d="M123.831 121.331L127.537 117.623" stroke="#FF0000" stroke-width="0.288399" stroke-miterlimit="22.9256"/>
<path d="M132.305 113.914C132.305 113.331 131.828 112.854 131.245 112.854C130.662 112.854 130.186 113.331 130.186 113.914C130.186 114.497 130.662 114.974 131.245 114.974C131.828 114.974 132.305 114.497 132.305 113.914Z" fill="#FF0000"/>
<path d="M131.245 113.914H132.305M132.305 113.914C132.305 113.331 131.828 112.854 131.245 112.854C130.662 112.854 130.186 113.331 130.186 113.914C130.186 114.497 130.662 114.974 131.245 114.974C131.828 114.974 132.305 114.497 132.305 113.914Z" stroke="black" stroke-width="0.288399" stroke-miterlimit="22.9256"/>
<path d="M135.48 109.679L150.838 94.3218" stroke="#FF0000" stroke-width="0.288399" stroke-miterlimit="22.9256"/>
<path d="M123.831 152.043L142.894 132.98" stroke="#FF0000" stroke-width="0.288399" stroke-miterlimit="22.9256"/>
<path d="M147.662 128.742C147.662 128.159 147.186 127.682 146.603 127.682C146.019 127.682 145.543 128.159 145.543 128.742C145.543 129.325 146.019 129.801 146.603 129.801C147.186 129.801 147.662 129.325 147.662 128.742Z" fill="#FF0000"/>
<path d="M146.603 128.742H147.662M147.662 128.742C147.662 128.159 147.186 127.682 146.603 127.682C146.019 127.682 145.543 128.159 145.543 128.742C145.543 129.325 146.019 129.801 146.603 129.801C147.186 129.801 147.662 129.325 147.662 128.742Z" stroke="black" stroke-width="0.288399" stroke-miterlimit="22.9256"/>
<path d="M150.308 125.037H150.838" stroke="#FF0000" stroke-width="0.288399" stroke-miterlimit="22.9256"/>
<path d="M123.831 182.757L131.245 174.813" stroke="#FF0000" stroke-width="0.288399" stroke-miterlimit="22.9256"/>
<path d="M136.54 171.105C136.54 170.522 136.063 170.045 135.48 170.045C134.897 170.045 134.421 170.522 134.421 171.105C134.421 171.688 134.897 172.165 135.48 172.165C136.063 172.165 136.54 171.688 136.54 171.105Z" fill="#FF0000"/>
<path d="M135.48 171.105H136.54M136.54 171.105C136.54 170.522 136.063 170.045 135.48 170.045C134.897 170.045 134.421 170.522 134.421 171.105C134.421 171.688 134.897 172.165 135.48 172.165C136.063 172.165 136.54 171.688 136.54 171.105Z" stroke="black" stroke-width="0.288399" stroke-miterlimit="22.9256"/>
<path d="M139.189 167.4L150.838 155.221" stroke="#FF0000" stroke-width="0.288399" stroke-miterlimit="22.9256"/>
<path d="M124.891 212.938C124.891 212.355 124.415 211.879 123.831 211.879C123.248 211.879 122.772 212.355 122.772 212.938C122.772 213.522 123.248 213.998 123.831 213.998C124.415 213.998 124.891 213.522 124.891 212.938Z" fill="#FF0000"/>
<path d="M123.831 212.938H124.891M124.891 212.938C124.891 212.355 124.415 211.879 123.831 211.879C123.248 211.879 122.772 212.355 122.772 212.938C122.772 213.522 123.248 213.998 123.831 213.998C124.415 213.998 124.891 213.522 124.891 212.938Z" stroke="black" stroke-width="0.288399" stroke-miterlimit="22.9256"/>
<path d="M127.537 209.233L146.599 190.171" stroke="#FF0000" stroke-width="0.288399" stroke-miterlimit="22.9256"/>
<path d="M151.371 186.462C151.371 185.879 150.894 185.403 150.311 185.403C149.728 185.403 149.251 185.879 149.251 186.462C149.251 187.045 149.728 187.522 150.311 187.522C150.894 187.522 151.371 187.045 151.371 186.462Z" fill="#FF0000"/>
<path d="M150.311 186.462H151.371M151.371 186.462C151.371 185.879 150.894 185.403 150.311 185.403C149.728 185.403 149.251 185.879 149.251 186.462C149.251 187.045 149.728 187.522 150.311 187.522C150.894 187.522 151.371 187.045 151.371 186.462Z" stroke="black" stroke-width="0.288399" stroke-miterlimit="22.9256"/>
<path d="M123.831 243.656L135.48 232.004" stroke="#FF0000" stroke-width="0.288399" stroke-miterlimit="22.9256"/>
<path d="M140.248 228.296C140.248 227.713 139.772 227.236 139.189 227.236C138.606 227.236 138.129 227.713 138.129 228.296C138.129 228.879 138.606 229.355 139.189 229.355C139.772 229.355 140.248 228.879 140.248 228.296Z" fill="#FF0000"/>
<path d="M139.189 228.296H140.248M140.248 228.296C140.248 227.713 139.772 227.236 139.189 227.236C138.606 227.236 138.129 227.713 138.129 228.296C138.129 228.879 138.606 229.355 139.189 229.355C139.772 229.355 140.248 228.879 140.248 228.296Z" stroke="black" stroke-width="0.288399" stroke-miterlimit="22.9256"/>
<path d="M142.894 224.59L150.838 216.647" stroke="#FF0000" stroke-width="0.288399" stroke-miterlimit="22.9256"/>
<path d="M123.831 274.368V273.838" stroke="#FF0000" stroke-width="0.288399" stroke-miterlimit="22.9256"/>
<path d="M128.6 270.129C128.6 269.546 128.123 269.07 127.54 269.07C126.957 269.07 126.48 269.546 126.48 270.129C126.48 270.712 126.957 271.189 127.54 271.189C128.123 271.189 128.6 270.712 128.6 270.129Z" fill="#FF0000"/>
<path d="M127.54 270.129H128.6M128.6 270.129C128.6 269.546 128.123 269.07 127.54 269.07C126.957 269.07 126.48 269.546 126.48 270.129C126.48 270.712 126.957 271.189 127.54 271.189C128.123 271.189 128.6 270.712 128.6 270.129Z" stroke="black" stroke-width="0.288399" stroke-miterlimit="22.9256"/>
<path d="M131.245 266.424L150.308 247.362" stroke="#FF0000" stroke-width="0.288399" stroke-miterlimit="22.9256"/>
<path d="M123.831 304.553L139.189 289.195" stroke="#FF0000" stroke-width="0.288399" stroke-miterlimit="22.9256"/>
<path d="M143.957 285.487C143.957 284.904 143.48 284.427 142.897 284.427C142.314 284.427 141.838 284.904 141.838 285.487C141.838 286.07 142.314 286.546 142.897 286.546C143.48 286.546 143.957 286.07 143.957 285.487Z" fill="#FF0000"/>
<path d="M142.897 285.487H143.957M143.957 285.487C143.957 284.904 143.48 284.427 142.897 284.427C142.314 284.427 141.838 284.904 141.838 285.487C141.838 286.07 142.314 286.546 142.897 286.546C143.48 286.546 143.957 286.07 143.957 285.487Z" stroke="black" stroke-width="0.288399" stroke-miterlimit="22.9256"/>
<path d="M146.599 281.781L150.838 277.546" stroke="#FF0000" stroke-width="0.288399" stroke-miterlimit="22.9256"/>
<path d="M123.831 335.267L127.537 331.559" stroke="#FF0000" stroke-width="0.288399" stroke-miterlimit="22.9256"/>
<path d="M132.305 327.32C132.305 326.737 131.828 326.261 131.245 326.261C130.662 326.261 130.186 326.737 130.186 327.32C130.186 327.903 130.662 328.38 131.245 328.38C131.828 328.38 132.305 327.903 132.305 327.32Z" fill="#FF0000"/>
<path d="M131.245 327.32H132.305M132.305 327.32C132.305 326.737 131.828 326.261 131.245 326.261C130.662 326.261 130.186 326.737 130.186 327.32C130.186 327.903 130.662 328.38 131.245 328.38C131.828 328.38 132.305 327.903 132.305 327.32Z" stroke="black" stroke-width="0.288399" stroke-miterlimit="22.9256"/>
<path d="M135.48 323.615L150.838 308.258" stroke="#FF0000" stroke-width="0.288399" stroke-miterlimit="22.9256"/>
<path d="M123.831 365.979L142.894 346.386" stroke="#FF0000" stroke-width="0.288399" stroke-miterlimit="22.9256"/>
<path d="M147.662 342.678C147.662 342.095 147.186 341.618 146.603 341.618C146.019 341.618 145.543 342.095 145.543 342.678C145.543 343.261 146.019 343.737 146.603 343.737C147.186 343.737 147.662 343.261 147.662 342.678Z" fill="#FF0000"/>
<path d="M146.603 342.678H147.662M147.662 342.678C147.662 342.095 147.186 341.618 146.603 341.618C146.019 341.618 145.543 342.095 145.543 342.678C145.543 343.261 146.019 343.737 146.603 343.737C147.186 343.737 147.662 343.261 147.662 342.678Z" stroke="black" stroke-width="0.288399" stroke-miterlimit="22.9256"/>
<path d="M150.308 338.972L150.838 338.442" stroke="#FF0000" stroke-width="0.288399" stroke-miterlimit="22.9256"/>
<path d="M123.831 396.163L131.245 388.75" stroke="#FF0000" stroke-width="0.288399" stroke-miterlimit="22.9256"/>
<path d="M136.54 385.041C136.54 384.458 136.063 383.981 135.48 383.981C134.897 383.981 134.421 384.458 134.421 385.041C134.421 385.624 134.897 386.101 135.48 386.101C136.063 386.101 136.54 385.624 136.54 385.041Z" fill="#FF0000"/>
<path d="M135.48 385.041H136.54M136.54 385.041C136.54 384.458 136.063 383.981 135.48 383.981C134.897 383.981 134.421 384.458 134.421 385.041C134.421 385.624 134.897 386.101 135.48 386.101C136.063 386.101 136.54 385.624 136.54 385.041Z" stroke="black" stroke-width="0.288399" stroke-miterlimit="22.9256"/>
<path d="M139.189 380.806L150.838 369.157" stroke="#FF0000" stroke-width="0.288399" stroke-miterlimit="22.9256"/>
<path d="M124.891 426.874C124.891 426.291 124.415 425.815 123.831 425.815C123.248 425.815 122.772 426.291 122.772 426.874C122.772 427.458 123.248 427.934 123.831 427.934C124.415 427.934 124.891 427.458 124.891 426.874Z" fill="#FF0000"/>
<path d="M123.831 426.874H124.891M124.891 426.874C124.891 426.291 124.415 425.815 123.831 425.815C123.248 425.815 122.772 426.291 122.772 426.874C122.772 427.458 123.248 427.934 123.831 427.934C124.415 427.934 124.891 427.458 124.891 426.874Z" stroke="black" stroke-width="0.288399" stroke-miterlimit="22.9256"/>
<path d="M127.537 423.173L146.599 404.107" stroke="#FF0000" stroke-width="0.288399" stroke-miterlimit="22.9256"/>
<path d="M151.371 399.869C151.371 399.286 150.894 398.809 150.311 398.809C149.728 398.809 149.251 399.286 149.251 399.869C149.251 400.452 149.728 400.928 150.311 400.928C150.894 400.928 151.371 400.452 151.371 399.869Z" fill="#FF0000"/>
<path d="M150.311 399.869H151.371M151.371 399.869C151.371 399.286 150.894 398.809 150.311 398.809C149.728 398.809 149.251 399.286 149.251 399.869C149.251 400.452 149.728 400.928 150.311 400.928C150.894 400.928 151.371 400.452 151.371 399.869Z" stroke="black" stroke-width="0.288399" stroke-miterlimit="22.9256"/>
<path d="M142.894 438.527L150.838 430.053" stroke="#FF0000" stroke-width="0.288399" stroke-miterlimit="22.9256"/>
<path d="M123.831 39.25H150.838V440.646H123.831V39.25Z" stroke="#FF0000" stroke-width="0.288399" stroke-miterlimit="22.9256"/>
<path d="M1048.94 45.0744L1054.77 39.25" stroke="#FF0000" stroke-width="0.288399" stroke-miterlimit="22.9256"/>
<path d="M1048.94 75.7891L1075.95 48.2532" stroke="#FF0000" stroke-width="0.288399" stroke-miterlimit="22.9256"/>
<path d="M1048.94 105.974L1075.95 78.9646" stroke="#FF0000" stroke-width="0.288399" stroke-miterlimit="22.9256"/>
<path d="M1048.94 136.685L1075.95 109.679" stroke="#FF0000" stroke-width="0.288399" stroke-miterlimit="22.9256"/>
<path d="M1048.94 167.4L1075.95 139.864" stroke="#FF0000" stroke-width="0.288399" stroke-miterlimit="22.9256"/>
<path d="M1048.94 197.585L1075.95 170.579" stroke="#FF0000" stroke-width="0.288399" stroke-miterlimit="22.9256"/>
<path d="M1048.94 228.299L1075.95 201.29" stroke="#FF0000" stroke-width="0.288399" stroke-miterlimit="22.9256"/>
<path d="M1048.94 259.01L1075.95 231.475" stroke="#FF0000" stroke-width="0.288399" stroke-miterlimit="22.9256"/>
<path d="M1048.94 289.725L1075.95 262.189" stroke="#FF0000" stroke-width="0.288399" stroke-miterlimit="22.9256"/>
<path d="M1048.94 319.91L1075.95 292.904" stroke="#FF0000" stroke-width="0.288399" stroke-miterlimit="22.9256"/>
<path d="M1048.94 350.621L1075.95 323.615" stroke="#FF0000" stroke-width="0.288399" stroke-miterlimit="22.9256"/>
<path d="M1048.94 381.336L1075.95 353.8" stroke="#FF0000" stroke-width="0.288399" stroke-miterlimit="22.9256"/>
<path d="M1048.94 411.521L1075.95 384.515" stroke="#FF0000" stroke-width="0.288399" stroke-miterlimit="22.9256"/>
<path d="M1050.53 440.646L1075.95 415.229" stroke="#FF0000" stroke-width="0.288399" stroke-miterlimit="22.9256"/>
<path d="M1050.01 60.4287C1050.01 59.8456 1049.53 59.3691 1048.95 59.3691C1048.36 59.3691 1047.89 59.8456 1047.89 60.4287C1047.89 61.0118 1048.36 61.4883 1048.95 61.4883C1049.53 61.4883 1050.01 61.0118 1050.01 60.4287Z" fill="#FF0000"/>
<path d="M1048.95 60.4287H1050.01M1050.01 60.4287C1050.01 59.8456 1049.53 59.3691 1048.95 59.3691C1048.36 59.3691 1047.89 59.8456 1047.89 60.4287C1047.89 61.0118 1048.36 61.4883 1048.95 61.4883C1049.53 61.4883 1050.01 61.0118 1050.01 60.4287Z" stroke="black" stroke-width="0.288399" stroke-miterlimit="22.9256"/>
<path d="M1053.72 56.1936C1053.72 55.6105 1053.24 55.134 1052.66 55.134C1052.07 55.134 1051.6 55.6105 1051.6 56.1936C1051.6 56.7767 1052.07 57.2531 1052.66 57.2531C1053.24 57.2531 1053.72 56.7767 1053.72 56.1936Z" fill="#FF0000"/>
<path d="M1052.66 56.1936H1053.72M1053.72 56.1936C1053.72 55.6105 1053.24 55.134 1052.66 55.134C1052.07 55.134 1051.6 55.6105 1051.6 56.1936C1051.6 56.7767 1052.07 57.2531 1052.66 57.2531C1053.24 57.2531 1053.72 56.7767 1053.72 56.1936Z" stroke="black" stroke-width="0.288399" stroke-miterlimit="22.9256"/>
<path d="M1056.89 52.4882L1070.13 39.25" stroke="#FF0000" stroke-width="0.288399" stroke-miterlimit="22.9256"/>
<path d="M1048.94 91.1463L1064.31 75.2593" stroke="#FF0000" stroke-width="0.288399" stroke-miterlimit="22.9256"/>
<path d="M1069.07 71.5508C1069.07 70.9677 1068.59 70.4912 1068.01 70.4912C1067.43 70.4912 1066.95 70.9677 1066.95 71.5508C1066.95 72.1338 1067.43 72.6103 1068.01 72.6103C1068.59 72.6103 1069.07 72.1338 1069.07 71.5508Z" fill="#FF0000"/>
<path d="M1068.01 71.5508H1069.07M1069.07 71.5508C1069.07 70.9677 1068.59 70.4912 1068.01 70.4912C1067.43 70.4912 1066.95 70.9677 1066.95 71.5508C1066.95 72.1338 1067.43 72.6103 1068.01 72.6103C1068.59 72.6103 1069.07 72.1338 1069.07 71.5508Z" stroke="black" stroke-width="0.288399" stroke-miterlimit="22.9256"/>
<path d="M1072.25 67.8456L1075.95 63.6074" stroke="#FF0000" stroke-width="0.288399" stroke-miterlimit="22.9256"/>
<path d="M1048.94 121.331L1052.65 117.623" stroke="#FF0000" stroke-width="0.288399" stroke-miterlimit="22.9256"/>
<path d="M1057.95 113.914C1057.95 113.331 1057.47 112.854 1056.89 112.854C1056.31 112.854 1055.83 113.331 1055.83 113.914C1055.83 114.497 1056.31 114.974 1056.89 114.974C1057.47 114.974 1057.95 114.497 1057.95 113.914Z" fill="#FF0000"/>
<path d="M1056.89 113.914H1057.95M1057.95 113.914C1057.95 113.331 1057.47 112.854 1056.89 112.854C1056.31 112.854 1055.83 113.331 1055.83 113.914C1055.83 114.497 1056.31 114.974 1056.89 114.974C1057.47 114.974 1057.95 114.497 1057.95 113.914Z" stroke="black" stroke-width="0.288399" stroke-miterlimit="22.9256"/>
<path d="M1060.6 109.679L1075.95 94.3218" stroke="#FF0000" stroke-width="0.288399" stroke-miterlimit="22.9256"/>
<path d="M1048.94 152.043L1068.01 132.98" stroke="#FF0000" stroke-width="0.288399" stroke-miterlimit="22.9256"/>
<path d="M1073.31 128.742C1073.31 128.159 1072.83 127.682 1072.25 127.682C1071.67 127.682 1071.19 128.159 1071.19 128.742C1071.19 129.325 1071.67 129.801 1072.25 129.801C1072.83 129.801 1073.31 129.325 1073.31 128.742Z" fill="#FF0000"/>
<path d="M1072.25 128.742H1073.31M1073.31 128.742C1073.31 128.159 1072.83 127.682 1072.25 127.682C1071.67 127.682 1071.19 128.159 1071.19 128.742C1071.19 129.325 1071.67 129.801 1072.25 129.801C1072.83 129.801 1073.31 129.325 1073.31 128.742Z" stroke="black" stroke-width="0.288399" stroke-miterlimit="22.9256"/>
<path d="M1077.01 125.037C1077.01 124.454 1076.54 123.977 1075.95 123.977C1075.37 123.977 1074.89 124.454 1074.89 125.037C1074.89 125.62 1075.37 126.096 1075.95 126.096C1076.54 126.096 1077.01 125.62 1077.01 125.037Z" fill="#FF0000"/>
<path d="M1075.95 125.037H1077.01M1077.01 125.037C1077.01 124.454 1076.54 123.977 1075.95 123.977C1075.37 123.977 1074.89 124.454 1074.89 125.037C1074.89 125.62 1075.37 126.096 1075.95 126.096C1076.54 126.096 1077.01 125.62 1077.01 125.037Z" stroke="black" stroke-width="0.288399" stroke-miterlimit="22.9256"/>
<path d="M1048.94 182.757L1056.89 174.813" stroke="#FF0000" stroke-width="0.288399" stroke-miterlimit="22.9256"/>
<path d="M1061.66 171.105C1061.66 170.522 1061.18 170.045 1060.6 170.045C1060.02 170.045 1059.54 170.522 1059.54 171.105C1059.54 171.688 1060.02 172.165 1060.6 172.165C1061.18 172.165 1061.66 171.688 1061.66 171.105Z" fill="#FF0000"/>
<path d="M1060.6 171.105H1061.66M1061.66 171.105C1061.66 170.522 1061.18 170.045 1060.6 170.045C1060.02 170.045 1059.54 170.522 1059.54 171.105C1059.54 171.688 1060.02 172.165 1060.6 172.165C1061.18 172.165 1061.66 171.688 1061.66 171.105Z" stroke="black" stroke-width="0.288399" stroke-miterlimit="22.9256"/>
<path d="M1064.31 167.4L1075.95 155.221" stroke="#FF0000" stroke-width="0.288399" stroke-miterlimit="22.9256"/>
<path d="M1050.01 212.938C1050.01 212.355 1049.53 211.879 1048.95 211.879C1048.36 211.879 1047.89 212.355 1047.89 212.938C1047.89 213.522 1048.36 213.998 1048.95 213.998C1049.53 213.998 1050.01 213.522 1050.01 212.938Z" fill="#FF0000"/>
<path d="M1048.95 212.938H1050.01M1050.01 212.938C1050.01 212.355 1049.53 211.879 1048.95 211.879C1048.36 211.879 1047.89 212.355 1047.89 212.938C1047.89 213.522 1048.36 213.998 1048.95 213.998C1049.53 213.998 1050.01 213.522 1050.01 212.938Z" stroke="black" stroke-width="0.288399" stroke-miterlimit="22.9256"/>
<path d="M1052.65 209.233L1072.25 190.171" stroke="#FF0000" stroke-width="0.288399" stroke-miterlimit="22.9256"/>
<path d="M1077.01 186.462C1077.01 185.879 1076.54 185.403 1075.95 185.403C1075.37 185.403 1074.89 185.879 1074.89 186.462C1074.89 187.045 1075.37 187.522 1075.95 187.522C1076.54 187.522 1077.01 187.045 1077.01 186.462Z" fill="#FF0000"/>
<path d="M1075.95 186.462H1077.01M1077.01 186.462C1077.01 185.879 1076.54 185.403 1075.95 185.403C1075.37 185.403 1074.89 185.879 1074.89 186.462C1074.89 187.045 1075.37 187.522 1075.95 187.522C1076.54 187.522 1077.01 187.045 1077.01 186.462Z" stroke="black" stroke-width="0.288399" stroke-miterlimit="22.9256"/>
<path d="M1048.94 243.656L1060.6 232.004" stroke="#FF0000" stroke-width="0.288399" stroke-miterlimit="22.9256"/>
<path d="M1065.36 228.296C1065.36 227.713 1064.89 227.236 1064.31 227.236C1063.72 227.236 1063.25 227.713 1063.25 228.296C1063.25 228.879 1063.72 229.355 1064.31 229.355C1064.89 229.355 1065.36 228.879 1065.36 228.296Z" fill="#FF0000"/>
<path d="M1064.31 228.296H1065.36M1065.36 228.296C1065.36 227.713 1064.89 227.236 1064.31 227.236C1063.72 227.236 1063.25 227.713 1063.25 228.296C1063.25 228.879 1063.72 229.355 1064.31 229.355C1064.89 229.355 1065.36 228.879 1065.36 228.296Z" stroke="black" stroke-width="0.288399" stroke-miterlimit="22.9256"/>
<path d="M1068.01 224.59L1075.95 216.647" stroke="#FF0000" stroke-width="0.288399" stroke-miterlimit="22.9256"/>
<path d="M1048.94 274.368V273.838" stroke="#FF0000" stroke-width="0.288399" stroke-miterlimit="22.9256"/>
<path d="M1053.72 270.129C1053.72 269.546 1053.24 269.07 1052.66 269.07C1052.07 269.07 1051.6 269.546 1051.6 270.129C1051.6 270.712 1052.07 271.189 1052.66 271.189C1053.24 271.189 1053.72 270.712 1053.72 270.129Z" fill="#FF0000"/>
<path d="M1052.66 270.129H1053.72M1053.72 270.129C1053.72 269.546 1053.24 269.07 1052.66 269.07C1052.07 269.07 1051.6 269.546 1051.6 270.129C1051.6 270.712 1052.07 271.189 1052.66 271.189C1053.24 271.189 1053.72 270.712 1053.72 270.129Z" stroke="black" stroke-width="0.288399" stroke-miterlimit="22.9256"/>
<path d="M1056.89 266.424L1075.95 247.362" stroke="#FF0000" stroke-width="0.288399" stroke-miterlimit="22.9256"/>
<path d="M1048.94 304.553L1064.31 289.195" stroke="#FF0000" stroke-width="0.288399" stroke-miterlimit="22.9256"/>
<path d="M1069.07 285.487C1069.07 284.904 1068.59 284.427 1068.01 284.427C1067.43 284.427 1066.95 284.904 1066.95 285.487C1066.95 286.07 1067.43 286.546 1068.01 286.546C1068.59 286.546 1069.07 286.07 1069.07 285.487Z" fill="#FF0000"/>
<path d="M1068.01 285.487H1069.07M1069.07 285.487C1069.07 284.904 1068.59 284.427 1068.01 284.427C1067.43 284.427 1066.95 284.904 1066.95 285.487C1066.95 286.07 1067.43 286.546 1068.01 286.546C1068.59 286.546 1069.07 286.07 1069.07 285.487Z" stroke="black" stroke-width="0.288399" stroke-miterlimit="22.9256"/>
<path d="M1072.25 281.781L1075.95 277.546" stroke="#FF0000" stroke-width="0.288399" stroke-miterlimit="22.9256"/>
<path d="M1048.94 335.267L1052.65 331.559" stroke="#FF0000" stroke-width="0.288399" stroke-miterlimit="22.9256"/>
<path d="M1057.95 327.32C1057.95 326.737 1057.47 326.261 1056.89 326.261C1056.31 326.261 1055.83 326.737 1055.83 327.32C1055.83 327.903 1056.31 328.38 1056.89 328.38C1057.47 328.38 1057.95 327.903 1057.95 327.32Z" fill="#FF0000"/>
<path d="M1056.89 327.32H1057.95M1057.95 327.32C1057.95 326.737 1057.47 326.261 1056.89 326.261C1056.31 326.261 1055.83 326.737 1055.83 327.32C1055.83 327.903 1056.31 328.38 1056.89 328.38C1057.47 328.38 1057.95 327.903 1057.95 327.32Z" stroke="black" stroke-width="0.288399" stroke-miterlimit="22.9256"/>
<path d="M1060.6 323.615L1075.95 308.258" stroke="#FF0000" stroke-width="0.288399" stroke-miterlimit="22.9256"/>
<path d="M1048.94 365.979L1068.01 346.386" stroke="#FF0000" stroke-width="0.288399" stroke-miterlimit="22.9256"/>
<path d="M1073.31 342.678C1073.31 342.095 1072.83 341.618 1072.25 341.618C1071.67 341.618 1071.19 342.095 1071.19 342.678C1071.19 343.261 1071.67 343.737 1072.25 343.737C1072.83 343.737 1073.31 343.261 1073.31 342.678Z" fill="#FF0000"/>
<path d="M1072.25 342.678H1073.31M1073.31 342.678C1073.31 342.095 1072.83 341.618 1072.25 341.618C1071.67 341.618 1071.19 342.095 1071.19 342.678C1071.19 343.261 1071.67 343.737 1072.25 343.737C1072.83 343.737 1073.31 343.261 1073.31 342.678Z" stroke="black" stroke-width="0.288399" stroke-miterlimit="22.9256"/>
<path d="M1075.95 338.972V338.442" stroke="#FF0000" stroke-width="0.288399" stroke-miterlimit="22.9256"/>
<path d="M1048.94 396.163L1056.89 388.75" stroke="#FF0000" stroke-width="0.288399" stroke-miterlimit="22.9256"/>
<path d="M1061.66 385.041C1061.66 384.458 1061.18 383.981 1060.6 383.981C1060.02 383.981 1059.54 384.458 1059.54 385.041C1059.54 385.624 1060.02 386.101 1060.6 386.101C1061.18 386.101 1061.66 385.624 1061.66 385.041Z" fill="#FF0000"/>
<path d="M1060.6 385.041H1061.66M1061.66 385.041C1061.66 384.458 1061.18 383.981 1060.6 383.981C1060.02 383.981 1059.54 384.458 1059.54 385.041C1059.54 385.624 1060.02 386.101 1060.6 386.101C1061.18 386.101 1061.66 385.624 1061.66 385.041Z" stroke="black" stroke-width="0.288399" stroke-miterlimit="22.9256"/>
<path d="M1064.31 380.806L1075.95 369.157" stroke="#FF0000" stroke-width="0.288399" stroke-miterlimit="22.9256"/>
<path d="M1050.01 426.874C1050.01 426.291 1049.53 425.815 1048.95 425.815C1048.36 425.815 1047.89 426.291 1047.89 426.874C1047.89 427.458 1048.36 427.934 1048.95 427.934C1049.53 427.934 1050.01 427.458 1050.01 426.874Z" fill="#FF0000"/>
<path d="M1048.95 426.874H1050.01M1050.01 426.874C1050.01 426.291 1049.53 425.815 1048.95 425.815C1048.36 425.815 1047.89 426.291 1047.89 426.874C1047.89 427.458 1048.36 427.934 1048.95 427.934C1049.53 427.934 1050.01 427.458 1050.01 426.874Z" stroke="black" stroke-width="0.288399" stroke-miterlimit="22.9256"/>
<path d="M1052.65 423.173L1072.25 404.107" stroke="#FF0000" stroke-width="0.288399" stroke-miterlimit="22.9256"/>
<path d="M1077.01 399.869C1077.01 399.286 1076.54 398.809 1075.95 398.809C1075.37 398.809 1074.89 399.286 1074.89 399.869C1074.89 400.452 1075.37 400.928 1075.95 400.928C1076.54 400.928 1077.01 400.452 1077.01 399.869Z" fill="#FF0000"/>
<path d="M1075.95 399.869H1077.01M1077.01 399.869C1077.01 399.286 1076.54 398.809 1075.95 398.809C1075.37 398.809 1074.89 399.286 1074.89 399.869C1074.89 400.452 1075.37 400.928 1075.95 400.928C1076.54 400.928 1077.01 400.452 1077.01 399.869Z" stroke="black" stroke-width="0.288399" stroke-miterlimit="22.9256"/>
<path d="M1068.01 438.527L1075.95 430.053" stroke="#FF0000" stroke-width="0.288399" stroke-miterlimit="22.9256"/>
<path d="M1048.94 440.646V39.25H1075.95V440.646" stroke="#FF0000" stroke-width="0.288399" stroke-miterlimit="22.9256"/>
<path d="M160.37 471.36L154.543 465.533" stroke="#FF0000" stroke-width="0.288399" stroke-miterlimit="22.9256"/>
<path d="M190.552 471.36L163.546 443.824" stroke="#FF0000" stroke-width="0.288399" stroke-miterlimit="22.9256"/>
<path d="M221.267 471.36L194.261 443.824" stroke="#FF0000" stroke-width="0.288399" stroke-miterlimit="22.9256"/>
<path d="M251.981 471.36L224.445 443.824" stroke="#FF0000" stroke-width="0.288399" stroke-miterlimit="22.9256"/>
<path d="M282.166 471.36L255.16 443.824" stroke="#FF0000" stroke-width="0.288399" stroke-miterlimit="22.9256"/>
<path d="M312.877 471.36L285.871 443.824" stroke="#FF0000" stroke-width="0.288399" stroke-miterlimit="22.9256"/>
<path d="M343.592 471.36L316.056 443.824" stroke="#FF0000" stroke-width="0.288399" stroke-miterlimit="22.9256"/>
<path d="M373.777 471.36L346.771 443.824" stroke="#FF0000" stroke-width="0.288399" stroke-miterlimit="22.9256"/>
<path d="M382.25 449.119L377.485 443.824" stroke="#FF0000" stroke-width="0.288399" stroke-miterlimit="22.9256"/>
<path d="M175.728 471.36H175.198" stroke="#FF0000" stroke-width="0.288399" stroke-miterlimit="22.9256"/>
<path d="M172.549 467.122C172.549 466.539 172.073 466.062 171.49 466.062C170.906 466.062 170.43 466.539 170.43 467.122C170.43 467.705 170.906 468.182 171.49 468.182C172.073 468.182 172.549 467.705 172.549 467.122Z" fill="#FF0000"/>
<path d="M171.49 467.122H172.549M172.549 467.122C172.549 466.539 172.073 466.062 171.49 466.062C170.906 466.062 170.43 466.539 170.43 467.122C170.43 467.705 170.906 468.182 171.49 468.182C172.073 468.182 172.549 467.705 172.549 467.122Z" stroke="black" stroke-width="0.288399" stroke-miterlimit="22.9256"/>
<path d="M167.784 463.417L154.543 450.179" stroke="#FF0000" stroke-width="0.288399" stroke-miterlimit="22.9256"/>
<path d="M205.909 471.36L190.552 456.003" stroke="#FF0000" stroke-width="0.288399" stroke-miterlimit="22.9256"/>
<path d="M187.906 451.765C187.906 451.182 187.43 450.705 186.847 450.705C186.264 450.705 185.787 451.182 185.787 451.765C185.787 452.348 186.264 452.824 186.847 452.824C187.43 452.824 187.906 452.348 187.906 451.765Z" fill="#FF0000"/>
<path d="M186.847 451.765H187.906M187.906 451.765C187.906 451.182 187.43 450.705 186.847 450.705C186.264 450.705 185.787 451.182 185.787 451.765C185.787 452.348 186.264 452.824 186.847 452.824C187.43 452.824 187.906 452.348 187.906 451.765Z" stroke="black" stroke-width="0.288399" stroke-miterlimit="22.9256"/>
<path d="M183.138 448.059L178.903 443.824" stroke="#FF0000" stroke-width="0.288399" stroke-miterlimit="22.9256"/>
<path d="M236.624 471.36L232.389 467.122" stroke="#FF0000" stroke-width="0.288399" stroke-miterlimit="22.9256"/>
<path d="M229.743 463.414C229.743 462.83 229.267 462.354 228.683 462.354C228.1 462.354 227.624 462.83 227.624 463.414C227.624 463.997 228.1 464.473 228.683 464.473C229.267 464.473 229.743 463.997 229.743 463.414Z" fill="#FF0000"/>
<path d="M228.683 463.414H229.743M229.743 463.414C229.743 462.83 229.267 462.354 228.683 462.354C228.1 462.354 227.624 462.83 227.624 463.414C227.624 463.997 228.1 464.473 228.683 464.473C229.267 464.473 229.743 463.997 229.743 463.414Z" stroke="black" stroke-width="0.288399" stroke-miterlimit="22.9256"/>
<path d="M224.975 459.708L209.088 443.824" stroke="#FF0000" stroke-width="0.288399" stroke-miterlimit="22.9256"/>
<path d="M266.809 471.36L247.743 451.768" stroke="#FF0000" stroke-width="0.288399" stroke-miterlimit="22.9256"/>
<path d="M245.1 448.056C245.1 447.473 244.624 446.997 244.041 446.997C243.458 446.997 242.981 447.473 242.981 448.056C242.981 448.639 243.458 449.116 244.041 449.116C244.624 449.116 245.1 448.639 245.1 448.056Z" fill="#FF0000"/>
<path d="M244.041 448.056H245.1M245.1 448.056C245.1 447.473 244.624 446.997 244.041 446.997C243.458 446.997 242.981 447.473 242.981 448.056C242.981 448.639 243.458 449.116 244.041 449.116C244.624 449.116 245.1 448.639 245.1 448.056Z" stroke="black" stroke-width="0.288399" stroke-miterlimit="22.9256"/>
<path d="M240.329 444.351L239.803 443.824" stroke="#FF0000" stroke-width="0.288399" stroke-miterlimit="22.9256"/>
<path d="M297.52 471.361L290.109 463.417" stroke="#FF0000" stroke-width="0.288399" stroke-miterlimit="22.9256"/>
<path d="M286.934 459.708C286.934 459.125 286.457 458.649 285.874 458.649C285.291 458.649 284.815 459.125 284.815 459.708C284.815 460.292 285.291 460.768 285.874 460.768C286.457 460.768 286.934 460.292 286.934 459.708Z" fill="#FF0000"/>
<path d="M285.874 459.708H286.934M286.934 459.708C286.934 459.125 286.457 458.649 285.874 458.649C285.291 458.649 284.815 459.125 284.815 459.708C284.815 460.292 285.291 460.768 285.874 460.768C286.457 460.768 286.934 460.292 286.934 459.708Z" stroke="black" stroke-width="0.288399" stroke-miterlimit="22.9256"/>
<path d="M282.166 456.003L270.514 443.824" stroke="#FF0000" stroke-width="0.288399" stroke-miterlimit="22.9256"/>
<path d="M329.297 471.357C329.297 470.774 328.821 470.298 328.238 470.298C327.655 470.298 327.178 470.774 327.178 471.357C327.178 471.94 327.655 472.417 328.238 472.417C328.821 472.417 329.297 471.94 329.297 471.357Z" fill="#FF0000"/>
<path d="M328.238 471.357H329.297M329.297 471.357C329.297 470.774 328.821 470.298 328.238 470.298C327.655 470.298 327.178 470.774 327.178 471.357C327.178 471.94 327.655 472.417 328.238 472.417C328.821 472.417 329.297 471.94 329.297 471.357Z" stroke="black" stroke-width="0.288399" stroke-miterlimit="22.9256"/>
<path d="M324 467.122L304.934 448.06" stroke="#FF0000" stroke-width="0.288399" stroke-miterlimit="22.9256"/>
<path d="M302.291 444.351C302.291 443.768 301.815 443.292 301.232 443.292C300.649 443.292 300.172 443.768 300.172 444.351C300.172 444.934 300.649 445.411 301.232 445.411C301.815 445.411 302.291 444.934 302.291 444.351Z" fill="#FF0000"/>
<path d="M301.232 444.351H302.291M302.291 444.351C302.291 443.768 301.815 443.292 301.232 443.292C300.649 443.292 300.172 443.768 300.172 444.351C300.172 444.934 300.649 445.411 301.232 445.411C301.815 445.411 302.291 444.934 302.291 444.351Z" stroke="black" stroke-width="0.288399" stroke-miterlimit="22.9256"/>
<path d="M358.949 471.36L347.3 459.708" stroke="#FF0000" stroke-width="0.288399" stroke-miterlimit="22.9256"/>
<path d="M339.357 451.768L331.413 443.824" stroke="#FF0000" stroke-width="0.288399" stroke-miterlimit="22.9256"/>
<path d="M381.72 463.417L362.654 444.351" stroke="#FF0000" stroke-width="0.288399" stroke-miterlimit="22.9256"/>
<path d="M154.543 471.36V443.824H382.25V471.36H154.543Z" stroke="#FF0000" stroke-width="0.288399" stroke-miterlimit="22.9256"/>
<path d="M1045.77 464.477H984.343" stroke="black" stroke-width="0.288399" stroke-miterlimit="22.9256"/>
<path d="M916.56 464.477H912.855" stroke="black" stroke-width="0.288399" stroke-miterlimit="22.9256"/>
<path d="M1042.06 464.477H984.343" stroke="black" stroke-width="0.288399" stroke-miterlimit="22.9256"/>
<path d="M916.56 464.477H912.855" stroke="black" stroke-width="0.288399" stroke-miterlimit="22.9256"/>
<path d="M1042.06 478.244H984.343" stroke="black" stroke-width="0.288399" stroke-miterlimit="22.9256"/>
<path d="M916.56 478.244H793.705" stroke="black" stroke-width="0.288399" stroke-miterlimit="22.9256"/>
<path d="M453.739 464.477H443.676V471.361" stroke="black" stroke-width="0.288399" stroke-miterlimit="22.9256"/>
<path d="M780.467 471.36V668.35" stroke="black" stroke-width="0.288399" stroke-miterlimit="22.9256"/>
<path d="M154.543 5.36011H215.442" stroke="black" stroke-width="0.288399" stroke-miterlimit="22.9256"/>
<path d="M154.543 18.5981H215.442" stroke="black" stroke-width="0.288399" stroke-miterlimit="22.9256"/>
<path d="M674.558 464.477H669.794" stroke="#008AB8" stroke-width="0.288399" stroke-miterlimit="22.9256"/>
<path d="M793.705 682.118H0.976471" stroke="black" stroke-width="0.288399" stroke-miterlimit="22.9256"/>
<path d="M599.894 668.35H450.03" stroke="black" stroke-width="0.288399" stroke-miterlimit="22.9256"/>
<path d="M443.676 668.35H14.7444" stroke="black" stroke-width="0.288399" stroke-miterlimit="22.9256"/>
<path d="M780.345 668.472H606.656" stroke="black" stroke-width="0.288399" stroke-miterlimit="22.9256"/>
<path d="M450.03 668.35H599.894H586.123" stroke="black" stroke-width="0.288399" stroke-miterlimit="22.9256"/>
<path d="M443.676 668.35H14.7444" stroke="black" stroke-width="0.288399" stroke-miterlimit="22.9256"/>
<path d="M606.775 478.245V464.477" stroke="black" stroke-width="0.288399" stroke-miterlimit="22.9256"/>
<path d="M606.775 471.36V668.35" stroke="black" stroke-width="0.288399" stroke-miterlimit="22.9256"/>
<path d="M599.894 478.244V668.35" stroke="black" stroke-width="0.288399" stroke-miterlimit="22.9256"/>
<path d="M443.676 586.802H450.03" stroke="black" stroke-width="0.288399" stroke-miterlimit="22.9256"/>
<path d="M443.676 539.141H450.03" stroke="black" stroke-width="0.288399" stroke-miterlimit="22.9256"/>
<path d="M529.462 520.078L528.932 517.959L528.403 516.899L527.873 515.84L526.816 514.78H524.168L523.108 515.84L522.578 516.899L522.048 517.959L521.519 520.078L520.989 522.724V527.492L521.519 530.667L522.048 532.257L523.108 534.376L524.168 535.435H526.816L527.873 534.376L528.932 532.257L529.462 530.667" stroke="black" stroke-width="0.288399" stroke-miterlimit="22.9256"/>
<path d="M541.114 511.075L530.522 542.319" stroke="black" stroke-width="0.288399" stroke-miterlimit="22.9256"/>
<path d="M552.233 514.78L547.998 531.727L547.468 533.316L546.939 534.376L545.879 535.435H545.349" stroke="black" stroke-width="0.288399" stroke-miterlimit="22.9256"/>
<path d="M544.29 514.78L547.998 531.727" stroke="black" stroke-width="0.288399" stroke-miterlimit="22.9256"/>
<path d="M513.045 549.203H507.221L506.691 557.676L507.221 556.617L508.81 556.087H510.4L512.519 556.617L513.575 558.733L514.105 561.912V563.501L513.575 566.676L512.519 568.266L510.4 569.325H508.81L507.221 568.266L506.691 567.736L506.165 565.617" stroke="black" stroke-width="0.288399" stroke-miterlimit="22.9256"/>
<path d="M518.873 568.266L518.343 569.325L517.813 568.266L518.343 567.736L518.873 568.266ZM518.873 568.266V570.385L518.343 572.504L517.813 573.56" stroke="black" stroke-width="0.288399" stroke-miterlimit="22.9256"/>
<path d="M526.283 549.203L524.697 550.263L524.167 551.852V553.968L524.697 556.087L525.757 556.617L527.873 557.676L529.992 558.733L531.051 560.852L531.581 562.441V565.617L531.051 567.736L530.522 568.266L528.403 569.325H526.283L524.697 568.266L524.167 567.736L523.638 565.617V562.441L524.167 560.852L525.227 558.733L526.816 557.676L529.462 556.617L530.522 556.087L531.051 553.968V551.852L530.522 550.263L528.403 549.203H526.283Z" stroke="black" stroke-width="0.288399" stroke-miterlimit="22.9256"/>
<path d="M537.936 549.203L536.346 550.263L535.816 551.852V553.968L536.346 556.087L537.406 556.617L539.525 557.676L541.644 558.733L542.7 560.852L543.23 562.441V565.617L542.7 567.736L542.171 568.266L540.055 569.325H537.936L536.346 568.266L535.816 567.736L535.287 565.617V562.441L535.816 560.852L536.876 558.733L538.465 557.676L541.114 556.617L542.171 556.087L542.7 553.968V551.852L542.171 550.263L540.055 549.203H537.936Z" stroke="black" stroke-width="0.288399" stroke-miterlimit="22.9256"/>
<path d="M556.998 569.325V556.087L553.293 566.676L549.058 556.087V569.325" stroke="black" stroke-width="0.288399" stroke-miterlimit="22.9256"/>
<path d="M560.177 553.968V552.908L560.707 550.792L561.236 550.263L562.296 549.203H564.942L566.001 550.263L566.531 550.792L567.061 552.908V555.028L566.531 556.617L565.471 559.792L559.647 569.325H567.591" stroke="black" stroke-width="0.288399" stroke-miterlimit="22.9256"/>
<path d="M511.459 471.36H506.165" stroke="#008AB8" stroke-width="0.288399" stroke-miterlimit="22.9256"/>
<path d="M780.467 464.477H739.163" stroke="black" stroke-width="0.288399" stroke-miterlimit="22.9256"/>
<path d="M685.148 464.477H606.775" stroke="black" stroke-width="0.288399" stroke-miterlimit="22.9256"/>
<path d="M780.467 471.36H739.163" stroke="black" stroke-width="0.288399" stroke-miterlimit="22.9256"/>
<path d="M685.148 471.36H606.775" stroke="black" stroke-width="0.288399" stroke-miterlimit="22.9256"/>
<path d="M674.558 471.36H669.794" stroke="#008AB8" stroke-width="0.288399" stroke-miterlimit="22.9256"/>
<path d="M739.163 471.361V464.477" stroke="black" stroke-width="0.288399" stroke-miterlimit="22.9256"/>
<path d="M685.148 471.361V464.477" stroke="black" stroke-width="0.288399" stroke-miterlimit="22.9256"/>
<path d="M0.976471 461.298V321.499H123.832" stroke="#003FFF" stroke-width="0.288399" stroke-miterlimit="22.9256"/>
<path d="M29.0421 374.981H22.6879V395.633H27.9826L30.1017 394.577L30.6315 393.517L31.1612 391.398V388.749L30.6315 386.633L30.1017 385.574L27.9826 384.514H22.6879" stroke="black" stroke-width="0.288399" stroke-miterlimit="22.9256"/>
<path d="M34.8665 388.75H40.6941" stroke="black" stroke-width="0.288399" stroke-miterlimit="22.9256"/>
<path d="M33.2772 395.633L38.0452 374.981L42.8101 395.633" stroke="black" stroke-width="0.288399" stroke-miterlimit="22.9256"/>
<path d="M52.3429 395.633V374.981H45.9887V391.398L45.459 393.517L44.9292 394.577L43.8696 395.633" stroke="black" stroke-width="0.288399" stroke-miterlimit="22.9256"/>
<path d="M65.5811 395.634L60.2864 383.455" stroke="black" stroke-width="0.288399" stroke-miterlimit="22.9256"/>
<path d="M65.5811 374.981L57.1078 388.749" stroke="black" stroke-width="0.288399" stroke-miterlimit="22.9256"/>
<path d="M57.1078 374.981V395.633" stroke="black" stroke-width="0.288399" stroke-miterlimit="22.9256"/>
<path d="M71.9353 374.981H74.0544L75.1108 376.041L76.7001 377.63L77.2299 379.746L77.7597 382.925V387.69L77.2299 390.339L76.7001 392.455L75.1108 394.577L74.0544 395.633H71.9353L70.8757 394.577L69.2895 392.455L68.7566 390.339L68.2268 387.69V382.925L68.7566 379.746L69.2895 377.63L70.8757 376.041L71.9353 374.981Z" stroke="black" stroke-width="0.288399" stroke-miterlimit="22.9256"/>
<path d="M81.9979 374.981V395.633" stroke="black" stroke-width="0.288399" stroke-miterlimit="22.9256"/>
<path d="M81.9979 384.515H89.9414" stroke="black" stroke-width="0.288399" stroke-miterlimit="22.9256"/>
<path d="M89.9414 395.633V374.981" stroke="black" stroke-width="0.288399" stroke-miterlimit="22.9256"/>
<path d="M27.9826 408.872H34.3368L30.6315 416.815H32.2176L33.807 417.875L34.3368 418.934L34.8665 421.583V423.699L34.3368 426.348L33.2772 428.467L31.1612 429.527H29.5719L27.9826 428.467L27.4528 427.408L26.3932 425.288" stroke="black" stroke-width="0.288399" stroke-miterlimit="22.9256"/>
<path d="M39.6345 428.467L39.1048 429.527L38.5718 428.467L39.1048 427.408L39.6345 428.467ZM39.6345 428.467V430.583L39.1048 432.173L38.5718 433.232" stroke="black" stroke-width="0.288399" stroke-miterlimit="22.9256"/>
<path d="M51.2834 412.05L50.7536 409.931L48.6345 408.872H47.5749L45.9887 409.931L44.9292 413.11L44.3994 417.875V422.64L44.9292 426.348L45.9887 428.467L47.5749 429.527H48.1047L50.2238 428.467L51.2834 426.348L51.8131 423.699V422.64L51.2834 419.464L50.2238 417.875L48.1047 416.815H47.5749L45.9887 417.875L44.9292 419.464L44.3994 422.64" stroke="black" stroke-width="0.288399" stroke-miterlimit="22.9256"/>
<path d="M62.9322 408.872H57.1078L56.578 417.875L57.1078 416.815L58.6971 415.756H60.2864L62.4024 416.815L63.462 418.934L63.9917 421.583V423.699L63.462 426.348L62.4024 428.467L60.2864 429.527H58.6971L57.1078 428.467L56.578 427.408L56.0482 425.288" stroke="black" stroke-width="0.288399" stroke-miterlimit="22.9256"/>
<path d="M77.7597 429.527V415.756L74.0544 426.348L69.8162 415.756V429.527" stroke="black" stroke-width="0.288399" stroke-miterlimit="22.9256"/>
<path d="M80.9383 413.64V413.11L81.4681 410.991L81.9979 409.931L83.0543 408.872H85.7032L86.7628 409.931L87.2925 410.991L87.8223 413.11V414.696L87.2925 416.815L86.233 419.464L80.4086 429.527H88.3521" stroke="black" stroke-width="0.288399" stroke-miterlimit="22.9256"/>
<path d="M780.467 474.536V668.349" stroke="black" stroke-width="0.288399" stroke-miterlimit="22.9256"/>
<path d="M780.467 478.244V471.36" stroke="black" stroke-width="0.288399" stroke-miterlimit="22.9256"/>
<path d="M783.642 464.473C783.642 462.724 782.216 461.294 780.467 461.294C778.718 461.294 777.288 462.721 777.288 464.473C777.288 466.222 778.715 467.649 780.467 467.649C782.216 467.649 783.642 466.222 783.642 464.473Z" fill="black"/>
<path d="M780.467 464.473H783.642M783.642 464.473C783.642 462.724 782.216 461.294 780.467 461.294C778.718 461.294 777.288 462.721 777.288 464.473C777.288 466.222 778.715 467.649 780.467 467.649C782.216 467.649 783.642 466.222 783.642 464.473Z" stroke="black" stroke-width="0.288399" stroke-miterlimit="22.9256"/>
<path d="M793.705 682.118V478.244" stroke="black" stroke-width="0.288399" stroke-miterlimit="22.9256"/>
<path d="M905.971 478.244H793.705" stroke="black" stroke-width="0.288399" stroke-miterlimit="22.9256"/>
<path d="M1042.06 464.477H984.343" stroke="black" stroke-width="0.288399" stroke-miterlimit="22.9256"/>
<path d="M916.56 464.477H780.467" stroke="black" stroke-width="0.288399" stroke-miterlimit="22.9256"/>
<path d="M780.467 484.599V471.36" stroke="black" stroke-width="0.288399" stroke-miterlimit="22.9256"/>
<path d="M116.948 478.244H157.722" stroke="black" stroke-width="0.288399" stroke-miterlimit="22.9256"/>
<path d="M157.722 437.467H116.948L157.722 478.241V437.467ZM116.948 437.467L157.722 478.241H116.948V437.467Z" fill="#0000FF"/>
<path d="M116.948 437.467H157.722V478.241M116.948 437.467L157.722 478.241M116.948 437.467V478.241H157.722" stroke="#0000FF" stroke-width="0.288399" stroke-miterlimit="22.9256"/>
<path d="M157.722 437.467H116.948V478.244H157.722V437.467Z" stroke="black" stroke-width="0.288399" stroke-miterlimit="22.9256"/>
<path d="M116.948 478.244L157.722 437.467" stroke="black" stroke-width="0.288399" stroke-miterlimit="22.9256"/>
<path d="M157.722 478.244L116.948 437.467" stroke="black" stroke-width="0.288399" stroke-miterlimit="22.9256"/>
<path d="M566.001 478.244H606.775" stroke="black" stroke-width="0.288399" stroke-miterlimit="22.9256"/>
<path d="M606.775 437.467H566.001L606.775 478.241V437.467ZM566.001 437.467L606.775 478.241H566.001V437.467Z" fill="#0000FF"/>
<path d="M566.001 437.467H606.775V478.241M566.001 437.467L606.775 478.241M566.001 437.467V478.241H606.775" stroke="#0000FF" stroke-width="0.288399" stroke-miterlimit="22.9256"/>
<path d="M606.775 437.467H566.001V478.244H606.775V437.467Z" stroke="black" stroke-width="0.288399" stroke-miterlimit="22.9256"/>
<path d="M566.001 478.244L606.775 437.467" stroke="black" stroke-width="0.288399" stroke-miterlimit="22.9256"/>
<path d="M606.775 478.244L566.001 437.467" stroke="black" stroke-width="0.288399" stroke-miterlimit="22.9256"/>
<path d="M1042.06 478.244H1082.84" stroke="black" stroke-width="0.288399" stroke-miterlimit="22.9256"/>
<path d="M1082.84 437.467H1042.06L1082.84 478.241V437.467ZM1042.06 437.467L1082.84 478.241H1042.06V437.467Z" fill="#0000FF"/>
<path d="M1042.06 437.467H1082.84V478.241M1042.06 437.467L1082.84 478.241M1042.06 437.467V478.241H1082.84" stroke="#0000FF" stroke-width="0.288399" stroke-miterlimit="22.9256"/>
<path d="M1082.84 437.467H1042.06V478.244H1082.84V437.467Z" stroke="black" stroke-width="0.288399" stroke-miterlimit="22.9256"/>
<path d="M1042.06 478.244L1082.84 437.467" stroke="black" stroke-width="0.288399" stroke-miterlimit="22.9256"/>
<path d="M1082.84 478.244L1042.06 437.467" stroke="black" stroke-width="0.288399" stroke-miterlimit="22.9256"/>
<path d="M116.948 42.4287H157.722" stroke="black" stroke-width="0.288399" stroke-miterlimit="22.9256"/>
<path d="M157.722 1.65161H116.948L157.722 42.4257V1.65161ZM116.948 1.65161L157.722 42.4257H116.948V1.65161Z" fill="#0000FF"/>
<path d="M116.948 1.65161H157.722V42.4257M116.948 1.65161L157.722 42.4257M116.948 1.65161V42.4257H157.722" stroke="#0000FF" stroke-width="0.288399" stroke-miterlimit="22.9256"/>
<path d="M157.722 1.65161H116.948V42.4288H157.722V1.65161Z" stroke="black" stroke-width="0.288399" stroke-miterlimit="22.9256"/>
<path d="M116.948 42.4288L157.722 1.65161" stroke="black" stroke-width="0.288399" stroke-miterlimit="22.9256"/>
<path d="M157.722 42.4288L116.948 1.65161" stroke="black" stroke-width="0.288399" stroke-miterlimit="22.9256"/>
<path d="M566.001 42.4287H606.775" stroke="black" stroke-width="0.288399" stroke-miterlimit="22.9256"/>
<path d="M606.775 1.65161H566.001L606.775 42.4257V1.65161ZM566.001 1.65161L606.775 42.4257H566.001V1.65161Z" fill="#0000FF"/>
<path d="M566.001 1.65161H606.775V42.4257M566.001 1.65161L606.775 42.4257M566.001 1.65161V42.4257H606.775" stroke="#0000FF" stroke-width="0.288399" stroke-miterlimit="22.9256"/>
<path d="M606.775 1.65161H566.001V42.4288H606.775V1.65161Z" stroke="black" stroke-width="0.288399" stroke-miterlimit="22.9256"/>
<path d="M566.001 42.4288L606.775 1.65161" stroke="black" stroke-width="0.288399" stroke-miterlimit="22.9256"/>
<path d="M606.775 42.4288L566.001 1.65161" stroke="black" stroke-width="0.288399" stroke-miterlimit="22.9256"/>
<path d="M1042.06 42.4287H1082.84" stroke="black" stroke-width="0.288399" stroke-miterlimit="22.9256"/>
<path d="M1082.84 1.65161H1042.06L1082.84 42.4257V1.65161ZM1042.06 1.65161L1082.84 42.4257H1042.06V1.65161Z" fill="#0000FF"/>
<path d="M1042.06 1.65161H1082.84V42.4257M1042.06 1.65161L1082.84 42.4257M1042.06 1.65161V42.4257H1082.84" stroke="#0000FF" stroke-width="0.288399" stroke-miterlimit="22.9256"/>
<path d="M1082.84 1.65161H1042.06V42.4288H1082.84V1.65161Z" stroke="black" stroke-width="0.288399" stroke-miterlimit="22.9256"/>
<path d="M1042.06 42.4288L1082.84 1.65161" stroke="black" stroke-width="0.288399" stroke-miterlimit="22.9256"/>
<path d="M1082.84 42.4288L1042.06 1.65161" stroke="black" stroke-width="0.288399" stroke-miterlimit="22.9256"/>
<path d="M711.097 520.078L710.568 517.959L710.038 516.899L709.508 515.84L708.449 514.78H705.8L704.743 515.84L704.213 516.899L703.684 517.959L703.154 520.078L702.624 522.724V527.492L703.154 530.667L703.684 532.257L704.743 534.376L705.8 535.435H708.449L709.508 534.376L710.568 532.257L711.097 530.667" stroke="black" stroke-width="0.288399" stroke-miterlimit="22.9256"/>
<path d="M722.746 511.075L712.157 542.319" stroke="black" stroke-width="0.288399" stroke-miterlimit="22.9256"/>
<path d="M733.868 514.78L729.63 531.727L729.1 533.316L728.574 534.376L727.511 535.435H726.984" stroke="black" stroke-width="0.288399" stroke-miterlimit="22.9256"/>
<path d="M725.925 514.78L729.63 531.727" stroke="black" stroke-width="0.288399" stroke-miterlimit="22.9256"/>
<path d="M694.681 551.852L694.151 550.263L692.035 549.203H690.975L689.386 550.263L688.326 552.908L687.797 557.676V562.441L688.326 566.676L689.386 568.266L690.975 569.325H691.502L693.621 568.266L694.681 566.676L695.21 563.501V562.441L694.681 559.792L693.621 557.676L691.502 556.617H690.975L689.386 557.676L688.326 559.792L687.797 562.441" stroke="black" stroke-width="0.288399" stroke-miterlimit="22.9256"/>
<path d="M700.505 568.266L699.978 569.325L699.445 568.266L699.978 567.736L700.505 568.266ZM700.505 568.266V570.385L699.978 572.504L699.445 573.56" stroke="black" stroke-width="0.288399" stroke-miterlimit="22.9256"/>
<path d="M712.687 556.087L712.157 558.733L711.097 560.852L708.978 561.912H708.449L706.859 560.852L705.8 558.733L705.273 556.087V555.028L705.8 551.852L706.859 550.263L708.449 549.203H708.978L711.097 550.263L712.157 551.852L712.687 556.087ZM712.687 556.087V560.852L712.157 565.617L711.097 568.266L708.978 569.325H707.919L706.333 568.266L705.8 566.676" stroke="black" stroke-width="0.288399" stroke-miterlimit="22.9256"/>
<path d="M723.806 549.203H717.981L717.452 557.676L717.981 556.617L719.571 556.087H721.157L723.276 556.617L724.336 558.733L724.865 561.912V563.501L724.336 566.676L723.276 568.266L721.157 569.325H719.571L717.981 568.266L717.452 567.736L716.922 565.617" stroke="black" stroke-width="0.288399" stroke-miterlimit="22.9256"/>
<path d="M738.633 569.325V556.087L734.928 566.676L730.69 556.087V569.325" stroke="black" stroke-width="0.288399" stroke-miterlimit="22.9256"/>
<path d="M741.812 553.968V552.908L742.339 550.792L742.872 550.263L743.928 549.203H746.577L747.636 550.263L748.166 550.792L748.693 552.908V555.028L748.166 556.617L747.107 559.792L741.282 569.325H749.226" stroke="black" stroke-width="0.288399" stroke-miterlimit="22.9256"/>
<path d="M984.343 464.477V478.245" stroke="black" stroke-width="0.288399" stroke-miterlimit="22.9256"/>
<path d="M916.56 464.477V478.245" stroke="black" stroke-width="0.288399" stroke-miterlimit="22.9256"/>
<path d="M916.56 478.244H984.343" stroke="black" stroke-width="0.288399" stroke-miterlimit="22.9256"/>
<path d="M599.894 471.36H681.442V498.366H599.894V471.36Z" stroke="#5CB800" stroke-width="0.288399" stroke-miterlimit="22.9256"/>
<path d="M673.499 491.482H662.38" stroke="#5CB800" stroke-width="0.288399" stroke-miterlimit="22.9256"/>
<path d="M661.32 490.423V479.301" stroke="#5CB800" stroke-width="0.288399" stroke-miterlimit="22.9256"/>
<path d="M662.38 478.244H673.499" stroke="#5CB800" stroke-width="0.288399" stroke-miterlimit="22.9256"/>
<path d="M674.558 479.301V490.423" stroke="#5CB800" stroke-width="0.288399" stroke-miterlimit="22.9256"/>
<path d="M673.765 491.483C674.496 491.483 675.088 490.89 675.088 490.16" stroke="#5CB800" stroke-width="0.288399" stroke-miterlimit="22.9256"/>
<path d="M661.32 490.156C661.32 490.887 661.913 491.479 662.646 491.479" stroke="#5CB800" stroke-width="0.288399" stroke-miterlimit="22.9256"/>
<path d="M675.088 479.037C675.088 478.307 674.496 477.714 673.765 477.714" stroke="#5CB800" stroke-width="0.288399" stroke-miterlimit="22.9256"/>
<path d="M662.643 477.714C661.913 477.714 661.317 478.307 661.317 479.037" stroke="#5CB800" stroke-width="0.288399" stroke-miterlimit="22.9256"/>
<path d="M620.546 479.301V490.423" stroke="#5CB800" stroke-width="0.288399" stroke-miterlimit="22.9256"/>
<path d="M618.957 491.482H608.365" stroke="#5CB800" stroke-width="0.288399" stroke-miterlimit="22.9256"/>
<path d="M606.775 490.423V479.301" stroke="#5CB800" stroke-width="0.288399" stroke-miterlimit="22.9256"/>
<path d="M608.365 478.244H618.957" stroke="#5CB800" stroke-width="0.288399" stroke-miterlimit="22.9256"/>
<path d="M619.22 491.483C619.951 491.483 620.546 490.89 620.546 490.16" stroke="#5CB800" stroke-width="0.288399" stroke-miterlimit="22.9256"/>
<path d="M607.305 490.156C607.305 490.887 607.897 491.479 608.631 491.479" stroke="#5CB800" stroke-width="0.288399" stroke-miterlimit="22.9256"/>
<path d="M620.546 479.037C620.546 478.307 619.954 477.714 619.22 477.714" stroke="#5CB800" stroke-width="0.288399" stroke-miterlimit="22.9256"/>
<path d="M608.631 477.714C607.901 477.714 607.305 478.307 607.305 479.037" stroke="#5CB800" stroke-width="0.288399" stroke-miterlimit="22.9256"/>
<path d="M653.114 491.483C653.844 491.483 654.436 490.89 654.436 490.16" stroke="#5CB800" stroke-width="0.288399" stroke-miterlimit="22.9256"/>
<path d="M654.436 479.037C654.436 478.307 653.844 477.714 653.114 477.714" stroke="#5CB800" stroke-width="0.288399" stroke-miterlimit="22.9256"/>
<path d="M627.427 490.156C627.427 490.887 628.02 491.479 628.75 491.479" stroke="#5CB800" stroke-width="0.288399" stroke-miterlimit="22.9256"/>
<path d="M628.753 477.714C628.023 477.714 627.43 478.307 627.43 479.037" stroke="#5CB800" stroke-width="0.288399" stroke-miterlimit="22.9256"/>
<path d="M654.436 479.301V490.423" stroke="#5CB800" stroke-width="0.288399" stroke-miterlimit="22.9256"/>
<path d="M652.847 491.482H628.49" stroke="#5CB800" stroke-width="0.288399" stroke-miterlimit="22.9256"/>
<path d="M626.9 490.423V479.301" stroke="#5CB800" stroke-width="0.288399" stroke-miterlimit="22.9256"/>
<path d="M628.49 478.244H652.847" stroke="#5CB800" stroke-width="0.288399" stroke-miterlimit="22.9256"/>
<path d="M599.894 471.36H681.442V498.366H599.894V471.36Z" stroke="#5CB800" stroke-width="0.288399" stroke-miterlimit="22.9256"/>
<path d="M673.499 491.482H662.38" stroke="#5CB800" stroke-width="0.288399" stroke-miterlimit="22.9256"/>
<path d="M661.32 490.423V479.301" stroke="#5CB800" stroke-width="0.288399" stroke-miterlimit="22.9256"/>
<path d="M662.38 478.244H673.499" stroke="#5CB800" stroke-width="0.288399" stroke-miterlimit="22.9256"/>
<path d="M674.558 479.301V490.423" stroke="#5CB800" stroke-width="0.288399" stroke-miterlimit="22.9256"/>
<path d="M673.765 491.483C674.496 491.483 675.088 490.89 675.088 490.16" stroke="#5CB800" stroke-width="0.288399" stroke-miterlimit="22.9256"/>
<path d="M661.32 490.156C661.32 490.887 661.913 491.479 662.646 491.479" stroke="#5CB800" stroke-width="0.288399" stroke-miterlimit="22.9256"/>
<path d="M675.088 479.037C675.088 478.307 674.496 477.714 673.765 477.714" stroke="#5CB800" stroke-width="0.288399" stroke-miterlimit="22.9256"/>
<path d="M662.643 477.714C661.913 477.714 661.317 478.307 661.317 479.037" stroke="#5CB800" stroke-width="0.288399" stroke-miterlimit="22.9256"/>
<path d="M620.546 479.301V490.423" stroke="#5CB800" stroke-width="0.288399" stroke-miterlimit="22.9256"/>
<path d="M618.957 491.482H608.365" stroke="#5CB800" stroke-width="0.288399" stroke-miterlimit="22.9256"/>
<path d="M606.775 490.423V479.301" stroke="#5CB800" stroke-width="0.288399" stroke-miterlimit="22.9256"/>
<path d="M608.365 478.244H618.957" stroke="#5CB800" stroke-width="0.288399" stroke-miterlimit="22.9256"/>
<path d="M619.22 491.483C619.951 491.483 620.546 490.89 620.546 490.16" stroke="#5CB800" stroke-width="0.288399" stroke-miterlimit="22.9256"/>
<path d="M607.305 490.156C607.305 490.887 607.897 491.479 608.631 491.479" stroke="#5CB800" stroke-width="0.288399" stroke-miterlimit="22.9256"/>
<path d="M620.546 479.037C620.546 478.307 619.954 477.714 619.22 477.714" stroke="#5CB800" stroke-width="0.288399" stroke-miterlimit="22.9256"/>
<path d="M608.631 477.714C607.901 477.714 607.305 478.307 607.305 479.037" stroke="#5CB800" stroke-width="0.288399" stroke-miterlimit="22.9256"/>
<path d="M653.114 491.483C653.844 491.483 654.436 490.89 654.436 490.16" stroke="#5CB800" stroke-width="0.288399" stroke-miterlimit="22.9256"/>
<path d="M654.436 479.037C654.436 478.307 653.844 477.714 653.114 477.714" stroke="#5CB800" stroke-width="0.288399" stroke-miterlimit="22.9256"/>
<path d="M627.427 490.156C627.427 490.887 628.02 491.479 628.75 491.479" stroke="#5CB800" stroke-width="0.288399" stroke-miterlimit="22.9256"/>
<path d="M628.753 477.714C628.023 477.714 627.43 478.307 627.43 479.037" stroke="#5CB800" stroke-width="0.288399" stroke-miterlimit="22.9256"/>
<path d="M654.436 479.301V490.423" stroke="#5CB800" stroke-width="0.288399" stroke-miterlimit="22.9256"/>
<path d="M652.847 491.482H628.49" stroke="#5CB800" stroke-width="0.288399" stroke-miterlimit="22.9256"/>
<path d="M626.9 490.423V479.301" stroke="#5CB800" stroke-width="0.288399" stroke-miterlimit="22.9256"/>
<path d="M628.49 478.244H652.847" stroke="#5CB800" stroke-width="0.288399" stroke-miterlimit="22.9256"/>
<path d="M606.775 479.301L610.484 488.834L618.957 491.483" stroke="#5CB800" stroke-width="0.288399" stroke-miterlimit="22.9256"/>
<path d="M626.9 479.301L631.665 488.834L652.847 491.483" stroke="#5CB800" stroke-width="0.288399" stroke-miterlimit="22.9256"/>
<path d="M661.32 479.301L665.026 488.834L673.499 491.483" stroke="#5CB800" stroke-width="0.288399" stroke-miterlimit="22.9256"/>
<path d="M525.227 471.36H443.676V498.366H525.227V471.36Z" stroke="#5CB800" stroke-width="0.288399" stroke-miterlimit="22.9256"/>
<path d="M451.619 491.482H462.738" stroke="#5CB800" stroke-width="0.288399" stroke-miterlimit="22.9256"/>
<path d="M463.798 490.423V479.301" stroke="#5CB800" stroke-width="0.288399" stroke-miterlimit="22.9256"/>
<path d="M462.738 478.244H451.619" stroke="#5CB800" stroke-width="0.288399" stroke-miterlimit="22.9256"/>
<path d="M450.03 479.301V490.423" stroke="#5CB800" stroke-width="0.288399" stroke-miterlimit="22.9256"/>
<path d="M450.56 490.156C450.56 490.887 451.152 491.479 451.883 491.479" stroke="#5CB800" stroke-width="0.288399" stroke-miterlimit="22.9256"/>
<path d="M463.005 491.483C463.735 491.483 464.328 490.89 464.328 490.16" stroke="#5CB800" stroke-width="0.288399" stroke-miterlimit="22.9256"/>
<path d="M451.886 477.714C451.155 477.714 450.563 478.307 450.563 479.037" stroke="#5CB800" stroke-width="0.288399" stroke-miterlimit="22.9256"/>
<path d="M464.328 479.037C464.328 478.307 463.735 477.714 463.005 477.714" stroke="#5CB800" stroke-width="0.288399" stroke-miterlimit="22.9256"/>
<path d="M504.575 479.301V490.423" stroke="#5CB800" stroke-width="0.288399" stroke-miterlimit="22.9256"/>
<path d="M506.165 491.482H516.754" stroke="#5CB800" stroke-width="0.288399" stroke-miterlimit="22.9256"/>
<path d="M518.343 490.423V479.301" stroke="#5CB800" stroke-width="0.288399" stroke-miterlimit="22.9256"/>
<path d="M516.754 478.244H506.165" stroke="#5CB800" stroke-width="0.288399" stroke-miterlimit="22.9256"/>
<path d="M505.105 490.156C505.105 490.887 505.697 491.479 506.428 491.479" stroke="#5CB800" stroke-width="0.288399" stroke-miterlimit="22.9256"/>
<path d="M517.017 491.483C517.747 491.483 518.34 490.89 518.34 490.16" stroke="#5CB800" stroke-width="0.288399" stroke-miterlimit="22.9256"/>
<path d="M506.428 477.714C505.697 477.714 505.105 478.307 505.105 479.037" stroke="#5CB800" stroke-width="0.288399" stroke-miterlimit="22.9256"/>
<path d="M518.343 479.037C518.343 478.307 517.751 477.714 517.02 477.714" stroke="#5CB800" stroke-width="0.288399" stroke-miterlimit="22.9256"/>
<path d="M471.212 490.156C471.212 490.887 471.804 491.479 472.535 491.479" stroke="#5CB800" stroke-width="0.288399" stroke-miterlimit="22.9256"/>
<path d="M472.538 477.714C471.807 477.714 471.215 478.307 471.215 479.037" stroke="#5CB800" stroke-width="0.288399" stroke-miterlimit="22.9256"/>
<path d="M496.895 491.483C497.625 491.483 498.221 490.89 498.221 490.16" stroke="#5CB800" stroke-width="0.288399" stroke-miterlimit="22.9256"/>
<path d="M498.221 479.037C498.221 478.307 497.629 477.714 496.895 477.714" stroke="#5CB800" stroke-width="0.288399" stroke-miterlimit="22.9256"/>
<path d="M470.682 479.301V490.423" stroke="#5CB800" stroke-width="0.288399" stroke-miterlimit="22.9256"/>
<path d="M472.271 491.482H496.632" stroke="#5CB800" stroke-width="0.288399" stroke-miterlimit="22.9256"/>
<path d="M497.688 490.423V479.301" stroke="#5CB800" stroke-width="0.288399" stroke-miterlimit="22.9256"/>
<path d="M496.632 478.244H472.271" stroke="#5CB800" stroke-width="0.288399" stroke-miterlimit="22.9256"/>
<path d="M525.227 471.36H443.676V498.366H525.227V471.36Z" stroke="#5CB800" stroke-width="0.288399" stroke-miterlimit="22.9256"/>
<path d="M451.619 491.482H462.738" stroke="#5CB800" stroke-width="0.288399" stroke-miterlimit="22.9256"/>
<path d="M463.798 490.423V479.301" stroke="#5CB800" stroke-width="0.288399" stroke-miterlimit="22.9256"/>
<path d="M462.738 478.244H451.619" stroke="#5CB800" stroke-width="0.288399" stroke-miterlimit="22.9256"/>
<path d="M450.03 479.301V490.423" stroke="#5CB800" stroke-width="0.288399" stroke-miterlimit="22.9256"/>
<path d="M450.56 490.156C450.56 490.887 451.152 491.479 451.883 491.479" stroke="#5CB800" stroke-width="0.288399" stroke-miterlimit="22.9256"/>
<path d="M463.005 491.483C463.735 491.483 464.328 490.89 464.328 490.16" stroke="#5CB800" stroke-width="0.288399" stroke-miterlimit="22.9256"/>
<path d="M451.886 477.714C451.155 477.714 450.563 478.307 450.563 479.037" stroke="#5CB800" stroke-width="0.288399" stroke-miterlimit="22.9256"/>
<path d="M464.328 479.037C464.328 478.307 463.735 477.714 463.005 477.714" stroke="#5CB800" stroke-width="0.288399" stroke-miterlimit="22.9256"/>
<path d="M504.575 479.301V490.423" stroke="#5CB800" stroke-width="0.288399" stroke-miterlimit="22.9256"/>
<path d="M506.165 491.482H516.754" stroke="#5CB800" stroke-width="0.288399" stroke-miterlimit="22.9256"/>
<path d="M518.343 490.423V479.301" stroke="#5CB800" stroke-width="0.288399" stroke-miterlimit="22.9256"/>
<path d="M516.754 478.244H506.165" stroke="#5CB800" stroke-width="0.288399" stroke-miterlimit="22.9256"/>
<path d="M505.105 490.156C505.105 490.887 505.697 491.479 506.428 491.479" stroke="#5CB800" stroke-width="0.288399" stroke-miterlimit="22.9256"/>
<path d="M517.017 491.483C517.747 491.483 518.34 490.89 518.34 490.16" stroke="#5CB800" stroke-width="0.288399" stroke-miterlimit="22.9256"/>
<path d="M506.428 477.714C505.697 477.714 505.105 478.307 505.105 479.037" stroke="#5CB800" stroke-width="0.288399" stroke-miterlimit="22.9256"/>
<path d="M518.343 479.037C518.343 478.307 517.751 477.714 517.02 477.714" stroke="#5CB800" stroke-width="0.288399" stroke-miterlimit="22.9256"/>
<path d="M471.212 490.156C471.212 490.887 471.804 491.479 472.535 491.479" stroke="#5CB800" stroke-width="0.288399" stroke-miterlimit="22.9256"/>
<path d="M472.538 477.714C471.807 477.714 471.215 478.307 471.215 479.037" stroke="#5CB800" stroke-width="0.288399" stroke-miterlimit="22.9256"/>
<path d="M496.895 491.483C497.625 491.483 498.221 490.89 498.221 490.16" stroke="#5CB800" stroke-width="0.288399" stroke-miterlimit="22.9256"/>
<path d="M498.221 479.037C498.221 478.307 497.629 477.714 496.895 477.714" stroke="#5CB800" stroke-width="0.288399" stroke-miterlimit="22.9256"/>
<path d="M470.682 479.301V490.423" stroke="#5CB800" stroke-width="0.288399" stroke-miterlimit="22.9256"/>
<path d="M472.271 491.482H496.632" stroke="#5CB800" stroke-width="0.288399" stroke-miterlimit="22.9256"/>
<path d="M497.688 490.423V479.301" stroke="#5CB800" stroke-width="0.288399" stroke-miterlimit="22.9256"/>
<path d="M496.632 478.244H472.271" stroke="#5CB800" stroke-width="0.288399" stroke-miterlimit="22.9256"/>
<path d="M518.343 479.301L514.105 488.834L506.165 491.483" stroke="#5CB800" stroke-width="0.288399" stroke-miterlimit="22.9256"/>
<path d="M497.688 479.301L493.453 488.834L472.271 491.483" stroke="#5CB800" stroke-width="0.288399" stroke-miterlimit="22.9256"/>
<path d="M463.798 479.301L460.093 488.834L451.619 491.483" stroke="#5CB800" stroke-width="0.288399" stroke-miterlimit="22.9256"/>
<path d="M1048.94 42.4287V124.507H1021.94V42.4287H1048.94Z" stroke="#5CB800" stroke-width="0.288399" stroke-miterlimit="22.9256"/>
<path d="M1028.29 116.033V105.444" stroke="#5CB800" stroke-width="0.288399" stroke-miterlimit="22.9256"/>
<path d="M1029.88 103.855H1041" stroke="#5CB800" stroke-width="0.288399" stroke-miterlimit="22.9256"/>
<path d="M1042.06 105.444V116.033" stroke="#5CB800" stroke-width="0.288399" stroke-miterlimit="22.9256"/>
<path d="M1041 117.623H1029.88" stroke="#5CB800" stroke-width="0.288399" stroke-miterlimit="22.9256"/>
<path d="M1028.83 115.77C1028.83 116.5 1029.42 117.093 1030.15 117.093" stroke="#5CB800" stroke-width="0.288399" stroke-miterlimit="22.9256"/>
<path d="M1030.15 103.855C1029.42 103.855 1028.83 104.447 1028.83 105.178" stroke="#5CB800" stroke-width="0.288399" stroke-miterlimit="22.9256"/>
<path d="M1041.27 117.093C1042 117.093 1042.59 116.5 1042.59 115.77" stroke="#5CB800" stroke-width="0.288399" stroke-miterlimit="22.9256"/>
<path d="M1042.59 105.178C1042.59 104.447 1042 103.855 1041.27 103.855" stroke="#5CB800" stroke-width="0.288399" stroke-miterlimit="22.9256"/>
<path d="M1041 63.0808H1029.88" stroke="#5CB800" stroke-width="0.288399" stroke-miterlimit="22.9256"/>
<path d="M1028.29 61.4913V50.8989" stroke="#5CB800" stroke-width="0.288399" stroke-miterlimit="22.9256"/>
<path d="M1029.88 49.3096H1041" stroke="#5CB800" stroke-width="0.288399" stroke-miterlimit="22.9256"/>
<path d="M1042.06 50.8989V61.4913" stroke="#5CB800" stroke-width="0.288399" stroke-miterlimit="22.9256"/>
<path d="M1028.83 61.2249C1028.83 61.9553 1029.42 62.5509 1030.15 62.5509" stroke="#5CB800" stroke-width="0.288399" stroke-miterlimit="22.9256"/>
<path d="M1030.15 49.3096C1029.42 49.3096 1028.83 49.902 1028.83 50.6356" stroke="#5CB800" stroke-width="0.288399" stroke-miterlimit="22.9256"/>
<path d="M1041.27 62.5509C1042 62.5509 1042.59 61.9584 1042.59 61.2249" stroke="#5CB800" stroke-width="0.288399" stroke-miterlimit="22.9256"/>
<path d="M1042.59 50.6356C1042.59 49.902 1042 49.3096 1041.27 49.3096" stroke="#5CB800" stroke-width="0.288399" stroke-miterlimit="22.9256"/>
<path d="M1028.83 95.6479C1028.83 96.3784 1029.42 96.9708 1030.15 96.9708" stroke="#5CB800" stroke-width="0.288399" stroke-miterlimit="22.9256"/>
<path d="M1041.27 96.9708C1042 96.9708 1042.59 96.3784 1042.59 95.6479" stroke="#5CB800" stroke-width="0.288399" stroke-miterlimit="22.9256"/>
<path d="M1030.15 69.4348C1029.42 69.4348 1028.83 70.0273 1028.83 70.7577" stroke="#5CB800" stroke-width="0.288399" stroke-miterlimit="22.9256"/>
<path d="M1042.59 70.7577C1042.59 70.0273 1042 69.4348 1041.27 69.4348" stroke="#5CB800" stroke-width="0.288399" stroke-miterlimit="22.9256"/>
<path d="M1041 96.9707H1029.88" stroke="#5CB800" stroke-width="0.288399" stroke-miterlimit="22.9256"/>
<path d="M1028.29 95.9111V71.021" stroke="#5CB800" stroke-width="0.288399" stroke-miterlimit="22.9256"/>
<path d="M1029.88 69.9646H1041" stroke="#5CB800" stroke-width="0.288399" stroke-miterlimit="22.9256"/>
<path d="M1042.06 71.021V95.9111" stroke="#5CB800" stroke-width="0.288399" stroke-miterlimit="22.9256"/>
<path d="M1048.94 42.4287V124.507H1021.94V42.4287H1048.94Z" stroke="#5CB800" stroke-width="0.288399" stroke-miterlimit="22.9256"/>
<path d="M1028.29 116.033V105.444" stroke="#5CB800" stroke-width="0.288399" stroke-miterlimit="22.9256"/>
<path d="M1029.88 103.855H1041" stroke="#5CB800" stroke-width="0.288399" stroke-miterlimit="22.9256"/>
<path d="M1042.06 105.444V116.033" stroke="#5CB800" stroke-width="0.288399" stroke-miterlimit="22.9256"/>
<path d="M1041 117.623H1029.88" stroke="#5CB800" stroke-width="0.288399" stroke-miterlimit="22.9256"/>
<path d="M1028.83 115.77C1028.83 116.5 1029.42 117.093 1030.15 117.093" stroke="#5CB800" stroke-width="0.288399" stroke-miterlimit="22.9256"/>
<path d="M1030.15 103.855C1029.42 103.855 1028.83 104.447 1028.83 105.178" stroke="#5CB800" stroke-width="0.288399" stroke-miterlimit="22.9256"/>
<path d="M1041.27 117.093C1042 117.093 1042.59 116.5 1042.59 115.77" stroke="#5CB800" stroke-width="0.288399" stroke-miterlimit="22.9256"/>
<path d="M1042.59 105.178C1042.59 104.447 1042 103.855 1041.27 103.855" stroke="#5CB800" stroke-width="0.288399" stroke-miterlimit="22.9256"/>
<path d="M1041 63.0808H1029.88" stroke="#5CB800" stroke-width="0.288399" stroke-miterlimit="22.9256"/>
<path d="M1028.29 61.4913V50.8989" stroke="#5CB800" stroke-width="0.288399" stroke-miterlimit="22.9256"/>
<path d="M1029.88 49.3096H1041" stroke="#5CB800" stroke-width="0.288399" stroke-miterlimit="22.9256"/>
<path d="M1042.06 50.8989V61.4913" stroke="#5CB800" stroke-width="0.288399" stroke-miterlimit="22.9256"/>
<path d="M1028.83 61.2249C1028.83 61.9553 1029.42 62.5509 1030.15 62.5509" stroke="#5CB800" stroke-width="0.288399" stroke-miterlimit="22.9256"/>
<path d="M1030.15 49.3096C1029.42 49.3096 1028.83 49.902 1028.83 50.6356" stroke="#5CB800" stroke-width="0.288399" stroke-miterlimit="22.9256"/>
<path d="M1041.27 62.5509C1042 62.5509 1042.59 61.9584 1042.59 61.2249" stroke="#5CB800" stroke-width="0.288399" stroke-miterlimit="22.9256"/>
<path d="M1042.59 50.6356C1042.59 49.902 1042 49.3096 1041.27 49.3096" stroke="#5CB800" stroke-width="0.288399" stroke-miterlimit="22.9256"/>
<path d="M1028.83 95.6479C1028.83 96.3784 1029.42 96.9708 1030.15 96.9708" stroke="#5CB800" stroke-width="0.288399" stroke-miterlimit="22.9256"/>
<path d="M1041.27 96.9708C1042 96.9708 1042.59 96.3784 1042.59 95.6479" stroke="#5CB800" stroke-width="0.288399" stroke-miterlimit="22.9256"/>
<path d="M1030.15 69.4348C1029.42 69.4348 1028.83 70.0273 1028.83 70.7577" stroke="#5CB800" stroke-width="0.288399" stroke-miterlimit="22.9256"/>
<path d="M1042.59 70.7577C1042.59 70.0273 1042 69.4348 1041.27 69.4348" stroke="#5CB800" stroke-width="0.288399" stroke-miterlimit="22.9256"/>
<path d="M1041 96.9707H1029.88" stroke="#5CB800" stroke-width="0.288399" stroke-miterlimit="22.9256"/>
<path d="M1028.29 95.9111V71.021" stroke="#5CB800" stroke-width="0.288399" stroke-miterlimit="22.9256"/>
<path d="M1029.88 69.9646H1041" stroke="#5CB800" stroke-width="0.288399" stroke-miterlimit="22.9256"/>
<path d="M1042.06 71.021V95.9111" stroke="#5CB800" stroke-width="0.288399" stroke-miterlimit="22.9256"/>
<path d="M1041 49.3096L1030.94 53.5478L1028.29 61.4913" stroke="#5CB800" stroke-width="0.288399" stroke-miterlimit="22.9256"/>
<path d="M1041 69.9646L1031.47 74.1997L1028.29 95.9111" stroke="#5CB800" stroke-width="0.288399" stroke-miterlimit="22.9256"/>
<path d="M1041 103.855L1030.94 107.56L1028.29 116.033" stroke="#5CB800" stroke-width="0.288399" stroke-miterlimit="22.9256"/>
<path d="M69.2895 478.244V484.598H76.1735L69.2895 478.244ZM69.2895 484.598H76.1735L69.2895 525.902V484.598Z" fill="black"/>
<path d="M69.2895 484.598V478.244L76.1735 484.598M69.2895 484.598H76.1735M69.2895 484.598V525.902L76.1735 484.598" stroke="black" stroke-width="0.288399" stroke-miterlimit="22.9256"/>
<path d="M69.2895 478.244H116.948L76.1704 484.598L69.2895 478.244Z" fill="black"/>
<path d="M69.2895 478.244H116.948L76.1704 484.598L69.2895 478.244Z" stroke="black" stroke-width="0.288399" stroke-miterlimit="22.9256"/>
<path d="M69.2895 478.244H116.948L76.1704 484.598L69.2895 525.902V478.244ZM69.2895 478.244H116.948V525.902H69.2895V478.244Z" stroke="black" stroke-width="0.288399" stroke-miterlimit="22.9256"/>
<path d="M69.2895 478.244H116.948V525.902H69.2895V478.244Z" stroke="black" stroke-width="0.288399" stroke-miterlimit="22.9256"/>
</g>
<defs>
<clipPath id="clip0_9_9870">
<rect width="1083.49" height="682.095" fill="white" transform="translate(0.5 0.5)"/>
</clipPath>
</defs>
</svg>
