<svg width="1172" height="520" viewBox="0 0 1172 520" fill="none" xmlns="http://www.w3.org/2000/svg">
<path d="M707.95 82.6997H728.602H707.95Z" stroke="#C8C92D" stroke-width="0.288323" stroke-miterlimit="22.9256"/>
<path d="M585.625 157.367H707.95" stroke="#C8C92D" stroke-width="0.288323" stroke-miterlimit="22.9256"/>
<path d="M571.856 157.367H585.625" stroke="#C8C92D" stroke-width="0.288323" stroke-miterlimit="22.9256"/>
<path d="M721.718 327.351H728.602H721.718Z" stroke="#C8C92D" stroke-width="0.288323" stroke-miterlimit="22.9256"/>
<path d="M734.957 327.351H741.841H734.957Z" stroke="#C8C92D" stroke-width="0.288323" stroke-miterlimit="22.9256"/>
<path d="M741.841 327.351H734.957H755.609H741.841Z" stroke="#C8C92D" stroke-width="0.288323" stroke-miterlimit="22.9256"/>
<path d="M707.95 327.351H728.602H721.718H707.95Z" stroke="#C8C92D" stroke-width="0.288323" stroke-miterlimit="22.9256"/>
<path d="M571.856 327.351H585.625" stroke="#C8C92D" stroke-width="0.288323" stroke-miterlimit="22.9256"/>
<path d="M245.126 484.097H129.685V477.213H122.801V361.771H109.033V245.803H462.772V238.918H456.415V232.564H449.531V238.918H14.2432V18.0962H88.9105V41.9282H95.7945V89.5865H122.801V41.9282H129.685V35.0414H245.126V21.276H449.531V171.135H456.415V21.276H462.772V8.03516H531.082V21.276H564.972V164.251H728.602V171.135H734.956V75.8184H728.602V157.367H571.856V41.9282H605.747V21.276H728.602V28.1573H734.956V21.276H925.593V35.0414H1041.56V41.9282H1047.92V89.5865H1075.45V41.9282H1082.34V18.0962H1157.01V238.918H734.956V232.564H728.602V252.687L734.88 252.596L734.956 245.803H1061.69V361.771H1047.92V477.213H1041.56V484.097H925.593V497.602L734.956 497.865L734.855 321.088L728.602 320.997V327.351H680.944V334.235H728.602V497.865H605.747V477.213H571.856V334.235H633.283V327.351H571.856V238.918H544.85V245.803H564.972V497.865H245.126V484.097Z" fill="#C8C92D" stroke="#2B2A29" stroke-width="0.952838" stroke-miterlimit="10" stroke-linecap="round"/>
<path d="M1157.01 18.0962V82.6997" stroke="black" stroke-width="0.288323" stroke-miterlimit="22.9256"/>
<path d="M14.2431 4.32812H0.477783" stroke="black" stroke-width="0.288323" stroke-miterlimit="22.9256"/>
<path d="M1170.77 4.32812V82.6997" stroke="black" stroke-width="0.288323" stroke-miterlimit="22.9256"/>
<path d="M537.436 497.865H605.747" stroke="#FF0000" stroke-width="0.288323" stroke-miterlimit="22.9256"/>
<path d="M44.4292 21.2759H51.3132" stroke="#FF0000" stroke-width="0.288323" stroke-miterlimit="22.9256"/>
<path d="M252.01 21.2759H319.794" stroke="#FF0000" stroke-width="0.288323" stroke-miterlimit="22.9256"/>
<path d="M329.855 21.2759H336.739" stroke="#FF0000" stroke-width="0.288323" stroke-miterlimit="22.9256"/>
<path d="M347.33 21.2759H415.111" stroke="#FF0000" stroke-width="0.288323" stroke-miterlimit="22.9256"/>
<path d="M425.172 21.2759H432.056" stroke="#FF0000" stroke-width="0.288323" stroke-miterlimit="22.9256"/>
<path d="M537.436 21.2759H605.747" stroke="#FF0000" stroke-width="0.288323" stroke-miterlimit="22.9256"/>
<path d="M1170.77 191.26V252.686" stroke="black" stroke-width="0.288323" stroke-miterlimit="22.9256"/>
<path d="M1157.01 28.1572V89.5864" stroke="black" stroke-width="0.288323" stroke-miterlimit="22.9256"/>
<path d="M1157.01 191.26V238.918" stroke="black" stroke-width="0.288323" stroke-miterlimit="22.9256"/>
<path d="M1061.69 252.687H1170.77" stroke="black" stroke-width="0.288323" stroke-miterlimit="22.9256"/>
<path d="M1064.86 238.918H1157.01H1075.45" stroke="black" stroke-width="0.288323" stroke-miterlimit="22.9256"/>
<path d="M1157.01 191.26H1170.77" stroke="black" stroke-width="0.288323" stroke-miterlimit="22.9256"/>
<path d="M1157.01 89.5864H1170.77" stroke="black" stroke-width="0.288323" stroke-miterlimit="22.9256"/>
<path d="M1170.77 89.5864V191.26" stroke="#00BFFF" stroke-width="0.288323" stroke-miterlimit="22.9256"/>
<path d="M1163.89 191.26V89.5864" stroke="#00BFFF" stroke-width="0.288323" stroke-miterlimit="22.9256"/>
<path d="M1157.01 89.5864V191.26" stroke="#00BFFF" stroke-width="0.288323" stroke-miterlimit="22.9256"/>
<path d="M1170.77 41.9277V89.5861" stroke="black" stroke-width="0.288323" stroke-miterlimit="22.9256"/>
<path d="M14.2432 18.0962V82.6997" stroke="black" stroke-width="0.288323" stroke-miterlimit="22.9256"/>
<path d="M0.477783 18.0962V82.6997" stroke="black" stroke-width="0.288323" stroke-miterlimit="22.9256"/>
<path d="M0.477783 191.26V252.686" stroke="black" stroke-width="0.288323" stroke-miterlimit="22.9256"/>
<path d="M14.2432 18.0962V89.5865" stroke="black" stroke-width="0.288323" stroke-miterlimit="22.9256"/>
<path d="M14.2432 191.26V238.918" stroke="black" stroke-width="0.288323" stroke-miterlimit="22.9256"/>
<path d="M109.033 252.687H0.477783" stroke="black" stroke-width="0.288323" stroke-miterlimit="22.9256"/>
<path d="M105.856 238.918H14.2432H95.7945" stroke="black" stroke-width="0.288323" stroke-miterlimit="22.9256"/>
<path d="M14.2431 191.26H0.477783" stroke="black" stroke-width="0.288323" stroke-miterlimit="22.9256"/>
<path d="M14.2431 89.5864H0.477783" stroke="black" stroke-width="0.288323" stroke-miterlimit="22.9256"/>
<path d="M0.477783 89.5864V191.26" stroke="#00BFFF" stroke-width="0.288323" stroke-miterlimit="22.9256"/>
<path d="M7.35913 191.26V89.5864" stroke="#00BFFF" stroke-width="0.288323" stroke-miterlimit="22.9256"/>
<path d="M14.2432 89.5864V191.26" stroke="#00BFFF" stroke-width="0.288323" stroke-miterlimit="22.9256"/>
<path d="M0.477783 4.32812V89.5865" stroke="black" stroke-width="0.288323" stroke-miterlimit="22.9256"/>
<path d="M92.0875 18.0962H14.2432" stroke="black" stroke-width="0.288323" stroke-miterlimit="22.9256"/>
<path d="M92.0875 4.32812H14.2432" stroke="black" stroke-width="0.288323" stroke-miterlimit="22.9256"/>
<path d="M564.972 245.802V476.683" stroke="black" stroke-width="0.288323" stroke-miterlimit="22.9256"/>
<path d="M1064.86 238.918H734.957H741.841" stroke="black" stroke-width="0.288323" stroke-miterlimit="22.9256"/>
<path d="M1061.69 245.802H734.957H741.841" stroke="black" stroke-width="0.288323" stroke-miterlimit="22.9256"/>
<path d="M1007.14 35.041H1002.38" stroke="#008AB8" stroke-width="0.288323" stroke-miterlimit="22.9256"/>
<path d="M1007.14 484.097H1002.38" stroke="#008AB8" stroke-width="0.288323" stroke-miterlimit="22.9256"/>
<path d="M728.602 232.564V238.918V245.802" stroke="black" stroke-width="0.288323" stroke-miterlimit="22.9256"/>
<path d="M728.602 171.135V164.251" stroke="black" stroke-width="0.288323" stroke-miterlimit="22.9256"/>
<path d="M728.602 157.367V75.8184" stroke="black" stroke-width="0.288323" stroke-miterlimit="22.9256"/>
<path d="M728.602 28.1572V21.2759" stroke="black" stroke-width="0.288323" stroke-miterlimit="22.9256"/>
<path d="M734.957 238.918V232.564" stroke="black" stroke-width="0.288323" stroke-miterlimit="22.9256"/>
<path d="M734.957 171.135V75.8184" stroke="black" stroke-width="0.288323" stroke-miterlimit="22.9256"/>
<path d="M734.957 28.1572V21.2759" stroke="black" stroke-width="0.288323" stroke-miterlimit="22.9256"/>
<path d="M728.602 171.135H734.956" stroke="black" stroke-width="0.288323" stroke-miterlimit="22.9256"/>
<path d="M728.602 232.564H734.956" stroke="black" stroke-width="0.288323" stroke-miterlimit="22.9256"/>
<path d="M728.602 245.802V252.686" stroke="black" stroke-width="0.288323" stroke-miterlimit="22.9256"/>
<path d="M728.602 320.997V327.351" stroke="black" stroke-width="0.288323" stroke-miterlimit="22.9256"/>
<path d="M728.602 334.235V497.865V457.091" stroke="black" stroke-width="0.288323" stroke-miterlimit="22.9256"/>
<path d="M734.957 245.802V252.686" stroke="black" stroke-width="0.288323" stroke-miterlimit="22.9256"/>
<path d="M734.957 320.997V497.865V457.091" stroke="black" stroke-width="0.288323" stroke-miterlimit="22.9256"/>
<path d="M105.856 238.918H449.531" stroke="black" stroke-width="0.288323" stroke-miterlimit="22.9256"/>
<path d="M456.415 238.918H462.772" stroke="black" stroke-width="0.288323" stroke-miterlimit="22.9256"/>
<path d="M442.647 238.918H449.531" stroke="black" stroke-width="0.288323" stroke-miterlimit="22.9256"/>
<path d="M456.415 238.918H462.772" stroke="black" stroke-width="0.288323" stroke-miterlimit="22.9256"/>
<path d="M544.85 238.918H571.856" stroke="black" stroke-width="0.288323" stroke-miterlimit="22.9256"/>
<path d="M109.033 245.802H462.772" stroke="black" stroke-width="0.288323" stroke-miterlimit="22.9256"/>
<path d="M442.647 245.802H449.531" stroke="black" stroke-width="0.288323" stroke-miterlimit="22.9256"/>
<path d="M456.415 245.802H462.772" stroke="black" stroke-width="0.288323" stroke-miterlimit="22.9256"/>
<path d="M544.85 245.802H564.972" stroke="black" stroke-width="0.288323" stroke-miterlimit="22.9256"/>
<path d="M462.772 238.918V245.803" stroke="black" stroke-width="0.288323" stroke-miterlimit="22.9256"/>
<path d="M456.415 238.918V232.564" stroke="black" stroke-width="0.288323" stroke-miterlimit="22.9256"/>
<path d="M456.415 171.135V21.2759" stroke="black" stroke-width="0.288323" stroke-miterlimit="22.9256"/>
<path d="M449.531 238.918V232.564" stroke="black" stroke-width="0.288323" stroke-miterlimit="22.9256"/>
<path d="M449.531 171.135V21.2759" stroke="black" stroke-width="0.288323" stroke-miterlimit="22.9256"/>
<path d="M449.531 232.564H456.415" stroke="black" stroke-width="0.288323" stroke-miterlimit="22.9256"/>
<path d="M449.531 171.135H456.415" stroke="black" stroke-width="0.288323" stroke-miterlimit="22.9256"/>
<path d="M1007.14 484.097H1002.38" stroke="#008AB8" stroke-width="0.288323" stroke-miterlimit="22.9256"/>
<path d="M1007.14 511.103H1002.38" stroke="#008AB8" stroke-width="0.288323" stroke-miterlimit="22.9256"/>
<path d="M191.114 35.041H185.817" stroke="#008AB8" stroke-width="0.288323" stroke-miterlimit="22.9256"/>
<path d="M164.105 35.041H185.817" stroke="#008AB8" stroke-width="0.288323" stroke-miterlimit="22.9256"/>
<path d="M191.114 484.097H185.817" stroke="#008AB8" stroke-width="0.288323" stroke-miterlimit="22.9256"/>
<path d="M191.114 484.097H185.817" stroke="#008AB8" stroke-width="0.288323" stroke-miterlimit="22.9256"/>
<path d="M164.105 511.103H185.817" stroke="#008AB8" stroke-width="0.288323" stroke-miterlimit="22.9256"/>
<path d="M95.7944 407.842V412.609" stroke="#008AB8" stroke-width="0.288323" stroke-miterlimit="22.9256"/>
<path d="M122.801 407.842V412.609" stroke="#008AB8" stroke-width="0.288323" stroke-miterlimit="22.9256"/>
<path d="M1047.92 407.312V412.609" stroke="#008AB8" stroke-width="0.288323" stroke-miterlimit="22.9256"/>
<path d="M1047.92 407.842V412.609" stroke="#008AB8" stroke-width="0.288323" stroke-miterlimit="22.9256"/>
<path d="M1075.45 407.842V412.609" stroke="#008AB8" stroke-width="0.288323" stroke-miterlimit="22.9256"/>
<path d="M872.11 339.532L866.813 327.881" stroke="black" stroke-width="0.288323" stroke-miterlimit="22.9256"/>
<path d="M872.11 318.88L863.636 332.648" stroke="black" stroke-width="0.288323" stroke-miterlimit="22.9256"/>
<path d="M863.636 318.88V339.532" stroke="black" stroke-width="0.288323" stroke-miterlimit="22.9256"/>
<path d="M881.641 318.88L877.934 335.825L877.404 337.415L876.874 338.472L875.287 339.532H874.757" stroke="black" stroke-width="0.288323" stroke-miterlimit="22.9256"/>
<path d="M873.697 318.88L877.934 335.825" stroke="black" stroke-width="0.288323" stroke-miterlimit="22.9256"/>
<path d="M891.172 318.88L883.229 339.532" stroke="black" stroke-width="0.288323" stroke-miterlimit="22.9256"/>
<path d="M883.229 318.88L891.172 339.532" stroke="black" stroke-width="0.288323" stroke-miterlimit="22.9256"/>
<path d="M894.35 318.88V339.532" stroke="black" stroke-width="0.288323" stroke-miterlimit="22.9256"/>
<path d="M894.35 328.941H902.294" stroke="black" stroke-width="0.288323" stroke-miterlimit="22.9256"/>
<path d="M902.293 339.532V318.88" stroke="black" stroke-width="0.288323" stroke-miterlimit="22.9256"/>
<path d="M906 339.532L909.707 328.941" stroke="black" stroke-width="0.288323" stroke-miterlimit="22.9256"/>
<path d="M913.945 339.532V318.88H908.648L907.058 319.94L906.531 320.997L906 323.117V324.704L906.531 326.821L907.058 327.881L908.648 328.941H913.945" stroke="black" stroke-width="0.288323" stroke-miterlimit="22.9256"/>
<path d="M854.635 357.007L855.692 355.947L857.282 353.3V373.422" stroke="black" stroke-width="0.288323" stroke-miterlimit="22.9256"/>
<path d="M871.05 355.947L869.99 353.83L868.403 353.3H867.343L865.753 353.83L864.166 357.007L863.636 361.771V366.538L864.166 370.775L865.753 372.365L867.343 373.422H867.873L869.463 372.365L871.05 370.775L871.58 367.598V366.538L871.05 363.891L869.463 361.771L867.873 360.714H867.343L865.753 361.771L864.166 363.891L863.636 366.538" stroke="black" stroke-width="0.288323" stroke-miterlimit="22.9256"/>
<path d="M876.874 372.365L875.817 373.422L875.287 372.365L875.817 371.305L876.874 372.365ZM876.874 372.365V374.482L875.817 376.599L875.287 377.129" stroke="black" stroke-width="0.288323" stroke-miterlimit="22.9256"/>
<path d="M888.525 355.947L887.465 353.83L885.878 353.3H884.818L883.228 353.83L881.641 357.007L881.111 361.771V366.538L881.641 370.775L883.228 372.365L884.818 373.422H885.348L886.938 372.365L888.525 370.775L889.055 367.598V366.538L888.525 363.891L886.938 361.771L885.348 360.714H884.818L883.228 361.771L881.641 363.891L881.111 366.538" stroke="black" stroke-width="0.288323" stroke-miterlimit="22.9256"/>
<path d="M894.349 353.3H900.703L896.999 360.714H898.586L900.176 361.771L900.703 362.831L901.233 365.478V367.598L900.703 370.775L899.116 372.365L897.526 373.422H895.939L894.349 372.365L893.292 371.305L892.762 369.715" stroke="black" stroke-width="0.288323" stroke-miterlimit="22.9256"/>
<path d="M915.002 373.422V359.654L910.767 370.775L907.058 359.654V373.422" stroke="black" stroke-width="0.288323" stroke-miterlimit="22.9256"/>
<path d="M918.179 358.067V357.007L918.711 354.89L919.238 353.83L920.298 353.3H922.945L924.005 353.83L924.533 354.89L925.065 357.007V359.124L924.533 360.714L923.475 363.891L917.651 373.422H925.593" stroke="black" stroke-width="0.288323" stroke-miterlimit="22.9256"/>
<path d="M198.525 116.062L197.998 113.945L197.468 113.415L196.938 112.355L195.878 111.295H193.231L192.171 112.355L191.641 113.415L191.114 113.945L190.584 116.062L190.054 119.239V124.006L190.584 126.653L191.114 128.771L192.171 130.89L193.231 131.42H195.878L196.938 130.89L197.998 128.771L198.525 126.653" stroke="black" stroke-width="0.288323" stroke-miterlimit="22.9256"/>
<path d="M202.235 131.42V111.295H210.176V131.42" stroke="black" stroke-width="0.288323" stroke-miterlimit="22.9256"/>
<path d="M214.943 125.066H220.767" stroke="black" stroke-width="0.288323" stroke-miterlimit="22.9256"/>
<path d="M213.353 131.42L217.59 111.295L222.354 131.42" stroke="black" stroke-width="0.288323" stroke-miterlimit="22.9256"/>
<path d="M232.418 131.42V111.295H226.064V127.713L225.534 129.83L225.004 130.89L223.414 131.42" stroke="black" stroke-width="0.288323" stroke-miterlimit="22.9256"/>
<path d="M237.182 111.295V131.42H243.009L244.066 130.89L244.596 129.83L245.126 127.713V124.006L244.596 121.886L244.066 120.829L243.009 119.769H237.182" stroke="black" stroke-width="0.288323" stroke-miterlimit="22.9256"/>
<path d="M248.833 111.295V131.42" stroke="black" stroke-width="0.288323" stroke-miterlimit="22.9256"/>
<path d="M248.833 120.83H256.777" stroke="black" stroke-width="0.288323" stroke-miterlimit="22.9256"/>
<path d="M256.777 131.42V111.295" stroke="black" stroke-width="0.288323" stroke-miterlimit="22.9256"/>
<path d="M260.482 131.421L264.191 120.83" stroke="black" stroke-width="0.288323" stroke-miterlimit="22.9256"/>
<path d="M268.426 131.42V111.295H263.132L261.542 112.355L261.014 113.415L260.482 115.005V117.122L261.014 119.239L261.542 119.769L263.132 120.829H268.426" stroke="black" stroke-width="0.288323" stroke-miterlimit="22.9256"/>
<path d="M194.821 148.895L195.878 148.366L197.468 145.188V165.841" stroke="black" stroke-width="0.288323" stroke-miterlimit="22.9256"/>
<path d="M211.766 152.073L211.236 154.72L210.176 156.837L208.059 157.897H207.529L205.939 156.837L204.879 154.72L204.352 152.073V151.013L204.879 148.366L205.939 146.246L207.529 145.188H208.059L210.176 146.246L211.236 148.366L211.766 152.073ZM211.766 152.073V156.837L211.236 161.604L210.176 164.781L208.059 165.841H206.999L205.412 164.781L204.879 162.664" stroke="black" stroke-width="0.288323" stroke-miterlimit="22.9256"/>
<path d="M217.06 164.781L216.53 165.841L216 164.781L216.53 163.721L217.06 164.781ZM217.06 164.781V166.898L216.53 168.488L216 169.548" stroke="black" stroke-width="0.288323" stroke-miterlimit="22.9256"/>
<path d="M221.827 145.188H229.768L223.944 165.841" stroke="black" stroke-width="0.288323" stroke-miterlimit="22.9256"/>
<path d="M234.535 145.188H240.889L237.182 153.132H239.302L240.362 154.19L240.889 154.72L241.419 157.897V160.014L240.889 162.664L239.829 164.781L237.712 165.841H236.125L234.535 164.781L234.005 163.721L233.475 161.604" stroke="black" stroke-width="0.288323" stroke-miterlimit="22.9256"/>
<path d="M255.188 165.841V152.073L251.481 162.664L247.244 152.073V165.841" stroke="black" stroke-width="0.288323" stroke-miterlimit="22.9256"/>
<path d="M258.365 149.953V148.895L258.895 147.306L259.425 146.246L260.482 145.188H263.132L264.191 146.246L264.719 147.306L265.249 148.895V151.013L264.719 153.132L263.659 155.78L257.837 165.841H265.779" stroke="black" stroke-width="0.288323" stroke-miterlimit="22.9256"/>
<path d="M877.934 118.71L877.404 116.593L876.874 115.533L876.344 114.473L875.287 113.416H872.64L871.58 114.473L871.05 115.533L870.52 116.593L869.99 118.71L869.463 121.36V126.124L869.99 129.301L870.52 130.891L871.58 133.008L872.64 134.068H875.287L876.344 133.008L877.404 130.891L877.934 129.301" stroke="black" stroke-width="0.288323" stroke-miterlimit="22.9256"/>
<path d="M881.641 134.068V113.416H889.583V134.068" stroke="black" stroke-width="0.288323" stroke-miterlimit="22.9256"/>
<path d="M894.35 127.184H900.176" stroke="black" stroke-width="0.288323" stroke-miterlimit="22.9256"/>
<path d="M892.762 134.068L896.999 113.416L901.763 134.068" stroke="black" stroke-width="0.288323" stroke-miterlimit="22.9256"/>
<path d="M911.825 134.068V113.416H905.471V130.361L904.941 131.948L904.413 133.008L902.823 134.068" stroke="black" stroke-width="0.288323" stroke-miterlimit="22.9256"/>
<path d="M916.592 113.416V134.068H922.416L923.476 133.008L924.006 131.948L924.533 130.361V126.124L924.006 124.537L923.476 123.477L922.416 122.417H916.592" stroke="black" stroke-width="0.288323" stroke-miterlimit="22.9256"/>
<path d="M928.242 113.416V134.068" stroke="black" stroke-width="0.288323" stroke-miterlimit="22.9256"/>
<path d="M928.242 123.477H936.184" stroke="black" stroke-width="0.288323" stroke-miterlimit="22.9256"/>
<path d="M936.184 134.068V113.416" stroke="black" stroke-width="0.288323" stroke-miterlimit="22.9256"/>
<path d="M939.891 134.068L944.128 123.477" stroke="black" stroke-width="0.288323" stroke-miterlimit="22.9256"/>
<path d="M947.835 134.068V113.416H942.54L940.951 114.473L940.421 115.533L939.891 117.65V119.24L940.421 121.36L940.951 122.417L942.54 123.477H947.835" stroke="black" stroke-width="0.288323" stroke-miterlimit="22.9256"/>
<path d="M874.227 151.543L875.287 150.483L876.874 147.836V167.958" stroke="black" stroke-width="0.288323" stroke-miterlimit="22.9256"/>
<path d="M891.172 154.19L890.642 157.367L889.582 159.487L887.465 160.014H886.938L885.348 159.487L884.288 157.367L883.758 154.19V153.66L884.288 150.483L885.348 148.366L886.938 147.836H887.465L889.582 148.366L890.642 150.483L891.172 154.19ZM891.172 154.19V159.487L890.642 164.251L889.582 166.898L887.465 167.958H886.405L884.818 166.898L884.288 165.311" stroke="black" stroke-width="0.288323" stroke-miterlimit="22.9256"/>
<path d="M896.469 166.898L895.939 167.958L895.409 166.898L895.939 165.841L896.469 166.898ZM896.469 166.898V169.018L895.939 171.135L895.409 171.665" stroke="black" stroke-width="0.288323" stroke-miterlimit="22.9256"/>
<path d="M904.413 147.836L902.823 148.366L901.763 151.543L901.233 156.31V159.487L901.763 164.251L902.823 166.898L904.413 167.958H905.47L907.59 166.898L908.647 164.251L909.177 159.487V156.31L908.647 151.543L907.59 148.366L905.47 147.836H904.413Z" stroke="black" stroke-width="0.288323" stroke-miterlimit="22.9256"/>
<path d="M920.299 154.19L919.769 157.367L918.711 159.487L916.592 160.014H916.062L914.474 159.487L913.414 157.367L912.885 154.19V153.66L913.414 150.483L914.474 148.366L916.062 147.836H916.592L918.711 148.366L919.769 150.483L920.299 154.19ZM920.299 154.19V159.487L919.769 164.251L918.711 166.898L916.592 167.958H915.532L913.944 166.898L913.414 165.311" stroke="black" stroke-width="0.288323" stroke-miterlimit="22.9256"/>
<path d="M934.597 167.958V154.19L930.89 165.311L926.653 154.19V167.958" stroke="black" stroke-width="0.288323" stroke-miterlimit="22.9256"/>
<path d="M937.774 152.6V151.543L938.304 149.423L938.831 148.366L939.891 147.836H942.541L943.598 148.366L944.128 149.423L944.658 151.543V153.66L944.128 155.25L943.068 158.427L937.244 167.958H945.188" stroke="black" stroke-width="0.288323" stroke-miterlimit="22.9256"/>
<path d="M315.027 307.759H308.143V327.881" stroke="black" stroke-width="0.288323" stroke-miterlimit="22.9256"/>
<path d="M320.851 307.759H322.971L324.028 308.819L325.618 310.406L326.148 312.526L326.678 315.173V320.467L326.148 323.117L325.618 325.234L324.028 326.821L322.971 327.881H320.851L319.794 326.821L318.204 325.234L317.674 323.117L317.144 320.467V315.173L317.674 312.526L318.204 310.406L319.794 308.819L320.851 307.759Z" stroke="black" stroke-width="0.288323" stroke-miterlimit="22.9256"/>
<path d="M338.856 312.526L338.326 310.406L337.796 309.349L337.269 308.819L335.679 307.759H333.559L332.502 308.819L331.972 309.349L331.442 310.406L330.912 312.526L329.855 315.173V320.467L330.912 323.117L331.442 325.234L332.502 326.821L333.559 327.881H335.679L337.269 326.821L338.326 325.234L338.856 323.117" stroke="black" stroke-width="0.288323" stroke-miterlimit="22.9256"/>
<path d="M344.68 307.759V327.881" stroke="black" stroke-width="0.288323" stroke-miterlimit="22.9256"/>
<path d="M340.446 307.759H348.917" stroke="black" stroke-width="0.288323" stroke-miterlimit="22.9256"/>
<path d="M351.567 307.759V327.881L360.038 307.759V327.881" stroke="black" stroke-width="0.288323" stroke-miterlimit="22.9256"/>
<path d="M364.275 307.759V327.881" stroke="black" stroke-width="0.288323" stroke-miterlimit="22.9256"/>
<path d="M364.275 317.29H372.746" stroke="black" stroke-width="0.288323" stroke-miterlimit="22.9256"/>
<path d="M372.746 327.881V307.759" stroke="black" stroke-width="0.288323" stroke-miterlimit="22.9256"/>
<path d="M377.513 320.997H383.337" stroke="black" stroke-width="0.288323" stroke-miterlimit="22.9256"/>
<path d="M375.396 327.881L380.16 307.759L384.927 327.881" stroke="black" stroke-width="0.288323" stroke-miterlimit="22.9256"/>
<path d="M386.517 327.881L390.751 317.29" stroke="black" stroke-width="0.288323" stroke-miterlimit="22.9256"/>
<path d="M394.988 327.881V307.759H389.694L387.574 308.819L387.044 309.349L386.517 311.466V313.583L387.044 315.173L387.574 316.23L389.694 317.29H394.988" stroke="black" stroke-width="0.288323" stroke-miterlimit="22.9256"/>
<path d="M316.617 346.416V345.356L317.144 343.769L317.674 342.709L318.734 341.649H320.851L322.441 342.709L322.971 343.769L323.498 345.356V347.473L322.971 349.593L321.911 352.24L315.557 362.301H324.028" stroke="black" stroke-width="0.288323" stroke-miterlimit="22.9256"/>
<path d="M333.559 362.301V341.649L327.735 355.417H336.209" stroke="black" stroke-width="0.288323" stroke-miterlimit="22.9256"/>
<path d="M340.446 361.244L339.916 362.301L339.386 361.244L339.916 360.184L340.446 361.244ZM340.446 361.244V362.831L339.916 364.948L339.386 366.008" stroke="black" stroke-width="0.288323" stroke-miterlimit="22.9256"/>
<path d="M348.387 341.649L346.8 342.709L345.74 345.356L345.21 350.653V353.3L345.74 358.067L346.8 361.244L348.387 362.301H349.447L351.567 361.244L352.624 358.067L353.154 353.3V350.653L352.624 345.356L351.567 342.709L349.447 341.649H348.387Z" stroke="black" stroke-width="0.288323" stroke-miterlimit="22.9256"/>
<path d="M357.391 346.416V345.356L357.921 343.769L358.448 342.709L359.508 341.649H361.628L363.215 342.709L363.745 343.769L364.275 345.356V347.473L363.745 349.593L362.685 352.24L356.861 362.301H364.805" stroke="black" stroke-width="0.288323" stroke-miterlimit="22.9256"/>
<path d="M378.573 362.301V348.533L374.866 359.124L370.629 348.533V362.301" stroke="black" stroke-width="0.288323" stroke-miterlimit="22.9256"/>
<path d="M381.75 346.416V345.356L382.28 343.769L382.807 342.709L383.867 341.649H386.517L387.574 342.709L388.104 343.769L388.634 345.356V347.473L388.104 349.593L387.044 352.24L381.22 362.301H389.161" stroke="black" stroke-width="0.288323" stroke-miterlimit="22.9256"/>
<path d="M571.326 174.842L562.855 195.494" stroke="black" stroke-width="0.288323" stroke-miterlimit="22.9256"/>
<path d="M562.855 174.842L571.326 195.494" stroke="black" stroke-width="0.288323" stroke-miterlimit="22.9256"/>
<path d="M577.153 174.842H579.27L580.33 175.902L581.918 177.489L582.447 179.609L582.977 182.786V187.55L582.447 190.2L581.918 192.317L580.33 194.437L579.27 195.494H577.153L576.093 194.437L574.503 192.317L573.976 190.2L573.444 187.55V182.786L573.976 179.609L574.503 177.489L576.093 175.902L577.153 174.842Z" stroke="black" stroke-width="0.288323" stroke-miterlimit="22.9256"/>
<path d="M594.099 195.494V174.842H587.742V191.26L586.685 193.377L586.155 194.437L585.095 195.494" stroke="black" stroke-width="0.288323" stroke-miterlimit="22.9256"/>
<path d="M605.747 195.494V174.842H599.393V191.26L598.863 193.377L597.806 194.437L596.746 195.494" stroke="black" stroke-width="0.288323" stroke-miterlimit="22.9256"/>
<path d="M550.144 212.969L551.204 211.912L552.791 208.735V229.387" stroke="black" stroke-width="0.288323" stroke-miterlimit="22.9256"/>
<path d="M562.855 208.735L560.736 209.792L559.678 212.969L559.148 217.736V220.383L559.678 225.15L560.736 228.327L562.855 229.387H563.913L565.502 228.327L566.562 225.15L567.62 220.383V217.736L566.562 212.969L565.502 209.792L563.913 208.735H562.855Z" stroke="black" stroke-width="0.288323" stroke-miterlimit="22.9256"/>
<path d="M571.857 228.327L571.327 229.387L570.799 228.327L571.327 227.267L571.857 228.327ZM571.857 228.327V230.444L571.327 232.034L570.799 233.091" stroke="black" stroke-width="0.288323" stroke-miterlimit="22.9256"/>
<path d="M576.623 208.735H585.095L579.27 229.387" stroke="black" stroke-width="0.288323" stroke-miterlimit="22.9256"/>
<path d="M595.156 208.735H589.332L588.802 217.736L589.332 216.676L591.451 215.616H593.039L594.629 216.676L596.216 218.796L596.746 221.443V223.56L596.216 226.21L594.629 228.327L593.039 229.387H591.451L589.332 228.327L588.802 227.267L588.272 225.15" stroke="black" stroke-width="0.288323" stroke-miterlimit="22.9256"/>
<path d="M610.514 229.387V215.616L606.277 226.21L602.57 215.616V229.387" stroke="black" stroke-width="0.288323" stroke-miterlimit="22.9256"/>
<path d="M613.691 213.499V212.969L614.221 210.852L614.748 209.792L615.808 208.735H617.928L619.515 209.792L620.045 210.852L620.575 212.969V214.559L620.045 216.676L618.458 219.323L612.631 229.387H621.105" stroke="black" stroke-width="0.288323" stroke-miterlimit="22.9256"/>
<path d="M1061.69 254.273V261.16" stroke="#FF0000" stroke-width="0.288323" stroke-miterlimit="22.9256"/>
<path d="M1061.69 271.219V339.002" stroke="#FF0000" stroke-width="0.288323" stroke-miterlimit="22.9256"/>
<path d="M1061.69 349.593V355.947" stroke="#FF0000" stroke-width="0.288323" stroke-miterlimit="22.9256"/>
<path d="M1061.69 366.538V434.321" stroke="#FF0000" stroke-width="0.288323" stroke-miterlimit="22.9256"/>
<path d="M1061.69 444.382V451.264" stroke="#FF0000" stroke-width="0.288323" stroke-miterlimit="22.9256"/>
<path d="M462.772 8.03516H456.415" stroke="black" stroke-width="0.288323" stroke-miterlimit="22.9256"/>
<path d="M564.972 21.2759H531.082" stroke="black" stroke-width="0.288323" stroke-miterlimit="22.9256"/>
<path d="M462.772 21.2759H456.415" stroke="black" stroke-width="0.288323" stroke-miterlimit="22.9256"/>
<path d="M449.531 21.2759H445.824" stroke="black" stroke-width="0.288323" stroke-miterlimit="22.9256"/>
<path d="M531.082 21.276V8.03516" stroke="black" stroke-width="0.288323" stroke-miterlimit="22.9256"/>
<path d="M462.772 21.276V8.03516" stroke="black" stroke-width="0.288323" stroke-miterlimit="22.9256"/>
<path d="M462.772 8.03516H531.082" stroke="black" stroke-width="0.288323" stroke-miterlimit="22.9256"/>
<path d="M95.7944 40.8681L97.9116 38.2183" stroke="#FF0000" stroke-width="0.288323" stroke-miterlimit="22.9256"/>
<path d="M95.7944 71.0511L122.801 44.0449" stroke="#FF0000" stroke-width="0.288323" stroke-miterlimit="22.9256"/>
<path d="M107.973 89.5863L122.801 74.7583" stroke="#FF0000" stroke-width="0.288323" stroke-miterlimit="22.9256"/>
<path d="M95.7944 55.6935L103.208 48.2822" stroke="#FF0000" stroke-width="0.288323" stroke-miterlimit="22.9256"/>
<path d="M108.505 44.5751C108.505 43.9902 108.028 43.5151 107.445 43.5151C106.861 43.5151 106.385 43.9902 106.385 44.5751C106.385 45.1572 106.861 45.635 107.445 45.635C108.028 45.635 108.505 45.1572 108.505 44.5751Z" fill="#FF0000"/>
<path d="M107.445 44.5751H108.505M108.505 44.5751C108.505 43.9902 108.028 43.5151 107.445 43.5151C106.861 43.5151 106.385 43.9902 106.385 44.5751C106.385 45.1572 106.861 45.635 107.445 45.635C108.028 45.635 108.505 45.1572 108.505 44.5751Z" stroke="black" stroke-width="0.288323" stroke-miterlimit="22.9256"/>
<path d="M111.15 40.3381L113.27 38.2183" stroke="#FF0000" stroke-width="0.288323" stroke-miterlimit="22.9256"/>
<path d="M96.8572 86.409C96.8572 85.8242 96.3794 85.3491 95.7972 85.3491C95.2123 85.3491 94.7373 85.8242 94.7373 86.409C94.7373 86.9912 95.2123 87.469 95.7972 87.469C96.3794 87.469 96.8572 86.9912 96.8572 86.409Z" fill="#FF0000"/>
<path d="M95.7972 86.409H96.8572M96.8572 86.409C96.8572 85.8242 96.3794 85.3491 95.7972 85.3491C95.2123 85.3491 94.7373 85.8242 94.7373 86.409C94.7373 86.9912 95.2123 87.469 95.7972 87.469C96.3794 87.469 96.8572 86.9912 96.8572 86.409Z" stroke="black" stroke-width="0.288323" stroke-miterlimit="22.9256"/>
<path d="M99.5015 82.6995L118.564 63.6372" stroke="#FF0000" stroke-width="0.288323" stroke-miterlimit="22.9256"/>
<path d="M123.333 59.4003C123.333 58.8154 122.856 58.3403 122.274 58.3403C121.689 58.3403 121.214 58.8154 121.214 59.4003C121.214 59.9824 121.689 60.4602 122.274 60.4602C122.856 60.4602 123.333 59.9824 123.333 59.4003Z" fill="#FF0000"/>
<path d="M122.274 59.4003H123.333M123.333 59.4003C123.333 58.8154 122.856 58.3403 122.274 58.3403C121.689 58.3403 121.214 58.8154 121.214 59.4003C121.214 59.9824 121.689 60.4602 122.274 60.4602C122.856 60.4602 123.333 59.9824 123.333 59.4003Z" stroke="black" stroke-width="0.288323" stroke-miterlimit="22.9256"/>
<path d="M95.7944 38.2183H122.801V89.5864H95.7944V38.2183Z" stroke="#FF0000" stroke-width="0.288323" stroke-miterlimit="22.9256"/>
<path d="M95.7944 363.891L97.9116 361.771" stroke="#FF0000" stroke-width="0.288323" stroke-miterlimit="22.9256"/>
<path d="M95.7944 394.604L122.801 367.068" stroke="#FF0000" stroke-width="0.288323" stroke-miterlimit="22.9256"/>
<path d="M95.7944 424.787L122.801 397.781" stroke="#FF0000" stroke-width="0.288323" stroke-miterlimit="22.9256"/>
<path d="M95.7944 455.501L122.801 428.495" stroke="#FF0000" stroke-width="0.288323" stroke-miterlimit="22.9256"/>
<path d="M101.089 480.92L122.801 458.681" stroke="#FF0000" stroke-width="0.288323" stroke-miterlimit="22.9256"/>
<path d="M95.7944 379.246L103.208 371.305" stroke="#FF0000" stroke-width="0.288323" stroke-miterlimit="22.9256"/>
<path d="M108.505 367.598C108.505 367.013 108.028 366.538 107.445 366.538C106.861 366.538 106.385 367.013 106.385 367.598C106.385 368.183 106.861 368.658 107.445 368.658C108.028 368.658 108.505 368.183 108.505 367.598Z" fill="#FF0000"/>
<path d="M107.445 367.598H108.505M108.505 367.598C108.505 367.013 108.028 366.538 107.445 366.538C106.861 366.538 106.385 367.013 106.385 367.598C106.385 368.183 106.861 368.658 107.445 368.658C108.028 368.658 108.505 368.183 108.505 367.598Z" stroke="black" stroke-width="0.288323" stroke-miterlimit="22.9256"/>
<path d="M111.15 363.891L113.27 361.771" stroke="#FF0000" stroke-width="0.288323" stroke-miterlimit="22.9256"/>
<path d="M96.8572 409.432C96.8572 408.847 96.3794 408.372 95.7972 408.372C95.2123 408.372 94.7373 408.847 94.7373 409.432C94.7373 410.017 95.2123 410.492 95.7972 410.492C96.3794 410.492 96.8572 410.017 96.8572 409.432Z" fill="#FF0000"/>
<path d="M95.7972 409.432H96.8572M96.8572 409.432C96.8572 408.847 96.3794 408.372 95.7972 408.372C95.2123 408.372 94.7373 408.847 94.7373 409.432C94.7373 410.017 95.2123 410.492 95.7972 410.492C96.3794 410.492 96.8572 410.017 96.8572 409.432Z" stroke="black" stroke-width="0.288323" stroke-miterlimit="22.9256"/>
<path d="M99.5015 405.725L118.564 386.66" stroke="#FF0000" stroke-width="0.288323" stroke-miterlimit="22.9256"/>
<path d="M123.333 382.953C123.333 382.369 122.856 381.894 122.274 381.894C121.689 381.894 121.214 382.369 121.214 382.953C121.214 383.538 121.689 384.013 122.274 384.013C122.856 384.013 123.333 383.538 123.333 382.953Z" fill="#FF0000"/>
<path d="M122.274 382.953H123.333M123.333 382.953C123.333 382.369 122.856 381.894 122.274 381.894C121.689 381.894 121.214 382.369 121.214 382.953C121.214 383.538 121.689 384.013 122.274 384.013C122.856 384.013 123.333 383.538 123.333 382.953Z" stroke="black" stroke-width="0.288323" stroke-miterlimit="22.9256"/>
<path d="M95.7944 440.146L107.445 428.495" stroke="#FF0000" stroke-width="0.288323" stroke-miterlimit="22.9256"/>
<path d="M112.212 424.787C112.212 424.203 111.735 423.728 111.152 423.728C110.568 423.728 110.093 424.203 110.093 424.787C110.093 425.372 110.568 425.847 111.152 425.847C111.735 425.847 112.212 425.372 112.212 424.787Z" fill="#FF0000"/>
<path d="M111.152 424.787H112.212M112.212 424.787C112.212 424.203 111.735 423.728 111.152 423.728C110.568 423.728 110.093 424.203 110.093 424.787C110.093 425.372 110.568 425.847 111.152 425.847C111.735 425.847 112.212 425.372 112.212 424.787Z" stroke="black" stroke-width="0.288323" stroke-miterlimit="22.9256"/>
<path d="M114.86 421.08L122.801 413.139" stroke="#FF0000" stroke-width="0.288323" stroke-miterlimit="22.9256"/>
<path d="M96.8572 470.859C96.8572 470.274 96.3794 469.799 95.7972 469.799C95.2123 469.799 94.7373 470.274 94.7373 470.859C94.7373 471.444 95.2123 471.919 95.7972 471.919C96.3794 471.919 96.8572 471.444 96.8572 470.859Z" fill="#FF0000"/>
<path d="M95.7972 470.859H96.8572M96.8572 470.859C96.8572 470.274 96.3794 469.799 95.7972 469.799C95.2123 469.799 94.7373 470.274 94.7373 470.859C94.7373 471.444 95.2123 471.919 95.7972 471.919C96.3794 471.919 96.8572 471.444 96.8572 470.859Z" stroke="black" stroke-width="0.288323" stroke-miterlimit="22.9256"/>
<path d="M100.562 466.622C100.562 466.037 100.084 465.562 99.5016 465.562C98.9167 465.562 98.4417 466.037 98.4417 466.622C98.4417 467.207 98.9167 467.682 99.5016 467.682C100.084 467.682 100.562 467.207 100.562 466.622Z" fill="#FF0000"/>
<path d="M99.5016 466.622H100.562M100.562 466.622C100.562 466.037 100.084 465.562 99.5016 465.562C98.9167 465.562 98.4417 466.037 98.4417 466.622C98.4417 467.207 98.9167 467.682 99.5016 467.682C100.084 467.682 100.562 467.207 100.562 466.622Z" stroke="black" stroke-width="0.288323" stroke-miterlimit="22.9256"/>
<path d="M103.208 462.918L122.271 443.853" stroke="#FF0000" stroke-width="0.288323" stroke-miterlimit="22.9256"/>
<path d="M118.564 478.273L122.801 474.036" stroke="#FF0000" stroke-width="0.288323" stroke-miterlimit="22.9256"/>
<path d="M95.7944 361.771H122.801V480.92H95.7944V361.771Z" stroke="#FF0000" stroke-width="0.288323" stroke-miterlimit="22.9256"/>
<path d="M1047.92 363.891L1050.57 361.771" stroke="#FF0000" stroke-width="0.288323" stroke-miterlimit="22.9256"/>
<path d="M1047.92 394.604L1075.45 367.068" stroke="#FF0000" stroke-width="0.288323" stroke-miterlimit="22.9256"/>
<path d="M1047.92 424.787L1075.45 397.781" stroke="#FF0000" stroke-width="0.288323" stroke-miterlimit="22.9256"/>
<path d="M1047.92 455.501L1075.45 428.495" stroke="#FF0000" stroke-width="0.288323" stroke-miterlimit="22.9256"/>
<path d="M1053.21 480.92L1075.45 458.681" stroke="#FF0000" stroke-width="0.288323" stroke-miterlimit="22.9256"/>
<path d="M1047.92 379.246L1055.86 371.305" stroke="#FF0000" stroke-width="0.288323" stroke-miterlimit="22.9256"/>
<path d="M1060.63 367.598C1060.63 367.013 1060.15 366.538 1059.57 366.538C1058.98 366.538 1058.51 367.013 1058.51 367.598C1058.51 368.183 1058.98 368.658 1059.57 368.658C1060.15 368.658 1060.63 368.183 1060.63 367.598Z" fill="#FF0000"/>
<path d="M1059.57 367.598H1060.63M1060.63 367.598C1060.63 367.013 1060.15 366.538 1059.57 366.538C1058.98 366.538 1058.51 367.013 1058.51 367.598C1058.51 368.183 1058.98 368.658 1059.57 368.658C1060.15 368.658 1060.63 368.183 1060.63 367.598Z" stroke="black" stroke-width="0.288323" stroke-miterlimit="22.9256"/>
<path d="M1063.28 363.891L1065.39 361.771" stroke="#FF0000" stroke-width="0.288323" stroke-miterlimit="22.9256"/>
<path d="M1049.51 409.432C1049.51 408.847 1049.03 408.372 1048.45 408.372C1047.86 408.372 1047.39 408.847 1047.39 409.432C1047.39 410.017 1047.86 410.492 1048.45 410.492C1049.03 410.492 1049.51 410.017 1049.51 409.432Z" fill="#FF0000"/>
<path d="M1048.45 409.432H1049.51M1049.51 409.432C1049.51 408.847 1049.03 408.372 1048.45 408.372C1047.86 408.372 1047.39 408.847 1047.39 409.432C1047.39 410.017 1047.86 410.492 1048.45 410.492C1049.03 410.492 1049.51 410.017 1049.51 409.432Z" stroke="black" stroke-width="0.288323" stroke-miterlimit="22.9256"/>
<path d="M1052.16 405.725L1071.22 386.66" stroke="#FF0000" stroke-width="0.288323" stroke-miterlimit="22.9256"/>
<path d="M1075.99 382.953C1075.99 382.369 1075.51 381.894 1074.93 381.894C1074.34 381.894 1073.87 382.369 1073.87 382.953C1073.87 383.538 1074.34 384.013 1074.93 384.013C1075.51 384.013 1075.99 383.538 1075.99 382.953Z" fill="#FF0000"/>
<path d="M1074.93 382.953H1075.99M1075.99 382.953C1075.99 382.369 1075.51 381.894 1074.93 381.894C1074.34 381.894 1073.87 382.369 1073.87 382.953C1073.87 383.538 1074.34 384.013 1074.93 384.013C1075.51 384.013 1075.99 383.538 1075.99 382.953Z" stroke="black" stroke-width="0.288323" stroke-miterlimit="22.9256"/>
<path d="M1047.92 440.146L1059.57 428.495" stroke="#FF0000" stroke-width="0.288323" stroke-miterlimit="22.9256"/>
<path d="M1064.34 424.787C1064.34 424.203 1063.86 423.728 1063.28 423.728C1062.69 423.728 1062.22 424.203 1062.22 424.787C1062.22 425.372 1062.69 425.847 1063.28 425.847C1063.86 425.847 1064.34 425.372 1064.34 424.787Z" fill="#FF0000"/>
<path d="M1063.28 424.787H1064.34M1064.34 424.787C1064.34 424.203 1063.86 423.728 1063.28 423.728C1062.69 423.728 1062.22 424.203 1062.22 424.787C1062.22 425.372 1062.69 425.847 1063.28 425.847C1063.86 425.847 1064.34 425.372 1064.34 424.787Z" stroke="black" stroke-width="0.288323" stroke-miterlimit="22.9256"/>
<path d="M1067.51 421.08L1075.45 413.139" stroke="#FF0000" stroke-width="0.288323" stroke-miterlimit="22.9256"/>
<path d="M1047.92 470.859H1048.45" stroke="#FF0000" stroke-width="0.288323" stroke-miterlimit="22.9256"/>
<path d="M1053.22 466.622C1053.22 466.037 1052.74 465.562 1052.16 465.562C1051.57 465.562 1051.1 466.037 1051.1 466.622C1051.1 467.207 1051.57 467.682 1052.16 467.682C1052.74 467.682 1053.22 467.207 1053.22 466.622Z" fill="#FF0000"/>
<path d="M1052.16 466.622H1053.22M1053.22 466.622C1053.22 466.037 1052.74 465.562 1052.16 465.562C1051.57 465.562 1051.1 466.037 1051.1 466.622C1051.1 467.207 1051.57 467.682 1052.16 467.682C1052.74 467.682 1053.22 467.207 1053.22 466.622Z" stroke="black" stroke-width="0.288323" stroke-miterlimit="22.9256"/>
<path d="M1055.86 462.918L1074.92 443.853" stroke="#FF0000" stroke-width="0.288323" stroke-miterlimit="22.9256"/>
<path d="M1071.22 478.273L1075.45 474.036" stroke="#FF0000" stroke-width="0.288323" stroke-miterlimit="22.9256"/>
<path d="M1047.92 361.771H1075.45V480.92H1047.92V361.771Z" stroke="#FF0000" stroke-width="0.288323" stroke-miterlimit="22.9256"/>
<path d="M1047.92 40.8681L1050.57 38.2183" stroke="#FF0000" stroke-width="0.288323" stroke-miterlimit="22.9256"/>
<path d="M1047.92 71.0511L1075.45 44.0449" stroke="#FF0000" stroke-width="0.288323" stroke-miterlimit="22.9256"/>
<path d="M1060.63 89.5863L1075.45 74.7583" stroke="#FF0000" stroke-width="0.288323" stroke-miterlimit="22.9256"/>
<path d="M1047.92 55.6935L1055.86 48.2822" stroke="#FF0000" stroke-width="0.288323" stroke-miterlimit="22.9256"/>
<path d="M1060.63 44.5751C1060.63 43.9902 1060.15 43.5151 1059.57 43.5151C1058.98 43.5151 1058.51 43.9902 1058.51 44.5751C1058.51 45.1572 1058.98 45.635 1059.57 45.635C1060.15 45.635 1060.63 45.1572 1060.63 44.5751Z" fill="#FF0000"/>
<path d="M1059.57 44.5751H1060.63M1060.63 44.5751C1060.63 43.9902 1060.15 43.5151 1059.57 43.5151C1058.98 43.5151 1058.51 43.9902 1058.51 44.5751C1058.51 45.1572 1058.98 45.635 1059.57 45.635C1060.15 45.635 1060.63 45.1572 1060.63 44.5751Z" stroke="black" stroke-width="0.288323" stroke-miterlimit="22.9256"/>
<path d="M1063.28 40.3381L1065.39 38.2183" stroke="#FF0000" stroke-width="0.288323" stroke-miterlimit="22.9256"/>
<path d="M1049.51 86.409C1049.51 85.8242 1049.03 85.3491 1048.45 85.3491C1047.86 85.3491 1047.39 85.8242 1047.39 86.409C1047.39 86.9912 1047.86 87.469 1048.45 87.469C1049.03 87.469 1049.51 86.9912 1049.51 86.409Z" fill="#FF0000"/>
<path d="M1048.45 86.409H1049.51M1049.51 86.409C1049.51 85.8242 1049.03 85.3491 1048.45 85.3491C1047.86 85.3491 1047.39 85.8242 1047.39 86.409C1047.39 86.9912 1047.86 87.469 1048.45 87.469C1049.03 87.469 1049.51 86.9912 1049.51 86.409Z" stroke="black" stroke-width="0.288323" stroke-miterlimit="22.9256"/>
<path d="M1052.16 82.6995L1071.22 63.6372" stroke="#FF0000" stroke-width="0.288323" stroke-miterlimit="22.9256"/>
<path d="M1075.99 59.4003C1075.99 58.8154 1075.51 58.3403 1074.93 58.3403C1074.34 58.3403 1073.87 58.8154 1073.87 59.4003C1073.87 59.9824 1074.34 60.4602 1074.93 60.4602C1075.51 60.4602 1075.99 59.9824 1075.99 59.4003Z" fill="#FF0000"/>
<path d="M1074.93 59.4003H1075.99M1075.99 59.4003C1075.99 58.8154 1075.51 58.3403 1074.93 58.3403C1074.34 58.3403 1073.87 58.8154 1073.87 59.4003C1073.87 59.9824 1074.34 60.4602 1074.93 60.4602C1075.51 60.4602 1075.99 59.9824 1075.99 59.4003Z" stroke="black" stroke-width="0.288323" stroke-miterlimit="22.9256"/>
<path d="M1047.92 38.2183H1075.45V89.5864H1047.92V38.2183Z" stroke="#FF0000" stroke-width="0.288323" stroke-miterlimit="22.9256"/>
<path d="M128.625 511.103L126.508 508.986" stroke="#FF0000" stroke-width="0.288323" stroke-miterlimit="22.9256"/>
<path d="M158.811 511.103L131.802 484.097" stroke="#FF0000" stroke-width="0.288323" stroke-miterlimit="22.9256"/>
<path d="M189.524 511.103L162.518 484.097" stroke="#FF0000" stroke-width="0.288323" stroke-miterlimit="22.9256"/>
<path d="M220.237 511.103L192.701 484.097" stroke="#FF0000" stroke-width="0.288323" stroke-miterlimit="22.9256"/>
<path d="M245.126 505.809L223.414 484.097" stroke="#FF0000" stroke-width="0.288323" stroke-miterlimit="22.9256"/>
<path d="M143.453 511.103L136.039 503.692" stroke="#FF0000" stroke-width="0.288323" stroke-miterlimit="22.9256"/>
<path d="M128.098 495.748L126.508 493.631" stroke="#FF0000" stroke-width="0.288323" stroke-miterlimit="22.9256"/>
<path d="M175.229 511.103C175.229 510.518 174.751 510.043 174.169 510.043C173.584 510.043 173.109 510.518 173.109 511.103C173.109 511.688 173.584 512.163 174.169 512.163C174.751 512.163 175.229 511.688 175.229 511.103Z" fill="#FF0000"/>
<path d="M174.169 511.103H175.229M175.229 511.103C175.229 510.518 174.751 510.043 174.169 510.043C173.584 510.043 173.109 510.518 173.109 511.103C173.109 511.688 173.584 512.163 174.169 512.163C174.751 512.163 175.229 511.688 175.229 511.103Z" stroke="black" stroke-width="0.288323" stroke-miterlimit="22.9256"/>
<path d="M170.462 507.399L151.397 488.334" stroke="#FF0000" stroke-width="0.288323" stroke-miterlimit="22.9256"/>
<path d="M148.223 484.627C148.223 484.042 147.745 483.567 147.163 483.567C146.578 483.567 146.103 484.042 146.103 484.627C146.103 485.212 146.578 485.687 147.163 485.687C147.745 485.687 148.223 485.212 148.223 484.627Z" fill="#FF0000"/>
<path d="M147.163 484.627H148.223M148.223 484.627C148.223 484.042 147.745 483.567 147.163 483.567C146.578 483.567 146.103 484.042 146.103 484.627C146.103 485.212 146.578 485.687 147.163 485.687C147.745 485.687 148.223 485.212 148.223 484.627Z" stroke="black" stroke-width="0.288323" stroke-miterlimit="22.9256"/>
<path d="M204.879 511.103L193.231 499.455" stroke="#FF0000" stroke-width="0.288323" stroke-miterlimit="22.9256"/>
<path d="M190.587 495.748C190.587 495.163 190.109 494.688 189.527 494.688C188.942 494.688 188.467 495.163 188.467 495.748C188.467 496.333 188.942 496.808 189.527 496.808C190.109 496.808 190.587 496.333 190.587 495.748Z" fill="#FF0000"/>
<path d="M189.527 495.748H190.587M190.587 495.748C190.587 495.163 190.109 494.688 189.527 494.688C188.942 494.688 188.467 495.163 188.467 495.748C188.467 496.333 188.942 496.808 189.527 496.808C190.109 496.808 190.587 496.333 190.587 495.748Z" stroke="black" stroke-width="0.288323" stroke-miterlimit="22.9256"/>
<path d="M185.817 492.041L177.343 484.097" stroke="#FF0000" stroke-width="0.288323" stroke-miterlimit="22.9256"/>
<path d="M235.595 511.103H235.065" stroke="#FF0000" stroke-width="0.288323" stroke-miterlimit="22.9256"/>
<path d="M232.418 507.396C232.418 506.811 231.94 506.336 231.358 506.336C230.773 506.336 230.298 506.811 230.298 507.396C230.298 507.981 230.773 508.456 231.358 508.456C231.94 508.456 232.418 507.981 232.418 507.396Z" fill="#FF0000"/>
<path d="M231.358 507.396H232.418M232.418 507.396C232.418 506.811 231.94 506.336 231.358 506.336C230.773 506.336 230.298 506.811 230.298 507.396C230.298 507.981 230.773 508.456 231.358 508.456C231.94 508.456 232.418 507.981 232.418 507.396Z" stroke="black" stroke-width="0.288323" stroke-miterlimit="22.9256"/>
<path d="M227.651 503.692L208.589 484.627" stroke="#FF0000" stroke-width="0.288323" stroke-miterlimit="22.9256"/>
<path d="M243.009 488.334L238.772 484.097" stroke="#FF0000" stroke-width="0.288323" stroke-miterlimit="22.9256"/>
<path d="M126.508 511.103V484.097H245.127V511.103H126.508Z" stroke="#FF0000" stroke-width="0.288323" stroke-miterlimit="22.9256"/>
<path d="M128.625 35.0409L126.508 32.9238" stroke="#FF0000" stroke-width="0.288323" stroke-miterlimit="22.9256"/>
<path d="M158.811 35.0414L131.802 8.03516" stroke="#FF0000" stroke-width="0.288323" stroke-miterlimit="22.9256"/>
<path d="M189.524 35.0414L162.518 8.03516" stroke="#FF0000" stroke-width="0.288323" stroke-miterlimit="22.9256"/>
<path d="M220.237 35.0414L192.701 8.03516" stroke="#FF0000" stroke-width="0.288323" stroke-miterlimit="22.9256"/>
<path d="M245.126 29.7472L223.414 8.03516" stroke="#FF0000" stroke-width="0.288323" stroke-miterlimit="22.9256"/>
<path d="M143.453 35.0413L136.039 27.1001" stroke="#FF0000" stroke-width="0.288323" stroke-miterlimit="22.9256"/>
<path d="M133.395 23.3929C133.395 22.8081 132.917 22.333 132.335 22.333C131.75 22.333 131.275 22.8081 131.275 23.3929C131.275 23.9751 131.75 24.4529 132.335 24.4529C132.917 24.4529 133.395 23.9751 133.395 23.3929Z" fill="#FF0000"/>
<path d="M132.335 23.3929H133.395M133.395 23.3929C133.395 22.8081 132.917 22.333 132.335 22.333C131.75 22.333 131.275 22.8081 131.275 23.3929C131.275 23.9751 131.75 24.4529 132.335 24.4529C132.917 24.4529 133.395 23.9751 133.395 23.3929Z" stroke="black" stroke-width="0.288323" stroke-miterlimit="22.9256"/>
<path d="M128.098 19.6858L126.508 17.5659" stroke="#FF0000" stroke-width="0.288323" stroke-miterlimit="22.9256"/>
<path d="M175.229 35.0414C175.229 34.4565 174.751 33.9814 174.169 33.9814C173.584 33.9814 173.109 34.4565 173.109 35.0414C173.109 35.6235 173.584 36.1013 174.169 36.1013C174.751 36.1013 175.229 35.6235 175.229 35.0414Z" fill="#FF0000"/>
<path d="M174.169 35.0414H175.229M175.229 35.0414C175.229 34.4565 174.751 33.9814 174.169 33.9814C173.584 33.9814 173.109 34.4565 173.109 35.0414C173.109 35.6235 173.584 36.1013 174.169 36.1013C174.751 36.1013 175.229 35.6235 175.229 35.0414Z" stroke="black" stroke-width="0.288323" stroke-miterlimit="22.9256"/>
<path d="M170.462 31.3339L151.397 11.7417" stroke="#FF0000" stroke-width="0.288323" stroke-miterlimit="22.9256"/>
<path d="M148.223 8.03503C148.223 7.45014 147.745 6.9751 147.163 6.9751C146.578 6.9751 146.103 7.45014 146.103 8.03503C146.103 8.61716 146.578 9.09496 147.163 9.09496C147.745 9.09496 148.223 8.61716 148.223 8.03503Z" fill="#FF0000"/>
<path d="M147.163 8.03503H148.223M148.223 8.03503C148.223 7.45014 147.745 6.9751 147.163 6.9751C146.578 6.9751 146.103 7.45014 146.103 8.03503C146.103 8.61716 146.578 9.09496 147.163 9.09496C147.745 9.09496 148.223 8.61716 148.223 8.03503Z" stroke="black" stroke-width="0.288323" stroke-miterlimit="22.9256"/>
<path d="M204.879 35.0413L193.231 23.3931" stroke="#FF0000" stroke-width="0.288323" stroke-miterlimit="22.9256"/>
<path d="M190.587 19.6859C190.587 19.101 190.109 18.626 189.527 18.626C188.942 18.626 188.467 19.101 188.467 19.6859C188.467 20.268 188.942 20.7458 189.527 20.7458C190.109 20.7458 190.587 20.268 190.587 19.6859Z" fill="#FF0000"/>
<path d="M189.527 19.6859H190.587M190.587 19.6859C190.587 19.101 190.109 18.626 189.527 18.626C188.942 18.626 188.467 19.101 188.467 19.6859C188.467 20.268 188.942 20.7458 189.527 20.7458C190.109 20.7458 190.587 20.268 190.587 19.6859Z" stroke="black" stroke-width="0.288323" stroke-miterlimit="22.9256"/>
<path d="M185.817 15.9791L177.343 8.03516" stroke="#FF0000" stroke-width="0.288323" stroke-miterlimit="22.9256"/>
<path d="M235.595 35.041H235.065" stroke="#FF0000" stroke-width="0.288323" stroke-miterlimit="22.9256"/>
<path d="M232.418 31.3343C232.418 30.7495 231.94 30.2744 231.358 30.2744C230.773 30.2744 230.298 30.7495 230.298 31.3343C230.298 31.9165 230.773 32.3943 231.358 32.3943C231.94 32.3943 232.418 31.9165 232.418 31.3343Z" fill="#FF0000"/>
<path d="M231.358 31.3343H232.418M232.418 31.3343C232.418 30.7495 231.94 30.2744 231.358 30.2744C230.773 30.2744 230.298 30.7495 230.298 31.3343C230.298 31.9165 230.773 32.3943 231.358 32.3943C231.94 32.3943 232.418 31.9165 232.418 31.3343Z" stroke="black" stroke-width="0.288323" stroke-miterlimit="22.9256"/>
<path d="M227.651 27.1002L208.589 8.03516" stroke="#FF0000" stroke-width="0.288323" stroke-miterlimit="22.9256"/>
<path d="M243.009 11.7422L238.772 8.03516" stroke="#FF0000" stroke-width="0.288323" stroke-miterlimit="22.9256"/>
<path d="M126.508 35.0414V8.03516H245.127V35.0414H126.508Z" stroke="#FF0000" stroke-width="0.288323" stroke-miterlimit="22.9256"/>
<path d="M927.713 511.103L925.593 508.986" stroke="#FF0000" stroke-width="0.288323" stroke-miterlimit="22.9256"/>
<path d="M958.426 511.103L931.419 484.097" stroke="#FF0000" stroke-width="0.288323" stroke-miterlimit="22.9256"/>
<path d="M989.139 511.103L961.603 484.097" stroke="#FF0000" stroke-width="0.288323" stroke-miterlimit="22.9256"/>
<path d="M1019.32 511.103L992.316 484.097" stroke="#FF0000" stroke-width="0.288323" stroke-miterlimit="22.9256"/>
<path d="M1044.74 505.809L1023.03 484.097" stroke="#FF0000" stroke-width="0.288323" stroke-miterlimit="22.9256"/>
<path d="M943.068 511.103L935.126 503.692" stroke="#FF0000" stroke-width="0.288323" stroke-miterlimit="22.9256"/>
<path d="M932.48 499.455C932.48 498.87 932.002 498.395 931.42 498.395C930.835 498.395 930.36 498.87 930.36 499.455C930.36 500.04 930.835 500.515 931.42 500.515C932.002 500.515 932.48 500.04 932.48 499.455Z" fill="#FF0000"/>
<path d="M931.42 499.455H932.48M932.48 499.455C932.48 498.87 932.002 498.395 931.42 498.395C930.835 498.395 930.36 498.87 930.36 499.455C930.36 500.04 930.835 500.515 931.42 500.515C932.002 500.515 932.48 500.04 932.48 499.455Z" stroke="black" stroke-width="0.288323" stroke-miterlimit="22.9256"/>
<path d="M927.713 495.748L925.593 493.631" stroke="#FF0000" stroke-width="0.288323" stroke-miterlimit="22.9256"/>
<path d="M974.844 511.103C974.844 510.518 974.369 510.043 973.784 510.043C973.199 510.043 972.724 510.518 972.724 511.103C972.724 511.688 973.199 512.163 973.784 512.163C974.366 512.163 974.844 511.688 974.844 511.103Z" fill="#FF0000"/>
<path d="M973.784 511.103H974.844M974.844 511.103C974.844 510.518 974.369 510.043 973.784 510.043C973.199 510.043 972.724 510.518 972.724 511.103C972.724 511.688 973.199 512.163 973.784 512.163C974.366 512.163 974.844 511.688 974.844 511.103Z" stroke="black" stroke-width="0.288323" stroke-miterlimit="22.9256"/>
<path d="M969.547 507.399L950.482 488.334" stroke="#FF0000" stroke-width="0.288323" stroke-miterlimit="22.9256"/>
<path d="M947.837 484.627C947.837 484.042 947.36 483.567 946.777 483.567C946.193 483.567 945.718 484.042 945.718 484.627C945.718 485.212 946.193 485.687 946.777 485.687C947.36 485.687 947.837 485.212 947.837 484.627Z" fill="#FF0000"/>
<path d="M946.777 484.627H947.837M947.837 484.627C947.837 484.042 947.36 483.567 946.777 483.567C946.193 483.567 945.718 484.042 945.718 484.627C945.718 485.212 946.193 485.687 946.777 485.687C947.36 485.687 947.837 485.212 947.837 484.627Z" stroke="black" stroke-width="0.288323" stroke-miterlimit="22.9256"/>
<path d="M1003.97 511.103L992.846 499.455" stroke="#FF0000" stroke-width="0.288323" stroke-miterlimit="22.9256"/>
<path d="M989.672 495.748C989.672 495.163 989.194 494.688 988.612 494.688C988.027 494.688 987.552 495.163 987.552 495.748C987.552 496.333 988.027 496.808 988.612 496.808C989.194 496.808 989.672 496.333 989.672 495.748Z" fill="#FF0000"/>
<path d="M988.612 495.748H989.672M989.672 495.748C989.672 495.163 989.194 494.688 988.612 494.688C988.027 494.688 987.552 495.163 987.552 495.748C987.552 496.333 988.027 496.808 988.612 496.808C989.194 496.808 989.672 496.333 989.672 495.748Z" stroke="black" stroke-width="0.288323" stroke-miterlimit="22.9256"/>
<path d="M984.902 492.041L976.958 484.097" stroke="#FF0000" stroke-width="0.288323" stroke-miterlimit="22.9256"/>
<path d="M1035.74 511.103C1035.74 510.518 1035.27 510.043 1034.68 510.043C1034.1 510.043 1033.62 510.518 1033.62 511.103C1033.62 511.688 1034.1 512.163 1034.68 512.163C1035.27 512.163 1035.74 511.688 1035.74 511.103Z" fill="#FF0000"/>
<path d="M1034.68 511.103H1035.74M1035.74 511.103C1035.74 510.518 1035.27 510.043 1034.68 510.043C1034.1 510.043 1033.62 510.518 1033.62 511.103C1033.62 511.688 1034.1 512.163 1034.68 512.163C1035.27 512.163 1035.74 511.688 1035.74 511.103Z" stroke="black" stroke-width="0.288323" stroke-miterlimit="22.9256"/>
<path d="M1032.03 507.396C1032.03 506.811 1031.56 506.336 1030.97 506.336C1030.39 506.336 1029.91 506.811 1029.91 507.396C1029.91 507.981 1030.39 508.456 1030.97 508.456C1031.56 508.456 1032.03 507.981 1032.03 507.396Z" fill="#FF0000"/>
<path d="M1030.97 507.396H1032.03M1032.03 507.396C1032.03 506.811 1031.56 506.336 1030.97 506.336C1030.39 506.336 1029.91 506.811 1029.91 507.396C1029.91 507.981 1030.39 508.456 1030.97 508.456C1031.56 508.456 1032.03 507.981 1032.03 507.396Z" stroke="black" stroke-width="0.288323" stroke-miterlimit="22.9256"/>
<path d="M1027.27 503.692L1007.67 484.627" stroke="#FF0000" stroke-width="0.288323" stroke-miterlimit="22.9256"/>
<path d="M1042.09 488.334L1037.86 484.097" stroke="#FF0000" stroke-width="0.288323" stroke-miterlimit="22.9256"/>
<path d="M925.593 511.103V484.097H1044.74V511.103H925.593Z" stroke="#FF0000" stroke-width="0.288323" stroke-miterlimit="22.9256"/>
<path d="M109.033 252.686V245.802" stroke="black" stroke-width="0.288323" stroke-miterlimit="22.9256"/>
<path d="M95.7944 361.771V252.687" stroke="#00BFFF" stroke-width="0.288323" stroke-miterlimit="22.9256"/>
<path d="M102.678 361.771V252.687" stroke="#00BFFF" stroke-width="0.288323" stroke-miterlimit="22.9256"/>
<path d="M109.033 361.771V252.687" stroke="#00BFFF" stroke-width="0.288323" stroke-miterlimit="22.9256"/>
<path d="M245.126 511.103H568.679" stroke="black" stroke-width="0.288323" stroke-miterlimit="22.9256"/>
<path d="M245.126 497.865H564.972" stroke="black" stroke-width="0.288323" stroke-miterlimit="22.9256"/>
<path d="M925.593 511.103H602.57" stroke="black" stroke-width="0.288323" stroke-miterlimit="22.9256"/>
<path d="M925.593 497.865H734.957" stroke="black" stroke-width="0.288323" stroke-miterlimit="22.9256"/>
<path d="M602.57 497.865H728.602H724.895" stroke="black" stroke-width="0.288323" stroke-miterlimit="22.9256"/>
<path d="M1061.69 252.686V245.802" stroke="black" stroke-width="0.288323" stroke-miterlimit="22.9256"/>
<path d="M1075.45 361.771V252.687" stroke="#00BFFF" stroke-width="0.288323" stroke-miterlimit="22.9256"/>
<path d="M1068.57 361.771V252.687" stroke="#00BFFF" stroke-width="0.288323" stroke-miterlimit="22.9256"/>
<path d="M1061.69 361.771V252.687" stroke="#00BFFF" stroke-width="0.288323" stroke-miterlimit="22.9256"/>
<path d="M245.126 8.03516H456.415" stroke="black" stroke-width="0.288323" stroke-miterlimit="22.9256"/>
<path d="M245.126 21.2759H449.531" stroke="black" stroke-width="0.288323" stroke-miterlimit="22.9256"/>
<path d="M734.957 89.5864V101.765" stroke="#008AB8" stroke-width="0.288323" stroke-miterlimit="22.9256"/>
<path d="M728.602 334.235H680.944" stroke="black" stroke-width="0.288323" stroke-miterlimit="22.9256"/>
<path d="M633.283 334.235H571.856" stroke="black" stroke-width="0.288323" stroke-miterlimit="22.9256"/>
<path d="M728.602 327.351H680.944" stroke="black" stroke-width="0.288323" stroke-miterlimit="22.9256"/>
<path d="M633.283 327.351H571.856V238.918" stroke="black" stroke-width="0.288323" stroke-miterlimit="22.9256"/>
<path d="M571.856 334.235V477.213" stroke="black" stroke-width="0.288323" stroke-miterlimit="22.9256"/>
<path d="M728.602 252.687H734.956" stroke="black" stroke-width="0.288323" stroke-miterlimit="22.9256"/>
<path d="M728.602 320.997H734.956" stroke="black" stroke-width="0.288323" stroke-miterlimit="22.9256"/>
<path d="M544.85 238.918V245.803" stroke="black" stroke-width="0.288323" stroke-miterlimit="22.9256"/>
<path d="M662.939 435.379L661.879 433.262L661.349 432.732L660.819 431.672L659.762 430.612H657.642L656.055 431.672L655.525 432.732L654.995 433.262L654.465 435.379L653.935 438.556V443.323L654.465 445.97L654.995 448.087L656.055 450.207L657.642 450.737H659.762L660.819 450.207L661.879 448.087L662.939 445.97" stroke="black" stroke-width="0.288323" stroke-miterlimit="22.9256"/>
<path d="M674.59 426.907L663.996 457.62" stroke="black" stroke-width="0.288323" stroke-miterlimit="22.9256"/>
<path d="M685.181 430.612L681.471 447.03L680.944 449.147L680.414 450.207L678.824 450.737H678.294" stroke="black" stroke-width="0.288323" stroke-miterlimit="22.9256"/>
<path d="M677.237 430.612L681.471 447.03" stroke="black" stroke-width="0.288323" stroke-miterlimit="22.9256"/>
<path d="M645.994 464.505H640.167L639.64 473.506L640.167 472.449L641.757 471.389H643.877L645.464 472.449L646.521 474.036L647.054 477.213V479.333L646.521 481.98L645.464 484.097L643.877 485.157H641.757L640.167 484.097L639.64 483.037L639.11 480.92" stroke="black" stroke-width="0.288323" stroke-miterlimit="22.9256"/>
<path d="M651.818 484.097L651.288 485.157L650.758 484.097L651.288 483.037L651.818 484.097ZM651.818 484.097V486.214L651.288 487.804L650.758 488.864" stroke="black" stroke-width="0.288323" stroke-miterlimit="22.9256"/>
<path d="M660.292 464.505L658.172 465.562L657.115 468.212L656.585 473.506V476.156L657.115 480.92L658.172 484.097L660.292 485.157H661.349L662.939 484.097L663.996 480.92L664.529 476.156V473.506L663.996 468.212L662.939 465.562L661.349 464.505H660.292Z" stroke="black" stroke-width="0.288323" stroke-miterlimit="22.9256"/>
<path d="M674.06 485.157V464.505L668.233 478.273H677.237" stroke="black" stroke-width="0.288323" stroke-miterlimit="22.9256"/>
<path d="M690.475 485.157V471.389L686.238 481.98L682.001 471.389V485.157" stroke="black" stroke-width="0.288323" stroke-miterlimit="22.9256"/>
<path d="M693.122 469.272V468.212L693.652 466.622L694.712 465.562L695.769 464.505H697.889L698.946 465.562L699.476 466.622L700.536 468.212V470.329L699.476 472.449L698.419 475.096L692.592 485.157H701.066" stroke="black" stroke-width="0.288323" stroke-miterlimit="22.9256"/>
<path d="M564.972 38.2183V164.251" stroke="black" stroke-width="0.288323" stroke-miterlimit="22.9256"/>
<path d="M571.856 38.2183V157.367" stroke="black" stroke-width="0.288323" stroke-miterlimit="22.9256"/>
<path d="M564.972 164.251H728.602H674.06" stroke="black" stroke-width="0.288323" stroke-miterlimit="22.9256"/>
<path d="M571.856 157.367H728.602H674.06" stroke="black" stroke-width="0.288323" stroke-miterlimit="22.9256"/>
<path d="M668.233 95.4104L667.706 93.2933L667.176 92.2333L666.646 91.1734L665.586 90.1162H662.939L661.879 91.1734L661.349 92.2333L660.819 93.2933L660.292 95.4104L659.762 98.0574V102.824L660.292 106.001L660.819 108.119L661.879 109.708L662.939 110.768H665.586L666.646 109.708L667.706 108.119L668.233 106.001" stroke="black" stroke-width="0.288323" stroke-miterlimit="22.9256"/>
<path d="M679.884 86.4092L669.823 117.65" stroke="black" stroke-width="0.288323" stroke-miterlimit="22.9256"/>
<path d="M691.005 90.1162L687.298 107.061L686.768 108.648L685.708 109.708L684.651 110.768H684.121" stroke="black" stroke-width="0.288323" stroke-miterlimit="22.9256"/>
<path d="M683.061 90.1162L687.298 107.061" stroke="black" stroke-width="0.288323" stroke-miterlimit="22.9256"/>
<path d="M651.818 144.659V124.537L645.994 137.775H654.465" stroke="black" stroke-width="0.288323" stroke-miterlimit="22.9256"/>
<path d="M658.702 143.599L658.172 144.659L657.642 143.599L658.172 143.069L658.702 143.599ZM658.702 143.599V145.719L658.172 147.836L657.642 148.896" stroke="black" stroke-width="0.288323" stroke-miterlimit="22.9256"/>
<path d="M663.469 128.244L664.529 127.184L666.646 124.537V144.659" stroke="black" stroke-width="0.288323" stroke-miterlimit="22.9256"/>
<path d="M673.53 129.301V128.244L674.06 126.124L674.59 125.594L675.647 124.537H678.294L679.354 125.594L679.884 126.124L680.414 128.244V130.361L679.884 131.948L678.824 135.125L673 144.659H680.944" stroke="black" stroke-width="0.288323" stroke-miterlimit="22.9256"/>
<path d="M694.712 144.659V131.42L691.005 142.011L686.768 131.42V144.659" stroke="black" stroke-width="0.288323" stroke-miterlimit="22.9256"/>
<path d="M697.889 129.301V128.244L698.419 126.124L698.946 125.594L700.006 124.537H702.656L703.713 125.594L704.243 126.124L704.773 128.244V130.361L704.243 131.948L703.183 135.125L697.359 144.659H705.301" stroke="black" stroke-width="0.288323" stroke-miterlimit="22.9256"/>
<path d="M633.283 327.351V334.235" stroke="black" stroke-width="0.288323" stroke-miterlimit="22.9256"/>
<path d="M680.944 327.351V334.235" stroke="black" stroke-width="0.288323" stroke-miterlimit="22.9256"/>
<path d="M728.602 28.1572H734.956" stroke="black" stroke-width="0.288323" stroke-miterlimit="22.9256"/>
<path d="M728.602 75.8184H734.956" stroke="black" stroke-width="0.288323" stroke-miterlimit="22.9256"/>
<path d="M925.593 8.03516H670.353" stroke="black" stroke-width="0.288323" stroke-miterlimit="22.9256"/>
<path d="M670.353 8.03516H602.57" stroke="black" stroke-width="0.288323" stroke-miterlimit="22.9256"/>
<path d="M925.593 21.2759H734.957" stroke="black" stroke-width="0.288323" stroke-miterlimit="22.9256"/>
<path d="M728.602 21.2759H602.57" stroke="black" stroke-width="0.288323" stroke-miterlimit="22.9256"/>
<path d="M1078.63 4.32812H1170.77" stroke="black" stroke-width="0.288323" stroke-miterlimit="22.9256"/>
<path d="M1078.63 18.0962H1157.01" stroke="black" stroke-width="0.288323" stroke-miterlimit="22.9256"/>
<path d="M947.305 35.0414L925.593 13.332" stroke="#FF0000" stroke-width="0.288323" stroke-miterlimit="22.9256"/>
<path d="M978.018 35.0414L950.482 8.03516" stroke="#FF0000" stroke-width="0.288323" stroke-miterlimit="22.9256"/>
<path d="M1008.2 35.0414L981.195 8.03516" stroke="#FF0000" stroke-width="0.288323" stroke-miterlimit="22.9256"/>
<path d="M1038.92 35.0414L1011.91 8.03516" stroke="#FF0000" stroke-width="0.288323" stroke-miterlimit="22.9256"/>
<path d="M1044.74 10.155L1042.09 8.03516" stroke="#FF0000" stroke-width="0.288323" stroke-miterlimit="22.9256"/>
<path d="M931.949 35.0414L927.712 30.8071" stroke="#FF0000" stroke-width="0.288323" stroke-miterlimit="22.9256"/>
<path d="M962.133 34.5137L943.068 15.4487" stroke="#FF0000" stroke-width="0.288323" stroke-miterlimit="22.9256"/>
<path d="M940.424 11.7421C940.424 11.1572 939.946 10.6821 939.364 10.6821C938.779 10.6821 938.304 11.1572 938.304 11.7421C938.304 12.3242 938.779 12.802 939.364 12.802C939.946 12.802 940.424 12.3242 940.424 11.7421Z" fill="#FF0000"/>
<path d="M939.364 11.7421H940.424M940.424 11.7421C940.424 11.1572 939.946 10.6821 939.364 10.6821C938.779 10.6821 938.304 11.1572 938.304 11.7421C938.304 12.3242 938.779 12.802 939.364 12.802C939.946 12.802 940.424 12.3242 940.424 11.7421Z" stroke="black" stroke-width="0.288323" stroke-miterlimit="22.9256"/>
<path d="M993.376 35.0413L984.902 27.1001" stroke="#FF0000" stroke-width="0.288323" stroke-miterlimit="22.9256"/>
<path d="M982.258 22.8632C982.258 22.2783 981.78 21.8032 981.198 21.8032C980.613 21.8032 980.138 22.2783 980.138 22.8632C980.138 23.4453 980.613 23.9231 981.198 23.9231C981.78 23.9231 982.258 23.4453 982.258 22.8632Z" fill="#FF0000"/>
<path d="M981.198 22.8632H982.258M982.258 22.8632C982.258 22.2783 981.78 21.8032 981.198 21.8032C980.613 21.8032 980.138 22.2783 980.138 22.8632C980.138 23.4453 980.613 23.9231 981.198 23.9231C981.78 23.9231 982.258 23.4453 982.258 22.8632Z" stroke="black" stroke-width="0.288323" stroke-miterlimit="22.9256"/>
<path d="M977.491 19.1562L965.84 8.03516" stroke="#FF0000" stroke-width="0.288323" stroke-miterlimit="22.9256"/>
<path d="M1024.09 34.514C1024.09 33.9291 1023.61 33.4541 1023.03 33.4541C1022.45 33.4541 1021.97 33.9291 1021.97 34.514C1021.97 35.0962 1022.45 35.574 1023.03 35.574C1023.61 35.574 1024.09 35.0962 1024.09 34.514Z" fill="#FF0000"/>
<path d="M1023.03 34.514H1024.09M1024.09 34.514C1024.09 33.9291 1023.61 33.4541 1023.03 33.4541C1022.45 33.4541 1021.97 33.9291 1021.97 34.514C1021.97 35.0962 1022.45 35.574 1023.03 35.574C1023.61 35.574 1024.09 35.0962 1024.09 34.514Z" stroke="black" stroke-width="0.288323" stroke-miterlimit="22.9256"/>
<path d="M1019.32 30.8067L1000.26 11.7417" stroke="#FF0000" stroke-width="0.288323" stroke-miterlimit="22.9256"/>
<path d="M1044.74 25.5099L1042.09 22.8628" stroke="#FF0000" stroke-width="0.288323" stroke-miterlimit="22.9256"/>
<path d="M1039.45 19.1561C1039.45 18.5712 1038.97 18.0962 1038.39 18.0962C1037.8 18.0962 1037.33 18.5712 1037.33 19.1561C1037.33 19.7383 1037.8 20.216 1038.39 20.216C1038.97 20.216 1039.45 19.7383 1039.45 19.1561Z" fill="#FF0000"/>
<path d="M1038.39 19.1561H1039.45M1039.45 19.1561C1039.45 18.5712 1038.97 18.0962 1038.39 18.0962C1037.8 18.0962 1037.33 18.5712 1037.33 19.1561C1037.33 19.7383 1037.8 20.216 1038.39 20.216C1038.97 20.216 1039.45 19.7383 1039.45 19.1561Z" stroke="black" stroke-width="0.288323" stroke-miterlimit="22.9256"/>
<path d="M1034.68 15.4492L1027.27 8.03516" stroke="#FF0000" stroke-width="0.288323" stroke-miterlimit="22.9256"/>
<path d="M925.593 8.03516V35.0414H1044.74V8.03516H925.593Z" stroke="#FF0000" stroke-width="0.288323" stroke-miterlimit="22.9256"/>
<path d="M564.972 517.99H605.747" stroke="black" stroke-width="0.288323" stroke-miterlimit="22.9256"/>
<path d="M605.747 477.213H564.972L605.747 517.987V477.213ZM564.972 477.213L605.747 517.987H564.972V477.213Z" fill="#0000FF"/>
<path d="M564.972 477.213H605.747V517.987M564.972 477.213L605.747 517.987M564.972 477.213V517.987H605.747" stroke="#0000FF" stroke-width="0.288323" stroke-miterlimit="22.9256"/>
<path d="M605.747 477.213H564.972V517.99H605.747V477.213Z" stroke="black" stroke-width="0.288323" stroke-miterlimit="22.9256"/>
<path d="M564.972 517.99L605.747 477.213" stroke="black" stroke-width="0.288323" stroke-miterlimit="22.9256"/>
<path d="M605.747 517.99L564.972 477.213" stroke="black" stroke-width="0.288323" stroke-miterlimit="22.9256"/>
<path d="M1041.56 517.99H1082.34" stroke="black" stroke-width="0.288323" stroke-miterlimit="22.9256"/>
<path d="M1082.34 477.213H1041.56L1082.34 517.987V477.213ZM1041.56 477.213L1082.34 517.987H1041.56V477.213Z" fill="#0000FF"/>
<path d="M1041.56 477.213H1082.34V517.987M1041.56 477.213L1082.34 517.987M1041.56 477.213V517.987H1082.34" stroke="#0000FF" stroke-width="0.288323" stroke-miterlimit="22.9256"/>
<path d="M1082.34 477.213H1041.56V517.99H1082.34V477.213Z" stroke="black" stroke-width="0.288323" stroke-miterlimit="22.9256"/>
<path d="M1041.56 517.99L1082.34 477.213" stroke="black" stroke-width="0.288323" stroke-miterlimit="22.9256"/>
<path d="M1082.34 517.99L1041.56 477.213" stroke="black" stroke-width="0.288323" stroke-miterlimit="22.9256"/>
<path d="M88.9104 41.9277H129.685" stroke="black" stroke-width="0.288323" stroke-miterlimit="22.9256"/>
<path d="M129.685 1.15088H88.9104L129.685 41.9252V1.15088ZM88.9104 1.15088L129.685 41.9252H88.9104V1.15088Z" fill="#0000FF"/>
<path d="M88.9104 1.15088H129.685V41.9252M88.9104 1.15088L129.685 41.9252M88.9104 1.15088V41.9252H129.685" stroke="#0000FF" stroke-width="0.288323" stroke-miterlimit="22.9256"/>
<path d="M129.685 1.15088H88.9104V41.9279H129.685V1.15088Z" stroke="black" stroke-width="0.288323" stroke-miterlimit="22.9256"/>
<path d="M88.9104 41.9279L129.685 1.15088" stroke="black" stroke-width="0.288323" stroke-miterlimit="22.9256"/>
<path d="M129.685 41.9279L88.9104 1.15088" stroke="black" stroke-width="0.288323" stroke-miterlimit="22.9256"/>
<path d="M564.972 41.9277H605.747" stroke="black" stroke-width="0.288323" stroke-miterlimit="22.9256"/>
<path d="M605.747 1.15088H564.972L605.747 41.9252V1.15088ZM564.972 1.15088L605.747 41.9252H564.972V1.15088Z" fill="#0000FF"/>
<path d="M564.972 1.15088H605.747V41.9252M564.972 1.15088L605.747 41.9252M564.972 1.15088V41.9252H605.747" stroke="#0000FF" stroke-width="0.288323" stroke-miterlimit="22.9256"/>
<path d="M605.747 1.15088H564.972V41.9279H605.747V1.15088Z" stroke="black" stroke-width="0.288323" stroke-miterlimit="22.9256"/>
<path d="M564.972 41.9279L605.747 1.15088" stroke="black" stroke-width="0.288323" stroke-miterlimit="22.9256"/>
<path d="M605.747 41.9279L564.972 1.15088" stroke="black" stroke-width="0.288323" stroke-miterlimit="22.9256"/>
<path d="M1041.56 41.9277H1082.34" stroke="black" stroke-width="0.288323" stroke-miterlimit="22.9256"/>
<path d="M1082.34 1.15088H1041.56L1082.34 41.9252V1.15088ZM1041.56 1.15088L1082.34 41.9252H1041.56V1.15088Z" fill="#0000FF"/>
<path d="M1041.56 1.15088H1082.34V41.9252M1041.56 1.15088L1082.34 41.9252M1041.56 1.15088V41.9252H1082.34" stroke="#0000FF" stroke-width="0.288323" stroke-miterlimit="22.9256"/>
<path d="M1082.34 1.15088H1041.56V41.9279H1082.34V1.15088Z" stroke="black" stroke-width="0.288323" stroke-miterlimit="22.9256"/>
<path d="M1041.56 41.9279L1082.34 1.15088" stroke="black" stroke-width="0.288323" stroke-miterlimit="22.9256"/>
<path d="M1082.34 41.9279L1041.56 1.15088" stroke="black" stroke-width="0.288323" stroke-miterlimit="22.9256"/>
<path d="M88.9104 517.99H129.685" stroke="black" stroke-width="0.288323" stroke-miterlimit="22.9256"/>
<path d="M129.685 477.213H88.9104L129.685 517.987V477.213ZM88.9104 477.213L129.685 517.987H88.9104V477.213Z" fill="#0000FF"/>
<path d="M88.9104 477.213H129.685V517.987M88.9104 477.213L129.685 517.987M88.9104 477.213V517.987H129.685" stroke="#0000FF" stroke-width="0.288323" stroke-miterlimit="22.9256"/>
<path d="M129.685 477.213H88.9104V517.99H129.685V477.213Z" stroke="black" stroke-width="0.288323" stroke-miterlimit="22.9256"/>
<path d="M88.9104 517.99L129.685 477.213" stroke="black" stroke-width="0.288323" stroke-miterlimit="22.9256"/>
<path d="M129.685 517.99L88.9104 477.213" stroke="black" stroke-width="0.288323" stroke-miterlimit="22.9256"/>
<path d="M755.609 409.432V327.351H728.602V409.432H755.609Z" stroke="#5CB800" stroke-width="0.288323" stroke-miterlimit="22.9256"/>
<path d="M734.957 335.825V346.416" stroke="#5CB800" stroke-width="0.288323" stroke-miterlimit="22.9256"/>
<path d="M736.546 348.003H747.667" stroke="#5CB800" stroke-width="0.288323" stroke-miterlimit="22.9256"/>
<path d="M748.725 346.416V335.825" stroke="#5CB800" stroke-width="0.288323" stroke-miterlimit="22.9256"/>
<path d="M747.667 334.235H736.546" stroke="#5CB800" stroke-width="0.288323" stroke-miterlimit="22.9256"/>
<path d="M736.81 334.235C736.079 334.235 735.486 334.828 735.486 335.558" stroke="#5CB800" stroke-width="0.288323" stroke-miterlimit="22.9256"/>
<path d="M735.486 346.152C735.486 346.883 736.079 347.476 736.81 347.476" stroke="#5CB800" stroke-width="0.288323" stroke-miterlimit="22.9256"/>
<path d="M749.254 335.558C749.254 334.828 748.661 334.235 747.931 334.235" stroke="#5CB800" stroke-width="0.288323" stroke-miterlimit="22.9256"/>
<path d="M747.931 347.473C748.661 347.473 749.254 346.88 749.254 346.149" stroke="#5CB800" stroke-width="0.288323" stroke-miterlimit="22.9256"/>
<path d="M747.667 388.78H736.546" stroke="#5CB800" stroke-width="0.288323" stroke-miterlimit="22.9256"/>
<path d="M734.957 390.367V400.958" stroke="#5CB800" stroke-width="0.288323" stroke-miterlimit="22.9256"/>
<path d="M736.546 402.548H747.667" stroke="#5CB800" stroke-width="0.288323" stroke-miterlimit="22.9256"/>
<path d="M748.725 400.958V390.367" stroke="#5CB800" stroke-width="0.288323" stroke-miterlimit="22.9256"/>
<path d="M736.81 388.78C736.079 388.78 735.486 389.373 735.486 390.104" stroke="#5CB800" stroke-width="0.288323" stroke-miterlimit="22.9256"/>
<path d="M735.486 400.695C735.486 401.425 736.079 402.018 736.81 402.018" stroke="#5CB800" stroke-width="0.288323" stroke-miterlimit="22.9256"/>
<path d="M749.254 390.104C749.254 389.373 748.661 388.78 747.931 388.78" stroke="#5CB800" stroke-width="0.288323" stroke-miterlimit="22.9256"/>
<path d="M747.931 402.018C748.661 402.018 749.254 401.425 749.254 400.695" stroke="#5CB800" stroke-width="0.288323" stroke-miterlimit="22.9256"/>
<path d="M736.81 354.357C736.079 354.357 735.486 354.95 735.486 355.68" stroke="#5CB800" stroke-width="0.288323" stroke-miterlimit="22.9256"/>
<path d="M749.254 355.683C749.254 354.953 748.661 354.36 747.931 354.36" stroke="#5CB800" stroke-width="0.288323" stroke-miterlimit="22.9256"/>
<path d="M735.486 380.57C735.486 381.3 736.079 381.893 736.81 381.893" stroke="#5CB800" stroke-width="0.288323" stroke-miterlimit="22.9256"/>
<path d="M747.931 381.896C748.661 381.896 749.254 381.303 749.254 380.573" stroke="#5CB800" stroke-width="0.288323" stroke-miterlimit="22.9256"/>
<path d="M747.667 354.89H736.546" stroke="#5CB800" stroke-width="0.288323" stroke-miterlimit="22.9256"/>
<path d="M734.957 355.947V380.836" stroke="#5CB800" stroke-width="0.288323" stroke-miterlimit="22.9256"/>
<path d="M736.546 381.896H747.667" stroke="#5CB800" stroke-width="0.288323" stroke-miterlimit="22.9256"/>
<path d="M748.725 380.836V355.947" stroke="#5CB800" stroke-width="0.288323" stroke-miterlimit="22.9256"/>
<path d="M755.609 409.432V327.351H728.602V409.432H755.609Z" stroke="#5CB800" stroke-width="0.288323" stroke-miterlimit="22.9256"/>
<path d="M734.957 335.825V346.416" stroke="#5CB800" stroke-width="0.288323" stroke-miterlimit="22.9256"/>
<path d="M736.546 348.003H747.667" stroke="#5CB800" stroke-width="0.288323" stroke-miterlimit="22.9256"/>
<path d="M748.725 346.416V335.825" stroke="#5CB800" stroke-width="0.288323" stroke-miterlimit="22.9256"/>
<path d="M747.667 334.235H736.546" stroke="#5CB800" stroke-width="0.288323" stroke-miterlimit="22.9256"/>
<path d="M736.81 334.235C736.079 334.235 735.486 334.828 735.486 335.558" stroke="#5CB800" stroke-width="0.288323" stroke-miterlimit="22.9256"/>
<path d="M735.486 346.152C735.486 346.883 736.079 347.476 736.81 347.476" stroke="#5CB800" stroke-width="0.288323" stroke-miterlimit="22.9256"/>
<path d="M749.254 335.558C749.254 334.828 748.661 334.235 747.931 334.235" stroke="#5CB800" stroke-width="0.288323" stroke-miterlimit="22.9256"/>
<path d="M747.931 347.473C748.661 347.473 749.254 346.88 749.254 346.149" stroke="#5CB800" stroke-width="0.288323" stroke-miterlimit="22.9256"/>
<path d="M747.667 388.78H736.546" stroke="#5CB800" stroke-width="0.288323" stroke-miterlimit="22.9256"/>
<path d="M734.957 390.367V400.958" stroke="#5CB800" stroke-width="0.288323" stroke-miterlimit="22.9256"/>
<path d="M736.546 402.548H747.667" stroke="#5CB800" stroke-width="0.288323" stroke-miterlimit="22.9256"/>
<path d="M748.725 400.958V390.367" stroke="#5CB800" stroke-width="0.288323" stroke-miterlimit="22.9256"/>
<path d="M736.81 388.78C736.079 388.78 735.486 389.373 735.486 390.104" stroke="#5CB800" stroke-width="0.288323" stroke-miterlimit="22.9256"/>
<path d="M735.486 400.695C735.486 401.425 736.079 402.018 736.81 402.018" stroke="#5CB800" stroke-width="0.288323" stroke-miterlimit="22.9256"/>
<path d="M749.254 390.104C749.254 389.373 748.661 388.78 747.931 388.78" stroke="#5CB800" stroke-width="0.288323" stroke-miterlimit="22.9256"/>
<path d="M747.931 402.018C748.661 402.018 749.254 401.425 749.254 400.695" stroke="#5CB800" stroke-width="0.288323" stroke-miterlimit="22.9256"/>
<path d="M736.81 354.357C736.079 354.357 735.486 354.95 735.486 355.68" stroke="#5CB800" stroke-width="0.288323" stroke-miterlimit="22.9256"/>
<path d="M749.254 355.683C749.254 354.953 748.661 354.36 747.931 354.36" stroke="#5CB800" stroke-width="0.288323" stroke-miterlimit="22.9256"/>
<path d="M735.486 380.57C735.486 381.3 736.079 381.893 736.81 381.893" stroke="#5CB800" stroke-width="0.288323" stroke-miterlimit="22.9256"/>
<path d="M747.931 381.896C748.661 381.896 749.254 381.303 749.254 380.573" stroke="#5CB800" stroke-width="0.288323" stroke-miterlimit="22.9256"/>
<path d="M747.667 354.89H736.546" stroke="#5CB800" stroke-width="0.288323" stroke-miterlimit="22.9256"/>
<path d="M734.957 355.947V380.836" stroke="#5CB800" stroke-width="0.288323" stroke-miterlimit="22.9256"/>
<path d="M736.546 381.896H747.667" stroke="#5CB800" stroke-width="0.288323" stroke-miterlimit="22.9256"/>
<path d="M748.725 380.836V355.947" stroke="#5CB800" stroke-width="0.288323" stroke-miterlimit="22.9256"/>
<path d="M747.667 402.548L737.606 398.311L734.957 390.367" stroke="#5CB800" stroke-width="0.288323" stroke-miterlimit="22.9256"/>
<path d="M747.667 381.896L738.134 377.659L734.957 355.947" stroke="#5CB800" stroke-width="0.288323" stroke-miterlimit="22.9256"/>
<path d="M747.667 348.003L737.606 343.769L734.957 335.825" stroke="#5CB800" stroke-width="0.288323" stroke-miterlimit="22.9256"/>
<path d="M707.95 409.432V327.351H734.956V409.432H707.95Z" stroke="#5CB800" stroke-width="0.288323" stroke-miterlimit="22.9256"/>
<path d="M728.602 335.825V346.416" stroke="#5CB800" stroke-width="0.288323" stroke-miterlimit="22.9256"/>
<path d="M727.013 348.003H715.894" stroke="#5CB800" stroke-width="0.288323" stroke-miterlimit="22.9256"/>
<path d="M714.834 346.416V335.825" stroke="#5CB800" stroke-width="0.288323" stroke-miterlimit="22.9256"/>
<path d="M715.894 334.235H727.013" stroke="#5CB800" stroke-width="0.288323" stroke-miterlimit="22.9256"/>
<path d="M728.602 335.558C728.602 334.828 728.009 334.235 727.279 334.235" stroke="#5CB800" stroke-width="0.288323" stroke-miterlimit="22.9256"/>
<path d="M727.279 347.473C728.009 347.473 728.602 346.88 728.602 346.149" stroke="#5CB800" stroke-width="0.288323" stroke-miterlimit="22.9256"/>
<path d="M716.158 334.235C715.427 334.235 714.834 334.828 714.834 335.558" stroke="#5CB800" stroke-width="0.288323" stroke-miterlimit="22.9256"/>
<path d="M714.834 346.152C714.834 346.883 715.427 347.476 716.158 347.476" stroke="#5CB800" stroke-width="0.288323" stroke-miterlimit="22.9256"/>
<path d="M715.894 388.78H727.013" stroke="#5CB800" stroke-width="0.288323" stroke-miterlimit="22.9256"/>
<path d="M728.602 390.367V400.958" stroke="#5CB800" stroke-width="0.288323" stroke-miterlimit="22.9256"/>
<path d="M727.013 402.548H715.894" stroke="#5CB800" stroke-width="0.288323" stroke-miterlimit="22.9256"/>
<path d="M714.834 400.958V390.367" stroke="#5CB800" stroke-width="0.288323" stroke-miterlimit="22.9256"/>
<path d="M728.602 390.104C728.602 389.373 728.009 388.78 727.279 388.78" stroke="#5CB800" stroke-width="0.288323" stroke-miterlimit="22.9256"/>
<path d="M727.279 402.018C728.009 402.018 728.602 401.425 728.602 400.695" stroke="#5CB800" stroke-width="0.288323" stroke-miterlimit="22.9256"/>
<path d="M716.158 388.78C715.427 388.78 714.834 389.373 714.834 390.104" stroke="#5CB800" stroke-width="0.288323" stroke-miterlimit="22.9256"/>
<path d="M714.834 400.695C714.834 401.425 715.427 402.018 716.158 402.018" stroke="#5CB800" stroke-width="0.288323" stroke-miterlimit="22.9256"/>
<path d="M728.602 355.683C728.602 354.953 728.009 354.36 727.279 354.36" stroke="#5CB800" stroke-width="0.288323" stroke-miterlimit="22.9256"/>
<path d="M716.158 354.357C715.427 354.357 714.834 354.95 714.834 355.68" stroke="#5CB800" stroke-width="0.288323" stroke-miterlimit="22.9256"/>
<path d="M727.279 381.896C728.009 381.896 728.602 381.303 728.602 380.573" stroke="#5CB800" stroke-width="0.288323" stroke-miterlimit="22.9256"/>
<path d="M714.834 380.57C714.834 381.3 715.427 381.893 716.158 381.893" stroke="#5CB800" stroke-width="0.288323" stroke-miterlimit="22.9256"/>
<path d="M715.894 354.89H727.013" stroke="#5CB800" stroke-width="0.288323" stroke-miterlimit="22.9256"/>
<path d="M728.602 355.947V380.836" stroke="#5CB800" stroke-width="0.288323" stroke-miterlimit="22.9256"/>
<path d="M727.013 381.896H715.894" stroke="#5CB800" stroke-width="0.288323" stroke-miterlimit="22.9256"/>
<path d="M714.834 380.836V355.947" stroke="#5CB800" stroke-width="0.288323" stroke-miterlimit="22.9256"/>
<path d="M707.95 409.432V327.351H734.956V409.432H707.95Z" stroke="#5CB800" stroke-width="0.288323" stroke-miterlimit="22.9256"/>
<path d="M728.602 335.825V346.416" stroke="#5CB800" stroke-width="0.288323" stroke-miterlimit="22.9256"/>
<path d="M727.013 348.003H715.894" stroke="#5CB800" stroke-width="0.288323" stroke-miterlimit="22.9256"/>
<path d="M714.834 346.416V335.825" stroke="#5CB800" stroke-width="0.288323" stroke-miterlimit="22.9256"/>
<path d="M715.894 334.235H727.013" stroke="#5CB800" stroke-width="0.288323" stroke-miterlimit="22.9256"/>
<path d="M728.602 335.558C728.602 334.828 728.009 334.235 727.279 334.235" stroke="#5CB800" stroke-width="0.288323" stroke-miterlimit="22.9256"/>
<path d="M727.279 347.473C728.009 347.473 728.602 346.88 728.602 346.149" stroke="#5CB800" stroke-width="0.288323" stroke-miterlimit="22.9256"/>
<path d="M716.158 334.235C715.427 334.235 714.834 334.828 714.834 335.558" stroke="#5CB800" stroke-width="0.288323" stroke-miterlimit="22.9256"/>
<path d="M714.834 346.152C714.834 346.883 715.427 347.476 716.158 347.476" stroke="#5CB800" stroke-width="0.288323" stroke-miterlimit="22.9256"/>
<path d="M715.894 388.78H727.013" stroke="#5CB800" stroke-width="0.288323" stroke-miterlimit="22.9256"/>
<path d="M728.602 390.367V400.958" stroke="#5CB800" stroke-width="0.288323" stroke-miterlimit="22.9256"/>
<path d="M727.013 402.548H715.894" stroke="#5CB800" stroke-width="0.288323" stroke-miterlimit="22.9256"/>
<path d="M714.834 400.958V390.367" stroke="#5CB800" stroke-width="0.288323" stroke-miterlimit="22.9256"/>
<path d="M728.602 390.104C728.602 389.373 728.009 388.78 727.279 388.78" stroke="#5CB800" stroke-width="0.288323" stroke-miterlimit="22.9256"/>
<path d="M727.279 402.018C728.009 402.018 728.602 401.425 728.602 400.695" stroke="#5CB800" stroke-width="0.288323" stroke-miterlimit="22.9256"/>
<path d="M716.158 388.78C715.427 388.78 714.834 389.373 714.834 390.104" stroke="#5CB800" stroke-width="0.288323" stroke-miterlimit="22.9256"/>
<path d="M714.834 400.695C714.834 401.425 715.427 402.018 716.158 402.018" stroke="#5CB800" stroke-width="0.288323" stroke-miterlimit="22.9256"/>
<path d="M728.602 355.683C728.602 354.953 728.009 354.36 727.279 354.36" stroke="#5CB800" stroke-width="0.288323" stroke-miterlimit="22.9256"/>
<path d="M716.158 354.357C715.427 354.357 714.834 354.95 714.834 355.68" stroke="#5CB800" stroke-width="0.288323" stroke-miterlimit="22.9256"/>
<path d="M727.279 381.896C728.009 381.896 728.602 381.303 728.602 380.573" stroke="#5CB800" stroke-width="0.288323" stroke-miterlimit="22.9256"/>
<path d="M714.834 380.57C714.834 381.3 715.427 381.893 716.158 381.893" stroke="#5CB800" stroke-width="0.288323" stroke-miterlimit="22.9256"/>
<path d="M715.894 354.89H727.013" stroke="#5CB800" stroke-width="0.288323" stroke-miterlimit="22.9256"/>
<path d="M728.602 355.947V380.836" stroke="#5CB800" stroke-width="0.288323" stroke-miterlimit="22.9256"/>
<path d="M727.013 381.896H715.894" stroke="#5CB800" stroke-width="0.288323" stroke-miterlimit="22.9256"/>
<path d="M714.834 380.836V355.947" stroke="#5CB800" stroke-width="0.288323" stroke-miterlimit="22.9256"/>
<path d="M715.894 402.548L725.955 398.311L728.602 390.367" stroke="#5CB800" stroke-width="0.288323" stroke-miterlimit="22.9256"/>
<path d="M715.894 381.896L725.425 377.659L728.602 355.947" stroke="#5CB800" stroke-width="0.288323" stroke-miterlimit="22.9256"/>
<path d="M715.894 348.003L725.955 343.769L728.602 335.825" stroke="#5CB800" stroke-width="0.288323" stroke-miterlimit="22.9256"/>
<path d="M734.956 82.6997V164.251H707.95V82.6997H734.956Z" stroke="#5CB800" stroke-width="0.288323" stroke-miterlimit="22.9256"/>
<path d="M714.834 156.309V145.188" stroke="#5CB800" stroke-width="0.288323" stroke-miterlimit="22.9256"/>
<path d="M728.602 145.188V156.309" stroke="#5CB800" stroke-width="0.288323" stroke-miterlimit="22.9256"/>
<path d="M727.013 157.367H715.894" stroke="#5CB800" stroke-width="0.288323" stroke-miterlimit="22.9256"/>
<path d="M714.834 156.043C714.834 156.774 715.427 157.367 716.158 157.367" stroke="#5CB800" stroke-width="0.288323" stroke-miterlimit="22.9256"/>
<path d="M716.158 143.599C715.427 143.599 714.834 144.192 714.834 144.922" stroke="#5CB800" stroke-width="0.288323" stroke-miterlimit="22.9256"/>
<path d="M727.279 157.369C728.009 157.369 728.602 156.776 728.602 156.046" stroke="#5CB800" stroke-width="0.288323" stroke-miterlimit="22.9256"/>
<path d="M728.602 144.922C728.602 144.192 728.009 143.599 727.279 143.599" stroke="#5CB800" stroke-width="0.288323" stroke-miterlimit="22.9256"/>
<path d="M727.013 102.824H715.894" stroke="#5CB800" stroke-width="0.288323" stroke-miterlimit="22.9256"/>
<path d="M714.834 101.765V90.6436" stroke="#5CB800" stroke-width="0.288323" stroke-miterlimit="22.9256"/>
<path d="M728.602 90.6436V101.765" stroke="#5CB800" stroke-width="0.288323" stroke-miterlimit="22.9256"/>
<path d="M714.834 101.501C714.834 102.231 715.427 102.825 716.158 102.825" stroke="#5CB800" stroke-width="0.288323" stroke-miterlimit="22.9256"/>
<path d="M716.158 89.0562C715.427 89.0562 714.834 89.6465 714.834 90.3797" stroke="#5CB800" stroke-width="0.288323" stroke-miterlimit="22.9256"/>
<path d="M727.279 102.825C728.009 102.825 728.602 102.231 728.602 101.501" stroke="#5CB800" stroke-width="0.288323" stroke-miterlimit="22.9256"/>
<path d="M728.602 90.3797C728.602 89.6493 728.009 89.0562 727.279 89.0562" stroke="#5CB800" stroke-width="0.288323" stroke-miterlimit="22.9256"/>
<path d="M714.834 135.391C714.834 136.122 715.427 136.715 716.158 136.715" stroke="#5CB800" stroke-width="0.288323" stroke-miterlimit="22.9256"/>
<path d="M727.279 136.715C728.009 136.715 728.602 136.122 728.602 135.391" stroke="#5CB800" stroke-width="0.288323" stroke-miterlimit="22.9256"/>
<path d="M716.158 109.708C715.427 109.708 714.834 110.302 714.834 111.032" stroke="#5CB800" stroke-width="0.288323" stroke-miterlimit="22.9256"/>
<path d="M728.602 111.032C728.602 110.302 728.009 109.708 727.279 109.708" stroke="#5CB800" stroke-width="0.288323" stroke-miterlimit="22.9256"/>
<path d="M714.834 135.657V111.295" stroke="#5CB800" stroke-width="0.288323" stroke-miterlimit="22.9256"/>
<path d="M715.894 109.708H727.013" stroke="#5CB800" stroke-width="0.288323" stroke-miterlimit="22.9256"/>
<path d="M728.602 111.295V135.657" stroke="#5CB800" stroke-width="0.288323" stroke-miterlimit="22.9256"/>
<path d="M734.956 82.6997V164.251H707.95V82.6997H734.956Z" stroke="#5CB800" stroke-width="0.288323" stroke-miterlimit="22.9256"/>
<path d="M714.834 156.309V145.188" stroke="#5CB800" stroke-width="0.288323" stroke-miterlimit="22.9256"/>
<path d="M715.894 143.602H727.013" stroke="#5CB800" stroke-width="0.288323" stroke-miterlimit="22.9256"/>
<path d="M728.602 145.188V156.309" stroke="#5CB800" stroke-width="0.288323" stroke-miterlimit="22.9256"/>
<path d="M727.013 157.367H715.894" stroke="#5CB800" stroke-width="0.288323" stroke-miterlimit="22.9256"/>
<path d="M714.834 156.043C714.834 156.774 715.427 157.367 716.158 157.367" stroke="#5CB800" stroke-width="0.288323" stroke-miterlimit="22.9256"/>
<path d="M716.158 143.599C715.427 143.599 714.834 144.192 714.834 144.922" stroke="#5CB800" stroke-width="0.288323" stroke-miterlimit="22.9256"/>
<path d="M727.279 157.369C728.009 157.369 728.602 156.776 728.602 156.046" stroke="#5CB800" stroke-width="0.288323" stroke-miterlimit="22.9256"/>
<path d="M728.602 144.922C728.602 144.192 728.009 143.599 727.279 143.599" stroke="#5CB800" stroke-width="0.288323" stroke-miterlimit="22.9256"/>
<path d="M727.013 102.824H715.894" stroke="#5CB800" stroke-width="0.288323" stroke-miterlimit="22.9256"/>
<path d="M714.834 101.765V90.6436" stroke="#5CB800" stroke-width="0.288323" stroke-miterlimit="22.9256"/>
<path d="M715.894 89.0562H727.013" stroke="#5CB800" stroke-width="0.288323" stroke-miterlimit="22.9256"/>
<path d="M728.602 90.6436V101.765" stroke="#5CB800" stroke-width="0.288323" stroke-miterlimit="22.9256"/>
<path d="M714.834 101.501C714.834 102.231 715.427 102.825 716.158 102.825" stroke="#5CB800" stroke-width="0.288323" stroke-miterlimit="22.9256"/>
<path d="M716.158 89.0562C715.427 89.0562 714.834 89.6465 714.834 90.3797" stroke="#5CB800" stroke-width="0.288323" stroke-miterlimit="22.9256"/>
<path d="M727.279 102.825C728.009 102.825 728.602 102.231 728.602 101.501" stroke="#5CB800" stroke-width="0.288323" stroke-miterlimit="22.9256"/>
<path d="M728.602 90.3797C728.602 89.6493 728.009 89.0562 727.279 89.0562" stroke="#5CB800" stroke-width="0.288323" stroke-miterlimit="22.9256"/>
<path d="M714.834 135.391C714.834 136.122 715.427 136.715 716.158 136.715" stroke="#5CB800" stroke-width="0.288323" stroke-miterlimit="22.9256"/>
<path d="M727.279 136.715C728.009 136.715 728.602 136.122 728.602 135.391" stroke="#5CB800" stroke-width="0.288323" stroke-miterlimit="22.9256"/>
<path d="M716.158 109.708C715.427 109.708 714.834 110.302 714.834 111.032" stroke="#5CB800" stroke-width="0.288323" stroke-miterlimit="22.9256"/>
<path d="M728.602 111.032C728.602 110.302 728.009 109.708 727.279 109.708" stroke="#5CB800" stroke-width="0.288323" stroke-miterlimit="22.9256"/>
<path d="M727.013 136.715H715.894" stroke="#5CB800" stroke-width="0.288323" stroke-miterlimit="22.9256"/>
<path d="M714.834 135.657V111.295" stroke="#5CB800" stroke-width="0.288323" stroke-miterlimit="22.9256"/>
<path d="M715.894 109.708H727.013" stroke="#5CB800" stroke-width="0.288323" stroke-miterlimit="22.9256"/>
<path d="M728.602 111.295V135.657" stroke="#5CB800" stroke-width="0.288323" stroke-miterlimit="22.9256"/>
<path d="M727.012 89.5864L717.481 93.2934L714.834 101.765" stroke="#5CB800" stroke-width="0.288323" stroke-miterlimit="22.9256"/>
<path d="M727.012 109.708L717.481 114.473L714.834 135.658" stroke="#5CB800" stroke-width="0.288323" stroke-miterlimit="22.9256"/>
<path d="M727.012 144.129L717.481 147.836L714.834 156.31" stroke="#5CB800" stroke-width="0.288323" stroke-miterlimit="22.9256"/>
<path d="M564.972 8.03516H531.082" stroke="black" stroke-width="0.288323" stroke-miterlimit="22.9256"/>
<path d="M41.2522 18.0962V24.9802H48.1362L41.2522 18.0962ZM41.2522 24.9802H48.1362L41.2522 65.7546V24.9802Z" fill="black"/>
<path d="M41.2522 24.9802V18.0962L48.1362 24.9802M41.2522 24.9802H48.1362M41.2522 24.9802V65.7546L48.1362 24.9802" stroke="black" stroke-width="0.288323" stroke-miterlimit="22.9256"/>
<path d="M41.2522 18.0962H88.9106L48.1362 24.9802L41.2522 18.0962Z" fill="black"/>
<path d="M41.2522 18.0962H88.9106L48.1362 24.9802L41.2522 18.0962Z" stroke="black" stroke-width="0.288323" stroke-miterlimit="22.9256"/>
<path d="M41.2522 18.0962H88.9106L48.1362 24.9802L41.2522 65.7573V18.0962ZM41.2522 18.0962H88.9106V65.7573H41.2522V18.0962Z" stroke="black" stroke-width="0.288323" stroke-miterlimit="22.9256"/>
<path d="M41.2522 18.0962H88.9106V65.7573H41.2522V18.0962Z" stroke="black" stroke-width="0.288323" stroke-miterlimit="22.9256"/>
<path d="M1082.34 18.0962V24.9802H1088.69L1082.34 18.0962ZM1082.34 24.9802H1088.69L1082.34 65.7546V24.9802Z" fill="black"/>
<path d="M1082.34 24.9802V18.0962L1088.69 24.9802M1082.34 24.9802H1088.69M1082.34 24.9802V65.7546L1088.69 24.9802" stroke="black" stroke-width="0.288323" stroke-miterlimit="22.9256"/>
<path d="M1082.34 18.0962H1130L1088.7 24.9802L1082.34 18.0962Z" fill="black"/>
<path d="M1082.34 18.0962H1130L1088.7 24.9802L1082.34 18.0962Z" stroke="black" stroke-width="0.288323" stroke-miterlimit="22.9256"/>
<path d="M1082.34 18.0962H1130L1088.7 24.9802L1082.34 65.7573V18.0962ZM1082.34 18.0962H1130V65.7573H1082.34V18.0962Z" stroke="black" stroke-width="0.288323" stroke-miterlimit="22.9256"/>
<path d="M1082.34 18.0962H1130V65.7573H1082.34V18.0962Z" stroke="black" stroke-width="0.288323" stroke-miterlimit="22.9256"/>
</svg>
