<svg width="485" height="520" viewBox="0 0 485 520" fill="none" xmlns="http://www.w3.org/2000/svg">
<g clip-path="url(#clip0_9_4896)">
<path d="M307.081 69.46H327.207H307.081Z" stroke="#FEEAB9" stroke-width="0.287328" stroke-miterlimit="22.9256"/>
<path d="M334.09 69.46H354.744H334.09Z" stroke="#FEEAB9" stroke-width="0.287328" stroke-miterlimit="22.9256"/>
<path d="M14.2466 246.334H340.979V239.445H334.09V232.562H327.207V239.445H14.2466V38.7494H116.449V41.9234H123.331V89.5865H150.34V41.9234H157.222V35.5687H272.662V21.8037H327.207V164.78H334.09V151.015H361.099V144.125H334.09V21.8037H470.183V144.125H408.755V151.015H470.183V157.897H483.955V225.68H470.183V239.445H422.527V246.334H470.183V484.629H157.222V477.74H150.34V430.084H123.331V477.847L116.449 477.74V480.921H14.2466V246.334Z" fill="#FEEAB9"/>
<path d="M14.2466 246.334H340.979V239.445H334.09V232.562H327.207V239.445H14.2466V38.7494H116.449V41.9234H123.331V89.5865H150.34V41.9234H157.222V35.5687H272.662V21.8037H327.207V164.78H334.09V151.015H361.099V144.125H334.09V21.8037H470.183V144.125H408.755V151.015H470.183V157.897H483.955V225.68H470.183V239.445H422.527V246.334H470.183V484.629H157.222V477.74H150.34V430.084H123.331V477.847L116.449 477.74V480.921H14.2466V246.334Z" stroke="#2B2A29" stroke-width="0.287328" stroke-miterlimit="22.9256"/>
<path d="M0.474854 24.9775V89.5863" stroke="black" stroke-width="0.287328" stroke-miterlimit="22.9256"/>
<path d="M0.474854 191.788V307.755" stroke="black" stroke-width="0.287328" stroke-miterlimit="22.9256"/>
<path d="M0.474854 430.083V494.686" stroke="black" stroke-width="0.287328" stroke-miterlimit="22.9256"/>
<path d="M14.2466 38.749V89.5861" stroke="black" stroke-width="0.287328" stroke-miterlimit="22.9256"/>
<path d="M14.2466 191.788V239.444" stroke="black" stroke-width="0.287328" stroke-miterlimit="22.9256"/>
<path d="M14.2466 246.334V307.755" stroke="black" stroke-width="0.287328" stroke-miterlimit="22.9256"/>
<path d="M0.474854 430.083H14.2466V480.921" stroke="black" stroke-width="0.287328" stroke-miterlimit="22.9256"/>
<path d="M14.2466 307.755H0.474854" stroke="black" stroke-width="0.287328" stroke-miterlimit="22.9256"/>
<path d="M0.474854 307.755V430.084" stroke="#00BFFF" stroke-width="0.287328" stroke-miterlimit="22.9256"/>
<path d="M7.36401 430.084V307.755" stroke="#00BFFF" stroke-width="0.287328" stroke-miterlimit="22.9256"/>
<path d="M14.2466 307.755V430.084" stroke="#00BFFF" stroke-width="0.287328" stroke-miterlimit="22.9256"/>
<path d="M14.2466 89.5864H0.474854" stroke="black" stroke-width="0.287328" stroke-miterlimit="22.9256"/>
<path d="M14.2466 191.788H0.474854" stroke="black" stroke-width="0.287328" stroke-miterlimit="22.9256"/>
<path d="M0.474854 89.5864V191.788" stroke="#00BFFF" stroke-width="0.287328" stroke-miterlimit="22.9256"/>
<path d="M7.36401 191.788V89.5864" stroke="#00BFFF" stroke-width="0.287328" stroke-miterlimit="22.9256"/>
<path d="M14.2466 89.5864V191.788" stroke="#00BFFF" stroke-width="0.287328" stroke-miterlimit="22.9256"/>
<path d="M41.7833 38.749H14.2466" stroke="black" stroke-width="0.287328" stroke-miterlimit="22.9256"/>
<path d="M41.7833 480.921H14.2466" stroke="black" stroke-width="0.287328" stroke-miterlimit="22.9256"/>
<path d="M357.39 21.8037H364.273" stroke="#FF0000" stroke-width="0.287328" stroke-miterlimit="22.9256"/>
<path d="M374.864 21.8037H442.647" stroke="#FF0000" stroke-width="0.287328" stroke-miterlimit="22.9256"/>
<path d="M452.709 21.8037H459.592" stroke="#FF0000" stroke-width="0.287328" stroke-miterlimit="22.9256"/>
<path d="M483.955 130.36V157.897" stroke="black" stroke-width="0.287328" stroke-miterlimit="22.9256"/>
<path d="M119.623 38.749H41.7834" stroke="black" stroke-width="0.287328" stroke-miterlimit="22.9256"/>
<path d="M470.183 144.125V21.8037V72.6408" stroke="black" stroke-width="0.287328" stroke-miterlimit="22.9256"/>
<path d="M470.183 151.014V157.897" stroke="black" stroke-width="0.287328" stroke-miterlimit="22.9256"/>
<path d="M119.623 24.9775H0.474854" stroke="black" stroke-width="0.287328" stroke-miterlimit="22.9256"/>
<path d="M119.623 494.686H0.474854" stroke="black" stroke-width="0.287328" stroke-miterlimit="22.9256"/>
<path d="M119.623 480.921H41.7834" stroke="black" stroke-width="0.287328" stroke-miterlimit="22.9256"/>
<path d="M470.183 484.629V246.334V358.592" stroke="black" stroke-width="0.287328" stroke-miterlimit="22.9256"/>
<path d="M483.955 232.562V497.866" stroke="black" stroke-width="0.287328" stroke-miterlimit="22.9256"/>
<path d="M470.183 239.445H422.527" stroke="black" stroke-width="0.287328" stroke-miterlimit="22.9256"/>
<path d="M340.979 239.445H334.09" stroke="black" stroke-width="0.287328" stroke-miterlimit="22.9256"/>
<path d="M327.207 239.445H14.2466" stroke="black" stroke-width="0.287328" stroke-miterlimit="22.9256"/>
<path d="M422.527 246.334H470.183H422.527Z" stroke="black" stroke-width="0.287328" stroke-miterlimit="22.9256"/>
<path d="M340.979 246.334H14.2466" stroke="black" stroke-width="0.287328" stroke-miterlimit="22.9256"/>
<path d="M334.09 21.8037V89.5865" stroke="black" stroke-width="0.287328" stroke-miterlimit="22.9256"/>
<path d="M334.09 35.5684V144.125" stroke="black" stroke-width="0.287328" stroke-miterlimit="22.9256"/>
<path d="M334.09 151.014V164.779" stroke="black" stroke-width="0.287328" stroke-miterlimit="22.9256"/>
<path d="M334.09 232.562V239.445" stroke="black" stroke-width="0.287328" stroke-miterlimit="22.9256"/>
<path d="M327.207 21.8037V143.07" stroke="black" stroke-width="0.287328" stroke-miterlimit="22.9256"/>
<path d="M327.207 144.125V164.779" stroke="black" stroke-width="0.287328" stroke-miterlimit="22.9256"/>
<path d="M327.207 232.562V239.445" stroke="black" stroke-width="0.287328" stroke-miterlimit="22.9256"/>
<path d="M470.183 157.897H483.955" stroke="black" stroke-width="0.287328" stroke-miterlimit="22.9256"/>
<path d="M218.651 8.03174H213.352" stroke="#008AB8" stroke-width="0.287328" stroke-miterlimit="22.9256"/>
<path d="M218.651 8.03174H213.352" stroke="#008AB8" stroke-width="0.287328" stroke-miterlimit="22.9256"/>
<path d="M218.651 35.5684H213.352" stroke="#008AB8" stroke-width="0.287328" stroke-miterlimit="22.9256"/>
<path d="M218.651 35.5684H213.352" stroke="#008AB8" stroke-width="0.287328" stroke-miterlimit="22.9256"/>
<path d="M218.651 511.631H213.352" stroke="#008AB8" stroke-width="0.287328" stroke-miterlimit="22.9256"/>
<path d="M191.642 511.631H213.352" stroke="#008AB8" stroke-width="0.287328" stroke-miterlimit="22.9256"/>
<path d="M327.207 110.241V115.533" stroke="#008AB8" stroke-width="0.287328" stroke-miterlimit="22.9256"/>
<path d="M70.9104 153.66L65.6116 142.014" stroke="black" stroke-width="0.287328" stroke-miterlimit="22.9256"/>
<path d="M70.9104 133.534L62.4309 146.778" stroke="black" stroke-width="0.287328" stroke-miterlimit="22.9256"/>
<path d="M62.4309 133.534V153.661" stroke="black" stroke-width="0.287328" stroke-miterlimit="22.9256"/>
<path d="M80.4392 133.534L76.7306 149.952L76.2027 152.07L75.1403 152.598L74.0845 153.661H73.5566" stroke="black" stroke-width="0.287328" stroke-miterlimit="22.9256"/>
<path d="M72.4941 133.534L76.7306 149.952" stroke="black" stroke-width="0.287328" stroke-miterlimit="22.9256"/>
<path d="M89.9743 133.534L82.0293 153.661" stroke="black" stroke-width="0.287328" stroke-miterlimit="22.9256"/>
<path d="M82.0293 133.534L89.9743 153.661" stroke="black" stroke-width="0.287328" stroke-miterlimit="22.9256"/>
<path d="M92.6204 133.534V153.661" stroke="black" stroke-width="0.287328" stroke-miterlimit="22.9256"/>
<path d="M92.6204 143.069H101.093" stroke="black" stroke-width="0.287328" stroke-miterlimit="22.9256"/>
<path d="M101.093 153.661V133.534" stroke="black" stroke-width="0.287328" stroke-miterlimit="22.9256"/>
<path d="M104.795 153.66L108.504 143.069" stroke="black" stroke-width="0.287328" stroke-miterlimit="22.9256"/>
<path d="M112.74 153.661V133.534H107.448L105.858 134.597L105.33 135.125L104.795 137.243V139.361L105.33 140.951L105.858 142.014L107.448 143.069H112.74" stroke="black" stroke-width="0.287328" stroke-miterlimit="22.9256"/>
<path d="M54.4927 171.134L55.5484 170.606L57.1388 167.425V188.08" stroke="black" stroke-width="0.287328" stroke-miterlimit="22.9256"/>
<path d="M65.0837 167.425H71.4384L67.7298 175.37H69.3202L70.9105 176.433L71.4384 176.961L71.9663 180.135V182.253L71.4384 184.906L70.3759 187.024L68.2577 188.08H66.6674L65.0837 187.024L64.5559 185.961L63.4934 183.843" stroke="black" stroke-width="0.287328" stroke-miterlimit="22.9256"/>
<path d="M76.7305 187.024L76.2026 188.08L75.1401 187.024L76.2026 185.961L76.7305 187.024ZM76.7305 187.024V188.608L76.2026 190.726L75.1401 191.788" stroke="black" stroke-width="0.287328" stroke-miterlimit="22.9256"/>
<path d="M80.9668 171.134L82.5571 170.606L84.1475 167.425V188.08" stroke="black" stroke-width="0.287328" stroke-miterlimit="22.9256"/>
<path d="M93.6762 167.425L91.558 168.488L91.0301 170.606V172.196L91.558 174.314L92.6204 175.37L95.2665 176.433L96.8568 176.961L97.9126 179.079L98.4405 181.197V183.843L97.9126 185.961L97.3847 187.024L95.7944 188.08H93.6762L91.558 187.024L91.0301 185.961L90.5022 183.843V181.197L91.0301 179.079L92.0858 176.961L94.204 176.433L96.3289 175.37L97.3847 174.314L97.9126 172.196V170.606L97.3847 168.488L95.7944 167.425H93.6762Z" stroke="black" stroke-width="0.287328" stroke-miterlimit="22.9256"/>
<path d="M112.74 188.079V174.314L108.504 184.906L104.795 174.314V188.079" stroke="black" stroke-width="0.287328" stroke-miterlimit="22.9256"/>
<path d="M115.386 172.196V171.134L116.449 169.544L116.977 168.488L118.039 167.425H120.157L121.213 168.488L122.275 169.544L122.803 171.134V173.252L122.275 175.37L120.685 178.016L114.858 188.08H123.331" stroke="black" stroke-width="0.287328" stroke-miterlimit="22.9256"/>
<path d="M235.068 328.938H228.186V349.064" stroke="black" stroke-width="0.287328" stroke-miterlimit="22.9256"/>
<path d="M240.895 328.938H243.007L244.069 330L245.659 331.59L246.187 333.708L246.715 336.882V341.647L246.187 344.3L245.659 346.418L244.069 348.536L243.007 349.064H240.895L239.833 348.536L238.242 346.418L237.714 344.3L237.187 341.647V336.882L237.714 333.708L238.242 331.59L239.833 330L240.895 328.938Z" stroke="black" stroke-width="0.287328" stroke-miterlimit="22.9256"/>
<path d="M258.897 333.708L258.369 331.59L257.834 331.056L257.306 330L255.716 328.938H253.598L252.542 330L252.014 331.056L251.48 331.59L250.952 333.708L249.896 336.882V341.647L250.952 344.3L251.48 346.418L252.542 348.536L253.598 349.064H255.716L257.306 348.536L258.369 346.418L258.897 344.3" stroke="black" stroke-width="0.287328" stroke-miterlimit="22.9256"/>
<path d="M264.723 328.938V349.064" stroke="black" stroke-width="0.287328" stroke-miterlimit="22.9256"/>
<path d="M260.487 328.938H268.96" stroke="black" stroke-width="0.287328" stroke-miterlimit="22.9256"/>
<path d="M271.606 328.938V349.064L280.079 328.938V349.064" stroke="black" stroke-width="0.287328" stroke-miterlimit="22.9256"/>
<path d="M284.315 328.938V349.064" stroke="black" stroke-width="0.287328" stroke-miterlimit="22.9256"/>
<path d="M284.315 338.473H292.788" stroke="black" stroke-width="0.287328" stroke-miterlimit="22.9256"/>
<path d="M292.788 349.064V328.938" stroke="black" stroke-width="0.287328" stroke-miterlimit="22.9256"/>
<path d="M297.552 342.709H303.379" stroke="black" stroke-width="0.287328" stroke-miterlimit="22.9256"/>
<path d="M295.434 349.064L300.198 328.938L304.969 349.064" stroke="black" stroke-width="0.287328" stroke-miterlimit="22.9256"/>
<path d="M306.553 349.064L310.789 338.473" stroke="black" stroke-width="0.287328" stroke-miterlimit="22.9256"/>
<path d="M315.026 349.064V328.938H309.734L308.143 330L307.081 331.056L306.553 332.646V334.764L307.081 336.882L308.143 337.41L309.734 338.473H315.026" stroke="black" stroke-width="0.287328" stroke-miterlimit="22.9256"/>
<path d="M236.652 367.6V366.537L237.187 364.947L237.715 363.891L238.77 362.829H240.895L242.479 363.891L243.007 364.947L243.541 366.537V368.655L243.007 370.774L241.951 373.42L236.124 383.483H244.069" stroke="black" stroke-width="0.287328" stroke-miterlimit="22.9256"/>
<path d="M248.833 362.829H255.188L251.479 370.774H253.598L254.66 371.836L255.188 372.364L255.716 375.538V377.656L255.188 380.309L254.132 382.427L252.014 383.483H250.424L248.833 382.427L248.305 381.365L247.778 379.246" stroke="black" stroke-width="0.287328" stroke-miterlimit="22.9256"/>
<path d="M260.487 382.427L259.952 383.483L259.425 382.427L259.952 381.365L260.487 382.427ZM260.487 382.427V384.011L259.952 386.129L259.425 387.192" stroke="black" stroke-width="0.287328" stroke-miterlimit="22.9256"/>
<path d="M268.425 362.829L266.842 363.891L265.779 366.537L265.251 371.836V374.482L265.779 379.246L266.842 382.427L268.425 383.483H269.488L271.606 382.427L272.662 379.246L273.196 374.482V371.836L272.662 366.537L271.606 363.891L269.488 362.829H268.425Z" stroke="black" stroke-width="0.287328" stroke-miterlimit="22.9256"/>
<path d="M277.96 362.829H284.315L280.606 370.774H282.725L283.787 371.836L284.315 372.364L284.843 375.538V377.656L284.315 380.309L283.253 382.427L281.134 383.483H279.551L277.96 382.427L277.433 381.365L276.898 379.246" stroke="black" stroke-width="0.287328" stroke-miterlimit="22.9256"/>
<path d="M298.615 383.483V369.718L294.906 380.309L290.67 369.718V383.483" stroke="black" stroke-width="0.287328" stroke-miterlimit="22.9256"/>
<path d="M301.789 367.6V366.537L302.316 364.947L302.851 363.891L303.907 362.829H306.553L307.615 363.891L308.143 364.947L308.671 366.537V368.655L308.143 370.774L307.081 373.42L301.261 383.483H309.206" stroke="black" stroke-width="0.287328" stroke-miterlimit="22.9256"/>
<path d="M367.981 188.08L362.689 176.433" stroke="black" stroke-width="0.287328" stroke-miterlimit="22.9256"/>
<path d="M367.981 167.425L359.508 181.197" stroke="black" stroke-width="0.287328" stroke-miterlimit="22.9256"/>
<path d="M359.508 167.425V188.08" stroke="black" stroke-width="0.287328" stroke-miterlimit="22.9256"/>
<path d="M374.336 167.425H376.454L377.516 168.488L379.107 170.606L379.635 172.724L380.162 175.37V180.135L379.635 183.315L379.107 185.433L377.516 187.024L376.454 188.08H374.336L373.28 187.024L371.69 185.433L371.162 183.315L370.627 180.135V175.37L371.162 172.724L371.69 170.606L373.28 168.488L374.336 167.425Z" stroke="black" stroke-width="0.287328" stroke-miterlimit="22.9256"/>
<path d="M384.399 188.08V167.425H389.163L391.281 168.488L391.809 169.544L392.344 171.662V174.314L391.809 176.433L391.281 177.488L389.163 178.551H384.399" stroke="black" stroke-width="0.287328" stroke-miterlimit="22.9256"/>
<path d="M396.046 167.425V188.08L403.991 167.425V188.08" stroke="black" stroke-width="0.287328" stroke-miterlimit="22.9256"/>
<path d="M419.346 191.788V188.08H407.699V191.788" stroke="black" stroke-width="0.287328" stroke-miterlimit="22.9256"/>
<path d="M408.755 188.08L410.345 185.433L410.873 183.315L411.408 179.607V167.425H417.762V188.08" stroke="black" stroke-width="0.287328" stroke-miterlimit="22.9256"/>
<path d="M425.701 167.425H427.819L428.881 168.488L430.472 170.606L431 172.724L431.527 175.37V180.135L431 183.315L430.472 185.433L428.881 187.024L427.819 188.08H425.701L424.645 187.024L423.055 185.433L422.527 183.315L421.999 180.135V175.37L422.527 172.724L423.055 170.606L424.645 168.488L425.701 167.425Z" stroke="black" stroke-width="0.287328" stroke-miterlimit="22.9256"/>
<path d="M435.236 188.08V167.425H440.528L442.646 168.488L443.181 169.544L443.709 171.662V174.314L443.181 176.433L442.646 177.488L440.528 178.551H435.236" stroke="black" stroke-width="0.287328" stroke-miterlimit="22.9256"/>
<path d="M371.69 206.616V205.553L372.752 203.435L373.28 202.907L374.336 201.852H376.454L377.516 202.907L378.572 203.435L379.107 205.553V207.672L378.572 209.262L376.982 212.443L371.162 221.971H379.635" stroke="black" stroke-width="0.287328" stroke-miterlimit="22.9256"/>
<path d="M384.399 220.915L383.336 221.971L382.809 220.915L383.336 220.381L384.399 220.915ZM384.399 220.915V223.034L383.336 225.152L382.809 226.208" stroke="black" stroke-width="0.287328" stroke-miterlimit="22.9256"/>
<path d="M396.046 204.498L395.518 202.907L393.4 201.852H392.344L390.753 202.907L389.163 205.553L388.635 210.324V215.089L389.163 219.325L390.753 220.915L392.344 221.971H392.872L394.462 220.915L396.046 219.325L396.58 216.144V215.089L396.046 212.443L394.462 210.324L392.872 209.262H392.344L390.753 210.324L389.163 212.443L388.635 215.089" stroke="black" stroke-width="0.287328" stroke-miterlimit="22.9256"/>
<path d="M403.991 201.852L402.4 202.907L401.345 205.553L400.282 210.324V213.498L401.345 218.263L402.4 220.915L403.991 221.971H405.053L407.171 220.915L408.227 218.263L408.755 213.498V210.324L408.227 205.553L407.171 202.907L405.053 201.852H403.991Z" stroke="black" stroke-width="0.287328" stroke-miterlimit="22.9256"/>
<path d="M422.527 221.971V208.734L418.818 219.325L414.582 208.734V221.971" stroke="black" stroke-width="0.287328" stroke-miterlimit="22.9256"/>
<path d="M425.701 206.616V205.553L426.235 203.435L426.763 202.907L427.819 201.852H430.472L431.527 202.907L432.055 203.435L432.59 205.553V207.672L432.055 209.262L431 212.443L425.173 221.971H433.118" stroke="black" stroke-width="0.287328" stroke-miterlimit="22.9256"/>
<path d="M123.331 432.202L125.449 430.083" stroke="#FF0000" stroke-width="0.287328" stroke-miterlimit="22.9256"/>
<path d="M123.331 462.913L150.34 435.376" stroke="#FF0000" stroke-width="0.287328" stroke-miterlimit="22.9256"/>
<path d="M135.512 480.921L150.34 466.093" stroke="#FF0000" stroke-width="0.287328" stroke-miterlimit="22.9256"/>
<path d="M123.331 447.557L130.748 439.612" stroke="#FF0000" stroke-width="0.287328" stroke-miterlimit="22.9256"/>
<path d="M136.047 435.911C136.047 435.329 135.573 434.848 134.985 434.848C134.403 434.848 133.922 435.323 133.922 435.911C133.922 436.492 134.397 436.973 134.985 436.973C135.566 436.973 136.047 436.499 136.047 435.911Z" fill="#FF0000"/>
<path d="M134.985 435.911H136.047M136.047 435.911C136.047 435.329 135.573 434.848 134.985 434.848C134.403 434.848 133.922 435.323 133.922 435.911C133.922 436.492 134.397 436.973 134.985 436.973C135.566 436.973 136.047 436.499 136.047 435.911Z" stroke="black" stroke-width="0.287328" stroke-miterlimit="22.9256"/>
<path d="M138.687 432.202L140.805 430.083" stroke="#FF0000" stroke-width="0.287328" stroke-miterlimit="22.9256"/>
<path d="M124.394 477.74C124.394 477.159 123.919 476.678 123.331 476.678C122.75 476.678 122.269 477.152 122.269 477.74C122.269 478.322 122.743 478.803 123.331 478.803C123.913 478.803 124.394 478.328 124.394 477.74Z" fill="#FF0000"/>
<path d="M123.331 477.74H124.394M124.394 477.74C124.394 477.159 123.919 476.678 123.331 476.678C122.75 476.678 122.269 477.152 122.269 477.74C122.269 478.322 122.743 478.803 123.331 478.803C123.913 478.803 124.394 478.328 124.394 477.74Z" stroke="black" stroke-width="0.287328" stroke-miterlimit="22.9256"/>
<path d="M127.04 474.038L146.103 454.974" stroke="#FF0000" stroke-width="0.287328" stroke-miterlimit="22.9256"/>
<path d="M150.875 451.266C150.875 450.684 150.4 450.203 149.812 450.203C149.231 450.203 148.75 450.678 148.75 451.266C148.75 451.847 149.224 452.328 149.812 452.328C150.394 452.328 150.875 451.854 150.875 451.266Z" fill="#FF0000"/>
<path d="M149.812 451.266H150.875M150.875 451.266C150.875 450.684 150.4 450.203 149.812 450.203C149.231 450.203 148.75 450.678 148.75 451.266C148.75 451.847 149.224 452.328 149.812 452.328C150.394 452.328 150.875 451.854 150.875 451.266Z" stroke="black" stroke-width="0.287328" stroke-miterlimit="22.9256"/>
<path d="M123.331 430.083H150.34V480.921H123.331V430.083Z" stroke="#FF0000" stroke-width="0.287328" stroke-miterlimit="22.9256"/>
<path d="M123.331 40.8672L125.449 38.749" stroke="#FF0000" stroke-width="0.287328" stroke-miterlimit="22.9256"/>
<path d="M123.331 71.5782L150.34 44.0415" stroke="#FF0000" stroke-width="0.287328" stroke-miterlimit="22.9256"/>
<path d="M135.512 89.5863L150.34 74.7588" stroke="#FF0000" stroke-width="0.287328" stroke-miterlimit="22.9256"/>
<path d="M123.331 56.2228L130.748 48.2778" stroke="#FF0000" stroke-width="0.287328" stroke-miterlimit="22.9256"/>
<path d="M136.047 44.5761C136.047 43.9948 135.573 43.5137 134.985 43.5137C134.403 43.5137 133.922 43.9881 133.922 44.5761C133.922 45.1575 134.397 45.6386 134.985 45.6386C135.566 45.6386 136.047 45.1641 136.047 44.5761Z" fill="#FF0000"/>
<path d="M134.985 44.5761H136.047M136.047 44.5761C136.047 43.9948 135.573 43.5137 134.985 43.5137C134.403 43.5137 133.922 43.9881 133.922 44.5761C133.922 45.1575 134.397 45.6386 134.985 45.6386C135.566 45.6386 136.047 45.1641 136.047 44.5761Z" stroke="black" stroke-width="0.287328" stroke-miterlimit="22.9256"/>
<path d="M138.687 40.8672L140.805 38.749" stroke="#FF0000" stroke-width="0.287328" stroke-miterlimit="22.9256"/>
<path d="M124.394 86.4057C124.394 85.8244 123.919 85.3433 123.331 85.3433C122.75 85.3433 122.269 85.8177 122.269 86.4057C122.269 86.987 122.743 87.4681 123.331 87.4681C123.913 87.4681 124.394 86.9937 124.394 86.4057Z" fill="#FF0000"/>
<path d="M123.331 86.4057H124.394M124.394 86.4057C124.394 85.8244 123.919 85.3433 123.331 85.3433C122.75 85.3433 122.269 85.8177 122.269 86.4057C122.269 86.987 122.743 87.4681 123.331 87.4681C123.913 87.4681 124.394 86.9937 124.394 86.4057Z" stroke="black" stroke-width="0.287328" stroke-miterlimit="22.9256"/>
<path d="M127.04 82.7035L146.103 63.6396" stroke="#FF0000" stroke-width="0.287328" stroke-miterlimit="22.9256"/>
<path d="M150.875 59.9311C150.875 59.3498 150.4 58.8687 149.812 58.8687C149.231 58.8687 148.75 59.3431 148.75 59.9311C148.75 60.5124 149.224 60.9935 149.812 60.9935C150.394 60.9935 150.875 60.5191 150.875 59.9311Z" fill="#FF0000"/>
<path d="M149.812 59.9311H150.875M150.875 59.9311C150.875 59.3498 150.4 58.8687 149.812 58.8687C149.231 58.8687 148.75 59.3431 148.75 59.9311C148.75 60.5124 149.224 60.9935 149.812 60.9935C150.394 60.9935 150.875 60.5191 150.875 59.9311Z" stroke="black" stroke-width="0.287328" stroke-miterlimit="22.9256"/>
<path d="M123.331 38.749H150.34V89.5861H123.331V38.749Z" stroke="#FF0000" stroke-width="0.287328" stroke-miterlimit="22.9256"/>
<path d="M156.167 511.631L154.049 509.513" stroke="#FF0000" stroke-width="0.287328" stroke-miterlimit="22.9256"/>
<path d="M186.35 511.632L159.341 484.629" stroke="#FF0000" stroke-width="0.287328" stroke-miterlimit="22.9256"/>
<path d="M217.06 511.632L190.058 484.629" stroke="#FF0000" stroke-width="0.287328" stroke-miterlimit="22.9256"/>
<path d="M247.778 511.632L220.241 484.629" stroke="#FF0000" stroke-width="0.287328" stroke-miterlimit="22.9256"/>
<path d="M272.662 506.339L250.952 484.629" stroke="#FF0000" stroke-width="0.287328" stroke-miterlimit="22.9256"/>
<path d="M170.994 511.632L163.577 503.693" stroke="#FF0000" stroke-width="0.287328" stroke-miterlimit="22.9256"/>
<path d="M160.938 499.984C160.938 499.403 160.463 498.922 159.875 498.922C159.294 498.922 158.813 499.396 158.813 499.984C158.813 500.566 159.287 501.047 159.875 501.047C160.457 501.047 160.938 500.572 160.938 499.984Z" fill="#FF0000"/>
<path d="M159.875 499.984H160.938M160.938 499.984C160.938 499.403 160.463 498.922 159.875 498.922C159.294 498.922 158.813 499.396 158.813 499.984C158.813 500.566 159.287 501.047 159.875 501.047C160.457 501.047 160.938 500.572 160.938 499.984Z" stroke="black" stroke-width="0.287328" stroke-miterlimit="22.9256"/>
<path d="M155.632 496.276L154.049 494.158" stroke="#FF0000" stroke-width="0.287328" stroke-miterlimit="22.9256"/>
<path d="M202.767 511.631C202.767 511.05 202.293 510.569 201.705 510.569C201.124 510.569 200.643 511.043 200.643 511.631C200.643 512.213 201.117 512.694 201.705 512.694C202.286 512.694 202.767 512.219 202.767 511.631Z" fill="#FF0000"/>
<path d="M201.705 511.631H202.767M202.767 511.631C202.767 511.05 202.293 510.569 201.705 510.569C201.124 510.569 200.643 511.043 200.643 511.631C200.643 512.213 201.117 512.694 201.705 512.694C202.286 512.694 202.767 512.219 202.767 511.631Z" stroke="black" stroke-width="0.287328" stroke-miterlimit="22.9256"/>
<path d="M197.997 507.93L178.933 488.331" stroke="#FF0000" stroke-width="0.287328" stroke-miterlimit="22.9256"/>
<path d="M175.765 484.629C175.765 484.048 175.291 483.567 174.703 483.567C174.122 483.567 173.64 484.041 173.64 484.629C173.64 485.211 174.115 485.692 174.703 485.692C175.284 485.692 175.765 485.217 175.765 484.629Z" fill="#FF0000"/>
<path d="M174.703 484.629H175.765M175.765 484.629C175.765 484.048 175.291 483.567 174.703 483.567C174.122 483.567 173.64 484.041 173.64 484.629C173.64 485.211 174.115 485.692 174.703 485.692C175.284 485.692 175.765 485.217 175.765 484.629Z" stroke="black" stroke-width="0.287328" stroke-miterlimit="22.9256"/>
<path d="M232.416 511.631L220.769 499.984" stroke="#FF0000" stroke-width="0.287328" stroke-miterlimit="22.9256"/>
<path d="M218.123 496.276C218.123 495.695 217.648 495.213 217.06 495.213C216.479 495.213 215.998 495.688 215.998 496.276C215.998 496.857 216.472 497.338 217.06 497.338C217.642 497.338 218.123 496.864 218.123 496.276Z" fill="#FF0000"/>
<path d="M217.06 496.276H218.123M218.123 496.276C218.123 495.695 217.648 495.213 217.06 495.213C216.479 495.213 215.998 495.688 215.998 496.276C215.998 496.857 216.472 497.338 217.06 497.338C217.642 497.338 218.123 496.864 218.123 496.276Z" stroke="black" stroke-width="0.287328" stroke-miterlimit="22.9256"/>
<path d="M213.352 492.568L204.879 484.629" stroke="#FF0000" stroke-width="0.287328" stroke-miterlimit="22.9256"/>
<path d="M263.133 511.631H262.605" stroke="#FF0000" stroke-width="0.287328" stroke-miterlimit="22.9256"/>
<path d="M259.959 507.93C259.959 507.348 259.485 506.867 258.897 506.867C258.315 506.867 257.834 507.342 257.834 507.93C257.834 508.511 258.309 508.992 258.897 508.992C259.478 508.992 259.959 508.518 259.959 507.93Z" fill="#FF0000"/>
<path d="M258.897 507.93H259.959M259.959 507.93C259.959 507.348 259.485 506.867 258.897 506.867C258.315 506.867 257.834 507.342 257.834 507.93C257.834 508.511 258.309 508.992 258.897 508.992C259.478 508.992 259.959 508.518 259.959 507.93Z" stroke="black" stroke-width="0.287328" stroke-miterlimit="22.9256"/>
<path d="M255.188 503.693L236.124 484.629" stroke="#FF0000" stroke-width="0.287328" stroke-miterlimit="22.9256"/>
<path d="M270.544 488.331L266.307 484.629" stroke="#FF0000" stroke-width="0.287328" stroke-miterlimit="22.9256"/>
<path d="M154.049 511.632V484.629H272.662V511.632H154.049Z" stroke="#FF0000" stroke-width="0.287328" stroke-miterlimit="22.9256"/>
<path d="M156.167 35.5685L154.049 32.9224" stroke="#FF0000" stroke-width="0.287328" stroke-miterlimit="22.9256"/>
<path d="M186.35 35.5685L159.341 8.03174" stroke="#FF0000" stroke-width="0.287328" stroke-miterlimit="22.9256"/>
<path d="M217.06 35.5685L190.058 8.03174" stroke="#FF0000" stroke-width="0.287328" stroke-miterlimit="22.9256"/>
<path d="M247.778 35.5685L220.241 8.03174" stroke="#FF0000" stroke-width="0.287328" stroke-miterlimit="22.9256"/>
<path d="M272.662 30.2763L250.952 8.03174" stroke="#FF0000" stroke-width="0.287328" stroke-miterlimit="22.9256"/>
<path d="M170.994 35.5687L163.577 27.6304" stroke="#FF0000" stroke-width="0.287328" stroke-miterlimit="22.9256"/>
<path d="M160.938 23.9218C160.938 23.3405 160.463 22.8594 159.875 22.8594C159.294 22.8594 158.813 23.3338 158.813 23.9218C158.813 24.5032 159.287 24.9843 159.875 24.9843C160.457 24.9843 160.938 24.5098 160.938 23.9218Z" fill="#FF0000"/>
<path d="M159.875 23.9218H160.938M160.938 23.9218C160.938 23.3405 160.463 22.8594 159.875 22.8594C159.294 22.8594 158.813 23.3338 158.813 23.9218C158.813 24.5032 159.287 24.9843 159.875 24.9843C160.457 24.9843 160.938 24.5098 160.938 23.9218Z" stroke="black" stroke-width="0.287328" stroke-miterlimit="22.9256"/>
<path d="M155.632 20.2134L154.049 18.0952" stroke="#FF0000" stroke-width="0.287328" stroke-miterlimit="22.9256"/>
<path d="M202.767 35.0405C202.767 34.4591 202.293 33.978 201.705 33.978C201.124 33.978 200.643 34.4525 200.643 35.0405C200.643 35.6218 201.117 36.1029 201.705 36.1029C202.286 36.1029 202.767 35.6285 202.767 35.0405Z" fill="#FF0000"/>
<path d="M201.705 35.0405H202.767M202.767 35.0405C202.767 34.4591 202.293 33.978 201.705 33.978C201.124 33.978 200.643 34.4525 200.643 35.0405C200.643 35.6218 201.117 36.1029 201.705 36.1029C202.286 36.1029 202.767 35.6285 202.767 35.0405Z" stroke="black" stroke-width="0.287328" stroke-miterlimit="22.9256"/>
<path d="M197.997 31.332L178.933 12.2681" stroke="#FF0000" stroke-width="0.287328" stroke-miterlimit="22.9256"/>
<path d="M175.765 8.56635C175.765 7.98501 175.291 7.50391 174.703 7.50391C174.122 7.50391 173.64 7.97833 173.64 8.56635C173.64 9.14769 174.115 9.6288 174.703 9.6288C175.284 9.6288 175.765 9.15437 175.765 8.56635Z" fill="#FF0000"/>
<path d="M174.703 8.56635H175.765M175.765 8.56635C175.765 7.98501 175.291 7.50391 174.703 7.50391C174.122 7.50391 173.64 7.97833 173.64 8.56635C173.64 9.14769 174.115 9.6288 174.703 9.6288C175.284 9.6288 175.765 9.15437 175.765 8.56635Z" stroke="black" stroke-width="0.287328" stroke-miterlimit="22.9256"/>
<path d="M232.416 35.5687L220.769 23.9219" stroke="#FF0000" stroke-width="0.287328" stroke-miterlimit="22.9256"/>
<path d="M218.123 20.2133C218.123 19.632 217.648 19.1509 217.06 19.1509C216.479 19.1509 215.998 19.6253 215.998 20.2133C215.998 20.7947 216.472 21.2758 217.06 21.2758C217.642 21.2758 218.123 20.8013 218.123 20.2133Z" fill="#FF0000"/>
<path d="M217.06 20.2133H218.123M218.123 20.2133C218.123 19.632 217.648 19.1509 217.06 19.1509C216.479 19.1509 215.998 19.6253 215.998 20.2133C215.998 20.7947 216.472 21.2758 217.06 21.2758C217.642 21.2758 218.123 20.8013 218.123 20.2133Z" stroke="black" stroke-width="0.287328" stroke-miterlimit="22.9256"/>
<path d="M213.352 15.9767L204.879 8.03174" stroke="#FF0000" stroke-width="0.287328" stroke-miterlimit="22.9256"/>
<path d="M263.133 35.5684L262.605 35.0405" stroke="#FF0000" stroke-width="0.287328" stroke-miterlimit="22.9256"/>
<path d="M259.959 31.332C259.959 30.7506 259.485 30.2695 258.897 30.2695C258.315 30.2695 257.834 30.744 257.834 31.332C257.834 31.9133 258.309 32.3944 258.897 32.3944C259.478 32.3944 259.959 31.92 259.959 31.332Z" fill="#FF0000"/>
<path d="M258.897 31.332H259.959M259.959 31.332C259.959 30.7506 259.485 30.2695 258.897 30.2695C258.315 30.2695 257.834 30.744 257.834 31.332C257.834 31.9133 258.309 32.3944 258.897 32.3944C259.478 32.3944 259.959 31.92 259.959 31.332Z" stroke="black" stroke-width="0.287328" stroke-miterlimit="22.9256"/>
<path d="M255.188 27.6303L236.124 8.56641" stroke="#FF0000" stroke-width="0.287328" stroke-miterlimit="22.9256"/>
<path d="M270.544 12.2682L266.307 8.03174" stroke="#FF0000" stroke-width="0.287328" stroke-miterlimit="22.9256"/>
<path d="M154.049 35.5685V8.03174H272.662V35.5685H154.049Z" stroke="#FF0000" stroke-width="0.287328" stroke-miterlimit="22.9256"/>
<path d="M272.662 484.629H470.183" stroke="black" stroke-width="0.287328" stroke-miterlimit="22.9256"/>
<path d="M272.662 497.866H483.955" stroke="black" stroke-width="0.287328" stroke-miterlimit="22.9256"/>
<path d="M456.418 21.8037H366.397" stroke="#008AB8" stroke-width="0.287328" stroke-miterlimit="22.9256"/>
<path d="M272.662 8.03174H483.955" stroke="black" stroke-width="0.287328" stroke-miterlimit="22.9256"/>
<path d="M272.662 21.8037H324.033" stroke="black" stroke-width="0.287328" stroke-miterlimit="22.9256"/>
<path d="M293.316 21.8037H327.207" stroke="black" stroke-width="0.287328" stroke-miterlimit="22.9256"/>
<path d="M334.09 21.8037H470.183" stroke="black" stroke-width="0.287328" stroke-miterlimit="22.9256"/>
<path d="M334.09 144.125H361.099" stroke="black" stroke-width="0.287328" stroke-miterlimit="22.9256"/>
<path d="M408.755 144.125H470.183" stroke="black" stroke-width="0.287328" stroke-miterlimit="22.9256"/>
<path d="M334.09 151.014H361.099" stroke="black" stroke-width="0.287328" stroke-miterlimit="22.9256"/>
<path d="M408.755 151.014H470.183" stroke="black" stroke-width="0.287328" stroke-miterlimit="22.9256"/>
<path d="M327.207 151.014V144.125" stroke="black" stroke-width="0.287328" stroke-miterlimit="22.9256"/>
<path d="M334.09 232.562H327.207" stroke="black" stroke-width="0.287328" stroke-miterlimit="22.9256"/>
<path d="M334.09 164.779H327.207" stroke="black" stroke-width="0.287328" stroke-miterlimit="22.9256"/>
<path d="M422.527 239.445V246.334" stroke="black" stroke-width="0.287328" stroke-miterlimit="22.9256"/>
<path d="M340.979 239.445V246.334" stroke="black" stroke-width="0.287328" stroke-miterlimit="22.9256"/>
<path d="M417.228 85.3498L416.7 83.2315L416.172 82.7037L415.644 81.6412L414.582 80.5854H411.936L410.873 81.6412L410.345 82.7037L409.817 83.2315L409.289 85.3498L408.755 88.5237V93.2947L409.289 95.9408L409.817 98.059L410.873 100.177L411.936 100.705H414.582L415.644 100.177L416.7 98.059L417.228 95.9408" stroke="black" stroke-width="0.287328" stroke-miterlimit="22.9256"/>
<path d="M428.881 76.877L418.818 107.588" stroke="black" stroke-width="0.287328" stroke-miterlimit="22.9256"/>
<path d="M440 80.5854L436.292 96.9966L435.236 99.1148L434.708 100.177L433.646 100.705H433.118" stroke="black" stroke-width="0.287328" stroke-miterlimit="22.9256"/>
<path d="M432.055 80.5854L436.292 96.9966" stroke="black" stroke-width="0.287328" stroke-miterlimit="22.9256"/>
<path d="M394.99 114.47H401.345L397.636 122.415H399.754L400.817 123.478L401.345 124.006L401.872 127.179V129.304L401.345 131.95L400.282 134.069L398.698 135.124H396.58L394.99 134.069L394.462 133.006L393.927 130.888" stroke="black" stroke-width="0.287328" stroke-miterlimit="22.9256"/>
<path d="M406.637 134.069L406.109 135.125L405.581 134.069L406.109 133.006L406.637 134.069ZM406.637 134.069V135.659L406.109 137.771L405.581 138.833" stroke="black" stroke-width="0.287328" stroke-miterlimit="22.9256"/>
<path d="M411.936 119.241V118.179L412.463 116.595L412.991 115.533L414.054 114.47H416.7L417.762 115.533L418.29 116.595L418.818 118.179V120.297L418.29 122.415L417.228 125.068L411.408 135.124H419.346" stroke="black" stroke-width="0.287328" stroke-miterlimit="22.9256"/>
<path d="M423.055 114.47H431L425.173 135.124" stroke="black" stroke-width="0.287328" stroke-miterlimit="22.9256"/>
<path d="M445.292 135.124V121.359L441.063 131.95L436.826 121.359V135.124" stroke="black" stroke-width="0.287328" stroke-miterlimit="22.9256"/>
<path d="M447.945 119.241V118.179L448.473 116.595L449.001 115.533L450.591 114.47H452.71L453.772 115.533L454.3 116.595L454.828 118.179V120.297L454.3 122.415L453.238 125.068L447.417 135.124H455.356" stroke="black" stroke-width="0.287328" stroke-miterlimit="22.9256"/>
<path d="M483.955 8.03174V157.897" stroke="black" stroke-width="0.287328" stroke-miterlimit="22.9256"/>
<path d="M483.955 130.36V144.125" stroke="black" stroke-width="0.287328" stroke-miterlimit="22.9256"/>
<path d="M470.183 239.445V225.68H483.955V232.562" stroke="black" stroke-width="0.287328" stroke-miterlimit="22.9256"/>
<path d="M483.955 157.897V225.68" stroke="black" stroke-width="0.287328" stroke-miterlimit="22.9256"/>
<path d="M327.207 144.125V151.014V144.125Z" stroke="black" stroke-width="0.287328" stroke-miterlimit="22.9256"/>
<path d="M408.755 144.125V151.014" stroke="black" stroke-width="0.287328" stroke-miterlimit="22.9256"/>
<path d="M361.099 144.125V151.014" stroke="black" stroke-width="0.287328" stroke-miterlimit="22.9256"/>
<path d="M116.449 518.521H157.223" stroke="black" stroke-width="0.287328" stroke-miterlimit="22.9256"/>
<path d="M157.223 477.74H116.449L157.223 518.514V477.74ZM116.449 477.74L157.223 518.514H116.449V477.74Z" fill="#0000FF"/>
<path d="M116.449 477.74H157.223V518.514M116.449 477.74L157.223 518.514M116.449 477.74V518.514H157.223" stroke="#0000FF" stroke-width="0.287328" stroke-miterlimit="22.9256"/>
<path d="M157.223 477.74H116.449V518.521H157.223V477.74Z" stroke="black" stroke-width="0.287328" stroke-miterlimit="22.9256"/>
<path d="M116.449 518.521L157.223 477.74" stroke="black" stroke-width="0.287328" stroke-miterlimit="22.9256"/>
<path d="M157.223 518.521L116.449 477.74" stroke="black" stroke-width="0.287328" stroke-miterlimit="22.9256"/>
<path d="M116.449 41.9233H157.223" stroke="black" stroke-width="0.287328" stroke-miterlimit="22.9256"/>
<path d="M157.223 1.14941H116.449L157.223 41.9233V1.14941ZM116.449 1.14941L157.223 41.9233H116.449V1.14941Z" fill="#0000FF"/>
<path d="M116.449 1.14941H157.223V41.9233M116.449 1.14941L157.223 41.9233M116.449 1.14941V41.9233H157.223" stroke="#0000FF" stroke-width="0.287328" stroke-miterlimit="22.9256"/>
<path d="M157.223 1.14941H116.449V41.9233H157.223V1.14941Z" stroke="black" stroke-width="0.287328" stroke-miterlimit="22.9256"/>
<path d="M116.449 41.9233L157.223 1.14941" stroke="black" stroke-width="0.287328" stroke-miterlimit="22.9256"/>
<path d="M157.223 41.9233L116.449 1.14941" stroke="black" stroke-width="0.287328" stroke-miterlimit="22.9256"/>
<path d="M307.081 151.014V69.46H334.09V151.014H307.081Z" stroke="#5CB800" stroke-width="0.287328" stroke-miterlimit="22.9256"/>
<path d="M327.207 77.4048V88.5237" stroke="#5CB800" stroke-width="0.287328" stroke-miterlimit="22.9256"/>
<path d="M326.145 89.5864H315.026" stroke="#5CB800" stroke-width="0.287328" stroke-miterlimit="22.9256"/>
<path d="M313.436 88.5237V77.4048" stroke="#5CB800" stroke-width="0.287328" stroke-miterlimit="22.9256"/>
<path d="M315.026 76.3491H326.145" stroke="#5CB800" stroke-width="0.287328" stroke-miterlimit="22.9256"/>
<path d="M327.735 77.1375C327.735 76.4092 327.14 75.8145 326.412 75.8145" stroke="#5CB800" stroke-width="0.287328" stroke-miterlimit="22.9256"/>
<path d="M326.412 89.5862C327.147 89.5862 327.735 88.9915 327.735 88.2632" stroke="#5CB800" stroke-width="0.287328" stroke-miterlimit="22.9256"/>
<path d="M315.293 75.8145C314.565 75.8145 313.97 76.4092 313.97 77.1375" stroke="#5CB800" stroke-width="0.287328" stroke-miterlimit="22.9256"/>
<path d="M313.97 88.2632C313.97 88.9982 314.565 89.5862 315.293 89.5862" stroke="#5CB800" stroke-width="0.287328" stroke-miterlimit="22.9256"/>
<path d="M315.026 130.36H326.145" stroke="#5CB800" stroke-width="0.287328" stroke-miterlimit="22.9256"/>
<path d="M327.207 131.951V143.07" stroke="#5CB800" stroke-width="0.287328" stroke-miterlimit="22.9256"/>
<path d="M326.145 144.125H315.026" stroke="#5CB800" stroke-width="0.287328" stroke-miterlimit="22.9256"/>
<path d="M313.436 143.07V131.951" stroke="#5CB800" stroke-width="0.287328" stroke-miterlimit="22.9256"/>
<path d="M327.735 131.683C327.735 130.948 327.14 130.36 326.412 130.36" stroke="#5CB800" stroke-width="0.287328" stroke-miterlimit="22.9256"/>
<path d="M326.412 144.125C327.147 144.125 327.735 143.531 327.735 142.802" stroke="#5CB800" stroke-width="0.287328" stroke-miterlimit="22.9256"/>
<path d="M315.293 130.36C314.565 130.36 313.97 130.955 313.97 131.683" stroke="#5CB800" stroke-width="0.287328" stroke-miterlimit="22.9256"/>
<path d="M313.97 142.802C313.97 143.531 314.565 144.125 315.293 144.125" stroke="#5CB800" stroke-width="0.287328" stroke-miterlimit="22.9256"/>
<path d="M327.735 97.7918C327.735 97.0635 327.14 96.4688 326.412 96.4688" stroke="#5CB800" stroke-width="0.287328" stroke-miterlimit="22.9256"/>
<path d="M315.293 96.4688C314.565 96.4688 313.97 97.0635 313.97 97.7918" stroke="#5CB800" stroke-width="0.287328" stroke-miterlimit="22.9256"/>
<path d="M326.412 123.478C327.147 123.478 327.735 122.883 327.735 122.155" stroke="#5CB800" stroke-width="0.287328" stroke-miterlimit="22.9256"/>
<path d="M313.97 122.155C313.97 122.883 314.565 123.478 315.293 123.478" stroke="#5CB800" stroke-width="0.287328" stroke-miterlimit="22.9256"/>
<path d="M315.026 96.4688H326.145" stroke="#5CB800" stroke-width="0.287328" stroke-miterlimit="22.9256"/>
<path d="M327.207 98.0591V122.415" stroke="#5CB800" stroke-width="0.287328" stroke-miterlimit="22.9256"/>
<path d="M326.145 124.005H315.026" stroke="#5CB800" stroke-width="0.287328" stroke-miterlimit="22.9256"/>
<path d="M313.436 122.415V98.0591" stroke="#5CB800" stroke-width="0.287328" stroke-miterlimit="22.9256"/>
<path d="M307.081 151.014V69.46H334.09V151.014H307.081Z" stroke="#5CB800" stroke-width="0.287328" stroke-miterlimit="22.9256"/>
<path d="M327.207 77.4048V88.5237" stroke="#5CB800" stroke-width="0.287328" stroke-miterlimit="22.9256"/>
<path d="M326.145 89.5864H315.026" stroke="#5CB800" stroke-width="0.287328" stroke-miterlimit="22.9256"/>
<path d="M313.436 88.5237V77.4048" stroke="#5CB800" stroke-width="0.287328" stroke-miterlimit="22.9256"/>
<path d="M315.026 76.3491H326.145" stroke="#5CB800" stroke-width="0.287328" stroke-miterlimit="22.9256"/>
<path d="M327.735 77.1375C327.735 76.4092 327.14 75.8145 326.412 75.8145" stroke="#5CB800" stroke-width="0.287328" stroke-miterlimit="22.9256"/>
<path d="M326.412 89.5862C327.147 89.5862 327.735 88.9915 327.735 88.2632" stroke="#5CB800" stroke-width="0.287328" stroke-miterlimit="22.9256"/>
<path d="M315.293 75.8145C314.565 75.8145 313.97 76.4092 313.97 77.1375" stroke="#5CB800" stroke-width="0.287328" stroke-miterlimit="22.9256"/>
<path d="M313.97 88.2632C313.97 88.9982 314.565 89.5862 315.293 89.5862" stroke="#5CB800" stroke-width="0.287328" stroke-miterlimit="22.9256"/>
<path d="M315.026 130.36H326.145" stroke="#5CB800" stroke-width="0.287328" stroke-miterlimit="22.9256"/>
<path d="M327.207 131.951V143.07" stroke="#5CB800" stroke-width="0.287328" stroke-miterlimit="22.9256"/>
<path d="M326.145 144.125H315.026" stroke="#5CB800" stroke-width="0.287328" stroke-miterlimit="22.9256"/>
<path d="M313.436 143.07V131.951" stroke="#5CB800" stroke-width="0.287328" stroke-miterlimit="22.9256"/>
<path d="M327.735 131.683C327.735 130.948 327.14 130.36 326.412 130.36" stroke="#5CB800" stroke-width="0.287328" stroke-miterlimit="22.9256"/>
<path d="M326.412 144.125C327.147 144.125 327.735 143.531 327.735 142.802" stroke="#5CB800" stroke-width="0.287328" stroke-miterlimit="22.9256"/>
<path d="M315.293 130.36C314.565 130.36 313.97 130.955 313.97 131.683" stroke="#5CB800" stroke-width="0.287328" stroke-miterlimit="22.9256"/>
<path d="M313.97 142.802C313.97 143.531 314.565 144.125 315.293 144.125" stroke="#5CB800" stroke-width="0.287328" stroke-miterlimit="22.9256"/>
<path d="M327.735 97.7918C327.735 97.0635 327.14 96.4688 326.412 96.4688" stroke="#5CB800" stroke-width="0.287328" stroke-miterlimit="22.9256"/>
<path d="M315.293 96.4688C314.565 96.4688 313.97 97.0635 313.97 97.7918" stroke="#5CB800" stroke-width="0.287328" stroke-miterlimit="22.9256"/>
<path d="M326.412 123.478C327.147 123.478 327.735 122.883 327.735 122.155" stroke="#5CB800" stroke-width="0.287328" stroke-miterlimit="22.9256"/>
<path d="M313.97 122.155C313.97 122.883 314.565 123.478 315.293 123.478" stroke="#5CB800" stroke-width="0.287328" stroke-miterlimit="22.9256"/>
<path d="M315.026 96.4688H326.145" stroke="#5CB800" stroke-width="0.287328" stroke-miterlimit="22.9256"/>
<path d="M327.207 98.0591V122.415" stroke="#5CB800" stroke-width="0.287328" stroke-miterlimit="22.9256"/>
<path d="M326.145 124.005H315.026" stroke="#5CB800" stroke-width="0.287328" stroke-miterlimit="22.9256"/>
<path d="M313.436 122.415V98.0591" stroke="#5CB800" stroke-width="0.287328" stroke-miterlimit="22.9256"/>
<path d="M315.026 144.125L324.561 140.424L327.207 131.951" stroke="#5CB800" stroke-width="0.287328" stroke-miterlimit="22.9256"/>
<path d="M315.026 124.005L324.561 119.241L327.207 98.0591" stroke="#5CB800" stroke-width="0.287328" stroke-miterlimit="22.9256"/>
<path d="M315.026 89.5862L324.561 85.8776L327.207 77.4048" stroke="#5CB800" stroke-width="0.287328" stroke-miterlimit="22.9256"/>
<path d="M354.744 151.014V69.46H327.207V151.014H354.744Z" stroke="#5CB800" stroke-width="0.287328" stroke-miterlimit="22.9256"/>
<path d="M334.09 77.4048V88.5237" stroke="#5CB800" stroke-width="0.287328" stroke-miterlimit="22.9256"/>
<path d="M335.68 89.5864H346.271" stroke="#5CB800" stroke-width="0.287328" stroke-miterlimit="22.9256"/>
<path d="M347.862 88.5237V77.4048" stroke="#5CB800" stroke-width="0.287328" stroke-miterlimit="22.9256"/>
<path d="M346.271 76.3491H335.68" stroke="#5CB800" stroke-width="0.287328" stroke-miterlimit="22.9256"/>
<path d="M335.947 75.8145C335.219 75.8145 334.624 76.4092 334.624 77.1375" stroke="#5CB800" stroke-width="0.287328" stroke-miterlimit="22.9256"/>
<path d="M334.624 88.2632C334.624 88.9982 335.219 89.5862 335.947 89.5862" stroke="#5CB800" stroke-width="0.287328" stroke-miterlimit="22.9256"/>
<path d="M347.861 77.1375C347.861 76.4092 347.267 75.8145 346.538 75.8145" stroke="#5CB800" stroke-width="0.287328" stroke-miterlimit="22.9256"/>
<path d="M346.538 89.5862C347.267 89.5862 347.861 88.9915 347.861 88.2632" stroke="#5CB800" stroke-width="0.287328" stroke-miterlimit="22.9256"/>
<path d="M346.271 130.36H335.68" stroke="#5CB800" stroke-width="0.287328" stroke-miterlimit="22.9256"/>
<path d="M334.09 131.951V143.07" stroke="#5CB800" stroke-width="0.287328" stroke-miterlimit="22.9256"/>
<path d="M335.68 144.125H346.271" stroke="#5CB800" stroke-width="0.287328" stroke-miterlimit="22.9256"/>
<path d="M347.862 143.07V131.951" stroke="#5CB800" stroke-width="0.287328" stroke-miterlimit="22.9256"/>
<path d="M335.947 130.36C335.219 130.36 334.624 130.955 334.624 131.683" stroke="#5CB800" stroke-width="0.287328" stroke-miterlimit="22.9256"/>
<path d="M334.624 142.802C334.624 143.531 335.219 144.125 335.947 144.125" stroke="#5CB800" stroke-width="0.287328" stroke-miterlimit="22.9256"/>
<path d="M347.861 131.683C347.861 130.948 347.267 130.36 346.538 130.36" stroke="#5CB800" stroke-width="0.287328" stroke-miterlimit="22.9256"/>
<path d="M346.538 144.125C347.267 144.125 347.861 143.531 347.861 142.802" stroke="#5CB800" stroke-width="0.287328" stroke-miterlimit="22.9256"/>
<path d="M335.947 96.4688C335.219 96.4688 334.624 97.0635 334.624 97.7918" stroke="#5CB800" stroke-width="0.287328" stroke-miterlimit="22.9256"/>
<path d="M347.861 97.7918C347.861 97.0635 347.267 96.4688 346.538 96.4688" stroke="#5CB800" stroke-width="0.287328" stroke-miterlimit="22.9256"/>
<path d="M334.624 122.155C334.624 122.883 335.219 123.478 335.947 123.478" stroke="#5CB800" stroke-width="0.287328" stroke-miterlimit="22.9256"/>
<path d="M346.538 123.478C347.267 123.478 347.861 122.883 347.861 122.155" stroke="#5CB800" stroke-width="0.287328" stroke-miterlimit="22.9256"/>
<path d="M346.271 96.4688H335.68" stroke="#5CB800" stroke-width="0.287328" stroke-miterlimit="22.9256"/>
<path d="M334.09 98.0591V122.415" stroke="#5CB800" stroke-width="0.287328" stroke-miterlimit="22.9256"/>
<path d="M335.68 124.005H346.271" stroke="#5CB800" stroke-width="0.287328" stroke-miterlimit="22.9256"/>
<path d="M347.862 122.415V98.0591" stroke="#5CB800" stroke-width="0.287328" stroke-miterlimit="22.9256"/>
<path d="M354.744 151.014V69.46H327.207V151.014H354.744Z" stroke="#5CB800" stroke-width="0.287328" stroke-miterlimit="22.9256"/>
<path d="M334.09 77.4048V88.5237" stroke="#5CB800" stroke-width="0.287328" stroke-miterlimit="22.9256"/>
<path d="M335.68 89.5864H346.271" stroke="#5CB800" stroke-width="0.287328" stroke-miterlimit="22.9256"/>
<path d="M347.862 88.5237V77.4048" stroke="#5CB800" stroke-width="0.287328" stroke-miterlimit="22.9256"/>
<path d="M346.271 76.3491H335.68" stroke="#5CB800" stroke-width="0.287328" stroke-miterlimit="22.9256"/>
<path d="M335.947 75.8145C335.219 75.8145 334.624 76.4092 334.624 77.1375" stroke="#5CB800" stroke-width="0.287328" stroke-miterlimit="22.9256"/>
<path d="M334.624 88.2632C334.624 88.9982 335.219 89.5862 335.947 89.5862" stroke="#5CB800" stroke-width="0.287328" stroke-miterlimit="22.9256"/>
<path d="M347.861 77.1375C347.861 76.4092 347.267 75.8145 346.538 75.8145" stroke="#5CB800" stroke-width="0.287328" stroke-miterlimit="22.9256"/>
<path d="M346.538 89.5862C347.267 89.5862 347.861 88.9915 347.861 88.2632" stroke="#5CB800" stroke-width="0.287328" stroke-miterlimit="22.9256"/>
<path d="M346.271 130.36H335.68" stroke="#5CB800" stroke-width="0.287328" stroke-miterlimit="22.9256"/>
<path d="M334.09 131.951V143.07" stroke="#5CB800" stroke-width="0.287328" stroke-miterlimit="22.9256"/>
<path d="M335.68 144.125H346.271" stroke="#5CB800" stroke-width="0.287328" stroke-miterlimit="22.9256"/>
<path d="M347.862 143.07V131.951" stroke="#5CB800" stroke-width="0.287328" stroke-miterlimit="22.9256"/>
<path d="M335.947 130.36C335.219 130.36 334.624 130.955 334.624 131.683" stroke="#5CB800" stroke-width="0.287328" stroke-miterlimit="22.9256"/>
<path d="M334.624 142.802C334.624 143.531 335.219 144.125 335.947 144.125" stroke="#5CB800" stroke-width="0.287328" stroke-miterlimit="22.9256"/>
<path d="M347.861 131.683C347.861 130.948 347.267 130.36 346.538 130.36" stroke="#5CB800" stroke-width="0.287328" stroke-miterlimit="22.9256"/>
<path d="M346.538 144.125C347.267 144.125 347.861 143.531 347.861 142.802" stroke="#5CB800" stroke-width="0.287328" stroke-miterlimit="22.9256"/>
<path d="M335.947 96.4688C335.219 96.4688 334.624 97.0635 334.624 97.7918" stroke="#5CB800" stroke-width="0.287328" stroke-miterlimit="22.9256"/>
<path d="M347.861 97.7918C347.861 97.0635 347.267 96.4688 346.538 96.4688" stroke="#5CB800" stroke-width="0.287328" stroke-miterlimit="22.9256"/>
<path d="M334.624 122.155C334.624 122.883 335.219 123.478 335.947 123.478" stroke="#5CB800" stroke-width="0.287328" stroke-miterlimit="22.9256"/>
<path d="M346.538 123.478C347.267 123.478 347.861 122.883 347.861 122.155" stroke="#5CB800" stroke-width="0.287328" stroke-miterlimit="22.9256"/>
<path d="M346.271 96.4688H335.68" stroke="#5CB800" stroke-width="0.287328" stroke-miterlimit="22.9256"/>
<path d="M334.09 98.0591V122.415" stroke="#5CB800" stroke-width="0.287328" stroke-miterlimit="22.9256"/>
<path d="M335.68 124.005H346.271" stroke="#5CB800" stroke-width="0.287328" stroke-miterlimit="22.9256"/>
<path d="M347.862 122.415V98.0591" stroke="#5CB800" stroke-width="0.287328" stroke-miterlimit="22.9256"/>
<path d="M346.271 144.125L336.736 140.424L334.09 131.951" stroke="#5CB800" stroke-width="0.287328" stroke-miterlimit="22.9256"/>
<path d="M346.271 124.005L336.736 119.241L334.09 98.0591" stroke="#5CB800" stroke-width="0.287328" stroke-miterlimit="22.9256"/>
<path d="M346.271 89.5862L336.736 85.8776L334.09 77.4048" stroke="#5CB800" stroke-width="0.287328" stroke-miterlimit="22.9256"/>
<path d="M68.7856 38.749V45.6315H75.6682L68.7856 38.749ZM68.7856 45.6315H75.6682L68.7856 86.4054V45.6315Z" fill="black"/>
<path d="M68.7856 45.6315V38.749L75.6682 45.6315M68.7856 45.6315H75.6682M68.7856 45.6315V86.4054L75.6682 45.6315" stroke="black" stroke-width="0.287328" stroke-miterlimit="22.9256"/>
<path d="M68.7856 38.749H116.449L75.6748 45.6315L68.7856 38.749Z" fill="black"/>
<path d="M68.7856 38.749H116.449L75.6748 45.6315L68.7856 38.749Z" stroke="black" stroke-width="0.287328" stroke-miterlimit="22.9256"/>
<path d="M68.7856 38.749H116.449L75.6748 45.6315L68.7856 86.4054V38.749ZM68.7856 38.749H116.449V86.4054H68.7856V38.749Z" stroke="black" stroke-width="0.287328" stroke-miterlimit="22.9256"/>
<path d="M68.7856 38.749H116.449V86.4054H68.7856V38.749Z" stroke="black" stroke-width="0.287328" stroke-miterlimit="22.9256"/>
</g>
<defs>
<clipPath id="clip0_9_4896">
<rect width="484.43" height="519.67" fill="white"/>
</clipPath>
</defs>
</svg>
