<svg width="635" height="634" viewBox="0 0 635 634" fill="none" xmlns="http://www.w3.org/2000/svg">
<path d="M259.662 0.535645H119.863V122.861H259.662V0.535645Z" fill="#7AAFDF" stroke="#2B2A29" stroke-width="0.754874" stroke-miterlimit="22.9256"/>
<path d="M490.546 149.868H592.75H572.629H490.551H490.546Z" stroke="#7AAFDF" stroke-width="0.285628" stroke-miterlimit="22.9256"/>
<path d="M497.432 177.406H525.5" stroke="#7AAFDF" stroke-width="0.285628" stroke-miterlimit="22.9256"/>
<path d="M388.873 395.049H14.4861V615.87H116.685V592.04H123.576L123.57 544.381H150.578V592.04H157.463V598.921H388.873V462.829H395.759V598.921H484.191V612.692H504.313V626.459H572.624V612.692L592.75 612.427V592.04H606.516V395.049H551.972V388.163H606.516V156.754H497.432V388.163H504.313V395.049H484.191V388.163H490.546V149.868H592.75V115.975H606.516V13.7764H272.903V149.868H157.463V156.754H150.578V272.193H123.57V156.754H116.685V132.924H42.0186V388.163H402.114V395.049H395.759V401.93H388.873V395.049Z" fill="#7AAFDF" stroke="#2B2A29" stroke-width="0.953794" stroke-miterlimit="10" stroke-linecap="round"/>
<path d="M398.936 13.7764H439.71H398.936Z" stroke="black" stroke-width="0.285628" stroke-miterlimit="22.9256"/>
<path d="M119.863 119.153H28.2524V272.193" stroke="black" stroke-width="0.285628" stroke-miterlimit="22.9256"/>
<path d="M0.714844 381.278V422.056" stroke="black" stroke-width="0.285628" stroke-miterlimit="22.9256"/>
<path d="M119.863 132.924H42.0188V272.193" stroke="black" stroke-width="0.285628" stroke-miterlimit="22.9256"/>
<path d="M14.4861 401.93V422.056V395.049" stroke="black" stroke-width="0.285628" stroke-miterlimit="22.9256"/>
<path d="M0.714844 544.382V629.637" stroke="black" stroke-width="0.285628" stroke-miterlimit="22.9256"/>
<path d="M42.0187 272.193H28.2524" stroke="black" stroke-width="0.285628" stroke-miterlimit="22.9256"/>
<path d="M28.2524 272.193V381.278" stroke="#00BFFF" stroke-width="0.285628" stroke-miterlimit="22.9256"/>
<path d="M35.1382 381.278V272.193" stroke="#00BFFF" stroke-width="0.285628" stroke-miterlimit="22.9256"/>
<path d="M42.0188 272.193V381.278" stroke="#00BFFF" stroke-width="0.285628" stroke-miterlimit="22.9256"/>
<path d="M14.4862 544.382H0.714844" stroke="black" stroke-width="0.285628" stroke-miterlimit="22.9256"/>
<path d="M14.4862 422.056H0.714844" stroke="black" stroke-width="0.285628" stroke-miterlimit="22.9256"/>
<path d="M0.714844 422.056V544.381" stroke="#00BFFF" stroke-width="0.285628" stroke-miterlimit="22.9256"/>
<path d="M7.60059 544.381V422.056" stroke="#00BFFF" stroke-width="0.285628" stroke-miterlimit="22.9256"/>
<path d="M14.4861 422.056V544.381" stroke="#00BFFF" stroke-width="0.285628" stroke-miterlimit="22.9256"/>
<path d="M14.4861 544.382V615.87" stroke="black" stroke-width="0.285628" stroke-miterlimit="22.9256"/>
<path d="M42.0187 629.636H0.714844" stroke="black" stroke-width="0.285628" stroke-miterlimit="22.9256"/>
<path d="M357.633 612.692H364.513" stroke="#FF0000" stroke-width="0.285628" stroke-miterlimit="22.9256"/>
<path d="M375.107 612.692H442.887" stroke="#FF0000" stroke-width="0.285628" stroke-miterlimit="22.9256"/>
<path d="M452.951 612.692H459.831" stroke="#FF0000" stroke-width="0.285628" stroke-miterlimit="22.9256"/>
<path d="M620.283 119.153V0.535645" stroke="black" stroke-width="0.285628" stroke-miterlimit="22.9256"/>
<path d="M606.517 119.153V13.7764" stroke="black" stroke-width="0.285628" stroke-miterlimit="22.9256"/>
<path d="M388.873 395.049H14.4861" stroke="black" stroke-width="0.285628" stroke-miterlimit="22.9256"/>
<path d="M119.863 629.636H42.0188" stroke="black" stroke-width="0.285628" stroke-miterlimit="22.9256"/>
<path d="M470.425 626.459V612.692V618.415" stroke="black" stroke-width="0.285628" stroke-miterlimit="22.9256"/>
<path d="M337.506 388.164H361.335" stroke="black" stroke-width="0.285628" stroke-miterlimit="22.9256"/>
<path d="M119.862 615.87H14.4861" stroke="black" stroke-width="0.285628" stroke-miterlimit="22.9256"/>
<path d="M159.58 388.164H213.594" stroke="#008AB8" stroke-width="0.285628" stroke-miterlimit="22.9256"/>
<path d="M218.889 598.921H213.594" stroke="#008AB8" stroke-width="0.285628" stroke-miterlimit="22.9256"/>
<path d="M218.889 598.921H213.594" stroke="#008AB8" stroke-width="0.285628" stroke-miterlimit="22.9256"/>
<path d="M218.889 626.459H213.594" stroke="#008AB8" stroke-width="0.285628" stroke-miterlimit="22.9256"/>
<path d="M218.889 626.459H213.594" stroke="#008AB8" stroke-width="0.285628" stroke-miterlimit="22.9256"/>
<path d="M218.889 149.868H213.594" stroke="#008AB8" stroke-width="0.285628" stroke-miterlimit="22.9256"/>
<path d="M123.571 155.693L125.687 153.576" stroke="#FF0000" stroke-width="0.285628" stroke-miterlimit="22.9256"/>
<path d="M123.571 186.408L150.578 158.871" stroke="#FF0000" stroke-width="0.285628" stroke-miterlimit="22.9256"/>
<path d="M123.571 216.593L150.578 189.585" stroke="#FF0000" stroke-width="0.285628" stroke-miterlimit="22.9256"/>
<path d="M123.571 247.303L150.578 219.771" stroke="#FF0000" stroke-width="0.285628" stroke-miterlimit="22.9256"/>
<path d="M128.865 272.193L150.578 250.48" stroke="#FF0000" stroke-width="0.285628" stroke-miterlimit="22.9256"/>
<path d="M123.571 171.05L130.987 163.109" stroke="#FF0000" stroke-width="0.285628" stroke-miterlimit="22.9256"/>
<path d="M124.637 201.235C124.637 200.654 124.162 200.174 123.576 200.174C122.989 200.174 122.515 200.649 122.515 201.235C122.515 201.817 122.989 202.296 123.576 202.296C124.157 202.296 124.637 201.822 124.637 201.235Z" fill="#FF0000"/>
<path d="M123.576 201.235H124.637M124.637 201.235C124.637 200.654 124.162 200.174 123.576 200.174C122.989 200.174 122.515 200.649 122.515 201.235C122.515 201.817 122.989 202.296 123.576 202.296C124.157 202.296 124.637 201.822 124.637 201.235Z" stroke="black" stroke-width="0.285628" stroke-miterlimit="22.9256"/>
<path d="M127.279 197.527L146.344 178.467" stroke="#FF0000" stroke-width="0.285628" stroke-miterlimit="22.9256"/>
<path d="M151.108 174.759C151.108 174.177 150.634 173.698 150.047 173.698C149.461 173.698 148.986 174.172 148.986 174.759C148.986 175.34 149.461 175.82 150.047 175.82C150.629 175.82 151.108 175.345 151.108 174.759Z" fill="#FF0000"/>
<path d="M150.047 174.759H151.108M151.108 174.759C151.108 174.177 150.634 173.698 150.047 173.698C149.461 173.698 148.986 174.172 148.986 174.759C148.986 175.34 149.461 175.82 150.047 175.82C150.629 175.82 151.108 175.345 151.108 174.759Z" stroke="black" stroke-width="0.285628" stroke-miterlimit="22.9256"/>
<path d="M123.571 231.945L135.22 220.296" stroke="#FF0000" stroke-width="0.285628" stroke-miterlimit="22.9256"/>
<path d="M142.636 212.885L150.578 204.943" stroke="#FF0000" stroke-width="0.285628" stroke-miterlimit="22.9256"/>
<path d="M123.571 262.66V262.13" stroke="#FF0000" stroke-width="0.285628" stroke-miterlimit="22.9256"/>
<path d="M128.34 258.427C128.34 257.841 127.865 257.366 127.279 257.366C126.697 257.366 126.218 257.841 126.218 258.427C126.218 259.009 126.692 259.488 127.279 259.488C127.86 259.488 128.34 259.014 128.34 258.427Z" fill="#FF0000"/>
<path d="M127.279 258.427H128.34M128.34 258.427C128.34 257.841 127.865 257.366 127.279 257.366C126.697 257.366 126.218 257.841 126.218 258.427C126.218 259.009 126.692 259.488 127.279 259.488C127.86 259.488 128.34 259.014 128.34 258.427Z" stroke="black" stroke-width="0.285628" stroke-miterlimit="22.9256"/>
<path d="M130.987 254.719L150.047 235.653" stroke="#FF0000" stroke-width="0.285628" stroke-miterlimit="22.9256"/>
<path d="M146.344 270.077L150.578 265.838" stroke="#FF0000" stroke-width="0.285628" stroke-miterlimit="22.9256"/>
<path d="M123.571 153.576H150.578V272.193H123.571V153.576Z" stroke="#FF0000" stroke-width="0.285628" stroke-miterlimit="22.9256"/>
<path d="M123.571 547.029L125.687 544.382" stroke="#FF0000" stroke-width="0.285628" stroke-miterlimit="22.9256"/>
<path d="M123.571 577.214L150.578 550.207" stroke="#FF0000" stroke-width="0.285628" stroke-miterlimit="22.9256"/>
<path d="M135.75 595.744L150.578 580.917" stroke="#FF0000" stroke-width="0.285628" stroke-miterlimit="22.9256"/>
<path d="M123.571 561.856L130.987 554.44" stroke="#FF0000" stroke-width="0.285628" stroke-miterlimit="22.9256"/>
<path d="M136.286 550.737C136.286 550.15 135.812 549.676 135.225 549.676C134.639 549.676 134.164 550.15 134.164 550.737C134.164 551.318 134.639 551.798 135.225 551.798C135.807 551.798 136.286 551.323 136.286 550.737Z" fill="#FF0000"/>
<path d="M135.225 550.737H136.286M136.286 550.737C136.286 550.15 135.812 549.676 135.225 549.676C134.639 549.676 134.164 550.15 134.164 550.737C134.164 551.318 134.639 551.798 135.225 551.798C135.807 551.798 136.286 551.323 136.286 550.737Z" stroke="black" stroke-width="0.285628" stroke-miterlimit="22.9256"/>
<path d="M124.637 592.566C124.637 591.984 124.162 591.505 123.576 591.505C122.989 591.505 122.515 591.979 122.515 592.566C122.515 593.147 122.989 593.627 123.576 593.627C124.157 593.627 124.637 593.152 124.637 592.566Z" fill="#FF0000"/>
<path d="M123.576 592.566H124.637M124.637 592.566C124.637 591.984 124.162 591.505 123.576 591.505C122.989 591.505 122.515 591.979 122.515 592.566C122.515 593.147 122.989 593.627 123.576 593.627C124.157 593.627 124.637 593.152 124.637 592.566Z" stroke="black" stroke-width="0.285628" stroke-miterlimit="22.9256"/>
<path d="M127.279 588.863L146.344 569.797" stroke="#FF0000" stroke-width="0.285628" stroke-miterlimit="22.9256"/>
<path d="M151.108 565.559C151.108 564.977 150.634 564.498 150.047 564.498C149.461 564.498 148.986 564.972 148.986 565.559C148.986 566.14 149.461 566.62 150.047 566.62C150.629 566.62 151.108 566.145 151.108 565.559Z" fill="#FF0000"/>
<path d="M150.047 565.559H151.108M151.108 565.559C151.108 564.977 150.634 564.498 150.047 564.498C149.461 564.498 148.986 564.972 148.986 565.559C148.986 566.14 149.461 566.62 150.047 566.62C150.629 566.62 151.108 566.145 151.108 565.559Z" stroke="black" stroke-width="0.285628" stroke-miterlimit="22.9256"/>
<path d="M123.571 544.382H150.578V595.744H123.571V544.382Z" stroke="#FF0000" stroke-width="0.285628" stroke-miterlimit="22.9256"/>
<path d="M156.403 626.459L154.286 623.812" stroke="#FF0000" stroke-width="0.285628" stroke-miterlimit="22.9256"/>
<path d="M186.587 626.459L159.58 598.921" stroke="#FF0000" stroke-width="0.285628" stroke-miterlimit="22.9256"/>
<path d="M217.303 626.459L190.295 598.921" stroke="#FF0000" stroke-width="0.285628" stroke-miterlimit="22.9256"/>
<path d="M248.012 626.459L220.48 598.921" stroke="#FF0000" stroke-width="0.285628" stroke-miterlimit="22.9256"/>
<path d="M272.903 621.165L251.19 598.921" stroke="#FF0000" stroke-width="0.285628" stroke-miterlimit="22.9256"/>
<path d="M171.23 626.459L163.819 618.518" stroke="#FF0000" stroke-width="0.285628" stroke-miterlimit="22.9256"/>
<path d="M161.171 614.809C161.171 614.223 160.697 613.749 160.11 613.749C159.524 613.749 159.05 614.223 159.05 614.809C159.05 615.391 159.524 615.87 160.11 615.87C160.692 615.87 161.171 615.396 161.171 614.809Z" fill="#FF0000"/>
<path d="M160.11 614.809H161.171M161.171 614.809C161.171 614.223 160.697 613.749 160.11 613.749C159.524 613.749 159.05 614.223 159.05 614.809C159.05 615.391 159.524 615.87 160.11 615.87C160.692 615.87 161.171 615.396 161.171 614.809Z" stroke="black" stroke-width="0.285628" stroke-miterlimit="22.9256"/>
<path d="M155.872 611.101L154.286 608.984" stroke="#FF0000" stroke-width="0.285628" stroke-miterlimit="22.9256"/>
<path d="M203.006 625.929C203.006 625.342 202.531 624.868 201.945 624.868C201.363 624.868 200.884 625.342 200.884 625.929C200.884 626.51 201.358 626.99 201.945 626.99C202.526 626.99 203.006 626.515 203.006 625.929Z" fill="#FF0000"/>
<path d="M201.945 625.929H203.006M203.006 625.929C203.006 625.342 202.531 624.868 201.945 624.868C201.363 624.868 200.884 625.342 200.884 625.929C200.884 626.51 201.358 626.99 201.945 626.99C202.526 626.99 203.006 626.515 203.006 625.929Z" stroke="black" stroke-width="0.285628" stroke-miterlimit="22.9256"/>
<path d="M198.237 622.22L179.176 603.16" stroke="#FF0000" stroke-width="0.285628" stroke-miterlimit="22.9256"/>
<path d="M175.999 599.452C175.999 598.865 175.524 598.391 174.938 598.391C174.351 598.391 173.877 598.865 173.877 599.452C173.877 600.033 174.351 600.512 174.938 600.512C175.519 600.512 175.999 600.038 175.999 599.452Z" fill="#FF0000"/>
<path d="M174.938 599.452H175.999M175.999 599.452C175.999 598.865 175.524 598.391 174.938 598.391C174.351 598.391 173.877 598.865 173.877 599.452C173.877 600.033 174.351 600.512 174.938 600.512C175.519 600.512 175.999 600.038 175.999 599.452Z" stroke="black" stroke-width="0.285628" stroke-miterlimit="22.9256"/>
<path d="M232.655 626.459L221.005 614.81" stroke="#FF0000" stroke-width="0.285628" stroke-miterlimit="22.9256"/>
<path d="M218.364 611.101C218.364 610.52 217.889 610.041 217.303 610.041C216.716 610.041 216.242 610.515 216.242 611.101C216.242 611.683 216.716 612.162 217.303 612.162C217.884 612.162 218.364 611.688 218.364 611.101Z" fill="#FF0000"/>
<path d="M217.303 611.101H218.364M218.364 611.101C218.364 610.52 217.889 610.041 217.303 610.041C216.716 610.041 216.242 610.515 216.242 611.101C216.242 611.683 216.716 612.162 217.303 612.162C217.884 612.162 218.364 611.688 218.364 611.101Z" stroke="black" stroke-width="0.285628" stroke-miterlimit="22.9256"/>
<path d="M213.594 606.868L205.123 598.921" stroke="#FF0000" stroke-width="0.285628" stroke-miterlimit="22.9256"/>
<path d="M263.37 626.459L262.84 625.928" stroke="#FF0000" stroke-width="0.285628" stroke-miterlimit="22.9256"/>
<path d="M260.198 622.22C260.198 621.639 259.723 621.159 259.137 621.159C258.555 621.159 258.076 621.634 258.076 622.22C258.076 622.802 258.55 623.281 259.137 623.281C259.718 623.281 260.198 622.807 260.198 622.22Z" fill="#FF0000"/>
<path d="M259.137 622.22H260.198M260.198 622.22C260.198 621.639 259.723 621.159 259.137 621.159C258.555 621.159 258.076 621.634 258.076 622.22C258.076 622.802 258.55 623.281 259.137 623.281C259.718 623.281 260.198 622.807 260.198 622.22Z" stroke="black" stroke-width="0.285628" stroke-miterlimit="22.9256"/>
<path d="M255.429 618.517L236.363 599.452" stroke="#FF0000" stroke-width="0.285628" stroke-miterlimit="22.9256"/>
<path d="M270.786 603.16L266.548 598.921" stroke="#FF0000" stroke-width="0.285628" stroke-miterlimit="22.9256"/>
<path d="M154.286 626.459V598.921H272.903V626.459H154.286Z" stroke="#FF0000" stroke-width="0.285628" stroke-miterlimit="22.9256"/>
<path d="M156.403 149.868L154.286 147.751" stroke="#FF0000" stroke-width="0.285628" stroke-miterlimit="22.9256"/>
<path d="M186.587 149.868L159.58 122.861" stroke="#FF0000" stroke-width="0.285628" stroke-miterlimit="22.9256"/>
<path d="M217.303 149.868L190.295 122.861" stroke="#FF0000" stroke-width="0.285628" stroke-miterlimit="22.9256"/>
<path d="M248.012 149.868L220.48 122.861" stroke="#FF0000" stroke-width="0.285628" stroke-miterlimit="22.9256"/>
<path d="M272.903 144.574L251.19 122.861" stroke="#FF0000" stroke-width="0.285628" stroke-miterlimit="22.9256"/>
<path d="M171.23 149.868L163.819 142.457" stroke="#FF0000" stroke-width="0.285628" stroke-miterlimit="22.9256"/>
<path d="M161.171 138.219C161.171 137.632 160.697 137.158 160.11 137.158C159.524 137.158 159.05 137.632 159.05 138.219C159.05 138.8 159.524 139.28 160.11 139.28C160.692 139.28 161.171 138.805 161.171 138.219Z" fill="#FF0000"/>
<path d="M160.11 138.219H161.171M161.171 138.219C161.171 137.632 160.697 137.158 160.11 137.158C159.524 137.158 159.05 137.632 159.05 138.219C159.05 138.8 159.524 139.28 160.11 139.28C160.692 139.28 161.171 138.805 161.171 138.219Z" stroke="black" stroke-width="0.285628" stroke-miterlimit="22.9256"/>
<path d="M155.872 134.51L154.286 132.394" stroke="#FF0000" stroke-width="0.285628" stroke-miterlimit="22.9256"/>
<path d="M203.006 149.868C203.006 149.287 202.531 148.807 201.945 148.807C201.363 148.807 200.884 149.281 200.884 149.868C200.884 150.449 201.358 150.929 201.945 150.929C202.526 150.929 203.006 150.455 203.006 149.868Z" fill="#FF0000"/>
<path d="M201.945 149.868H203.006M203.006 149.868C203.006 149.287 202.531 148.807 201.945 148.807C201.363 148.807 200.884 149.281 200.884 149.868C200.884 150.449 201.358 150.929 201.945 150.929C202.526 150.929 203.006 150.455 203.006 149.868Z" stroke="black" stroke-width="0.285628" stroke-miterlimit="22.9256"/>
<path d="M198.237 146.16L179.176 127.1" stroke="#FF0000" stroke-width="0.285628" stroke-miterlimit="22.9256"/>
<path d="M175.999 123.391C175.999 122.805 175.524 122.331 174.938 122.331C174.351 122.331 173.877 122.805 173.877 123.391C173.877 123.973 174.351 124.452 174.938 124.452C175.519 124.452 175.999 123.978 175.999 123.391Z" fill="#FF0000"/>
<path d="M174.938 123.391H175.999M175.999 123.391C175.999 122.805 175.524 122.331 174.938 122.331C174.351 122.331 173.877 122.805 173.877 123.391C173.877 123.973 174.351 124.452 174.938 124.452C175.519 124.452 175.999 123.978 175.999 123.391Z" stroke="black" stroke-width="0.285628" stroke-miterlimit="22.9256"/>
<path d="M232.655 149.868L221.005 138.219" stroke="#FF0000" stroke-width="0.285628" stroke-miterlimit="22.9256"/>
<path d="M218.364 134.511C218.364 133.924 217.889 133.45 217.303 133.45C216.716 133.45 216.242 133.924 216.242 134.511C216.242 135.092 216.716 135.572 217.303 135.572C217.884 135.572 218.364 135.097 218.364 134.511Z" fill="#FF0000"/>
<path d="M217.303 134.511H218.364M218.364 134.511C218.364 133.924 217.889 133.45 217.303 133.45C216.716 133.45 216.242 133.924 216.242 134.511C216.242 135.092 216.716 135.572 217.303 135.572C217.884 135.572 218.364 135.097 218.364 134.511Z" stroke="black" stroke-width="0.285628" stroke-miterlimit="22.9256"/>
<path d="M213.594 130.807L205.123 122.861" stroke="#FF0000" stroke-width="0.285628" stroke-miterlimit="22.9256"/>
<path d="M263.37 149.868H262.84" stroke="#FF0000" stroke-width="0.285628" stroke-miterlimit="22.9256"/>
<path d="M260.198 146.16C260.198 145.579 259.723 145.099 259.137 145.099C258.555 145.099 258.076 145.573 258.076 146.16C258.076 146.741 258.55 147.221 259.137 147.221C259.718 147.221 260.198 146.747 260.198 146.16Z" fill="#FF0000"/>
<path d="M259.137 146.16H260.198M260.198 146.16C260.198 145.579 259.723 145.099 259.137 145.099C258.555 145.099 258.076 145.573 258.076 146.16C258.076 146.741 258.55 147.221 259.137 147.221C259.718 147.221 260.198 146.747 260.198 146.16Z" stroke="black" stroke-width="0.285628" stroke-miterlimit="22.9256"/>
<path d="M255.429 142.457L236.363 123.392" stroke="#FF0000" stroke-width="0.285628" stroke-miterlimit="22.9256"/>
<path d="M270.786 127.099L266.548 122.861" stroke="#FF0000" stroke-width="0.285628" stroke-miterlimit="22.9256"/>
<path d="M154.286 149.868V122.861H272.903V149.868H154.286Z" stroke="#FF0000" stroke-width="0.285628" stroke-miterlimit="22.9256"/>
<path d="M259.662 13.7765V0.535645H620.288" stroke="black" stroke-width="0.285628" stroke-miterlimit="22.9256"/>
<path d="M606.517 13.7764H272.903H453.476" stroke="black" stroke-width="0.285628" stroke-miterlimit="22.9256"/>
<path d="M119.863 119.153V0.535645H259.662" stroke="#0000FF" stroke-width="0.285628" stroke-miterlimit="22.9256"/>
<path d="M259.662 13.7764H272.903" stroke="black" stroke-width="0.285628" stroke-miterlimit="22.9256"/>
<path d="M259.662 122.861V13.7764" stroke="#00BFFF" stroke-width="0.285628" stroke-miterlimit="22.9256"/>
<path d="M272.903 13.7764V122.861" stroke="#00BFFF" stroke-width="0.285628" stroke-miterlimit="22.9256"/>
<path d="M266.017 13.7764V122.861" stroke="#00BFFF" stroke-width="0.285628" stroke-miterlimit="22.9256"/>
<path d="M388.873 388.164H42.0188" stroke="black" stroke-width="0.285628" stroke-miterlimit="22.9256"/>
<path d="M28.2524 381.278H0.714844" stroke="black" stroke-width="0.285628" stroke-miterlimit="22.9256"/>
<path d="M606.517 53.4893V58.7887" stroke="#008AB8" stroke-width="0.285628" stroke-miterlimit="22.9256"/>
<path d="M272.903 54.5498V58.7883" stroke="#008AB8" stroke-width="0.285628" stroke-miterlimit="22.9256"/>
<path d="M490.546 173.698V218.71" stroke="#008AB8" stroke-width="0.285628" stroke-miterlimit="22.9256"/>
<path d="M42.0188 196.466V201.766" stroke="#008AB8" stroke-width="0.285628" stroke-miterlimit="22.9256"/>
<path d="M456.654 612.692H366.635" stroke="#008AB8" stroke-width="0.285628" stroke-miterlimit="22.9256"/>
<path d="M272.903 598.921H388.873" stroke="black" stroke-width="0.285628" stroke-miterlimit="22.9256"/>
<path d="M395.759 598.921H484.191" stroke="black" stroke-width="0.285628" stroke-miterlimit="22.9256"/>
<path d="M272.903 612.692H324.27" stroke="black" stroke-width="0.285628" stroke-miterlimit="22.9256"/>
<path d="M293.555 612.692H337.22" stroke="black" stroke-width="0.285628" stroke-miterlimit="22.9256"/>
<path d="M334.328 612.692H470.425" stroke="black" stroke-width="0.285628" stroke-miterlimit="22.9256"/>
<path d="M484.191 598.921V612.693" stroke="black" stroke-width="0.285628" stroke-miterlimit="22.9256"/>
<path d="M497.432 388.164V156.754" stroke="black" stroke-width="0.285628" stroke-miterlimit="22.9256"/>
<path d="M606.517 595.744V395.049" stroke="black" stroke-width="0.285628" stroke-miterlimit="22.9256"/>
<path d="M606.517 388.164V156.754" stroke="black" stroke-width="0.285628" stroke-miterlimit="22.9256"/>
<path d="M620.283 595.744V395.049" stroke="black" stroke-width="0.285628" stroke-miterlimit="22.9256"/>
<path d="M620.283 395.049V156.754" stroke="black" stroke-width="0.285628" stroke-miterlimit="22.9256"/>
<path d="M592.75 156.754H497.432" stroke="black" stroke-width="0.285628" stroke-miterlimit="22.9256"/>
<path d="M592.75 149.868H490.546" stroke="black" stroke-width="0.285628" stroke-miterlimit="22.9256"/>
<path d="M395.759 598.921V462.83" stroke="black" stroke-width="0.285628" stroke-miterlimit="22.9256"/>
<path d="M395.759 395.049V401.93V395.049Z" stroke="black" stroke-width="0.285628" stroke-miterlimit="22.9256"/>
<path d="M388.873 598.921V462.83" stroke="black" stroke-width="0.285628" stroke-miterlimit="22.9256"/>
<path d="M388.873 401.93V395.049" stroke="black" stroke-width="0.285628" stroke-miterlimit="22.9256"/>
<path d="M388.873 401.93V395.049" stroke="black" stroke-width="0.285628" stroke-miterlimit="22.9256"/>
<path d="M490.546 388.164V149.868" stroke="black" stroke-width="0.285628" stroke-miterlimit="22.9256"/>
<path d="M395.759 395.049H402.114" stroke="black" stroke-width="0.285628" stroke-miterlimit="22.9256"/>
<path d="M388.873 388.164H402.114" stroke="black" stroke-width="0.285628" stroke-miterlimit="22.9256"/>
<path d="M490.546 388.164H484.191H490.546Z" stroke="black" stroke-width="0.285628" stroke-miterlimit="22.9256"/>
<path d="M484.191 388.164V395.049" stroke="black" stroke-width="0.285628" stroke-miterlimit="22.9256"/>
<path d="M402.114 388.164V395.049" stroke="black" stroke-width="0.285628" stroke-miterlimit="22.9256"/>
<path d="M388.873 401.93H395.759" stroke="black" stroke-width="0.285628" stroke-miterlimit="22.9256"/>
<path d="M388.873 462.83H395.759" stroke="black" stroke-width="0.285628" stroke-miterlimit="22.9256"/>
<path d="M28.2524 381.278H42.0187V388.164" stroke="black" stroke-width="0.285628" stroke-miterlimit="22.9256"/>
<path d="M557.271 156.754H551.972" stroke="#008AB8" stroke-width="0.285628" stroke-miterlimit="22.9256"/>
<path d="M557.271 149.868H551.972" stroke="#008AB8" stroke-width="0.285628" stroke-miterlimit="22.9256"/>
<path d="M606.516 395.049H551.972" stroke="black" stroke-width="0.285628" stroke-miterlimit="22.9256"/>
<path d="M504.313 395.049H484.191" stroke="black" stroke-width="0.285628" stroke-miterlimit="22.9256"/>
<path d="M606.516 388.164H551.972" stroke="black" stroke-width="0.285628" stroke-miterlimit="22.9256"/>
<path d="M592.75 626.459H572.624" stroke="black" stroke-width="0.285628" stroke-miterlimit="22.9256"/>
<path d="M504.313 626.459H470.425" stroke="black" stroke-width="0.285628" stroke-miterlimit="22.9256"/>
<path d="M592.75 612.692H572.624" stroke="black" stroke-width="0.285628" stroke-miterlimit="22.9256"/>
<path d="M504.313 612.692H484.191" stroke="black" stroke-width="0.285628" stroke-miterlimit="22.9256"/>
<path d="M504.313 612.692V626.459" stroke="black" stroke-width="0.285628" stroke-miterlimit="22.9256"/>
<path d="M572.624 612.692V626.459" stroke="black" stroke-width="0.285628" stroke-miterlimit="22.9256"/>
<path d="M551.972 388.164V395.049" stroke="black" stroke-width="0.285628" stroke-miterlimit="22.9256"/>
<path d="M497.432 388.164H504.313V395.049" stroke="black" stroke-width="0.285628" stroke-miterlimit="22.9256"/>
<path d="M504.313 626.459H572.624" stroke="black" stroke-width="0.285628" stroke-miterlimit="22.9256"/>
<path d="M620.283 632.814H613.402" stroke="black" stroke-width="0.285628" stroke-miterlimit="22.9256"/>
<path d="M116.685 632.814H157.463" stroke="black" stroke-width="0.285628" stroke-miterlimit="22.9256"/>
<path d="M157.463 592.041H116.69L157.463 632.814V592.041ZM116.69 592.041L157.463 632.814H116.69V592.041Z" fill="#0000FF"/>
<path d="M116.69 592.041H157.463V632.814M116.69 592.041L157.463 632.814M116.69 592.041V632.814H157.463" stroke="#0000FF" stroke-width="0.285628" stroke-miterlimit="22.9256"/>
<path d="M157.463 592.041H116.685V632.814H157.463V592.041Z" stroke="black" stroke-width="0.285628" stroke-miterlimit="22.9256"/>
<path d="M116.685 632.814L157.463 592.041" stroke="black" stroke-width="0.285628" stroke-miterlimit="22.9256"/>
<path d="M157.463 632.814L116.685 592.041" stroke="black" stroke-width="0.285628" stroke-miterlimit="22.9256"/>
<path d="M592.75 632.814H633.524" stroke="black" stroke-width="0.285628" stroke-miterlimit="22.9256"/>
<path d="M633.524 592.041H592.75L633.524 632.814V592.041ZM592.75 592.041L633.524 632.814H592.75V592.041Z" fill="#0000FF"/>
<path d="M592.75 592.041H633.524V632.814M592.75 592.041L633.524 632.814M592.75 592.041V632.814H633.524" stroke="#0000FF" stroke-width="0.285628" stroke-miterlimit="22.9256"/>
<path d="M633.524 592.041H592.75V632.814H633.524V592.041Z" stroke="black" stroke-width="0.285628" stroke-miterlimit="22.9256"/>
<path d="M592.75 632.814L633.524 592.041" stroke="black" stroke-width="0.285628" stroke-miterlimit="22.9256"/>
<path d="M633.524 632.814L592.75 592.041" stroke="black" stroke-width="0.285628" stroke-miterlimit="22.9256"/>
<path d="M116.685 156.754H157.463" stroke="black" stroke-width="0.285628" stroke-miterlimit="22.9256"/>
<path d="M157.463 115.975H116.69L157.463 156.748V115.975ZM116.69 115.975L157.463 156.748H116.69V115.975Z" fill="#0000FF"/>
<path d="M116.69 115.975H157.463V156.748M116.69 115.975L157.463 156.748M116.69 115.975V156.748H157.463" stroke="#0000FF" stroke-width="0.285628" stroke-miterlimit="22.9256"/>
<path d="M157.463 115.975H116.685V156.754H157.463V115.975Z" stroke="black" stroke-width="0.285628" stroke-miterlimit="22.9256"/>
<path d="M116.685 156.754L157.463 115.975" stroke="black" stroke-width="0.285628" stroke-miterlimit="22.9256"/>
<path d="M157.463 156.754L116.685 115.975" stroke="black" stroke-width="0.285628" stroke-miterlimit="22.9256"/>
<path d="M592.75 156.754H633.524" stroke="black" stroke-width="0.285628" stroke-miterlimit="22.9256"/>
<path d="M633.524 115.975H592.75L633.524 156.748V115.975ZM592.75 115.975L633.524 156.748H592.75V115.975Z" fill="#0000FF"/>
<path d="M592.75 115.975H633.524V156.748M592.75 115.975L633.524 156.748M592.75 115.975V156.748H633.524" stroke="#0000FF" stroke-width="0.285628" stroke-miterlimit="22.9256"/>
<path d="M633.524 115.975H592.75V156.754H633.524V115.975Z" stroke="black" stroke-width="0.285628" stroke-miterlimit="22.9256"/>
<path d="M592.75 156.754L633.524 115.975" stroke="black" stroke-width="0.285628" stroke-miterlimit="22.9256"/>
<path d="M633.524 156.754L592.75 115.975" stroke="black" stroke-width="0.285628" stroke-miterlimit="22.9256"/>
<path d="M490.546 149.868H572.624V177.406H490.546V149.868Z" stroke="#5CB800" stroke-width="0.285628" stroke-miterlimit="22.9256"/>
<path d="M564.152 170.52H553.563" stroke="#5CB800" stroke-width="0.285628" stroke-miterlimit="22.9256"/>
<path d="M551.972 168.934V158.34" stroke="#5CB800" stroke-width="0.285628" stroke-miterlimit="22.9256"/>
<path d="M553.563 156.754H564.152" stroke="#5CB800" stroke-width="0.285628" stroke-miterlimit="22.9256"/>
<path d="M565.743 158.34V168.934" stroke="#5CB800" stroke-width="0.285628" stroke-miterlimit="22.9256"/>
<path d="M564.417 169.99C565.146 169.99 565.738 169.398 565.738 168.664" stroke="#5CB800" stroke-width="0.285628" stroke-miterlimit="22.9256"/>
<path d="M552.502 168.668C552.502 169.398 553.094 169.995 553.828 169.995" stroke="#5CB800" stroke-width="0.285628" stroke-miterlimit="22.9256"/>
<path d="M565.743 158.075C565.743 157.345 565.151 156.749 564.422 156.749" stroke="#5CB800" stroke-width="0.285628" stroke-miterlimit="22.9256"/>
<path d="M553.828 156.754C553.099 156.754 552.502 157.346 552.502 158.08" stroke="#5CB800" stroke-width="0.285628" stroke-miterlimit="22.9256"/>
<path d="M511.198 158.34V168.934" stroke="#5CB800" stroke-width="0.285628" stroke-miterlimit="22.9256"/>
<path d="M509.612 170.52H499.018" stroke="#5CB800" stroke-width="0.285628" stroke-miterlimit="22.9256"/>
<path d="M497.432 168.934V158.34" stroke="#5CB800" stroke-width="0.285628" stroke-miterlimit="22.9256"/>
<path d="M499.018 156.754H509.612" stroke="#5CB800" stroke-width="0.285628" stroke-miterlimit="22.9256"/>
<path d="M509.872 169.99C510.602 169.99 511.198 169.398 511.198 168.664" stroke="#5CB800" stroke-width="0.285628" stroke-miterlimit="22.9256"/>
<path d="M497.958 168.668C497.958 169.398 498.549 169.995 499.284 169.995" stroke="#5CB800" stroke-width="0.285628" stroke-miterlimit="22.9256"/>
<path d="M511.198 158.075C511.198 157.345 510.607 156.749 509.872 156.749" stroke="#5CB800" stroke-width="0.285628" stroke-miterlimit="22.9256"/>
<path d="M499.284 156.754C498.554 156.754 497.958 157.346 497.958 158.08" stroke="#5CB800" stroke-width="0.285628" stroke-miterlimit="22.9256"/>
<path d="M544.295 169.99C545.025 169.99 545.622 169.398 545.622 168.664" stroke="#5CB800" stroke-width="0.285628" stroke-miterlimit="22.9256"/>
<path d="M545.617 158.075C545.617 157.345 545.025 156.749 544.291 156.749" stroke="#5CB800" stroke-width="0.285628" stroke-miterlimit="22.9256"/>
<path d="M518.084 168.668C518.084 169.398 518.676 169.995 519.41 169.995" stroke="#5CB800" stroke-width="0.285628" stroke-miterlimit="22.9256"/>
<path d="M519.405 156.754C518.676 156.754 518.079 157.346 518.079 158.08" stroke="#5CB800" stroke-width="0.285628" stroke-miterlimit="22.9256"/>
<path d="M545.091 158.34V168.934" stroke="#5CB800" stroke-width="0.285628" stroke-miterlimit="22.9256"/>
<path d="M544.03 170.52H519.14" stroke="#5CB800" stroke-width="0.285628" stroke-miterlimit="22.9256"/>
<path d="M518.084 168.934V158.34" stroke="#5CB800" stroke-width="0.285628" stroke-miterlimit="22.9256"/>
<path d="M519.14 156.754H544.03" stroke="#5CB800" stroke-width="0.285628" stroke-miterlimit="22.9256"/>
<path d="M490.546 149.868H572.624V177.406H490.546V149.868Z" stroke="#5CB800" stroke-width="0.285628" stroke-miterlimit="22.9256"/>
<path d="M564.152 170.52H553.563" stroke="#5CB800" stroke-width="0.285628" stroke-miterlimit="22.9256"/>
<path d="M551.972 168.934V158.34" stroke="#5CB800" stroke-width="0.285628" stroke-miterlimit="22.9256"/>
<path d="M553.563 156.754H564.152" stroke="#5CB800" stroke-width="0.285628" stroke-miterlimit="22.9256"/>
<path d="M565.743 158.34V168.934" stroke="#5CB800" stroke-width="0.285628" stroke-miterlimit="22.9256"/>
<path d="M564.417 169.99C565.146 169.99 565.738 169.398 565.738 168.664" stroke="#5CB800" stroke-width="0.285628" stroke-miterlimit="22.9256"/>
<path d="M552.502 168.668C552.502 169.398 553.094 169.995 553.828 169.995" stroke="#5CB800" stroke-width="0.285628" stroke-miterlimit="22.9256"/>
<path d="M565.743 158.075C565.743 157.345 565.151 156.749 564.422 156.749" stroke="#5CB800" stroke-width="0.285628" stroke-miterlimit="22.9256"/>
<path d="M553.828 156.754C553.099 156.754 552.502 157.346 552.502 158.08" stroke="#5CB800" stroke-width="0.285628" stroke-miterlimit="22.9256"/>
<path d="M511.198 158.34V168.934" stroke="#5CB800" stroke-width="0.285628" stroke-miterlimit="22.9256"/>
<path d="M509.612 170.52H499.018" stroke="#5CB800" stroke-width="0.285628" stroke-miterlimit="22.9256"/>
<path d="M497.432 168.934V158.34" stroke="#5CB800" stroke-width="0.285628" stroke-miterlimit="22.9256"/>
<path d="M499.018 156.754H509.612" stroke="#5CB800" stroke-width="0.285628" stroke-miterlimit="22.9256"/>
<path d="M509.872 169.99C510.602 169.99 511.198 169.398 511.198 168.664" stroke="#5CB800" stroke-width="0.285628" stroke-miterlimit="22.9256"/>
<path d="M497.958 168.668C497.958 169.398 498.549 169.995 499.284 169.995" stroke="#5CB800" stroke-width="0.285628" stroke-miterlimit="22.9256"/>
<path d="M511.198 158.075C511.198 157.345 510.607 156.749 509.872 156.749" stroke="#5CB800" stroke-width="0.285628" stroke-miterlimit="22.9256"/>
<path d="M499.284 156.754C498.554 156.754 497.958 157.346 497.958 158.08" stroke="#5CB800" stroke-width="0.285628" stroke-miterlimit="22.9256"/>
<path d="M544.295 169.99C545.025 169.99 545.622 169.398 545.622 168.664" stroke="#5CB800" stroke-width="0.285628" stroke-miterlimit="22.9256"/>
<path d="M545.617 158.075C545.617 157.345 545.025 156.749 544.291 156.749" stroke="#5CB800" stroke-width="0.285628" stroke-miterlimit="22.9256"/>
<path d="M518.084 168.668C518.084 169.398 518.676 169.995 519.41 169.995" stroke="#5CB800" stroke-width="0.285628" stroke-miterlimit="22.9256"/>
<path d="M519.405 156.754C518.676 156.754 518.079 157.346 518.079 158.08" stroke="#5CB800" stroke-width="0.285628" stroke-miterlimit="22.9256"/>
<path d="M545.091 158.34V168.934" stroke="#5CB800" stroke-width="0.285628" stroke-miterlimit="22.9256"/>
<path d="M544.03 170.52H519.14" stroke="#5CB800" stroke-width="0.285628" stroke-miterlimit="22.9256"/>
<path d="M518.084 168.934V158.34" stroke="#5CB800" stroke-width="0.285628" stroke-miterlimit="22.9256"/>
<path d="M519.14 156.754H544.03" stroke="#5CB800" stroke-width="0.285628" stroke-miterlimit="22.9256"/>
<path d="M497.432 158.34L501.666 167.873L509.612 170.52" stroke="#5CB800" stroke-width="0.285628" stroke-miterlimit="22.9256"/>
<path d="M518.084 158.34L522.317 167.873L544.03 170.52" stroke="#5CB800" stroke-width="0.285628" stroke-miterlimit="22.9256"/>
<path d="M551.972 158.34L556.21 167.873L564.152 170.52" stroke="#5CB800" stroke-width="0.285628" stroke-miterlimit="22.9256"/>
<path d="M585.865 88.9679V6.89062H613.402V88.9679H585.865Z" stroke="#5CB800" stroke-width="0.285628" stroke-miterlimit="22.9256"/>
<path d="M606.517 15.3628V25.9565" stroke="#5CB800" stroke-width="0.285628" stroke-miterlimit="22.9256"/>
<path d="M604.93 27.543H594.336" stroke="#5CB800" stroke-width="0.285628" stroke-miterlimit="22.9256"/>
<path d="M592.75 25.9565V15.3628" stroke="#5CB800" stroke-width="0.285628" stroke-miterlimit="22.9256"/>
<path d="M594.336 13.7764H604.93" stroke="#5CB800" stroke-width="0.285628" stroke-miterlimit="22.9256"/>
<path d="M606.517 15.0974C606.517 14.368 605.925 13.7764 605.19 13.7764" stroke="#5CB800" stroke-width="0.285628" stroke-miterlimit="22.9256"/>
<path d="M605.19 27.0122C605.925 27.0122 606.517 26.4205 606.517 25.686" stroke="#5CB800" stroke-width="0.285628" stroke-miterlimit="22.9256"/>
<path d="M594.602 13.7764C593.872 13.7764 593.276 14.368 593.276 15.0974" stroke="#5CB800" stroke-width="0.285628" stroke-miterlimit="22.9256"/>
<path d="M593.276 25.6914C593.276 26.4208 593.867 27.0175 594.602 27.0175" stroke="#5CB800" stroke-width="0.285628" stroke-miterlimit="22.9256"/>
<path d="M594.336 68.3164H604.93" stroke="#5CB800" stroke-width="0.285628" stroke-miterlimit="22.9256"/>
<path d="M606.517 69.9077V80.4964" stroke="#5CB800" stroke-width="0.285628" stroke-miterlimit="22.9256"/>
<path d="M604.93 82.0874H594.336" stroke="#5CB800" stroke-width="0.285628" stroke-miterlimit="22.9256"/>
<path d="M592.75 80.4964V69.9077" stroke="#5CB800" stroke-width="0.285628" stroke-miterlimit="22.9256"/>
<path d="M606.517 69.6425C606.517 68.9132 605.925 68.3164 605.19 68.3164" stroke="#5CB800" stroke-width="0.285628" stroke-miterlimit="22.9256"/>
<path d="M605.19 81.5571C605.925 81.5571 606.517 80.9654 606.517 80.231" stroke="#5CB800" stroke-width="0.285628" stroke-miterlimit="22.9256"/>
<path d="M594.602 68.3164C593.872 68.3164 593.276 68.9081 593.276 69.6425" stroke="#5CB800" stroke-width="0.285628" stroke-miterlimit="22.9256"/>
<path d="M593.276 80.231C593.276 80.9654 593.867 81.5571 594.602 81.5571" stroke="#5CB800" stroke-width="0.285628" stroke-miterlimit="22.9256"/>
<path d="M606.517 35.2241C606.517 34.4947 605.925 33.8979 605.19 33.8979" stroke="#5CB800" stroke-width="0.285628" stroke-miterlimit="22.9256"/>
<path d="M594.602 33.8979C593.872 33.8979 593.276 34.4896 593.276 35.2241" stroke="#5CB800" stroke-width="0.285628" stroke-miterlimit="22.9256"/>
<path d="M605.19 61.4355C605.925 61.4355 606.517 60.8438 606.517 60.1094" stroke="#5CB800" stroke-width="0.285628" stroke-miterlimit="22.9256"/>
<path d="M593.276 60.1094C593.276 60.8387 593.867 61.4355 594.602 61.4355" stroke="#5CB800" stroke-width="0.285628" stroke-miterlimit="22.9256"/>
<path d="M594.336 34.4287H604.93" stroke="#5CB800" stroke-width="0.285628" stroke-miterlimit="22.9256"/>
<path d="M606.517 35.4844V60.3748" stroke="#5CB800" stroke-width="0.285628" stroke-miterlimit="22.9256"/>
<path d="M604.93 61.4355H594.336" stroke="#5CB800" stroke-width="0.285628" stroke-miterlimit="22.9256"/>
<path d="M592.75 60.3748V35.4844" stroke="#5CB800" stroke-width="0.285628" stroke-miterlimit="22.9256"/>
<path d="M585.865 88.9679V6.89062H613.402V88.9679H585.865Z" stroke="#5CB800" stroke-width="0.285628" stroke-miterlimit="22.9256"/>
<path d="M606.517 15.3628V25.9565" stroke="#5CB800" stroke-width="0.285628" stroke-miterlimit="22.9256"/>
<path d="M604.93 27.543H594.336" stroke="#5CB800" stroke-width="0.285628" stroke-miterlimit="22.9256"/>
<path d="M592.75 25.9565V15.3628" stroke="#5CB800" stroke-width="0.285628" stroke-miterlimit="22.9256"/>
<path d="M594.336 13.7764H604.93" stroke="#5CB800" stroke-width="0.285628" stroke-miterlimit="22.9256"/>
<path d="M606.517 15.0974C606.517 14.368 605.925 13.7764 605.19 13.7764" stroke="#5CB800" stroke-width="0.285628" stroke-miterlimit="22.9256"/>
<path d="M605.19 27.0122C605.925 27.0122 606.517 26.4205 606.517 25.686" stroke="#5CB800" stroke-width="0.285628" stroke-miterlimit="22.9256"/>
<path d="M594.602 13.7764C593.872 13.7764 593.276 14.368 593.276 15.0974" stroke="#5CB800" stroke-width="0.285628" stroke-miterlimit="22.9256"/>
<path d="M593.276 25.6914C593.276 26.4208 593.867 27.0175 594.602 27.0175" stroke="#5CB800" stroke-width="0.285628" stroke-miterlimit="22.9256"/>
<path d="M594.336 68.3164H604.93" stroke="#5CB800" stroke-width="0.285628" stroke-miterlimit="22.9256"/>
<path d="M606.517 69.9077V80.4964" stroke="#5CB800" stroke-width="0.285628" stroke-miterlimit="22.9256"/>
<path d="M604.93 82.0874H594.336" stroke="#5CB800" stroke-width="0.285628" stroke-miterlimit="22.9256"/>
<path d="M592.75 80.4964V69.9077" stroke="#5CB800" stroke-width="0.285628" stroke-miterlimit="22.9256"/>
<path d="M606.517 69.6425C606.517 68.9132 605.925 68.3164 605.19 68.3164" stroke="#5CB800" stroke-width="0.285628" stroke-miterlimit="22.9256"/>
<path d="M605.19 81.5571C605.925 81.5571 606.517 80.9654 606.517 80.231" stroke="#5CB800" stroke-width="0.285628" stroke-miterlimit="22.9256"/>
<path d="M594.602 68.3164C593.872 68.3164 593.276 68.9081 593.276 69.6425" stroke="#5CB800" stroke-width="0.285628" stroke-miterlimit="22.9256"/>
<path d="M593.276 80.231C593.276 80.9654 593.867 81.5571 594.602 81.5571" stroke="#5CB800" stroke-width="0.285628" stroke-miterlimit="22.9256"/>
<path d="M606.517 35.2241C606.517 34.4947 605.925 33.8979 605.19 33.8979" stroke="#5CB800" stroke-width="0.285628" stroke-miterlimit="22.9256"/>
<path d="M594.602 33.8979C593.872 33.8979 593.276 34.4896 593.276 35.2241" stroke="#5CB800" stroke-width="0.285628" stroke-miterlimit="22.9256"/>
<path d="M605.19 61.4355C605.925 61.4355 606.517 60.8438 606.517 60.1094" stroke="#5CB800" stroke-width="0.285628" stroke-miterlimit="22.9256"/>
<path d="M593.276 60.1094C593.276 60.8387 593.867 61.4355 594.602 61.4355" stroke="#5CB800" stroke-width="0.285628" stroke-miterlimit="22.9256"/>
<path d="M594.336 34.4287H604.93" stroke="#5CB800" stroke-width="0.285628" stroke-miterlimit="22.9256"/>
<path d="M606.517 35.4844V60.3748" stroke="#5CB800" stroke-width="0.285628" stroke-miterlimit="22.9256"/>
<path d="M604.93 61.4355H594.336" stroke="#5CB800" stroke-width="0.285628" stroke-miterlimit="22.9256"/>
<path d="M592.75 60.3748V35.4844" stroke="#5CB800" stroke-width="0.285628" stroke-miterlimit="22.9256"/>
<path d="M594.336 82.0877L603.869 77.8492L606.516 69.9077" stroke="#5CB800" stroke-width="0.285628" stroke-miterlimit="22.9256"/>
<path d="M594.336 61.4357L603.869 57.1972L606.516 35.4844" stroke="#5CB800" stroke-width="0.285628" stroke-miterlimit="22.9256"/>
<path d="M594.336 27.5428L603.869 23.3094L606.516 15.3628" stroke="#5CB800" stroke-width="0.285628" stroke-miterlimit="22.9256"/>
<path d="M253.843 460.183L253.312 458.066L252.782 457.005L252.251 455.944L251.19 454.888H249.074L247.487 455.944L246.957 457.005L246.426 458.066L245.896 460.183L245.365 462.83V467.599L245.896 470.771L246.426 472.893L247.487 474.479L249.074 475.54H251.19L252.251 474.479L253.312 472.893L253.843 470.771" stroke="black" stroke-width="0.285628" stroke-miterlimit="22.9256"/>
<path d="M257.545 475.54V454.888H265.492V475.54" stroke="black" stroke-width="0.285628" stroke-miterlimit="22.9256"/>
<path d="M270.256 468.654H276.081" stroke="black" stroke-width="0.285628" stroke-miterlimit="22.9256"/>
<path d="M268.67 475.54L273.434 454.888L278.197 475.54" stroke="black" stroke-width="0.285628" stroke-miterlimit="22.9256"/>
<path d="M287.73 475.54V454.888H281.375V471.832L280.85 473.418L280.314 474.479L279.258 475.54" stroke="black" stroke-width="0.285628" stroke-miterlimit="22.9256"/>
<path d="M292.499 454.888V475.54H298.324L299.38 474.479L299.91 473.418L300.971 471.832V467.599L299.91 466.007L299.38 464.946L298.324 463.891H292.499" stroke="black" stroke-width="0.285628" stroke-miterlimit="22.9256"/>
<path d="M304.149 454.888V475.54" stroke="black" stroke-width="0.285628" stroke-miterlimit="22.9256"/>
<path d="M304.149 464.946H312.621" stroke="black" stroke-width="0.285628" stroke-miterlimit="22.9256"/>
<path d="M312.621 475.54V454.888" stroke="black" stroke-width="0.285628" stroke-miterlimit="22.9256"/>
<path d="M315.798 475.54L320.032 464.946" stroke="black" stroke-width="0.285628" stroke-miterlimit="22.9256"/>
<path d="M324.27 475.54V454.888H318.976L316.854 455.944L316.329 457.005L315.798 459.122V460.713L316.329 462.83L316.854 463.891L318.976 464.946H324.27" stroke="black" stroke-width="0.285628" stroke-miterlimit="22.9256"/>
<path d="M250.134 493.014L251.721 491.953L253.312 489.306V509.428" stroke="black" stroke-width="0.285628" stroke-miterlimit="22.9256"/>
<path d="M266.548 491.953L266.017 490.367L264.431 489.306H263.37L261.253 490.367L260.193 493.014L259.662 497.778V502.547L260.193 506.78L261.253 508.372L263.37 509.428H263.901L265.492 508.372L266.548 506.78L267.078 503.603V502.547L266.548 499.9L265.492 497.778L263.901 496.722H263.37L261.253 497.778L260.193 499.9L259.662 502.547" stroke="black" stroke-width="0.285628" stroke-miterlimit="22.9256"/>
<path d="M272.373 508.372L271.842 509.428L271.317 508.372L271.842 507.842L272.373 508.372ZM272.373 508.372V510.489L271.842 512.606L271.317 513.667" stroke="black" stroke-width="0.285628" stroke-miterlimit="22.9256"/>
<path d="M279.789 489.306L278.197 490.367L277.672 491.953V494.07L278.197 496.192L279.258 496.722L281.905 497.778L283.492 498.839L284.553 500.956L285.083 502.547V505.725L284.553 507.841L284.022 508.372L282.436 509.428H279.789L278.197 508.372L277.672 507.841L277.142 505.725V502.547L277.672 500.956L278.728 498.839L280.85 497.778L282.966 496.722L284.022 496.192L284.553 494.07V491.953L284.022 490.367L282.436 489.306H279.789Z" stroke="black" stroke-width="0.285628" stroke-miterlimit="22.9256"/>
<path d="M288.791 489.306H296.732L290.908 509.428" stroke="black" stroke-width="0.285628" stroke-miterlimit="22.9256"/>
<path d="M311.029 509.428V496.192L306.796 506.781L302.557 496.192V509.428" stroke="black" stroke-width="0.285628" stroke-miterlimit="22.9256"/>
<path d="M313.676 494.07V493.014L314.207 490.892L315.268 490.367L316.329 489.306H318.445L319.501 490.367L320.032 490.892L321.093 493.014V495.131L320.032 496.722L318.976 499.9L313.151 509.428H321.623" stroke="black" stroke-width="0.285628" stroke-miterlimit="22.9256"/>
<path d="M330.625 225.595H323.74V246.247" stroke="black" stroke-width="0.285628" stroke-miterlimit="22.9256"/>
<path d="M336.45 225.595H338.567L340.153 226.651L341.214 228.768L341.745 230.89L342.275 233.537V238.301L341.745 241.478L341.214 243.6L340.153 245.186L338.567 246.247H336.45L335.389 245.186L334.328 243.6L333.273 241.478L332.742 238.301V233.537L333.273 230.89L334.328 228.768L335.389 226.651L336.45 225.595Z" stroke="black" stroke-width="0.285628" stroke-miterlimit="22.9256"/>
<path d="M354.455 230.89L353.924 228.768L353.394 227.712L352.863 226.651L351.808 225.595H349.161L348.1 226.651L347.569 227.712L347.039 228.768L346.508 230.89L345.983 233.537V238.301L346.508 241.478L347.039 243.6L348.1 245.186L349.161 246.247H351.808L352.863 245.186L353.924 243.6L354.455 241.478" stroke="black" stroke-width="0.285628" stroke-miterlimit="22.9256"/>
<path d="M360.28 225.595V246.247" stroke="black" stroke-width="0.285628" stroke-miterlimit="22.9256"/>
<path d="M356.041 225.595H364.513" stroke="black" stroke-width="0.285628" stroke-miterlimit="22.9256"/>
<path d="M367.16 225.595V246.247L375.637 225.595V246.247" stroke="black" stroke-width="0.285628" stroke-miterlimit="22.9256"/>
<path d="M380.401 225.595V246.247" stroke="black" stroke-width="0.285628" stroke-miterlimit="22.9256"/>
<path d="M380.401 235.653H388.343" stroke="black" stroke-width="0.285628" stroke-miterlimit="22.9256"/>
<path d="M388.343 246.247V225.595" stroke="black" stroke-width="0.285628" stroke-miterlimit="22.9256"/>
<path d="M393.112 239.361H398.936" stroke="black" stroke-width="0.285628" stroke-miterlimit="22.9256"/>
<path d="M390.99 246.247L395.759 225.595L400.523 246.247" stroke="black" stroke-width="0.285628" stroke-miterlimit="22.9256"/>
<path d="M402.114 246.247L406.347 235.653" stroke="black" stroke-width="0.285628" stroke-miterlimit="22.9256"/>
<path d="M410.586 246.247V225.595H405.292L403.7 226.651L402.639 227.712L402.114 229.829V231.945L402.639 233.537L403.7 234.598L405.292 235.653H410.586" stroke="black" stroke-width="0.285628" stroke-miterlimit="22.9256"/>
<path d="M332.212 264.777V263.721L332.742 261.605L333.273 261.074L334.328 260.013H336.45L338.036 261.074L338.567 261.605L339.097 263.721V265.838L338.567 267.429L337.506 270.607L331.681 280.135H339.628" stroke="black" stroke-width="0.285628" stroke-miterlimit="22.9256"/>
<path d="M343.861 264.777V263.721L344.392 261.605L344.922 261.074L345.983 260.013H348.1L349.686 261.074L350.216 261.605L350.747 263.721V265.838L350.216 267.429L349.161 270.607L343.331 280.135H351.277" stroke="black" stroke-width="0.285628" stroke-miterlimit="22.9256"/>
<path d="M356.041 279.079L355.511 280.135L354.98 279.079L355.511 278.549L356.041 279.079ZM356.041 279.079V281.196L355.511 283.313L354.98 284.374" stroke="black" stroke-width="0.285628" stroke-miterlimit="22.9256"/>
<path d="M367.691 262.66L367.16 261.074L365.043 260.013H363.983L362.396 261.074L361.335 263.721L360.81 268.485V273.254L361.335 277.487L362.396 279.079L363.983 280.135H364.513L366.635 279.079L367.691 277.487L368.221 274.31V273.254L367.691 270.607L366.635 268.485L364.513 267.429H363.983L362.396 268.485L361.335 270.607L360.81 273.254" stroke="black" stroke-width="0.285628" stroke-miterlimit="22.9256"/>
<path d="M373.516 260.013H379.871L376.163 267.429H378.284L379.34 268.485L379.871 269.546L380.401 272.724V274.31L379.871 277.487L378.81 279.079L376.693 280.135H375.107L373.516 279.079L372.99 278.548L372.46 276.427" stroke="black" stroke-width="0.285628" stroke-miterlimit="22.9256"/>
<path d="M394.167 280.135V266.899L390.464 277.488L386.226 266.899V280.135" stroke="black" stroke-width="0.285628" stroke-miterlimit="22.9256"/>
<path d="M397.345 264.777V263.721L397.875 261.605L398.406 261.074L399.462 260.013H402.114L403.17 261.074L403.7 261.605L404.231 263.721V265.838L403.7 267.429L402.639 270.607L396.82 280.135H404.761" stroke="black" stroke-width="0.285628" stroke-miterlimit="22.9256"/>
<path d="M415.88 94.798L411.116 83.1484" stroke="black" stroke-width="0.285628" stroke-miterlimit="22.9256"/>
<path d="M415.88 74.1411L407.939 87.9125" stroke="black" stroke-width="0.285628" stroke-miterlimit="22.9256"/>
<path d="M407.939 74.1411V94.7981" stroke="black" stroke-width="0.285628" stroke-miterlimit="22.9256"/>
<path d="M425.944 74.1411L421.705 90.5596L421.175 92.6763L420.649 93.7372L419.588 94.7981H419.058" stroke="black" stroke-width="0.285628" stroke-miterlimit="22.9256"/>
<path d="M417.997 74.1411L421.705 90.5596" stroke="black" stroke-width="0.285628" stroke-miterlimit="22.9256"/>
<path d="M435.476 74.1411L426.999 94.7981" stroke="black" stroke-width="0.285628" stroke-miterlimit="22.9256"/>
<path d="M426.999 74.1411L435.476 94.7981" stroke="black" stroke-width="0.285628" stroke-miterlimit="22.9256"/>
<path d="M438.124 74.1411V94.7981" stroke="black" stroke-width="0.285628" stroke-miterlimit="22.9256"/>
<path d="M438.124 83.6738H446.595" stroke="black" stroke-width="0.285628" stroke-miterlimit="22.9256"/>
<path d="M446.595 94.7981V74.1411" stroke="black" stroke-width="0.285628" stroke-miterlimit="22.9256"/>
<path d="M449.773 94.798L454.006 83.6738" stroke="black" stroke-width="0.285628" stroke-miterlimit="22.9256"/>
<path d="M458.245 94.7981V74.1411H452.951L450.829 75.202L450.298 76.2629L449.773 77.8492V79.971L450.298 82.0877L450.829 83.1486L452.951 83.6739H458.245" stroke="black" stroke-width="0.285628" stroke-miterlimit="22.9256"/>
<path d="M411.117 114.919L410.056 118.097L408.995 119.683L407.408 120.744H406.878L404.761 119.683L403.7 118.097L403.17 114.919V113.858L403.7 111.211L404.761 109.095L406.878 108.034H407.408L408.995 109.095L410.056 111.211L411.117 114.919ZM411.117 114.919V119.683L410.056 124.452L408.995 127.63L407.408 128.686H406.348L404.231 127.63L403.7 125.508" stroke="black" stroke-width="0.285628" stroke-miterlimit="22.9256"/>
<path d="M415.88 127.63L415.35 128.686L414.819 127.63L415.35 126.569L415.88 127.63ZM415.88 127.63V129.746L415.35 131.333L414.819 132.394" stroke="black" stroke-width="0.285628" stroke-miterlimit="22.9256"/>
<path d="M421.705 108.034H428.591L424.883 115.975H426.469L427.53 117.036L428.591 118.097L429.121 120.744V122.861L428.591 125.508L426.999 127.63L425.413 128.686H423.827L421.705 127.63L421.175 126.569L420.649 124.452" stroke="black" stroke-width="0.285628" stroke-miterlimit="22.9256"/>
<path d="M432.299 108.034H440.771L434.946 128.686" stroke="black" stroke-width="0.285628" stroke-miterlimit="22.9256"/>
<path d="M454.537 128.686V114.919L450.298 125.508L446.595 114.919V128.686" stroke="black" stroke-width="0.285628" stroke-miterlimit="22.9256"/>
<path d="M457.715 112.798V112.272L458.245 110.15L458.775 109.095L459.831 108.034H461.953L463.539 109.095L464.07 110.15L464.6 112.272V113.858L464.07 115.975L463.009 118.627L457.184 128.686H465.131" stroke="black" stroke-width="0.285628" stroke-miterlimit="22.9256"/>
<path d="M142.106 17.4795H135.75V38.1314H141.045L142.636 37.0756L143.692 36.0147L144.222 34.4285V31.2508L143.692 29.1341L142.636 28.6037L141.045 27.5428H135.75" stroke="black" stroke-width="0.285628" stroke-miterlimit="22.9256"/>
<path d="M147.931 31.251H153.755" stroke="black" stroke-width="0.285628" stroke-miterlimit="22.9256"/>
<path d="M146.344 38.1314L151.108 17.4795L155.872 38.1314" stroke="black" stroke-width="0.285628" stroke-miterlimit="22.9256"/>
<path d="M165.405 38.1314V17.4795H159.05V34.4285L158.524 36.0147L157.994 37.0756L156.933 38.1314" stroke="black" stroke-width="0.285628" stroke-miterlimit="22.9256"/>
<path d="M178.646 38.1315L173.346 26.4819" stroke="black" stroke-width="0.285628" stroke-miterlimit="22.9256"/>
<path d="M178.646 17.4795L170.174 31.2508" stroke="black" stroke-width="0.285628" stroke-miterlimit="22.9256"/>
<path d="M170.174 17.4795V38.1314" stroke="black" stroke-width="0.285628" stroke-miterlimit="22.9256"/>
<path d="M184.996 17.4795H187.118L188.174 18.5404L189.765 20.6571L190.295 22.7789L190.826 25.4261V30.1899L190.295 33.3675L189.765 34.9589L188.174 37.0756L187.118 38.1314H184.996L183.94 37.0756L182.354 34.9589L181.823 33.3675L181.293 30.1899V25.4261L181.823 22.7789L182.354 20.6571L183.94 18.5404L184.996 17.4795Z" stroke="black" stroke-width="0.285628" stroke-miterlimit="22.9256"/>
<path d="M195.059 17.4795V38.1314" stroke="black" stroke-width="0.285628" stroke-miterlimit="22.9256"/>
<path d="M195.059 27.543H203.006" stroke="black" stroke-width="0.285628" stroke-miterlimit="22.9256"/>
<path d="M203.006 38.1314V17.4795" stroke="black" stroke-width="0.285628" stroke-miterlimit="22.9256"/>
<path d="M141.045 51.9028H147.4L143.692 59.319H145.284L146.87 60.3748L147.4 61.4357L147.931 64.0828V66.1995L147.4 69.3771L146.344 70.9634L144.223 72.0243H142.636L141.045 70.9634L140.515 69.9076L139.459 68.3162" stroke="black" stroke-width="0.285628" stroke-miterlimit="22.9256"/>
<path d="M152.694 70.9635L152.169 72.0244L151.108 70.9635L152.169 69.9077L152.694 70.9635ZM152.694 70.9635V73.0853L152.169 75.202L151.108 75.7325" stroke="black" stroke-width="0.285628" stroke-miterlimit="22.9256"/>
<path d="M164.344 54.55L163.819 52.4333L161.697 51.9028H160.641L159.05 52.4333L157.994 55.6109L156.933 60.3748V65.1386L157.994 69.3771L159.05 70.9634L160.641 72.0243H161.171L162.758 70.9634L164.344 69.3771L164.874 66.1995V65.1386L164.344 62.4915L162.758 60.3748L161.171 59.319H160.641L159.05 60.3748L157.994 62.4915L156.933 65.1386" stroke="black" stroke-width="0.285628" stroke-miterlimit="22.9256"/>
<path d="M175.999 51.9028H170.174L169.643 60.3748L170.174 59.319L171.76 58.2581H173.346L175.468 59.319L176.524 61.4357L177.054 64.0828V66.1995L176.524 69.3771L175.468 70.9634L173.346 72.0243H171.76L170.174 70.9634L169.643 69.9076L168.583 68.3162" stroke="black" stroke-width="0.285628" stroke-miterlimit="22.9256"/>
<path d="M190.826 72.0241V58.2578L187.118 69.3769L182.879 58.2578V72.0241" stroke="black" stroke-width="0.285628" stroke-miterlimit="22.9256"/>
<path d="M194.003 56.6667V55.6109L194.529 53.4891L195.059 52.4333L196.12 51.9028H198.767L199.828 52.4333L200.353 53.4891L200.884 55.6109V57.7276L200.353 59.319L199.298 62.4915L193.473 72.0243H201.414" stroke="black" stroke-width="0.285628" stroke-miterlimit="22.9256"/>
<path d="M558.327 258.427L557.797 256.305L557.271 255.775L556.21 254.719L555.15 253.658H553.033L551.972 254.719L551.447 255.775L550.386 256.305L549.855 258.427L549.325 261.605V266.369L549.855 269.016L550.386 271.133L551.972 273.254L553.033 274.31H555.15L556.21 273.254L557.797 271.133L558.327 269.016" stroke="black" stroke-width="0.285628" stroke-miterlimit="22.9256"/>
<path d="M569.977 249.955L559.388 280.665" stroke="black" stroke-width="0.285628" stroke-miterlimit="22.9256"/>
<path d="M581.101 253.658L576.862 270.077L576.332 272.193L575.801 273.254L574.745 274.31H573.685" stroke="black" stroke-width="0.285628" stroke-miterlimit="22.9256"/>
<path d="M572.624 253.658L576.862 270.077" stroke="black" stroke-width="0.285628" stroke-miterlimit="22.9256"/>
<path d="M544.03 287.551H538.205L537.675 296.553L538.205 295.492L539.797 294.436H541.383L543.5 295.492L544.561 297.614L545.091 300.256V302.378L544.561 305.025L543.5 307.142L541.383 308.203H539.797L538.205 307.142L537.675 306.086L537.145 303.964" stroke="black" stroke-width="0.285628" stroke-miterlimit="22.9256"/>
<path d="M549.855 307.142L549.325 308.203L548.794 307.142L549.325 306.086L549.855 307.142ZM549.855 307.142V309.264L549.325 310.85L548.794 311.911" stroke="black" stroke-width="0.285628" stroke-miterlimit="22.9256"/>
<path d="M554.619 291.784L555.68 290.728L557.271 287.551V308.203" stroke="black" stroke-width="0.285628" stroke-miterlimit="22.9256"/>
<path d="M563.626 291.784L564.682 290.728L566.799 287.551V308.203" stroke="black" stroke-width="0.285628" stroke-miterlimit="22.9256"/>
<path d="M583.748 308.203V294.437L579.509 305.025L575.276 294.437V308.203" stroke="black" stroke-width="0.285628" stroke-miterlimit="22.9256"/>
<path d="M586.395 292.315V291.784L586.926 289.667L587.456 288.607L589.042 287.551H591.159L592.22 288.607L592.75 289.667L593.276 291.784V293.376L592.75 295.492L591.69 298.139L585.865 308.203H593.806" stroke="black" stroke-width="0.285628" stroke-miterlimit="22.9256"/>
<path d="M515.967 441.647L507.49 461.769" stroke="black" stroke-width="0.285628" stroke-miterlimit="22.9256"/>
<path d="M507.49 441.647L515.967 461.769" stroke="black" stroke-width="0.285628" stroke-miterlimit="22.9256"/>
<path d="M521.787 441.647H523.909L524.965 442.708L526.556 444.295L527.086 446.411L527.617 449.064V454.358L527.086 457.005L526.556 459.122L524.965 460.713L523.909 461.769H521.787L520.731 460.713L519.14 459.122L518.614 457.005L518.084 454.358V449.064L518.614 446.411L519.14 444.295L520.731 442.708L521.787 441.647Z" stroke="black" stroke-width="0.285628" stroke-miterlimit="22.9256"/>
<path d="M538.736 461.769V441.647H532.381V458.066L531.32 460.183L530.795 460.713L529.734 461.769" stroke="black" stroke-width="0.285628" stroke-miterlimit="22.9256"/>
<path d="M550.386 461.769V441.647H544.03V458.066L542.97 460.183L542.444 460.713L541.383 461.769" stroke="black" stroke-width="0.285628" stroke-miterlimit="22.9256"/>
<path d="M506.965 482.421L506.434 485.073L504.843 487.19L503.257 488.25H502.726L501.135 487.19L499.549 485.073L499.018 482.421V481.365L499.549 478.718L501.135 476.596L502.726 475.54H503.257L504.843 476.596L506.434 478.718L506.965 482.421ZM506.965 482.421V487.19L506.434 491.953L504.843 495.131L503.257 496.192H502.196L500.61 495.131L499.549 493.014" stroke="black" stroke-width="0.285628" stroke-miterlimit="22.9256"/>
<path d="M512.259 495.131L511.198 496.192L510.668 495.131L511.198 494.07L512.259 495.131ZM512.259 495.131V496.723L511.198 498.839L510.668 499.9" stroke="black" stroke-width="0.285628" stroke-miterlimit="22.9256"/>
<path d="M523.909 478.718L522.848 476.596L521.262 475.54H520.201L518.614 476.596L517.023 479.248L516.493 484.542V489.306L517.023 493.014L518.614 495.131L520.201 496.192H520.731L522.317 495.131L523.909 493.014L524.439 490.367V489.306L523.909 486.129L522.317 484.542L520.731 483.481H520.201L518.614 484.542L517.023 486.129L516.493 489.306" stroke="black" stroke-width="0.285628" stroke-miterlimit="22.9256"/>
<path d="M531.85 475.54L530.264 476.596L529.203 479.248L528.142 484.542V487.19L529.203 491.953L530.264 495.131L531.85 496.192H532.911L535.028 495.131L536.089 491.953L536.619 487.19V484.542L536.089 479.248L535.028 476.596L532.911 475.54H531.85Z" stroke="black" stroke-width="0.285628" stroke-miterlimit="22.9256"/>
<path d="M550.386 496.192V482.421L546.678 493.015L542.444 482.421V496.192" stroke="black" stroke-width="0.285628" stroke-miterlimit="22.9256"/>
<path d="M553.563 480.304V479.248L554.094 477.657L554.619 476.596L555.68 475.54H558.327L559.388 476.596L559.918 477.657L560.449 479.248V481.365L559.918 483.481L558.857 486.129L553.033 496.192H560.974" stroke="black" stroke-width="0.285628" stroke-miterlimit="22.9256"/>
<path d="M69.0259 568.211V575.097H75.9116L69.0259 568.211ZM69.0259 575.097H75.9116L69.0259 615.87V575.097Z" fill="black"/>
<path d="M69.0259 575.097V568.211L75.9116 575.097M69.0259 575.097H75.9116M69.0259 575.097V615.87L75.9116 575.097" stroke="black" stroke-width="0.285628" stroke-miterlimit="22.9256"/>
<path d="M69.0259 568.211H116.685L75.9116 575.092L69.0259 568.211Z" fill="black"/>
<path d="M69.0259 568.211H116.685L75.9116 575.092L69.0259 568.211Z" stroke="black" stroke-width="0.285628" stroke-miterlimit="22.9256"/>
<path d="M69.0259 568.211H116.685L75.9116 575.092L69.0259 615.87V568.211ZM69.0259 568.211H116.685V615.87H69.0259V568.211Z" stroke="black" stroke-width="0.285628" stroke-miterlimit="22.9256"/>
<path d="M69.0259 568.211H116.685V615.87H69.0259V568.211Z" stroke="black" stroke-width="0.285628" stroke-miterlimit="22.9256"/>
</svg>
