<svg width="635" height="634" viewBox="0 0 635 634" fill="none" xmlns="http://www.w3.org/2000/svg">
<g clip-path="url(#clip0_9_7075)">
<path d="M514.811 0.477051H375.541V122.801H514.811V0.477051Z" fill="#F4EE51" stroke="#2B2A29" stroke-width="0.756305" stroke-miterlimit="22.9256"/>
<path d="M375.541 122.805H477.743" stroke="#F4EE51" stroke-width="0.285813" stroke-miterlimit="22.9256"/>
<path d="M144.129 149.812H62.5798H144.129Z" stroke="#F4EE51" stroke-width="0.285813" stroke-miterlimit="22.9256"/>
<path d="M62.5798 149.812H41.9265H144.129H62.5798Z" stroke="#F4EE51" stroke-width="0.285813" stroke-miterlimit="22.9256"/>
<path d="M144.129 149.812V156.694" stroke="#F4EE51" stroke-width="0.285813" stroke-miterlimit="22.9256"/>
<path d="M125.063 156.693H62.5754H136.183H125.063Z" stroke="#F4EE51" stroke-width="0.285813" stroke-miterlimit="22.9256"/>
<path d="M62.5798 156.693H125.067" stroke="#F4EE51" stroke-width="0.285813" stroke-miterlimit="22.9256"/>
<path d="M91.1743 156.693H62.5798H115.534H91.1743Z" stroke="#F4EE51" stroke-width="0.285813" stroke-miterlimit="22.9256"/>
<path d="M62.5798 156.693H91.1743" stroke="#F4EE51" stroke-width="0.285813" stroke-miterlimit="22.9256"/>
<path d="M41.9265 156.693H62.5798" stroke="#F4EE51" stroke-width="0.285813" stroke-miterlimit="22.9256"/>
<path d="M70.521 156.693H62.5798H81.6413H70.521Z" stroke="#F4EE51" stroke-width="0.285813" stroke-miterlimit="22.9256"/>
<path d="M41.9265 156.693H62.5798" stroke="#F4EE51" stroke-width="0.285813" stroke-miterlimit="22.9256"/>
<path d="M62.5798 156.693H70.521" stroke="#F4EE51" stroke-width="0.285813" stroke-miterlimit="22.9256"/>
<path d="M41.9265 156.693H62.5798" stroke="#F4EE51" stroke-width="0.285813" stroke-miterlimit="22.9256"/>
<path d="M115.534 156.693H125.067" stroke="#F4EE51" stroke-width="0.285813" stroke-miterlimit="22.9256"/>
<path d="M90.6423 156.693H81.6414H91.1743H90.6423Z" stroke="#F4EE51" stroke-width="0.285813" stroke-miterlimit="22.9256"/>
<path d="M62.5798 156.693H70.521" stroke="#F4EE51" stroke-width="0.285813" stroke-miterlimit="22.9256"/>
<path d="M115.53 156.693H125.063H125.059H124.531M115.53 156.693H124.531M115.53 156.693H116.058H124.531" stroke="#F4EE51" stroke-width="0.285813" stroke-miterlimit="22.9256"/>
<path d="M81.6414 156.693H90.6423H82.169H81.6414Z" stroke="#F4EE51" stroke-width="0.285813" stroke-miterlimit="22.9256"/>
<path d="M69.9934 156.693H62.5798H70.521H69.989H69.9934Z" stroke="#F4EE51" stroke-width="0.285813" stroke-miterlimit="22.9256"/>
<path d="M116.062 156.693H124.535" stroke="#F4EE51" stroke-width="0.285813" stroke-miterlimit="22.9256"/>
<path d="M90.1145 156.693H82.1733H90.6466H90.1189H90.1145Z" stroke="#F4EE51" stroke-width="0.285813" stroke-miterlimit="22.9256"/>
<path d="M144.129 170.461V176.815" stroke="#F4EE51" stroke-width="0.285813" stroke-miterlimit="22.9256"/>
<path d="M144.129 176.819V177.347" stroke="#F4EE51" stroke-width="0.285813" stroke-miterlimit="22.9256"/>
<path d="M41.9265 591.978H28.6868V394.987H82.701V388.105H28.6868V156.694H137.243V388.105H130.357V394.987H151.01V388.105H144.129V149.812H41.9265V115.919H28.6868V13.7168H361.769V149.812H477.738V156.694H484.097V272.136H511.631V156.694H518.517V132.866H593.18V388.105H232.564V394.987H239.445V401.873H246.331V394.987H620.187V615.81H518.517V591.978H511.631V544.322H484.097V591.978H477.738V598.864H361.769V612.631H246.331V462.773H239.445V612.631H130.357V626.398H62.5798V612.631H41.9265V591.978Z" fill="#F4EE51" stroke="#2B2A29" stroke-width="0.954175" stroke-miterlimit="10" stroke-linecap="round"/>
<path d="M375.54 13.7168V0.477051H13.4507" stroke="black" stroke-width="0.285813" stroke-miterlimit="22.9256"/>
<path d="M361.769 13.7168H28.6868" stroke="black" stroke-width="0.285813" stroke-miterlimit="22.9256"/>
<path d="M514.806 119.094H606.948V272.136" stroke="black" stroke-width="0.285813" stroke-miterlimit="22.9256"/>
<path d="M633.955 381.219V421.994" stroke="black" stroke-width="0.285813" stroke-miterlimit="22.9256"/>
<path d="M514.806 132.865H593.18V272.135" stroke="black" stroke-width="0.285813" stroke-miterlimit="22.9256"/>
<path d="M620.188 421.993V394.986V421.993Z" stroke="black" stroke-width="0.285813" stroke-miterlimit="22.9256"/>
<path d="M620.188 544.321V615.81" stroke="black" stroke-width="0.285813" stroke-miterlimit="22.9256"/>
<path d="M620.188 544.321H633.955" stroke="black" stroke-width="0.285813" stroke-miterlimit="22.9256"/>
<path d="M620.188 421.994H633.955" stroke="black" stroke-width="0.285813" stroke-miterlimit="22.9256"/>
<path d="M620.188 421.994V544.322" stroke="#00BFFF" stroke-width="0.285813" stroke-miterlimit="22.9256"/>
<path d="M627.073 544.322V421.994" stroke="#00BFFF" stroke-width="0.285813" stroke-miterlimit="22.9256"/>
<path d="M633.955 421.994V544.322" stroke="#00BFFF" stroke-width="0.285813" stroke-miterlimit="22.9256"/>
<path d="M593.18 272.135H606.948" stroke="black" stroke-width="0.285813" stroke-miterlimit="22.9256"/>
<path d="M593.18 272.135V381.219" stroke="#00BFFF" stroke-width="0.285813" stroke-miterlimit="22.9256"/>
<path d="M600.066 381.219V272.135" stroke="#00BFFF" stroke-width="0.285813" stroke-miterlimit="22.9256"/>
<path d="M606.948 272.135V381.219" stroke="#00BFFF" stroke-width="0.285813" stroke-miterlimit="22.9256"/>
<path d="M633.955 544.321V629.577" stroke="black" stroke-width="0.285813" stroke-miterlimit="22.9256"/>
<path d="M51.9871 612.631H58.8686" stroke="#FF0000" stroke-width="0.285813" stroke-miterlimit="22.9256"/>
<path d="M147.303 612.631H154.189" stroke="#FF0000" stroke-width="0.285813" stroke-miterlimit="22.9256"/>
<path d="M164.25 612.631H232.032" stroke="#FF0000" stroke-width="0.285813" stroke-miterlimit="22.9256"/>
<path d="M443.318 598.863H438.556" stroke="#008AB8" stroke-width="0.285813" stroke-miterlimit="22.9256"/>
<path d="M443.318 626.398H438.556" stroke="#008AB8" stroke-width="0.285813" stroke-miterlimit="22.9256"/>
<path d="M28.6868 119.094V13.7168" stroke="black" stroke-width="0.285813" stroke-miterlimit="22.9256"/>
<path d="M14.9194 119.094V0.477051" stroke="black" stroke-width="0.285813" stroke-miterlimit="22.9256"/>
<path d="M620.187 394.986H246.331" stroke="black" stroke-width="0.285813" stroke-miterlimit="22.9256"/>
<path d="M239.445 394.986H232.564" stroke="black" stroke-width="0.285813" stroke-miterlimit="22.9256"/>
<path d="M151.01 394.986H144.129" stroke="black" stroke-width="0.285813" stroke-miterlimit="22.9256"/>
<path d="M593.18 388.105H232.564" stroke="black" stroke-width="0.285813" stroke-miterlimit="22.9256"/>
<path d="M151.01 388.105H144.129" stroke="black" stroke-width="0.285813" stroke-miterlimit="22.9256"/>
<path d="M443.318 598.863H438.556" stroke="#008AB8" stroke-width="0.285813" stroke-miterlimit="22.9256"/>
<path d="M443.318 149.812H438.556" stroke="#008AB8" stroke-width="0.285813" stroke-miterlimit="22.9256"/>
<path d="M317.288 460.121L316.76 458.006L316.228 456.947L315.7 455.887L314.113 454.827H311.993L310.934 455.887L310.406 456.947L309.874 458.006L309.346 460.121L308.287 462.773V467.535L309.346 470.714L309.874 472.833L310.934 474.421L311.993 475.48H314.113L315.7 474.421L316.76 472.833L317.288 470.714" stroke="black" stroke-width="0.285813" stroke-miterlimit="22.9256"/>
<path d="M320.994 475.48V454.827H328.94V475.48" stroke="black" stroke-width="0.285813" stroke-miterlimit="22.9256"/>
<path d="M333.702 468.594H339.528" stroke="black" stroke-width="0.285813" stroke-miterlimit="22.9256"/>
<path d="M331.587 475.48L336.353 454.827L341.12 475.48" stroke="black" stroke-width="0.285813" stroke-miterlimit="22.9256"/>
<path d="M351.18 475.48V454.827H344.827V471.774L344.294 473.361L343.767 474.421L342.179 475.48" stroke="black" stroke-width="0.285813" stroke-miterlimit="22.9256"/>
<path d="M355.947 454.827V475.48H361.769L362.829 474.421L363.361 473.361L363.888 471.774V467.535L363.361 465.947L362.829 464.888L361.769 463.828H355.947" stroke="black" stroke-width="0.285813" stroke-miterlimit="22.9256"/>
<path d="M367.595 454.827V475.48" stroke="black" stroke-width="0.285813" stroke-miterlimit="22.9256"/>
<path d="M367.595 464.888H375.541" stroke="black" stroke-width="0.285813" stroke-miterlimit="22.9256"/>
<path d="M375.541 475.48V454.827" stroke="black" stroke-width="0.285813" stroke-miterlimit="22.9256"/>
<path d="M379.247 475.48L382.95 464.888" stroke="black" stroke-width="0.285813" stroke-miterlimit="22.9256"/>
<path d="M387.189 475.48V454.827H381.894L380.303 455.887L379.775 456.947L379.247 459.062V460.653L379.775 462.773L380.303 463.828L381.894 464.888H387.189" stroke="black" stroke-width="0.285813" stroke-miterlimit="22.9256"/>
<path d="M313.581 492.954L314.64 491.895L316.228 489.248V509.369" stroke="black" stroke-width="0.285813" stroke-miterlimit="22.9256"/>
<path d="M329.999 491.895L329.467 490.307L327.348 489.248H326.293L324.701 490.307L323.641 492.954L322.582 497.721V502.487L323.641 506.722L324.701 508.309L326.293 509.369H326.82L328.408 508.309L329.999 506.722L330.527 503.543V502.487L329.999 499.84L328.408 497.721L326.82 496.661H326.293L324.701 497.721L323.641 499.84L322.582 502.487" stroke="black" stroke-width="0.285813" stroke-miterlimit="22.9256"/>
<path d="M335.821 508.309L335.294 509.369L334.234 508.309L335.294 507.781L335.821 508.309ZM335.821 508.309V510.428L335.294 512.548L334.234 513.607" stroke="black" stroke-width="0.285813" stroke-miterlimit="22.9256"/>
<path d="M343.235 489.248L341.647 490.307L341.12 491.895V494.014L341.647 496.133L342.707 496.661L344.827 497.721L346.942 498.78L348.001 500.896L348.533 502.487V505.662L348.001 507.781L347.474 508.309L345.354 509.369H343.235L341.647 508.309L341.12 507.781L340.06 505.662V502.487L341.12 500.896L342.179 498.78L343.767 497.721L345.882 496.661L347.474 496.133L348.001 494.014V491.895L347.474 490.307L345.354 489.248H343.235Z" stroke="black" stroke-width="0.285813" stroke-miterlimit="22.9256"/>
<path d="M351.708 489.248H360.181L354.355 509.369" stroke="black" stroke-width="0.285813" stroke-miterlimit="22.9256"/>
<path d="M373.949 509.369V496.133L370.242 506.722L366.008 496.133V509.369" stroke="black" stroke-width="0.285813" stroke-miterlimit="22.9256"/>
<path d="M377.128 494.014V492.954L377.655 490.835L378.187 490.307L379.247 489.248H381.894L382.95 490.307L383.482 490.835L384.009 492.954V495.074L383.482 496.661L382.422 499.84L376.596 509.369H384.541" stroke="black" stroke-width="0.285813" stroke-miterlimit="22.9256"/>
<path d="M228.852 225.535H221.971V246.188" stroke="black" stroke-width="0.285813" stroke-miterlimit="22.9256"/>
<path d="M235.211 225.535H237.326L238.385 226.594L239.445 228.709L239.973 230.829L241.032 233.476V238.242L239.973 241.421L239.445 243.541L238.385 245.128L237.326 246.188H235.211L233.619 245.128L232.564 243.541L232.032 241.421L231.504 238.242V233.476L232.032 230.829L232.564 228.709L233.619 226.594L235.211 225.535Z" stroke="black" stroke-width="0.285813" stroke-miterlimit="22.9256"/>
<path d="M253.213 230.829L252.685 228.709L251.625 227.654L251.093 226.594L250.038 225.535H247.918L246.859 226.594L245.799 227.654L245.271 228.709L244.739 230.829L244.212 233.476V238.242L244.739 241.421L245.271 243.541L246.859 245.128L247.918 246.188H250.038L251.093 245.128L252.685 243.541L253.213 241.421" stroke="black" stroke-width="0.285813" stroke-miterlimit="22.9256"/>
<path d="M259.039 225.535V246.188" stroke="black" stroke-width="0.285813" stroke-miterlimit="22.9256"/>
<path d="M254.804 225.535H262.746" stroke="black" stroke-width="0.285813" stroke-miterlimit="22.9256"/>
<path d="M265.925 225.535V246.188L273.866 225.535V246.188" stroke="black" stroke-width="0.285813" stroke-miterlimit="22.9256"/>
<path d="M278.632 225.535V246.188" stroke="black" stroke-width="0.285813" stroke-miterlimit="22.9256"/>
<path d="M278.632 235.595H287.106" stroke="black" stroke-width="0.285813" stroke-miterlimit="22.9256"/>
<path d="M287.105 246.188V225.535" stroke="black" stroke-width="0.285813" stroke-miterlimit="22.9256"/>
<path d="M291.34 239.302H297.166" stroke="black" stroke-width="0.285813" stroke-miterlimit="22.9256"/>
<path d="M289.753 246.188L294.519 225.535L299.286 246.188" stroke="black" stroke-width="0.285813" stroke-miterlimit="22.9256"/>
<path d="M300.873 246.188L305.107 235.595" stroke="black" stroke-width="0.285813" stroke-miterlimit="22.9256"/>
<path d="M308.819 246.188V225.535H303.52L301.933 226.594L301.401 227.654L300.873 229.769V231.889L301.401 233.476L301.933 234.536L303.52 235.595H308.819" stroke="black" stroke-width="0.285813" stroke-miterlimit="22.9256"/>
<path d="M230.444 264.722V263.662L230.972 261.542L231.504 261.015L233.091 259.955H235.211L236.271 261.015L236.798 261.542L237.326 263.662V265.781L236.798 267.369L235.739 270.548L229.912 280.076H238.386" stroke="black" stroke-width="0.285813" stroke-miterlimit="22.9256"/>
<path d="M242.092 264.722V263.662L242.624 261.542L243.152 261.015L244.739 259.955H246.859L247.919 261.015L248.446 261.542L248.978 263.662V265.781L248.446 267.369L247.391 270.548L241.565 280.076H250.038" stroke="black" stroke-width="0.285813" stroke-miterlimit="22.9256"/>
<path d="M254.272 279.017L253.745 280.077L253.213 279.017L253.745 278.489L254.272 279.017ZM254.272 279.017V281.136L253.745 283.256L253.213 284.315" stroke="black" stroke-width="0.285813" stroke-miterlimit="22.9256"/>
<path d="M265.925 262.602L265.393 261.015L263.805 259.955H262.746L261.158 261.015L259.571 263.662L259.039 268.428V273.195L259.571 277.429L261.158 279.017L262.746 280.076H263.273L264.865 279.017L265.925 277.429L266.98 274.25V273.195L265.925 270.548L264.865 268.428L263.273 267.369H262.746L261.158 268.428L259.571 270.548L259.039 273.195" stroke="black" stroke-width="0.285813" stroke-miterlimit="22.9256"/>
<path d="M271.746 259.955H278.632L274.926 267.369H276.513L277.573 268.428L278.632 269.488L279.16 272.663V274.25L278.632 277.429L277.045 279.017L275.453 280.076H273.866L271.746 279.017L271.219 278.489L270.691 276.37" stroke="black" stroke-width="0.285813" stroke-miterlimit="22.9256"/>
<path d="M292.932 280.077V266.837L288.693 277.43L284.986 266.837V280.077" stroke="black" stroke-width="0.285813" stroke-miterlimit="22.9256"/>
<path d="M296.107 264.722V263.662L296.634 261.542L297.166 261.015L298.226 259.955H300.341L301.933 261.015L302.46 261.542L302.992 263.662V265.781L302.46 267.369L300.873 270.548L295.047 280.076H303.52" stroke="black" stroke-width="0.285813" stroke-miterlimit="22.9256"/>
<path d="M514.806 119.094V0.477051" stroke="#0000FF" stroke-width="0.285813" stroke-miterlimit="22.9256"/>
<path d="M484.097 153.519H511.632V272.135H484.097V153.519Z" stroke="#FF0000" stroke-width="0.285813" stroke-miterlimit="22.9256"/>
<path d="M484.097 546.968L486.744 544.321" stroke="#FF0000" stroke-width="0.285813" stroke-miterlimit="22.9256"/>
<path d="M484.097 577.151L511.632 550.144" stroke="#FF0000" stroke-width="0.285813" stroke-miterlimit="22.9256"/>
<path d="M496.804 595.685L511.631 580.857" stroke="#FF0000" stroke-width="0.285813" stroke-miterlimit="22.9256"/>
<path d="M484.097 561.796L492.038 554.382" stroke="#FF0000" stroke-width="0.285813" stroke-miterlimit="22.9256"/>
<path d="M485.684 592.509C485.684 591.925 485.209 591.45 484.624 591.45C484.039 591.45 483.564 591.925 483.564 592.509C483.564 593.094 484.039 593.569 484.624 593.569C485.209 593.569 485.684 593.094 485.684 592.509Z" fill="#FF0000"/>
<path d="M484.624 592.509H485.684M485.684 592.509C485.684 591.925 485.209 591.45 484.624 591.45C484.039 591.45 483.564 591.925 483.564 592.509C483.564 593.094 484.039 593.569 484.624 593.569C485.209 593.569 485.684 593.094 485.684 592.509Z" stroke="black" stroke-width="0.285813" stroke-miterlimit="22.9256"/>
<path d="M488.331 588.803L507.397 569.737" stroke="#FF0000" stroke-width="0.285813" stroke-miterlimit="22.9256"/>
<path d="M512.163 565.503C512.163 564.918 511.688 564.443 511.104 564.443C510.519 564.443 510.044 564.918 510.044 565.503C510.044 566.087 510.519 566.562 511.104 566.562C511.688 566.562 512.163 566.087 512.163 565.503Z" fill="#FF0000"/>
<path d="M511.104 565.503H512.163M512.163 565.503C512.163 564.918 511.688 564.443 511.104 564.443C510.519 564.443 510.044 564.918 510.044 565.503C510.044 566.087 510.519 566.562 511.104 566.562C511.688 566.562 512.163 566.087 512.163 565.503Z" stroke="black" stroke-width="0.285813" stroke-miterlimit="22.9256"/>
<path d="M484.097 544.321H511.632V595.684H484.097V544.321Z" stroke="#FF0000" stroke-width="0.285813" stroke-miterlimit="22.9256"/>
<path d="M363.888 149.812L361.769 147.692" stroke="#FF0000" stroke-width="0.285813" stroke-miterlimit="22.9256"/>
<path d="M394.602 149.812L367.595 122.805" stroke="#FF0000" stroke-width="0.285813" stroke-miterlimit="22.9256"/>
<path d="M425.316 149.812L397.781 122.805" stroke="#FF0000" stroke-width="0.285813" stroke-miterlimit="22.9256"/>
<path d="M455.498 149.812L428.491 122.805" stroke="#FF0000" stroke-width="0.285813" stroke-miterlimit="22.9256"/>
<path d="M480.918 144.513L459.205 122.805" stroke="#FF0000" stroke-width="0.285813" stroke-miterlimit="22.9256"/>
<path d="M379.247 149.812L371.302 142.394" stroke="#FF0000" stroke-width="0.285813" stroke-miterlimit="22.9256"/>
<path d="M368.655 138.159C368.655 137.574 368.18 137.1 367.595 137.1C367.01 137.1 366.535 137.574 366.535 138.159C366.535 138.744 367.01 139.219 367.595 139.219C368.18 139.219 368.655 138.744 368.655 138.159Z" fill="#FF0000"/>
<path d="M367.595 138.159H368.655M368.655 138.159C368.655 137.574 368.18 137.1 367.595 137.1C367.01 137.1 366.535 137.574 366.535 138.159C366.535 138.744 367.01 139.219 367.595 139.219C368.18 139.219 368.655 138.744 368.655 138.159Z" stroke="black" stroke-width="0.285813" stroke-miterlimit="22.9256"/>
<path d="M363.888 134.453L361.769 132.333" stroke="#FF0000" stroke-width="0.285813" stroke-miterlimit="22.9256"/>
<path d="M411.021 149.812C411.021 149.227 410.546 148.752 409.961 148.752C409.376 148.752 408.901 149.227 408.901 149.812C408.901 150.396 409.376 150.871 409.961 150.871C410.546 150.871 411.021 150.396 411.021 149.812Z" fill="#FF0000"/>
<path d="M409.961 149.812H411.021M411.021 149.812C411.021 149.227 410.546 148.752 409.961 148.752C409.376 148.752 408.901 149.227 408.901 149.812C408.901 150.396 409.376 150.871 409.961 150.871C410.546 150.871 411.021 150.396 411.021 149.812Z" stroke="black" stroke-width="0.285813" stroke-miterlimit="22.9256"/>
<path d="M405.722 146.101L386.661 127.039" stroke="#FF0000" stroke-width="0.285813" stroke-miterlimit="22.9256"/>
<path d="M384.014 123.332C384.014 122.747 383.539 122.272 382.954 122.272C382.369 122.272 381.894 122.747 381.894 123.332C381.894 123.917 382.369 124.392 382.954 124.392C383.539 124.392 384.014 123.917 384.014 123.332Z" fill="#FF0000"/>
<path d="M382.954 123.332H384.014M384.014 123.332C384.014 122.747 383.539 122.272 382.954 122.272C382.369 122.272 381.894 122.747 381.894 123.332C381.894 123.917 382.369 124.392 382.954 124.392C383.539 124.392 384.014 123.917 384.014 123.332Z" stroke="black" stroke-width="0.285813" stroke-miterlimit="22.9256"/>
<path d="M440.143 149.812L429.023 138.16" stroke="#FF0000" stroke-width="0.285813" stroke-miterlimit="22.9256"/>
<path d="M421.077 130.746L413.136 122.805" stroke="#FF0000" stroke-width="0.285813" stroke-miterlimit="22.9256"/>
<path d="M471.917 149.812C471.917 149.227 471.442 148.752 470.857 148.752C470.272 148.752 469.797 149.227 469.797 149.812C469.797 150.396 470.272 150.871 470.857 150.871C471.442 150.871 471.917 150.396 471.917 149.812Z" fill="#FF0000"/>
<path d="M470.857 149.812H471.917M471.917 149.812C471.917 149.227 471.442 148.752 470.857 148.752C470.272 148.752 469.797 149.227 469.797 149.812C469.797 150.396 470.272 150.871 470.857 150.871C471.442 150.871 471.917 150.396 471.917 149.812Z" stroke="black" stroke-width="0.285813" stroke-miterlimit="22.9256"/>
<path d="M468.21 146.101C468.21 145.516 467.735 145.041 467.15 145.041C466.565 145.041 466.09 145.516 466.09 146.101C466.09 146.686 466.565 147.16 467.15 147.16C467.735 147.16 468.21 146.686 468.21 146.101Z" fill="#FF0000"/>
<path d="M467.15 146.101H468.21M468.21 146.101C468.21 145.516 467.735 145.041 467.15 145.041C466.565 145.041 466.09 145.516 466.09 146.101C466.09 146.686 466.565 147.16 467.15 147.16C467.735 147.16 468.21 146.686 468.21 146.101Z" stroke="black" stroke-width="0.285813" stroke-miterlimit="22.9256"/>
<path d="M463.443 142.394L443.85 123.333" stroke="#FF0000" stroke-width="0.285813" stroke-miterlimit="22.9256"/>
<path d="M478.271 127.039L474.036 122.805" stroke="#FF0000" stroke-width="0.285813" stroke-miterlimit="22.9256"/>
<path d="M361.769 149.812V122.805H480.918V149.812H361.769Z" stroke="#FF0000" stroke-width="0.285813" stroke-miterlimit="22.9256"/>
<path d="M375.541 0.477051H514.806" stroke="#0000FF" stroke-width="0.285813" stroke-miterlimit="22.9256"/>
<path d="M361.769 13.7168H375.541" stroke="black" stroke-width="0.285813" stroke-miterlimit="22.9256"/>
<path d="M361.769 122.805V13.7168" stroke="#00BFFF" stroke-width="0.285813" stroke-miterlimit="22.9256"/>
<path d="M375.541 13.7168V122.805" stroke="#00BFFF" stroke-width="0.285813" stroke-miterlimit="22.9256"/>
<path d="M368.655 13.7168V122.805" stroke="#00BFFF" stroke-width="0.285813" stroke-miterlimit="22.9256"/>
<path d="M182.784 94.7378L177.49 83.0854" stroke="black" stroke-width="0.285813" stroke-miterlimit="22.9256"/>
<path d="M182.784 74.0845L174.311 87.8519" stroke="black" stroke-width="0.285813" stroke-miterlimit="22.9256"/>
<path d="M174.311 74.0845V94.7377" stroke="black" stroke-width="0.285813" stroke-miterlimit="22.9256"/>
<path d="M192.317 74.0845L188.61 90.4989L188.082 92.6183L187.55 93.678L185.963 94.7377H185.431" stroke="black" stroke-width="0.285813" stroke-miterlimit="22.9256"/>
<path d="M184.371 74.0845L188.61 90.4989" stroke="black" stroke-width="0.285813" stroke-miterlimit="22.9256"/>
<path d="M201.85 74.0845L193.904 94.7377" stroke="black" stroke-width="0.285813" stroke-miterlimit="22.9256"/>
<path d="M193.904 74.0845L201.85 94.7377" stroke="black" stroke-width="0.285813" stroke-miterlimit="22.9256"/>
<path d="M205.025 74.0845V94.7377" stroke="black" stroke-width="0.285813" stroke-miterlimit="22.9256"/>
<path d="M205.025 83.6177H212.97" stroke="black" stroke-width="0.285813" stroke-miterlimit="22.9256"/>
<path d="M212.97 94.7377V74.0845" stroke="black" stroke-width="0.285813" stroke-miterlimit="22.9256"/>
<path d="M216.677 94.738L220.384 83.6177" stroke="black" stroke-width="0.285813" stroke-miterlimit="22.9256"/>
<path d="M224.618 94.7377V74.0845H219.324L217.732 75.1442L217.205 76.2039L216.677 77.7912V79.9107L217.205 82.0257L217.732 83.0854L219.324 83.6174H224.618" stroke="black" stroke-width="0.285813" stroke-miterlimit="22.9256"/>
<path d="M177.49 114.859L176.962 118.038L175.898 119.626L173.783 120.685H173.251L171.664 119.626L170.604 118.038L170.076 114.859V113.799L170.604 111.152L171.664 109.033L173.251 107.973H173.783L175.898 109.033L176.962 111.152L177.49 114.859ZM177.49 114.859V119.626L176.962 124.392L175.898 127.571L173.783 128.626H172.723L171.136 127.571L170.604 125.452" stroke="black" stroke-width="0.285813" stroke-miterlimit="22.9256"/>
<path d="M182.784 127.571L182.256 128.627L181.724 127.571L182.256 126.512L182.784 127.571ZM182.784 127.571V129.686L182.256 131.274L181.724 132.334" stroke="black" stroke-width="0.285813" stroke-miterlimit="22.9256"/>
<path d="M188.61 107.973H194.964L191.257 115.919H193.376L194.436 116.978L194.964 118.038L195.491 120.685V122.805L194.964 125.452L193.904 127.571L191.785 128.626H190.197L188.61 127.571L188.082 126.511L187.55 124.392" stroke="black" stroke-width="0.285813" stroke-miterlimit="22.9256"/>
<path d="M199.198 107.973H207.144L201.318 128.626" stroke="black" stroke-width="0.285813" stroke-miterlimit="22.9256"/>
<path d="M220.911 128.627V114.859L217.205 125.452L212.97 114.859V128.627" stroke="black" stroke-width="0.285813" stroke-miterlimit="22.9256"/>
<path d="M224.09 112.74V112.212L224.618 110.093L225.146 109.033L226.205 107.973H228.852L229.912 109.033L230.444 110.093L230.972 112.212V113.799L230.444 115.919L229.385 118.566L223.558 128.626H231.504" stroke="black" stroke-width="0.285813" stroke-miterlimit="22.9256"/>
<path d="M484.097 154.046L486.744 151.927" stroke="#FF0000" stroke-width="0.285813" stroke-miterlimit="22.9256"/>
<path d="M484.097 184.76L511.632 157.753" stroke="#FF0000" stroke-width="0.285813" stroke-miterlimit="22.9256"/>
<path d="M484.097 215.474L511.632 187.939" stroke="#FF0000" stroke-width="0.285813" stroke-miterlimit="22.9256"/>
<path d="M484.097 245.656L511.632 218.649" stroke="#FF0000" stroke-width="0.285813" stroke-miterlimit="22.9256"/>
<path d="M489.391 271.076L511.631 249.363" stroke="#FF0000" stroke-width="0.285813" stroke-miterlimit="22.9256"/>
<path d="M484.097 169.401L492.038 161.46" stroke="#FF0000" stroke-width="0.285813" stroke-miterlimit="22.9256"/>
<path d="M496.804 157.753C496.804 157.168 496.329 156.693 495.745 156.693C495.16 156.693 494.685 157.168 494.685 157.753C494.685 158.338 495.16 158.813 495.745 158.813C496.329 158.813 496.804 158.338 496.804 157.753Z" fill="#FF0000"/>
<path d="M495.745 157.753H496.804M496.804 157.753C496.804 157.168 496.329 156.693 495.745 156.693C495.16 156.693 494.685 157.168 494.685 157.753C494.685 158.338 495.16 158.813 495.745 158.813C496.329 158.813 496.804 158.338 496.804 157.753Z" stroke="black" stroke-width="0.285813" stroke-miterlimit="22.9256"/>
<path d="M499.451 154.046L501.571 151.927" stroke="#FF0000" stroke-width="0.285813" stroke-miterlimit="22.9256"/>
<path d="M485.684 200.115C485.684 199.53 485.209 199.055 484.624 199.055C484.039 199.055 483.564 199.53 483.564 200.115C483.564 200.7 484.039 201.175 484.624 201.175C485.209 201.175 485.684 200.7 485.684 200.115Z" fill="#FF0000"/>
<path d="M484.624 200.115H485.684M485.684 200.115C485.684 199.53 485.209 199.055 484.624 199.055C484.039 199.055 483.564 199.53 483.564 200.115C483.564 200.7 484.039 201.175 484.624 201.175C485.209 201.175 485.684 200.7 485.684 200.115Z" stroke="black" stroke-width="0.285813" stroke-miterlimit="22.9256"/>
<path d="M488.331 195.88L507.397 176.819" stroke="#FF0000" stroke-width="0.285813" stroke-miterlimit="22.9256"/>
<path d="M512.163 173.108C512.163 172.523 511.688 172.048 511.104 172.048C510.519 172.048 510.044 172.523 510.044 173.108C510.044 173.692 510.519 174.167 511.104 174.167C511.688 174.167 512.163 173.692 512.163 173.108Z" fill="#FF0000"/>
<path d="M511.104 173.108H512.163M512.163 173.108C512.163 172.523 511.688 172.048 511.104 172.048C510.519 172.048 510.044 172.523 510.044 173.108C510.044 173.692 510.519 174.167 511.104 174.167C511.688 174.167 512.163 173.692 512.163 173.108Z" stroke="black" stroke-width="0.285813" stroke-miterlimit="22.9256"/>
<path d="M484.097 230.301L495.745 219.181" stroke="#FF0000" stroke-width="0.285813" stroke-miterlimit="22.9256"/>
<path d="M500.511 214.942C500.511 214.357 500.036 213.882 499.451 213.882C498.867 213.882 498.392 214.357 498.392 214.942C498.392 215.527 498.867 216.002 499.451 216.002C500.036 216.002 500.511 215.527 500.511 214.942Z" fill="#FF0000"/>
<path d="M499.451 214.942H500.511M500.511 214.942C500.511 214.357 500.036 213.882 499.451 213.882C498.867 213.882 498.392 214.357 498.392 214.942C498.392 215.527 498.867 216.002 499.451 216.002C500.036 216.002 500.511 215.527 500.511 214.942Z" stroke="black" stroke-width="0.285813" stroke-miterlimit="22.9256"/>
<path d="M503.686 211.235L511.631 203.294" stroke="#FF0000" stroke-width="0.285813" stroke-miterlimit="22.9256"/>
<path d="M484.097 261.015H484.624" stroke="#FF0000" stroke-width="0.285813" stroke-miterlimit="22.9256"/>
<path d="M489.391 257.308C489.391 256.723 488.916 256.249 488.331 256.249C487.746 256.249 487.271 256.723 487.271 257.308C487.271 257.893 487.746 258.368 488.331 258.368C488.916 258.368 489.391 257.893 489.391 257.308Z" fill="#FF0000"/>
<path d="M488.331 257.308H489.391M489.391 257.308C489.391 256.723 488.916 256.249 488.331 256.249C487.746 256.249 487.271 256.723 487.271 257.308C487.271 257.893 487.746 258.368 488.331 258.368C488.916 258.368 489.391 257.893 489.391 257.308Z" stroke="black" stroke-width="0.285813" stroke-miterlimit="22.9256"/>
<path d="M492.038 253.601L511.104 234.008" stroke="#FF0000" stroke-width="0.285813" stroke-miterlimit="22.9256"/>
<path d="M507.397 268.429L511.631 264.19" stroke="#FF0000" stroke-width="0.285813" stroke-miterlimit="22.9256"/>
<path d="M52.5149 149.812H135.656" stroke="#008AB8" stroke-width="0.285813" stroke-miterlimit="22.9256"/>
<path d="M109.708 156.693H135.656" stroke="#008AB8" stroke-width="0.285813" stroke-miterlimit="22.9256"/>
<path d="M28.6868 53.4312V58.7253" stroke="#008AB8" stroke-width="0.285813" stroke-miterlimit="22.9256"/>
<path d="M435.909 17.4233H429.55V38.0766H434.849L436.436 37.0169L436.964 35.9572L438.024 34.3698V31.1907L436.964 29.0757L436.436 28.5437L434.849 27.484H429.55" stroke="black" stroke-width="0.285813" stroke-miterlimit="22.9256"/>
<path d="M441.73 31.1909H447.557" stroke="black" stroke-width="0.285813" stroke-miterlimit="22.9256"/>
<path d="M440.143 38.0766L444.91 17.4233L449.676 38.0766" stroke="black" stroke-width="0.285813" stroke-miterlimit="22.9256"/>
<path d="M459.204 38.0766V17.4233H452.851V34.3698L452.323 35.9572L451.791 37.0169L450.736 38.0766" stroke="black" stroke-width="0.285813" stroke-miterlimit="22.9256"/>
<path d="M472.444 38.0767L467.15 26.4243" stroke="black" stroke-width="0.285813" stroke-miterlimit="22.9256"/>
<path d="M472.444 17.4233L463.971 31.1907" stroke="black" stroke-width="0.285813" stroke-miterlimit="22.9256"/>
<path d="M463.971 17.4233V38.0766" stroke="black" stroke-width="0.285813" stroke-miterlimit="22.9256"/>
<path d="M478.798 17.4233H480.917L481.977 18.483L483.037 20.6025L484.097 22.7175L484.624 25.3645V30.131L484.097 33.3101L483.037 34.8975L481.977 37.0169L480.917 38.0766H478.798L477.211 37.0169L476.151 34.8975L475.623 33.3101L475.091 30.131V25.3645L475.623 22.7175L476.151 20.6025L477.211 18.483L478.798 17.4233Z" stroke="black" stroke-width="0.285813" stroke-miterlimit="22.9256"/>
<path d="M488.331 17.4233V38.0766" stroke="black" stroke-width="0.285813" stroke-miterlimit="22.9256"/>
<path d="M488.331 27.4839H496.804" stroke="black" stroke-width="0.285813" stroke-miterlimit="22.9256"/>
<path d="M496.804 38.0766V17.4233" stroke="black" stroke-width="0.285813" stroke-miterlimit="22.9256"/>
<path d="M434.317 51.8442H441.203L437.496 59.2578H439.083L440.671 60.3175L441.203 61.3772L441.73 64.0243V66.1437L441.203 69.3184L439.611 70.9058L438.024 71.9655H436.436L434.317 70.9058L433.789 69.846L433.257 68.2587" stroke="black" stroke-width="0.285813" stroke-miterlimit="22.9256"/>
<path d="M446.497 70.9054L445.437 71.9651L444.909 70.9054L445.437 69.8457L446.497 70.9054ZM446.497 70.9054V73.0248L445.437 75.1442L444.909 75.6719" stroke="black" stroke-width="0.285813" stroke-miterlimit="22.9256"/>
<path d="M458.149 54.4913L457.089 52.3719L455.498 51.8442H454.438L452.851 52.3719L451.263 55.551L450.736 60.3175V65.084L451.263 69.3184L452.851 70.9058L454.438 71.9655H454.97L456.557 70.9058L458.149 69.3184L458.677 66.1437V65.084L458.149 62.4369L456.557 60.3175L454.97 59.2578H454.438L452.851 60.3175L451.263 62.4369L450.736 65.084" stroke="black" stroke-width="0.285813" stroke-miterlimit="22.9256"/>
<path d="M469.797 51.8442H463.971L462.911 60.3175L463.971 59.2578L465.558 58.1981H467.15L468.738 59.2578L470.325 61.3772L470.857 64.0243V66.1437L470.325 69.3184L468.738 70.9058L467.15 71.9655H465.558L463.971 70.9058L462.911 69.846L462.384 68.2587" stroke="black" stroke-width="0.285813" stroke-miterlimit="22.9256"/>
<path d="M484.624 71.9651V58.1978L480.39 69.3181L476.683 58.1978V71.9651" stroke="black" stroke-width="0.285813" stroke-miterlimit="22.9256"/>
<path d="M487.799 56.6107V55.551L488.331 53.4316L488.859 52.3719L489.919 51.8442H492.566L493.625 52.3719L494.157 53.4316L494.685 55.551V57.6704L494.157 59.2578L493.098 62.4369L487.271 71.9655H495.217" stroke="black" stroke-width="0.285813" stroke-miterlimit="22.9256"/>
<path d="M14.9194 591.978V156.693" stroke="black" stroke-width="0.285813" stroke-miterlimit="22.9256"/>
<path d="M28.6868 595.684V394.986" stroke="black" stroke-width="0.285813" stroke-miterlimit="22.9256"/>
<path d="M28.6868 388.105V156.693" stroke="black" stroke-width="0.285813" stroke-miterlimit="22.9256"/>
<path d="M239.445 401.872V394.986" stroke="black" stroke-width="0.285813" stroke-miterlimit="22.9256"/>
<path d="M239.445 401.872H246.331V394.986" stroke="black" stroke-width="0.285813" stroke-miterlimit="22.9256"/>
<path d="M593.18 388.105V381.219H606.948H633.955" stroke="black" stroke-width="0.285813" stroke-miterlimit="22.9256"/>
<path d="M514.806 629.577H633.955" stroke="black" stroke-width="0.285813" stroke-miterlimit="22.9256"/>
<path d="M514.806 615.81H620.188H606.948" stroke="black" stroke-width="0.285813" stroke-miterlimit="22.9256"/>
<path d="M147.303 612.631H164.778H147.303Z" stroke="black" stroke-width="0.285813" stroke-miterlimit="22.9256"/>
<path d="M361.769 626.398H130.357" stroke="black" stroke-width="0.285813" stroke-miterlimit="22.9256"/>
<path d="M378.188 626.398L361.769 609.984" stroke="#FF0000" stroke-width="0.285813" stroke-miterlimit="22.9256"/>
<path d="M408.369 626.398L381.362 598.863" stroke="#FF0000" stroke-width="0.285813" stroke-miterlimit="22.9256"/>
<path d="M439.083 626.398L412.076 598.863" stroke="#FF0000" stroke-width="0.285813" stroke-miterlimit="22.9256"/>
<path d="M469.797 626.398L442.262 598.863" stroke="#FF0000" stroke-width="0.285813" stroke-miterlimit="22.9256"/>
<path d="M480.917 606.805L472.976 598.863" stroke="#FF0000" stroke-width="0.285813" stroke-miterlimit="22.9256"/>
<path d="M362.829 626.398L361.769 625.338" stroke="#FF0000" stroke-width="0.285813" stroke-miterlimit="22.9256"/>
<path d="M390.895 623.751L371.302 604.689" stroke="#FF0000" stroke-width="0.285813" stroke-miterlimit="22.9256"/>
<path d="M368.655 600.451C368.655 599.866 368.18 599.391 367.595 599.391C367.01 599.391 366.535 599.866 366.535 600.451C366.535 601.036 367.01 601.511 367.595 601.511C368.18 601.511 368.655 601.036 368.655 600.451Z" fill="#FF0000"/>
<path d="M367.595 600.451H368.655M368.655 600.451C368.655 599.866 368.18 599.391 367.595 599.391C367.01 599.391 366.535 599.866 366.535 600.451C366.535 601.036 367.01 601.511 367.595 601.511C368.18 601.511 368.655 601.036 368.655 600.451Z" stroke="black" stroke-width="0.285813" stroke-miterlimit="22.9256"/>
<path d="M423.729 626.398L413.668 615.81" stroke="#FF0000" stroke-width="0.285813" stroke-miterlimit="22.9256"/>
<path d="M405.722 608.396L396.721 598.863" stroke="#FF0000" stroke-width="0.285813" stroke-miterlimit="22.9256"/>
<path d="M452.855 623.751C452.855 623.166 452.38 622.691 451.795 622.691C451.21 622.691 450.736 623.166 450.736 623.751C450.736 624.336 451.21 624.811 451.795 624.811C452.38 624.811 452.855 624.336 452.855 623.751Z" fill="#FF0000"/>
<path d="M451.795 623.751H452.855M452.855 623.751C452.855 623.166 452.38 622.691 451.795 622.691C451.21 622.691 450.736 623.166 450.736 623.751C450.736 624.336 451.21 624.811 451.795 624.811C452.38 624.811 452.855 624.336 452.855 623.751Z" stroke="black" stroke-width="0.285813" stroke-miterlimit="22.9256"/>
<path d="M448.084 619.517L429.023 600.451" stroke="#FF0000" stroke-width="0.285813" stroke-miterlimit="22.9256"/>
<path d="M480.918 622.164L470.857 612.103" stroke="#FF0000" stroke-width="0.285813" stroke-miterlimit="22.9256"/>
<path d="M468.21 608.397C468.21 607.812 467.735 607.337 467.15 607.337C466.565 607.337 466.09 607.812 466.09 608.397C466.09 608.981 466.565 609.456 467.15 609.456C467.735 609.456 468.21 608.981 468.21 608.397Z" fill="#FF0000"/>
<path d="M467.15 608.397H468.21M468.21 608.397C468.21 607.812 467.735 607.337 467.15 607.337C466.565 607.337 466.09 607.812 466.09 608.397C466.09 608.981 466.565 609.456 467.15 609.456C467.735 609.456 468.21 608.981 468.21 608.397Z" stroke="black" stroke-width="0.285813" stroke-miterlimit="22.9256"/>
<path d="M463.443 604.689L457.617 598.863" stroke="#FF0000" stroke-width="0.285813" stroke-miterlimit="22.9256"/>
<path d="M361.769 598.863V626.398H480.918V598.863H361.769Z" stroke="#FF0000" stroke-width="0.285813" stroke-miterlimit="22.9256"/>
<path d="M161.075 612.631H164.778" stroke="black" stroke-width="0.285813" stroke-miterlimit="22.9256"/>
<path d="M130.357 612.631H239.445" stroke="black" stroke-width="0.285813" stroke-miterlimit="22.9256"/>
<path d="M246.331 612.631H361.769" stroke="black" stroke-width="0.285813" stroke-miterlimit="22.9256"/>
<path d="M41.9265 626.398H62.5798" stroke="black" stroke-width="0.285813" stroke-miterlimit="22.9256"/>
<path d="M41.9265 612.631H62.5798" stroke="black" stroke-width="0.285813" stroke-miterlimit="22.9256"/>
<path d="M130.357 612.631H164.778" stroke="black" stroke-width="0.285813" stroke-miterlimit="22.9256"/>
<path d="M130.357 612.631V626.398" stroke="black" stroke-width="0.285813" stroke-miterlimit="22.9256"/>
<path d="M62.5798 612.631V626.398" stroke="black" stroke-width="0.285813" stroke-miterlimit="22.9256"/>
<path d="M144.129 173.64V218.649" stroke="#008AB8" stroke-width="0.285813" stroke-miterlimit="22.9256"/>
<path d="M137.243 388.105V156.693H41.9265" stroke="black" stroke-width="0.285813" stroke-miterlimit="22.9256"/>
<path d="M41.9265 149.812H144.129" stroke="black" stroke-width="0.285813" stroke-miterlimit="22.9256"/>
<path d="M239.445 612.631V462.772" stroke="black" stroke-width="0.285813" stroke-miterlimit="22.9256"/>
<path d="M246.331 612.631V462.772" stroke="black" stroke-width="0.285813" stroke-miterlimit="22.9256"/>
<path d="M144.129 388.105V149.812" stroke="black" stroke-width="0.285813" stroke-miterlimit="22.9256"/>
<path d="M246.331 462.772H239.445" stroke="black" stroke-width="0.285813" stroke-miterlimit="22.9256"/>
<path d="M28.6868 394.986H82.701" stroke="black" stroke-width="0.285813" stroke-miterlimit="22.9256"/>
<path d="M130.357 394.986H151.01" stroke="black" stroke-width="0.285813" stroke-miterlimit="22.9256"/>
<path d="M28.6868 388.105H82.701V394.986" stroke="black" stroke-width="0.285813" stroke-miterlimit="22.9256"/>
<path d="M137.243 388.105H130.357V394.986" stroke="black" stroke-width="0.285813" stroke-miterlimit="22.9256"/>
<path d="M151.01 388.105V394.986" stroke="black" stroke-width="0.285813" stroke-miterlimit="22.9256"/>
<path d="M232.564 388.105V394.986" stroke="black" stroke-width="0.285813" stroke-miterlimit="22.9256"/>
<path d="M62.0477 258.368L61.5201 256.249L60.988 255.717L60.4604 254.661L59.4006 253.602H56.7536L55.6939 254.661L55.1662 255.717L54.6342 256.249L54.1065 258.368L53.5745 261.543V266.309L54.1065 268.956L54.6342 271.076L55.6939 273.195L56.7536 274.25H59.4006L60.4604 273.195L61.5201 271.076L62.0477 268.956" stroke="black" stroke-width="0.285813" stroke-miterlimit="22.9256"/>
<path d="M73.7001 249.895L63.1074 280.608" stroke="black" stroke-width="0.285813" stroke-miterlimit="22.9256"/>
<path d="M84.8205 253.602L80.5816 270.016L80.054 272.135L79.5219 273.195L78.4666 274.25H77.9346" stroke="black" stroke-width="0.285813" stroke-miterlimit="22.9256"/>
<path d="M76.8748 253.602L80.5815 270.016" stroke="black" stroke-width="0.285813" stroke-miterlimit="22.9256"/>
<path d="M47.7484 287.49H41.9266L41.3946 296.496L41.9266 295.436L43.514 294.376H45.6334L47.2208 295.436L48.2805 297.551L48.8081 300.198V302.317L48.2805 304.964L47.2208 307.084L45.6334 308.144H43.514L41.9266 307.084L41.3946 306.024L40.8669 303.909" stroke="black" stroke-width="0.285813" stroke-miterlimit="22.9256"/>
<path d="M53.5746 307.084L53.0469 308.143L52.5149 307.084L53.0469 306.024L53.5746 307.084ZM53.5746 307.084V309.203L53.0469 310.79L52.5149 311.85" stroke="black" stroke-width="0.285813" stroke-miterlimit="22.9256"/>
<path d="M58.3411 291.729L59.4008 290.669L61.5202 287.49V308.144" stroke="black" stroke-width="0.285813" stroke-miterlimit="22.9256"/>
<path d="M67.874 291.729L68.9337 290.669L70.5211 287.49V308.144" stroke="black" stroke-width="0.285813" stroke-miterlimit="22.9256"/>
<path d="M87.4676 308.143V294.376L83.2287 304.964L79.522 294.376V308.143" stroke="black" stroke-width="0.285813" stroke-miterlimit="22.9256"/>
<path d="M90.6422 292.257V291.729L91.1743 289.61L91.7019 288.55L92.7616 287.49H94.881L96.4684 288.55L96.9961 289.61L97.5281 291.729V293.316L96.9961 295.436L95.4087 298.083L89.5869 308.144H98.0558" stroke="black" stroke-width="0.285813" stroke-miterlimit="22.9256"/>
<path d="M117.122 441.587L108.648 461.713" stroke="black" stroke-width="0.285813" stroke-miterlimit="22.9256"/>
<path d="M108.648 441.587L117.122 461.713" stroke="black" stroke-width="0.285813" stroke-miterlimit="22.9256"/>
<path d="M122.948 441.587H125.063L126.123 442.647L127.714 444.234L128.242 446.354L128.77 449.001V454.295L128.242 456.947L127.714 459.062L126.123 460.653L125.063 461.713H122.948L121.888 460.653L120.297 459.062L119.769 456.947L119.237 454.295V449.001L119.769 446.354L120.297 444.234L121.888 442.647L122.948 441.587Z" stroke="black" stroke-width="0.285813" stroke-miterlimit="22.9256"/>
<path d="M139.89 461.713V441.587H133.536V458.006L133.009 460.121L132.477 460.653L130.889 461.713" stroke="black" stroke-width="0.285813" stroke-miterlimit="22.9256"/>
<path d="M151.542 461.713V441.587H145.189V458.006L144.657 460.121L144.129 460.653L142.537 461.713" stroke="black" stroke-width="0.285813" stroke-miterlimit="22.9256"/>
<path d="M108.116 482.361L107.589 485.013L106.001 487.128L104.414 488.188H103.882L102.295 487.128L101.235 485.013L100.175 482.361V481.302L101.235 478.655L102.295 476.54L103.882 475.48H104.414L106.001 476.54L107.589 478.655L108.116 482.361ZM108.116 482.361V487.128L107.589 491.894L106.001 495.074L104.414 496.133H103.354L101.763 495.074L101.235 492.954" stroke="black" stroke-width="0.285813" stroke-miterlimit="22.9256"/>
<path d="M113.415 495.074L112.883 496.134L112.355 495.074L112.883 494.014L113.415 495.074ZM113.415 495.074V496.661L112.883 498.781L112.355 499.84" stroke="black" stroke-width="0.285813" stroke-miterlimit="22.9256"/>
<path d="M120.828 475.48L119.237 476.54L118.709 478.655V480.246L119.237 482.361L120.296 483.421L122.416 484.481L124.535 485.013L125.595 487.128L126.123 489.247V491.894L125.595 494.014L125.063 495.074L122.948 496.133H120.828L119.237 495.074L118.709 494.014L118.181 491.894V489.247L118.709 487.128L119.769 485.013L121.356 484.481L124.003 483.421L125.063 482.361L125.595 480.246V478.655L125.063 476.54L122.948 475.48H120.828Z" stroke="black" stroke-width="0.285813" stroke-miterlimit="22.9256"/>
<path d="M136.715 478.655L136.183 476.54L134.068 475.48H133.008L131.417 476.54L130.357 479.187L129.829 484.481V489.247L130.357 492.954L131.417 495.074L133.008 496.133H133.536L135.656 495.074L136.715 492.954L137.243 490.307V489.247L136.715 486.068L135.656 484.481L133.536 483.421H133.008L131.417 484.481L130.357 486.068L129.829 489.247" stroke="black" stroke-width="0.285813" stroke-miterlimit="22.9256"/>
<path d="M151.542 496.134V482.362L147.835 492.954L143.597 482.362V496.134" stroke="black" stroke-width="0.285813" stroke-miterlimit="22.9256"/>
<path d="M154.717 480.246V479.187L155.249 477.595L155.777 476.54L156.837 475.48H159.484L160.543 476.54L161.075 477.595L161.603 479.187V481.302L161.075 483.421L160.016 486.068L154.189 496.133H162.131" stroke="black" stroke-width="0.285813" stroke-miterlimit="22.9256"/>
<path d="M62.5798 626.398H130.357" stroke="black" stroke-width="0.285813" stroke-miterlimit="22.9256"/>
<path d="M28.6869 632.752H21.801" stroke="black" stroke-width="0.285813" stroke-miterlimit="22.9256"/>
<path d="M1.1521 632.752H41.9266" stroke="black" stroke-width="0.285813" stroke-miterlimit="22.9256"/>
<path d="M41.9266 591.978H1.1521L41.9266 632.752V591.978ZM1.1521 591.978L41.9266 632.752H1.1521V591.978Z" fill="#0000FF"/>
<path d="M1.1521 591.978H41.9266V632.752M1.1521 591.978L41.9266 632.752M1.1521 591.978V632.752H41.9266" stroke="#0000FF" stroke-width="0.285813" stroke-miterlimit="22.9256"/>
<path d="M41.9266 591.978H1.1521V632.752H41.9266V591.978Z" stroke="black" stroke-width="0.285813" stroke-miterlimit="22.9256"/>
<path d="M1.1521 632.752L41.9266 591.978" stroke="black" stroke-width="0.285813" stroke-miterlimit="22.9256"/>
<path d="M41.9266 632.752L1.1521 591.978" stroke="black" stroke-width="0.285813" stroke-miterlimit="22.9256"/>
<path d="M477.738 632.752H518.517" stroke="black" stroke-width="0.285813" stroke-miterlimit="22.9256"/>
<path d="M518.517 591.978H477.743L518.517 632.752V591.978ZM477.743 591.978L518.517 632.752H477.743V591.978Z" fill="#0000FF"/>
<path d="M477.743 591.978H518.517V632.752M477.743 591.978L518.517 632.752M477.743 591.978V632.752H518.517" stroke="#0000FF" stroke-width="0.285813" stroke-miterlimit="22.9256"/>
<path d="M518.517 591.978H477.738V632.752H518.517V591.978Z" stroke="black" stroke-width="0.285813" stroke-miterlimit="22.9256"/>
<path d="M477.738 632.752L518.517 591.978" stroke="black" stroke-width="0.285813" stroke-miterlimit="22.9256"/>
<path d="M518.517 632.752L477.738 591.978" stroke="black" stroke-width="0.285813" stroke-miterlimit="22.9256"/>
<path d="M1.1521 156.693H41.9266" stroke="black" stroke-width="0.285813" stroke-miterlimit="22.9256"/>
<path d="M41.9266 115.919H1.1521L41.9266 156.693V115.919ZM1.1521 115.919L41.9266 156.693H1.1521V115.919Z" fill="#0000FF"/>
<path d="M1.1521 115.919H41.9266V156.693M1.1521 115.919L41.9266 156.693M1.1521 115.919V156.693H41.9266" stroke="#0000FF" stroke-width="0.285813" stroke-miterlimit="22.9256"/>
<path d="M41.9266 115.919H1.1521V156.693H41.9266V115.919Z" stroke="black" stroke-width="0.285813" stroke-miterlimit="22.9256"/>
<path d="M1.1521 156.693L41.9266 115.919" stroke="black" stroke-width="0.285813" stroke-miterlimit="22.9256"/>
<path d="M41.9266 156.693L1.1521 115.919" stroke="black" stroke-width="0.285813" stroke-miterlimit="22.9256"/>
<path d="M477.738 156.693H518.517" stroke="black" stroke-width="0.285813" stroke-miterlimit="22.9256"/>
<path d="M518.517 115.919H477.743L518.517 156.693V115.919ZM477.743 115.919L518.517 156.693H477.743V115.919Z" fill="#0000FF"/>
<path d="M477.743 115.919H518.517V156.693M477.743 115.919L518.517 156.693M477.743 115.919V156.693H518.517" stroke="#0000FF" stroke-width="0.285813" stroke-miterlimit="22.9256"/>
<path d="M518.517 115.919H477.738V156.693H512.871H518.517V115.919Z" stroke="black" stroke-width="0.285813" stroke-miterlimit="22.9256"/>
<path d="M477.738 156.693L518.517 115.919" stroke="black" stroke-width="0.285813" stroke-miterlimit="22.9256"/>
<path d="M518.517 156.693L477.738 115.919" stroke="black" stroke-width="0.285813" stroke-miterlimit="22.9256"/>
<path d="M144.129 149.812H62.5798V177.347H144.129V149.812Z" stroke="#5CB800" stroke-width="0.285813" stroke-miterlimit="22.9256"/>
<path d="M70.521 170.461H81.6413" stroke="#5CB800" stroke-width="0.285813" stroke-miterlimit="22.9256"/>
<path d="M82.7012 168.873V158.281" stroke="#5CB800" stroke-width="0.285813" stroke-miterlimit="22.9256"/>
<path d="M81.6413 156.693H70.521" stroke="#5CB800" stroke-width="0.285813" stroke-miterlimit="22.9256"/>
<path d="M69.4614 158.281V168.873" stroke="#5CB800" stroke-width="0.285813" stroke-miterlimit="22.9256"/>
<path d="M69.4614 169.137C69.4614 169.867 70.055 170.461 70.785 170.461" stroke="#5CB800" stroke-width="0.285813" stroke-miterlimit="22.9256"/>
<path d="M81.3774 170.465C82.1074 170.465 82.701 169.872 82.701 169.142" stroke="#5CB800" stroke-width="0.285813" stroke-miterlimit="22.9256"/>
<path d="M70.785 156.693C70.055 156.693 69.4614 157.287 69.4614 158.017" stroke="#5CB800" stroke-width="0.285813" stroke-miterlimit="22.9256"/>
<path d="M123.476 158.281V168.873" stroke="#5CB800" stroke-width="0.285813" stroke-miterlimit="22.9256"/>
<path d="M125.063 170.461H136.183" stroke="#5CB800" stroke-width="0.285813" stroke-miterlimit="22.9256"/>
<path d="M137.243 168.873V158.281" stroke="#5CB800" stroke-width="0.285813" stroke-miterlimit="22.9256"/>
<path d="M136.183 156.693H125.063" stroke="#5CB800" stroke-width="0.285813" stroke-miterlimit="22.9256"/>
<path d="M137.243 158.017C137.243 157.287 136.649 156.693 135.919 156.693" stroke="#5CB800" stroke-width="0.285813" stroke-miterlimit="22.9256"/>
<path d="M90.9061 156.693C90.1761 156.693 89.5825 157.287 89.5825 158.017" stroke="#5CB800" stroke-width="0.285813" stroke-miterlimit="22.9256"/>
<path d="M117.122 158.017C117.122 157.287 116.528 156.693 115.798 156.693" stroke="#5CB800" stroke-width="0.285813" stroke-miterlimit="22.9256"/>
<path d="M89.5869 158.281V168.873" stroke="#5CB800" stroke-width="0.285813" stroke-miterlimit="22.9256"/>
<path d="M91.1743 170.461H115.534" stroke="#5CB800" stroke-width="0.285813" stroke-miterlimit="22.9256"/>
<path d="M117.122 168.873V158.281" stroke="#5CB800" stroke-width="0.285813" stroke-miterlimit="22.9256"/>
<path d="M115.534 156.693H91.1743" stroke="#5CB800" stroke-width="0.285813" stroke-miterlimit="22.9256"/>
<path d="M70.521 170.461H81.6413" stroke="#5CB800" stroke-width="0.285813" stroke-miterlimit="22.9256"/>
<path d="M82.7012 168.873V158.281" stroke="#5CB800" stroke-width="0.285813" stroke-miterlimit="22.9256"/>
<path d="M81.6413 156.693H70.521" stroke="#5CB800" stroke-width="0.285813" stroke-miterlimit="22.9256"/>
<path d="M69.4614 158.281V168.873" stroke="#5CB800" stroke-width="0.285813" stroke-miterlimit="22.9256"/>
<path d="M70.785 156.693C70.055 156.693 69.4614 157.287 69.4614 158.017" stroke="#5CB800" stroke-width="0.285813" stroke-miterlimit="22.9256"/>
<path d="M82.701 158.017C82.701 157.287 82.1074 156.693 81.3774 156.693" stroke="#5CB800" stroke-width="0.285813" stroke-miterlimit="22.9256"/>
<path d="M123.476 158.281V168.873" stroke="#5CB800" stroke-width="0.285813" stroke-miterlimit="22.9256"/>
<path d="M125.063 170.461H136.183" stroke="#5CB800" stroke-width="0.285813" stroke-miterlimit="22.9256"/>
<path d="M137.243 168.873V158.281" stroke="#5CB800" stroke-width="0.285813" stroke-miterlimit="22.9256"/>
<path d="M136.183 156.693H125.063" stroke="#5CB800" stroke-width="0.285813" stroke-miterlimit="22.9256"/>
<path d="M123.476 169.137C123.476 169.867 124.069 170.461 124.799 170.461" stroke="#5CB800" stroke-width="0.285813" stroke-miterlimit="22.9256"/>
<path d="M135.919 170.465C136.649 170.465 137.243 169.872 137.243 169.142" stroke="#5CB800" stroke-width="0.285813" stroke-miterlimit="22.9256"/>
<path d="M124.799 156.693C124.069 156.693 123.476 157.287 123.476 158.017" stroke="#5CB800" stroke-width="0.285813" stroke-miterlimit="22.9256"/>
<path d="M89.5825 169.137C89.5825 169.867 90.1761 170.461 90.9061 170.461" stroke="#5CB800" stroke-width="0.285813" stroke-miterlimit="22.9256"/>
<path d="M115.798 170.465C116.528 170.465 117.122 169.872 117.122 169.142" stroke="#5CB800" stroke-width="0.285813" stroke-miterlimit="22.9256"/>
<path d="M117.122 158.017C117.122 157.287 116.528 156.693 115.798 156.693" stroke="#5CB800" stroke-width="0.285813" stroke-miterlimit="22.9256"/>
<path d="M89.5869 158.281V168.873" stroke="#5CB800" stroke-width="0.285813" stroke-miterlimit="22.9256"/>
<path d="M91.1743 170.461H115.534" stroke="#5CB800" stroke-width="0.285813" stroke-miterlimit="22.9256"/>
<path d="M117.122 168.873V158.281" stroke="#5CB800" stroke-width="0.285813" stroke-miterlimit="22.9256"/>
<path d="M115.534 156.693H91.1743" stroke="#5CB800" stroke-width="0.285813" stroke-miterlimit="22.9256"/>
<path d="M137.243 158.281L133.536 167.814L125.063 170.461" stroke="#5CB800" stroke-width="0.285813" stroke-miterlimit="22.9256"/>
<path d="M117.122 158.281L112.355 167.814L91.1743 170.461" stroke="#5CB800" stroke-width="0.285813" stroke-miterlimit="22.9256"/>
<path d="M82.701 158.281L78.9942 167.814L70.521 170.461" stroke="#5CB800" stroke-width="0.285813" stroke-miterlimit="22.9256"/>
<path d="M48.8081 88.9116V6.83496H21.801V88.9116H48.8081Z" stroke="#5CB800" stroke-width="0.285813" stroke-miterlimit="22.9256"/>
<path d="M28.6868 15.3037V25.8964" stroke="#5CB800" stroke-width="0.285813" stroke-miterlimit="22.9256"/>
<path d="M29.7466 27.4839H40.8669" stroke="#5CB800" stroke-width="0.285813" stroke-miterlimit="22.9256"/>
<path d="M41.9265 25.8964V15.3037" stroke="#5CB800" stroke-width="0.285813" stroke-miterlimit="22.9256"/>
<path d="M40.8669 13.7168H29.7466" stroke="#5CB800" stroke-width="0.285813" stroke-miterlimit="22.9256"/>
<path d="M30.0103 13.7168C29.2804 13.7168 28.6868 14.3104 28.6868 15.0403" stroke="#5CB800" stroke-width="0.285813" stroke-miterlimit="22.9256"/>
<path d="M28.6868 25.6328C28.6868 26.3627 29.2804 26.9563 30.0103 26.9563" stroke="#5CB800" stroke-width="0.285813" stroke-miterlimit="22.9256"/>
<path d="M42.4541 15.0403C42.4541 14.3104 41.8605 13.7168 41.1306 13.7168" stroke="#5CB800" stroke-width="0.285813" stroke-miterlimit="22.9256"/>
<path d="M41.1306 26.9563C41.8605 26.9563 42.4541 26.3627 42.4541 25.6328" stroke="#5CB800" stroke-width="0.285813" stroke-miterlimit="22.9256"/>
<path d="M40.8669 68.2583H29.7466" stroke="#5CB800" stroke-width="0.285813" stroke-miterlimit="22.9256"/>
<path d="M28.6868 69.8457V80.4384" stroke="#5CB800" stroke-width="0.285813" stroke-miterlimit="22.9256"/>
<path d="M29.7466 82.0259H40.8669" stroke="#5CB800" stroke-width="0.285813" stroke-miterlimit="22.9256"/>
<path d="M41.9265 80.4384V69.8457" stroke="#5CB800" stroke-width="0.285813" stroke-miterlimit="22.9256"/>
<path d="M30.0103 68.2583C29.2804 68.2583 28.6868 68.8519 28.6868 69.5818" stroke="#5CB800" stroke-width="0.285813" stroke-miterlimit="22.9256"/>
<path d="M28.6868 80.1748C28.6868 80.9047 29.2804 81.4983 30.0103 81.4983" stroke="#5CB800" stroke-width="0.285813" stroke-miterlimit="22.9256"/>
<path d="M42.4541 69.5862C42.4541 68.8563 41.8605 68.2627 41.1306 68.2627" stroke="#5CB800" stroke-width="0.285813" stroke-miterlimit="22.9256"/>
<path d="M41.1306 81.4983C41.8605 81.4983 42.4541 80.9047 42.4541 80.1748" stroke="#5CB800" stroke-width="0.285813" stroke-miterlimit="22.9256"/>
<path d="M30.0103 33.8379C29.2804 33.8379 28.6868 34.4315 28.6868 35.1614" stroke="#5CB800" stroke-width="0.285813" stroke-miterlimit="22.9256"/>
<path d="M42.4541 35.1614C42.4541 34.4315 41.8605 33.8379 41.1306 33.8379" stroke="#5CB800" stroke-width="0.285813" stroke-miterlimit="22.9256"/>
<path d="M28.6868 60.0532C28.6868 60.7831 29.2804 61.3768 30.0103 61.3768" stroke="#5CB800" stroke-width="0.285813" stroke-miterlimit="22.9256"/>
<path d="M41.1306 61.3768C41.8605 61.3768 42.4541 60.7831 42.4541 60.0532" stroke="#5CB800" stroke-width="0.285813" stroke-miterlimit="22.9256"/>
<path d="M40.8669 34.3696H29.7466" stroke="#5CB800" stroke-width="0.285813" stroke-miterlimit="22.9256"/>
<path d="M28.6868 35.4297V60.3174" stroke="#5CB800" stroke-width="0.285813" stroke-miterlimit="22.9256"/>
<path d="M29.7466 61.377H40.8669" stroke="#5CB800" stroke-width="0.285813" stroke-miterlimit="22.9256"/>
<path d="M41.9265 60.3174V35.4297" stroke="#5CB800" stroke-width="0.285813" stroke-miterlimit="22.9256"/>
<path d="M48.8081 88.9116V6.83496H21.801V88.9116H48.8081Z" stroke="#5CB800" stroke-width="0.285813" stroke-miterlimit="22.9256"/>
<path d="M28.6868 15.3037V25.8964" stroke="#5CB800" stroke-width="0.285813" stroke-miterlimit="22.9256"/>
<path d="M29.7466 27.4839H40.8669" stroke="#5CB800" stroke-width="0.285813" stroke-miterlimit="22.9256"/>
<path d="M41.9265 25.8964V15.3037" stroke="#5CB800" stroke-width="0.285813" stroke-miterlimit="22.9256"/>
<path d="M40.8669 13.7168H29.7466" stroke="#5CB800" stroke-width="0.285813" stroke-miterlimit="22.9256"/>
<path d="M30.0103 13.7168C29.2804 13.7168 28.6868 14.3104 28.6868 15.0403" stroke="#5CB800" stroke-width="0.285813" stroke-miterlimit="22.9256"/>
<path d="M28.6868 25.6328C28.6868 26.3627 29.2804 26.9563 30.0103 26.9563" stroke="#5CB800" stroke-width="0.285813" stroke-miterlimit="22.9256"/>
<path d="M42.4541 15.0403C42.4541 14.3104 41.8605 13.7168 41.1306 13.7168" stroke="#5CB800" stroke-width="0.285813" stroke-miterlimit="22.9256"/>
<path d="M41.1306 26.9563C41.8605 26.9563 42.4541 26.3627 42.4541 25.6328" stroke="#5CB800" stroke-width="0.285813" stroke-miterlimit="22.9256"/>
<path d="M40.8669 68.2583H29.7466" stroke="#5CB800" stroke-width="0.285813" stroke-miterlimit="22.9256"/>
<path d="M28.6868 69.8457V80.4384" stroke="#5CB800" stroke-width="0.285813" stroke-miterlimit="22.9256"/>
<path d="M29.7466 82.0259H40.8669" stroke="#5CB800" stroke-width="0.285813" stroke-miterlimit="22.9256"/>
<path d="M41.9265 80.4384V69.8457" stroke="#5CB800" stroke-width="0.285813" stroke-miterlimit="22.9256"/>
<path d="M30.0103 68.2583C29.2804 68.2583 28.6868 68.8519 28.6868 69.5818" stroke="#5CB800" stroke-width="0.285813" stroke-miterlimit="22.9256"/>
<path d="M28.6868 80.1748C28.6868 80.9047 29.2804 81.4983 30.0103 81.4983" stroke="#5CB800" stroke-width="0.285813" stroke-miterlimit="22.9256"/>
<path d="M42.4541 69.5862C42.4541 68.8563 41.8605 68.2627 41.1306 68.2627" stroke="#5CB800" stroke-width="0.285813" stroke-miterlimit="22.9256"/>
<path d="M41.1306 81.4983C41.8605 81.4983 42.4541 80.9047 42.4541 80.1748" stroke="#5CB800" stroke-width="0.285813" stroke-miterlimit="22.9256"/>
<path d="M30.0103 33.8379C29.2804 33.8379 28.6868 34.4315 28.6868 35.1614" stroke="#5CB800" stroke-width="0.285813" stroke-miterlimit="22.9256"/>
<path d="M42.4541 35.1614C42.4541 34.4315 41.8605 33.8379 41.1306 33.8379" stroke="#5CB800" stroke-width="0.285813" stroke-miterlimit="22.9256"/>
<path d="M28.6868 60.0532C28.6868 60.7831 29.2804 61.3768 30.0103 61.3768" stroke="#5CB800" stroke-width="0.285813" stroke-miterlimit="22.9256"/>
<path d="M41.1306 61.3768C41.8605 61.3768 42.4541 60.7831 42.4541 60.0532" stroke="#5CB800" stroke-width="0.285813" stroke-miterlimit="22.9256"/>
<path d="M40.8669 34.3696H29.7466" stroke="#5CB800" stroke-width="0.285813" stroke-miterlimit="22.9256"/>
<path d="M28.6868 35.4297V60.3174" stroke="#5CB800" stroke-width="0.285813" stroke-miterlimit="22.9256"/>
<path d="M29.7466 61.377H40.8669" stroke="#5CB800" stroke-width="0.285813" stroke-miterlimit="22.9256"/>
<path d="M41.9265 60.3174V35.4297" stroke="#5CB800" stroke-width="0.285813" stroke-miterlimit="22.9256"/>
<path d="M40.8668 82.0257L30.8062 77.7913L28.6868 69.8457" stroke="#5CB800" stroke-width="0.285813" stroke-miterlimit="22.9256"/>
<path d="M40.8668 61.3771L31.3338 57.1383L28.6868 35.4297" stroke="#5CB800" stroke-width="0.285813" stroke-miterlimit="22.9256"/>
<path d="M40.8668 27.4837L30.8062 23.2493L28.6868 15.3037" stroke="#5CB800" stroke-width="0.285813" stroke-miterlimit="22.9256"/>
<path d="M518.517 568.149V575.031H524.871L518.517 568.149ZM518.517 575.031H524.871L518.517 615.805V575.031Z" fill="black"/>
<path d="M518.517 575.031V568.149L524.871 575.031M518.517 575.031H524.871M518.517 575.031V615.805L524.871 575.031" stroke="black" stroke-width="0.285813" stroke-miterlimit="22.9256"/>
<path d="M518.517 568.149H566.173L524.871 575.031L518.517 568.149Z" fill="black"/>
<path d="M518.517 568.149H566.173L524.871 575.031L518.517 568.149Z" stroke="black" stroke-width="0.285813" stroke-miterlimit="22.9256"/>
<path d="M518.517 568.149H566.173L524.871 575.031L518.517 615.81V568.149ZM518.517 568.149H566.173V615.81H518.517V568.149Z" stroke="black" stroke-width="0.285813" stroke-miterlimit="22.9256"/>
<path d="M518.517 568.149H566.173V615.81H518.517V568.149Z" stroke="black" stroke-width="0.285813" stroke-miterlimit="22.9256"/>
</g>
<defs>
<clipPath id="clip0_9_7075">
<rect width="634.496" height="633.906" fill="white"/>
</clipPath>
</defs>
</svg>
